<?xml version="1.0" encoding="utf-8" standalone="no"?>
<!DOCTYPE svg PUBLIC "-//W3C//DTD SVG 1.1//EN"
  "http://www.w3.org/Graphics/SVG/1.1/DTD/svg11.dtd">
<svg xmlns:xlink="http://www.w3.org/1999/xlink" width="603.682812pt" height="337.718906pt" viewBox="0 0 603.682812 337.718906" xmlns="http://www.w3.org/2000/svg" version="1.1">
 <metadata>
  <rdf:RDF xmlns:dc="http://purl.org/dc/elements/1.1/" xmlns:cc="http://creativecommons.org/ns#" xmlns:rdf="http://www.w3.org/1999/02/22-rdf-syntax-ns#">
   <cc:Work>
    <dc:type rdf:resource="http://purl.org/dc/dcmitype/StillImage"/>
    <dc:date>2026-06-13T14:54:50.474346</dc:date>
    <dc:format>image/svg+xml</dc:format>
    <dc:creator>
     <cc:Agent>
      <dc:title>Matplotlib v3.11.0, https://matplotlib.org/</dc:title>
     </cc:Agent>
    </dc:creator>
   </cc:Work>
  </rdf:RDF>
 </metadata>
 <defs>
  <style type="text/css">*{stroke-linejoin: round; stroke-linecap: butt}</style>
 </defs>
 <g id="figure_1">
  <g id="patch_1">
   <path d="M 0 337.718906 
L 603.682812 337.718906 
L 603.682812 0 
L 0 0 
z
" style="fill: #ffffff"/>
  </g>
  <g id="axes_1">
   <g id="patch_2">
    <path d="M 38.482813 274.617185 
L 292.119176 274.617185 
L 292.119176 47.219065 
L 38.482813 47.219065 
z
" style="fill: #ffffff"/>
   </g>
   <g id="matplotlib.axis_1">
    <g id="xtick_1">
     <g id="line2d_1">
      <defs>
       <path id="m076695b251" d="M 0 0 
L 0 3.5 
" style="stroke: #000000; stroke-width: 0.8"/>
      </defs>
      <g>
       <use xlink:href="#m076695b251" x="64.721057" y="274.617185" style="stroke: #000000; stroke-width: 0.8"/>
      </g>
     </g>
     <g id="text_1">
      <!-- −1.0 -->
      <g transform="translate(52.579651 289.214841) scale(0.1 -0.1)">
       <defs>
        <path id="DejaVuSans-c9c" d="M 678 2272 
L 4684 2272 
L 4684 1741 
L 678 1741 
L 678 2272 
z
" transform="scale(0.015625)"/>
        <path id="DejaVuSans-14" d="M 794 531 
L 1825 531 
L 1825 4091 
L 703 3866 
L 703 4441 
L 1819 4666 
L 2450 4666 
L 2450 531 
L 3481 531 
L 3481 0 
L 794 0 
L 794 531 
z
" transform="scale(0.015625)"/>
        <path id="DejaVuSans-11" d="M 684 794 
L 1344 794 
L 1344 0 
L 684 0 
L 684 794 
z
" transform="scale(0.015625)"/>
        <path id="DejaVuSans-13" d="M 2034 4250 
Q 1547 4250 1301 3770 
Q 1056 3291 1056 2328 
Q 1056 1369 1301 889 
Q 1547 409 2034 409 
Q 2525 409 2770 889 
Q 3016 1369 3016 2328 
Q 3016 3291 2770 3770 
Q 2525 4250 2034 4250 
z
M 2034 4750 
Q 2819 4750 3233 4129 
Q 3647 3509 3647 2328 
Q 3647 1150 3233 529 
Q 2819 -91 2034 -91 
Q 1250 -91 836 529 
Q 422 1150 422 2328 
Q 422 3509 836 4129 
Q 1250 4750 2034 4750 
z
" transform="scale(0.015625)"/>
       </defs>
       <use xlink:href="#DejaVuSans-c9c"/>
       <use xlink:href="#DejaVuSans-14" transform="translate(83.796875 0)"/>
       <use xlink:href="#DejaVuSans-11" transform="translate(147.421875 0)"/>
       <use xlink:href="#DejaVuSans-13" transform="translate(179.203125 0)"/>
      </g>
     </g>
    </g>
    <g id="xtick_2">
     <g id="line2d_2">
      <g>
       <use xlink:href="#m076695b251" x="108.451465" y="274.617185" style="stroke: #000000; stroke-width: 0.8"/>
      </g>
     </g>
     <g id="text_2">
      <!-- −0.5 -->
      <g transform="translate(96.310058 289.214841) scale(0.1 -0.1)">
       <defs>
        <path id="DejaVuSans-18" d="M 691 4666 
L 3169 4666 
L 3169 4134 
L 1269 4134 
L 1269 2991 
Q 1406 3038 1543 3061 
Q 1681 3084 1819 3084 
Q 2600 3084 3056 2656 
Q 3513 2228 3513 1497 
Q 3513 744 3044 326 
Q 2575 -91 1722 -91 
Q 1428 -91 1123 -41 
Q 819 9 494 109 
L 494 744 
Q 775 591 1075 516 
Q 1375 441 1709 441 
Q 2250 441 2565 725 
Q 2881 1009 2881 1497 
Q 2881 1984 2565 2268 
Q 2250 2553 1709 2553 
Q 1456 2553 1204 2497 
Q 953 2441 691 2322 
L 691 4666 
z
" transform="scale(0.015625)"/>
       </defs>
       <use xlink:href="#DejaVuSans-c9c"/>
       <use xlink:href="#DejaVuSans-13" transform="translate(83.796875 0)"/>
       <use xlink:href="#DejaVuSans-11" transform="translate(147.421875 0)"/>
       <use xlink:href="#DejaVuSans-18" transform="translate(179.203125 0)"/>
      </g>
     </g>
    </g>
    <g id="xtick_3">
     <g id="line2d_3">
      <g>
       <use xlink:href="#m076695b251" x="152.181872" y="274.617185" style="stroke: #000000; stroke-width: 0.8"/>
      </g>
     </g>
     <g id="text_3">
      <!-- 0.0 -->
      <g transform="translate(144.23031 289.214841) scale(0.1 -0.1)">
       <use xlink:href="#DejaVuSans-13"/>
       <use xlink:href="#DejaVuSans-11" transform="translate(63.625 0)"/>
       <use xlink:href="#DejaVuSans-13" transform="translate(95.40625 0)"/>
      </g>
     </g>
    </g>
    <g id="xtick_4">
     <g id="line2d_4">
      <g>
       <use xlink:href="#m076695b251" x="195.91228" y="274.617185" style="stroke: #000000; stroke-width: 0.8"/>
      </g>
     </g>
     <g id="text_4">
      <!-- 0.5 -->
      <g transform="translate(187.960717 289.214841) scale(0.1 -0.1)">
       <use xlink:href="#DejaVuSans-13"/>
       <use xlink:href="#DejaVuSans-11" transform="translate(63.625 0)"/>
       <use xlink:href="#DejaVuSans-18" transform="translate(95.40625 0)"/>
      </g>
     </g>
    </g>
    <g id="xtick_5">
     <g id="line2d_5">
      <g>
       <use xlink:href="#m076695b251" x="239.642687" y="274.617185" style="stroke: #000000; stroke-width: 0.8"/>
      </g>
     </g>
     <g id="text_5">
      <!-- 1.0 -->
      <g transform="translate(231.691125 289.214841) scale(0.1 -0.1)">
       <use xlink:href="#DejaVuSans-14"/>
       <use xlink:href="#DejaVuSans-11" transform="translate(63.625 0)"/>
       <use xlink:href="#DejaVuSans-13" transform="translate(95.40625 0)"/>
      </g>
     </g>
    </g>
    <g id="xtick_6">
     <g id="line2d_6">
      <g>
       <use xlink:href="#m076695b251" x="283.373095" y="274.617185" style="stroke: #000000; stroke-width: 0.8"/>
      </g>
     </g>
     <g id="text_6">
      <!-- 1.5 -->
      <g transform="translate(275.421532 289.214841) scale(0.1 -0.1)">
       <use xlink:href="#DejaVuSans-14"/>
       <use xlink:href="#DejaVuSans-11" transform="translate(63.625 0)"/>
       <use xlink:href="#DejaVuSans-18" transform="translate(95.40625 0)"/>
      </g>
     </g>
    </g>
   </g>
   <g id="matplotlib.axis_2">
    <g id="ytick_1">
     <g id="line2d_7">
      <defs>
       <path id="m027340d4a8" d="M 0 0 
L -3.5 0 
" style="stroke: #000000; stroke-width: 0.8"/>
      </defs>
      <g>
       <use xlink:href="#m027340d4a8" x="38.482813" y="248.37894" style="stroke: #000000; stroke-width: 0.8"/>
      </g>
     </g>
     <g id="text_7">
      <!-- −1.0 -->
      <g transform="translate(7.2 252.177768) scale(0.1 -0.1)">
       <use xlink:href="#DejaVuSans-c9c"/>
       <use xlink:href="#DejaVuSans-14" transform="translate(83.796875 0)"/>
       <use xlink:href="#DejaVuSans-11" transform="translate(147.421875 0)"/>
       <use xlink:href="#DejaVuSans-13" transform="translate(179.203125 0)"/>
      </g>
     </g>
    </g>
    <g id="ytick_2">
     <g id="line2d_8">
      <g>
       <use xlink:href="#m027340d4a8" x="38.482813" y="204.648533" style="stroke: #000000; stroke-width: 0.8"/>
      </g>
     </g>
     <g id="text_8">
      <!-- −0.5 -->
      <g transform="translate(7.2 208.447361) scale(0.1 -0.1)">
       <use xlink:href="#DejaVuSans-c9c"/>
       <use xlink:href="#DejaVuSans-13" transform="translate(83.796875 0)"/>
       <use xlink:href="#DejaVuSans-11" transform="translate(147.421875 0)"/>
       <use xlink:href="#DejaVuSans-18" transform="translate(179.203125 0)"/>
      </g>
     </g>
    </g>
    <g id="ytick_3">
     <g id="line2d_9">
      <g>
       <use xlink:href="#m027340d4a8" x="38.482813" y="160.918125" style="stroke: #000000; stroke-width: 0.8"/>
      </g>
     </g>
     <g id="text_9">
      <!-- 0.0 -->
      <g transform="translate(15.579688 164.716953) scale(0.1 -0.1)">
       <use xlink:href="#DejaVuSans-13"/>
       <use xlink:href="#DejaVuSans-11" transform="translate(63.625 0)"/>
       <use xlink:href="#DejaVuSans-13" transform="translate(95.40625 0)"/>
      </g>
     </g>
    </g>
    <g id="ytick_4">
     <g id="line2d_10">
      <g>
       <use xlink:href="#m027340d4a8" x="38.482813" y="117.187717" style="stroke: #000000; stroke-width: 0.8"/>
      </g>
     </g>
     <g id="text_10">
      <!-- 0.5 -->
      <g transform="translate(15.579688 120.986546) scale(0.1 -0.1)">
       <use xlink:href="#DejaVuSans-13"/>
       <use xlink:href="#DejaVuSans-11" transform="translate(63.625 0)"/>
       <use xlink:href="#DejaVuSans-18" transform="translate(95.40625 0)"/>
      </g>
     </g>
    </g>
    <g id="ytick_5">
     <g id="line2d_11">
      <g>
       <use xlink:href="#m027340d4a8" x="38.482813" y="73.45731" style="stroke: #000000; stroke-width: 0.8"/>
      </g>
     </g>
     <g id="text_11">
      <!-- 1.0 -->
      <g transform="translate(15.579688 77.256138) scale(0.1 -0.1)">
       <use xlink:href="#DejaVuSans-14"/>
       <use xlink:href="#DejaVuSans-11" transform="translate(63.625 0)"/>
       <use xlink:href="#DejaVuSans-13" transform="translate(95.40625 0)"/>
      </g>
     </g>
    </g>
   </g>
   <g id="line2d_12">
    <path d="M 239.642687 160.918125 
L 239.545107 156.787838 
L 239.252586 152.666768 
L 238.765776 148.56411 
L 238.085764 144.489018 
L 237.214066 140.450586 
L 236.152628 136.457825 
L 234.903819 132.519645 
L 233.470425 128.644833 
L 231.855644 124.842035 
L 230.063079 121.119737 
L 228.096732 117.486244 
L 225.960988 113.949665 
L 223.660615 110.517892 
L 221.200744 107.198581 
L 218.586866 103.999139 
L 215.824811 100.926705 
L 212.920745 97.988136 
L 209.881147 95.189989 
L 206.712798 92.538506 
L 203.42277 90.039606 
L 200.018404 87.698862 
L 196.507295 85.5215 
L 192.897279 83.512377 
L 189.196411 81.675977 
L 185.41295 80.016397 
L 181.555336 78.53734 
L 177.632179 77.242107 
L 173.652233 76.133588 
L 169.624378 75.214256 
L 165.557601 74.486163 
L 161.460978 73.950934 
L 157.34365 73.609762 
L 153.214804 73.46341 
L 149.083653 73.512203 
L 144.959415 73.756033 
L 140.851294 74.194356 
L 136.768455 74.826193 
L 132.72001 75.650135 
L 128.714992 76.664344 
L 124.762337 77.866555 
L 120.870866 79.254087 
L 117.049263 80.823843 
L 113.306054 82.572322 
L 109.649592 84.49562 
L 106.088036 86.589446 
L 102.629334 88.849129 
L 99.281203 91.269627 
L 96.051113 93.845537 
L 92.946274 96.571112 
L 89.973612 99.440271 
L 87.139761 102.446611 
L 84.451045 105.583423 
L 81.913462 108.843709 
L 79.532676 112.220194 
L 77.313999 115.705342 
L 75.262381 119.291378 
L 73.382401 122.9703 
L 71.678253 126.733897 
L 70.15374 130.573774 
L 68.812264 134.48136 
L 67.656818 138.447937 
L 66.68998 142.464654 
L 65.913909 146.522548 
L 65.330334 150.612564 
L 64.94056 154.725576 
L 64.745455 158.852405 
L 64.745455 162.983845 
L 64.94056 167.110674 
L 65.330334 171.223686 
L 65.913909 175.313702 
L 66.68998 179.371596 
L 67.656818 183.388313 
L 68.812264 187.35489 
L 70.15374 191.262476 
L 71.678253 195.102353 
L 73.382401 198.86595 
L 75.262381 202.544872 
L 77.313999 206.130908 
L 79.532676 209.616056 
L 81.913462 212.992541 
L 84.451045 216.252827 
L 87.139761 219.389639 
L 89.973612 222.395979 
L 92.946274 225.265138 
L 96.051113 227.990713 
L 99.281203 230.566623 
L 102.629334 232.987121 
L 106.088036 235.246804 
L 109.649592 237.34063 
L 113.306054 239.263928 
L 117.049263 241.012407 
L 120.870866 242.582163 
L 124.762337 243.969695 
L 128.714992 245.171906 
L 132.72001 246.186115 
L 136.768455 247.010057 
L 140.851294 247.641894 
L 144.959415 248.080217 
L 149.083653 248.324047 
L 153.214804 248.37284 
L 157.34365 248.226488 
L 161.460978 247.885316 
L 165.557601 247.350087 
L 169.624378 246.621994 
L 173.652233 245.702662 
L 177.632179 244.594143 
L 181.555336 243.29891 
L 185.41295 241.819853 
L 189.196411 240.160273 
L 192.897279 238.323873 
L 196.507295 236.31475 
L 200.018404 234.137388 
L 203.42277 231.796644 
L 206.712798 229.297744 
L 209.881147 226.646261 
L 212.920745 223.848114 
L 215.824811 220.909545 
L 218.586866 217.837111 
L 221.200744 214.637669 
L 223.660615 211.318358 
L 225.960988 207.886585 
L 228.096732 204.350006 
L 230.063079 200.716513 
L 231.855644 196.994215 
L 233.470425 193.191417 
L 234.903819 189.316605 
L 236.152628 185.378425 
L 237.214066 181.385664 
L 238.085764 177.347232 
L 238.765776 173.27214 
L 239.252586 169.169482 
L 239.545107 165.048412 
L 239.642687 160.918125 
L 239.642687 160.918125 
" clip-path="url(#pa7949917d2)" style="fill: none; stroke: #b2b2b2; stroke-width: 1.5; stroke-linecap: square"/>
   </g>
   <g id="line2d_13">
    <path d="M 239.642687 160.918125 
L 239.638225 160.034697 
L 239.62484 159.15136 
L 239.602534 158.268203 
L 239.571308 157.385316 
L 239.531165 156.50279 
L 239.48211 155.620714 
L 239.424148 154.739179 
L 239.357285 153.858274 
L 239.281528 152.978089 
L 239.196883 152.098715 
L 239.103361 151.22024 
L 239.00097 150.342755 
L 238.889721 149.466349 
L 238.769625 148.591111 
L 238.640694 147.717131 
L 238.502942 146.844498 
L 238.356383 145.9733 
L 238.201032 145.103628 
L 238.036904 144.235569 
L 237.864016 143.369212 
L 237.682386 142.504646 
L 237.492033 141.641959 
L 237.292976 140.781238 
L 237.085234 139.922572 
L 236.86883 139.066048 
L 236.643786 138.211753 
L 236.410123 137.359775 
L 236.167867 136.510201 
L 235.917042 135.663117 
L 235.657674 134.81861 
L 235.389789 133.976766 
L 235.113413 133.137671 
L 234.828577 132.30141 
L 234.535308 131.468069 
L 234.233636 130.637733 
L 233.923593 129.810486 
L 233.60521 128.986413 
L 233.278519 128.165598 
L 232.943554 127.348125 
L 232.600349 126.534076 
L 232.248938 125.723537 
L 231.889359 124.916587 
L 231.521647 124.113312 
L 231.14584 123.313791 
L 230.761976 122.518107 
L 230.370095 121.726341 
L 229.970237 120.938574 
L 229.562441 120.154886 
L 229.146751 119.375357 
L 228.723208 118.600066 
L 228.291855 117.829093 
L 227.852737 117.062517 
L 227.405898 116.300415 
L 226.951384 115.542865 
L 226.489242 114.789945 
L 226.019518 114.041732 
L 225.54226 113.298301 
L 225.057518 112.559729 
L 224.56534 111.826091 
L 224.065776 111.097462 
L 223.558879 110.373916 
L 223.044698 109.655527 
L 222.523288 108.942368 
L 221.994701 108.234512 
L 221.458991 107.532032 
L 220.916212 106.834998 
L 220.366421 106.143483 
L 219.809673 105.457556 
L 219.246025 104.777288 
L 218.675534 104.102747 
L 218.098259 103.434004 
L 217.514258 102.771126 
L 216.923592 102.11418 
L 216.32632 101.463235 
L 215.722503 100.818355 
L 215.112204 100.179607 
L 214.495483 99.547057 
L 213.872405 98.920768 
L 213.243033 98.300805 
L 212.60743 97.68723 
L 211.965663 97.080107 
L 211.317795 96.479497 
L 210.663894 95.885462 
L 210.004027 95.298062 
L 209.338259 94.717358 
L 208.66666 94.143408 
L 207.989298 93.57627 
L 207.306242 93.016004 
L 206.617561 92.462666 
L 205.923327 91.916312 
L 205.223609 91.376998 
L 204.518479 90.84478 
L 203.80801 90.319711 
L 203.092273 89.801845 
L 202.371342 89.291235 
L 201.64529 88.787934 
L 200.914191 88.291992 
L 200.17812 87.803459 
L 199.437152 87.322387 
" clip-path="url(#pa7949917d2)" style="fill: none; stroke: #d62728; stroke-width: 3; stroke-linecap: square"/>
   </g>
   <g id="line2d_14">
    <path d="M 152.181872 160.918125 
L 239.642687 160.918125 
" clip-path="url(#pa7949917d2)" style="fill: none; stroke: #1f77b4; stroke-width: 1.5; stroke-linecap: square"/>
   </g>
   <g id="line2d_15">
    <path d="M 152.181872 160.918125 
L 199.437152 87.322387 
" clip-path="url(#pa7949917d2)" style="fill: none; stroke: #1f77b4; stroke-width: 1.5; stroke-linecap: square"/>
   </g>
   <g id="patch_3">
    <path d="M 38.482813 274.617185 
L 38.482813 47.219065 
" style="fill: none; stroke: #000000; stroke-width: 0.8; stroke-linejoin: miter; stroke-linecap: square"/>
   </g>
   <g id="patch_4">
    <path d="M 292.119176 274.617185 
L 292.119176 47.219065 
" style="fill: none; stroke: #000000; stroke-width: 0.8; stroke-linejoin: miter; stroke-linecap: square"/>
   </g>
   <g id="patch_5">
    <path d="M 38.482812 274.617185 
L 292.119176 274.617185 
" style="fill: none; stroke: #000000; stroke-width: 0.8; stroke-linejoin: miter; stroke-linecap: square"/>
   </g>
   <g id="patch_6">
    <path d="M 38.482812 47.219065 
L 292.119176 47.219065 
" style="fill: none; stroke: #000000; stroke-width: 0.8; stroke-linejoin: miter; stroke-linecap: square"/>
   </g>
   <g id="text_12">
    <!-- arc s = r -->
    <g style="fill: #d62728" transform="translate(244.015728 95.322514) scale(0.1 -0.1)">
     <defs>
      <path id="DejaVuSans-44" d="M 2194 1759 
Q 1497 1759 1228 1600 
Q 959 1441 959 1056 
Q 959 750 1161 570 
Q 1363 391 1709 391 
Q 2188 391 2477 730 
Q 2766 1069 2766 1631 
L 2766 1759 
L 2194 1759 
z
M 3341 1997 
L 3341 0 
L 2766 0 
L 2766 531 
Q 2569 213 2275 61 
Q 1981 -91 1556 -91 
Q 1019 -91 701 211 
Q 384 513 384 1019 
Q 384 1609 779 1909 
Q 1175 2209 1959 2209 
L 2766 2209 
L 2766 2266 
Q 2766 2663 2505 2880 
Q 2244 3097 1772 3097 
Q 1472 3097 1187 3025 
Q 903 2953 641 2809 
L 641 3341 
Q 956 3463 1253 3523 
Q 1550 3584 1831 3584 
Q 2591 3584 2966 3190 
Q 3341 2797 3341 1997 
z
" transform="scale(0.015625)"/>
      <path id="DejaVuSans-55" d="M 2631 2963 
Q 2534 3019 2420 3045 
Q 2306 3072 2169 3072 
Q 1681 3072 1420 2755 
Q 1159 2438 1159 1844 
L 1159 0 
L 581 0 
L 581 3500 
L 1159 3500 
L 1159 2956 
Q 1341 3275 1631 3429 
Q 1922 3584 2338 3584 
Q 2397 3584 2469 3576 
Q 2541 3569 2628 3553 
L 2631 2963 
z
" transform="scale(0.015625)"/>
      <path id="DejaVuSans-46" d="M 3122 3366 
L 3122 2828 
Q 2878 2963 2633 3030 
Q 2388 3097 2138 3097 
Q 1578 3097 1268 2742 
Q 959 2388 959 1747 
Q 959 1106 1268 751 
Q 1578 397 2138 397 
Q 2388 397 2633 464 
Q 2878 531 3122 666 
L 3122 134 
Q 2881 22 2623 -34 
Q 2366 -91 2075 -91 
Q 1284 -91 818 406 
Q 353 903 353 1747 
Q 353 2603 823 3093 
Q 1294 3584 2113 3584 
Q 2378 3584 2631 3529 
Q 2884 3475 3122 3366 
z
" transform="scale(0.015625)"/>
      <path id="DejaVuSans-3" transform="scale(0.015625)"/>
      <path id="DejaVuSans-56" d="M 2834 3397 
L 2834 2853 
Q 2591 2978 2328 3040 
Q 2066 3103 1784 3103 
Q 1356 3103 1142 2972 
Q 928 2841 928 2578 
Q 928 2378 1081 2264 
Q 1234 2150 1697 2047 
L 1894 2003 
Q 2506 1872 2764 1633 
Q 3022 1394 3022 966 
Q 3022 478 2636 193 
Q 2250 -91 1575 -91 
Q 1294 -91 989 -36 
Q 684 19 347 128 
L 347 722 
Q 666 556 975 473 
Q 1284 391 1588 391 
Q 1994 391 2212 530 
Q 2431 669 2431 922 
Q 2431 1156 2273 1281 
Q 2116 1406 1581 1522 
L 1381 1569 
Q 847 1681 609 1914 
Q 372 2147 372 2553 
Q 372 3047 722 3315 
Q 1072 3584 1716 3584 
Q 2034 3584 2315 3537 
Q 2597 3491 2834 3397 
z
" transform="scale(0.015625)"/>
      <path id="DejaVuSans-20" d="M 678 2906 
L 4684 2906 
L 4684 2381 
L 678 2381 
L 678 2906 
z
M 678 1631 
L 4684 1631 
L 4684 1100 
L 678 1100 
L 678 1631 
z
" transform="scale(0.015625)"/>
     </defs>
     <use xlink:href="#DejaVuSans-44"/>
     <use xlink:href="#DejaVuSans-55" transform="translate(61.28125 0)"/>
     <use xlink:href="#DejaVuSans-46" transform="translate(100.1875 0)"/>
     <use xlink:href="#DejaVuSans-3" transform="translate(155.171875 0)"/>
     <use xlink:href="#DejaVuSans-56" transform="translate(186.953125 0)"/>
     <use xlink:href="#DejaVuSans-3" transform="translate(239.046875 0)"/>
     <use xlink:href="#DejaVuSans-20" transform="translate(270.828125 0)"/>
     <use xlink:href="#DejaVuSans-3" transform="translate(354.625 0)"/>
     <use xlink:href="#DejaVuSans-55" transform="translate(386.40625 0)"/>
    </g>
   </g>
   <g id="text_13">
    <!-- r -->
    <g transform="translate(191.539239 171.413423) scale(0.1 -0.1)">
     <use xlink:href="#DejaVuSans-55"/>
    </g>
   </g>
   <g id="text_14">
    <!-- 1 rad -->
    <g transform="translate(167.924819 156.545084) scale(0.1 -0.1)">
     <defs>
      <path id="DejaVuSans-47" d="M 2906 2969 
L 2906 4863 
L 3481 4863 
L 3481 0 
L 2906 0 
L 2906 525 
Q 2725 213 2448 61 
Q 2172 -91 1784 -91 
Q 1150 -91 751 415 
Q 353 922 353 1747 
Q 353 2572 751 3078 
Q 1150 3584 1784 3584 
Q 2172 3584 2448 3432 
Q 2725 3281 2906 2969 
z
M 947 1747 
Q 947 1113 1208 752 
Q 1469 391 1925 391 
Q 2381 391 2643 752 
Q 2906 1113 2906 1747 
Q 2906 2381 2643 2742 
Q 2381 3103 1925 3103 
Q 1469 3103 1208 2742 
Q 947 2381 947 1747 
z
" transform="scale(0.015625)"/>
     </defs>
     <use xlink:href="#DejaVuSans-14"/>
     <use xlink:href="#DejaVuSans-3" transform="translate(63.625 0)"/>
     <use xlink:href="#DejaVuSans-55" transform="translate(95.40625 0)"/>
     <use xlink:href="#DejaVuSans-44" transform="translate(136.515625 0)"/>
     <use xlink:href="#DejaVuSans-47" transform="translate(197.796875 0)"/>
    </g>
   </g>
   <g id="text_15">
    <!-- 1 radian:  s = r * theta,  here s = r -->
    <g transform="translate(61.937869 41.219065) scale(0.12 -0.12)">
     <defs>
      <path id="DejaVuSans-4c" d="M 603 3500 
L 1178 3500 
L 1178 0 
L 603 0 
L 603 3500 
z
M 603 4863 
L 1178 4863 
L 1178 4134 
L 603 4134 
L 603 4863 
z
" transform="scale(0.015625)"/>
      <path id="DejaVuSans-51" d="M 3513 2113 
L 3513 0 
L 2938 0 
L 2938 2094 
Q 2938 2591 2744 2837 
Q 2550 3084 2163 3084 
Q 1697 3084 1428 2787 
Q 1159 2491 1159 1978 
L 1159 0 
L 581 0 
L 581 3500 
L 1159 3500 
L 1159 2956 
Q 1366 3272 1645 3428 
Q 1925 3584 2291 3584 
Q 2894 3584 3203 3211 
Q 3513 2838 3513 2113 
z
" transform="scale(0.015625)"/>
      <path id="DejaVuSans-1d" d="M 750 794 
L 1409 794 
L 1409 0 
L 750 0 
L 750 794 
z
M 750 3309 
L 1409 3309 
L 1409 2516 
L 750 2516 
L 750 3309 
z
" transform="scale(0.015625)"/>
      <path id="DejaVuSans-d" d="M 3009 3897 
L 1888 3291 
L 3009 2681 
L 2828 2375 
L 1778 3009 
L 1778 1831 
L 1422 1831 
L 1422 3009 
L 372 2375 
L 191 2681 
L 1313 3291 
L 191 3897 
L 372 4206 
L 1422 3572 
L 1422 4750 
L 1778 4750 
L 1778 3572 
L 2828 4206 
L 3009 3897 
z
" transform="scale(0.015625)"/>
      <path id="DejaVuSans-57" d="M 1172 4494 
L 1172 3500 
L 2356 3500 
L 2356 3053 
L 1172 3053 
L 1172 1153 
Q 1172 725 1289 603 
Q 1406 481 1766 481 
L 2356 481 
L 2356 0 
L 1766 0 
Q 1100 0 847 248 
Q 594 497 594 1153 
L 594 3053 
L 172 3053 
L 172 3500 
L 594 3500 
L 594 4494 
L 1172 4494 
z
" transform="scale(0.015625)"/>
      <path id="DejaVuSans-4b" d="M 3513 2113 
L 3513 0 
L 2938 0 
L 2938 2094 
Q 2938 2591 2744 2837 
Q 2550 3084 2163 3084 
Q 1697 3084 1428 2787 
Q 1159 2491 1159 1978 
L 1159 0 
L 581 0 
L 581 4863 
L 1159 4863 
L 1159 2956 
Q 1366 3272 1645 3428 
Q 1925 3584 2291 3584 
Q 2894 3584 3203 3211 
Q 3513 2838 3513 2113 
z
" transform="scale(0.015625)"/>
      <path id="DejaVuSans-48" d="M 3597 1894 
L 3597 1613 
L 953 1613 
Q 991 1019 1311 708 
Q 1631 397 2203 397 
Q 2534 397 2845 478 
Q 3156 559 3463 722 
L 3463 178 
Q 3153 47 2828 -22 
Q 2503 -91 2169 -91 
Q 1331 -91 842 396 
Q 353 884 353 1716 
Q 353 2575 817 3079 
Q 1281 3584 2069 3584 
Q 2775 3584 3186 3129 
Q 3597 2675 3597 1894 
z
M 3022 2063 
Q 3016 2534 2758 2815 
Q 2500 3097 2075 3097 
Q 1594 3097 1305 2825 
Q 1016 2553 972 2059 
L 3022 2063 
z
" transform="scale(0.015625)"/>
      <path id="DejaVuSans-f" d="M 750 794 
L 1409 794 
L 1409 256 
L 897 -744 
L 494 -744 
L 750 256 
L 750 794 
z
" transform="scale(0.015625)"/>
     </defs>
     <use xlink:href="#DejaVuSans-14"/>
     <use xlink:href="#DejaVuSans-3" transform="translate(63.625 0)"/>
     <use xlink:href="#DejaVuSans-55" transform="translate(95.40625 0)"/>
     <use xlink:href="#DejaVuSans-44" transform="translate(136.515625 0)"/>
     <use xlink:href="#DejaVuSans-47" transform="translate(197.796875 0)"/>
     <use xlink:href="#DejaVuSans-4c" transform="translate(261.28125 0)"/>
     <use xlink:href="#DejaVuSans-44" transform="translate(289.0625 0)"/>
     <use xlink:href="#DejaVuSans-51" transform="translate(350.34375 0)"/>
     <use xlink:href="#DejaVuSans-1d" transform="translate(413.71875 0)"/>
     <use xlink:href="#DejaVuSans-3" transform="translate(447.40625 0)"/>
     <use xlink:href="#DejaVuSans-3" transform="translate(479.1875 0)"/>
     <use xlink:href="#DejaVuSans-56" transform="translate(510.96875 0)"/>
     <use xlink:href="#DejaVuSans-3" transform="translate(563.0625 0)"/>
     <use xlink:href="#DejaVuSans-20" transform="translate(594.84375 0)"/>
     <use xlink:href="#DejaVuSans-3" transform="translate(678.640625 0)"/>
     <use xlink:href="#DejaVuSans-55" transform="translate(710.421875 0)"/>
     <use xlink:href="#DejaVuSans-3" transform="translate(751.53125 0)"/>
     <use xlink:href="#DejaVuSans-d" transform="translate(783.3125 0)"/>
     <use xlink:href="#DejaVuSans-3" transform="translate(833.3125 0)"/>
     <use xlink:href="#DejaVuSans-57" transform="translate(865.09375 0)"/>
     <use xlink:href="#DejaVuSans-4b" transform="translate(904.296875 0)"/>
     <use xlink:href="#DejaVuSans-48" transform="translate(967.671875 0)"/>
     <use xlink:href="#DejaVuSans-57" transform="translate(1029.203125 0)"/>
     <use xlink:href="#DejaVuSans-44" transform="translate(1068.40625 0)"/>
     <use xlink:href="#DejaVuSans-f" transform="translate(1129.6875 0)"/>
     <use xlink:href="#DejaVuSans-3" transform="translate(1161.46875 0)"/>
     <use xlink:href="#DejaVuSans-3" transform="translate(1193.25 0)"/>
     <use xlink:href="#DejaVuSans-4b" transform="translate(1225.03125 0)"/>
     <use xlink:href="#DejaVuSans-48" transform="translate(1288.40625 0)"/>
     <use xlink:href="#DejaVuSans-55" transform="translate(1349.9375 0)"/>
     <use xlink:href="#DejaVuSans-48" transform="translate(1388.84375 0)"/>
     <use xlink:href="#DejaVuSans-3" transform="translate(1450.375 0)"/>
     <use xlink:href="#DejaVuSans-56" transform="translate(1482.15625 0)"/>
     <use xlink:href="#DejaVuSans-3" transform="translate(1534.25 0)"/>
     <use xlink:href="#DejaVuSans-20" transform="translate(1566.03125 0)"/>
     <use xlink:href="#DejaVuSans-3" transform="translate(1649.828125 0)"/>
     <use xlink:href="#DejaVuSans-55" transform="translate(1681.609375 0)"/>
    </g>
   </g>
  </g>
  <g id="axes_2">
   <g id="patch_7">
    <path d="M 342.846449 299.518125 
L 596.482812 299.518125 
L 596.482812 22.318125 
L 342.846449 22.318125 
z
" style="fill: #ffffff"/>
   </g>
   <g id="matplotlib.axis_3">
    <g id="xtick_7">
     <g id="line2d_16">
      <g>
       <use xlink:href="#m076695b251" x="354.375374" y="299.518125" style="stroke: #000000; stroke-width: 0.8"/>
      </g>
     </g>
     <g id="text_16">
      <!-- −1.5 -->
      <g transform="translate(342.233968 314.115781) scale(0.1 -0.1)">
       <use xlink:href="#DejaVuSans-c9c"/>
       <use xlink:href="#DejaVuSans-14" transform="translate(83.796875 0)"/>
       <use xlink:href="#DejaVuSans-11" transform="translate(147.421875 0)"/>
       <use xlink:href="#DejaVuSans-18" transform="translate(179.203125 0)"/>
      </g>
     </g>
    </g>
    <g id="xtick_8">
     <g id="line2d_17">
      <g>
       <use xlink:href="#m076695b251" x="392.805127" y="299.518125" style="stroke: #000000; stroke-width: 0.8"/>
      </g>
     </g>
     <g id="text_17">
      <!-- −1.0 -->
      <g transform="translate(380.66372 314.115781) scale(0.1 -0.1)">
       <use xlink:href="#DejaVuSans-c9c"/>
       <use xlink:href="#DejaVuSans-14" transform="translate(83.796875 0)"/>
       <use xlink:href="#DejaVuSans-11" transform="translate(147.421875 0)"/>
       <use xlink:href="#DejaVuSans-13" transform="translate(179.203125 0)"/>
      </g>
     </g>
    </g>
    <g id="xtick_9">
     <g id="line2d_18">
      <g>
       <use xlink:href="#m076695b251" x="431.234879" y="299.518125" style="stroke: #000000; stroke-width: 0.8"/>
      </g>
     </g>
     <g id="text_18">
      <!-- −0.5 -->
      <g transform="translate(419.093472 314.115781) scale(0.1 -0.1)">
       <use xlink:href="#DejaVuSans-c9c"/>
       <use xlink:href="#DejaVuSans-13" transform="translate(83.796875 0)"/>
       <use xlink:href="#DejaVuSans-11" transform="translate(147.421875 0)"/>
       <use xlink:href="#DejaVuSans-18" transform="translate(179.203125 0)"/>
      </g>
     </g>
    </g>
    <g id="xtick_10">
     <g id="line2d_19">
      <g>
       <use xlink:href="#m076695b251" x="469.664631" y="299.518125" style="stroke: #000000; stroke-width: 0.8"/>
      </g>
     </g>
     <g id="text_19">
      <!-- 0.0 -->
      <g transform="translate(461.713068 314.115781) scale(0.1 -0.1)">
       <use xlink:href="#DejaVuSans-13"/>
       <use xlink:href="#DejaVuSans-11" transform="translate(63.625 0)"/>
       <use xlink:href="#DejaVuSans-13" transform="translate(95.40625 0)"/>
      </g>
     </g>
    </g>
    <g id="xtick_11">
     <g id="line2d_20">
      <g>
       <use xlink:href="#m076695b251" x="508.094383" y="299.518125" style="stroke: #000000; stroke-width: 0.8"/>
      </g>
     </g>
     <g id="text_20">
      <!-- 0.5 -->
      <g transform="translate(500.14282 314.115781) scale(0.1 -0.1)">
       <use xlink:href="#DejaVuSans-13"/>
       <use xlink:href="#DejaVuSans-11" transform="translate(63.625 0)"/>
       <use xlink:href="#DejaVuSans-18" transform="translate(95.40625 0)"/>
      </g>
     </g>
    </g>
    <g id="xtick_12">
     <g id="line2d_21">
      <g>
       <use xlink:href="#m076695b251" x="546.524135" y="299.518125" style="stroke: #000000; stroke-width: 0.8"/>
      </g>
     </g>
     <g id="text_21">
      <!-- 1.0 -->
      <g transform="translate(538.572572 314.115781) scale(0.1 -0.1)">
       <use xlink:href="#DejaVuSans-14"/>
       <use xlink:href="#DejaVuSans-11" transform="translate(63.625 0)"/>
       <use xlink:href="#DejaVuSans-13" transform="translate(95.40625 0)"/>
      </g>
     </g>
    </g>
    <g id="xtick_13">
     <g id="line2d_22">
      <g>
       <use xlink:href="#m076695b251" x="584.953887" y="299.518125" style="stroke: #000000; stroke-width: 0.8"/>
      </g>
     </g>
     <g id="text_22">
      <!-- 1.5 -->
      <g transform="translate(577.002324 314.115781) scale(0.1 -0.1)">
       <use xlink:href="#DejaVuSans-14"/>
       <use xlink:href="#DejaVuSans-11" transform="translate(63.625 0)"/>
       <use xlink:href="#DejaVuSans-18" transform="translate(95.40625 0)"/>
      </g>
     </g>
    </g>
    <g id="text_23">
     <!-- x (rad) -->
     <g transform="translate(452.920881 328.116563) scale(0.1 -0.1)">
      <defs>
       <path id="DejaVuSans-5b" d="M 3513 3500 
L 2247 1797 
L 3578 0 
L 2900 0 
L 1881 1375 
L 863 0 
L 184 0 
L 1544 1831 
L 300 3500 
L 978 3500 
L 1906 2253 
L 2834 3500 
L 3513 3500 
z
" transform="scale(0.015625)"/>
       <path id="DejaVuSans-b" d="M 1984 4856 
Q 1566 4138 1362 3434 
Q 1159 2731 1159 2009 
Q 1159 1288 1364 580 
Q 1569 -128 1984 -844 
L 1484 -844 
Q 1016 -109 783 600 
Q 550 1309 550 2009 
Q 550 2706 781 3412 
Q 1013 4119 1484 4856 
L 1984 4856 
z
" transform="scale(0.015625)"/>
       <path id="DejaVuSans-c" d="M 513 4856 
L 1013 4856 
Q 1481 4119 1714 3412 
Q 1947 2706 1947 2009 
Q 1947 1309 1714 600 
Q 1481 -109 1013 -844 
L 513 -844 
Q 928 -128 1133 580 
Q 1338 1288 1338 2009 
Q 1338 2731 1133 3434 
Q 928 4138 513 4856 
z
" transform="scale(0.015625)"/>
      </defs>
      <use xlink:href="#DejaVuSans-5b"/>
      <use xlink:href="#DejaVuSans-3" transform="translate(59.1875 0)"/>
      <use xlink:href="#DejaVuSans-b" transform="translate(90.96875 0)"/>
      <use xlink:href="#DejaVuSans-55" transform="translate(129.984375 0)"/>
      <use xlink:href="#DejaVuSans-44" transform="translate(171.09375 0)"/>
      <use xlink:href="#DejaVuSans-47" transform="translate(232.375 0)"/>
      <use xlink:href="#DejaVuSans-c" transform="translate(295.859375 0)"/>
     </g>
    </g>
   </g>
   <g id="matplotlib.axis_4">
    <g id="ytick_6">
     <g id="line2d_23">
      <g>
       <use xlink:href="#m027340d4a8" x="342.846449" y="286.918125" style="stroke: #000000; stroke-width: 0.8"/>
      </g>
     </g>
     <g id="text_24">
      <!-- −1.5 -->
      <g transform="translate(311.563636 290.716953) scale(0.1 -0.1)">
       <use xlink:href="#DejaVuSans-c9c"/>
       <use xlink:href="#DejaVuSans-14" transform="translate(83.796875 0)"/>
       <use xlink:href="#DejaVuSans-11" transform="translate(147.421875 0)"/>
       <use xlink:href="#DejaVuSans-18" transform="translate(179.203125 0)"/>
      </g>
     </g>
    </g>
    <g id="ytick_7">
     <g id="line2d_24">
      <g>
       <use xlink:href="#m027340d4a8" x="342.846449" y="244.918125" style="stroke: #000000; stroke-width: 0.8"/>
      </g>
     </g>
     <g id="text_25">
      <!-- −1.0 -->
      <g transform="translate(311.563636 248.716953) scale(0.1 -0.1)">
       <use xlink:href="#DejaVuSans-c9c"/>
       <use xlink:href="#DejaVuSans-14" transform="translate(83.796875 0)"/>
       <use xlink:href="#DejaVuSans-11" transform="translate(147.421875 0)"/>
       <use xlink:href="#DejaVuSans-13" transform="translate(179.203125 0)"/>
      </g>
     </g>
    </g>
    <g id="ytick_8">
     <g id="line2d_25">
      <g>
       <use xlink:href="#m027340d4a8" x="342.846449" y="202.918125" style="stroke: #000000; stroke-width: 0.8"/>
      </g>
     </g>
     <g id="text_26">
      <!-- −0.5 -->
      <g transform="translate(311.563636 206.716953) scale(0.1 -0.1)">
       <use xlink:href="#DejaVuSans-c9c"/>
       <use xlink:href="#DejaVuSans-13" transform="translate(83.796875 0)"/>
       <use xlink:href="#DejaVuSans-11" transform="translate(147.421875 0)"/>
       <use xlink:href="#DejaVuSans-18" transform="translate(179.203125 0)"/>
      </g>
     </g>
    </g>
    <g id="ytick_9">
     <g id="line2d_26">
      <g>
       <use xlink:href="#m027340d4a8" x="342.846449" y="160.918125" style="stroke: #000000; stroke-width: 0.8"/>
      </g>
     </g>
     <g id="text_27">
      <!-- 0.0 -->
      <g transform="translate(319.943324 164.716953) scale(0.1 -0.1)">
       <use xlink:href="#DejaVuSans-13"/>
       <use xlink:href="#DejaVuSans-11" transform="translate(63.625 0)"/>
       <use xlink:href="#DejaVuSans-13" transform="translate(95.40625 0)"/>
      </g>
     </g>
    </g>
    <g id="ytick_10">
     <g id="line2d_27">
      <g>
       <use xlink:href="#m027340d4a8" x="342.846449" y="118.918125" style="stroke: #000000; stroke-width: 0.8"/>
      </g>
     </g>
     <g id="text_28">
      <!-- 0.5 -->
      <g transform="translate(319.943324 122.716953) scale(0.1 -0.1)">
       <use xlink:href="#DejaVuSans-13"/>
       <use xlink:href="#DejaVuSans-11" transform="translate(63.625 0)"/>
       <use xlink:href="#DejaVuSans-18" transform="translate(95.40625 0)"/>
      </g>
     </g>
    </g>
    <g id="ytick_11">
     <g id="line2d_28">
      <g>
       <use xlink:href="#m027340d4a8" x="342.846449" y="76.918125" style="stroke: #000000; stroke-width: 0.8"/>
      </g>
     </g>
     <g id="text_29">
      <!-- 1.0 -->
      <g transform="translate(319.943324 80.716953) scale(0.1 -0.1)">
       <use xlink:href="#DejaVuSans-14"/>
       <use xlink:href="#DejaVuSans-11" transform="translate(63.625 0)"/>
       <use xlink:href="#DejaVuSans-13" transform="translate(95.40625 0)"/>
      </g>
     </g>
    </g>
    <g id="ytick_12">
     <g id="line2d_29">
      <g>
       <use xlink:href="#m027340d4a8" x="342.846449" y="34.918125" style="stroke: #000000; stroke-width: 0.8"/>
      </g>
     </g>
     <g id="text_30">
      <!-- 1.5 -->
      <g transform="translate(319.943324 38.716953) scale(0.1 -0.1)">
       <use xlink:href="#DejaVuSans-14"/>
       <use xlink:href="#DejaVuSans-11" transform="translate(63.625 0)"/>
       <use xlink:href="#DejaVuSans-18" transform="translate(95.40625 0)"/>
      </g>
     </g>
    </g>
   </g>
   <g id="line2d_30">
    <path d="M 354.375374 286.918125 
L 584.953887 34.918125 
L 584.953887 34.918125 
" clip-path="url(#p5e2e941e81)" style="fill: none; stroke-dasharray: 5.55,2.4; stroke-dashoffset: 0; stroke: #1f77b4; stroke-width: 1.5"/>
   </g>
   <g id="line2d_31">
    <path d="M 354.375374 244.707704 
L 358.420612 244.27909 
L 362.465849 243.619613 
L 366.511086 242.731098 
L 370.556323 241.616008 
L 374.60156 240.277428 
L 378.646797 238.719068 
L 382.692034 236.945243 
L 387.315162 234.660507 
L 391.93829 232.109047 
L 396.561418 229.300091 
L 401.184546 226.243799 
L 406.385565 222.523624 
L 411.586584 218.521458 
L 416.787603 214.25562 
L 422.566513 209.230344 
L 428.923315 203.388375 
L 435.858007 196.685611 
L 443.37059 189.097697 
L 452.038955 180.012887 
L 463.596775 167.542817 
L 489.023979 139.983243 
L 497.692345 130.960935 
L 505.204928 123.445495 
L 512.13962 116.824097 
L 518.496421 111.068336 
L 524.275331 106.130568 
L 530.054241 101.502382 
L 535.25526 97.623358 
L 540.456279 94.034059 
L 545.079407 91.100108 
L 549.702535 88.418687 
L 554.325663 85.999495 
L 558.948791 83.851282 
L 562.994029 82.200016 
L 567.039266 80.766755 
L 571.084503 79.555469 
L 575.12974 78.569513 
L 579.174977 77.811616 
L 583.220214 77.283878 
L 584.953887 77.128546 
L 584.953887 77.128546 
" clip-path="url(#p5e2e941e81)" style="fill: none; stroke: #d62728; stroke-width: 1.5; stroke-linecap: square"/>
   </g>
   <g id="line2d_32">
    <path d="M 342.846449 160.918125 
L 596.482812 160.918125 
" clip-path="url(#p5e2e941e81)" style="fill: none; stroke: #cccccc; stroke-width: 1.5; stroke-linecap: square"/>
   </g>
   <g id="line2d_33">
    <path d="M 469.664631 299.518125 
L 469.664631 22.318125 
" clip-path="url(#p5e2e941e81)" style="fill: none; stroke: #cccccc; stroke-width: 1.5; stroke-linecap: square"/>
   </g>
   <g id="patch_8">
    <path d="M 342.846449 299.518125 
L 342.846449 22.318125 
" style="fill: none; stroke: #000000; stroke-width: 0.8; stroke-linejoin: miter; stroke-linecap: square"/>
   </g>
   <g id="patch_9">
    <path d="M 596.482812 299.518125 
L 596.482812 22.318125 
" style="fill: none; stroke: #000000; stroke-width: 0.8; stroke-linejoin: miter; stroke-linecap: square"/>
   </g>
   <g id="patch_10">
    <path d="M 342.846449 299.518125 
L 596.482812 299.518125 
" style="fill: none; stroke: #000000; stroke-width: 0.8; stroke-linejoin: miter; stroke-linecap: square"/>
   </g>
   <g id="patch_11">
    <path d="M 342.846449 22.318125 
L 596.482812 22.318125 
" style="fill: none; stroke: #000000; stroke-width: 0.8; stroke-linejoin: miter; stroke-linecap: square"/>
   </g>
   <g id="text_31">
    <!-- near 0:  sin x ~ x  (radians) -->
    <g transform="translate(387.301506 16.318125) scale(0.12 -0.12)">
     <defs>
      <path id="DejaVuSans-61" d="M 4684 2553 
L 4684 1997 
Q 4356 1750 4076 1644 
Q 3797 1538 3494 1538 
Q 3150 1538 2694 1722 
Q 2659 1734 2644 1741 
Q 2622 1750 2575 1766 
Q 2091 1959 1797 1959 
Q 1522 1959 1253 1839 
Q 984 1719 678 1459 
L 678 2016 
Q 1006 2263 1286 2370 
Q 1566 2478 1869 2478 
Q 2213 2478 2672 2291 
Q 2703 2278 2719 2272 
Q 2744 2263 2788 2247 
Q 3272 2053 3566 2053 
Q 3834 2053 4098 2172 
Q 4363 2291 4684 2553 
z
" transform="scale(0.015625)"/>
     </defs>
     <use xlink:href="#DejaVuSans-51"/>
     <use xlink:href="#DejaVuSans-48" transform="translate(63.375 0)"/>
     <use xlink:href="#DejaVuSans-44" transform="translate(124.90625 0)"/>
     <use xlink:href="#DejaVuSans-55" transform="translate(186.1875 0)"/>
     <use xlink:href="#DejaVuSans-3" transform="translate(227.296875 0)"/>
     <use xlink:href="#DejaVuSans-13" transform="translate(259.078125 0)"/>
     <use xlink:href="#DejaVuSans-1d" transform="translate(322.703125 0)"/>
     <use xlink:href="#DejaVuSans-3" transform="translate(356.390625 0)"/>
     <use xlink:href="#DejaVuSans-3" transform="translate(388.171875 0)"/>
     <use xlink:href="#DejaVuSans-56" transform="translate(419.953125 0)"/>
     <use xlink:href="#DejaVuSans-4c" transform="translate(472.046875 0)"/>
     <use xlink:href="#DejaVuSans-51" transform="translate(499.828125 0)"/>
     <use xlink:href="#DejaVuSans-3" transform="translate(563.203125 0)"/>
     <use xlink:href="#DejaVuSans-5b" transform="translate(594.984375 0)"/>
     <use xlink:href="#DejaVuSans-3" transform="translate(654.171875 0)"/>
     <use xlink:href="#DejaVuSans-61" transform="translate(685.953125 0)"/>
     <use xlink:href="#DejaVuSans-3" transform="translate(769.75 0)"/>
     <use xlink:href="#DejaVuSans-5b" transform="translate(801.53125 0)"/>
     <use xlink:href="#DejaVuSans-3" transform="translate(860.71875 0)"/>
     <use xlink:href="#DejaVuSans-3" transform="translate(892.5 0)"/>
     <use xlink:href="#DejaVuSans-b" transform="translate(924.28125 0)"/>
     <use xlink:href="#DejaVuSans-55" transform="translate(963.296875 0)"/>
     <use xlink:href="#DejaVuSans-44" transform="translate(1004.40625 0)"/>
     <use xlink:href="#DejaVuSans-47" transform="translate(1065.6875 0)"/>
     <use xlink:href="#DejaVuSans-4c" transform="translate(1129.171875 0)"/>
     <use xlink:href="#DejaVuSans-44" transform="translate(1156.953125 0)"/>
     <use xlink:href="#DejaVuSans-51" transform="translate(1218.234375 0)"/>
     <use xlink:href="#DejaVuSans-56" transform="translate(1281.609375 0)"/>
     <use xlink:href="#DejaVuSans-c" transform="translate(1333.703125 0)"/>
    </g>
   </g>
   <g id="legend_1">
    <g id="patch_12">
     <path d="M 349.846449 60.319688 
L 425.923011 60.319688 
Q 427.923011 60.319688 427.923011 58.319688 
L 427.923011 29.318125 
Q 427.923011 27.318125 425.923011 27.318125 
L 349.846449 27.318125 
Q 347.846449 27.318125 347.846449 29.318125 
L 347.846449 58.319688 
Q 347.846449 60.319688 349.846449 60.319688 
z
" style="fill: #ffffff; opacity: 0.8; stroke: #cccccc; stroke-linejoin: miter"/>
    </g>
    <g id="line2d_34">
     <path d="M 351.846449 35.416563 
L 361.846449 35.416563 
L 371.846449 35.416563 
" style="fill: none; stroke-dasharray: 5.55,2.4; stroke-dashoffset: 0; stroke: #1f77b4; stroke-width: 1.5"/>
    </g>
    <g id="text_32">
     <!-- y = x -->
     <g transform="translate(379.846449 38.916563) scale(0.1 -0.1)">
      <defs>
       <path id="DejaVuSans-5c" d="M 2059 -325 
Q 1816 -950 1584 -1140 
Q 1353 -1331 966 -1331 
L 506 -1331 
L 506 -850 
L 844 -850 
Q 1081 -850 1212 -737 
Q 1344 -625 1503 -206 
L 1606 56 
L 191 3500 
L 800 3500 
L 1894 763 
L 2988 3500 
L 3597 3500 
L 2059 -325 
z
" transform="scale(0.015625)"/>
      </defs>
      <use xlink:href="#DejaVuSans-5c"/>
      <use xlink:href="#DejaVuSans-3" transform="translate(59.1875 0)"/>
      <use xlink:href="#DejaVuSans-20" transform="translate(90.96875 0)"/>
      <use xlink:href="#DejaVuSans-3" transform="translate(174.765625 0)"/>
      <use xlink:href="#DejaVuSans-5b" transform="translate(206.546875 0)"/>
     </g>
    </g>
    <g id="line2d_35">
     <path d="M 351.846449 50.417344 
L 361.846449 50.417344 
L 371.846449 50.417344 
" style="fill: none; stroke: #d62728; stroke-width: 1.5; stroke-linecap: square"/>
    </g>
    <g id="text_33">
     <!-- y = sin x -->
     <g transform="translate(379.846449 53.917344) scale(0.1 -0.1)">
      <use xlink:href="#DejaVuSans-5c"/>
      <use xlink:href="#DejaVuSans-3" transform="translate(59.1875 0)"/>
      <use xlink:href="#DejaVuSans-20" transform="translate(90.96875 0)"/>
      <use xlink:href="#DejaVuSans-3" transform="translate(174.765625 0)"/>
      <use xlink:href="#DejaVuSans-56" transform="translate(206.546875 0)"/>
      <use xlink:href="#DejaVuSans-4c" transform="translate(258.640625 0)"/>
      <use xlink:href="#DejaVuSans-51" transform="translate(286.421875 0)"/>
      <use xlink:href="#DejaVuSans-3" transform="translate(349.796875 0)"/>
      <use xlink:href="#DejaVuSans-5b" transform="translate(381.578125 0)"/>
     </g>
    </g>
   </g>
  </g>
 </g>
 <defs>
  <clipPath id="pa7949917d2">
   <rect x="38.482813" y="47.219065" width="253.636364" height="227.398119"/>
  </clipPath>
  <clipPath id="p5e2e941e81">
   <rect x="342.846449" y="22.318125" width="253.636364" height="277.2"/>
  </clipPath>
 </defs>
</svg>
