<?xml version="1.0" encoding="utf-8" standalone="no"?>
<!DOCTYPE svg PUBLIC "-//W3C//DTD SVG 1.1//EN"
  "http://www.w3.org/Graphics/SVG/1.1/DTD/svg11.dtd">
<svg xmlns:xlink="http://www.w3.org/1999/xlink" width="718.756327pt" height="276.534588pt" viewBox="0 0 718.756327 276.534588" xmlns="http://www.w3.org/2000/svg" version="1.1">
 <metadata>
  <rdf:RDF xmlns:dc="http://purl.org/dc/elements/1.1/" xmlns:cc="http://creativecommons.org/ns#" xmlns:rdf="http://www.w3.org/1999/02/22-rdf-syntax-ns#">
   <cc:Work>
    <dc:type rdf:resource="http://purl.org/dc/dcmitype/StillImage"/>
    <dc:date>2026-06-13T14:54:53.523784</dc:date>
    <dc:format>image/svg+xml</dc:format>
    <dc:creator>
     <cc:Agent>
      <dc:title>Matplotlib v3.11.0, https://matplotlib.org/</dc:title>
     </cc:Agent>
    </dc:creator>
   </cc:Work>
  </rdf:RDF>
 </metadata>
 <defs>
  <style type="text/css">*{stroke-linejoin: round; stroke-linecap: butt}</style>
 </defs>
 <g id="figure_1">
  <g id="patch_1">
   <path d="M 0 276.534588 
L 718.756327 276.534588 
L 718.756327 0 
L 0 0 
z
" style="fill: #ffffff"/>
  </g>
  <g id="axes_1">
   <g id="patch_2">
    <path d="M 38.482813 252.334588 
L 235.423989 252.334588 
L 235.423989 55.393412 
L 38.482813 55.393412 
z
" style="fill: #ffffff"/>
   </g>
   <g id="matplotlib.axis_1">
    <g id="xtick_1">
     <g id="line2d_1">
      <defs>
       <path id="m807e31d520" d="M 0 0 
L 0 3.5 
" style="stroke: #000000; stroke-width: 0.8"/>
      </defs>
      <g>
       <use xlink:href="#m807e31d520" x="66.617266" y="252.334588" style="stroke: #000000; stroke-width: 0.8"/>
      </g>
     </g>
     <g id="text_1">
      <!-- −1.0 -->
      <g transform="translate(54.47586 266.932244) scale(0.1 -0.1)">
       <defs>
        <path id="DejaVuSans-c9c" d="M 678 2272 
L 4684 2272 
L 4684 1741 
L 678 1741 
L 678 2272 
z
" transform="scale(0.015625)"/>
        <path id="DejaVuSans-14" d="M 794 531 
L 1825 531 
L 1825 4091 
L 703 3866 
L 703 4441 
L 1819 4666 
L 2450 4666 
L 2450 531 
L 3481 531 
L 3481 0 
L 794 0 
L 794 531 
z
" transform="scale(0.015625)"/>
        <path id="DejaVuSans-11" d="M 684 794 
L 1344 794 
L 1344 0 
L 684 0 
L 684 794 
z
" transform="scale(0.015625)"/>
        <path id="DejaVuSans-13" d="M 2034 4250 
Q 1547 4250 1301 3770 
Q 1056 3291 1056 2328 
Q 1056 1369 1301 889 
Q 1547 409 2034 409 
Q 2525 409 2770 889 
Q 3016 1369 3016 2328 
Q 3016 3291 2770 3770 
Q 2525 4250 2034 4250 
z
M 2034 4750 
Q 2819 4750 3233 4129 
Q 3647 3509 3647 2328 
Q 3647 1150 3233 529 
Q 2819 -91 2034 -91 
Q 1250 -91 836 529 
Q 422 1150 422 2328 
Q 422 3509 836 4129 
Q 1250 4750 2034 4750 
z
" transform="scale(0.015625)"/>
       </defs>
       <use xlink:href="#DejaVuSans-c9c"/>
       <use xlink:href="#DejaVuSans-14" transform="translate(83.796875 0)"/>
       <use xlink:href="#DejaVuSans-11" transform="translate(147.421875 0)"/>
       <use xlink:href="#DejaVuSans-13" transform="translate(179.203125 0)"/>
      </g>
     </g>
    </g>
    <g id="xtick_2">
     <g id="line2d_2">
      <g>
       <use xlink:href="#m807e31d520" x="101.785334" y="252.334588" style="stroke: #000000; stroke-width: 0.8"/>
      </g>
     </g>
     <g id="text_2">
      <!-- −0.5 -->
      <g transform="translate(89.643927 266.932244) scale(0.1 -0.1)">
       <defs>
        <path id="DejaVuSans-18" d="M 691 4666 
L 3169 4666 
L 3169 4134 
L 1269 4134 
L 1269 2991 
Q 1406 3038 1543 3061 
Q 1681 3084 1819 3084 
Q 2600 3084 3056 2656 
Q 3513 2228 3513 1497 
Q 3513 744 3044 326 
Q 2575 -91 1722 -91 
Q 1428 -91 1123 -41 
Q 819 9 494 109 
L 494 744 
Q 775 591 1075 516 
Q 1375 441 1709 441 
Q 2250 441 2565 725 
Q 2881 1009 2881 1497 
Q 2881 1984 2565 2268 
Q 2250 2553 1709 2553 
Q 1456 2553 1204 2497 
Q 953 2441 691 2322 
L 691 4666 
z
" transform="scale(0.015625)"/>
       </defs>
       <use xlink:href="#DejaVuSans-c9c"/>
       <use xlink:href="#DejaVuSans-13" transform="translate(83.796875 0)"/>
       <use xlink:href="#DejaVuSans-11" transform="translate(147.421875 0)"/>
       <use xlink:href="#DejaVuSans-18" transform="translate(179.203125 0)"/>
      </g>
     </g>
    </g>
    <g id="xtick_3">
     <g id="line2d_3">
      <g>
       <use xlink:href="#m807e31d520" x="136.953401" y="252.334588" style="stroke: #000000; stroke-width: 0.8"/>
      </g>
     </g>
     <g id="text_3">
      <!-- 0.0 -->
      <g transform="translate(129.001838 266.932244) scale(0.1 -0.1)">
       <use xlink:href="#DejaVuSans-13"/>
       <use xlink:href="#DejaVuSans-11" transform="translate(63.625 0)"/>
       <use xlink:href="#DejaVuSans-13" transform="translate(95.40625 0)"/>
      </g>
     </g>
    </g>
    <g id="xtick_4">
     <g id="line2d_4">
      <g>
       <use xlink:href="#m807e31d520" x="172.121468" y="252.334588" style="stroke: #000000; stroke-width: 0.8"/>
      </g>
     </g>
     <g id="text_4">
      <!-- 0.5 -->
      <g transform="translate(164.169905 266.932244) scale(0.1 -0.1)">
       <use xlink:href="#DejaVuSans-13"/>
       <use xlink:href="#DejaVuSans-11" transform="translate(63.625 0)"/>
       <use xlink:href="#DejaVuSans-18" transform="translate(95.40625 0)"/>
      </g>
     </g>
    </g>
    <g id="xtick_5">
     <g id="line2d_5">
      <g>
       <use xlink:href="#m807e31d520" x="207.289535" y="252.334588" style="stroke: #000000; stroke-width: 0.8"/>
      </g>
     </g>
     <g id="text_5">
      <!-- 1.0 -->
      <g transform="translate(199.337973 266.932244) scale(0.1 -0.1)">
       <use xlink:href="#DejaVuSans-14"/>
       <use xlink:href="#DejaVuSans-11" transform="translate(63.625 0)"/>
       <use xlink:href="#DejaVuSans-13" transform="translate(95.40625 0)"/>
      </g>
     </g>
    </g>
   </g>
   <g id="matplotlib.axis_2">
    <g id="ytick_1">
     <g id="line2d_6">
      <defs>
       <path id="mc8e49ba9b6" d="M 0 0 
L -3.5 0 
" style="stroke: #000000; stroke-width: 0.8"/>
      </defs>
      <g>
       <use xlink:href="#mc8e49ba9b6" x="38.482813" y="224.200134" style="stroke: #000000; stroke-width: 0.8"/>
      </g>
     </g>
     <g id="text_6">
      <!-- −1.0 -->
      <g transform="translate(7.2 227.998963) scale(0.1 -0.1)">
       <use xlink:href="#DejaVuSans-c9c"/>
       <use xlink:href="#DejaVuSans-14" transform="translate(83.796875 0)"/>
       <use xlink:href="#DejaVuSans-11" transform="translate(147.421875 0)"/>
       <use xlink:href="#DejaVuSans-13" transform="translate(179.203125 0)"/>
      </g>
     </g>
    </g>
    <g id="ytick_2">
     <g id="line2d_7">
      <g>
       <use xlink:href="#mc8e49ba9b6" x="38.482813" y="189.032067" style="stroke: #000000; stroke-width: 0.8"/>
      </g>
     </g>
     <g id="text_7">
      <!-- −0.5 -->
      <g transform="translate(7.2 192.830895) scale(0.1 -0.1)">
       <use xlink:href="#DejaVuSans-c9c"/>
       <use xlink:href="#DejaVuSans-13" transform="translate(83.796875 0)"/>
       <use xlink:href="#DejaVuSans-11" transform="translate(147.421875 0)"/>
       <use xlink:href="#DejaVuSans-18" transform="translate(179.203125 0)"/>
      </g>
     </g>
    </g>
    <g id="ytick_3">
     <g id="line2d_8">
      <g>
       <use xlink:href="#mc8e49ba9b6" x="38.482813" y="153.864" style="stroke: #000000; stroke-width: 0.8"/>
      </g>
     </g>
     <g id="text_8">
      <!-- 0.0 -->
      <g transform="translate(15.579688 157.662828) scale(0.1 -0.1)">
       <use xlink:href="#DejaVuSans-13"/>
       <use xlink:href="#DejaVuSans-11" transform="translate(63.625 0)"/>
       <use xlink:href="#DejaVuSans-13" transform="translate(95.40625 0)"/>
      </g>
     </g>
    </g>
    <g id="ytick_4">
     <g id="line2d_9">
      <g>
       <use xlink:href="#mc8e49ba9b6" x="38.482813" y="118.695933" style="stroke: #000000; stroke-width: 0.8"/>
      </g>
     </g>
     <g id="text_9">
      <!-- 0.5 -->
      <g transform="translate(15.579688 122.494761) scale(0.1 -0.1)">
       <use xlink:href="#DejaVuSans-13"/>
       <use xlink:href="#DejaVuSans-11" transform="translate(63.625 0)"/>
       <use xlink:href="#DejaVuSans-18" transform="translate(95.40625 0)"/>
      </g>
     </g>
    </g>
    <g id="ytick_5">
     <g id="line2d_10">
      <g>
       <use xlink:href="#mc8e49ba9b6" x="38.482813" y="83.527866" style="stroke: #000000; stroke-width: 0.8"/>
      </g>
     </g>
     <g id="text_10">
      <!-- 1.0 -->
      <g transform="translate(15.579688 87.326694) scale(0.1 -0.1)">
       <use xlink:href="#DejaVuSans-14"/>
       <use xlink:href="#DejaVuSans-11" transform="translate(63.625 0)"/>
       <use xlink:href="#DejaVuSans-13" transform="translate(95.40625 0)"/>
      </g>
     </g>
    </g>
   </g>
   <g id="line2d_11">
    <path d="M 207.289535 153.864 
L 207.149345 149.425394 
L 206.729333 145.004481 
L 206.031174 140.618885 
L 205.05765 136.286088 
L 203.812643 132.023362 
L 202.301116 127.847699 
L 200.529093 123.775744 
L 198.503639 119.82373 
L 196.232828 116.007411 
L 193.725711 112.341999 
L 190.992284 108.842106 
L 188.043441 105.521683 
L 184.890939 102.393967 
L 181.547343 99.471426 
L 178.025983 96.76571 
L 174.340896 94.287604 
L 170.506771 92.046987 
L 166.538893 90.05279 
L 162.453078 88.312964 
L 158.265614 86.834444 
L 153.993193 85.623123 
L 149.652847 84.68383 
L 145.261876 84.02031 
L 140.837786 83.635207 
L 136.398212 83.530057 
L 131.96085 83.705278 
L 127.543391 84.160173 
L 123.163442 84.892927 
L 118.838465 85.900621 
L 114.585699 87.179236 
L 110.422097 88.723677 
L 106.364256 90.527786 
L 102.428353 92.584371 
L 98.630077 94.885236 
L 94.984569 97.421206 
L 91.506361 100.182175 
L 88.209318 103.157135 
L 85.106583 106.334227 
L 82.210525 109.700787 
L 79.532688 113.243395 
L 77.083747 116.947928 
L 74.873464 120.799619 
L 72.91065 124.783115 
L 71.203129 128.882536 
L 69.757708 133.08154 
L 68.580148 137.363389 
L 67.675145 141.711014 
L 67.046305 146.107085 
L 66.696135 150.534077 
L 66.626031 154.974343 
L 66.836273 159.410183 
L 67.326022 163.823915 
L 68.093326 168.197943 
L 69.135127 172.514831 
L 70.447271 176.757373 
L 72.024528 180.908654 
L 73.860611 184.952128 
L 75.9482 188.871675 
L 78.278974 192.651671 
L 80.843641 196.277048 
L 83.631978 199.733355 
L 86.63287 203.006812 
L 89.834355 206.084372 
L 93.223669 208.953767 
L 96.787304 211.603557 
L 100.511052 214.023181 
L 104.38007 216.202992 
L 108.378935 218.134302 
L 112.491706 219.809411 
L 116.701988 221.221643 
L 120.992999 222.365368 
L 125.347632 223.236026 
L 129.74853 223.830146 
L 134.178148 224.145362 
L 138.618829 224.180415 
L 143.052871 223.935166 
L 147.462599 223.410593 
L 151.830435 222.608786 
L 156.138966 221.532943 
L 160.371017 220.187352 
L 164.50972 218.577376 
L 168.538574 216.709434 
L 172.441521 214.590972 
L 176.203002 212.230434 
L 179.808023 209.63723 
L 183.242212 206.821698 
L 186.491881 203.795061 
L 189.544074 200.569384 
L 192.386626 197.157525 
L 195.008205 193.573086 
L 197.39836 189.830355 
L 199.547564 185.944252 
L 201.447249 181.930267 
L 203.089843 177.804402 
L 204.468797 173.583103 
L 205.578616 169.283198 
L 206.414874 164.921828 
L 206.974238 160.516378 
L 207.254479 156.08441 
L 207.289535 153.864 
L 207.289535 153.864 
" clip-path="url(#p85f51ac023)" style="fill: none; stroke: #cccccc; stroke-linecap: square"/>
   </g>
   <g id="line2d_12">
    <path d="M 207.289535 153.864 
L 101.785334 92.951121 
L 101.785334 214.776879 
L 207.289535 153.864 
" clip-path="url(#p85f51ac023)" style="fill: none; stroke: #1f77b4; stroke-width: 1.6; stroke-linecap: square"/>
   </g>
   <g id="line2d_13">
    <path d="M 38.482813 153.864 
L 235.423989 153.864 
" clip-path="url(#p85f51ac023)" style="fill: none; stroke: #e6e6e6; stroke-width: 1.5; stroke-linecap: square"/>
   </g>
   <g id="line2d_14">
    <path d="M 136.953401 252.334588 
L 136.953401 55.393412 
" clip-path="url(#p85f51ac023)" style="fill: none; stroke: #e6e6e6; stroke-width: 1.5; stroke-linecap: square"/>
   </g>
   <g id="patch_3">
    <path d="M 38.482813 252.334588 
L 38.482813 55.393412 
" style="fill: none; stroke: #000000; stroke-width: 0.8; stroke-linejoin: miter; stroke-linecap: square"/>
   </g>
   <g id="patch_4">
    <path d="M 235.423989 252.334588 
L 235.423989 55.393412 
" style="fill: none; stroke: #000000; stroke-width: 0.8; stroke-linejoin: miter; stroke-linecap: square"/>
   </g>
   <g id="patch_5">
    <path d="M 38.482812 252.334588 
L 235.423989 252.334588 
" style="fill: none; stroke: #000000; stroke-width: 0.8; stroke-linejoin: miter; stroke-linecap: square"/>
   </g>
   <g id="patch_6">
    <path d="M 38.482812 55.393412 
L 235.423989 55.393412 
" style="fill: none; stroke: #000000; stroke-width: 0.8; stroke-linejoin: miter; stroke-linecap: square"/>
   </g>
   <g id="PathCollection_1">
    <defs>
     <path id="m3e32a133b8" d="M 0 3 
C 0.795609 3 1.55874 2.683901 2.12132 2.12132 
C 2.683901 1.55874 3 0.795609 3 0 
C 3 -0.795609 2.683901 -1.55874 2.12132 -2.12132 
C 1.55874 -2.683901 0.795609 -3 0 -3 
C -0.795609 -3 -1.55874 -2.683901 -2.12132 -2.12132 
C -2.683901 -1.55874 -3 -0.795609 -3 0 
C -3 0.795609 -2.683901 1.55874 -2.12132 2.12132 
C -1.55874 2.683901 -0.795609 3 0 3 
z
" style="stroke: #1f77b4"/>
    </defs>
    <g clip-path="url(#p85f51ac023)">
     <use xlink:href="#m3e32a133b8" x="207.289535" y="153.864" style="fill: #1f77b4; stroke: #1f77b4"/>
     <use xlink:href="#m3e32a133b8" x="101.785334" y="92.951121" style="fill: #1f77b4; stroke: #1f77b4"/>
     <use xlink:href="#m3e32a133b8" x="101.785334" y="214.776879" style="fill: #1f77b4; stroke: #1f77b4"/>
    </g>
   </g>
   <g id="text_11">
    <!-- 2pi*0/3 -->
    <g transform="translate(213.289535 149.864) scale(0.07 -0.07)">
     <defs>
      <path id="DejaVuSans-15" d="M 1228 531 
L 3431 531 
L 3431 0 
L 469 0 
L 469 531 
Q 828 903 1448 1529 
Q 2069 2156 2228 2338 
Q 2531 2678 2651 2914 
Q 2772 3150 2772 3378 
Q 2772 3750 2511 3984 
Q 2250 4219 1831 4219 
Q 1534 4219 1204 4116 
Q 875 4013 500 3803 
L 500 4441 
Q 881 4594 1212 4672 
Q 1544 4750 1819 4750 
Q 2544 4750 2975 4387 
Q 3406 4025 3406 3419 
Q 3406 3131 3298 2873 
Q 3191 2616 2906 2266 
Q 2828 2175 2409 1742 
Q 1991 1309 1228 531 
z
" transform="scale(0.015625)"/>
      <path id="DejaVuSans-53" d="M 1159 525 
L 1159 -1331 
L 581 -1331 
L 581 3500 
L 1159 3500 
L 1159 2969 
Q 1341 3281 1617 3432 
Q 1894 3584 2278 3584 
Q 2916 3584 3314 3078 
Q 3713 2572 3713 1747 
Q 3713 922 3314 415 
Q 2916 -91 2278 -91 
Q 1894 -91 1617 61 
Q 1341 213 1159 525 
z
M 3116 1747 
Q 3116 2381 2855 2742 
Q 2594 3103 2138 3103 
Q 1681 3103 1420 2742 
Q 1159 2381 1159 1747 
Q 1159 1113 1420 752 
Q 1681 391 2138 391 
Q 2594 391 2855 752 
Q 3116 1113 3116 1747 
z
" transform="scale(0.015625)"/>
      <path id="DejaVuSans-4c" d="M 603 3500 
L 1178 3500 
L 1178 0 
L 603 0 
L 603 3500 
z
M 603 4863 
L 1178 4863 
L 1178 4134 
L 603 4134 
L 603 4863 
z
" transform="scale(0.015625)"/>
      <path id="DejaVuSans-d" d="M 3009 3897 
L 1888 3291 
L 3009 2681 
L 2828 2375 
L 1778 3009 
L 1778 1831 
L 1422 1831 
L 1422 3009 
L 372 2375 
L 191 2681 
L 1313 3291 
L 191 3897 
L 372 4206 
L 1422 3572 
L 1422 4750 
L 1778 4750 
L 1778 3572 
L 2828 4206 
L 3009 3897 
z
" transform="scale(0.015625)"/>
      <path id="DejaVuSans-12" d="M 1625 4666 
L 2156 4666 
L 531 -594 
L 0 -594 
L 1625 4666 
z
" transform="scale(0.015625)"/>
      <path id="DejaVuSans-16" d="M 2597 2516 
Q 3050 2419 3304 2112 
Q 3559 1806 3559 1356 
Q 3559 666 3084 287 
Q 2609 -91 1734 -91 
Q 1441 -91 1130 -33 
Q 819 25 488 141 
L 488 750 
Q 750 597 1062 519 
Q 1375 441 1716 441 
Q 2309 441 2620 675 
Q 2931 909 2931 1356 
Q 2931 1769 2642 2001 
Q 2353 2234 1838 2234 
L 1294 2234 
L 1294 2753 
L 1863 2753 
Q 2328 2753 2575 2939 
Q 2822 3125 2822 3475 
Q 2822 3834 2567 4026 
Q 2313 4219 1838 4219 
Q 1578 4219 1281 4162 
Q 984 4106 628 3988 
L 628 4550 
Q 988 4650 1302 4700 
Q 1616 4750 1894 4750 
Q 2613 4750 3031 4423 
Q 3450 4097 3450 3541 
Q 3450 3153 3228 2886 
Q 3006 2619 2597 2516 
z
" transform="scale(0.015625)"/>
     </defs>
     <use xlink:href="#DejaVuSans-15"/>
     <use xlink:href="#DejaVuSans-53" transform="translate(63.625 0)"/>
     <use xlink:href="#DejaVuSans-4c" transform="translate(127.109375 0)"/>
     <use xlink:href="#DejaVuSans-d" transform="translate(154.890625 0)"/>
     <use xlink:href="#DejaVuSans-13" transform="translate(204.890625 0)"/>
     <use xlink:href="#DejaVuSans-12" transform="translate(268.515625 0)"/>
     <use xlink:href="#DejaVuSans-16" transform="translate(302.203125 0)"/>
    </g>
   </g>
   <g id="text_12">
    <!-- 2pi*1/3 -->
    <g transform="translate(107.785334 88.951121) scale(0.07 -0.07)">
     <use xlink:href="#DejaVuSans-15"/>
     <use xlink:href="#DejaVuSans-53" transform="translate(63.625 0)"/>
     <use xlink:href="#DejaVuSans-4c" transform="translate(127.109375 0)"/>
     <use xlink:href="#DejaVuSans-d" transform="translate(154.890625 0)"/>
     <use xlink:href="#DejaVuSans-14" transform="translate(204.890625 0)"/>
     <use xlink:href="#DejaVuSans-12" transform="translate(268.515625 0)"/>
     <use xlink:href="#DejaVuSans-16" transform="translate(302.203125 0)"/>
    </g>
   </g>
   <g id="text_13">
    <!-- 2pi*2/3 -->
    <g transform="translate(107.785334 210.776879) scale(0.07 -0.07)">
     <use xlink:href="#DejaVuSans-15"/>
     <use xlink:href="#DejaVuSans-53" transform="translate(63.625 0)"/>
     <use xlink:href="#DejaVuSans-4c" transform="translate(127.109375 0)"/>
     <use xlink:href="#DejaVuSans-d" transform="translate(154.890625 0)"/>
     <use xlink:href="#DejaVuSans-15" transform="translate(204.890625 0)"/>
     <use xlink:href="#DejaVuSans-12" transform="translate(268.515625 0)"/>
     <use xlink:href="#DejaVuSans-16" transform="translate(302.203125 0)"/>
    </g>
   </g>
   <g id="text_14">
    <!-- n = 3  (z^3 = 1) -->
    <g transform="translate(87.342776 49.393412) scale(0.12 -0.12)">
     <defs>
      <path id="DejaVuSans-51" d="M 3513 2113 
L 3513 0 
L 2938 0 
L 2938 2094 
Q 2938 2591 2744 2837 
Q 2550 3084 2163 3084 
Q 1697 3084 1428 2787 
Q 1159 2491 1159 1978 
L 1159 0 
L 581 0 
L 581 3500 
L 1159 3500 
L 1159 2956 
Q 1366 3272 1645 3428 
Q 1925 3584 2291 3584 
Q 2894 3584 3203 3211 
Q 3513 2838 3513 2113 
z
" transform="scale(0.015625)"/>
      <path id="DejaVuSans-3" transform="scale(0.015625)"/>
      <path id="DejaVuSans-20" d="M 678 2906 
L 4684 2906 
L 4684 2381 
L 678 2381 
L 678 2906 
z
M 678 1631 
L 4684 1631 
L 4684 1100 
L 678 1100 
L 678 1631 
z
" transform="scale(0.015625)"/>
      <path id="DejaVuSans-b" d="M 1984 4856 
Q 1566 4138 1362 3434 
Q 1159 2731 1159 2009 
Q 1159 1288 1364 580 
Q 1569 -128 1984 -844 
L 1484 -844 
Q 1016 -109 783 600 
Q 550 1309 550 2009 
Q 550 2706 781 3412 
Q 1013 4119 1484 4856 
L 1984 4856 
z
" transform="scale(0.015625)"/>
      <path id="DejaVuSans-5d" d="M 353 3500 
L 3084 3500 
L 3084 2975 
L 922 459 
L 3084 459 
L 3084 0 
L 275 0 
L 275 525 
L 2438 3041 
L 353 3041 
L 353 3500 
z
" transform="scale(0.015625)"/>
      <path id="DejaVuSans-41" d="M 2988 4666 
L 4684 2925 
L 4056 2925 
L 2681 4159 
L 1306 2925 
L 678 2925 
L 2375 4666 
L 2988 4666 
z
" transform="scale(0.015625)"/>
      <path id="DejaVuSans-c" d="M 513 4856 
L 1013 4856 
Q 1481 4119 1714 3412 
Q 1947 2706 1947 2009 
Q 1947 1309 1714 600 
Q 1481 -109 1013 -844 
L 513 -844 
Q 928 -128 1133 580 
Q 1338 1288 1338 2009 
Q 1338 2731 1133 3434 
Q 928 4138 513 4856 
z
" transform="scale(0.015625)"/>
     </defs>
     <use xlink:href="#DejaVuSans-51"/>
     <use xlink:href="#DejaVuSans-3" transform="translate(63.375 0)"/>
     <use xlink:href="#DejaVuSans-20" transform="translate(95.15625 0)"/>
     <use xlink:href="#DejaVuSans-3" transform="translate(178.953125 0)"/>
     <use xlink:href="#DejaVuSans-16" transform="translate(210.734375 0)"/>
     <use xlink:href="#DejaVuSans-3" transform="translate(274.359375 0)"/>
     <use xlink:href="#DejaVuSans-3" transform="translate(306.140625 0)"/>
     <use xlink:href="#DejaVuSans-b" transform="translate(337.921875 0)"/>
     <use xlink:href="#DejaVuSans-5d" transform="translate(376.9375 0)"/>
     <use xlink:href="#DejaVuSans-41" transform="translate(429.421875 0)"/>
     <use xlink:href="#DejaVuSans-16" transform="translate(513.21875 0)"/>
     <use xlink:href="#DejaVuSans-3" transform="translate(576.84375 0)"/>
     <use xlink:href="#DejaVuSans-20" transform="translate(608.625 0)"/>
     <use xlink:href="#DejaVuSans-3" transform="translate(692.421875 0)"/>
     <use xlink:href="#DejaVuSans-14" transform="translate(724.203125 0)"/>
     <use xlink:href="#DejaVuSans-c" transform="translate(787.828125 0)"/>
    </g>
   </g>
  </g>
  <g id="axes_2">
   <g id="patch_7">
    <path d="M 274.812224 252.334588 
L 471.753401 252.334588 
L 471.753401 55.393412 
L 274.812224 55.393412 
z
" style="fill: #ffffff"/>
   </g>
   <g id="matplotlib.axis_3">
    <g id="xtick_6">
     <g id="line2d_15">
      <g>
       <use xlink:href="#m807e31d520" x="302.946678" y="252.334588" style="stroke: #000000; stroke-width: 0.8"/>
      </g>
     </g>
     <g id="text_15">
      <!-- −1.0 -->
      <g transform="translate(290.805272 266.932244) scale(0.1 -0.1)">
       <use xlink:href="#DejaVuSans-c9c"/>
       <use xlink:href="#DejaVuSans-14" transform="translate(83.796875 0)"/>
       <use xlink:href="#DejaVuSans-11" transform="translate(147.421875 0)"/>
       <use xlink:href="#DejaVuSans-13" transform="translate(179.203125 0)"/>
      </g>
     </g>
    </g>
    <g id="xtick_7">
     <g id="line2d_16">
      <g>
       <use xlink:href="#m807e31d520" x="338.114745" y="252.334588" style="stroke: #000000; stroke-width: 0.8"/>
      </g>
     </g>
     <g id="text_16">
      <!-- −0.5 -->
      <g transform="translate(325.973339 266.932244) scale(0.1 -0.1)">
       <use xlink:href="#DejaVuSans-c9c"/>
       <use xlink:href="#DejaVuSans-13" transform="translate(83.796875 0)"/>
       <use xlink:href="#DejaVuSans-11" transform="translate(147.421875 0)"/>
       <use xlink:href="#DejaVuSans-18" transform="translate(179.203125 0)"/>
      </g>
     </g>
    </g>
    <g id="xtick_8">
     <g id="line2d_17">
      <g>
       <use xlink:href="#m807e31d520" x="373.282813" y="252.334588" style="stroke: #000000; stroke-width: 0.8"/>
      </g>
     </g>
     <g id="text_17">
      <!-- 0.0 -->
      <g transform="translate(365.33125 266.932244) scale(0.1 -0.1)">
       <use xlink:href="#DejaVuSans-13"/>
       <use xlink:href="#DejaVuSans-11" transform="translate(63.625 0)"/>
       <use xlink:href="#DejaVuSans-13" transform="translate(95.40625 0)"/>
      </g>
     </g>
    </g>
    <g id="xtick_9">
     <g id="line2d_18">
      <g>
       <use xlink:href="#m807e31d520" x="408.45088" y="252.334588" style="stroke: #000000; stroke-width: 0.8"/>
      </g>
     </g>
     <g id="text_18">
      <!-- 0.5 -->
      <g transform="translate(400.499317 266.932244) scale(0.1 -0.1)">
       <use xlink:href="#DejaVuSans-13"/>
       <use xlink:href="#DejaVuSans-11" transform="translate(63.625 0)"/>
       <use xlink:href="#DejaVuSans-18" transform="translate(95.40625 0)"/>
      </g>
     </g>
    </g>
    <g id="xtick_10">
     <g id="line2d_19">
      <g>
       <use xlink:href="#m807e31d520" x="443.618947" y="252.334588" style="stroke: #000000; stroke-width: 0.8"/>
      </g>
     </g>
     <g id="text_19">
      <!-- 1.0 -->
      <g transform="translate(435.667384 266.932244) scale(0.1 -0.1)">
       <use xlink:href="#DejaVuSans-14"/>
       <use xlink:href="#DejaVuSans-11" transform="translate(63.625 0)"/>
       <use xlink:href="#DejaVuSans-13" transform="translate(95.40625 0)"/>
      </g>
     </g>
    </g>
   </g>
   <g id="matplotlib.axis_4">
    <g id="ytick_6">
     <g id="line2d_20">
      <g>
       <use xlink:href="#mc8e49ba9b6" x="274.812224" y="224.200134" style="stroke: #000000; stroke-width: 0.8"/>
      </g>
     </g>
     <g id="text_20">
      <!-- −1.0 -->
      <g transform="translate(243.529412 227.998963) scale(0.1 -0.1)">
       <use xlink:href="#DejaVuSans-c9c"/>
       <use xlink:href="#DejaVuSans-14" transform="translate(83.796875 0)"/>
       <use xlink:href="#DejaVuSans-11" transform="translate(147.421875 0)"/>
       <use xlink:href="#DejaVuSans-13" transform="translate(179.203125 0)"/>
      </g>
     </g>
    </g>
    <g id="ytick_7">
     <g id="line2d_21">
      <g>
       <use xlink:href="#mc8e49ba9b6" x="274.812224" y="189.032067" style="stroke: #000000; stroke-width: 0.8"/>
      </g>
     </g>
     <g id="text_21">
      <!-- −0.5 -->
      <g transform="translate(243.529412 192.830895) scale(0.1 -0.1)">
       <use xlink:href="#DejaVuSans-c9c"/>
       <use xlink:href="#DejaVuSans-13" transform="translate(83.796875 0)"/>
       <use xlink:href="#DejaVuSans-11" transform="translate(147.421875 0)"/>
       <use xlink:href="#DejaVuSans-18" transform="translate(179.203125 0)"/>
      </g>
     </g>
    </g>
    <g id="ytick_8">
     <g id="line2d_22">
      <g>
       <use xlink:href="#mc8e49ba9b6" x="274.812224" y="153.864" style="stroke: #000000; stroke-width: 0.8"/>
      </g>
     </g>
     <g id="text_22">
      <!-- 0.0 -->
      <g transform="translate(251.909099 157.662828) scale(0.1 -0.1)">
       <use xlink:href="#DejaVuSans-13"/>
       <use xlink:href="#DejaVuSans-11" transform="translate(63.625 0)"/>
       <use xlink:href="#DejaVuSans-13" transform="translate(95.40625 0)"/>
      </g>
     </g>
    </g>
    <g id="ytick_9">
     <g id="line2d_23">
      <g>
       <use xlink:href="#mc8e49ba9b6" x="274.812224" y="118.695933" style="stroke: #000000; stroke-width: 0.8"/>
      </g>
     </g>
     <g id="text_23">
      <!-- 0.5 -->
      <g transform="translate(251.909099 122.494761) scale(0.1 -0.1)">
       <use xlink:href="#DejaVuSans-13"/>
       <use xlink:href="#DejaVuSans-11" transform="translate(63.625 0)"/>
       <use xlink:href="#DejaVuSans-18" transform="translate(95.40625 0)"/>
      </g>
     </g>
    </g>
    <g id="ytick_10">
     <g id="line2d_24">
      <g>
       <use xlink:href="#mc8e49ba9b6" x="274.812224" y="83.527866" style="stroke: #000000; stroke-width: 0.8"/>
      </g>
     </g>
     <g id="text_24">
      <!-- 1.0 -->
      <g transform="translate(251.909099 87.326694) scale(0.1 -0.1)">
       <use xlink:href="#DejaVuSans-14"/>
       <use xlink:href="#DejaVuSans-11" transform="translate(63.625 0)"/>
       <use xlink:href="#DejaVuSans-13" transform="translate(95.40625 0)"/>
      </g>
     </g>
    </g>
   </g>
   <g id="line2d_25">
    <path d="M 443.618947 153.864 
L 443.478757 149.425394 
L 443.058745 145.004481 
L 442.360586 140.618885 
L 441.387062 136.286088 
L 440.142055 132.023362 
L 438.630528 127.847699 
L 436.858505 123.775744 
L 434.833051 119.82373 
L 432.56224 116.007411 
L 430.055123 112.341999 
L 427.321695 108.842106 
L 424.372853 105.521683 
L 421.220351 102.393967 
L 417.876755 99.471426 
L 414.355395 96.76571 
L 410.670308 94.287604 
L 406.836183 92.046987 
L 402.868305 90.05279 
L 398.78249 88.312964 
L 394.595026 86.834444 
L 390.322605 85.623123 
L 385.982258 84.68383 
L 381.591288 84.02031 
L 377.167198 83.635207 
L 372.727624 83.530057 
L 368.290262 83.705278 
L 363.872803 84.160173 
L 359.492854 84.892927 
L 355.167877 85.900621 
L 350.91511 87.179236 
L 346.751508 88.723677 
L 342.693668 90.527786 
L 338.757765 92.584371 
L 334.959489 94.885236 
L 331.31398 97.421206 
L 327.835772 100.182175 
L 324.538729 103.157135 
L 321.435995 106.334227 
L 318.539937 109.700787 
L 315.8621 113.243395 
L 313.413159 116.947928 
L 311.202876 120.799619 
L 309.240062 124.783115 
L 307.532541 128.882536 
L 306.08712 133.08154 
L 304.90956 137.363389 
L 304.004557 141.711014 
L 303.375716 146.107085 
L 303.025547 150.534077 
L 302.955443 154.974343 
L 303.165684 159.410183 
L 303.655433 163.823915 
L 304.422738 168.197943 
L 305.464538 172.514831 
L 306.776683 176.757373 
L 308.35394 180.908654 
L 310.190023 184.952128 
L 312.277612 188.871675 
L 314.608385 192.651671 
L 317.173053 196.277048 
L 319.96139 199.733355 
L 322.962282 203.006812 
L 326.163766 206.084372 
L 329.553081 208.953767 
L 333.116715 211.603557 
L 336.840463 214.023181 
L 340.709481 216.202992 
L 344.708346 218.134302 
L 348.821117 219.809411 
L 353.0314 221.221643 
L 357.322411 222.365368 
L 361.677044 223.236026 
L 366.077942 223.830146 
L 370.50756 224.145362 
L 374.948241 224.180415 
L 379.382283 223.935166 
L 383.792011 223.410593 
L 388.159846 222.608786 
L 392.468377 221.532943 
L 396.700429 220.187352 
L 400.839132 218.577376 
L 404.867986 216.709434 
L 408.770933 214.590972 
L 412.532414 212.230434 
L 416.137434 209.63723 
L 419.571624 206.821698 
L 422.821292 203.795061 
L 425.873486 200.569384 
L 428.716038 197.157525 
L 431.337616 193.573086 
L 433.727772 189.830355 
L 435.876976 185.944252 
L 437.776661 181.930267 
L 439.419255 177.804402 
L 440.798209 173.583103 
L 441.908027 169.283198 
L 442.744286 164.921828 
L 443.30365 160.516378 
L 443.583891 156.08441 
L 443.618947 153.864 
L 443.618947 153.864 
" clip-path="url(#p41336835ac)" style="fill: none; stroke: #cccccc; stroke-linecap: square"/>
   </g>
   <g id="line2d_26">
    <path d="M 443.618947 153.864 
L 395.017873 86.970361 
L 316.379684 112.521457 
L 316.379684 195.206543 
L 395.017873 220.757639 
L 443.618947 153.864 
" clip-path="url(#p41336835ac)" style="fill: none; stroke: #2ca02c; stroke-width: 1.6; stroke-linecap: square"/>
   </g>
   <g id="line2d_27">
    <path d="M 274.812224 153.864 
L 471.753401 153.864 
" clip-path="url(#p41336835ac)" style="fill: none; stroke: #e6e6e6; stroke-width: 1.5; stroke-linecap: square"/>
   </g>
   <g id="line2d_28">
    <path d="M 373.282813 252.334588 
L 373.282813 55.393412 
" clip-path="url(#p41336835ac)" style="fill: none; stroke: #e6e6e6; stroke-width: 1.5; stroke-linecap: square"/>
   </g>
   <g id="patch_8">
    <path d="M 274.812224 252.334588 
L 274.812224 55.393412 
" style="fill: none; stroke: #000000; stroke-width: 0.8; stroke-linejoin: miter; stroke-linecap: square"/>
   </g>
   <g id="patch_9">
    <path d="M 471.753401 252.334588 
L 471.753401 55.393412 
" style="fill: none; stroke: #000000; stroke-width: 0.8; stroke-linejoin: miter; stroke-linecap: square"/>
   </g>
   <g id="patch_10">
    <path d="M 274.812224 252.334588 
L 471.753401 252.334588 
" style="fill: none; stroke: #000000; stroke-width: 0.8; stroke-linejoin: miter; stroke-linecap: square"/>
   </g>
   <g id="patch_11">
    <path d="M 274.812224 55.393412 
L 471.753401 55.393412 
" style="fill: none; stroke: #000000; stroke-width: 0.8; stroke-linejoin: miter; stroke-linecap: square"/>
   </g>
   <g id="PathCollection_2">
    <defs>
     <path id="m9c79907cc7" d="M 0 3 
C 0.795609 3 1.55874 2.683901 2.12132 2.12132 
C 2.683901 1.55874 3 0.795609 3 0 
C 3 -0.795609 2.683901 -1.55874 2.12132 -2.12132 
C 1.55874 -2.683901 0.795609 -3 0 -3 
C -0.795609 -3 -1.55874 -2.683901 -2.12132 -2.12132 
C -2.683901 -1.55874 -3 -0.795609 -3 0 
C -3 0.795609 -2.683901 1.55874 -2.12132 2.12132 
C -1.55874 2.683901 -0.795609 3 0 3 
z
" style="stroke: #2ca02c"/>
    </defs>
    <g clip-path="url(#p41336835ac)">
     <use xlink:href="#m9c79907cc7" x="443.618947" y="153.864" style="fill: #2ca02c; stroke: #2ca02c"/>
     <use xlink:href="#m9c79907cc7" x="395.017873" y="86.970361" style="fill: #2ca02c; stroke: #2ca02c"/>
     <use xlink:href="#m9c79907cc7" x="316.379684" y="112.521457" style="fill: #2ca02c; stroke: #2ca02c"/>
     <use xlink:href="#m9c79907cc7" x="316.379684" y="195.206543" style="fill: #2ca02c; stroke: #2ca02c"/>
     <use xlink:href="#m9c79907cc7" x="395.017873" y="220.757639" style="fill: #2ca02c; stroke: #2ca02c"/>
    </g>
   </g>
   <g id="text_25">
    <!-- 2pi*0/5 -->
    <g transform="translate(449.618947 149.864) scale(0.07 -0.07)">
     <use xlink:href="#DejaVuSans-15"/>
     <use xlink:href="#DejaVuSans-53" transform="translate(63.625 0)"/>
     <use xlink:href="#DejaVuSans-4c" transform="translate(127.109375 0)"/>
     <use xlink:href="#DejaVuSans-d" transform="translate(154.890625 0)"/>
     <use xlink:href="#DejaVuSans-13" transform="translate(204.890625 0)"/>
     <use xlink:href="#DejaVuSans-12" transform="translate(268.515625 0)"/>
     <use xlink:href="#DejaVuSans-18" transform="translate(302.203125 0)"/>
    </g>
   </g>
   <g id="text_26">
    <!-- 2pi*1/5 -->
    <g transform="translate(401.017873 82.970361) scale(0.07 -0.07)">
     <use xlink:href="#DejaVuSans-15"/>
     <use xlink:href="#DejaVuSans-53" transform="translate(63.625 0)"/>
     <use xlink:href="#DejaVuSans-4c" transform="translate(127.109375 0)"/>
     <use xlink:href="#DejaVuSans-d" transform="translate(154.890625 0)"/>
     <use xlink:href="#DejaVuSans-14" transform="translate(204.890625 0)"/>
     <use xlink:href="#DejaVuSans-12" transform="translate(268.515625 0)"/>
     <use xlink:href="#DejaVuSans-18" transform="translate(302.203125 0)"/>
    </g>
   </g>
   <g id="text_27">
    <!-- 2pi*2/5 -->
    <g transform="translate(322.379684 108.521457) scale(0.07 -0.07)">
     <use xlink:href="#DejaVuSans-15"/>
     <use xlink:href="#DejaVuSans-53" transform="translate(63.625 0)"/>
     <use xlink:href="#DejaVuSans-4c" transform="translate(127.109375 0)"/>
     <use xlink:href="#DejaVuSans-d" transform="translate(154.890625 0)"/>
     <use xlink:href="#DejaVuSans-15" transform="translate(204.890625 0)"/>
     <use xlink:href="#DejaVuSans-12" transform="translate(268.515625 0)"/>
     <use xlink:href="#DejaVuSans-18" transform="translate(302.203125 0)"/>
    </g>
   </g>
   <g id="text_28">
    <!-- 2pi*3/5 -->
    <g transform="translate(322.379684 191.206543) scale(0.07 -0.07)">
     <use xlink:href="#DejaVuSans-15"/>
     <use xlink:href="#DejaVuSans-53" transform="translate(63.625 0)"/>
     <use xlink:href="#DejaVuSans-4c" transform="translate(127.109375 0)"/>
     <use xlink:href="#DejaVuSans-d" transform="translate(154.890625 0)"/>
     <use xlink:href="#DejaVuSans-16" transform="translate(204.890625 0)"/>
     <use xlink:href="#DejaVuSans-12" transform="translate(268.515625 0)"/>
     <use xlink:href="#DejaVuSans-18" transform="translate(302.203125 0)"/>
    </g>
   </g>
   <g id="text_29">
    <!-- 2pi*4/5 -->
    <g transform="translate(401.017873 216.757639) scale(0.07 -0.07)">
     <defs>
      <path id="DejaVuSans-17" d="M 2419 4116 
L 825 1625 
L 2419 1625 
L 2419 4116 
z
M 2253 4666 
L 3047 4666 
L 3047 1625 
L 3713 1625 
L 3713 1100 
L 3047 1100 
L 3047 0 
L 2419 0 
L 2419 1100 
L 313 1100 
L 313 1709 
L 2253 4666 
z
" transform="scale(0.015625)"/>
     </defs>
     <use xlink:href="#DejaVuSans-15"/>
     <use xlink:href="#DejaVuSans-53" transform="translate(63.625 0)"/>
     <use xlink:href="#DejaVuSans-4c" transform="translate(127.109375 0)"/>
     <use xlink:href="#DejaVuSans-d" transform="translate(154.890625 0)"/>
     <use xlink:href="#DejaVuSans-17" transform="translate(204.890625 0)"/>
     <use xlink:href="#DejaVuSans-12" transform="translate(268.515625 0)"/>
     <use xlink:href="#DejaVuSans-18" transform="translate(302.203125 0)"/>
    </g>
   </g>
   <g id="text_30">
    <!-- n = 5  (z^5 = 1) -->
    <g transform="translate(323.672188 49.393412) scale(0.12 -0.12)">
     <use xlink:href="#DejaVuSans-51"/>
     <use xlink:href="#DejaVuSans-3" transform="translate(63.375 0)"/>
     <use xlink:href="#DejaVuSans-20" transform="translate(95.15625 0)"/>
     <use xlink:href="#DejaVuSans-3" transform="translate(178.953125 0)"/>
     <use xlink:href="#DejaVuSans-18" transform="translate(210.734375 0)"/>
     <use xlink:href="#DejaVuSans-3" transform="translate(274.359375 0)"/>
     <use xlink:href="#DejaVuSans-3" transform="translate(306.140625 0)"/>
     <use xlink:href="#DejaVuSans-b" transform="translate(337.921875 0)"/>
     <use xlink:href="#DejaVuSans-5d" transform="translate(376.9375 0)"/>
     <use xlink:href="#DejaVuSans-41" transform="translate(429.421875 0)"/>
     <use xlink:href="#DejaVuSans-18" transform="translate(513.21875 0)"/>
     <use xlink:href="#DejaVuSans-3" transform="translate(576.84375 0)"/>
     <use xlink:href="#DejaVuSans-20" transform="translate(608.625 0)"/>
     <use xlink:href="#DejaVuSans-3" transform="translate(692.421875 0)"/>
     <use xlink:href="#DejaVuSans-14" transform="translate(724.203125 0)"/>
     <use xlink:href="#DejaVuSans-c" transform="translate(787.828125 0)"/>
    </g>
   </g>
  </g>
  <g id="axes_3">
   <g id="patch_12">
    <path d="M 511.141636 252.334588 
L 708.082813 252.334588 
L 708.082813 55.393412 
L 511.141636 55.393412 
z
" style="fill: #ffffff"/>
   </g>
   <g id="matplotlib.axis_5">
    <g id="xtick_11">
     <g id="line2d_29">
      <g>
       <use xlink:href="#m807e31d520" x="539.27609" y="252.334588" style="stroke: #000000; stroke-width: 0.8"/>
      </g>
     </g>
     <g id="text_31">
      <!-- −1.0 -->
      <g transform="translate(527.134684 266.932244) scale(0.1 -0.1)">
       <use xlink:href="#DejaVuSans-c9c"/>
       <use xlink:href="#DejaVuSans-14" transform="translate(83.796875 0)"/>
       <use xlink:href="#DejaVuSans-11" transform="translate(147.421875 0)"/>
       <use xlink:href="#DejaVuSans-13" transform="translate(179.203125 0)"/>
      </g>
     </g>
    </g>
    <g id="xtick_12">
     <g id="line2d_30">
      <g>
       <use xlink:href="#m807e31d520" x="574.444157" y="252.334588" style="stroke: #000000; stroke-width: 0.8"/>
      </g>
     </g>
     <g id="text_32">
      <!-- −0.5 -->
      <g transform="translate(562.302751 266.932244) scale(0.1 -0.1)">
       <use xlink:href="#DejaVuSans-c9c"/>
       <use xlink:href="#DejaVuSans-13" transform="translate(83.796875 0)"/>
       <use xlink:href="#DejaVuSans-11" transform="translate(147.421875 0)"/>
       <use xlink:href="#DejaVuSans-18" transform="translate(179.203125 0)"/>
      </g>
     </g>
    </g>
    <g id="xtick_13">
     <g id="line2d_31">
      <g>
       <use xlink:href="#m807e31d520" x="609.612224" y="252.334588" style="stroke: #000000; stroke-width: 0.8"/>
      </g>
     </g>
     <g id="text_33">
      <!-- 0.0 -->
      <g transform="translate(601.660662 266.932244) scale(0.1 -0.1)">
       <use xlink:href="#DejaVuSans-13"/>
       <use xlink:href="#DejaVuSans-11" transform="translate(63.625 0)"/>
       <use xlink:href="#DejaVuSans-13" transform="translate(95.40625 0)"/>
      </g>
     </g>
    </g>
    <g id="xtick_14">
     <g id="line2d_32">
      <g>
       <use xlink:href="#m807e31d520" x="644.780291" y="252.334588" style="stroke: #000000; stroke-width: 0.8"/>
      </g>
     </g>
     <g id="text_34">
      <!-- 0.5 -->
      <g transform="translate(636.828729 266.932244) scale(0.1 -0.1)">
       <use xlink:href="#DejaVuSans-13"/>
       <use xlink:href="#DejaVuSans-11" transform="translate(63.625 0)"/>
       <use xlink:href="#DejaVuSans-18" transform="translate(95.40625 0)"/>
      </g>
     </g>
    </g>
    <g id="xtick_15">
     <g id="line2d_33">
      <g>
       <use xlink:href="#m807e31d520" x="679.948359" y="252.334588" style="stroke: #000000; stroke-width: 0.8"/>
      </g>
     </g>
     <g id="text_35">
      <!-- 1.0 -->
      <g transform="translate(671.996796 266.932244) scale(0.1 -0.1)">
       <use xlink:href="#DejaVuSans-14"/>
       <use xlink:href="#DejaVuSans-11" transform="translate(63.625 0)"/>
       <use xlink:href="#DejaVuSans-13" transform="translate(95.40625 0)"/>
      </g>
     </g>
    </g>
   </g>
   <g id="matplotlib.axis_6">
    <g id="ytick_11">
     <g id="line2d_34">
      <g>
       <use xlink:href="#mc8e49ba9b6" x="511.141636" y="224.200134" style="stroke: #000000; stroke-width: 0.8"/>
      </g>
     </g>
     <g id="text_36">
      <!-- −1.0 -->
      <g transform="translate(479.858824 227.998963) scale(0.1 -0.1)">
       <use xlink:href="#DejaVuSans-c9c"/>
       <use xlink:href="#DejaVuSans-14" transform="translate(83.796875 0)"/>
       <use xlink:href="#DejaVuSans-11" transform="translate(147.421875 0)"/>
       <use xlink:href="#DejaVuSans-13" transform="translate(179.203125 0)"/>
      </g>
     </g>
    </g>
    <g id="ytick_12">
     <g id="line2d_35">
      <g>
       <use xlink:href="#mc8e49ba9b6" x="511.141636" y="189.032067" style="stroke: #000000; stroke-width: 0.8"/>
      </g>
     </g>
     <g id="text_37">
      <!-- −0.5 -->
      <g transform="translate(479.858824 192.830895) scale(0.1 -0.1)">
       <use xlink:href="#DejaVuSans-c9c"/>
       <use xlink:href="#DejaVuSans-13" transform="translate(83.796875 0)"/>
       <use xlink:href="#DejaVuSans-11" transform="translate(147.421875 0)"/>
       <use xlink:href="#DejaVuSans-18" transform="translate(179.203125 0)"/>
      </g>
     </g>
    </g>
    <g id="ytick_13">
     <g id="line2d_36">
      <g>
       <use xlink:href="#mc8e49ba9b6" x="511.141636" y="153.864" style="stroke: #000000; stroke-width: 0.8"/>
      </g>
     </g>
     <g id="text_38">
      <!-- 0.0 -->
      <g transform="translate(488.238511 157.662828) scale(0.1 -0.1)">
       <use xlink:href="#DejaVuSans-13"/>
       <use xlink:href="#DejaVuSans-11" transform="translate(63.625 0)"/>
       <use xlink:href="#DejaVuSans-13" transform="translate(95.40625 0)"/>
      </g>
     </g>
    </g>
    <g id="ytick_14">
     <g id="line2d_37">
      <g>
       <use xlink:href="#mc8e49ba9b6" x="511.141636" y="118.695933" style="stroke: #000000; stroke-width: 0.8"/>
      </g>
     </g>
     <g id="text_39">
      <!-- 0.5 -->
      <g transform="translate(488.238511 122.494761) scale(0.1 -0.1)">
       <use xlink:href="#DejaVuSans-13"/>
       <use xlink:href="#DejaVuSans-11" transform="translate(63.625 0)"/>
       <use xlink:href="#DejaVuSans-18" transform="translate(95.40625 0)"/>
      </g>
     </g>
    </g>
    <g id="ytick_15">
     <g id="line2d_38">
      <g>
       <use xlink:href="#mc8e49ba9b6" x="511.141636" y="83.527866" style="stroke: #000000; stroke-width: 0.8"/>
      </g>
     </g>
     <g id="text_40">
      <!-- 1.0 -->
      <g transform="translate(488.238511 87.326694) scale(0.1 -0.1)">
       <use xlink:href="#DejaVuSans-14"/>
       <use xlink:href="#DejaVuSans-11" transform="translate(63.625 0)"/>
       <use xlink:href="#DejaVuSans-13" transform="translate(95.40625 0)"/>
      </g>
     </g>
    </g>
   </g>
   <g id="line2d_39">
    <path d="M 679.948359 153.864 
L 679.808168 149.425394 
L 679.388157 145.004481 
L 678.689997 140.618885 
L 677.716474 136.286088 
L 676.471467 132.023362 
L 674.959939 127.847699 
L 673.187917 123.775744 
L 671.162463 119.82373 
L 668.891651 116.007411 
L 666.384535 112.341999 
L 663.651107 108.842106 
L 660.702265 105.521683 
L 657.549762 102.393967 
L 654.206167 99.471426 
L 650.684807 96.76571 
L 646.99972 94.287604 
L 643.165595 92.046987 
L 639.197716 90.05279 
L 635.111901 88.312964 
L 630.924437 86.834444 
L 626.652017 85.623123 
L 622.31167 84.68383 
L 617.9207 84.02031 
L 613.49661 83.635207 
L 609.057035 83.530057 
L 604.619674 83.705278 
L 600.202214 84.160173 
L 595.822266 84.892927 
L 591.497288 85.900621 
L 587.244522 87.179236 
L 583.08092 88.723677 
L 579.02308 90.527786 
L 575.087177 92.584371 
L 571.2889 94.885236 
L 567.643392 97.421206 
L 564.165184 100.182175 
L 560.868141 103.157135 
L 557.765407 106.334227 
L 554.869349 109.700787 
L 552.191512 113.243395 
L 549.742571 116.947928 
L 547.532288 120.799619 
L 545.569473 124.783115 
L 543.861952 128.882536 
L 542.416531 133.08154 
L 541.238972 137.363389 
L 540.333968 141.711014 
L 539.705128 146.107085 
L 539.354958 150.534077 
L 539.284854 154.974343 
L 539.495096 159.410183 
L 539.984845 163.823915 
L 540.752149 168.197943 
L 541.79395 172.514831 
L 543.106094 176.757373 
L 544.683352 180.908654 
L 546.519434 184.952128 
L 548.607024 188.871675 
L 550.937797 192.651671 
L 553.502464 196.277048 
L 556.290802 199.733355 
L 559.291694 203.006812 
L 562.493178 206.084372 
L 565.882493 208.953767 
L 569.446127 211.603557 
L 573.169875 214.023181 
L 577.038893 216.202992 
L 581.037758 218.134302 
L 585.150529 219.809411 
L 589.360812 221.221643 
L 593.651822 222.365368 
L 598.006456 223.236026 
L 602.407353 223.830146 
L 606.836971 224.145362 
L 611.277653 224.180415 
L 615.711695 223.935166 
L 620.121423 223.410593 
L 624.489258 222.608786 
L 628.797789 221.532943 
L 633.029841 220.187352 
L 637.168543 218.577376 
L 641.197398 216.709434 
L 645.100345 214.590972 
L 648.861826 212.230434 
L 652.466846 209.63723 
L 655.901036 206.821698 
L 659.150704 203.795061 
L 662.202898 200.569384 
L 665.04545 197.157525 
L 667.667028 193.573086 
L 670.057183 189.830355 
L 672.206387 185.944252 
L 674.106073 181.930267 
L 675.748666 177.804402 
L 677.127621 173.583103 
L 678.237439 169.283198 
L 679.073697 164.921828 
L 679.633062 160.516378 
L 679.913302 156.08441 
L 679.948359 153.864 
L 679.948359 153.864 
" clip-path="url(#p81e7bb483b)" style="fill: none; stroke: #cccccc; stroke-linecap: square"/>
   </g>
   <g id="line2d_40">
    <path d="M 679.948359 153.864 
L 659.347382 104.128842 
L 609.612224 83.527866 
L 559.877067 104.128842 
L 539.27609 153.864 
L 559.877067 203.599158 
L 609.612224 224.200134 
L 659.347382 203.599158 
L 679.948359 153.864 
" clip-path="url(#p81e7bb483b)" style="fill: none; stroke: #d62728; stroke-width: 1.6; stroke-linecap: square"/>
   </g>
   <g id="line2d_41">
    <path d="M 511.141636 153.864 
L 708.082813 153.864 
" clip-path="url(#p81e7bb483b)" style="fill: none; stroke: #e6e6e6; stroke-width: 1.5; stroke-linecap: square"/>
   </g>
   <g id="line2d_42">
    <path d="M 609.612224 252.334588 
L 609.612224 55.393412 
" clip-path="url(#p81e7bb483b)" style="fill: none; stroke: #e6e6e6; stroke-width: 1.5; stroke-linecap: square"/>
   </g>
   <g id="patch_13">
    <path d="M 511.141636 252.334588 
L 511.141636 55.393412 
" style="fill: none; stroke: #000000; stroke-width: 0.8; stroke-linejoin: miter; stroke-linecap: square"/>
   </g>
   <g id="patch_14">
    <path d="M 708.082813 252.334588 
L 708.082813 55.393412 
" style="fill: none; stroke: #000000; stroke-width: 0.8; stroke-linejoin: miter; stroke-linecap: square"/>
   </g>
   <g id="patch_15">
    <path d="M 511.141636 252.334588 
L 708.082813 252.334588 
" style="fill: none; stroke: #000000; stroke-width: 0.8; stroke-linejoin: miter; stroke-linecap: square"/>
   </g>
   <g id="patch_16">
    <path d="M 511.141636 55.393412 
L 708.082813 55.393412 
" style="fill: none; stroke: #000000; stroke-width: 0.8; stroke-linejoin: miter; stroke-linecap: square"/>
   </g>
   <g id="PathCollection_3">
    <defs>
     <path id="m3fa3c3c198" d="M 0 3 
C 0.795609 3 1.55874 2.683901 2.12132 2.12132 
C 2.683901 1.55874 3 0.795609 3 0 
C 3 -0.795609 2.683901 -1.55874 2.12132 -2.12132 
C 1.55874 -2.683901 0.795609 -3 0 -3 
C -0.795609 -3 -1.55874 -2.683901 -2.12132 -2.12132 
C -2.683901 -1.55874 -3 -0.795609 -3 0 
C -3 0.795609 -2.683901 1.55874 -2.12132 2.12132 
C -1.55874 2.683901 -0.795609 3 0 3 
z
" style="stroke: #d62728"/>
    </defs>
    <g clip-path="url(#p81e7bb483b)">
     <use xlink:href="#m3fa3c3c198" x="679.948359" y="153.864" style="fill: #d62728; stroke: #d62728"/>
     <use xlink:href="#m3fa3c3c198" x="659.347382" y="104.128842" style="fill: #d62728; stroke: #d62728"/>
     <use xlink:href="#m3fa3c3c198" x="609.612224" y="83.527866" style="fill: #d62728; stroke: #d62728"/>
     <use xlink:href="#m3fa3c3c198" x="559.877067" y="104.128842" style="fill: #d62728; stroke: #d62728"/>
     <use xlink:href="#m3fa3c3c198" x="539.27609" y="153.864" style="fill: #d62728; stroke: #d62728"/>
     <use xlink:href="#m3fa3c3c198" x="559.877067" y="203.599158" style="fill: #d62728; stroke: #d62728"/>
     <use xlink:href="#m3fa3c3c198" x="609.612224" y="224.200134" style="fill: #d62728; stroke: #d62728"/>
     <use xlink:href="#m3fa3c3c198" x="659.347382" y="203.599158" style="fill: #d62728; stroke: #d62728"/>
    </g>
   </g>
   <g id="text_41">
    <!-- 2pi*0/8 -->
    <g transform="translate(685.948359 149.864) scale(0.07 -0.07)">
     <defs>
      <path id="DejaVuSans-1b" d="M 2034 2216 
Q 1584 2216 1326 1975 
Q 1069 1734 1069 1313 
Q 1069 891 1326 650 
Q 1584 409 2034 409 
Q 2484 409 2743 651 
Q 3003 894 3003 1313 
Q 3003 1734 2745 1975 
Q 2488 2216 2034 2216 
z
M 1403 2484 
Q 997 2584 770 2862 
Q 544 3141 544 3541 
Q 544 4100 942 4425 
Q 1341 4750 2034 4750 
Q 2731 4750 3128 4425 
Q 3525 4100 3525 3541 
Q 3525 3141 3298 2862 
Q 3072 2584 2669 2484 
Q 3125 2378 3379 2068 
Q 3634 1759 3634 1313 
Q 3634 634 3220 271 
Q 2806 -91 2034 -91 
Q 1263 -91 848 271 
Q 434 634 434 1313 
Q 434 1759 690 2068 
Q 947 2378 1403 2484 
z
M 1172 3481 
Q 1172 3119 1398 2916 
Q 1625 2713 2034 2713 
Q 2441 2713 2670 2916 
Q 2900 3119 2900 3481 
Q 2900 3844 2670 4047 
Q 2441 4250 2034 4250 
Q 1625 4250 1398 4047 
Q 1172 3844 1172 3481 
z
" transform="scale(0.015625)"/>
     </defs>
     <use xlink:href="#DejaVuSans-15"/>
     <use xlink:href="#DejaVuSans-53" transform="translate(63.625 0)"/>
     <use xlink:href="#DejaVuSans-4c" transform="translate(127.109375 0)"/>
     <use xlink:href="#DejaVuSans-d" transform="translate(154.890625 0)"/>
     <use xlink:href="#DejaVuSans-13" transform="translate(204.890625 0)"/>
     <use xlink:href="#DejaVuSans-12" transform="translate(268.515625 0)"/>
     <use xlink:href="#DejaVuSans-1b" transform="translate(302.203125 0)"/>
    </g>
   </g>
   <g id="text_42">
    <!-- 2pi*1/8 -->
    <g transform="translate(665.347382 100.128842) scale(0.07 -0.07)">
     <use xlink:href="#DejaVuSans-15"/>
     <use xlink:href="#DejaVuSans-53" transform="translate(63.625 0)"/>
     <use xlink:href="#DejaVuSans-4c" transform="translate(127.109375 0)"/>
     <use xlink:href="#DejaVuSans-d" transform="translate(154.890625 0)"/>
     <use xlink:href="#DejaVuSans-14" transform="translate(204.890625 0)"/>
     <use xlink:href="#DejaVuSans-12" transform="translate(268.515625 0)"/>
     <use xlink:href="#DejaVuSans-1b" transform="translate(302.203125 0)"/>
    </g>
   </g>
   <g id="text_43">
    <!-- 2pi*2/8 -->
    <g transform="translate(615.612224 79.527866) scale(0.07 -0.07)">
     <use xlink:href="#DejaVuSans-15"/>
     <use xlink:href="#DejaVuSans-53" transform="translate(63.625 0)"/>
     <use xlink:href="#DejaVuSans-4c" transform="translate(127.109375 0)"/>
     <use xlink:href="#DejaVuSans-d" transform="translate(154.890625 0)"/>
     <use xlink:href="#DejaVuSans-15" transform="translate(204.890625 0)"/>
     <use xlink:href="#DejaVuSans-12" transform="translate(268.515625 0)"/>
     <use xlink:href="#DejaVuSans-1b" transform="translate(302.203125 0)"/>
    </g>
   </g>
   <g id="text_44">
    <!-- 2pi*3/8 -->
    <g transform="translate(565.877067 100.128842) scale(0.07 -0.07)">
     <use xlink:href="#DejaVuSans-15"/>
     <use xlink:href="#DejaVuSans-53" transform="translate(63.625 0)"/>
     <use xlink:href="#DejaVuSans-4c" transform="translate(127.109375 0)"/>
     <use xlink:href="#DejaVuSans-d" transform="translate(154.890625 0)"/>
     <use xlink:href="#DejaVuSans-16" transform="translate(204.890625 0)"/>
     <use xlink:href="#DejaVuSans-12" transform="translate(268.515625 0)"/>
     <use xlink:href="#DejaVuSans-1b" transform="translate(302.203125 0)"/>
    </g>
   </g>
   <g id="text_45">
    <!-- 2pi*4/8 -->
    <g transform="translate(545.27609 149.864) scale(0.07 -0.07)">
     <use xlink:href="#DejaVuSans-15"/>
     <use xlink:href="#DejaVuSans-53" transform="translate(63.625 0)"/>
     <use xlink:href="#DejaVuSans-4c" transform="translate(127.109375 0)"/>
     <use xlink:href="#DejaVuSans-d" transform="translate(154.890625 0)"/>
     <use xlink:href="#DejaVuSans-17" transform="translate(204.890625 0)"/>
     <use xlink:href="#DejaVuSans-12" transform="translate(268.515625 0)"/>
     <use xlink:href="#DejaVuSans-1b" transform="translate(302.203125 0)"/>
    </g>
   </g>
   <g id="text_46">
    <!-- 2pi*5/8 -->
    <g transform="translate(565.877067 199.599158) scale(0.07 -0.07)">
     <use xlink:href="#DejaVuSans-15"/>
     <use xlink:href="#DejaVuSans-53" transform="translate(63.625 0)"/>
     <use xlink:href="#DejaVuSans-4c" transform="translate(127.109375 0)"/>
     <use xlink:href="#DejaVuSans-d" transform="translate(154.890625 0)"/>
     <use xlink:href="#DejaVuSans-18" transform="translate(204.890625 0)"/>
     <use xlink:href="#DejaVuSans-12" transform="translate(268.515625 0)"/>
     <use xlink:href="#DejaVuSans-1b" transform="translate(302.203125 0)"/>
    </g>
   </g>
   <g id="text_47">
    <!-- 2pi*6/8 -->
    <g transform="translate(615.612224 220.200134) scale(0.07 -0.07)">
     <defs>
      <path id="DejaVuSans-19" d="M 2113 2584 
Q 1688 2584 1439 2293 
Q 1191 2003 1191 1497 
Q 1191 994 1439 701 
Q 1688 409 2113 409 
Q 2538 409 2786 701 
Q 3034 994 3034 1497 
Q 3034 2003 2786 2293 
Q 2538 2584 2113 2584 
z
M 3366 4563 
L 3366 3988 
Q 3128 4100 2886 4159 
Q 2644 4219 2406 4219 
Q 1781 4219 1451 3797 
Q 1122 3375 1075 2522 
Q 1259 2794 1537 2939 
Q 1816 3084 2150 3084 
Q 2853 3084 3261 2657 
Q 3669 2231 3669 1497 
Q 3669 778 3244 343 
Q 2819 -91 2113 -91 
Q 1303 -91 875 529 
Q 447 1150 447 2328 
Q 447 3434 972 4092 
Q 1497 4750 2381 4750 
Q 2619 4750 2861 4703 
Q 3103 4656 3366 4563 
z
" transform="scale(0.015625)"/>
     </defs>
     <use xlink:href="#DejaVuSans-15"/>
     <use xlink:href="#DejaVuSans-53" transform="translate(63.625 0)"/>
     <use xlink:href="#DejaVuSans-4c" transform="translate(127.109375 0)"/>
     <use xlink:href="#DejaVuSans-d" transform="translate(154.890625 0)"/>
     <use xlink:href="#DejaVuSans-19" transform="translate(204.890625 0)"/>
     <use xlink:href="#DejaVuSans-12" transform="translate(268.515625 0)"/>
     <use xlink:href="#DejaVuSans-1b" transform="translate(302.203125 0)"/>
    </g>
   </g>
   <g id="text_48">
    <!-- 2pi*7/8 -->
    <g transform="translate(665.347382 199.599158) scale(0.07 -0.07)">
     <defs>
      <path id="DejaVuSans-1a" d="M 525 4666 
L 3525 4666 
L 3525 4397 
L 1831 0 
L 1172 0 
L 2766 4134 
L 525 4134 
L 525 4666 
z
" transform="scale(0.015625)"/>
     </defs>
     <use xlink:href="#DejaVuSans-15"/>
     <use xlink:href="#DejaVuSans-53" transform="translate(63.625 0)"/>
     <use xlink:href="#DejaVuSans-4c" transform="translate(127.109375 0)"/>
     <use xlink:href="#DejaVuSans-d" transform="translate(154.890625 0)"/>
     <use xlink:href="#DejaVuSans-1a" transform="translate(204.890625 0)"/>
     <use xlink:href="#DejaVuSans-12" transform="translate(268.515625 0)"/>
     <use xlink:href="#DejaVuSans-1b" transform="translate(302.203125 0)"/>
    </g>
   </g>
   <g id="text_49">
    <!-- n = 8  (z^8 = 1) -->
    <g transform="translate(560.001599 49.393412) scale(0.12 -0.12)">
     <use xlink:href="#DejaVuSans-51"/>
     <use xlink:href="#DejaVuSans-3" transform="translate(63.375 0)"/>
     <use xlink:href="#DejaVuSans-20" transform="translate(95.15625 0)"/>
     <use xlink:href="#DejaVuSans-3" transform="translate(178.953125 0)"/>
     <use xlink:href="#DejaVuSans-1b" transform="translate(210.734375 0)"/>
     <use xlink:href="#DejaVuSans-3" transform="translate(274.359375 0)"/>
     <use xlink:href="#DejaVuSans-3" transform="translate(306.140625 0)"/>
     <use xlink:href="#DejaVuSans-b" transform="translate(337.921875 0)"/>
     <use xlink:href="#DejaVuSans-5d" transform="translate(376.9375 0)"/>
     <use xlink:href="#DejaVuSans-41" transform="translate(429.421875 0)"/>
     <use xlink:href="#DejaVuSans-1b" transform="translate(513.21875 0)"/>
     <use xlink:href="#DejaVuSans-3" transform="translate(576.84375 0)"/>
     <use xlink:href="#DejaVuSans-20" transform="translate(608.625 0)"/>
     <use xlink:href="#DejaVuSans-3" transform="translate(692.421875 0)"/>
     <use xlink:href="#DejaVuSans-14" transform="translate(724.203125 0)"/>
     <use xlink:href="#DejaVuSans-c" transform="translate(787.828125 0)"/>
    </g>
   </g>
  </g>
  <g id="text_50">
   <!-- Roots of unity: dividing the circle into n equal parts -->
   <g transform="translate(209.098438 16.318125) scale(0.12 -0.12)">
    <defs>
     <path id="DejaVuSans-35" d="M 2841 2188 
Q 3044 2119 3236 1894 
Q 3428 1669 3622 1275 
L 4263 0 
L 3584 0 
L 2988 1197 
Q 2756 1666 2539 1819 
Q 2322 1972 1947 1972 
L 1259 1972 
L 1259 0 
L 628 0 
L 628 4666 
L 2053 4666 
Q 2853 4666 3247 4331 
Q 3641 3997 3641 3322 
Q 3641 2881 3436 2590 
Q 3231 2300 2841 2188 
z
M 1259 4147 
L 1259 2491 
L 2053 2491 
Q 2509 2491 2742 2702 
Q 2975 2913 2975 3322 
Q 2975 3731 2742 3939 
Q 2509 4147 2053 4147 
L 1259 4147 
z
" transform="scale(0.015625)"/>
     <path id="DejaVuSans-52" d="M 1959 3097 
Q 1497 3097 1228 2736 
Q 959 2375 959 1747 
Q 959 1119 1226 758 
Q 1494 397 1959 397 
Q 2419 397 2687 759 
Q 2956 1122 2956 1747 
Q 2956 2369 2687 2733 
Q 2419 3097 1959 3097 
z
M 1959 3584 
Q 2709 3584 3137 3096 
Q 3566 2609 3566 1747 
Q 3566 888 3137 398 
Q 2709 -91 1959 -91 
Q 1206 -91 779 398 
Q 353 888 353 1747 
Q 353 2609 779 3096 
Q 1206 3584 1959 3584 
z
" transform="scale(0.015625)"/>
     <path id="DejaVuSans-57" d="M 1172 4494 
L 1172 3500 
L 2356 3500 
L 2356 3053 
L 1172 3053 
L 1172 1153 
Q 1172 725 1289 603 
Q 1406 481 1766 481 
L 2356 481 
L 2356 0 
L 1766 0 
Q 1100 0 847 248 
Q 594 497 594 1153 
L 594 3053 
L 172 3053 
L 172 3500 
L 594 3500 
L 594 4494 
L 1172 4494 
z
" transform="scale(0.015625)"/>
     <path id="DejaVuSans-56" d="M 2834 3397 
L 2834 2853 
Q 2591 2978 2328 3040 
Q 2066 3103 1784 3103 
Q 1356 3103 1142 2972 
Q 928 2841 928 2578 
Q 928 2378 1081 2264 
Q 1234 2150 1697 2047 
L 1894 2003 
Q 2506 1872 2764 1633 
Q 3022 1394 3022 966 
Q 3022 478 2636 193 
Q 2250 -91 1575 -91 
Q 1294 -91 989 -36 
Q 684 19 347 128 
L 347 722 
Q 666 556 975 473 
Q 1284 391 1588 391 
Q 1994 391 2212 530 
Q 2431 669 2431 922 
Q 2431 1156 2273 1281 
Q 2116 1406 1581 1522 
L 1381 1569 
Q 847 1681 609 1914 
Q 372 2147 372 2553 
Q 372 3047 722 3315 
Q 1072 3584 1716 3584 
Q 2034 3584 2315 3537 
Q 2597 3491 2834 3397 
z
" transform="scale(0.015625)"/>
     <path id="DejaVuSans-49" d="M 2375 4863 
L 2375 4384 
L 1825 4384 
Q 1516 4384 1395 4259 
Q 1275 4134 1275 3809 
L 1275 3500 
L 2222 3500 
L 2222 3053 
L 1275 3053 
L 1275 0 
L 697 0 
L 697 3053 
L 147 3053 
L 147 3500 
L 697 3500 
L 697 3744 
Q 697 4328 969 4595 
Q 1241 4863 1831 4863 
L 2375 4863 
z
" transform="scale(0.015625)"/>
     <path id="DejaVuSans-58" d="M 544 1381 
L 544 3500 
L 1119 3500 
L 1119 1403 
Q 1119 906 1312 657 
Q 1506 409 1894 409 
Q 2359 409 2629 706 
Q 2900 1003 2900 1516 
L 2900 3500 
L 3475 3500 
L 3475 0 
L 2900 0 
L 2900 538 
Q 2691 219 2414 64 
Q 2138 -91 1772 -91 
Q 1169 -91 856 284 
Q 544 659 544 1381 
z
M 1991 3584 
L 1991 3584 
z
" transform="scale(0.015625)"/>
     <path id="DejaVuSans-5c" d="M 2059 -325 
Q 1816 -950 1584 -1140 
Q 1353 -1331 966 -1331 
L 506 -1331 
L 506 -850 
L 844 -850 
Q 1081 -850 1212 -737 
Q 1344 -625 1503 -206 
L 1606 56 
L 191 3500 
L 800 3500 
L 1894 763 
L 2988 3500 
L 3597 3500 
L 2059 -325 
z
" transform="scale(0.015625)"/>
     <path id="DejaVuSans-1d" d="M 750 794 
L 1409 794 
L 1409 0 
L 750 0 
L 750 794 
z
M 750 3309 
L 1409 3309 
L 1409 2516 
L 750 2516 
L 750 3309 
z
" transform="scale(0.015625)"/>
     <path id="DejaVuSans-47" d="M 2906 2969 
L 2906 4863 
L 3481 4863 
L 3481 0 
L 2906 0 
L 2906 525 
Q 2725 213 2448 61 
Q 2172 -91 1784 -91 
Q 1150 -91 751 415 
Q 353 922 353 1747 
Q 353 2572 751 3078 
Q 1150 3584 1784 3584 
Q 2172 3584 2448 3432 
Q 2725 3281 2906 2969 
z
M 947 1747 
Q 947 1113 1208 752 
Q 1469 391 1925 391 
Q 2381 391 2643 752 
Q 2906 1113 2906 1747 
Q 2906 2381 2643 2742 
Q 2381 3103 1925 3103 
Q 1469 3103 1208 2742 
Q 947 2381 947 1747 
z
" transform="scale(0.015625)"/>
     <path id="DejaVuSans-59" d="M 191 3500 
L 800 3500 
L 1894 563 
L 2988 3500 
L 3597 3500 
L 2284 0 
L 1503 0 
L 191 3500 
z
" transform="scale(0.015625)"/>
     <path id="DejaVuSans-4a" d="M 2906 1791 
Q 2906 2416 2648 2759 
Q 2391 3103 1925 3103 
Q 1463 3103 1205 2759 
Q 947 2416 947 1791 
Q 947 1169 1205 825 
Q 1463 481 1925 481 
Q 2391 481 2648 825 
Q 2906 1169 2906 1791 
z
M 3481 434 
Q 3481 -459 3084 -895 
Q 2688 -1331 1869 -1331 
Q 1566 -1331 1297 -1286 
Q 1028 -1241 775 -1147 
L 775 -588 
Q 1028 -725 1275 -790 
Q 1522 -856 1778 -856 
Q 2344 -856 2625 -561 
Q 2906 -266 2906 331 
L 2906 616 
Q 2728 306 2450 153 
Q 2172 0 1784 0 
Q 1141 0 747 490 
Q 353 981 353 1791 
Q 353 2603 747 3093 
Q 1141 3584 1784 3584 
Q 2172 3584 2450 3431 
Q 2728 3278 2906 2969 
L 2906 3500 
L 3481 3500 
L 3481 434 
z
" transform="scale(0.015625)"/>
     <path id="DejaVuSans-4b" d="M 3513 2113 
L 3513 0 
L 2938 0 
L 2938 2094 
Q 2938 2591 2744 2837 
Q 2550 3084 2163 3084 
Q 1697 3084 1428 2787 
Q 1159 2491 1159 1978 
L 1159 0 
L 581 0 
L 581 4863 
L 1159 4863 
L 1159 2956 
Q 1366 3272 1645 3428 
Q 1925 3584 2291 3584 
Q 2894 3584 3203 3211 
Q 3513 2838 3513 2113 
z
" transform="scale(0.015625)"/>
     <path id="DejaVuSans-48" d="M 3597 1894 
L 3597 1613 
L 953 1613 
Q 991 1019 1311 708 
Q 1631 397 2203 397 
Q 2534 397 2845 478 
Q 3156 559 3463 722 
L 3463 178 
Q 3153 47 2828 -22 
Q 2503 -91 2169 -91 
Q 1331 -91 842 396 
Q 353 884 353 1716 
Q 353 2575 817 3079 
Q 1281 3584 2069 3584 
Q 2775 3584 3186 3129 
Q 3597 2675 3597 1894 
z
M 3022 2063 
Q 3016 2534 2758 2815 
Q 2500 3097 2075 3097 
Q 1594 3097 1305 2825 
Q 1016 2553 972 2059 
L 3022 2063 
z
" transform="scale(0.015625)"/>
     <path id="DejaVuSans-46" d="M 3122 3366 
L 3122 2828 
Q 2878 2963 2633 3030 
Q 2388 3097 2138 3097 
Q 1578 3097 1268 2742 
Q 959 2388 959 1747 
Q 959 1106 1268 751 
Q 1578 397 2138 397 
Q 2388 397 2633 464 
Q 2878 531 3122 666 
L 3122 134 
Q 2881 22 2623 -34 
Q 2366 -91 2075 -91 
Q 1284 -91 818 406 
Q 353 903 353 1747 
Q 353 2603 823 3093 
Q 1294 3584 2113 3584 
Q 2378 3584 2631 3529 
Q 2884 3475 3122 3366 
z
" transform="scale(0.015625)"/>
     <path id="DejaVuSans-55" d="M 2631 2963 
Q 2534 3019 2420 3045 
Q 2306 3072 2169 3072 
Q 1681 3072 1420 2755 
Q 1159 2438 1159 1844 
L 1159 0 
L 581 0 
L 581 3500 
L 1159 3500 
L 1159 2956 
Q 1341 3275 1631 3429 
Q 1922 3584 2338 3584 
Q 2397 3584 2469 3576 
Q 2541 3569 2628 3553 
L 2631 2963 
z
" transform="scale(0.015625)"/>
     <path id="DejaVuSans-4f" d="M 603 4863 
L 1178 4863 
L 1178 0 
L 603 0 
L 603 4863 
z
" transform="scale(0.015625)"/>
     <path id="DejaVuSans-54" d="M 947 1747 
Q 947 1113 1208 752 
Q 1469 391 1925 391 
Q 2381 391 2643 752 
Q 2906 1113 2906 1747 
Q 2906 2381 2643 2742 
Q 2381 3103 1925 3103 
Q 1469 3103 1208 2742 
Q 947 2381 947 1747 
z
M 2906 525 
Q 2725 213 2448 61 
Q 2172 -91 1784 -91 
Q 1150 -91 751 415 
Q 353 922 353 1747 
Q 353 2572 751 3078 
Q 1150 3584 1784 3584 
Q 2172 3584 2448 3432 
Q 2725 3281 2906 2969 
L 2906 3500 
L 3481 3500 
L 3481 -1331 
L 2906 -1331 
L 2906 525 
z
" transform="scale(0.015625)"/>
     <path id="DejaVuSans-44" d="M 2194 1759 
Q 1497 1759 1228 1600 
Q 959 1441 959 1056 
Q 959 750 1161 570 
Q 1363 391 1709 391 
Q 2188 391 2477 730 
Q 2766 1069 2766 1631 
L 2766 1759 
L 2194 1759 
z
M 3341 1997 
L 3341 0 
L 2766 0 
L 2766 531 
Q 2569 213 2275 61 
Q 1981 -91 1556 -91 
Q 1019 -91 701 211 
Q 384 513 384 1019 
Q 384 1609 779 1909 
Q 1175 2209 1959 2209 
L 2766 2209 
L 2766 2266 
Q 2766 2663 2505 2880 
Q 2244 3097 1772 3097 
Q 1472 3097 1187 3025 
Q 903 2953 641 2809 
L 641 3341 
Q 956 3463 1253 3523 
Q 1550 3584 1831 3584 
Q 2591 3584 2966 3190 
Q 3341 2797 3341 1997 
z
" transform="scale(0.015625)"/>
    </defs>
    <use xlink:href="#DejaVuSans-35"/>
    <use xlink:href="#DejaVuSans-52" transform="translate(65 0)"/>
    <use xlink:href="#DejaVuSans-52" transform="translate(126.1875 0)"/>
    <use xlink:href="#DejaVuSans-57" transform="translate(187.375 0)"/>
    <use xlink:href="#DejaVuSans-56" transform="translate(226.578125 0)"/>
    <use xlink:href="#DejaVuSans-3" transform="translate(278.671875 0)"/>
    <use xlink:href="#DejaVuSans-52" transform="translate(310.453125 0)"/>
    <use xlink:href="#DejaVuSans-49" transform="translate(371.640625 0)"/>
    <use xlink:href="#DejaVuSans-3" transform="translate(406.84375 0)"/>
    <use xlink:href="#DejaVuSans-58" transform="translate(438.625 0)"/>
    <use xlink:href="#DejaVuSans-51" transform="translate(502 0)"/>
    <use xlink:href="#DejaVuSans-4c" transform="translate(565.375 0)"/>
    <use xlink:href="#DejaVuSans-57" transform="translate(593.15625 0)"/>
    <use xlink:href="#DejaVuSans-5c" transform="translate(632.359375 0)"/>
    <use xlink:href="#DejaVuSans-1d" transform="translate(684.265625 0)"/>
    <use xlink:href="#DejaVuSans-3" transform="translate(717.953125 0)"/>
    <use xlink:href="#DejaVuSans-47" transform="translate(749.734375 0)"/>
    <use xlink:href="#DejaVuSans-4c" transform="translate(813.21875 0)"/>
    <use xlink:href="#DejaVuSans-59" transform="translate(841 0)"/>
    <use xlink:href="#DejaVuSans-4c" transform="translate(900.1875 0)"/>
    <use xlink:href="#DejaVuSans-47" transform="translate(927.96875 0)"/>
    <use xlink:href="#DejaVuSans-4c" transform="translate(991.453125 0)"/>
    <use xlink:href="#DejaVuSans-51" transform="translate(1019.234375 0)"/>
    <use xlink:href="#DejaVuSans-4a" transform="translate(1082.609375 0)"/>
    <use xlink:href="#DejaVuSans-3" transform="translate(1146.09375 0)"/>
    <use xlink:href="#DejaVuSans-57" transform="translate(1177.875 0)"/>
    <use xlink:href="#DejaVuSans-4b" transform="translate(1217.078125 0)"/>
    <use xlink:href="#DejaVuSans-48" transform="translate(1280.453125 0)"/>
    <use xlink:href="#DejaVuSans-3" transform="translate(1341.984375 0)"/>
    <use xlink:href="#DejaVuSans-46" transform="translate(1373.765625 0)"/>
    <use xlink:href="#DejaVuSans-4c" transform="translate(1428.75 0)"/>
    <use xlink:href="#DejaVuSans-55" transform="translate(1456.53125 0)"/>
    <use xlink:href="#DejaVuSans-46" transform="translate(1495.4375 0)"/>
    <use xlink:href="#DejaVuSans-4f" transform="translate(1550.421875 0)"/>
    <use xlink:href="#DejaVuSans-48" transform="translate(1578.203125 0)"/>
    <use xlink:href="#DejaVuSans-3" transform="translate(1639.734375 0)"/>
    <use xlink:href="#DejaVuSans-4c" transform="translate(1671.515625 0)"/>
    <use xlink:href="#DejaVuSans-51" transform="translate(1699.296875 0)"/>
    <use xlink:href="#DejaVuSans-57" transform="translate(1762.671875 0)"/>
    <use xlink:href="#DejaVuSans-52" transform="translate(1801.875 0)"/>
    <use xlink:href="#DejaVuSans-3" transform="translate(1863.0625 0)"/>
    <use xlink:href="#DejaVuSans-51" transform="translate(1894.84375 0)"/>
    <use xlink:href="#DejaVuSans-3" transform="translate(1958.21875 0)"/>
    <use xlink:href="#DejaVuSans-48" transform="translate(1990 0)"/>
    <use xlink:href="#DejaVuSans-54" transform="translate(2051.53125 0)"/>
    <use xlink:href="#DejaVuSans-58" transform="translate(2115.015625 0)"/>
    <use xlink:href="#DejaVuSans-44" transform="translate(2178.390625 0)"/>
    <use xlink:href="#DejaVuSans-4f" transform="translate(2239.671875 0)"/>
    <use xlink:href="#DejaVuSans-3" transform="translate(2267.453125 0)"/>
    <use xlink:href="#DejaVuSans-53" transform="translate(2299.234375 0)"/>
    <use xlink:href="#DejaVuSans-44" transform="translate(2362.71875 0)"/>
    <use xlink:href="#DejaVuSans-55" transform="translate(2424 0)"/>
    <use xlink:href="#DejaVuSans-57" transform="translate(2465.109375 0)"/>
    <use xlink:href="#DejaVuSans-56" transform="translate(2504.3125 0)"/>
   </g>
  </g>
 </g>
 <defs>
  <clipPath id="p85f51ac023">
   <rect x="38.482813" y="55.393412" width="196.941176" height="196.941176"/>
  </clipPath>
  <clipPath id="p41336835ac">
   <rect x="274.812224" y="55.393412" width="196.941176" height="196.941176"/>
  </clipPath>
  <clipPath id="p81e7bb483b">
   <rect x="511.141636" y="55.393412" width="196.941176" height="196.941176"/>
  </clipPath>
 </defs>
</svg>
