<?xml version="1.0" encoding="utf-8" standalone="no"?>
<!DOCTYPE svg PUBLIC "-//W3C//DTD SVG 1.1//EN"
  "http://www.w3.org/Graphics/SVG/1.1/DTD/svg11.dtd">
<svg xmlns:xlink="http://www.w3.org/1999/xlink" width="561.882812pt" height="293.366125pt" viewBox="0 0 561.882812 293.366125" xmlns="http://www.w3.org/2000/svg" version="1.1">
 <metadata>
  <rdf:RDF xmlns:dc="http://purl.org/dc/elements/1.1/" xmlns:cc="http://creativecommons.org/ns#" xmlns:rdf="http://www.w3.org/1999/02/22-rdf-syntax-ns#">
   <cc:Work>
    <dc:type rdf:resource="http://purl.org/dc/dcmitype/StillImage"/>
    <dc:date>2026-06-13T14:54:53.918206</dc:date>
    <dc:format>image/svg+xml</dc:format>
    <dc:creator>
     <cc:Agent>
      <dc:title>Matplotlib v3.11.0, https://matplotlib.org/</dc:title>
     </cc:Agent>
    </dc:creator>
   </cc:Work>
  </rdf:RDF>
 </metadata>
 <defs>
  <style type="text/css">*{stroke-linejoin: round; stroke-linecap: butt}</style>
 </defs>
 <g id="figure_1">
  <g id="patch_1">
   <path d="M 0 293.366125 
L 561.882812 293.366125 
L 561.882812 0 
L 0 0 
z
" style="fill: #ffffff"/>
  </g>
  <g id="axes_1">
   <g id="patch_2">
    <path d="M 52.482813 226.539328 
L 228.077218 226.539328 
L 228.077218 50.944922 
L 52.482813 50.944922 
z
" style="fill: #ffffff"/>
   </g>
   <g id="matplotlib.axis_1">
    <g id="xtick_1">
     <g id="line2d_1">
      <defs>
       <path id="mf3b0de58d7" d="M 0 0 
L 0 3.5 
" style="stroke: #000000; stroke-width: 0.8"/>
      </defs>
      <g>
       <use xlink:href="#mf3b0de58d7" x="72.743705" y="226.539328" style="stroke: #000000; stroke-width: 0.8"/>
      </g>
     </g>
     <g id="text_1">
      <!-- −1 -->
      <g transform="translate(65.372612 241.136984) scale(0.1 -0.1)">
       <defs>
        <path id="DejaVuSans-c9c" d="M 678 2272 
L 4684 2272 
L 4684 1741 
L 678 1741 
L 678 2272 
z
" transform="scale(0.015625)"/>
        <path id="DejaVuSans-14" d="M 794 531 
L 1825 531 
L 1825 4091 
L 703 3866 
L 703 4441 
L 1819 4666 
L 2450 4666 
L 2450 531 
L 3481 531 
L 3481 0 
L 794 0 
L 794 531 
z
" transform="scale(0.015625)"/>
       </defs>
       <use xlink:href="#DejaVuSans-c9c"/>
       <use xlink:href="#DejaVuSans-14" transform="translate(83.796875 0)"/>
      </g>
     </g>
    </g>
    <g id="xtick_2">
     <g id="line2d_2">
      <g>
       <use xlink:href="#mf3b0de58d7" x="140.280015" y="226.539328" style="stroke: #000000; stroke-width: 0.8"/>
      </g>
     </g>
     <g id="text_2">
      <!-- 0 -->
      <g transform="translate(137.098765 241.136984) scale(0.1 -0.1)">
       <defs>
        <path id="DejaVuSans-13" d="M 2034 4250 
Q 1547 4250 1301 3770 
Q 1056 3291 1056 2328 
Q 1056 1369 1301 889 
Q 1547 409 2034 409 
Q 2525 409 2770 889 
Q 3016 1369 3016 2328 
Q 3016 3291 2770 3770 
Q 2525 4250 2034 4250 
z
M 2034 4750 
Q 2819 4750 3233 4129 
Q 3647 3509 3647 2328 
Q 3647 1150 3233 529 
Q 2819 -91 2034 -91 
Q 1250 -91 836 529 
Q 422 1150 422 2328 
Q 422 3509 836 4129 
Q 1250 4750 2034 4750 
z
" transform="scale(0.015625)"/>
       </defs>
       <use xlink:href="#DejaVuSans-13"/>
      </g>
     </g>
    </g>
    <g id="xtick_3">
     <g id="line2d_3">
      <g>
       <use xlink:href="#mf3b0de58d7" x="207.816325" y="226.539328" style="stroke: #000000; stroke-width: 0.8"/>
      </g>
     </g>
     <g id="text_3">
      <!-- 1 -->
      <g transform="translate(204.635075 241.136984) scale(0.1 -0.1)">
       <use xlink:href="#DejaVuSans-14"/>
      </g>
     </g>
    </g>
    <g id="text_4">
     <!-- Re -->
     <g transform="translate(133.953453 255.136984) scale(0.1 -0.1)">
      <defs>
       <path id="DejaVuSans-35" d="M 2841 2188 
Q 3044 2119 3236 1894 
Q 3428 1669 3622 1275 
L 4263 0 
L 3584 0 
L 2988 1197 
Q 2756 1666 2539 1819 
Q 2322 1972 1947 1972 
L 1259 1972 
L 1259 0 
L 628 0 
L 628 4666 
L 2053 4666 
Q 2853 4666 3247 4331 
Q 3641 3997 3641 3322 
Q 3641 2881 3436 2590 
Q 3231 2300 2841 2188 
z
M 1259 4147 
L 1259 2491 
L 2053 2491 
Q 2509 2491 2742 2702 
Q 2975 2913 2975 3322 
Q 2975 3731 2742 3939 
Q 2509 4147 2053 4147 
L 1259 4147 
z
" transform="scale(0.015625)"/>
       <path id="DejaVuSans-48" d="M 3597 1894 
L 3597 1613 
L 953 1613 
Q 991 1019 1311 708 
Q 1631 397 2203 397 
Q 2534 397 2845 478 
Q 3156 559 3463 722 
L 3463 178 
Q 3153 47 2828 -22 
Q 2503 -91 2169 -91 
Q 1331 -91 842 396 
Q 353 884 353 1716 
Q 353 2575 817 3079 
Q 1281 3584 2069 3584 
Q 2775 3584 3186 3129 
Q 3597 2675 3597 1894 
z
M 3022 2063 
Q 3016 2534 2758 2815 
Q 2500 3097 2075 3097 
Q 1594 3097 1305 2825 
Q 1016 2553 972 2059 
L 3022 2063 
z
" transform="scale(0.015625)"/>
      </defs>
      <use xlink:href="#DejaVuSans-35"/>
      <use xlink:href="#DejaVuSans-48" transform="translate(65 0)"/>
     </g>
    </g>
   </g>
   <g id="matplotlib.axis_2">
    <g id="ytick_1">
     <g id="line2d_4">
      <defs>
       <path id="m3f37c10d5e" d="M 0 0 
L -3.5 0 
" style="stroke: #000000; stroke-width: 0.8"/>
      </defs>
      <g>
       <use xlink:href="#m3f37c10d5e" x="52.482813" y="206.278435" style="stroke: #000000; stroke-width: 0.8"/>
      </g>
     </g>
     <g id="text_5">
      <!-- −1.0 -->
      <g transform="translate(21.2 210.077263) scale(0.1 -0.1)">
       <defs>
        <path id="DejaVuSans-11" d="M 684 794 
L 1344 794 
L 1344 0 
L 684 0 
L 684 794 
z
" transform="scale(0.015625)"/>
       </defs>
       <use xlink:href="#DejaVuSans-c9c"/>
       <use xlink:href="#DejaVuSans-14" transform="translate(83.796875 0)"/>
       <use xlink:href="#DejaVuSans-11" transform="translate(147.421875 0)"/>
       <use xlink:href="#DejaVuSans-13" transform="translate(179.203125 0)"/>
      </g>
     </g>
    </g>
    <g id="ytick_2">
     <g id="line2d_5">
      <g>
       <use xlink:href="#m3f37c10d5e" x="52.482813" y="172.51028" style="stroke: #000000; stroke-width: 0.8"/>
      </g>
     </g>
     <g id="text_6">
      <!-- −0.5 -->
      <g transform="translate(21.2 176.309108) scale(0.1 -0.1)">
       <defs>
        <path id="DejaVuSans-18" d="M 691 4666 
L 3169 4666 
L 3169 4134 
L 1269 4134 
L 1269 2991 
Q 1406 3038 1543 3061 
Q 1681 3084 1819 3084 
Q 2600 3084 3056 2656 
Q 3513 2228 3513 1497 
Q 3513 744 3044 326 
Q 2575 -91 1722 -91 
Q 1428 -91 1123 -41 
Q 819 9 494 109 
L 494 744 
Q 775 591 1075 516 
Q 1375 441 1709 441 
Q 2250 441 2565 725 
Q 2881 1009 2881 1497 
Q 2881 1984 2565 2268 
Q 2250 2553 1709 2553 
Q 1456 2553 1204 2497 
Q 953 2441 691 2322 
L 691 4666 
z
" transform="scale(0.015625)"/>
       </defs>
       <use xlink:href="#DejaVuSans-c9c"/>
       <use xlink:href="#DejaVuSans-13" transform="translate(83.796875 0)"/>
       <use xlink:href="#DejaVuSans-11" transform="translate(147.421875 0)"/>
       <use xlink:href="#DejaVuSans-18" transform="translate(179.203125 0)"/>
      </g>
     </g>
    </g>
    <g id="ytick_3">
     <g id="line2d_6">
      <g>
       <use xlink:href="#m3f37c10d5e" x="52.482813" y="138.742125" style="stroke: #000000; stroke-width: 0.8"/>
      </g>
     </g>
     <g id="text_7">
      <!-- 0.0 -->
      <g transform="translate(29.579688 142.540953) scale(0.1 -0.1)">
       <use xlink:href="#DejaVuSans-13"/>
       <use xlink:href="#DejaVuSans-11" transform="translate(63.625 0)"/>
       <use xlink:href="#DejaVuSans-13" transform="translate(95.40625 0)"/>
      </g>
     </g>
    </g>
    <g id="ytick_4">
     <g id="line2d_7">
      <g>
       <use xlink:href="#m3f37c10d5e" x="52.482813" y="104.97397" style="stroke: #000000; stroke-width: 0.8"/>
      </g>
     </g>
     <g id="text_8">
      <!-- 0.5 -->
      <g transform="translate(29.579688 108.772798) scale(0.1 -0.1)">
       <use xlink:href="#DejaVuSans-13"/>
       <use xlink:href="#DejaVuSans-11" transform="translate(63.625 0)"/>
       <use xlink:href="#DejaVuSans-18" transform="translate(95.40625 0)"/>
      </g>
     </g>
    </g>
    <g id="ytick_5">
     <g id="line2d_8">
      <g>
       <use xlink:href="#m3f37c10d5e" x="52.482813" y="71.205815" style="stroke: #000000; stroke-width: 0.8"/>
      </g>
     </g>
     <g id="text_9">
      <!-- 1.0 -->
      <g transform="translate(29.579688 75.004643) scale(0.1 -0.1)">
       <use xlink:href="#DejaVuSans-14"/>
       <use xlink:href="#DejaVuSans-11" transform="translate(63.625 0)"/>
       <use xlink:href="#DejaVuSans-13" transform="translate(95.40625 0)"/>
      </g>
     </g>
    </g>
    <g id="text_10">
     <!-- Im -->
     <g transform="translate(14.797656 145.087437) rotate(-90) scale(0.1 -0.1)">
      <defs>
       <path id="DejaVuSans-2c" d="M 628 4666 
L 1259 4666 
L 1259 0 
L 628 0 
L 628 4666 
z
" transform="scale(0.015625)"/>
       <path id="DejaVuSans-50" d="M 3328 2828 
Q 3544 3216 3844 3400 
Q 4144 3584 4550 3584 
Q 5097 3584 5394 3201 
Q 5691 2819 5691 2113 
L 5691 0 
L 5113 0 
L 5113 2094 
Q 5113 2597 4934 2840 
Q 4756 3084 4391 3084 
Q 3944 3084 3684 2787 
Q 3425 2491 3425 1978 
L 3425 0 
L 2847 0 
L 2847 2094 
Q 2847 2600 2669 2842 
Q 2491 3084 2119 3084 
Q 1678 3084 1418 2786 
Q 1159 2488 1159 1978 
L 1159 0 
L 581 0 
L 581 3500 
L 1159 3500 
L 1159 2956 
Q 1356 3278 1631 3431 
Q 1906 3584 2284 3584 
Q 2666 3584 2933 3390 
Q 3200 3197 3328 2828 
z
" transform="scale(0.015625)"/>
      </defs>
      <use xlink:href="#DejaVuSans-2c"/>
      <use xlink:href="#DejaVuSans-50" transform="translate(29.5 0)"/>
     </g>
    </g>
   </g>
   <g id="line2d_9">
    <path d="M 207.816325 138.742125 
L 207.681715 134.480204 
L 207.278423 130.235271 
L 206.608055 126.02425 
L 205.673284 121.863926 
L 204.477836 117.770883 
L 203.026477 113.761438 
L 201.324992 109.851573 
L 199.380164 106.056874 
L 197.199745 102.392469 
L 194.792428 98.872963 
L 192.167808 95.512388 
L 189.336348 92.324139 
L 186.309335 89.320926 
L 183.098836 86.514721 
L 179.717649 83.916709 
L 176.179251 81.537247 
L 172.497749 79.385821 
L 168.687817 77.471007 
L 164.764643 75.800437 
L 160.743867 74.380771 
L 156.641516 73.217668 
L 152.473943 72.315765 
L 148.257761 71.678657 
L 144.009778 71.308884 
L 139.746926 71.207919 
L 135.4862 71.376166 
L 131.244584 71.812953 
L 127.038985 72.516539 
L 122.886169 73.48412 
L 118.80269 74.711838 
L 114.804825 76.1948 
L 110.908513 77.927094 
L 107.129284 79.901815 
L 103.482203 82.11109 
L 99.981809 84.546113 
L 96.642056 87.197177 
L 93.476256 90.053715 
L 90.49703 93.104339 
L 87.716254 96.336888 
L 85.145012 99.738478 
L 82.793554 103.295547 
L 80.671254 106.993916 
L 78.786572 110.818844 
L 77.147022 114.755081 
L 75.759137 118.786939 
L 74.628452 122.898343 
L 73.759474 127.072905 
L 73.155665 131.293984 
L 72.819434 135.544754 
L 72.752121 139.80827 
L 72.953994 144.067535 
L 73.424248 148.305572 
L 74.161009 152.505486 
L 75.161339 156.650535 
L 76.421252 160.724196 
L 77.935724 164.71023 
L 79.698719 168.592748 
L 81.703209 172.356272 
L 83.941203 175.985801 
L 86.40378 179.466865 
L 89.081124 182.785588 
L 91.962561 185.928742 
L 95.036606 188.883795 
L 98.291005 191.638969 
L 101.712784 194.183281 
L 105.288303 196.506588 
L 109.00331 198.599629 
L 112.842994 200.454061 
L 116.792051 202.06249 
L 120.834737 203.418506 
L 124.954939 204.516703 
L 129.13623 205.352704 
L 133.361944 205.923175 
L 137.615235 206.225842 
L 141.879149 206.2595 
L 146.136688 206.024014 
L 150.370881 205.520322 
L 154.564849 204.750433 
L 158.701873 203.717415 
L 162.765462 202.425387 
L 166.739418 200.879498 
L 170.607899 199.085912 
L 174.355483 197.051778 
L 177.967234 194.785204 
L 181.428751 192.295226 
L 184.726238 189.59177 
L 187.846549 186.685613 
L 190.777246 183.588338 
L 193.506646 180.312293 
L 196.02387 176.870538 
L 198.318881 173.276791 
L 200.382533 169.545379 
L 202.206599 165.691176 
L 203.783807 161.729547 
L 205.107871 157.676283 
L 206.173511 153.547541 
L 206.976481 149.359781 
L 207.513579 145.129696 
L 207.782664 140.874148 
L 207.816325 138.742125 
L 207.816325 138.742125 
" clip-path="url(#p785b61a6bd)" style="fill: none; stroke: #b2b2b2; stroke-linecap: square"/>
   </g>
   <g id="line2d_10">
    <path d="M 150.185334 138.742125 
L 150.185334 71.936154 
" clip-path="url(#p785b61a6bd)" style="fill: none; stroke-dasharray: 3.7,1.6; stroke-dashoffset: 0; stroke: #808080"/>
   </g>
   <g id="line2d_11">
    <path d="M 52.482813 138.742125 
L 228.077218 138.742125 
" clip-path="url(#p785b61a6bd)" style="fill: none; stroke: #d9d9d9; stroke-width: 1.5; stroke-linecap: square"/>
   </g>
   <g id="line2d_12">
    <path d="M 140.280015 226.539328 
L 140.280015 50.944922 
" clip-path="url(#p785b61a6bd)" style="fill: none; stroke: #d9d9d9; stroke-width: 1.5; stroke-linecap: square"/>
   </g>
   <g id="patch_3">
    <path d="M 52.482813 226.539328 
L 52.482813 50.944922 
" style="fill: none; stroke: #000000; stroke-width: 0.8; stroke-linejoin: miter; stroke-linecap: square"/>
   </g>
   <g id="patch_4">
    <path d="M 228.077218 226.539328 
L 228.077218 50.944922 
" style="fill: none; stroke: #000000; stroke-width: 0.8; stroke-linejoin: miter; stroke-linecap: square"/>
   </g>
   <g id="patch_5">
    <path d="M 52.482813 226.539328 
L 228.077218 226.539328 
" style="fill: none; stroke: #000000; stroke-width: 0.8; stroke-linejoin: miter; stroke-linecap: square"/>
   </g>
   <g id="patch_6">
    <path d="M 52.482813 50.944922 
L 228.077218 50.944922 
" style="fill: none; stroke: #000000; stroke-width: 0.8; stroke-linejoin: miter; stroke-linecap: square"/>
   </g>
   <g id="patch_7">
    <path d="M 140.573233 136.764531 
Q 145.232908 105.337567 149.564626 76.122489 
" style="fill: none; stroke: #1f77b4; stroke-width: 2; stroke-linecap: round"/>
    <path d="M 146.999588 79.7859 
L 149.564626 76.122489 
L 150.956332 80.372566 
" style="fill: none; stroke: #1f77b4; stroke-width: 2; stroke-linecap: round"/>
   </g>
   <g id="text_11">
    <!-- wt+phi -->
    <g transform="translate(155.621315 125.507764) scale(0.09 -0.09)">
     <defs>
      <path id="DejaVuSans-5a" d="M 269 3500 
L 844 3500 
L 1563 769 
L 2278 3500 
L 2956 3500 
L 3675 769 
L 4391 3500 
L 4966 3500 
L 4050 0 
L 3372 0 
L 2619 2869 
L 1863 0 
L 1184 0 
L 269 3500 
z
" transform="scale(0.015625)"/>
      <path id="DejaVuSans-57" d="M 1172 4494 
L 1172 3500 
L 2356 3500 
L 2356 3053 
L 1172 3053 
L 1172 1153 
Q 1172 725 1289 603 
Q 1406 481 1766 481 
L 2356 481 
L 2356 0 
L 1766 0 
Q 1100 0 847 248 
Q 594 497 594 1153 
L 594 3053 
L 172 3053 
L 172 3500 
L 594 3500 
L 594 4494 
L 1172 4494 
z
" transform="scale(0.015625)"/>
      <path id="DejaVuSans-e" d="M 2944 4013 
L 2944 2272 
L 4684 2272 
L 4684 1741 
L 2944 1741 
L 2944 0 
L 2419 0 
L 2419 1741 
L 678 1741 
L 678 2272 
L 2419 2272 
L 2419 4013 
L 2944 4013 
z
" transform="scale(0.015625)"/>
      <path id="DejaVuSans-53" d="M 1159 525 
L 1159 -1331 
L 581 -1331 
L 581 3500 
L 1159 3500 
L 1159 2969 
Q 1341 3281 1617 3432 
Q 1894 3584 2278 3584 
Q 2916 3584 3314 3078 
Q 3713 2572 3713 1747 
Q 3713 922 3314 415 
Q 2916 -91 2278 -91 
Q 1894 -91 1617 61 
Q 1341 213 1159 525 
z
M 3116 1747 
Q 3116 2381 2855 2742 
Q 2594 3103 2138 3103 
Q 1681 3103 1420 2742 
Q 1159 2381 1159 1747 
Q 1159 1113 1420 752 
Q 1681 391 2138 391 
Q 2594 391 2855 752 
Q 3116 1113 3116 1747 
z
" transform="scale(0.015625)"/>
      <path id="DejaVuSans-4b" d="M 3513 2113 
L 3513 0 
L 2938 0 
L 2938 2094 
Q 2938 2591 2744 2837 
Q 2550 3084 2163 3084 
Q 1697 3084 1428 2787 
Q 1159 2491 1159 1978 
L 1159 0 
L 581 0 
L 581 4863 
L 1159 4863 
L 1159 2956 
Q 1366 3272 1645 3428 
Q 1925 3584 2291 3584 
Q 2894 3584 3203 3211 
Q 3513 2838 3513 2113 
z
" transform="scale(0.015625)"/>
      <path id="DejaVuSans-4c" d="M 603 3500 
L 1178 3500 
L 1178 0 
L 603 0 
L 603 3500 
z
M 603 4863 
L 1178 4863 
L 1178 4134 
L 603 4134 
L 603 4863 
z
" transform="scale(0.015625)"/>
     </defs>
     <use xlink:href="#DejaVuSans-5a"/>
     <use xlink:href="#DejaVuSans-57" transform="translate(81.78125 0)"/>
     <use xlink:href="#DejaVuSans-e" transform="translate(120.984375 0)"/>
     <use xlink:href="#DejaVuSans-53" transform="translate(204.78125 0)"/>
     <use xlink:href="#DejaVuSans-4b" transform="translate(268.265625 0)"/>
     <use xlink:href="#DejaVuSans-4c" transform="translate(331.640625 0)"/>
    </g>
   </g>
   <g id="text_12">
    <!-- A -->
    <g style="fill: #1f77b4" transform="translate(145.727941 97.946662) scale(0.1 -0.1)">
     <defs>
      <path id="DejaVuSans-24" d="M 2188 4044 
L 1331 1722 
L 3047 1722 
L 2188 4044 
z
M 1831 4666 
L 2547 4666 
L 4325 0 
L 3669 0 
L 3244 1197 
L 1141 1197 
L 716 0 
L 50 0 
L 1831 4666 
z
" transform="scale(0.015625)"/>
     </defs>
     <use xlink:href="#DejaVuSans-24"/>
    </g>
   </g>
   <g id="text_13">
    <!-- phasor: A*e^{i(wt+phi)} -->
    <g transform="translate(64.53189 44.944922) scale(0.12 -0.12)">
     <defs>
      <path id="DejaVuSans-44" d="M 2194 1759 
Q 1497 1759 1228 1600 
Q 959 1441 959 1056 
Q 959 750 1161 570 
Q 1363 391 1709 391 
Q 2188 391 2477 730 
Q 2766 1069 2766 1631 
L 2766 1759 
L 2194 1759 
z
M 3341 1997 
L 3341 0 
L 2766 0 
L 2766 531 
Q 2569 213 2275 61 
Q 1981 -91 1556 -91 
Q 1019 -91 701 211 
Q 384 513 384 1019 
Q 384 1609 779 1909 
Q 1175 2209 1959 2209 
L 2766 2209 
L 2766 2266 
Q 2766 2663 2505 2880 
Q 2244 3097 1772 3097 
Q 1472 3097 1187 3025 
Q 903 2953 641 2809 
L 641 3341 
Q 956 3463 1253 3523 
Q 1550 3584 1831 3584 
Q 2591 3584 2966 3190 
Q 3341 2797 3341 1997 
z
" transform="scale(0.015625)"/>
      <path id="DejaVuSans-56" d="M 2834 3397 
L 2834 2853 
Q 2591 2978 2328 3040 
Q 2066 3103 1784 3103 
Q 1356 3103 1142 2972 
Q 928 2841 928 2578 
Q 928 2378 1081 2264 
Q 1234 2150 1697 2047 
L 1894 2003 
Q 2506 1872 2764 1633 
Q 3022 1394 3022 966 
Q 3022 478 2636 193 
Q 2250 -91 1575 -91 
Q 1294 -91 989 -36 
Q 684 19 347 128 
L 347 722 
Q 666 556 975 473 
Q 1284 391 1588 391 
Q 1994 391 2212 530 
Q 2431 669 2431 922 
Q 2431 1156 2273 1281 
Q 2116 1406 1581 1522 
L 1381 1569 
Q 847 1681 609 1914 
Q 372 2147 372 2553 
Q 372 3047 722 3315 
Q 1072 3584 1716 3584 
Q 2034 3584 2315 3537 
Q 2597 3491 2834 3397 
z
" transform="scale(0.015625)"/>
      <path id="DejaVuSans-52" d="M 1959 3097 
Q 1497 3097 1228 2736 
Q 959 2375 959 1747 
Q 959 1119 1226 758 
Q 1494 397 1959 397 
Q 2419 397 2687 759 
Q 2956 1122 2956 1747 
Q 2956 2369 2687 2733 
Q 2419 3097 1959 3097 
z
M 1959 3584 
Q 2709 3584 3137 3096 
Q 3566 2609 3566 1747 
Q 3566 888 3137 398 
Q 2709 -91 1959 -91 
Q 1206 -91 779 398 
Q 353 888 353 1747 
Q 353 2609 779 3096 
Q 1206 3584 1959 3584 
z
" transform="scale(0.015625)"/>
      <path id="DejaVuSans-55" d="M 2631 2963 
Q 2534 3019 2420 3045 
Q 2306 3072 2169 3072 
Q 1681 3072 1420 2755 
Q 1159 2438 1159 1844 
L 1159 0 
L 581 0 
L 581 3500 
L 1159 3500 
L 1159 2956 
Q 1341 3275 1631 3429 
Q 1922 3584 2338 3584 
Q 2397 3584 2469 3576 
Q 2541 3569 2628 3553 
L 2631 2963 
z
" transform="scale(0.015625)"/>
      <path id="DejaVuSans-1d" d="M 750 794 
L 1409 794 
L 1409 0 
L 750 0 
L 750 794 
z
M 750 3309 
L 1409 3309 
L 1409 2516 
L 750 2516 
L 750 3309 
z
" transform="scale(0.015625)"/>
      <path id="DejaVuSans-3" transform="scale(0.015625)"/>
      <path id="DejaVuSans-d" d="M 3009 3897 
L 1888 3291 
L 3009 2681 
L 2828 2375 
L 1778 3009 
L 1778 1831 
L 1422 1831 
L 1422 3009 
L 372 2375 
L 191 2681 
L 1313 3291 
L 191 3897 
L 372 4206 
L 1422 3572 
L 1422 4750 
L 1778 4750 
L 1778 3572 
L 2828 4206 
L 3009 3897 
z
" transform="scale(0.015625)"/>
      <path id="DejaVuSans-41" d="M 2988 4666 
L 4684 2925 
L 4056 2925 
L 2681 4159 
L 1306 2925 
L 678 2925 
L 2375 4666 
L 2988 4666 
z
" transform="scale(0.015625)"/>
      <path id="DejaVuSans-5e" d="M 3272 -594 
L 3272 -1044 
L 3078 -1044 
Q 2300 -1044 2036 -812 
Q 1772 -581 1772 109 
L 1772 856 
Q 1772 1328 1603 1509 
Q 1434 1691 991 1691 
L 800 1691 
L 800 2138 
L 991 2138 
Q 1438 2138 1605 2317 
Q 1772 2497 1772 2963 
L 1772 3713 
Q 1772 4403 2036 4633 
Q 2300 4863 3078 4863 
L 3272 4863 
L 3272 4416 
L 3059 4416 
Q 2619 4416 2484 4278 
Q 2350 4141 2350 3700 
L 2350 2925 
Q 2350 2434 2208 2212 
Q 2066 1991 1722 1913 
Q 2069 1828 2209 1606 
Q 2350 1384 2350 897 
L 2350 122 
Q 2350 -319 2484 -456 
Q 2619 -594 3059 -594 
L 3272 -594 
z
" transform="scale(0.015625)"/>
      <path id="DejaVuSans-b" d="M 1984 4856 
Q 1566 4138 1362 3434 
Q 1159 2731 1159 2009 
Q 1159 1288 1364 580 
Q 1569 -128 1984 -844 
L 1484 -844 
Q 1016 -109 783 600 
Q 550 1309 550 2009 
Q 550 2706 781 3412 
Q 1013 4119 1484 4856 
L 1984 4856 
z
" transform="scale(0.015625)"/>
      <path id="DejaVuSans-c" d="M 513 4856 
L 1013 4856 
Q 1481 4119 1714 3412 
Q 1947 2706 1947 2009 
Q 1947 1309 1714 600 
Q 1481 -109 1013 -844 
L 513 -844 
Q 928 -128 1133 580 
Q 1338 1288 1338 2009 
Q 1338 2731 1133 3434 
Q 928 4138 513 4856 
z
" transform="scale(0.015625)"/>
      <path id="DejaVuSans-60" d="M 800 -594 
L 1019 -594 
Q 1456 -594 1589 -459 
Q 1722 -325 1722 122 
L 1722 897 
Q 1722 1384 1862 1606 
Q 2003 1828 2350 1913 
Q 2003 1991 1862 2212 
Q 1722 2434 1722 2925 
L 1722 3700 
Q 1722 4144 1589 4280 
Q 1456 4416 1019 4416 
L 800 4416 
L 800 4863 
L 997 4863 
Q 1775 4863 2036 4633 
Q 2297 4403 2297 3713 
L 2297 2963 
Q 2297 2497 2465 2317 
Q 2634 2138 3078 2138 
L 3272 2138 
L 3272 1691 
L 3078 1691 
Q 2634 1691 2465 1509 
Q 2297 1328 2297 856 
L 2297 109 
Q 2297 -581 2036 -812 
Q 1775 -1044 997 -1044 
L 800 -1044 
L 800 -594 
z
" transform="scale(0.015625)"/>
     </defs>
     <use xlink:href="#DejaVuSans-53"/>
     <use xlink:href="#DejaVuSans-4b" transform="translate(63.484375 0)"/>
     <use xlink:href="#DejaVuSans-44" transform="translate(126.859375 0)"/>
     <use xlink:href="#DejaVuSans-56" transform="translate(188.140625 0)"/>
     <use xlink:href="#DejaVuSans-52" transform="translate(240.234375 0)"/>
     <use xlink:href="#DejaVuSans-55" transform="translate(301.421875 0)"/>
     <use xlink:href="#DejaVuSans-1d" transform="translate(340.78125 0)"/>
     <use xlink:href="#DejaVuSans-3" transform="translate(374.46875 0)"/>
     <use xlink:href="#DejaVuSans-24" transform="translate(406.25 0)"/>
     <use xlink:href="#DejaVuSans-d" transform="translate(474.65625 0)"/>
     <use xlink:href="#DejaVuSans-48" transform="translate(524.65625 0)"/>
     <use xlink:href="#DejaVuSans-41" transform="translate(586.1875 0)"/>
     <use xlink:href="#DejaVuSans-5e" transform="translate(669.984375 0)"/>
     <use xlink:href="#DejaVuSans-4c" transform="translate(733.609375 0)"/>
     <use xlink:href="#DejaVuSans-b" transform="translate(761.390625 0)"/>
     <use xlink:href="#DejaVuSans-5a" transform="translate(800.40625 0)"/>
     <use xlink:href="#DejaVuSans-57" transform="translate(882.1875 0)"/>
     <use xlink:href="#DejaVuSans-e" transform="translate(921.390625 0)"/>
     <use xlink:href="#DejaVuSans-53" transform="translate(1005.1875 0)"/>
     <use xlink:href="#DejaVuSans-4b" transform="translate(1068.671875 0)"/>
     <use xlink:href="#DejaVuSans-4c" transform="translate(1132.046875 0)"/>
     <use xlink:href="#DejaVuSans-c" transform="translate(1159.828125 0)"/>
     <use xlink:href="#DejaVuSans-60" transform="translate(1198.84375 0)"/>
    </g>
   </g>
  </g>
  <g id="axes_2">
   <g id="patch_8">
    <path d="M 273.731764 255.166125 
L 554.682812 255.166125 
L 554.682812 22.318125 
L 273.731764 22.318125 
z
" style="fill: #ffffff"/>
   </g>
   <g id="matplotlib.axis_3">
    <g id="xtick_4">
     <g id="line2d_13">
      <g>
       <use xlink:href="#mf3b0de58d7" x="286.502266" y="255.166125" style="stroke: #000000; stroke-width: 0.8"/>
      </g>
     </g>
     <g id="text_14">
      <!-- 0 -->
      <g transform="translate(283.321016 269.763781) scale(0.1 -0.1)">
       <use xlink:href="#DejaVuSans-13"/>
      </g>
     </g>
    </g>
    <g id="xtick_5">
     <g id="line2d_14">
      <g>
       <use xlink:href="#mf3b0de58d7" x="327.152037" y="255.166125" style="stroke: #000000; stroke-width: 0.8"/>
      </g>
     </g>
     <g id="text_15">
      <!-- 2 -->
      <g transform="translate(323.970787 269.763781) scale(0.1 -0.1)">
       <defs>
        <path id="DejaVuSans-15" d="M 1228 531 
L 3431 531 
L 3431 0 
L 469 0 
L 469 531 
Q 828 903 1448 1529 
Q 2069 2156 2228 2338 
Q 2531 2678 2651 2914 
Q 2772 3150 2772 3378 
Q 2772 3750 2511 3984 
Q 2250 4219 1831 4219 
Q 1534 4219 1204 4116 
Q 875 4013 500 3803 
L 500 4441 
Q 881 4594 1212 4672 
Q 1544 4750 1819 4750 
Q 2544 4750 2975 4387 
Q 3406 4025 3406 3419 
Q 3406 3131 3298 2873 
Q 3191 2616 2906 2266 
Q 2828 2175 2409 1742 
Q 1991 1309 1228 531 
z
" transform="scale(0.015625)"/>
       </defs>
       <use xlink:href="#DejaVuSans-15"/>
      </g>
     </g>
    </g>
    <g id="xtick_6">
     <g id="line2d_15">
      <g>
       <use xlink:href="#mf3b0de58d7" x="367.801808" y="255.166125" style="stroke: #000000; stroke-width: 0.8"/>
      </g>
     </g>
     <g id="text_16">
      <!-- 4 -->
      <g transform="translate(364.620558 269.763781) scale(0.1 -0.1)">
       <defs>
        <path id="DejaVuSans-17" d="M 2419 4116 
L 825 1625 
L 2419 1625 
L 2419 4116 
z
M 2253 4666 
L 3047 4666 
L 3047 1625 
L 3713 1625 
L 3713 1100 
L 3047 1100 
L 3047 0 
L 2419 0 
L 2419 1100 
L 313 1100 
L 313 1709 
L 2253 4666 
z
" transform="scale(0.015625)"/>
       </defs>
       <use xlink:href="#DejaVuSans-17"/>
      </g>
     </g>
    </g>
    <g id="xtick_7">
     <g id="line2d_16">
      <g>
       <use xlink:href="#mf3b0de58d7" x="408.451579" y="255.166125" style="stroke: #000000; stroke-width: 0.8"/>
      </g>
     </g>
     <g id="text_17">
      <!-- 6 -->
      <g transform="translate(405.270329 269.763781) scale(0.1 -0.1)">
       <defs>
        <path id="DejaVuSans-19" d="M 2113 2584 
Q 1688 2584 1439 2293 
Q 1191 2003 1191 1497 
Q 1191 994 1439 701 
Q 1688 409 2113 409 
Q 2538 409 2786 701 
Q 3034 994 3034 1497 
Q 3034 2003 2786 2293 
Q 2538 2584 2113 2584 
z
M 3366 4563 
L 3366 3988 
Q 3128 4100 2886 4159 
Q 2644 4219 2406 4219 
Q 1781 4219 1451 3797 
Q 1122 3375 1075 2522 
Q 1259 2794 1537 2939 
Q 1816 3084 2150 3084 
Q 2853 3084 3261 2657 
Q 3669 2231 3669 1497 
Q 3669 778 3244 343 
Q 2819 -91 2113 -91 
Q 1303 -91 875 529 
Q 447 1150 447 2328 
Q 447 3434 972 4092 
Q 1497 4750 2381 4750 
Q 2619 4750 2861 4703 
Q 3103 4656 3366 4563 
z
" transform="scale(0.015625)"/>
       </defs>
       <use xlink:href="#DejaVuSans-19"/>
      </g>
     </g>
    </g>
    <g id="xtick_8">
     <g id="line2d_17">
      <g>
       <use xlink:href="#mf3b0de58d7" x="449.10135" y="255.166125" style="stroke: #000000; stroke-width: 0.8"/>
      </g>
     </g>
     <g id="text_18">
      <!-- 8 -->
      <g transform="translate(445.9201 269.763781) scale(0.1 -0.1)">
       <defs>
        <path id="DejaVuSans-1b" d="M 2034 2216 
Q 1584 2216 1326 1975 
Q 1069 1734 1069 1313 
Q 1069 891 1326 650 
Q 1584 409 2034 409 
Q 2484 409 2743 651 
Q 3003 894 3003 1313 
Q 3003 1734 2745 1975 
Q 2488 2216 2034 2216 
z
M 1403 2484 
Q 997 2584 770 2862 
Q 544 3141 544 3541 
Q 544 4100 942 4425 
Q 1341 4750 2034 4750 
Q 2731 4750 3128 4425 
Q 3525 4100 3525 3541 
Q 3525 3141 3298 2862 
Q 3072 2584 2669 2484 
Q 3125 2378 3379 2068 
Q 3634 1759 3634 1313 
Q 3634 634 3220 271 
Q 2806 -91 2034 -91 
Q 1263 -91 848 271 
Q 434 634 434 1313 
Q 434 1759 690 2068 
Q 947 2378 1403 2484 
z
M 1172 3481 
Q 1172 3119 1398 2916 
Q 1625 2713 2034 2713 
Q 2441 2713 2670 2916 
Q 2900 3119 2900 3481 
Q 2900 3844 2670 4047 
Q 2441 4250 2034 4250 
Q 1625 4250 1398 4047 
Q 1172 3844 1172 3481 
z
" transform="scale(0.015625)"/>
       </defs>
       <use xlink:href="#DejaVuSans-1b"/>
      </g>
     </g>
    </g>
    <g id="xtick_9">
     <g id="line2d_18">
      <g>
       <use xlink:href="#mf3b0de58d7" x="489.751121" y="255.166125" style="stroke: #000000; stroke-width: 0.8"/>
      </g>
     </g>
     <g id="text_19">
      <!-- 10 -->
      <g transform="translate(483.388621 269.763781) scale(0.1 -0.1)">
       <use xlink:href="#DejaVuSans-14"/>
       <use xlink:href="#DejaVuSans-13" transform="translate(63.625 0)"/>
      </g>
     </g>
    </g>
    <g id="xtick_10">
     <g id="line2d_19">
      <g>
       <use xlink:href="#mf3b0de58d7" x="530.400892" y="255.166125" style="stroke: #000000; stroke-width: 0.8"/>
      </g>
     </g>
     <g id="text_20">
      <!-- 12 -->
      <g transform="translate(524.038392 269.763781) scale(0.1 -0.1)">
       <use xlink:href="#DejaVuSans-14"/>
       <use xlink:href="#DejaVuSans-15" transform="translate(63.625 0)"/>
      </g>
     </g>
    </g>
    <g id="text_21">
     <!-- t -->
     <g transform="translate(412.247132 283.763781) scale(0.1 -0.1)">
      <use xlink:href="#DejaVuSans-57"/>
     </g>
    </g>
   </g>
   <g id="matplotlib.axis_4">
    <g id="ytick_6">
     <g id="line2d_20">
      <g>
       <use xlink:href="#m3f37c10d5e" x="273.731764" y="228.299048" style="stroke: #000000; stroke-width: 0.8"/>
      </g>
     </g>
     <g id="text_22">
      <!-- −1.0 -->
      <g transform="translate(242.448951 232.097876) scale(0.1 -0.1)">
       <use xlink:href="#DejaVuSans-c9c"/>
       <use xlink:href="#DejaVuSans-14" transform="translate(83.796875 0)"/>
       <use xlink:href="#DejaVuSans-11" transform="translate(147.421875 0)"/>
       <use xlink:href="#DejaVuSans-13" transform="translate(179.203125 0)"/>
      </g>
     </g>
    </g>
    <g id="ytick_7">
     <g id="line2d_21">
      <g>
       <use xlink:href="#m3f37c10d5e" x="273.731764" y="183.520587" style="stroke: #000000; stroke-width: 0.8"/>
      </g>
     </g>
     <g id="text_23">
      <!-- −0.5 -->
      <g transform="translate(242.448951 187.319415) scale(0.1 -0.1)">
       <use xlink:href="#DejaVuSans-c9c"/>
       <use xlink:href="#DejaVuSans-13" transform="translate(83.796875 0)"/>
       <use xlink:href="#DejaVuSans-11" transform="translate(147.421875 0)"/>
       <use xlink:href="#DejaVuSans-18" transform="translate(179.203125 0)"/>
      </g>
     </g>
    </g>
    <g id="ytick_8">
     <g id="line2d_22">
      <g>
       <use xlink:href="#m3f37c10d5e" x="273.731764" y="138.742125" style="stroke: #000000; stroke-width: 0.8"/>
      </g>
     </g>
     <g id="text_24">
      <!-- 0.0 -->
      <g transform="translate(250.828639 142.540953) scale(0.1 -0.1)">
       <use xlink:href="#DejaVuSans-13"/>
       <use xlink:href="#DejaVuSans-11" transform="translate(63.625 0)"/>
       <use xlink:href="#DejaVuSans-13" transform="translate(95.40625 0)"/>
      </g>
     </g>
    </g>
    <g id="ytick_9">
     <g id="line2d_23">
      <g>
       <use xlink:href="#m3f37c10d5e" x="273.731764" y="93.963663" style="stroke: #000000; stroke-width: 0.8"/>
      </g>
     </g>
     <g id="text_25">
      <!-- 0.5 -->
      <g transform="translate(250.828639 97.762492) scale(0.1 -0.1)">
       <use xlink:href="#DejaVuSans-13"/>
       <use xlink:href="#DejaVuSans-11" transform="translate(63.625 0)"/>
       <use xlink:href="#DejaVuSans-18" transform="translate(95.40625 0)"/>
      </g>
     </g>
    </g>
    <g id="ytick_10">
     <g id="line2d_24">
      <g>
       <use xlink:href="#m3f37c10d5e" x="273.731764" y="49.185202" style="stroke: #000000; stroke-width: 0.8"/>
      </g>
     </g>
     <g id="text_26">
      <!-- 1.0 -->
      <g transform="translate(250.828639 52.98403) scale(0.1 -0.1)">
       <use xlink:href="#DejaVuSans-14"/>
       <use xlink:href="#DejaVuSans-11" transform="translate(63.625 0)"/>
       <use xlink:href="#DejaVuSans-13" transform="translate(95.40625 0)"/>
      </g>
     </g>
    </g>
    <g id="text_27">
     <!-- y -->
     <g transform="translate(236.046607 141.7015) rotate(-90) scale(0.1 -0.1)">
      <defs>
       <path id="DejaVuSans-5c" d="M 2059 -325 
Q 1816 -950 1584 -1140 
Q 1353 -1331 966 -1331 
L 506 -1331 
L 506 -850 
L 844 -850 
Q 1081 -850 1212 -737 
Q 1344 -625 1503 -206 
L 1606 56 
L 191 3500 
L 800 3500 
L 1894 763 
L 2988 3500 
L 3597 3500 
L 2059 -325 
z
" transform="scale(0.015625)"/>
      </defs>
      <use xlink:href="#DejaVuSans-5c"/>
     </g>
    </g>
   </g>
   <g id="line2d_25">
    <path d="M 286.502266 93.963663 
L 289.062767 84.573625 
L 291.623269 76.042137 
L 293.543645 70.288863 
L 295.464022 65.146232 
L 297.384398 60.66012 
L 299.304774 56.870545 
L 300.585025 54.748086 
L 301.865276 52.958776 
L 303.145527 51.509712 
L 304.425778 50.406642 
L 305.706029 49.65394 
L 306.986279 49.254594 
L 308.26653 49.210185 
L 309.546781 49.520891 
L 310.827032 50.185479 
L 312.107283 51.201313 
L 313.387534 52.564364 
L 314.667784 54.269225 
L 315.948035 56.309135 
L 317.228286 58.676003 
L 319.148662 62.818469 
L 321.069039 67.638217 
L 322.989415 73.092255 
L 324.909791 79.131928 
L 327.470293 88.001998 
L 330.030795 97.676281 
L 333.231422 110.665447 
L 337.7123 129.942082 
L 346.674056 168.819561 
L 349.874683 181.676255 
L 352.435185 191.211076 
L 354.995686 199.914282 
L 356.916063 205.812401 
L 358.836439 211.112214 
L 360.756815 215.766443 
L 362.677191 219.73357 
L 363.957442 221.978859 
L 365.237693 223.894004 
L 366.517944 225.471407 
L 367.798195 226.704811 
L 369.078446 227.589325 
L 370.358696 228.121441 
L 371.638947 228.299048 
L 372.919198 228.121441 
L 374.199449 227.589325 
L 375.4797 226.704811 
L 376.759951 225.471407 
L 378.040202 223.894004 
L 379.320452 221.978859 
L 380.600703 219.73357 
L 382.521079 215.766443 
L 384.441456 211.112214 
L 386.361832 205.812401 
L 388.282208 199.914282 
L 390.84271 191.211076 
L 393.403212 181.676255 
L 396.603839 168.819561 
L 401.084717 149.644704 
L 410.686598 108.001444 
L 413.887225 95.190505 
L 416.447727 85.703358 
L 419.008229 77.056856 
L 420.928605 71.206657 
L 422.848981 65.958914 
L 424.769358 61.36044 
L 426.689734 57.452256 
L 427.969985 55.247774 
L 429.250236 53.374459 
L 430.530486 51.839742 
L 431.810737 50.649709 
L 433.090988 49.809081 
L 434.371239 49.321193 
L 435.65149 49.187978 
L 436.931741 49.409966 
L 438.211991 49.986276 
L 439.492242 50.914622 
L 440.772493 52.191322 
L 442.052744 53.811312 
L 443.332995 55.768167 
L 444.613246 58.054125 
L 446.533622 62.079949 
L 448.453998 66.789645 
L 450.374375 72.141199 
L 452.294751 78.086871 
L 454.855253 86.846244 
L 457.415754 96.428147 
L 460.616381 109.329798 
L 465.097259 128.539774 
L 474.699141 170.144146 
L 477.899768 182.908535 
L 480.460269 192.34742 
L 483.020771 200.936681 
L 484.941147 206.738597 
L 486.861524 211.933945 
L 488.7819 216.476379 
L 490.702276 220.325378 
L 491.982527 222.488916 
L 493.262778 224.320285 
L 494.543029 225.812222 
L 495.82328 226.958809 
L 497.103531 227.755498 
L 498.383781 228.19913 
L 499.664032 228.287944 
L 500.944283 228.021589 
L 502.224534 227.401121 
L 503.504785 226.429001 
L 504.785036 225.109084 
L 506.065286 223.446607 
L 507.345537 221.448162 
L 508.625788 219.121677 
L 510.546164 215.037406 
L 512.466541 210.272536 
L 514.386917 204.869573 
L 516.307293 198.876715 
L 518.867795 190.06172 
L 521.428297 180.433328 
L 524.628924 167.487519 
L 529.109802 148.243617 
L 538.071558 109.329798 
L 541.272185 96.428147 
L 541.91231 93.963663 
L 541.91231 93.963663 
" clip-path="url(#p871ab95c39)" style="fill: none; stroke: #1f77b4; stroke-width: 2; stroke-linecap: square"/>
   </g>
   <g id="line2d_26">
    <path d="M 286.502266 50.153672 
L 304.794663 50.153672 
" clip-path="url(#p871ab95c39)" style="fill: none; stroke-dasharray: 3.7,1.6; stroke-dashoffset: 0; stroke: #808080"/>
   </g>
   <g id="line2d_27">
    <defs>
     <path id="mf279484857" d="M 0 3 
C 0.795609 3 1.55874 2.683901 2.12132 2.12132 
C 2.683901 1.55874 3 0.795609 3 0 
C 3 -0.795609 2.683901 -1.55874 2.12132 -2.12132 
C 1.55874 -2.683901 0.795609 -3 0 -3 
C -0.795609 -3 -1.55874 -2.683901 -2.12132 -2.12132 
C -2.683901 -1.55874 -3 -0.795609 -3 0 
C -3 0.795609 -2.683901 1.55874 -2.12132 2.12132 
C -1.55874 2.683901 -0.795609 3 0 3 
z
" style="stroke: #d62728"/>
    </defs>
    <g clip-path="url(#p871ab95c39)">
     <use xlink:href="#mf279484857" x="304.794663" y="50.153672" style="fill: #d62728; stroke: #d62728"/>
    </g>
   </g>
   <g id="line2d_28">
    <path d="M 273.731764 138.742125 
L 554.682812 138.742125 
" clip-path="url(#p871ab95c39)" style="fill: none; stroke: #d9d9d9; stroke-width: 1.5; stroke-linecap: square"/>
   </g>
   <g id="patch_9">
    <path d="M 273.731764 255.166125 
L 273.731764 22.318125 
" style="fill: none; stroke: #000000; stroke-width: 0.8; stroke-linejoin: miter; stroke-linecap: square"/>
   </g>
   <g id="patch_10">
    <path d="M 554.682812 255.166125 
L 554.682812 22.318125 
" style="fill: none; stroke: #000000; stroke-width: 0.8; stroke-linejoin: miter; stroke-linecap: square"/>
   </g>
   <g id="patch_11">
    <path d="M 273.731764 255.166125 
L 554.682812 255.166125 
" style="fill: none; stroke: #000000; stroke-width: 0.8; stroke-linejoin: miter; stroke-linecap: square"/>
   </g>
   <g id="patch_12">
    <path d="M 273.731764 22.318125 
L 554.682812 22.318125 
" style="fill: none; stroke: #000000; stroke-width: 0.8; stroke-linejoin: miter; stroke-linecap: square"/>
   </g>
   <g id="text_28">
    <!-- its vertical shadow over time = A*sin(wt+phi) -->
    <g transform="translate(276.346976 16.318125) scale(0.12 -0.12)">
     <defs>
      <path id="DejaVuSans-59" d="M 191 3500 
L 800 3500 
L 1894 563 
L 2988 3500 
L 3597 3500 
L 2284 0 
L 1503 0 
L 191 3500 
z
" transform="scale(0.015625)"/>
      <path id="DejaVuSans-46" d="M 3122 3366 
L 3122 2828 
Q 2878 2963 2633 3030 
Q 2388 3097 2138 3097 
Q 1578 3097 1268 2742 
Q 959 2388 959 1747 
Q 959 1106 1268 751 
Q 1578 397 2138 397 
Q 2388 397 2633 464 
Q 2878 531 3122 666 
L 3122 134 
Q 2881 22 2623 -34 
Q 2366 -91 2075 -91 
Q 1284 -91 818 406 
Q 353 903 353 1747 
Q 353 2603 823 3093 
Q 1294 3584 2113 3584 
Q 2378 3584 2631 3529 
Q 2884 3475 3122 3366 
z
" transform="scale(0.015625)"/>
      <path id="DejaVuSans-4f" d="M 603 4863 
L 1178 4863 
L 1178 0 
L 603 0 
L 603 4863 
z
" transform="scale(0.015625)"/>
      <path id="DejaVuSans-47" d="M 2906 2969 
L 2906 4863 
L 3481 4863 
L 3481 0 
L 2906 0 
L 2906 525 
Q 2725 213 2448 61 
Q 2172 -91 1784 -91 
Q 1150 -91 751 415 
Q 353 922 353 1747 
Q 353 2572 751 3078 
Q 1150 3584 1784 3584 
Q 2172 3584 2448 3432 
Q 2725 3281 2906 2969 
z
M 947 1747 
Q 947 1113 1208 752 
Q 1469 391 1925 391 
Q 2381 391 2643 752 
Q 2906 1113 2906 1747 
Q 2906 2381 2643 2742 
Q 2381 3103 1925 3103 
Q 1469 3103 1208 2742 
Q 947 2381 947 1747 
z
" transform="scale(0.015625)"/>
      <path id="DejaVuSans-20" d="M 678 2906 
L 4684 2906 
L 4684 2381 
L 678 2381 
L 678 2906 
z
M 678 1631 
L 4684 1631 
L 4684 1100 
L 678 1100 
L 678 1631 
z
" transform="scale(0.015625)"/>
      <path id="DejaVuSans-51" d="M 3513 2113 
L 3513 0 
L 2938 0 
L 2938 2094 
Q 2938 2591 2744 2837 
Q 2550 3084 2163 3084 
Q 1697 3084 1428 2787 
Q 1159 2491 1159 1978 
L 1159 0 
L 581 0 
L 581 3500 
L 1159 3500 
L 1159 2956 
Q 1366 3272 1645 3428 
Q 1925 3584 2291 3584 
Q 2894 3584 3203 3211 
Q 3513 2838 3513 2113 
z
" transform="scale(0.015625)"/>
     </defs>
     <use xlink:href="#DejaVuSans-4c"/>
     <use xlink:href="#DejaVuSans-57" transform="translate(27.78125 0)"/>
     <use xlink:href="#DejaVuSans-56" transform="translate(66.984375 0)"/>
     <use xlink:href="#DejaVuSans-3" transform="translate(119.078125 0)"/>
     <use xlink:href="#DejaVuSans-59" transform="translate(150.859375 0)"/>
     <use xlink:href="#DejaVuSans-48" transform="translate(210.046875 0)"/>
     <use xlink:href="#DejaVuSans-55" transform="translate(271.578125 0)"/>
     <use xlink:href="#DejaVuSans-57" transform="translate(312.6875 0)"/>
     <use xlink:href="#DejaVuSans-4c" transform="translate(351.890625 0)"/>
     <use xlink:href="#DejaVuSans-46" transform="translate(379.671875 0)"/>
     <use xlink:href="#DejaVuSans-44" transform="translate(434.65625 0)"/>
     <use xlink:href="#DejaVuSans-4f" transform="translate(495.9375 0)"/>
     <use xlink:href="#DejaVuSans-3" transform="translate(523.71875 0)"/>
     <use xlink:href="#DejaVuSans-56" transform="translate(555.5 0)"/>
     <use xlink:href="#DejaVuSans-4b" transform="translate(607.59375 0)"/>
     <use xlink:href="#DejaVuSans-44" transform="translate(670.96875 0)"/>
     <use xlink:href="#DejaVuSans-47" transform="translate(732.25 0)"/>
     <use xlink:href="#DejaVuSans-52" transform="translate(795.734375 0)"/>
     <use xlink:href="#DejaVuSans-5a" transform="translate(856.921875 0)"/>
     <use xlink:href="#DejaVuSans-3" transform="translate(938.703125 0)"/>
     <use xlink:href="#DejaVuSans-52" transform="translate(970.484375 0)"/>
     <use xlink:href="#DejaVuSans-59" transform="translate(1031.671875 0)"/>
     <use xlink:href="#DejaVuSans-48" transform="translate(1090.859375 0)"/>
     <use xlink:href="#DejaVuSans-55" transform="translate(1152.390625 0)"/>
     <use xlink:href="#DejaVuSans-3" transform="translate(1193.5 0)"/>
     <use xlink:href="#DejaVuSans-57" transform="translate(1225.28125 0)"/>
     <use xlink:href="#DejaVuSans-4c" transform="translate(1264.484375 0)"/>
     <use xlink:href="#DejaVuSans-50" transform="translate(1292.265625 0)"/>
     <use xlink:href="#DejaVuSans-48" transform="translate(1389.671875 0)"/>
     <use xlink:href="#DejaVuSans-3" transform="translate(1451.203125 0)"/>
     <use xlink:href="#DejaVuSans-20" transform="translate(1482.984375 0)"/>
     <use xlink:href="#DejaVuSans-3" transform="translate(1566.78125 0)"/>
     <use xlink:href="#DejaVuSans-24" transform="translate(1598.5625 0)"/>
     <use xlink:href="#DejaVuSans-d" transform="translate(1666.96875 0)"/>
     <use xlink:href="#DejaVuSans-56" transform="translate(1716.96875 0)"/>
     <use xlink:href="#DejaVuSans-4c" transform="translate(1769.0625 0)"/>
     <use xlink:href="#DejaVuSans-51" transform="translate(1796.84375 0)"/>
     <use xlink:href="#DejaVuSans-b" transform="translate(1860.21875 0)"/>
     <use xlink:href="#DejaVuSans-5a" transform="translate(1899.234375 0)"/>
     <use xlink:href="#DejaVuSans-57" transform="translate(1981.015625 0)"/>
     <use xlink:href="#DejaVuSans-e" transform="translate(2020.21875 0)"/>
     <use xlink:href="#DejaVuSans-53" transform="translate(2104.015625 0)"/>
     <use xlink:href="#DejaVuSans-4b" transform="translate(2167.5 0)"/>
     <use xlink:href="#DejaVuSans-4c" transform="translate(2230.875 0)"/>
     <use xlink:href="#DejaVuSans-c" transform="translate(2258.65625 0)"/>
    </g>
   </g>
  </g>
 </g>
 <defs>
  <clipPath id="p785b61a6bd">
   <rect x="52.482813" y="50.944922" width="175.594406" height="175.594406"/>
  </clipPath>
  <clipPath id="p871ab95c39">
   <rect x="273.731764" y="22.318125" width="280.951049" height="232.848"/>
  </clipPath>
 </defs>
</svg>
