<?xml version="1.0" encoding="utf-8" standalone="no"?>
<!DOCTYPE svg PUBLIC "-//W3C//DTD SVG 1.1//EN"
  "http://www.w3.org/Graphics/SVG/1.1/DTD/svg11.dtd">
<svg xmlns:xlink="http://www.w3.org/1999/xlink" width="603.682812pt" height="337.718906pt" viewBox="0 0 603.682812 337.718906" xmlns="http://www.w3.org/2000/svg" version="1.1">
 <metadata>
  <rdf:RDF xmlns:dc="http://purl.org/dc/elements/1.1/" xmlns:cc="http://creativecommons.org/ns#" xmlns:rdf="http://www.w3.org/1999/02/22-rdf-syntax-ns#">
   <cc:Work>
    <dc:type rdf:resource="http://purl.org/dc/dcmitype/StillImage"/>
    <dc:date>2026-06-13T14:54:54.319445</dc:date>
    <dc:format>image/svg+xml</dc:format>
    <dc:creator>
     <cc:Agent>
      <dc:title>Matplotlib v3.11.0, https://matplotlib.org/</dc:title>
     </cc:Agent>
    </dc:creator>
   </cc:Work>
  </rdf:RDF>
 </metadata>
 <defs>
  <style type="text/css">*{stroke-linejoin: round; stroke-linecap: butt}</style>
 </defs>
 <g id="figure_1">
  <g id="patch_1">
   <path d="M 0 337.718906 
L 603.682812 337.718906 
L 603.682812 0 
L 0 0 
z
" style="fill: #ffffff"/>
  </g>
  <g id="axes_1">
   <g id="patch_2">
    <path d="M 38.482813 287.736307 
L 292.119176 287.736307 
L 292.119176 34.099943 
L 38.482813 34.099943 
z
" style="fill: #ffffff"/>
   </g>
   <g id="matplotlib.axis_1">
    <g id="xtick_1">
     <g id="line2d_1">
      <defs>
       <path id="m2a94af678a" d="M 0 0 
L 0 3.5 
" style="stroke: #000000; stroke-width: 0.8"/>
      </defs>
      <g>
       <use xlink:href="#m2a94af678a" x="46.408949" y="287.736307" style="stroke: #000000; stroke-width: 0.8"/>
      </g>
     </g>
     <g id="text_1">
      <!-- −1.5 -->
      <g transform="translate(34.267543 302.333963) scale(0.1 -0.1)">
       <defs>
        <path id="DejaVuSans-c9c" d="M 678 2272 
L 4684 2272 
L 4684 1741 
L 678 1741 
L 678 2272 
z
" transform="scale(0.015625)"/>
        <path id="DejaVuSans-14" d="M 794 531 
L 1825 531 
L 1825 4091 
L 703 3866 
L 703 4441 
L 1819 4666 
L 2450 4666 
L 2450 531 
L 3481 531 
L 3481 0 
L 794 0 
L 794 531 
z
" transform="scale(0.015625)"/>
        <path id="DejaVuSans-11" d="M 684 794 
L 1344 794 
L 1344 0 
L 684 0 
L 684 794 
z
" transform="scale(0.015625)"/>
        <path id="DejaVuSans-18" d="M 691 4666 
L 3169 4666 
L 3169 4134 
L 1269 4134 
L 1269 2991 
Q 1406 3038 1543 3061 
Q 1681 3084 1819 3084 
Q 2600 3084 3056 2656 
Q 3513 2228 3513 1497 
Q 3513 744 3044 326 
Q 2575 -91 1722 -91 
Q 1428 -91 1123 -41 
Q 819 9 494 109 
L 494 744 
Q 775 591 1075 516 
Q 1375 441 1709 441 
Q 2250 441 2565 725 
Q 2881 1009 2881 1497 
Q 2881 1984 2565 2268 
Q 2250 2553 1709 2553 
Q 1456 2553 1204 2497 
Q 953 2441 691 2322 
L 691 4666 
z
" transform="scale(0.015625)"/>
       </defs>
       <use xlink:href="#DejaVuSans-c9c"/>
       <use xlink:href="#DejaVuSans-14" transform="translate(83.796875 0)"/>
       <use xlink:href="#DejaVuSans-11" transform="translate(147.421875 0)"/>
       <use xlink:href="#DejaVuSans-18" transform="translate(179.203125 0)"/>
      </g>
     </g>
    </g>
    <g id="xtick_2">
     <g id="line2d_2">
      <g>
       <use xlink:href="#m2a94af678a" x="86.039631" y="287.736307" style="stroke: #000000; stroke-width: 0.8"/>
      </g>
     </g>
     <g id="text_2">
      <!-- −1.0 -->
      <g transform="translate(73.898224 302.333963) scale(0.1 -0.1)">
       <defs>
        <path id="DejaVuSans-13" d="M 2034 4250 
Q 1547 4250 1301 3770 
Q 1056 3291 1056 2328 
Q 1056 1369 1301 889 
Q 1547 409 2034 409 
Q 2525 409 2770 889 
Q 3016 1369 3016 2328 
Q 3016 3291 2770 3770 
Q 2525 4250 2034 4250 
z
M 2034 4750 
Q 2819 4750 3233 4129 
Q 3647 3509 3647 2328 
Q 3647 1150 3233 529 
Q 2819 -91 2034 -91 
Q 1250 -91 836 529 
Q 422 1150 422 2328 
Q 422 3509 836 4129 
Q 1250 4750 2034 4750 
z
" transform="scale(0.015625)"/>
       </defs>
       <use xlink:href="#DejaVuSans-c9c"/>
       <use xlink:href="#DejaVuSans-14" transform="translate(83.796875 0)"/>
       <use xlink:href="#DejaVuSans-11" transform="translate(147.421875 0)"/>
       <use xlink:href="#DejaVuSans-13" transform="translate(179.203125 0)"/>
      </g>
     </g>
    </g>
    <g id="xtick_3">
     <g id="line2d_3">
      <g>
       <use xlink:href="#m2a94af678a" x="125.670313" y="287.736307" style="stroke: #000000; stroke-width: 0.8"/>
      </g>
     </g>
     <g id="text_3">
      <!-- −0.5 -->
      <g transform="translate(113.528906 302.333963) scale(0.1 -0.1)">
       <use xlink:href="#DejaVuSans-c9c"/>
       <use xlink:href="#DejaVuSans-13" transform="translate(83.796875 0)"/>
       <use xlink:href="#DejaVuSans-11" transform="translate(147.421875 0)"/>
       <use xlink:href="#DejaVuSans-18" transform="translate(179.203125 0)"/>
      </g>
     </g>
    </g>
    <g id="xtick_4">
     <g id="line2d_4">
      <g>
       <use xlink:href="#m2a94af678a" x="165.300994" y="287.736307" style="stroke: #000000; stroke-width: 0.8"/>
      </g>
     </g>
     <g id="text_4">
      <!-- 0.0 -->
      <g transform="translate(157.349432 302.333963) scale(0.1 -0.1)">
       <use xlink:href="#DejaVuSans-13"/>
       <use xlink:href="#DejaVuSans-11" transform="translate(63.625 0)"/>
       <use xlink:href="#DejaVuSans-13" transform="translate(95.40625 0)"/>
      </g>
     </g>
    </g>
    <g id="xtick_5">
     <g id="line2d_5">
      <g>
       <use xlink:href="#m2a94af678a" x="204.931676" y="287.736307" style="stroke: #000000; stroke-width: 0.8"/>
      </g>
     </g>
     <g id="text_5">
      <!-- 0.5 -->
      <g transform="translate(196.980114 302.333963) scale(0.1 -0.1)">
       <use xlink:href="#DejaVuSans-13"/>
       <use xlink:href="#DejaVuSans-11" transform="translate(63.625 0)"/>
       <use xlink:href="#DejaVuSans-18" transform="translate(95.40625 0)"/>
      </g>
     </g>
    </g>
    <g id="xtick_6">
     <g id="line2d_6">
      <g>
       <use xlink:href="#m2a94af678a" x="244.562358" y="287.736307" style="stroke: #000000; stroke-width: 0.8"/>
      </g>
     </g>
     <g id="text_6">
      <!-- 1.0 -->
      <g transform="translate(236.610795 302.333963) scale(0.1 -0.1)">
       <use xlink:href="#DejaVuSans-14"/>
       <use xlink:href="#DejaVuSans-11" transform="translate(63.625 0)"/>
       <use xlink:href="#DejaVuSans-13" transform="translate(95.40625 0)"/>
      </g>
     </g>
    </g>
    <g id="xtick_7">
     <g id="line2d_7">
      <g>
       <use xlink:href="#m2a94af678a" x="284.19304" y="287.736307" style="stroke: #000000; stroke-width: 0.8"/>
      </g>
     </g>
     <g id="text_7">
      <!-- 1.5 -->
      <g transform="translate(276.241477 302.333963) scale(0.1 -0.1)">
       <use xlink:href="#DejaVuSans-14"/>
       <use xlink:href="#DejaVuSans-11" transform="translate(63.625 0)"/>
       <use xlink:href="#DejaVuSans-18" transform="translate(95.40625 0)"/>
      </g>
     </g>
    </g>
   </g>
   <g id="matplotlib.axis_2">
    <g id="ytick_1">
     <g id="line2d_8">
      <defs>
       <path id="m9bc96cc49c" d="M 0 0 
L -3.5 0 
" style="stroke: #000000; stroke-width: 0.8"/>
      </defs>
      <g>
       <use xlink:href="#m9bc96cc49c" x="38.482813" y="279.81017" style="stroke: #000000; stroke-width: 0.8"/>
      </g>
     </g>
     <g id="text_8">
      <!-- −1.5 -->
      <g transform="translate(7.2 283.608999) scale(0.1 -0.1)">
       <use xlink:href="#DejaVuSans-c9c"/>
       <use xlink:href="#DejaVuSans-14" transform="translate(83.796875 0)"/>
       <use xlink:href="#DejaVuSans-11" transform="translate(147.421875 0)"/>
       <use xlink:href="#DejaVuSans-18" transform="translate(179.203125 0)"/>
      </g>
     </g>
    </g>
    <g id="ytick_2">
     <g id="line2d_9">
      <g>
       <use xlink:href="#m9bc96cc49c" x="38.482813" y="240.179489" style="stroke: #000000; stroke-width: 0.8"/>
      </g>
     </g>
     <g id="text_9">
      <!-- −1.0 -->
      <g transform="translate(7.2 243.978317) scale(0.1 -0.1)">
       <use xlink:href="#DejaVuSans-c9c"/>
       <use xlink:href="#DejaVuSans-14" transform="translate(83.796875 0)"/>
       <use xlink:href="#DejaVuSans-11" transform="translate(147.421875 0)"/>
       <use xlink:href="#DejaVuSans-13" transform="translate(179.203125 0)"/>
      </g>
     </g>
    </g>
    <g id="ytick_3">
     <g id="line2d_10">
      <g>
       <use xlink:href="#m9bc96cc49c" x="38.482813" y="200.548807" style="stroke: #000000; stroke-width: 0.8"/>
      </g>
     </g>
     <g id="text_10">
      <!-- −0.5 -->
      <g transform="translate(7.2 204.347635) scale(0.1 -0.1)">
       <use xlink:href="#DejaVuSans-c9c"/>
       <use xlink:href="#DejaVuSans-13" transform="translate(83.796875 0)"/>
       <use xlink:href="#DejaVuSans-11" transform="translate(147.421875 0)"/>
       <use xlink:href="#DejaVuSans-18" transform="translate(179.203125 0)"/>
      </g>
     </g>
    </g>
    <g id="ytick_4">
     <g id="line2d_11">
      <g>
       <use xlink:href="#m9bc96cc49c" x="38.482813" y="160.918125" style="stroke: #000000; stroke-width: 0.8"/>
      </g>
     </g>
     <g id="text_11">
      <!-- 0.0 -->
      <g transform="translate(15.579688 164.716953) scale(0.1 -0.1)">
       <use xlink:href="#DejaVuSans-13"/>
       <use xlink:href="#DejaVuSans-11" transform="translate(63.625 0)"/>
       <use xlink:href="#DejaVuSans-13" transform="translate(95.40625 0)"/>
      </g>
     </g>
    </g>
    <g id="ytick_5">
     <g id="line2d_12">
      <g>
       <use xlink:href="#m9bc96cc49c" x="38.482813" y="121.287443" style="stroke: #000000; stroke-width: 0.8"/>
      </g>
     </g>
     <g id="text_12">
      <!-- 0.5 -->
      <g transform="translate(15.579688 125.086271) scale(0.1 -0.1)">
       <use xlink:href="#DejaVuSans-13"/>
       <use xlink:href="#DejaVuSans-11" transform="translate(63.625 0)"/>
       <use xlink:href="#DejaVuSans-18" transform="translate(95.40625 0)"/>
      </g>
     </g>
    </g>
    <g id="ytick_6">
     <g id="line2d_13">
      <g>
       <use xlink:href="#m9bc96cc49c" x="38.482813" y="81.656761" style="stroke: #000000; stroke-width: 0.8"/>
      </g>
     </g>
     <g id="text_13">
      <!-- 1.0 -->
      <g transform="translate(15.579688 85.455589) scale(0.1 -0.1)">
       <use xlink:href="#DejaVuSans-14"/>
       <use xlink:href="#DejaVuSans-11" transform="translate(63.625 0)"/>
       <use xlink:href="#DejaVuSans-13" transform="translate(95.40625 0)"/>
      </g>
     </g>
    </g>
    <g id="ytick_7">
     <g id="line2d_14">
      <g>
       <use xlink:href="#m9bc96cc49c" x="38.482813" y="42.02608" style="stroke: #000000; stroke-width: 0.8"/>
      </g>
     </g>
     <g id="text_14">
      <!-- 1.5 -->
      <g transform="translate(15.579688 45.824908) scale(0.1 -0.1)">
       <use xlink:href="#DejaVuSans-14"/>
       <use xlink:href="#DejaVuSans-11" transform="translate(63.625 0)"/>
       <use xlink:href="#DejaVuSans-18" transform="translate(95.40625 0)"/>
      </g>
     </g>
    </g>
   </g>
   <g id="line2d_15">
    <path d="M 244.562358 160.918125 
L 244.404378 155.916287 
L 243.93107 150.934387 
L 243.144318 145.992286 
L 242.047261 141.109683 
L 240.64427 136.306042 
L 238.940939 131.600513 
L 236.944057 127.011852 
L 234.661585 122.558352 
L 232.102621 118.257764 
L 229.277367 114.127234 
L 226.197084 110.183226 
L 222.874051 106.441461 
L 219.321516 102.916857 
L 215.553638 99.623463 
L 211.585439 96.574408 
L 207.432736 93.781845 
L 203.112084 91.256907 
L 198.640706 89.00966 
L 194.036426 87.04906 
L 189.317598 85.382925 
L 184.503033 84.017894 
L 179.611923 82.959411 
L 174.663765 82.211694 
L 169.678285 81.777724 
L 164.675355 81.659231 
L 159.67492 81.856687 
L 154.696911 82.369305 
L 149.761174 83.195041 
L 144.887383 84.330605 
L 140.094966 85.771469 
L 135.403028 87.51189 
L 130.830273 89.544929 
L 126.394927 91.862483 
L 122.114673 94.455313 
L 118.006572 97.313083 
L 114.087 100.424402 
L 110.371583 103.776866 
L 106.87513 107.357112 
L 103.61158 111.150868 
L 100.593941 115.143011 
L 97.834245 119.317627 
L 95.34349 123.658075 
L 93.131607 128.147052 
L 91.207411 132.766664 
L 89.578575 137.498496 
L 88.251591 142.323686 
L 87.231748 147.222999 
L 86.523111 152.176904 
L 86.128507 157.165655 
L 86.049507 162.169364 
L 86.286428 167.168085 
L 86.838323 172.141892 
L 87.702993 177.070958 
L 88.876992 181.935634 
L 90.35564 186.716528 
L 92.133041 191.394582 
L 94.202112 195.951148 
L 96.554603 200.368062 
L 99.181138 204.627716 
L 102.071246 208.713132 
L 105.213406 212.608023 
L 108.595093 216.296862 
L 112.202827 219.764946 
L 116.022225 222.998449 
L 120.038063 225.984482 
L 124.234332 228.711141 
L 128.594305 231.167557 
L 133.100602 233.343939 
L 137.735258 235.231609 
L 142.4798 236.823045 
L 147.315314 238.111901 
L 152.222524 239.09304 
L 157.181869 239.762551 
L 162.173579 240.117765 
L 167.177755 240.157266 
L 172.174451 239.880897 
L 177.143747 239.289759 
L 182.065834 238.386208 
L 186.921091 237.173847 
L 191.690165 235.657509 
L 196.354043 233.843237 
L 200.894135 231.738264 
L 205.292342 229.350981 
L 209.531132 226.690906 
L 213.593608 223.76864 
L 217.463575 220.595834 
L 221.125607 217.185135 
L 224.565106 213.550139 
L 227.76836 209.705336 
L 230.722601 205.666054 
L 233.416053 201.448393 
L 235.837977 197.069166 
L 237.978721 192.545831 
L 239.82975 187.896419 
L 241.383686 183.139463 
L 242.634333 178.293926 
L 243.576707 173.379124 
L 244.207052 168.41465 
L 244.522853 163.420291 
L 244.562358 160.918125 
L 244.562358 160.918125 
" clip-path="url(#p824d0abde6)" style="fill: none; stroke: #cccccc; stroke-linecap: square"/>
   </g>
   <g id="patch_3">
    <path d="M 38.482813 287.736307 
L 38.482813 34.099943 
" style="fill: none; stroke: #000000; stroke-width: 0.8; stroke-linejoin: miter; stroke-linecap: square"/>
   </g>
   <g id="patch_4">
    <path d="M 292.119176 287.736307 
L 292.119176 34.099943 
" style="fill: none; stroke: #000000; stroke-width: 0.8; stroke-linejoin: miter; stroke-linecap: square"/>
   </g>
   <g id="patch_5">
    <path d="M 38.482813 287.736307 
L 292.119176 287.736307 
" style="fill: none; stroke: #000000; stroke-width: 0.8; stroke-linejoin: miter; stroke-linecap: square"/>
   </g>
   <g id="patch_6">
    <path d="M 38.482813 34.099943 
L 292.119176 34.099943 
" style="fill: none; stroke: #000000; stroke-width: 0.8; stroke-linejoin: miter; stroke-linecap: square"/>
   </g>
   <g id="patch_7">
    <path d="M 166.95 159.789979 
Q 198.007039 138.542716 227.21857 118.558032 
" style="fill: none; stroke: #1f77b4; stroke-width: 2; stroke-linecap: round"/>
    <path d="M 222.787943 119.165931 
L 227.21857 118.558032 
L 225.046513 122.467273 
" style="fill: none; stroke: #1f77b4; stroke-width: 2; stroke-linecap: round"/>
   </g>
   <g id="patch_8">
    <path d="M 229.590075 114.514787 
Q 219.529732 99.809625 210.731969 86.949969 
" style="fill: none; stroke: #d62728; stroke-width: 2; stroke-linecap: round"/>
    <path d="M 211.339867 91.380597 
L 210.731969 86.949969 
L 214.64121 89.122027 
" style="fill: none; stroke: #d62728; stroke-width: 2; stroke-linecap: round"/>
   </g>
   <g id="patch_9">
    <path d="M 164.46954 159.101365 
Q 148.810107 124.884878 134.081206 92.701643 
" style="fill: none; stroke: #1f77b4; stroke-width: 2; stroke-linecap: round"/>
    <path d="M 133.927198 97.171126 
L 134.081206 92.701643 
L 137.564388 95.506539 
" style="fill: none; stroke: #1f77b4; stroke-width: 2; stroke-linecap: round"/>
   </g>
   <g id="patch_10">
    <path d="M 130.499868 89.677425 
Q 114.298743 97.091993 100.130868 103.576027 
" style="fill: none; stroke: #d62728; stroke-width: 2; stroke-linecap: round"/>
    <path d="M 104.600352 103.730035 
L 100.130868 103.576027 
L 102.935764 100.092845 
" style="fill: none; stroke: #d62728; stroke-width: 2; stroke-linecap: round"/>
   </g>
   <g id="patch_11">
    <path d="M 163.720655 162.140606 
Q 133.956867 185.164566 105.961736 206.82037 
" style="fill: none; stroke: #1f77b4; stroke-width: 2; stroke-linecap: round"/>
    <path d="M 110.349323 205.954874 
L 105.961736 206.82037 
L 107.901891 202.791003 
" style="fill: none; stroke: #1f77b4; stroke-width: 2; stroke-linecap: round"/>
   </g>
   <g id="patch_12">
    <path d="M 103.830296 210.995155 
Q 114.731885 225.087978 124.265318 237.412143 
" style="fill: none; stroke: #d62728; stroke-width: 2; stroke-linecap: round"/>
    <path d="M 123.399821 233.024556 
L 124.265318 237.412143 
L 120.235951 235.471988 
" style="fill: none; stroke: #d62728; stroke-width: 2; stroke-linecap: round"/>
   </g>
   <g id="text_15">
    <!-- position -->
    <g style="fill: #1f77b4" transform="translate(214.44304 111.77608) scale(0.09 -0.09)">
     <defs>
      <path id="DejaVuSans-53" d="M 1159 525 
L 1159 -1331 
L 581 -1331 
L 581 3500 
L 1159 3500 
L 1159 2969 
Q 1341 3281 1617 3432 
Q 1894 3584 2278 3584 
Q 2916 3584 3314 3078 
Q 3713 2572 3713 1747 
Q 3713 922 3314 415 
Q 2916 -91 2278 -91 
Q 1894 -91 1617 61 
Q 1341 213 1159 525 
z
M 3116 1747 
Q 3116 2381 2855 2742 
Q 2594 3103 2138 3103 
Q 1681 3103 1420 2742 
Q 1159 2381 1159 1747 
Q 1159 1113 1420 752 
Q 1681 391 2138 391 
Q 2594 391 2855 752 
Q 3116 1113 3116 1747 
z
" transform="scale(0.015625)"/>
      <path id="DejaVuSans-52" d="M 1959 3097 
Q 1497 3097 1228 2736 
Q 959 2375 959 1747 
Q 959 1119 1226 758 
Q 1494 397 1959 397 
Q 2419 397 2687 759 
Q 2956 1122 2956 1747 
Q 2956 2369 2687 2733 
Q 2419 3097 1959 3097 
z
M 1959 3584 
Q 2709 3584 3137 3096 
Q 3566 2609 3566 1747 
Q 3566 888 3137 398 
Q 2709 -91 1959 -91 
Q 1206 -91 779 398 
Q 353 888 353 1747 
Q 353 2609 779 3096 
Q 1206 3584 1959 3584 
z
" transform="scale(0.015625)"/>
      <path id="DejaVuSans-56" d="M 2834 3397 
L 2834 2853 
Q 2591 2978 2328 3040 
Q 2066 3103 1784 3103 
Q 1356 3103 1142 2972 
Q 928 2841 928 2578 
Q 928 2378 1081 2264 
Q 1234 2150 1697 2047 
L 1894 2003 
Q 2506 1872 2764 1633 
Q 3022 1394 3022 966 
Q 3022 478 2636 193 
Q 2250 -91 1575 -91 
Q 1294 -91 989 -36 
Q 684 19 347 128 
L 347 722 
Q 666 556 975 473 
Q 1284 391 1588 391 
Q 1994 391 2212 530 
Q 2431 669 2431 922 
Q 2431 1156 2273 1281 
Q 2116 1406 1581 1522 
L 1381 1569 
Q 847 1681 609 1914 
Q 372 2147 372 2553 
Q 372 3047 722 3315 
Q 1072 3584 1716 3584 
Q 2034 3584 2315 3537 
Q 2597 3491 2834 3397 
z
" transform="scale(0.015625)"/>
      <path id="DejaVuSans-4c" d="M 603 3500 
L 1178 3500 
L 1178 0 
L 603 0 
L 603 3500 
z
M 603 4863 
L 1178 4863 
L 1178 4134 
L 603 4134 
L 603 4863 
z
" transform="scale(0.015625)"/>
      <path id="DejaVuSans-57" d="M 1172 4494 
L 1172 3500 
L 2356 3500 
L 2356 3053 
L 1172 3053 
L 1172 1153 
Q 1172 725 1289 603 
Q 1406 481 1766 481 
L 2356 481 
L 2356 0 
L 1766 0 
Q 1100 0 847 248 
Q 594 497 594 1153 
L 594 3053 
L 172 3053 
L 172 3500 
L 594 3500 
L 594 4494 
L 1172 4494 
z
" transform="scale(0.015625)"/>
      <path id="DejaVuSans-51" d="M 3513 2113 
L 3513 0 
L 2938 0 
L 2938 2094 
Q 2938 2591 2744 2837 
Q 2550 3084 2163 3084 
Q 1697 3084 1428 2787 
Q 1159 2491 1159 1978 
L 1159 0 
L 581 0 
L 581 3500 
L 1159 3500 
L 1159 2956 
Q 1366 3272 1645 3428 
Q 1925 3584 2291 3584 
Q 2894 3584 3203 3211 
Q 3513 2838 3513 2113 
z
" transform="scale(0.015625)"/>
     </defs>
     <use xlink:href="#DejaVuSans-53"/>
     <use xlink:href="#DejaVuSans-52" transform="translate(63.484375 0)"/>
     <use xlink:href="#DejaVuSans-56" transform="translate(124.671875 0)"/>
     <use xlink:href="#DejaVuSans-4c" transform="translate(176.765625 0)"/>
     <use xlink:href="#DejaVuSans-57" transform="translate(204.546875 0)"/>
     <use xlink:href="#DejaVuSans-4c" transform="translate(243.75 0)"/>
     <use xlink:href="#DejaVuSans-52" transform="translate(271.53125 0)"/>
     <use xlink:href="#DejaVuSans-51" transform="translate(332.71875 0)"/>
    </g>
   </g>
   <g id="text_16">
    <!-- velocity = pos rotated +90 -->
    <g style="fill: #d62728" transform="translate(90.002699 121.287443) scale(0.09 -0.09)">
     <defs>
      <path id="DejaVuSans-59" d="M 191 3500 
L 800 3500 
L 1894 563 
L 2988 3500 
L 3597 3500 
L 2284 0 
L 1503 0 
L 191 3500 
z
" transform="scale(0.015625)"/>
      <path id="DejaVuSans-48" d="M 3597 1894 
L 3597 1613 
L 953 1613 
Q 991 1019 1311 708 
Q 1631 397 2203 397 
Q 2534 397 2845 478 
Q 3156 559 3463 722 
L 3463 178 
Q 3153 47 2828 -22 
Q 2503 -91 2169 -91 
Q 1331 -91 842 396 
Q 353 884 353 1716 
Q 353 2575 817 3079 
Q 1281 3584 2069 3584 
Q 2775 3584 3186 3129 
Q 3597 2675 3597 1894 
z
M 3022 2063 
Q 3016 2534 2758 2815 
Q 2500 3097 2075 3097 
Q 1594 3097 1305 2825 
Q 1016 2553 972 2059 
L 3022 2063 
z
" transform="scale(0.015625)"/>
      <path id="DejaVuSans-4f" d="M 603 4863 
L 1178 4863 
L 1178 0 
L 603 0 
L 603 4863 
z
" transform="scale(0.015625)"/>
      <path id="DejaVuSans-46" d="M 3122 3366 
L 3122 2828 
Q 2878 2963 2633 3030 
Q 2388 3097 2138 3097 
Q 1578 3097 1268 2742 
Q 959 2388 959 1747 
Q 959 1106 1268 751 
Q 1578 397 2138 397 
Q 2388 397 2633 464 
Q 2878 531 3122 666 
L 3122 134 
Q 2881 22 2623 -34 
Q 2366 -91 2075 -91 
Q 1284 -91 818 406 
Q 353 903 353 1747 
Q 353 2603 823 3093 
Q 1294 3584 2113 3584 
Q 2378 3584 2631 3529 
Q 2884 3475 3122 3366 
z
" transform="scale(0.015625)"/>
      <path id="DejaVuSans-5c" d="M 2059 -325 
Q 1816 -950 1584 -1140 
Q 1353 -1331 966 -1331 
L 506 -1331 
L 506 -850 
L 844 -850 
Q 1081 -850 1212 -737 
Q 1344 -625 1503 -206 
L 1606 56 
L 191 3500 
L 800 3500 
L 1894 763 
L 2988 3500 
L 3597 3500 
L 2059 -325 
z
" transform="scale(0.015625)"/>
      <path id="DejaVuSans-3" transform="scale(0.015625)"/>
      <path id="DejaVuSans-20" d="M 678 2906 
L 4684 2906 
L 4684 2381 
L 678 2381 
L 678 2906 
z
M 678 1631 
L 4684 1631 
L 4684 1100 
L 678 1100 
L 678 1631 
z
" transform="scale(0.015625)"/>
      <path id="DejaVuSans-55" d="M 2631 2963 
Q 2534 3019 2420 3045 
Q 2306 3072 2169 3072 
Q 1681 3072 1420 2755 
Q 1159 2438 1159 1844 
L 1159 0 
L 581 0 
L 581 3500 
L 1159 3500 
L 1159 2956 
Q 1341 3275 1631 3429 
Q 1922 3584 2338 3584 
Q 2397 3584 2469 3576 
Q 2541 3569 2628 3553 
L 2631 2963 
z
" transform="scale(0.015625)"/>
      <path id="DejaVuSans-44" d="M 2194 1759 
Q 1497 1759 1228 1600 
Q 959 1441 959 1056 
Q 959 750 1161 570 
Q 1363 391 1709 391 
Q 2188 391 2477 730 
Q 2766 1069 2766 1631 
L 2766 1759 
L 2194 1759 
z
M 3341 1997 
L 3341 0 
L 2766 0 
L 2766 531 
Q 2569 213 2275 61 
Q 1981 -91 1556 -91 
Q 1019 -91 701 211 
Q 384 513 384 1019 
Q 384 1609 779 1909 
Q 1175 2209 1959 2209 
L 2766 2209 
L 2766 2266 
Q 2766 2663 2505 2880 
Q 2244 3097 1772 3097 
Q 1472 3097 1187 3025 
Q 903 2953 641 2809 
L 641 3341 
Q 956 3463 1253 3523 
Q 1550 3584 1831 3584 
Q 2591 3584 2966 3190 
Q 3341 2797 3341 1997 
z
" transform="scale(0.015625)"/>
      <path id="DejaVuSans-47" d="M 2906 2969 
L 2906 4863 
L 3481 4863 
L 3481 0 
L 2906 0 
L 2906 525 
Q 2725 213 2448 61 
Q 2172 -91 1784 -91 
Q 1150 -91 751 415 
Q 353 922 353 1747 
Q 353 2572 751 3078 
Q 1150 3584 1784 3584 
Q 2172 3584 2448 3432 
Q 2725 3281 2906 2969 
z
M 947 1747 
Q 947 1113 1208 752 
Q 1469 391 1925 391 
Q 2381 391 2643 752 
Q 2906 1113 2906 1747 
Q 2906 2381 2643 2742 
Q 2381 3103 1925 3103 
Q 1469 3103 1208 2742 
Q 947 2381 947 1747 
z
" transform="scale(0.015625)"/>
      <path id="DejaVuSans-e" d="M 2944 4013 
L 2944 2272 
L 4684 2272 
L 4684 1741 
L 2944 1741 
L 2944 0 
L 2419 0 
L 2419 1741 
L 678 1741 
L 678 2272 
L 2419 2272 
L 2419 4013 
L 2944 4013 
z
" transform="scale(0.015625)"/>
      <path id="DejaVuSans-1c" d="M 703 97 
L 703 672 
Q 941 559 1184 500 
Q 1428 441 1663 441 
Q 2288 441 2617 861 
Q 2947 1281 2994 2138 
Q 2813 1869 2534 1725 
Q 2256 1581 1919 1581 
Q 1219 1581 811 2004 
Q 403 2428 403 3163 
Q 403 3881 828 4315 
Q 1253 4750 1959 4750 
Q 2769 4750 3195 4129 
Q 3622 3509 3622 2328 
Q 3622 1225 3098 567 
Q 2575 -91 1691 -91 
Q 1453 -91 1209 -44 
Q 966 3 703 97 
z
M 1959 2075 
Q 2384 2075 2632 2365 
Q 2881 2656 2881 3163 
Q 2881 3666 2632 3958 
Q 2384 4250 1959 4250 
Q 1534 4250 1286 3958 
Q 1038 3666 1038 3163 
Q 1038 2656 1286 2365 
Q 1534 2075 1959 2075 
z
" transform="scale(0.015625)"/>
     </defs>
     <use xlink:href="#DejaVuSans-59"/>
     <use xlink:href="#DejaVuSans-48" transform="translate(59.1875 0)"/>
     <use xlink:href="#DejaVuSans-4f" transform="translate(120.71875 0)"/>
     <use xlink:href="#DejaVuSans-52" transform="translate(148.5 0)"/>
     <use xlink:href="#DejaVuSans-46" transform="translate(209.6875 0)"/>
     <use xlink:href="#DejaVuSans-4c" transform="translate(264.671875 0)"/>
     <use xlink:href="#DejaVuSans-57" transform="translate(292.453125 0)"/>
     <use xlink:href="#DejaVuSans-5c" transform="translate(331.65625 0)"/>
     <use xlink:href="#DejaVuSans-3" transform="translate(390.84375 0)"/>
     <use xlink:href="#DejaVuSans-20" transform="translate(422.625 0)"/>
     <use xlink:href="#DejaVuSans-3" transform="translate(506.421875 0)"/>
     <use xlink:href="#DejaVuSans-53" transform="translate(538.203125 0)"/>
     <use xlink:href="#DejaVuSans-52" transform="translate(601.6875 0)"/>
     <use xlink:href="#DejaVuSans-56" transform="translate(662.875 0)"/>
     <use xlink:href="#DejaVuSans-3" transform="translate(714.96875 0)"/>
     <use xlink:href="#DejaVuSans-55" transform="translate(746.75 0)"/>
     <use xlink:href="#DejaVuSans-52" transform="translate(785.65625 0)"/>
     <use xlink:href="#DejaVuSans-57" transform="translate(846.84375 0)"/>
     <use xlink:href="#DejaVuSans-44" transform="translate(886.046875 0)"/>
     <use xlink:href="#DejaVuSans-57" transform="translate(947.328125 0)"/>
     <use xlink:href="#DejaVuSans-48" transform="translate(986.53125 0)"/>
     <use xlink:href="#DejaVuSans-47" transform="translate(1048.0625 0)"/>
     <use xlink:href="#DejaVuSans-3" transform="translate(1111.546875 0)"/>
     <use xlink:href="#DejaVuSans-e" transform="translate(1143.328125 0)"/>
     <use xlink:href="#DejaVuSans-1c" transform="translate(1227.125 0)"/>
     <use xlink:href="#DejaVuSans-13" transform="translate(1290.75 0)"/>
    </g>
   </g>
   <g id="text_17">
    <!-- Velocity is always 90 deg ahead, tangent to circle -->
    <g transform="translate(16.133494 28.099943) scale(0.12 -0.12)">
     <defs>
      <path id="DejaVuSans-39" d="M 1831 0 
L 50 4666 
L 709 4666 
L 2188 738 
L 3669 4666 
L 4325 4666 
L 2547 0 
L 1831 0 
z
" transform="scale(0.015625)"/>
      <path id="DejaVuSans-5a" d="M 269 3500 
L 844 3500 
L 1563 769 
L 2278 3500 
L 2956 3500 
L 3675 769 
L 4391 3500 
L 4966 3500 
L 4050 0 
L 3372 0 
L 2619 2869 
L 1863 0 
L 1184 0 
L 269 3500 
z
" transform="scale(0.015625)"/>
      <path id="DejaVuSans-4a" d="M 2906 1791 
Q 2906 2416 2648 2759 
Q 2391 3103 1925 3103 
Q 1463 3103 1205 2759 
Q 947 2416 947 1791 
Q 947 1169 1205 825 
Q 1463 481 1925 481 
Q 2391 481 2648 825 
Q 2906 1169 2906 1791 
z
M 3481 434 
Q 3481 -459 3084 -895 
Q 2688 -1331 1869 -1331 
Q 1566 -1331 1297 -1286 
Q 1028 -1241 775 -1147 
L 775 -588 
Q 1028 -725 1275 -790 
Q 1522 -856 1778 -856 
Q 2344 -856 2625 -561 
Q 2906 -266 2906 331 
L 2906 616 
Q 2728 306 2450 153 
Q 2172 0 1784 0 
Q 1141 0 747 490 
Q 353 981 353 1791 
Q 353 2603 747 3093 
Q 1141 3584 1784 3584 
Q 2172 3584 2450 3431 
Q 2728 3278 2906 2969 
L 2906 3500 
L 3481 3500 
L 3481 434 
z
" transform="scale(0.015625)"/>
      <path id="DejaVuSans-4b" d="M 3513 2113 
L 3513 0 
L 2938 0 
L 2938 2094 
Q 2938 2591 2744 2837 
Q 2550 3084 2163 3084 
Q 1697 3084 1428 2787 
Q 1159 2491 1159 1978 
L 1159 0 
L 581 0 
L 581 4863 
L 1159 4863 
L 1159 2956 
Q 1366 3272 1645 3428 
Q 1925 3584 2291 3584 
Q 2894 3584 3203 3211 
Q 3513 2838 3513 2113 
z
" transform="scale(0.015625)"/>
      <path id="DejaVuSans-f" d="M 750 794 
L 1409 794 
L 1409 256 
L 897 -744 
L 494 -744 
L 750 256 
L 750 794 
z
" transform="scale(0.015625)"/>
     </defs>
     <use xlink:href="#DejaVuSans-39"/>
     <use xlink:href="#DejaVuSans-48" transform="translate(60.640625 0)"/>
     <use xlink:href="#DejaVuSans-4f" transform="translate(122.171875 0)"/>
     <use xlink:href="#DejaVuSans-52" transform="translate(149.953125 0)"/>
     <use xlink:href="#DejaVuSans-46" transform="translate(211.140625 0)"/>
     <use xlink:href="#DejaVuSans-4c" transform="translate(266.125 0)"/>
     <use xlink:href="#DejaVuSans-57" transform="translate(293.90625 0)"/>
     <use xlink:href="#DejaVuSans-5c" transform="translate(333.109375 0)"/>
     <use xlink:href="#DejaVuSans-3" transform="translate(392.296875 0)"/>
     <use xlink:href="#DejaVuSans-4c" transform="translate(424.078125 0)"/>
     <use xlink:href="#DejaVuSans-56" transform="translate(451.859375 0)"/>
     <use xlink:href="#DejaVuSans-3" transform="translate(503.953125 0)"/>
     <use xlink:href="#DejaVuSans-44" transform="translate(535.734375 0)"/>
     <use xlink:href="#DejaVuSans-4f" transform="translate(597.015625 0)"/>
     <use xlink:href="#DejaVuSans-5a" transform="translate(624.796875 0)"/>
     <use xlink:href="#DejaVuSans-44" transform="translate(706.578125 0)"/>
     <use xlink:href="#DejaVuSans-5c" transform="translate(767.859375 0)"/>
     <use xlink:href="#DejaVuSans-56" transform="translate(827.046875 0)"/>
     <use xlink:href="#DejaVuSans-3" transform="translate(879.140625 0)"/>
     <use xlink:href="#DejaVuSans-1c" transform="translate(910.921875 0)"/>
     <use xlink:href="#DejaVuSans-13" transform="translate(974.546875 0)"/>
     <use xlink:href="#DejaVuSans-3" transform="translate(1038.171875 0)"/>
     <use xlink:href="#DejaVuSans-47" transform="translate(1069.953125 0)"/>
     <use xlink:href="#DejaVuSans-48" transform="translate(1133.4375 0)"/>
     <use xlink:href="#DejaVuSans-4a" transform="translate(1194.96875 0)"/>
     <use xlink:href="#DejaVuSans-3" transform="translate(1258.453125 0)"/>
     <use xlink:href="#DejaVuSans-44" transform="translate(1290.234375 0)"/>
     <use xlink:href="#DejaVuSans-4b" transform="translate(1351.515625 0)"/>
     <use xlink:href="#DejaVuSans-48" transform="translate(1414.890625 0)"/>
     <use xlink:href="#DejaVuSans-44" transform="translate(1476.421875 0)"/>
     <use xlink:href="#DejaVuSans-47" transform="translate(1537.703125 0)"/>
     <use xlink:href="#DejaVuSans-f" transform="translate(1601.1875 0)"/>
     <use xlink:href="#DejaVuSans-3" transform="translate(1632.96875 0)"/>
     <use xlink:href="#DejaVuSans-57" transform="translate(1664.75 0)"/>
     <use xlink:href="#DejaVuSans-44" transform="translate(1703.953125 0)"/>
     <use xlink:href="#DejaVuSans-51" transform="translate(1765.234375 0)"/>
     <use xlink:href="#DejaVuSans-4a" transform="translate(1828.609375 0)"/>
     <use xlink:href="#DejaVuSans-48" transform="translate(1892.09375 0)"/>
     <use xlink:href="#DejaVuSans-51" transform="translate(1953.625 0)"/>
     <use xlink:href="#DejaVuSans-57" transform="translate(2017 0)"/>
     <use xlink:href="#DejaVuSans-3" transform="translate(2056.203125 0)"/>
     <use xlink:href="#DejaVuSans-57" transform="translate(2087.984375 0)"/>
     <use xlink:href="#DejaVuSans-52" transform="translate(2127.1875 0)"/>
     <use xlink:href="#DejaVuSans-3" transform="translate(2188.375 0)"/>
     <use xlink:href="#DejaVuSans-46" transform="translate(2220.15625 0)"/>
     <use xlink:href="#DejaVuSans-4c" transform="translate(2275.140625 0)"/>
     <use xlink:href="#DejaVuSans-55" transform="translate(2302.921875 0)"/>
     <use xlink:href="#DejaVuSans-46" transform="translate(2341.828125 0)"/>
     <use xlink:href="#DejaVuSans-4f" transform="translate(2396.8125 0)"/>
     <use xlink:href="#DejaVuSans-48" transform="translate(2424.59375 0)"/>
    </g>
   </g>
  </g>
  <g id="axes_2">
   <g id="patch_13">
    <path d="M 342.846449 299.518125 
L 596.482812 299.518125 
L 596.482812 22.318125 
L 342.846449 22.318125 
z
" style="fill: #ffffff"/>
   </g>
   <g id="matplotlib.axis_3">
    <g id="xtick_8">
     <g id="line2d_16">
      <g>
       <use xlink:href="#m2a94af678a" x="354.375374" y="299.518125" style="stroke: #000000; stroke-width: 0.8"/>
      </g>
     </g>
     <g id="text_18">
      <!-- −1.5 -->
      <g transform="translate(342.233968 314.115781) scale(0.1 -0.1)">
       <use xlink:href="#DejaVuSans-c9c"/>
       <use xlink:href="#DejaVuSans-14" transform="translate(83.796875 0)"/>
       <use xlink:href="#DejaVuSans-11" transform="translate(147.421875 0)"/>
       <use xlink:href="#DejaVuSans-18" transform="translate(179.203125 0)"/>
      </g>
     </g>
    </g>
    <g id="xtick_9">
     <g id="line2d_17">
      <g>
       <use xlink:href="#m2a94af678a" x="392.805127" y="299.518125" style="stroke: #000000; stroke-width: 0.8"/>
      </g>
     </g>
     <g id="text_19">
      <!-- −1.0 -->
      <g transform="translate(380.66372 314.115781) scale(0.1 -0.1)">
       <use xlink:href="#DejaVuSans-c9c"/>
       <use xlink:href="#DejaVuSans-14" transform="translate(83.796875 0)"/>
       <use xlink:href="#DejaVuSans-11" transform="translate(147.421875 0)"/>
       <use xlink:href="#DejaVuSans-13" transform="translate(179.203125 0)"/>
      </g>
     </g>
    </g>
    <g id="xtick_10">
     <g id="line2d_18">
      <g>
       <use xlink:href="#m2a94af678a" x="431.234879" y="299.518125" style="stroke: #000000; stroke-width: 0.8"/>
      </g>
     </g>
     <g id="text_20">
      <!-- −0.5 -->
      <g transform="translate(419.093472 314.115781) scale(0.1 -0.1)">
       <use xlink:href="#DejaVuSans-c9c"/>
       <use xlink:href="#DejaVuSans-13" transform="translate(83.796875 0)"/>
       <use xlink:href="#DejaVuSans-11" transform="translate(147.421875 0)"/>
       <use xlink:href="#DejaVuSans-18" transform="translate(179.203125 0)"/>
      </g>
     </g>
    </g>
    <g id="xtick_11">
     <g id="line2d_19">
      <g>
       <use xlink:href="#m2a94af678a" x="469.664631" y="299.518125" style="stroke: #000000; stroke-width: 0.8"/>
      </g>
     </g>
     <g id="text_21">
      <!-- 0.0 -->
      <g transform="translate(461.713068 314.115781) scale(0.1 -0.1)">
       <use xlink:href="#DejaVuSans-13"/>
       <use xlink:href="#DejaVuSans-11" transform="translate(63.625 0)"/>
       <use xlink:href="#DejaVuSans-13" transform="translate(95.40625 0)"/>
      </g>
     </g>
    </g>
    <g id="xtick_12">
     <g id="line2d_20">
      <g>
       <use xlink:href="#m2a94af678a" x="508.094383" y="299.518125" style="stroke: #000000; stroke-width: 0.8"/>
      </g>
     </g>
     <g id="text_22">
      <!-- 0.5 -->
      <g transform="translate(500.14282 314.115781) scale(0.1 -0.1)">
       <use xlink:href="#DejaVuSans-13"/>
       <use xlink:href="#DejaVuSans-11" transform="translate(63.625 0)"/>
       <use xlink:href="#DejaVuSans-18" transform="translate(95.40625 0)"/>
      </g>
     </g>
    </g>
    <g id="xtick_13">
     <g id="line2d_21">
      <g>
       <use xlink:href="#m2a94af678a" x="546.524135" y="299.518125" style="stroke: #000000; stroke-width: 0.8"/>
      </g>
     </g>
     <g id="text_23">
      <!-- 1.0 -->
      <g transform="translate(538.572572 314.115781) scale(0.1 -0.1)">
       <use xlink:href="#DejaVuSans-14"/>
       <use xlink:href="#DejaVuSans-11" transform="translate(63.625 0)"/>
       <use xlink:href="#DejaVuSans-13" transform="translate(95.40625 0)"/>
      </g>
     </g>
    </g>
    <g id="xtick_14">
     <g id="line2d_22">
      <g>
       <use xlink:href="#m2a94af678a" x="584.953887" y="299.518125" style="stroke: #000000; stroke-width: 0.8"/>
      </g>
     </g>
     <g id="text_24">
      <!-- 1.5 -->
      <g transform="translate(577.002324 314.115781) scale(0.1 -0.1)">
       <use xlink:href="#DejaVuSans-14"/>
       <use xlink:href="#DejaVuSans-11" transform="translate(63.625 0)"/>
       <use xlink:href="#DejaVuSans-18" transform="translate(95.40625 0)"/>
      </g>
     </g>
    </g>
    <g id="text_25">
     <!-- h (radians) -->
     <g transform="translate(442.484943 328.116563) scale(0.1 -0.1)">
      <defs>
       <path id="DejaVuSans-b" d="M 1984 4856 
Q 1566 4138 1362 3434 
Q 1159 2731 1159 2009 
Q 1159 1288 1364 580 
Q 1569 -128 1984 -844 
L 1484 -844 
Q 1016 -109 783 600 
Q 550 1309 550 2009 
Q 550 2706 781 3412 
Q 1013 4119 1484 4856 
L 1984 4856 
z
" transform="scale(0.015625)"/>
       <path id="DejaVuSans-c" d="M 513 4856 
L 1013 4856 
Q 1481 4119 1714 3412 
Q 1947 2706 1947 2009 
Q 1947 1309 1714 600 
Q 1481 -109 1013 -844 
L 513 -844 
Q 928 -128 1133 580 
Q 1338 1288 1338 2009 
Q 1338 2731 1133 3434 
Q 928 4138 513 4856 
z
" transform="scale(0.015625)"/>
      </defs>
      <use xlink:href="#DejaVuSans-4b"/>
      <use xlink:href="#DejaVuSans-3" transform="translate(63.375 0)"/>
      <use xlink:href="#DejaVuSans-b" transform="translate(95.15625 0)"/>
      <use xlink:href="#DejaVuSans-55" transform="translate(134.171875 0)"/>
      <use xlink:href="#DejaVuSans-44" transform="translate(175.28125 0)"/>
      <use xlink:href="#DejaVuSans-47" transform="translate(236.5625 0)"/>
      <use xlink:href="#DejaVuSans-4c" transform="translate(300.046875 0)"/>
      <use xlink:href="#DejaVuSans-44" transform="translate(327.828125 0)"/>
      <use xlink:href="#DejaVuSans-51" transform="translate(389.109375 0)"/>
      <use xlink:href="#DejaVuSans-56" transform="translate(452.484375 0)"/>
      <use xlink:href="#DejaVuSans-c" transform="translate(504.578125 0)"/>
     </g>
    </g>
   </g>
   <g id="matplotlib.axis_4">
    <g id="ytick_8">
     <g id="line2d_23">
      <g>
       <use xlink:href="#m9bc96cc49c" x="342.846449" y="284.928651" style="stroke: #000000; stroke-width: 0.8"/>
      </g>
     </g>
     <g id="text_26">
      <!-- −0.50 -->
      <g transform="translate(305.201136 288.727479) scale(0.1 -0.1)">
       <use xlink:href="#DejaVuSans-c9c"/>
       <use xlink:href="#DejaVuSans-13" transform="translate(83.796875 0)"/>
       <use xlink:href="#DejaVuSans-11" transform="translate(147.421875 0)"/>
       <use xlink:href="#DejaVuSans-18" transform="translate(179.203125 0)"/>
       <use xlink:href="#DejaVuSans-13" transform="translate(242.828125 0)"/>
      </g>
     </g>
    </g>
    <g id="ytick_9">
     <g id="line2d_24">
      <g>
       <use xlink:href="#m9bc96cc49c" x="342.846449" y="248.454967" style="stroke: #000000; stroke-width: 0.8"/>
      </g>
     </g>
     <g id="text_27">
      <!-- −0.25 -->
      <g transform="translate(305.201136 252.253795) scale(0.1 -0.1)">
       <defs>
        <path id="DejaVuSans-15" d="M 1228 531 
L 3431 531 
L 3431 0 
L 469 0 
L 469 531 
Q 828 903 1448 1529 
Q 2069 2156 2228 2338 
Q 2531 2678 2651 2914 
Q 2772 3150 2772 3378 
Q 2772 3750 2511 3984 
Q 2250 4219 1831 4219 
Q 1534 4219 1204 4116 
Q 875 4013 500 3803 
L 500 4441 
Q 881 4594 1212 4672 
Q 1544 4750 1819 4750 
Q 2544 4750 2975 4387 
Q 3406 4025 3406 3419 
Q 3406 3131 3298 2873 
Q 3191 2616 2906 2266 
Q 2828 2175 2409 1742 
Q 1991 1309 1228 531 
z
" transform="scale(0.015625)"/>
       </defs>
       <use xlink:href="#DejaVuSans-c9c"/>
       <use xlink:href="#DejaVuSans-13" transform="translate(83.796875 0)"/>
       <use xlink:href="#DejaVuSans-11" transform="translate(147.421875 0)"/>
       <use xlink:href="#DejaVuSans-15" transform="translate(179.203125 0)"/>
       <use xlink:href="#DejaVuSans-18" transform="translate(242.828125 0)"/>
      </g>
     </g>
    </g>
    <g id="ytick_10">
     <g id="line2d_25">
      <g>
       <use xlink:href="#m9bc96cc49c" x="342.846449" y="211.981283" style="stroke: #000000; stroke-width: 0.8"/>
      </g>
     </g>
     <g id="text_28">
      <!-- 0.00 -->
      <g transform="translate(313.580824 215.780111) scale(0.1 -0.1)">
       <use xlink:href="#DejaVuSans-13"/>
       <use xlink:href="#DejaVuSans-11" transform="translate(63.625 0)"/>
       <use xlink:href="#DejaVuSans-13" transform="translate(95.40625 0)"/>
       <use xlink:href="#DejaVuSans-13" transform="translate(159.03125 0)"/>
      </g>
     </g>
    </g>
    <g id="ytick_11">
     <g id="line2d_26">
      <g>
       <use xlink:href="#m9bc96cc49c" x="342.846449" y="175.507599" style="stroke: #000000; stroke-width: 0.8"/>
      </g>
     </g>
     <g id="text_29">
      <!-- 0.25 -->
      <g transform="translate(313.580824 179.306427) scale(0.1 -0.1)">
       <use xlink:href="#DejaVuSans-13"/>
       <use xlink:href="#DejaVuSans-11" transform="translate(63.625 0)"/>
       <use xlink:href="#DejaVuSans-15" transform="translate(95.40625 0)"/>
       <use xlink:href="#DejaVuSans-18" transform="translate(159.03125 0)"/>
      </g>
     </g>
    </g>
    <g id="ytick_12">
     <g id="line2d_27">
      <g>
       <use xlink:href="#m9bc96cc49c" x="342.846449" y="139.033914" style="stroke: #000000; stroke-width: 0.8"/>
      </g>
     </g>
     <g id="text_30">
      <!-- 0.50 -->
      <g transform="translate(313.580824 142.832743) scale(0.1 -0.1)">
       <use xlink:href="#DejaVuSans-13"/>
       <use xlink:href="#DejaVuSans-11" transform="translate(63.625 0)"/>
       <use xlink:href="#DejaVuSans-18" transform="translate(95.40625 0)"/>
       <use xlink:href="#DejaVuSans-13" transform="translate(159.03125 0)"/>
      </g>
     </g>
    </g>
    <g id="ytick_13">
     <g id="line2d_28">
      <g>
       <use xlink:href="#m9bc96cc49c" x="342.846449" y="102.56023" style="stroke: #000000; stroke-width: 0.8"/>
      </g>
     </g>
     <g id="text_31">
      <!-- 0.75 -->
      <g transform="translate(313.580824 106.359058) scale(0.1 -0.1)">
       <defs>
        <path id="DejaVuSans-1a" d="M 525 4666 
L 3525 4666 
L 3525 4397 
L 1831 0 
L 1172 0 
L 2766 4134 
L 525 4134 
L 525 4666 
z
" transform="scale(0.015625)"/>
       </defs>
       <use xlink:href="#DejaVuSans-13"/>
       <use xlink:href="#DejaVuSans-11" transform="translate(63.625 0)"/>
       <use xlink:href="#DejaVuSans-1a" transform="translate(95.40625 0)"/>
       <use xlink:href="#DejaVuSans-18" transform="translate(159.03125 0)"/>
      </g>
     </g>
    </g>
    <g id="ytick_14">
     <g id="line2d_29">
      <g>
       <use xlink:href="#m9bc96cc49c" x="342.846449" y="66.086546" style="stroke: #000000; stroke-width: 0.8"/>
      </g>
     </g>
     <g id="text_32">
      <!-- 1.00 -->
      <g transform="translate(313.580824 69.885374) scale(0.1 -0.1)">
       <use xlink:href="#DejaVuSans-14"/>
       <use xlink:href="#DejaVuSans-11" transform="translate(63.625 0)"/>
       <use xlink:href="#DejaVuSans-13" transform="translate(95.40625 0)"/>
       <use xlink:href="#DejaVuSans-13" transform="translate(159.03125 0)"/>
      </g>
     </g>
    </g>
    <g id="ytick_15">
     <g id="line2d_30">
      <g>
       <use xlink:href="#m9bc96cc49c" x="342.846449" y="29.612862" style="stroke: #000000; stroke-width: 0.8"/>
      </g>
     </g>
     <g id="text_33">
      <!-- 1.25 -->
      <g transform="translate(313.580824 33.41169) scale(0.1 -0.1)">
       <use xlink:href="#DejaVuSans-14"/>
       <use xlink:href="#DejaVuSans-11" transform="translate(63.625 0)"/>
       <use xlink:href="#DejaVuSans-15" transform="translate(95.40625 0)"/>
       <use xlink:href="#DejaVuSans-18" transform="translate(159.03125 0)"/>
      </g>
     </g>
    </g>
   </g>
   <g id="line2d_31">
    <path d="M 354.375374 114.961771 
L 363.04374 108.577758 
L 371.134214 102.889318 
L 378.646797 97.873233 
L 385.581489 93.495144 
L 392.516181 89.380525 
L 398.872982 85.857044 
L 405.229783 82.585661 
L 411.586584 79.579592 
L 417.365494 77.087303 
L 423.144404 74.832725 
L 428.923315 72.823443 
L 434.702225 71.066227 
L 439.903244 69.705167 
L 445.104263 68.556821 
L 450.305282 67.624336 
L 455.506301 66.910268 
L 460.70732 66.416576 
L 465.908339 66.144617 
L 471.109358 66.095137 
L 476.310377 66.268273 
L 481.511396 66.663548 
L 486.712415 67.279877 
L 491.913435 68.115568 
L 497.114454 69.16833 
L 502.315473 70.435276 
L 507.516492 71.912936 
L 513.295402 73.79698 
L 519.074312 75.929807 
L 524.853222 78.304238 
L 530.632132 80.912294 
L 536.988933 84.040534 
L 543.345734 87.428205 
L 549.702535 91.061643 
L 556.637227 95.288498 
L 563.57192 99.770287 
L 571.084503 104.888557 
L 579.174977 110.674668 
L 584.953887 114.961771 
L 584.953887 114.961771 
" clip-path="url(#pe88e0537dc)" style="fill: none; stroke: #1f77b4; stroke-width: 2; stroke-linecap: square"/>
   </g>
   <g id="line2d_32">
    <path d="M 354.375374 302.364317 
L 360.154285 299.481923 
L 365.933195 296.367227 
L 372.289996 292.680762 
L 378.646797 288.731386 
L 385.003598 284.530329 
L 391.93829 279.674861 
L 398.872982 274.552079 
L 406.385565 268.722717 
L 414.476039 262.148585 
L 423.144404 254.80208 
L 432.390661 246.670077 
L 442.792699 237.226698 
L 456.084192 224.836981 
L 501.737582 181.980009 
L 512.13962 172.683848 
L 521.385876 164.717337 
L 529.47635 158.021563 
L 537.566824 151.619423 
L 545.079407 145.966503 
L 552.014099 141.019915 
L 558.948791 136.352462 
L 565.305593 132.333284 
L 571.662394 128.574069 
L 578.019195 125.0852 
L 583.798105 122.15585 
L 584.953887 121.598249 
L 584.953887 121.598249 
" clip-path="url(#pe88e0537dc)" style="fill: none; stroke: #d62728; stroke-width: 2; stroke-linecap: square"/>
   </g>
   <g id="line2d_33">
    <path d="M 342.846449 66.086546 
L 596.482812 66.086546 
" clip-path="url(#pe88e0537dc)" style="fill: none; stroke-dasharray: 2.96,1.28; stroke-dashoffset: 0; stroke: #b2b2b2; stroke-width: 0.8"/>
   </g>
   <g id="line2d_34">
    <path d="M 342.846449 211.981283 
L 596.482812 211.981283 
" clip-path="url(#pe88e0537dc)" style="fill: none; stroke-dasharray: 2.96,1.28; stroke-dashoffset: 0; stroke: #b2b2b2; stroke-width: 0.8"/>
   </g>
   <g id="patch_14">
    <path d="M 342.846449 299.518125 
L 342.846449 22.318125 
" style="fill: none; stroke: #000000; stroke-width: 0.8; stroke-linejoin: miter; stroke-linecap: square"/>
   </g>
   <g id="patch_15">
    <path d="M 596.482812 299.518125 
L 596.482812 22.318125 
" style="fill: none; stroke: #000000; stroke-width: 0.8; stroke-linejoin: miter; stroke-linecap: square"/>
   </g>
   <g id="patch_16">
    <path d="M 342.846449 299.518125 
L 596.482812 299.518125 
" style="fill: none; stroke: #000000; stroke-width: 0.8; stroke-linejoin: miter; stroke-linecap: square"/>
   </g>
   <g id="patch_17">
    <path d="M 342.846449 22.318125 
L 596.482812 22.318125 
" style="fill: none; stroke: #000000; stroke-width: 0.8; stroke-linejoin: miter; stroke-linecap: square"/>
   </g>
   <g id="text_34">
    <!-- The two limits behind sin' = cos -->
    <g transform="translate(373.861506 16.318125) scale(0.12 -0.12)">
     <defs>
      <path id="DejaVuSans-37" d="M -19 4666 
L 3928 4666 
L 3928 4134 
L 2272 4134 
L 2272 0 
L 1638 0 
L 1638 4134 
L -19 4134 
L -19 4666 
z
" transform="scale(0.015625)"/>
      <path id="DejaVuSans-50" d="M 3328 2828 
Q 3544 3216 3844 3400 
Q 4144 3584 4550 3584 
Q 5097 3584 5394 3201 
Q 5691 2819 5691 2113 
L 5691 0 
L 5113 0 
L 5113 2094 
Q 5113 2597 4934 2840 
Q 4756 3084 4391 3084 
Q 3944 3084 3684 2787 
Q 3425 2491 3425 1978 
L 3425 0 
L 2847 0 
L 2847 2094 
Q 2847 2600 2669 2842 
Q 2491 3084 2119 3084 
Q 1678 3084 1418 2786 
Q 1159 2488 1159 1978 
L 1159 0 
L 581 0 
L 581 3500 
L 1159 3500 
L 1159 2956 
Q 1356 3278 1631 3431 
Q 1906 3584 2284 3584 
Q 2666 3584 2933 3390 
Q 3200 3197 3328 2828 
z
" transform="scale(0.015625)"/>
      <path id="DejaVuSans-45" d="M 3116 1747 
Q 3116 2381 2855 2742 
Q 2594 3103 2138 3103 
Q 1681 3103 1420 2742 
Q 1159 2381 1159 1747 
Q 1159 1113 1420 752 
Q 1681 391 2138 391 
Q 2594 391 2855 752 
Q 3116 1113 3116 1747 
z
M 1159 2969 
Q 1341 3281 1617 3432 
Q 1894 3584 2278 3584 
Q 2916 3584 3314 3078 
Q 3713 2572 3713 1747 
Q 3713 922 3314 415 
Q 2916 -91 2278 -91 
Q 1894 -91 1617 61 
Q 1341 213 1159 525 
L 1159 0 
L 581 0 
L 581 4863 
L 1159 4863 
L 1159 2969 
z
" transform="scale(0.015625)"/>
      <path id="DejaVuSans-a" d="M 1147 4666 
L 1147 2931 
L 616 2931 
L 616 4666 
L 1147 4666 
z
" transform="scale(0.015625)"/>
     </defs>
     <use xlink:href="#DejaVuSans-37"/>
     <use xlink:href="#DejaVuSans-4b" transform="translate(61.078125 0)"/>
     <use xlink:href="#DejaVuSans-48" transform="translate(124.453125 0)"/>
     <use xlink:href="#DejaVuSans-3" transform="translate(185.984375 0)"/>
     <use xlink:href="#DejaVuSans-57" transform="translate(217.765625 0)"/>
     <use xlink:href="#DejaVuSans-5a" transform="translate(256.96875 0)"/>
     <use xlink:href="#DejaVuSans-52" transform="translate(338.75 0)"/>
     <use xlink:href="#DejaVuSans-3" transform="translate(399.9375 0)"/>
     <use xlink:href="#DejaVuSans-4f" transform="translate(431.71875 0)"/>
     <use xlink:href="#DejaVuSans-4c" transform="translate(459.5 0)"/>
     <use xlink:href="#DejaVuSans-50" transform="translate(487.28125 0)"/>
     <use xlink:href="#DejaVuSans-4c" transform="translate(584.6875 0)"/>
     <use xlink:href="#DejaVuSans-57" transform="translate(612.46875 0)"/>
     <use xlink:href="#DejaVuSans-56" transform="translate(651.671875 0)"/>
     <use xlink:href="#DejaVuSans-3" transform="translate(703.765625 0)"/>
     <use xlink:href="#DejaVuSans-45" transform="translate(735.546875 0)"/>
     <use xlink:href="#DejaVuSans-48" transform="translate(799.03125 0)"/>
     <use xlink:href="#DejaVuSans-4b" transform="translate(860.5625 0)"/>
     <use xlink:href="#DejaVuSans-4c" transform="translate(923.9375 0)"/>
     <use xlink:href="#DejaVuSans-51" transform="translate(951.71875 0)"/>
     <use xlink:href="#DejaVuSans-47" transform="translate(1015.09375 0)"/>
     <use xlink:href="#DejaVuSans-3" transform="translate(1078.578125 0)"/>
     <use xlink:href="#DejaVuSans-56" transform="translate(1110.359375 0)"/>
     <use xlink:href="#DejaVuSans-4c" transform="translate(1162.453125 0)"/>
     <use xlink:href="#DejaVuSans-51" transform="translate(1190.234375 0)"/>
     <use xlink:href="#DejaVuSans-a" transform="translate(1253.609375 0)"/>
     <use xlink:href="#DejaVuSans-3" transform="translate(1281.09375 0)"/>
     <use xlink:href="#DejaVuSans-20" transform="translate(1312.875 0)"/>
     <use xlink:href="#DejaVuSans-3" transform="translate(1396.671875 0)"/>
     <use xlink:href="#DejaVuSans-46" transform="translate(1428.453125 0)"/>
     <use xlink:href="#DejaVuSans-52" transform="translate(1483.4375 0)"/>
     <use xlink:href="#DejaVuSans-56" transform="translate(1544.625 0)"/>
    </g>
   </g>
   <g id="legend_1">
    <g id="patch_18">
     <path d="M 412.776193 295.018125 
L 526.553068 295.018125 
Q 528.353068 295.018125 528.353068 293.218125 
L 528.353068 267.116719 
Q 528.353068 265.316719 526.553068 265.316719 
L 412.776193 265.316719 
Q 410.976193 265.316719 410.976193 267.116719 
L 410.976193 293.218125 
Q 410.976193 295.018125 412.776193 295.018125 
z
" style="fill: #ffffff; opacity: 0.8; stroke: #cccccc; stroke-linejoin: miter"/>
    </g>
    <g id="line2d_35">
     <path d="M 414.576193 272.605313 
L 423.576193 272.605313 
L 432.576193 272.605313 
" style="fill: none; stroke: #1f77b4; stroke-width: 2; stroke-linecap: square"/>
    </g>
    <g id="text_35">
     <!-- sin h / h  -&gt; 1 -->
     <g transform="translate(439.776193 275.755313) scale(0.09 -0.09)">
      <defs>
       <path id="DejaVuSans-12" d="M 1625 4666 
L 2156 4666 
L 531 -594 
L 0 -594 
L 1625 4666 
z
" transform="scale(0.015625)"/>
       <path id="DejaVuSans-10" d="M 313 2009 
L 1997 2009 
L 1997 1497 
L 313 1497 
L 313 2009 
z
" transform="scale(0.015625)"/>
       <path id="DejaVuSans-21" d="M 678 3150 
L 678 3719 
L 4684 2266 
L 4684 1747 
L 678 294 
L 678 863 
L 3897 2003 
L 678 3150 
z
" transform="scale(0.015625)"/>
      </defs>
      <use xlink:href="#DejaVuSans-56"/>
      <use xlink:href="#DejaVuSans-4c" transform="translate(52.09375 0)"/>
      <use xlink:href="#DejaVuSans-51" transform="translate(79.875 0)"/>
      <use xlink:href="#DejaVuSans-3" transform="translate(143.25 0)"/>
      <use xlink:href="#DejaVuSans-4b" transform="translate(175.03125 0)"/>
      <use xlink:href="#DejaVuSans-3" transform="translate(238.40625 0)"/>
      <use xlink:href="#DejaVuSans-12" transform="translate(270.1875 0)"/>
      <use xlink:href="#DejaVuSans-3" transform="translate(303.875 0)"/>
      <use xlink:href="#DejaVuSans-4b" transform="translate(335.65625 0)"/>
      <use xlink:href="#DejaVuSans-3" transform="translate(399.03125 0)"/>
      <use xlink:href="#DejaVuSans-3" transform="translate(430.8125 0)"/>
      <use xlink:href="#DejaVuSans-10" transform="translate(462.59375 0)"/>
      <use xlink:href="#DejaVuSans-21" transform="translate(498.671875 0)"/>
      <use xlink:href="#DejaVuSans-3" transform="translate(582.46875 0)"/>
      <use xlink:href="#DejaVuSans-14" transform="translate(614.25 0)"/>
     </g>
    </g>
    <g id="line2d_36">
     <path d="M 414.576193 286.106016 
L 423.576193 286.106016 
L 432.576193 286.106016 
" style="fill: none; stroke: #d62728; stroke-width: 2; stroke-linecap: square"/>
    </g>
    <g id="text_36">
     <!-- (1 - cos h) / h  -&gt; 0 -->
     <g transform="translate(439.776193 289.256016) scale(0.09 -0.09)">
      <use xlink:href="#DejaVuSans-b"/>
      <use xlink:href="#DejaVuSans-14" transform="translate(39.015625 0)"/>
      <use xlink:href="#DejaVuSans-3" transform="translate(102.640625 0)"/>
      <use xlink:href="#DejaVuSans-10" transform="translate(134.421875 0)"/>
      <use xlink:href="#DejaVuSans-3" transform="translate(170.5 0)"/>
      <use xlink:href="#DejaVuSans-46" transform="translate(202.28125 0)"/>
      <use xlink:href="#DejaVuSans-52" transform="translate(257.265625 0)"/>
      <use xlink:href="#DejaVuSans-56" transform="translate(318.453125 0)"/>
      <use xlink:href="#DejaVuSans-3" transform="translate(370.546875 0)"/>
      <use xlink:href="#DejaVuSans-4b" transform="translate(402.328125 0)"/>
      <use xlink:href="#DejaVuSans-c" transform="translate(465.703125 0)"/>
      <use xlink:href="#DejaVuSans-3" transform="translate(504.71875 0)"/>
      <use xlink:href="#DejaVuSans-12" transform="translate(536.5 0)"/>
      <use xlink:href="#DejaVuSans-3" transform="translate(570.1875 0)"/>
      <use xlink:href="#DejaVuSans-4b" transform="translate(601.96875 0)"/>
      <use xlink:href="#DejaVuSans-3" transform="translate(665.34375 0)"/>
      <use xlink:href="#DejaVuSans-3" transform="translate(697.125 0)"/>
      <use xlink:href="#DejaVuSans-10" transform="translate(728.90625 0)"/>
      <use xlink:href="#DejaVuSans-21" transform="translate(764.984375 0)"/>
      <use xlink:href="#DejaVuSans-3" transform="translate(848.78125 0)"/>
      <use xlink:href="#DejaVuSans-13" transform="translate(880.5625 0)"/>
     </g>
    </g>
   </g>
  </g>
 </g>
 <defs>
  <clipPath id="p824d0abde6">
   <rect x="38.482813" y="34.099943" width="253.636364" height="253.636364"/>
  </clipPath>
  <clipPath id="pe88e0537dc">
   <rect x="342.846449" y="22.318125" width="253.636364" height="277.2"/>
  </clipPath>
 </defs>
</svg>
