<?xml version="1.0" encoding="utf-8" standalone="no"?>
<!DOCTYPE svg PUBLIC "-//W3C//DTD SVG 1.1//EN"
  "http://www.w3.org/Graphics/SVG/1.1/DTD/svg11.dtd">
<svg xmlns:xlink="http://www.w3.org/1999/xlink" width="557.07428pt" height="280.558125pt" viewBox="0 0 557.07428 280.558125" xmlns="http://www.w3.org/2000/svg" version="1.1">
 <metadata>
  <rdf:RDF xmlns:dc="http://purl.org/dc/elements/1.1/" xmlns:cc="http://creativecommons.org/ns#" xmlns:rdf="http://www.w3.org/1999/02/22-rdf-syntax-ns#">
   <cc:Work>
    <dc:type rdf:resource="http://purl.org/dc/dcmitype/StillImage"/>
    <dc:date>2026-06-13T14:54:54.727003</dc:date>
    <dc:format>image/svg+xml</dc:format>
    <dc:creator>
     <cc:Agent>
      <dc:title>Matplotlib v3.11.0, https://matplotlib.org/</dc:title>
     </cc:Agent>
    </dc:creator>
   </cc:Work>
  </rdf:RDF>
 </metadata>
 <defs>
  <style type="text/css">*{stroke-linejoin: round; stroke-linecap: butt}</style>
 </defs>
 <g id="figure_1">
  <g id="patch_1">
   <path d="M 0 280.558125 
L 557.07428 280.558125 
L 557.07428 0 
L 0 0 
z
" style="fill: #ffffff"/>
  </g>
  <g id="axes_1">
   <g id="patch_2">
    <path d="M 52.483594 242.358125 
L 420.485625 242.358125 
L 420.485625 22.318125 
L 52.483594 22.318125 
z
" style="fill: #ffffff"/>
   </g>
   <g id="matplotlib.axis_1">
    <g id="xtick_1">
     <g id="line2d_1">
      <defs>
       <path id="m360f131194" d="M 0 0 
L 0 3.5 
" style="stroke: #000000; stroke-width: 0.8"/>
      </defs>
      <g>
       <use xlink:href="#m360f131194" x="69.210959" y="242.358125" style="stroke: #000000; stroke-width: 0.8"/>
      </g>
     </g>
     <g id="text_1">
      <!-- 0 -->
      <g transform="translate(66.029709 256.955781) scale(0.1 -0.1)">
       <defs>
        <path id="DejaVuSans-13" d="M 2034 4250 
Q 1547 4250 1301 3770 
Q 1056 3291 1056 2328 
Q 1056 1369 1301 889 
Q 1547 409 2034 409 
Q 2525 409 2770 889 
Q 3016 1369 3016 2328 
Q 3016 3291 2770 3770 
Q 2525 4250 2034 4250 
z
M 2034 4750 
Q 2819 4750 3233 4129 
Q 3647 3509 3647 2328 
Q 3647 1150 3233 529 
Q 2819 -91 2034 -91 
Q 1250 -91 836 529 
Q 422 1150 422 2328 
Q 422 3509 836 4129 
Q 1250 4750 2034 4750 
z
" transform="scale(0.015625)"/>
       </defs>
       <use xlink:href="#DejaVuSans-13"/>
      </g>
     </g>
    </g>
    <g id="xtick_2">
     <g id="line2d_2">
      <g>
       <use xlink:href="#m360f131194" x="117.00343" y="242.358125" style="stroke: #000000; stroke-width: 0.8"/>
      </g>
     </g>
     <g id="text_2">
      <!-- 20 -->
      <g transform="translate(110.64093 256.955781) scale(0.1 -0.1)">
       <defs>
        <path id="DejaVuSans-15" d="M 1228 531 
L 3431 531 
L 3431 0 
L 469 0 
L 469 531 
Q 828 903 1448 1529 
Q 2069 2156 2228 2338 
Q 2531 2678 2651 2914 
Q 2772 3150 2772 3378 
Q 2772 3750 2511 3984 
Q 2250 4219 1831 4219 
Q 1534 4219 1204 4116 
Q 875 4013 500 3803 
L 500 4441 
Q 881 4594 1212 4672 
Q 1544 4750 1819 4750 
Q 2544 4750 2975 4387 
Q 3406 4025 3406 3419 
Q 3406 3131 3298 2873 
Q 3191 2616 2906 2266 
Q 2828 2175 2409 1742 
Q 1991 1309 1228 531 
z
" transform="scale(0.015625)"/>
       </defs>
       <use xlink:href="#DejaVuSans-15"/>
       <use xlink:href="#DejaVuSans-13" transform="translate(63.625 0)"/>
      </g>
     </g>
    </g>
    <g id="xtick_3">
     <g id="line2d_3">
      <g>
       <use xlink:href="#m360f131194" x="164.795902" y="242.358125" style="stroke: #000000; stroke-width: 0.8"/>
      </g>
     </g>
     <g id="text_3">
      <!-- 40 -->
      <g transform="translate(158.433402 256.955781) scale(0.1 -0.1)">
       <defs>
        <path id="DejaVuSans-17" d="M 2419 4116 
L 825 1625 
L 2419 1625 
L 2419 4116 
z
M 2253 4666 
L 3047 4666 
L 3047 1625 
L 3713 1625 
L 3713 1100 
L 3047 1100 
L 3047 0 
L 2419 0 
L 2419 1100 
L 313 1100 
L 313 1709 
L 2253 4666 
z
" transform="scale(0.015625)"/>
       </defs>
       <use xlink:href="#DejaVuSans-17"/>
       <use xlink:href="#DejaVuSans-13" transform="translate(63.625 0)"/>
      </g>
     </g>
    </g>
    <g id="xtick_4">
     <g id="line2d_4">
      <g>
       <use xlink:href="#m360f131194" x="212.588374" y="242.358125" style="stroke: #000000; stroke-width: 0.8"/>
      </g>
     </g>
     <g id="text_4">
      <!-- 60 -->
      <g transform="translate(206.225874 256.955781) scale(0.1 -0.1)">
       <defs>
        <path id="DejaVuSans-19" d="M 2113 2584 
Q 1688 2584 1439 2293 
Q 1191 2003 1191 1497 
Q 1191 994 1439 701 
Q 1688 409 2113 409 
Q 2538 409 2786 701 
Q 3034 994 3034 1497 
Q 3034 2003 2786 2293 
Q 2538 2584 2113 2584 
z
M 3366 4563 
L 3366 3988 
Q 3128 4100 2886 4159 
Q 2644 4219 2406 4219 
Q 1781 4219 1451 3797 
Q 1122 3375 1075 2522 
Q 1259 2794 1537 2939 
Q 1816 3084 2150 3084 
Q 2853 3084 3261 2657 
Q 3669 2231 3669 1497 
Q 3669 778 3244 343 
Q 2819 -91 2113 -91 
Q 1303 -91 875 529 
Q 447 1150 447 2328 
Q 447 3434 972 4092 
Q 1497 4750 2381 4750 
Q 2619 4750 2861 4703 
Q 3103 4656 3366 4563 
z
" transform="scale(0.015625)"/>
       </defs>
       <use xlink:href="#DejaVuSans-19"/>
       <use xlink:href="#DejaVuSans-13" transform="translate(63.625 0)"/>
      </g>
     </g>
    </g>
    <g id="xtick_5">
     <g id="line2d_5">
      <g>
       <use xlink:href="#m360f131194" x="260.380845" y="242.358125" style="stroke: #000000; stroke-width: 0.8"/>
      </g>
     </g>
     <g id="text_5">
      <!-- 80 -->
      <g transform="translate(254.018345 256.955781) scale(0.1 -0.1)">
       <defs>
        <path id="DejaVuSans-1b" d="M 2034 2216 
Q 1584 2216 1326 1975 
Q 1069 1734 1069 1313 
Q 1069 891 1326 650 
Q 1584 409 2034 409 
Q 2484 409 2743 651 
Q 3003 894 3003 1313 
Q 3003 1734 2745 1975 
Q 2488 2216 2034 2216 
z
M 1403 2484 
Q 997 2584 770 2862 
Q 544 3141 544 3541 
Q 544 4100 942 4425 
Q 1341 4750 2034 4750 
Q 2731 4750 3128 4425 
Q 3525 4100 3525 3541 
Q 3525 3141 3298 2862 
Q 3072 2584 2669 2484 
Q 3125 2378 3379 2068 
Q 3634 1759 3634 1313 
Q 3634 634 3220 271 
Q 2806 -91 2034 -91 
Q 1263 -91 848 271 
Q 434 634 434 1313 
Q 434 1759 690 2068 
Q 947 2378 1403 2484 
z
M 1172 3481 
Q 1172 3119 1398 2916 
Q 1625 2713 2034 2713 
Q 2441 2713 2670 2916 
Q 2900 3119 2900 3481 
Q 2900 3844 2670 4047 
Q 2441 4250 2034 4250 
Q 1625 4250 1398 4047 
Q 1172 3844 1172 3481 
z
" transform="scale(0.015625)"/>
       </defs>
       <use xlink:href="#DejaVuSans-1b"/>
       <use xlink:href="#DejaVuSans-13" transform="translate(63.625 0)"/>
      </g>
     </g>
    </g>
    <g id="xtick_6">
     <g id="line2d_6">
      <g>
       <use xlink:href="#m360f131194" x="308.173317" y="242.358125" style="stroke: #000000; stroke-width: 0.8"/>
      </g>
     </g>
     <g id="text_6">
      <!-- 100 -->
      <g transform="translate(298.629567 256.955781) scale(0.1 -0.1)">
       <defs>
        <path id="DejaVuSans-14" d="M 794 531 
L 1825 531 
L 1825 4091 
L 703 3866 
L 703 4441 
L 1819 4666 
L 2450 4666 
L 2450 531 
L 3481 531 
L 3481 0 
L 794 0 
L 794 531 
z
" transform="scale(0.015625)"/>
       </defs>
       <use xlink:href="#DejaVuSans-14"/>
       <use xlink:href="#DejaVuSans-13" transform="translate(63.625 0)"/>
       <use xlink:href="#DejaVuSans-13" transform="translate(127.25 0)"/>
      </g>
     </g>
    </g>
    <g id="xtick_7">
     <g id="line2d_7">
      <g>
       <use xlink:href="#m360f131194" x="355.965789" y="242.358125" style="stroke: #000000; stroke-width: 0.8"/>
      </g>
     </g>
     <g id="text_7">
      <!-- 120 -->
      <g transform="translate(346.422039 256.955781) scale(0.1 -0.1)">
       <use xlink:href="#DejaVuSans-14"/>
       <use xlink:href="#DejaVuSans-15" transform="translate(63.625 0)"/>
       <use xlink:href="#DejaVuSans-13" transform="translate(127.25 0)"/>
      </g>
     </g>
    </g>
    <g id="xtick_8">
     <g id="line2d_8">
      <g>
       <use xlink:href="#m360f131194" x="403.75826" y="242.358125" style="stroke: #000000; stroke-width: 0.8"/>
      </g>
     </g>
     <g id="text_8">
      <!-- 140 -->
      <g transform="translate(394.21451 256.955781) scale(0.1 -0.1)">
       <use xlink:href="#DejaVuSans-14"/>
       <use xlink:href="#DejaVuSans-17" transform="translate(63.625 0)"/>
       <use xlink:href="#DejaVuSans-13" transform="translate(127.25 0)"/>
      </g>
     </g>
    </g>
    <g id="text_9">
     <!-- t -->
     <g transform="translate(234.524453 270.955781) scale(0.1 -0.1)">
      <defs>
       <path id="DejaVuSans-57" d="M 1172 4494 
L 1172 3500 
L 2356 3500 
L 2356 3053 
L 1172 3053 
L 1172 1153 
Q 1172 725 1289 603 
Q 1406 481 1766 481 
L 2356 481 
L 2356 0 
L 1766 0 
Q 1100 0 847 248 
Q 594 497 594 1153 
L 594 3053 
L 172 3053 
L 172 3500 
L 594 3500 
L 594 4494 
L 1172 4494 
z
" transform="scale(0.015625)"/>
      </defs>
      <use xlink:href="#DejaVuSans-57"/>
     </g>
    </g>
   </g>
   <g id="matplotlib.axis_2">
    <g id="ytick_1">
     <g id="line2d_9">
      <defs>
       <path id="m3b2225d0ba" d="M 0 0 
L -3.5 0 
" style="stroke: #000000; stroke-width: 0.8"/>
      </defs>
      <g>
       <use xlink:href="#m3b2225d0ba" x="52.483594" y="232.356307" style="stroke: #000000; stroke-width: 0.8"/>
      </g>
     </g>
     <g id="text_10">
      <!-- −2.0 -->
      <g transform="translate(21.200781 236.155135) scale(0.1 -0.1)">
       <defs>
        <path id="DejaVuSans-c9c" d="M 678 2272 
L 4684 2272 
L 4684 1741 
L 678 1741 
L 678 2272 
z
" transform="scale(0.015625)"/>
        <path id="DejaVuSans-11" d="M 684 794 
L 1344 794 
L 1344 0 
L 684 0 
L 684 794 
z
" transform="scale(0.015625)"/>
       </defs>
       <use xlink:href="#DejaVuSans-c9c"/>
       <use xlink:href="#DejaVuSans-15" transform="translate(83.796875 0)"/>
       <use xlink:href="#DejaVuSans-11" transform="translate(147.421875 0)"/>
       <use xlink:href="#DejaVuSans-13" transform="translate(179.203125 0)"/>
      </g>
     </g>
    </g>
    <g id="ytick_2">
     <g id="line2d_10">
      <g>
       <use xlink:href="#m3b2225d0ba" x="52.483594" y="207.351761" style="stroke: #000000; stroke-width: 0.8"/>
      </g>
     </g>
     <g id="text_11">
      <!-- −1.5 -->
      <g transform="translate(21.200781 211.150589) scale(0.1 -0.1)">
       <defs>
        <path id="DejaVuSans-18" d="M 691 4666 
L 3169 4666 
L 3169 4134 
L 1269 4134 
L 1269 2991 
Q 1406 3038 1543 3061 
Q 1681 3084 1819 3084 
Q 2600 3084 3056 2656 
Q 3513 2228 3513 1497 
Q 3513 744 3044 326 
Q 2575 -91 1722 -91 
Q 1428 -91 1123 -41 
Q 819 9 494 109 
L 494 744 
Q 775 591 1075 516 
Q 1375 441 1709 441 
Q 2250 441 2565 725 
Q 2881 1009 2881 1497 
Q 2881 1984 2565 2268 
Q 2250 2553 1709 2553 
Q 1456 2553 1204 2497 
Q 953 2441 691 2322 
L 691 4666 
z
" transform="scale(0.015625)"/>
       </defs>
       <use xlink:href="#DejaVuSans-c9c"/>
       <use xlink:href="#DejaVuSans-14" transform="translate(83.796875 0)"/>
       <use xlink:href="#DejaVuSans-11" transform="translate(147.421875 0)"/>
       <use xlink:href="#DejaVuSans-18" transform="translate(179.203125 0)"/>
      </g>
     </g>
    </g>
    <g id="ytick_3">
     <g id="line2d_11">
      <g>
       <use xlink:href="#m3b2225d0ba" x="52.483594" y="182.347216" style="stroke: #000000; stroke-width: 0.8"/>
      </g>
     </g>
     <g id="text_12">
      <!-- −1.0 -->
      <g transform="translate(21.200781 186.146044) scale(0.1 -0.1)">
       <use xlink:href="#DejaVuSans-c9c"/>
       <use xlink:href="#DejaVuSans-14" transform="translate(83.796875 0)"/>
       <use xlink:href="#DejaVuSans-11" transform="translate(147.421875 0)"/>
       <use xlink:href="#DejaVuSans-13" transform="translate(179.203125 0)"/>
      </g>
     </g>
    </g>
    <g id="ytick_4">
     <g id="line2d_12">
      <g>
       <use xlink:href="#m3b2225d0ba" x="52.483594" y="157.34267" style="stroke: #000000; stroke-width: 0.8"/>
      </g>
     </g>
     <g id="text_13">
      <!-- −0.5 -->
      <g transform="translate(21.200781 161.141499) scale(0.1 -0.1)">
       <use xlink:href="#DejaVuSans-c9c"/>
       <use xlink:href="#DejaVuSans-13" transform="translate(83.796875 0)"/>
       <use xlink:href="#DejaVuSans-11" transform="translate(147.421875 0)"/>
       <use xlink:href="#DejaVuSans-18" transform="translate(179.203125 0)"/>
      </g>
     </g>
    </g>
    <g id="ytick_5">
     <g id="line2d_13">
      <g>
       <use xlink:href="#m3b2225d0ba" x="52.483594" y="132.338125" style="stroke: #000000; stroke-width: 0.8"/>
      </g>
     </g>
     <g id="text_14">
      <!-- 0.0 -->
      <g transform="translate(29.580469 136.136953) scale(0.1 -0.1)">
       <use xlink:href="#DejaVuSans-13"/>
       <use xlink:href="#DejaVuSans-11" transform="translate(63.625 0)"/>
       <use xlink:href="#DejaVuSans-13" transform="translate(95.40625 0)"/>
      </g>
     </g>
    </g>
    <g id="ytick_6">
     <g id="line2d_14">
      <g>
       <use xlink:href="#m3b2225d0ba" x="52.483594" y="107.33358" style="stroke: #000000; stroke-width: 0.8"/>
      </g>
     </g>
     <g id="text_15">
      <!-- 0.5 -->
      <g transform="translate(29.580469 111.132408) scale(0.1 -0.1)">
       <use xlink:href="#DejaVuSans-13"/>
       <use xlink:href="#DejaVuSans-11" transform="translate(63.625 0)"/>
       <use xlink:href="#DejaVuSans-18" transform="translate(95.40625 0)"/>
      </g>
     </g>
    </g>
    <g id="ytick_7">
     <g id="line2d_15">
      <g>
       <use xlink:href="#m3b2225d0ba" x="52.483594" y="82.329034" style="stroke: #000000; stroke-width: 0.8"/>
      </g>
     </g>
     <g id="text_16">
      <!-- 1.0 -->
      <g transform="translate(29.580469 86.127862) scale(0.1 -0.1)">
       <use xlink:href="#DejaVuSans-14"/>
       <use xlink:href="#DejaVuSans-11" transform="translate(63.625 0)"/>
       <use xlink:href="#DejaVuSans-13" transform="translate(95.40625 0)"/>
      </g>
     </g>
    </g>
    <g id="ytick_8">
     <g id="line2d_16">
      <g>
       <use xlink:href="#m3b2225d0ba" x="52.483594" y="57.324489" style="stroke: #000000; stroke-width: 0.8"/>
      </g>
     </g>
     <g id="text_17">
      <!-- 1.5 -->
      <g transform="translate(29.580469 61.123317) scale(0.1 -0.1)">
       <use xlink:href="#DejaVuSans-14"/>
       <use xlink:href="#DejaVuSans-11" transform="translate(63.625 0)"/>
       <use xlink:href="#DejaVuSans-18" transform="translate(95.40625 0)"/>
      </g>
     </g>
    </g>
    <g id="ytick_9">
     <g id="line2d_17">
      <g>
       <use xlink:href="#m3b2225d0ba" x="52.483594" y="32.319943" style="stroke: #000000; stroke-width: 0.8"/>
      </g>
     </g>
     <g id="text_18">
      <!-- 2.0 -->
      <g transform="translate(29.580469 36.118771) scale(0.1 -0.1)">
       <use xlink:href="#DejaVuSans-15"/>
       <use xlink:href="#DejaVuSans-11" transform="translate(63.625 0)"/>
       <use xlink:href="#DejaVuSans-13" transform="translate(95.40625 0)"/>
      </g>
     </g>
    </g>
    <g id="text_19">
     <!-- amplitude -->
     <g transform="translate(14.798438 157.604531) rotate(-90) scale(0.1 -0.1)">
      <defs>
       <path id="DejaVuSans-44" d="M 2194 1759 
Q 1497 1759 1228 1600 
Q 959 1441 959 1056 
Q 959 750 1161 570 
Q 1363 391 1709 391 
Q 2188 391 2477 730 
Q 2766 1069 2766 1631 
L 2766 1759 
L 2194 1759 
z
M 3341 1997 
L 3341 0 
L 2766 0 
L 2766 531 
Q 2569 213 2275 61 
Q 1981 -91 1556 -91 
Q 1019 -91 701 211 
Q 384 513 384 1019 
Q 384 1609 779 1909 
Q 1175 2209 1959 2209 
L 2766 2209 
L 2766 2266 
Q 2766 2663 2505 2880 
Q 2244 3097 1772 3097 
Q 1472 3097 1187 3025 
Q 903 2953 641 2809 
L 641 3341 
Q 956 3463 1253 3523 
Q 1550 3584 1831 3584 
Q 2591 3584 2966 3190 
Q 3341 2797 3341 1997 
z
" transform="scale(0.015625)"/>
       <path id="DejaVuSans-50" d="M 3328 2828 
Q 3544 3216 3844 3400 
Q 4144 3584 4550 3584 
Q 5097 3584 5394 3201 
Q 5691 2819 5691 2113 
L 5691 0 
L 5113 0 
L 5113 2094 
Q 5113 2597 4934 2840 
Q 4756 3084 4391 3084 
Q 3944 3084 3684 2787 
Q 3425 2491 3425 1978 
L 3425 0 
L 2847 0 
L 2847 2094 
Q 2847 2600 2669 2842 
Q 2491 3084 2119 3084 
Q 1678 3084 1418 2786 
Q 1159 2488 1159 1978 
L 1159 0 
L 581 0 
L 581 3500 
L 1159 3500 
L 1159 2956 
Q 1356 3278 1631 3431 
Q 1906 3584 2284 3584 
Q 2666 3584 2933 3390 
Q 3200 3197 3328 2828 
z
" transform="scale(0.015625)"/>
       <path id="DejaVuSans-53" d="M 1159 525 
L 1159 -1331 
L 581 -1331 
L 581 3500 
L 1159 3500 
L 1159 2969 
Q 1341 3281 1617 3432 
Q 1894 3584 2278 3584 
Q 2916 3584 3314 3078 
Q 3713 2572 3713 1747 
Q 3713 922 3314 415 
Q 2916 -91 2278 -91 
Q 1894 -91 1617 61 
Q 1341 213 1159 525 
z
M 3116 1747 
Q 3116 2381 2855 2742 
Q 2594 3103 2138 3103 
Q 1681 3103 1420 2742 
Q 1159 2381 1159 1747 
Q 1159 1113 1420 752 
Q 1681 391 2138 391 
Q 2594 391 2855 752 
Q 3116 1113 3116 1747 
z
" transform="scale(0.015625)"/>
       <path id="DejaVuSans-4f" d="M 603 4863 
L 1178 4863 
L 1178 0 
L 603 0 
L 603 4863 
z
" transform="scale(0.015625)"/>
       <path id="DejaVuSans-4c" d="M 603 3500 
L 1178 3500 
L 1178 0 
L 603 0 
L 603 3500 
z
M 603 4863 
L 1178 4863 
L 1178 4134 
L 603 4134 
L 603 4863 
z
" transform="scale(0.015625)"/>
       <path id="DejaVuSans-58" d="M 544 1381 
L 544 3500 
L 1119 3500 
L 1119 1403 
Q 1119 906 1312 657 
Q 1506 409 1894 409 
Q 2359 409 2629 706 
Q 2900 1003 2900 1516 
L 2900 3500 
L 3475 3500 
L 3475 0 
L 2900 0 
L 2900 538 
Q 2691 219 2414 64 
Q 2138 -91 1772 -91 
Q 1169 -91 856 284 
Q 544 659 544 1381 
z
M 1991 3584 
L 1991 3584 
z
" transform="scale(0.015625)"/>
       <path id="DejaVuSans-47" d="M 2906 2969 
L 2906 4863 
L 3481 4863 
L 3481 0 
L 2906 0 
L 2906 525 
Q 2725 213 2448 61 
Q 2172 -91 1784 -91 
Q 1150 -91 751 415 
Q 353 922 353 1747 
Q 353 2572 751 3078 
Q 1150 3584 1784 3584 
Q 2172 3584 2448 3432 
Q 2725 3281 2906 2969 
z
M 947 1747 
Q 947 1113 1208 752 
Q 1469 391 1925 391 
Q 2381 391 2643 752 
Q 2906 1113 2906 1747 
Q 2906 2381 2643 2742 
Q 2381 3103 1925 3103 
Q 1469 3103 1208 2742 
Q 947 2381 947 1747 
z
" transform="scale(0.015625)"/>
       <path id="DejaVuSans-48" d="M 3597 1894 
L 3597 1613 
L 953 1613 
Q 991 1019 1311 708 
Q 1631 397 2203 397 
Q 2534 397 2845 478 
Q 3156 559 3463 722 
L 3463 178 
Q 3153 47 2828 -22 
Q 2503 -91 2169 -91 
Q 1331 -91 842 396 
Q 353 884 353 1716 
Q 353 2575 817 3079 
Q 1281 3584 2069 3584 
Q 2775 3584 3186 3129 
Q 3597 2675 3597 1894 
z
M 3022 2063 
Q 3016 2534 2758 2815 
Q 2500 3097 2075 3097 
Q 1594 3097 1305 2825 
Q 1016 2553 972 2059 
L 3022 2063 
z
" transform="scale(0.015625)"/>
      </defs>
      <use xlink:href="#DejaVuSans-44"/>
      <use xlink:href="#DejaVuSans-50" transform="translate(61.28125 0)"/>
      <use xlink:href="#DejaVuSans-53" transform="translate(158.6875 0)"/>
      <use xlink:href="#DejaVuSans-4f" transform="translate(222.171875 0)"/>
      <use xlink:href="#DejaVuSans-4c" transform="translate(249.953125 0)"/>
      <use xlink:href="#DejaVuSans-57" transform="translate(277.734375 0)"/>
      <use xlink:href="#DejaVuSans-58" transform="translate(316.9375 0)"/>
      <use xlink:href="#DejaVuSans-47" transform="translate(380.3125 0)"/>
      <use xlink:href="#DejaVuSans-48" transform="translate(443.796875 0)"/>
     </g>
    </g>
   </g>
   <g id="line2d_18">
    <path d="M 69.210959 132.338125 
L 70.716798 70.914289 
L 71.469718 48.677016 
L 72.055322 37.596362 
L 72.473611 33.490448 
L 72.724584 32.626233 
L 72.808242 32.607968 
L 72.975557 32.976362 
L 73.22653 34.535585 
L 73.561161 38.458522 
L 73.97945 46.194384 
L 74.565054 61.804929 
L 75.317974 88.459844 
L 76.823813 152.295117 
L 77.911364 194.293817 
L 78.664283 215.49953 
L 79.16623 224.656062 
L 79.584519 228.849846 
L 79.835492 229.800731 
L 79.91915 229.853744 
L 80.086465 229.563769 
L 80.337438 228.144692 
L 80.672069 224.450778 
L 81.090358 217.067773 
L 81.675962 202.067371 
L 82.428882 176.36195 
L 83.934721 114.672189 
L 85.022272 74.019782 
L 85.775191 53.428464 
L 86.277138 44.475826 
L 86.695426 40.306006 
L 86.9464 39.301572 
L 87.113715 39.26282 
L 87.281031 39.727813 
L 87.532004 41.360514 
L 87.866635 45.24132 
L 88.368581 54.504689 
L 88.954185 69.923084 
L 89.790763 98.455801 
L 92.46781 195.404479 
L 93.137072 210.06746 
L 93.639019 216.59879 
L 93.97365 218.65615 
L 94.140965 218.980606 
L 94.224623 218.966401 
L 94.391939 218.586393 
L 94.642912 217.146005 
L 94.977543 213.64137 
L 95.395831 206.849332 
L 95.981436 193.324322 
L 96.818013 167.711916 
L 99.662376 73.890286 
L 100.24798 62.412494 
L 100.749927 56.373842 
L 101.084558 54.433367 
L 101.251873 54.101244 
L 101.419189 54.194619 
L 101.586504 54.710636 
L 101.837477 56.265198 
L 102.172108 59.75016 
L 102.674055 67.800077 
L 103.343317 83.062299 
L 104.263552 109.964741 
L 106.438653 175.40735 
L 107.107915 189.181713 
L 107.693519 196.968713 
L 108.111808 199.832388 
L 108.362781 200.436442 
L 108.530097 200.374412 
L 108.697412 199.94391 
L 108.948385 198.618989 
L 109.283016 195.626839 
L 109.784963 188.699063 
L 110.454225 175.572813 
L 111.37446 152.506849 
L 113.465903 98.590067 
L 114.218823 85.273089 
L 114.720769 79.461609 
L 115.139058 76.692633 
L 115.390031 75.962619 
L 115.557347 75.864556 
L 115.724662 76.074647 
L 115.975635 76.957806 
L 116.310266 79.160407 
L 116.728555 83.455084 
L 117.314159 91.988363 
L 118.150737 108.000296 
L 120.827784 162.317767 
L 121.497046 170.543075 
L 121.998993 174.309511 
L 122.333624 175.60815 
L 122.584597 175.940911 
L 122.751912 175.860758 
L 123.002886 175.297081 
L 123.337516 173.747946 
L 123.755805 170.618154 
L 124.341409 164.300023 
L 125.177987 152.379638 
L 127.771377 113.249185 
L 128.440639 106.987252 
L 128.942585 104.02723 
L 129.360874 102.75768 
L 129.611847 102.51707 
L 129.779162 102.569102 
L 130.030136 102.956187 
L 130.364767 104.021765 
L 130.783055 106.161717 
L 131.36866 110.431785 
L 132.288895 119.188361 
L 134.29668 138.949571 
L 135.0496 144.038506 
L 135.635204 146.576021 
L 136.053493 147.582278 
L 136.388124 147.911381 
L 136.639097 147.892934 
L 136.89007 147.660491 
L 137.224701 147.044396 
L 137.726648 145.554409 
L 138.39591 142.78483 
L 140.821984 131.976852 
L 141.407588 130.519135 
L 141.909535 129.837308 
L 142.244166 129.672881 
L 142.578797 129.726175 
L 142.997085 130.065337 
L 143.499032 130.79358 
L 144.419267 132.622376 
L 145.339502 134.31469 
L 145.841448 134.863722 
L 146.259737 135.009407 
L 146.594368 134.886916 
L 146.928999 134.535131 
L 147.347288 133.76427 
L 147.849234 132.36706 
L 148.518496 129.805279 
L 149.689705 124.201053 
L 150.777255 119.347828 
L 151.362859 117.583215 
L 151.781148 116.893566 
L 152.115779 116.748729 
L 152.366752 116.899258 
L 152.701383 117.464325 
L 153.119672 118.77387 
L 153.621618 121.228137 
L 154.29088 125.896431 
L 155.127458 133.520552 
L 157.553532 156.998572 
L 158.139136 160.389484 
L 158.557425 161.766698 
L 158.808398 162.122968 
L 158.975714 162.153758 
L 159.143029 162.01468 
L 159.394002 161.481798 
L 159.728633 160.159524 
L 160.146922 157.530389 
L 160.732526 152.11597 
L 161.485446 142.590994 
L 162.656654 124.177344 
L 164.078836 102.250919 
L 164.831755 93.869962 
L 165.333702 90.347861 
L 165.668333 89.079868 
L 165.919306 88.737237 
L 166.086622 88.807804 
L 166.337595 89.369583 
L 166.672226 90.974517 
L 167.090514 94.338862 
L 167.592461 100.270455 
L 168.261723 111.008344 
L 169.265616 131.424085 
L 171.189744 171.627122 
L 171.859006 181.477083 
L 172.360952 186.328414 
L 172.779241 188.444902 
L 173.030214 188.816384 
L 173.197529 188.679122 
L 173.448503 187.89 
L 173.783134 185.75052 
L 174.201422 181.366204 
L 174.787026 172.245261 
L 175.539946 156.199387 
L 176.711154 125.34263 
L 178.216994 86.796347 
L 178.969913 73.051417 
L 179.47186 67.195554 
L 179.890149 64.657682 
L 180.141122 64.219625 
L 180.308437 64.390149 
L 180.559411 65.344316 
L 180.894041 67.913471 
L 181.31233 73.154141 
L 181.897934 84.00675 
L 182.650854 103.001115 
L 183.90572 141.997618 
L 185.244244 182.163853 
L 185.997164 198.82025 
L 186.582768 207.083466 
L 187.001056 210.054084 
L 187.25203 210.58981 
L 187.419345 210.416798 
L 187.670318 209.358549 
L 188.004949 206.467749 
L 188.423238 200.546028 
L 189.008842 188.272962 
L 189.761762 166.815085 
L 191.016628 122.877784 
L 192.355152 77.758283 
L 193.108071 59.058042 
L 193.693676 49.746493 
L 194.111964 46.351416 
L 194.362938 45.695155 
L 194.446595 45.710682 
L 194.613911 46.09468 
L 194.864884 47.551409 
L 195.199515 51.116235 
L 195.617804 58.083483 
L 196.203408 72.121652 
L 196.956328 96.165627 
L 198.378509 150.99206 
L 199.549717 192.853958 
L 200.302637 212.429365 
L 200.804584 220.855697 
L 201.222872 224.646258 
L 201.473845 225.43641 
L 201.557503 225.448223 
L 201.724819 225.09311 
L 201.975792 223.615948 
L 202.310423 219.908078 
L 202.728712 212.586099 
L 203.314316 197.758326 
L 204.067235 172.300994 
L 205.489417 114.19498 
L 206.660625 69.789595 
L 207.413545 48.961536 
L 207.915491 39.932135 
L 208.33378 35.796072 
L 208.584753 34.869092 
L 208.668411 34.823434 
L 208.835727 35.128394 
L 209.0867 36.573614 
L 209.421331 40.317387 
L 209.839619 47.80326 
L 210.425224 63.058433 
L 211.178143 89.335134 
L 212.516667 145.822787 
L 213.771533 195.418083 
L 214.524453 217.069938 
L 215.026399 226.526971 
L 215.444688 230.937984 
L 215.695661 231.993804 
L 215.862977 232.023986 
L 216.030292 231.514259 
L 216.281265 229.743622 
L 216.615896 225.54102 
L 217.034185 217.461686 
L 217.619789 201.388606 
L 218.456367 170.823849 
L 221.468045 52.342756 
L 222.053649 39.79671 
L 222.471938 34.549967 
L 222.806569 32.728005 
L 222.973885 32.624755 
L 223.1412 33.061353 
L 223.392173 34.721829 
L 223.726804 38.775878 
L 224.145093 46.665383 
L 224.730697 62.4627 
L 225.483617 89.291612 
L 227.073114 156.718307 
L 228.160664 197.719308 
L 228.829926 215.97187 
L 229.331873 224.945202 
L 229.750162 228.975778 
L 230.001135 229.826628 
L 230.084792 229.846217 
L 230.252108 229.48955 
L 230.503081 227.971508 
L 230.837712 224.149518 
L 231.256001 216.616537 
L 231.841605 201.433977 
L 232.594525 175.558962 
L 234.184022 110.394037 
L 235.271572 70.699035 
L 235.940834 52.968325 
L 236.442781 44.191197 
L 236.861069 40.177559 
L 237.112043 39.268772 
L 237.279358 39.293865 
L 237.446674 39.822358 
L 237.697647 41.54891 
L 238.032278 45.550461 
L 238.534224 54.980308 
L 239.119828 70.561341 
L 239.956406 99.248313 
L 242.549796 193.722029 
L 243.219058 208.97519 
L 243.721004 216.008156 
L 244.055635 218.414252 
L 244.306608 218.988117 
L 244.473924 218.783025 
L 244.724897 217.601386 
L 245.059528 214.430091 
L 245.477817 208.025976 
L 246.063421 194.967696 
L 246.81634 172.5934 
L 248.405837 116.158102 
L 249.493388 81.779621 
L 250.16265 66.375839 
L 250.664596 58.681146 
L 251.082885 55.072109 
L 251.333858 54.175431 
L 251.501174 54.110091 
L 251.668489 54.468732 
L 251.919463 55.791611 
L 252.254094 58.980196 
L 252.75604 66.625092 
L 253.341644 79.346572 
L 254.178222 102.809234 
L 256.771611 179.76191 
L 257.440873 192.15184 
L 257.94282 197.90265 
L 258.277451 199.915704 
L 258.528424 200.449079 
L 258.695739 200.340225 
L 258.946713 199.488661 
L 259.281344 197.101743 
L 259.699632 192.21562 
L 260.285237 182.211343 
L 261.038156 165.09029 
L 264.133493 88.788799 
L 264.719097 80.87972 
L 265.137385 77.440551 
L 265.472016 76.078863 
L 265.639332 75.864955 
L 265.806647 75.960358 
L 266.057621 76.675026 
L 266.392252 78.662752 
L 266.81054 82.710898 
L 267.396144 90.954105 
L 268.232722 106.692714 
L 270.993427 162.629654 
L 271.662689 170.745045 
L 272.164636 174.420631 
L 272.499267 175.657374 
L 272.75024 175.944029 
L 272.917555 175.833615 
L 273.168528 175.22568 
L 273.503159 173.620483 
L 273.921448 170.426996 
L 274.507052 164.035123 
L 275.34363 152.047749 
L 277.853362 113.958098 
L 278.522624 107.463275 
L 279.02457 104.310803 
L 279.442859 102.877989 
L 279.693832 102.540924 
L 279.861148 102.530066 
L 280.112121 102.825829 
L 280.446752 103.777016 
L 280.865041 105.789192 
L 281.450645 109.915649 
L 282.287222 117.690585 
L 284.545981 139.770346 
L 285.215243 144.15281 
L 285.800847 146.643103 
L 286.219136 147.615441 
L 286.553767 147.918412 
L 286.80474 147.8814 
L 287.139371 147.503594 
L 287.55766 146.557871 
L 288.143264 144.51545 
L 289.063499 140.265923 
L 290.569338 133.340174 
L 291.2386 131.213017 
L 291.740547 130.200878 
L 292.158835 129.7614 
L 292.493466 129.667019 
L 292.828097 129.784433 
L 293.246386 130.191804 
L 293.83199 131.13399 
L 295.839776 134.74212 
L 296.258065 134.994491 
L 296.592696 134.967927 
L 296.927327 134.717586 
L 297.345615 134.07535 
L 297.847562 132.824719 
L 298.516824 130.42308 
L 299.520717 125.756196 
L 300.85924 119.581611 
L 301.444845 117.730398 
L 301.863133 116.962169 
L 302.197764 116.746464 
L 302.448737 116.840278 
L 302.699711 117.165379 
L 303.034342 117.970852 
L 303.45263 119.584011 
L 304.038234 122.944887 
L 304.707496 128.192477 
L 305.711389 138.028062 
L 307.384544 154.595487 
L 308.053806 159.247258 
L 308.555752 161.393461 
L 308.890383 162.068624 
L 309.141357 162.145617 
L 309.39233 161.839727 
L 309.726961 160.823148 
L 310.145249 158.570597 
L 310.647196 154.470702 
L 311.316458 146.863383 
L 312.236693 133.383188 
L 314.495452 98.848096 
L 315.164714 92.331488 
L 315.66666 89.521989 
L 316.001291 88.772613 
L 316.168607 88.753163 
L 316.335922 88.975621 
L 316.586895 89.767167 
L 316.921526 91.677463 
L 317.339815 95.411917 
L 317.925419 102.991712 
L 318.678339 116.137741 
L 319.933205 143.021444 
L 321.271729 170.540778 
L 322.024649 181.72904 
L 322.526595 186.479095 
L 322.944884 188.502707 
L 323.195857 188.816134 
L 323.363172 188.639635 
L 323.614146 187.791402 
L 323.948777 185.573788 
L 324.367065 181.095402 
L 324.952669 171.855552 
L 325.705589 155.691281 
L 326.876797 124.758609 
L 328.298979 88.16178 
L 329.051899 73.979897 
L 329.553845 67.762687 
L 329.972134 64.894876 
L 330.223107 64.251169 
L 330.390423 64.282933 
L 330.557738 64.686724 
L 330.808711 65.990556 
L 331.143342 69.018675 
L 331.645289 76.21972 
L 332.230893 88.284638 
L 333.06747 110.930205 
L 335.995491 196.073645 
L 336.581095 205.453505 
L 336.999384 209.30737 
L 337.334015 210.545344 
L 337.50133 210.531248 
L 337.668646 210.0913 
L 337.919619 208.633709 
L 338.25425 205.220163 
L 338.756196 197.079084 
L 339.341801 183.437067 
L 340.178378 157.868883 
L 343.022741 64.036787 
L 343.608345 52.792353 
L 344.026634 47.866274 
L 344.361265 45.949554 
L 344.528581 45.687977 
L 344.695896 45.896182 
L 344.946869 47.090247 
L 345.2815 50.311827 
L 345.699789 56.871888 
L 346.285393 70.406012 
L 347.038313 93.96508 
L 348.293179 141.94426 
L 349.631703 190.91119 
L 350.384622 211.10303 
L 350.970227 221.120109 
L 351.388515 224.756395 
L 351.639488 225.45132 
L 351.723146 225.431206 
L 351.890462 225.01222 
L 352.141435 223.439863 
L 352.476066 219.608038 
L 352.894355 212.139723 
L 353.479959 197.132116 
L 354.232878 171.504066 
L 355.65506 113.318091 
L 356.826268 69.10117 
L 357.579188 48.496269 
L 358.081134 39.646748 
L 358.499423 35.672348 
L 358.750396 34.845064 
L 358.834054 34.832817 
L 359.00137 35.204595 
L 359.252343 36.749345 
L 359.586974 40.622621 
L 360.005262 48.261241 
L 360.590867 63.703931 
L 361.343786 90.15849 
L 362.765968 150.329701 
L 363.937176 196.132309 
L 364.690096 217.555317 
L 365.192042 226.828073 
L 365.610331 231.073618 
L 365.861304 232.027465 
L 365.944962 232.075923 
L 366.112277 231.767717 
L 366.363251 230.296619 
L 366.697882 226.48257 
L 367.11617 218.859631 
L 367.701774 203.34328 
L 368.454694 176.664928 
L 369.876876 115.847607 
L 371.048084 69.459761 
L 371.801004 47.679405 
L 372.30295 38.17915 
L 372.721239 33.748749 
L 372.972212 32.6851 
L 373.139528 32.650185 
L 373.306843 33.154944 
L 373.557816 34.916521 
L 373.892447 39.101318 
L 374.394394 49.106082 
L 374.979998 65.807562 
L 375.816575 96.850528 
L 378.577281 205.933727 
L 379.246543 221.378533 
L 379.664831 227.161054 
L 379.999462 229.475456 
L 380.166778 229.844068 
L 380.250435 229.830238 
L 380.417751 229.406924 
L 380.668724 227.790069 
L 381.003355 223.840364 
L 381.421644 216.158097 
L 382.007248 200.794742 
L 382.760168 174.752427 
L 384.51698 102.839997 
L 385.520873 67.514331 
L 386.190135 50.793781 
L 386.692081 42.896017 
L 387.026712 40.057149 
L 387.277686 39.244055 
L 387.361343 39.225454 
L 387.528659 39.566278 
L 387.779632 41.015226 
L 388.114263 44.659173 
L 388.532552 51.831532 
L 389.118156 66.261295 
L 389.871076 90.794434 
L 391.54423 155.49263 
L 392.548123 189.598985 
L 393.217385 206.189458 
L 393.719332 214.376818 
L 394.13762 218.106806 
L 394.388593 218.94424 
L 394.555909 218.914483 
L 394.723224 218.416299 
L 394.974198 216.801478 
L 395.308829 213.072842 
L 395.810775 204.312584 
L 396.480037 187.50179 
L 397.400272 157.554684 
L 399.659031 81.212415 
L 400.328293 65.980684 
L 400.830239 58.435951 
L 401.248528 54.959505 
L 401.499501 54.14365 
L 401.666817 54.132102 
L 401.834132 54.544116 
L 402.085106 55.945639 
L 402.419736 59.234955 
L 402.921683 67.017792 
L 403.507287 79.872633 
L 403.75826 86.413811 
L 403.75826 86.413811 
" clip-path="url(#p4e30de76e0)" style="fill: none; stroke: #8c8c8c; stroke-width: 0.8; stroke-linecap: square"/>
   </g>
   <g id="line2d_19">
    <path d="M 69.210959 32.319943 
L 71.469718 32.431627 
L 73.728477 32.766428 
L 75.987236 33.323599 
L 78.329652 34.134946 
L 80.672069 35.18215 
L 83.098144 36.512708 
L 85.607876 38.148891 
L 88.201266 40.112362 
L 90.878313 42.423872 
L 93.639019 45.102927 
L 96.56704 48.262124 
L 99.578718 51.840581 
L 102.757712 55.964207 
L 106.104022 60.669423 
L 109.701305 66.118558 
L 113.549561 72.362165 
L 117.732448 79.588105 
L 122.249966 87.843952 
L 127.353088 97.643847 
L 133.376445 109.710516 
L 141.658561 126.848151 
L 156.800612 158.2356 
L 162.991285 170.497442 
L 168.178065 180.286882 
L 172.779241 188.502307 
L 176.962128 195.521402 
L 180.810384 201.552987 
L 184.407667 206.786345 
L 187.753976 211.276682 
L 190.93297 215.184514 
L 193.944649 218.548937 
L 196.87267 221.491911 
L 199.633375 223.960492 
L 202.310423 226.062457 
L 204.903813 227.818442 
L 207.413545 229.250207 
L 209.839619 230.380307 
L 212.182036 231.231793 
L 214.524453 231.845765 
L 216.783212 232.211482 
L 219.041971 232.354155 
L 221.30073 232.273467 
L 223.559489 231.969596 
L 225.818248 231.443222 
L 228.160664 230.663598 
L 230.503081 229.647823 
L 232.929156 228.349426 
L 235.438888 226.746009 
L 238.032278 224.815761 
L 240.709325 222.537768 
L 243.470031 219.892338 
L 246.398052 216.767639 
L 249.40973 213.22328 
L 252.588724 209.133975 
L 255.935034 204.462867 
L 259.532317 199.047902 
L 263.380573 192.83777 
L 267.479802 185.792417 
L 271.99732 177.575073 
L 277.100442 167.810678 
L 283.040142 155.944646 
L 290.987627 139.531107 
L 307.468202 105.38481 
L 313.491559 93.491598 
L 318.594681 83.890339 
L 323.112199 75.847997 
L 327.295086 68.849567 
L 331.143342 62.839062 
L 334.740625 57.627077 
L 338.086935 53.157961 
L 341.265929 49.271387 
L 344.277607 45.928004 
L 347.205628 43.006245 
L 349.966334 40.55828 
L 352.643381 38.476809 
L 355.236771 36.741087 
L 357.746503 35.32926 
L 360.172578 34.218687 
L 362.514995 33.386244 
L 364.857411 32.791455 
L 367.11617 32.444326 
L 369.374929 32.320285 
L 371.633688 32.419611 
L 373.892447 32.742081 
L 376.151206 33.286975 
L 378.493623 34.085678 
L 380.83604 35.120356 
L 383.262114 36.438098 
L 385.771846 38.061225 
L 388.365236 40.011459 
L 391.042284 42.309617 
L 393.802989 44.975279 
L 396.73101 48.120737 
L 399.742689 51.685616 
L 402.921683 55.79558 
L 403.75826 56.934192 
L 403.75826 56.934192 
" clip-path="url(#p4e30de76e0)" style="fill: none; stroke: #d62728; stroke-width: 1.6; stroke-linecap: square"/>
   </g>
   <g id="line2d_20">
    <path d="M 69.210959 232.356307 
L 71.469718 232.244623 
L 73.728477 231.909822 
L 75.987236 231.352651 
L 78.329652 230.541304 
L 80.672069 229.4941 
L 83.098144 228.163542 
L 85.607876 226.527359 
L 88.201266 224.563888 
L 90.878313 222.252378 
L 93.639019 219.573323 
L 96.56704 216.414126 
L 99.578718 212.835669 
L 102.757712 208.712043 
L 106.104022 204.006827 
L 109.701305 198.557692 
L 113.549561 192.314085 
L 117.732448 185.088145 
L 122.249966 176.832298 
L 127.353088 167.032403 
L 133.376445 154.965734 
L 141.658561 137.828099 
L 156.800612 106.44065 
L 162.991285 94.178808 
L 168.178065 84.389368 
L 172.779241 76.173943 
L 176.962128 69.154848 
L 180.810384 63.123263 
L 184.407667 57.889905 
L 187.753976 53.399568 
L 190.93297 49.491736 
L 193.944649 46.127313 
L 196.87267 43.184339 
L 199.633375 40.715758 
L 202.310423 38.613793 
L 204.903813 36.857808 
L 207.413545 35.426043 
L 209.839619 34.295943 
L 212.182036 33.444457 
L 214.524453 32.830485 
L 216.783212 32.464768 
L 219.041971 32.322095 
L 221.30073 32.402783 
L 223.559489 32.706654 
L 225.818248 33.233028 
L 228.160664 34.012652 
L 230.503081 35.028427 
L 232.929156 36.326824 
L 235.438888 37.930241 
L 238.032278 39.860489 
L 240.709325 42.138482 
L 243.470031 44.783912 
L 246.398052 47.908611 
L 249.40973 51.45297 
L 252.588724 55.542275 
L 255.935034 60.213383 
L 259.532317 65.628348 
L 263.380573 71.83848 
L 267.479802 78.883833 
L 271.99732 87.101177 
L 277.100442 96.865572 
L 283.040142 108.731604 
L 290.987627 125.145143 
L 307.468202 159.29144 
L 313.491559 171.184652 
L 318.594681 180.785911 
L 323.112199 188.828253 
L 327.295086 195.826683 
L 331.143342 201.837188 
L 334.740625 207.049173 
L 338.086935 211.518289 
L 341.265929 215.404863 
L 344.277607 218.748246 
L 347.205628 221.670005 
L 349.966334 224.11797 
L 352.643381 226.199441 
L 355.236771 227.935163 
L 357.746503 229.34699 
L 360.172578 230.457563 
L 362.514995 231.290006 
L 364.857411 231.884795 
L 367.11617 232.231924 
L 369.374929 232.355965 
L 371.633688 232.256639 
L 373.892447 231.934169 
L 376.151206 231.389275 
L 378.493623 230.590572 
L 380.83604 229.555894 
L 383.262114 228.238152 
L 385.771846 226.615025 
L 388.365236 224.664791 
L 391.042284 222.366633 
L 393.802989 219.700971 
L 396.73101 216.555513 
L 399.742689 212.990634 
L 402.921683 208.88067 
L 403.75826 207.742058 
L 403.75826 207.742058 
" clip-path="url(#p4e30de76e0)" style="fill: none; stroke: #d62728; stroke-width: 1.6; stroke-linecap: square"/>
   </g>
   <g id="patch_3">
    <path d="M 52.483594 242.358125 
L 52.483594 22.318125 
" style="fill: none; stroke: #000000; stroke-width: 0.8; stroke-linejoin: miter; stroke-linecap: square"/>
   </g>
   <g id="patch_4">
    <path d="M 420.485625 242.358125 
L 420.485625 22.318125 
" style="fill: none; stroke: #000000; stroke-width: 0.8; stroke-linejoin: miter; stroke-linecap: square"/>
   </g>
   <g id="patch_5">
    <path d="M 52.483594 242.358125 
L 420.485625 242.358125 
" style="fill: none; stroke: #000000; stroke-width: 0.8; stroke-linejoin: miter; stroke-linecap: square"/>
   </g>
   <g id="patch_6">
    <path d="M 52.483594 22.318125 
L 420.485625 22.318125 
" style="fill: none; stroke: #000000; stroke-width: 0.8; stroke-linejoin: miter; stroke-linecap: square"/>
   </g>
   <g id="text_20">
    <!-- Beats: sin(t) + sin(1.1 t) -->
    <g transform="translate(164.044922 16.318125) scale(0.12 -0.12)">
     <defs>
      <path id="DejaVuSans-25" d="M 1259 2228 
L 1259 519 
L 2272 519 
Q 2781 519 3026 730 
Q 3272 941 3272 1375 
Q 3272 1813 3026 2020 
Q 2781 2228 2272 2228 
L 1259 2228 
z
M 1259 4147 
L 1259 2741 
L 2194 2741 
Q 2656 2741 2882 2914 
Q 3109 3088 3109 3444 
Q 3109 3797 2882 3972 
Q 2656 4147 2194 4147 
L 1259 4147 
z
M 628 4666 
L 2241 4666 
Q 2963 4666 3353 4366 
Q 3744 4066 3744 3513 
Q 3744 3084 3544 2831 
Q 3344 2578 2956 2516 
Q 3422 2416 3680 2098 
Q 3938 1781 3938 1306 
Q 3938 681 3513 340 
Q 3088 0 2303 0 
L 628 0 
L 628 4666 
z
" transform="scale(0.015625)"/>
      <path id="DejaVuSans-56" d="M 2834 3397 
L 2834 2853 
Q 2591 2978 2328 3040 
Q 2066 3103 1784 3103 
Q 1356 3103 1142 2972 
Q 928 2841 928 2578 
Q 928 2378 1081 2264 
Q 1234 2150 1697 2047 
L 1894 2003 
Q 2506 1872 2764 1633 
Q 3022 1394 3022 966 
Q 3022 478 2636 193 
Q 2250 -91 1575 -91 
Q 1294 -91 989 -36 
Q 684 19 347 128 
L 347 722 
Q 666 556 975 473 
Q 1284 391 1588 391 
Q 1994 391 2212 530 
Q 2431 669 2431 922 
Q 2431 1156 2273 1281 
Q 2116 1406 1581 1522 
L 1381 1569 
Q 847 1681 609 1914 
Q 372 2147 372 2553 
Q 372 3047 722 3315 
Q 1072 3584 1716 3584 
Q 2034 3584 2315 3537 
Q 2597 3491 2834 3397 
z
" transform="scale(0.015625)"/>
      <path id="DejaVuSans-1d" d="M 750 794 
L 1409 794 
L 1409 0 
L 750 0 
L 750 794 
z
M 750 3309 
L 1409 3309 
L 1409 2516 
L 750 2516 
L 750 3309 
z
" transform="scale(0.015625)"/>
      <path id="DejaVuSans-3" transform="scale(0.015625)"/>
      <path id="DejaVuSans-51" d="M 3513 2113 
L 3513 0 
L 2938 0 
L 2938 2094 
Q 2938 2591 2744 2837 
Q 2550 3084 2163 3084 
Q 1697 3084 1428 2787 
Q 1159 2491 1159 1978 
L 1159 0 
L 581 0 
L 581 3500 
L 1159 3500 
L 1159 2956 
Q 1366 3272 1645 3428 
Q 1925 3584 2291 3584 
Q 2894 3584 3203 3211 
Q 3513 2838 3513 2113 
z
" transform="scale(0.015625)"/>
      <path id="DejaVuSans-b" d="M 1984 4856 
Q 1566 4138 1362 3434 
Q 1159 2731 1159 2009 
Q 1159 1288 1364 580 
Q 1569 -128 1984 -844 
L 1484 -844 
Q 1016 -109 783 600 
Q 550 1309 550 2009 
Q 550 2706 781 3412 
Q 1013 4119 1484 4856 
L 1984 4856 
z
" transform="scale(0.015625)"/>
      <path id="DejaVuSans-c" d="M 513 4856 
L 1013 4856 
Q 1481 4119 1714 3412 
Q 1947 2706 1947 2009 
Q 1947 1309 1714 600 
Q 1481 -109 1013 -844 
L 513 -844 
Q 928 -128 1133 580 
Q 1338 1288 1338 2009 
Q 1338 2731 1133 3434 
Q 928 4138 513 4856 
z
" transform="scale(0.015625)"/>
      <path id="DejaVuSans-e" d="M 2944 4013 
L 2944 2272 
L 4684 2272 
L 4684 1741 
L 2944 1741 
L 2944 0 
L 2419 0 
L 2419 1741 
L 678 1741 
L 678 2272 
L 2419 2272 
L 2419 4013 
L 2944 4013 
z
" transform="scale(0.015625)"/>
     </defs>
     <use xlink:href="#DejaVuSans-25"/>
     <use xlink:href="#DejaVuSans-48" transform="translate(68.609375 0)"/>
     <use xlink:href="#DejaVuSans-44" transform="translate(130.140625 0)"/>
     <use xlink:href="#DejaVuSans-57" transform="translate(191.421875 0)"/>
     <use xlink:href="#DejaVuSans-56" transform="translate(230.625 0)"/>
     <use xlink:href="#DejaVuSans-1d" transform="translate(282.71875 0)"/>
     <use xlink:href="#DejaVuSans-3" transform="translate(316.40625 0)"/>
     <use xlink:href="#DejaVuSans-56" transform="translate(348.1875 0)"/>
     <use xlink:href="#DejaVuSans-4c" transform="translate(400.28125 0)"/>
     <use xlink:href="#DejaVuSans-51" transform="translate(428.0625 0)"/>
     <use xlink:href="#DejaVuSans-b" transform="translate(491.4375 0)"/>
     <use xlink:href="#DejaVuSans-57" transform="translate(530.453125 0)"/>
     <use xlink:href="#DejaVuSans-c" transform="translate(569.65625 0)"/>
     <use xlink:href="#DejaVuSans-3" transform="translate(608.671875 0)"/>
     <use xlink:href="#DejaVuSans-e" transform="translate(640.453125 0)"/>
     <use xlink:href="#DejaVuSans-3" transform="translate(724.25 0)"/>
     <use xlink:href="#DejaVuSans-56" transform="translate(756.03125 0)"/>
     <use xlink:href="#DejaVuSans-4c" transform="translate(808.125 0)"/>
     <use xlink:href="#DejaVuSans-51" transform="translate(835.90625 0)"/>
     <use xlink:href="#DejaVuSans-b" transform="translate(899.28125 0)"/>
     <use xlink:href="#DejaVuSans-14" transform="translate(938.296875 0)"/>
     <use xlink:href="#DejaVuSans-11" transform="translate(1001.921875 0)"/>
     <use xlink:href="#DejaVuSans-14" transform="translate(1033.703125 0)"/>
     <use xlink:href="#DejaVuSans-3" transform="translate(1097.328125 0)"/>
     <use xlink:href="#DejaVuSans-57" transform="translate(1129.109375 0)"/>
     <use xlink:href="#DejaVuSans-c" transform="translate(1168.3125 0)"/>
    </g>
   </g>
  </g>
  <g id="axes_2">
   <g id="patch_7">
    <path d="M 492.286195 79.906198 
L 549.874273 79.906198 
L 549.874273 22.318125 
L 492.286195 22.318125 
z
" style="fill: #ffffff"/>
   </g>
   <g id="matplotlib.axis_3"/>
   <g id="matplotlib.axis_4"/>
   <g id="line2d_21">
    <path d="M 521.080234 32.602655 
L 524.280997 30.478268 
L 527.353876 28.705981 
L 530.260355 27.286922 
L 532.896213 26.24055 
L 535.320247 25.511921 
L 537.453742 25.092874 
L 539.36294 24.937704 
L 540.992276 25.017346 
L 542.408689 25.299848 
L 543.618275 25.761522 
L 544.62983 26.378605 
L 545.484196 27.16078 
L 546.175669 28.102826 
L 546.699636 29.198455 
L 547.062722 30.490931 
L 547.2417 31.987921 
L 547.213586 33.694273 
L 546.956188 35.611469 
L 546.428317 37.807837 
L 545.615674 40.213439 
L 544.502677 42.814185 
L 543.033243 45.670459 
L 541.230609 48.678242 
L 539.096148 51.801158 
L 536.638889 54.995642 
L 533.948127 58.131843 
L 530.98814 61.238614 
L 527.871742 64.185526 
L 524.648132 66.926057 
L 521.450467 69.358039 
L 518.247246 71.516189 
L 515.166663 73.324696 
L 512.24775 74.781678 
L 509.595804 75.865869 
L 507.152302 76.632606 
L 504.932391 77.098388 
L 503.00472 77.281544 
L 501.302325 77.222414 
L 499.871686 76.957881 
L 498.647502 76.513291 
L 497.621172 75.912317 
L 496.751427 75.145806 
L 496.044073 74.218876 
L 495.50383 73.137712 
L 495.123539 71.859467 
L 494.926525 70.376276 
L 494.935896 68.683072 
L 495.174004 66.77814 
L 495.661818 64.663692 
L 496.445926 62.272056 
L 497.530638 59.682763 
L 498.971712 56.835222 
L 500.747273 53.832665 
L 502.856501 50.711086 
L 505.290945 47.513709 
L 507.962353 44.370337 
L 510.90639 41.25188 
L 514.011035 38.289082 
L 517.227277 35.528713 
L 520.42209 33.073885 
L 521.080234 32.602655 
L 521.080234 32.602655 
" clip-path="url(#pbb421666ba)" style="fill: none; stroke: #1f77b4; stroke-width: 1.2; stroke-linecap: square"/>
   </g>
   <g id="patch_8">
    <path d="M 492.286195 79.906198 
L 492.286195 22.318125 
" style="fill: none; stroke: #000000; stroke-width: 0.8; stroke-linejoin: miter; stroke-linecap: square"/>
   </g>
   <g id="patch_9">
    <path d="M 549.874273 79.906198 
L 549.874273 22.318125 
" style="fill: none; stroke: #000000; stroke-width: 0.8; stroke-linejoin: miter; stroke-linecap: square"/>
   </g>
   <g id="patch_10">
    <path d="M 492.286195 79.906198 
L 549.874273 79.906198 
" style="fill: none; stroke: #000000; stroke-width: 0.8; stroke-linejoin: miter; stroke-linecap: square"/>
   </g>
   <g id="patch_11">
    <path d="M 492.286195 22.318125 
L 549.874273 22.318125 
" style="fill: none; stroke: #000000; stroke-width: 0.8; stroke-linejoin: miter; stroke-linecap: square"/>
   </g>
   <g id="text_21">
    <!-- 1:1 -->
    <g transform="translate(513.838047 16.318125) scale(0.09 -0.09)">
     <use xlink:href="#DejaVuSans-14"/>
     <use xlink:href="#DejaVuSans-1d" transform="translate(63.625 0)"/>
     <use xlink:href="#DejaVuSans-14" transform="translate(97.3125 0)"/>
    </g>
   </g>
  </g>
  <g id="axes_3">
   <g id="patch_12">
    <path d="M 492.286189 161.132161 
L 549.87428 161.132161 
L 549.87428 103.544089 
L 492.286189 103.544089 
z
" style="fill: #ffffff"/>
   </g>
   <g id="matplotlib.axis_5"/>
   <g id="matplotlib.axis_6"/>
   <g id="line2d_22">
    <path d="M 521.080234 106.161728 
L 522.313928 106.278016 
L 523.544881 106.625847 
L 524.770356 107.20213 
L 526.068423 108.062831 
L 527.433725 109.245943 
L 528.859488 110.785493 
L 530.337363 112.709183 
L 531.932192 115.159523 
L 533.624433 118.184531 
L 535.389217 121.805353 
L 537.260439 126.164395 
L 539.244819 131.371609 
L 541.309165 137.427253 
L 543.491744 144.537938 
L 545.769706 152.735721 
L 547.256639 158.514522 
L 543.427727 144.319015 
L 541.177997 137.023106 
L 539.036374 130.796345 
L 536.967787 125.44736 
L 535.00817 120.983269 
L 533.152457 117.296833 
L 531.443285 114.36704 
L 529.757644 111.914804 
L 528.189036 110.022843 
L 526.753098 108.620536 
L 525.380187 107.57442 
L 524.076753 106.847775 
L 522.847839 106.400449 
L 521.614996 106.183578 
L 520.380965 106.199088 
L 519.148488 106.446843 
L 517.920304 106.924641 
L 516.618049 107.683029 
L 515.327077 108.690632 
L 513.971432 110.022843 
L 512.480492 111.812279 
L 510.944304 114.01132 
L 509.300976 116.762946 
L 507.57273 120.101962 
L 505.720762 124.18661 
L 503.793235 128.994523 
L 501.739708 134.741348 
L 499.586119 141.460451 
L 497.336585 149.235689 
L 494.979824 158.210986 
L 494.903829 158.514522 
L 497.388806 149.046426 
L 499.70418 141.073745 
L 501.934927 134.167307 
L 504.072977 128.261533 
L 506.089471 123.331611 
L 507.96235 119.309358 
L 509.780993 115.91653 
L 511.516005 113.150805 
L 513.144016 110.973966 
L 514.646959 109.323891 
L 516.092045 108.062831 
L 517.471586 107.156696 
L 518.779458 106.566182 
L 520.010934 106.24909 
L 521.080234 106.161728 
L 521.080234 106.161728 
" clip-path="url(#pa476d0ce47)" style="fill: none; stroke: #1f77b4; stroke-width: 1.2; stroke-linecap: square"/>
   </g>
   <g id="patch_13">
    <path d="M 492.286189 161.132161 
L 492.286189 103.544089 
" style="fill: none; stroke: #000000; stroke-width: 0.8; stroke-linejoin: miter; stroke-linecap: square"/>
   </g>
   <g id="patch_14">
    <path d="M 549.87428 161.132161 
L 549.87428 103.544089 
" style="fill: none; stroke: #000000; stroke-width: 0.8; stroke-linejoin: miter; stroke-linecap: square"/>
   </g>
   <g id="patch_15">
    <path d="M 492.286189 161.132161 
L 549.87428 161.132161 
" style="fill: none; stroke: #000000; stroke-width: 0.8; stroke-linejoin: miter; stroke-linecap: square"/>
   </g>
   <g id="patch_16">
    <path d="M 492.286189 103.544089 
L 549.87428 103.544089 
" style="fill: none; stroke: #000000; stroke-width: 0.8; stroke-linejoin: miter; stroke-linecap: square"/>
   </g>
   <g id="text_22">
    <!-- 1:2 -->
    <g transform="translate(513.838047 97.544089) scale(0.09 -0.09)">
     <use xlink:href="#DejaVuSans-14"/>
     <use xlink:href="#DejaVuSans-1d" transform="translate(63.625 0)"/>
     <use xlink:href="#DejaVuSans-15" transform="translate(97.3125 0)"/>
    </g>
   </g>
  </g>
  <g id="axes_4">
   <g id="patch_17">
    <path d="M 492.286189 242.358125 
L 549.87428 242.358125 
L 549.87428 184.770052 
L 492.286189 184.770052 
z
" style="fill: #ffffff"/>
   </g>
   <g id="matplotlib.axis_7"/>
   <g id="matplotlib.axis_8"/>
   <g id="line2d_23">
    <path d="M 521.080234 187.387692 
L 522.724686 187.50398 
L 524.362641 187.851811 
L 525.987629 188.428094 
L 527.593231 189.227709 
L 529.329434 190.356698 
L 531.026207 191.735145 
L 532.82274 193.505934 
L 534.552483 195.53327 
L 536.3396 197.98891 
L 538.024863 200.6783 
L 539.712969 203.789618 
L 541.361283 207.310433 
L 542.8294 210.956151 
L 544.182111 214.900521 
L 545.363232 219.056105 
L 546.267289 223.070866 
L 546.883965 226.841859 
L 547.195502 230.081642 
L 547.247847 232.7794 
L 547.086916 234.952024 
L 546.75718 236.636901 
L 546.300618 237.885319 
L 545.756008 238.756753 
L 545.15848 239.314166 
L 544.465831 239.642792 
L 543.763373 239.740485 
L 542.897835 239.628071 
L 541.846335 239.237043 
L 540.586229 238.49596 
L 539.096152 237.333667 
L 537.357273 235.683638 
L 535.216537 233.328538 
L 532.638545 230.145389 
L 529.446468 225.836636 
L 525.136522 219.617849 
L 511.24853 199.27235 
L 508.140753 195.237283 
L 505.654214 192.343502 
L 503.608659 190.281037 
L 501.963005 188.908992 
L 500.567143 188.018733 
L 499.399986 187.537026 
L 498.438271 187.387821 
L 497.657786 187.496362 
L 497.034383 187.792145 
L 496.43204 188.33822 
L 495.927069 189.108426 
L 495.486436 190.206297 
L 495.145321 191.689845 
L 494.942288 193.612059 
L 494.918763 196.01608 
L 495.118246 198.929472 
L 495.585198 202.357721 
L 496.309854 206.04057 
L 497.284892 209.894348 
L 498.500454 213.8315 
L 499.944254 217.762576 
L 501.492155 221.362996 
L 503.214095 224.807652 
L 504.964785 227.821376 
L 506.702426 230.398731 
L 508.536035 232.723434 
L 510.303203 234.614823 
L 512.131669 236.236971 
L 513.852735 237.469633 
L 515.608347 238.445332 
L 517.227276 239.100467 
L 518.861427 239.528712 
L 520.504343 239.726263 
L 522.149535 239.691365 
L 523.790501 239.424327 
L 525.420762 238.927523 
L 527.033874 238.205366 
L 528.623467 237.264273 
L 530.337363 235.986235 
L 532.007012 234.467179 
L 533.768612 232.554399 
L 535.458043 230.398731 
L 537.195683 227.821376 
L 538.946374 224.807652 
L 540.558771 221.598267 
L 542.11872 218.00602 
L 543.576324 214.078301 
L 544.806535 210.1389 
L 545.850614 206.04057 
L 546.612067 202.135156 
L 547.062728 198.725475 
L 547.250756 195.652916 
L 547.186781 193.140767 
L 546.917754 191.16323 
L 546.488797 189.675366 
L 545.993219 188.695688 
L 545.439289 188.036816 
L 544.789128 187.604752 
L 544.123822 187.413031 
L 543.298206 187.420787 
L 542.384818 187.660824 
L 541.283031 188.190544 
L 539.971145 189.079208 
L 538.42893 190.394872 
L 536.506254 192.343502 
L 534.162502 195.061859 
L 531.367679 198.657768 
L 527.792251 203.637161 
L 522.601497 211.283818 
L 513.340269 224.956029 
L 509.669794 229.95366 
L 506.805717 233.489496 
L 504.546745 235.943668 
L 502.709403 237.634274 
L 501.141509 238.778973 
L 499.92001 239.41145 
L 498.905876 239.700928 
L 498.075791 239.720316 
L 497.336585 239.507308 
L 496.751422 239.118423 
L 496.192625 238.470769 
L 495.732146 237.60182 
L 495.341336 236.399653 
L 495.055357 234.808768 
L 494.912622 232.7794 
L 494.954242 230.27239 
L 495.223207 227.264912 
L 495.763228 223.7569 
L 496.559156 220.017316 
L 497.602944 216.131121 
L 498.884042 212.186605 
L 500.3895 208.273385 
L 501.99113 204.712258 
L 503.762365 201.327926 
L 505.554678 198.38842 
L 507.326885 195.894326 
L 509.190894 193.665417 
L 510.982246 191.872337 
L 512.67503 190.471907 
L 514.407988 189.319697 
L 516.172839 188.428094 
L 517.797827 187.851811 
L 519.435782 187.50398 
L 521.080234 187.387692 
L 521.080234 187.387692 
" clip-path="url(#pa2959841f4)" style="fill: none; stroke: #1f77b4; stroke-width: 1.2; stroke-linecap: square"/>
   </g>
   <g id="patch_18">
    <path d="M 492.286189 242.358125 
L 492.286189 184.770052 
" style="fill: none; stroke: #000000; stroke-width: 0.8; stroke-linejoin: miter; stroke-linecap: square"/>
   </g>
   <g id="patch_19">
    <path d="M 549.87428 242.358125 
L 549.87428 184.770052 
" style="fill: none; stroke: #000000; stroke-width: 0.8; stroke-linejoin: miter; stroke-linecap: square"/>
   </g>
   <g id="patch_20">
    <path d="M 492.286189 242.358125 
L 549.87428 242.358125 
" style="fill: none; stroke: #000000; stroke-width: 0.8; stroke-linejoin: miter; stroke-linecap: square"/>
   </g>
   <g id="patch_21">
    <path d="M 492.286189 184.770052 
L 549.87428 184.770052 
" style="fill: none; stroke: #000000; stroke-width: 0.8; stroke-linejoin: miter; stroke-linecap: square"/>
   </g>
   <g id="text_23">
    <!-- 2:3 -->
    <g transform="translate(513.838047 178.770052) scale(0.09 -0.09)">
     <defs>
      <path id="DejaVuSans-16" d="M 2597 2516 
Q 3050 2419 3304 2112 
Q 3559 1806 3559 1356 
Q 3559 666 3084 287 
Q 2609 -91 1734 -91 
Q 1441 -91 1130 -33 
Q 819 25 488 141 
L 488 750 
Q 750 597 1062 519 
Q 1375 441 1716 441 
Q 2309 441 2620 675 
Q 2931 909 2931 1356 
Q 2931 1769 2642 2001 
Q 2353 2234 1838 2234 
L 1294 2234 
L 1294 2753 
L 1863 2753 
Q 2328 2753 2575 2939 
Q 2822 3125 2822 3475 
Q 2822 3834 2567 4026 
Q 2313 4219 1838 4219 
Q 1578 4219 1281 4162 
Q 984 4106 628 3988 
L 628 4550 
Q 988 4650 1302 4700 
Q 1616 4750 1894 4750 
Q 2613 4750 3031 4423 
Q 3450 4097 3450 3541 
Q 3450 3153 3228 2886 
Q 3006 2619 2597 2516 
z
" transform="scale(0.015625)"/>
     </defs>
     <use xlink:href="#DejaVuSans-15"/>
     <use xlink:href="#DejaVuSans-1d" transform="translate(63.625 0)"/>
     <use xlink:href="#DejaVuSans-16" transform="translate(97.3125 0)"/>
    </g>
   </g>
  </g>
 </g>
 <defs>
  <clipPath id="p4e30de76e0">
   <rect x="52.483594" y="22.318125" width="368.002032" height="220.04"/>
  </clipPath>
  <clipPath id="pbb421666ba">
   <rect x="492.286195" y="22.318125" width="57.588077" height="57.588073"/>
  </clipPath>
  <clipPath id="pa476d0ce47">
   <rect x="492.286189" y="103.544089" width="57.588091" height="57.588073"/>
  </clipPath>
  <clipPath id="pa2959841f4">
   <rect x="492.286189" y="184.770052" width="57.588091" height="57.588073"/>
  </clipPath>
 </defs>
</svg>
