<?xml version="1.0" encoding="utf-8" standalone="no"?>
<!DOCTYPE svg PUBLIC "-//W3C//DTD SVG 1.1//EN"
  "http://www.w3.org/Graphics/SVG/1.1/DTD/svg11.dtd">
<svg xmlns:xlink="http://www.w3.org/1999/xlink" width="637.225305pt" height="301.542125pt" viewBox="0 0 637.225305 301.542125" xmlns="http://www.w3.org/2000/svg" version="1.1">
 <metadata>
  <rdf:RDF xmlns:dc="http://purl.org/dc/elements/1.1/" xmlns:cc="http://creativecommons.org/ns#" xmlns:rdf="http://www.w3.org/1999/02/22-rdf-syntax-ns#">
   <cc:Work>
    <dc:type rdf:resource="http://purl.org/dc/dcmitype/StillImage"/>
    <dc:date>2026-06-13T14:54:55.119698</dc:date>
    <dc:format>image/svg+xml</dc:format>
    <dc:creator>
     <cc:Agent>
      <dc:title>Matplotlib v3.11.0, https://matplotlib.org/</dc:title>
     </cc:Agent>
    </dc:creator>
   </cc:Work>
  </rdf:RDF>
 </metadata>
 <defs>
  <style type="text/css">*{stroke-linejoin: round; stroke-linecap: butt}</style>
 </defs>
 <g id="figure_1">
  <g id="patch_1">
   <path d="M 0 301.542125 
L 637.225305 301.542125 
L 637.225305 0 
L 0 0 
z
" style="fill: #ffffff"/>
  </g>
  <g id="axes_1">
   <g id="patch_2">
    <path d="M 38.482813 277.342125 
L 272.967798 277.342125 
L 272.967798 22.318125 
L 38.482813 22.318125 
z
" style="fill: #ffffff"/>
   </g>
   <g id="matplotlib.axis_1">
    <g id="xtick_1">
     <g id="line2d_1">
      <defs>
       <path id="mc0038d0d53" d="M 0 0 
L 0 3.5 
" style="stroke: #000000; stroke-width: 0.8"/>
      </defs>
      <g>
       <use xlink:href="#mc0038d0d53" x="71.966446" y="277.342125" style="stroke: #000000; stroke-width: 0.8"/>
      </g>
     </g>
     <g id="text_1">
      <!-- −1.0 -->
      <g transform="translate(59.82504 291.939781) scale(0.1 -0.1)">
       <defs>
        <path id="DejaVuSans-c9c" d="M 678 2272 
L 4684 2272 
L 4684 1741 
L 678 1741 
L 678 2272 
z
" transform="scale(0.015625)"/>
        <path id="DejaVuSans-14" d="M 794 531 
L 1825 531 
L 1825 4091 
L 703 3866 
L 703 4441 
L 1819 4666 
L 2450 4666 
L 2450 531 
L 3481 531 
L 3481 0 
L 794 0 
L 794 531 
z
" transform="scale(0.015625)"/>
        <path id="DejaVuSans-11" d="M 684 794 
L 1344 794 
L 1344 0 
L 684 0 
L 684 794 
z
" transform="scale(0.015625)"/>
        <path id="DejaVuSans-13" d="M 2034 4250 
Q 1547 4250 1301 3770 
Q 1056 3291 1056 2328 
Q 1056 1369 1301 889 
Q 1547 409 2034 409 
Q 2525 409 2770 889 
Q 3016 1369 3016 2328 
Q 3016 3291 2770 3770 
Q 2525 4250 2034 4250 
z
M 2034 4750 
Q 2819 4750 3233 4129 
Q 3647 3509 3647 2328 
Q 3647 1150 3233 529 
Q 2819 -91 2034 -91 
Q 1250 -91 836 529 
Q 422 1150 422 2328 
Q 422 3509 836 4129 
Q 1250 4750 2034 4750 
z
" transform="scale(0.015625)"/>
       </defs>
       <use xlink:href="#DejaVuSans-c9c"/>
       <use xlink:href="#DejaVuSans-14" transform="translate(83.796875 0)"/>
       <use xlink:href="#DejaVuSans-11" transform="translate(147.421875 0)"/>
       <use xlink:href="#DejaVuSans-13" transform="translate(179.203125 0)"/>
      </g>
     </g>
    </g>
    <g id="xtick_2">
     <g id="line2d_2">
      <g>
       <use xlink:href="#mc0038d0d53" x="113.832457" y="277.342125" style="stroke: #000000; stroke-width: 0.8"/>
      </g>
     </g>
     <g id="text_2">
      <!-- −0.5 -->
      <g transform="translate(101.691051 291.939781) scale(0.1 -0.1)">
       <defs>
        <path id="DejaVuSans-18" d="M 691 4666 
L 3169 4666 
L 3169 4134 
L 1269 4134 
L 1269 2991 
Q 1406 3038 1543 3061 
Q 1681 3084 1819 3084 
Q 2600 3084 3056 2656 
Q 3513 2228 3513 1497 
Q 3513 744 3044 326 
Q 2575 -91 1722 -91 
Q 1428 -91 1123 -41 
Q 819 9 494 109 
L 494 744 
Q 775 591 1075 516 
Q 1375 441 1709 441 
Q 2250 441 2565 725 
Q 2881 1009 2881 1497 
Q 2881 1984 2565 2268 
Q 2250 2553 1709 2553 
Q 1456 2553 1204 2497 
Q 953 2441 691 2322 
L 691 4666 
z
" transform="scale(0.015625)"/>
       </defs>
       <use xlink:href="#DejaVuSans-c9c"/>
       <use xlink:href="#DejaVuSans-13" transform="translate(83.796875 0)"/>
       <use xlink:href="#DejaVuSans-11" transform="translate(147.421875 0)"/>
       <use xlink:href="#DejaVuSans-18" transform="translate(179.203125 0)"/>
      </g>
     </g>
    </g>
    <g id="xtick_3">
     <g id="line2d_3">
      <g>
       <use xlink:href="#mc0038d0d53" x="155.698468" y="277.342125" style="stroke: #000000; stroke-width: 0.8"/>
      </g>
     </g>
     <g id="text_3">
      <!-- 0.0 -->
      <g transform="translate(147.746906 291.939781) scale(0.1 -0.1)">
       <use xlink:href="#DejaVuSans-13"/>
       <use xlink:href="#DejaVuSans-11" transform="translate(63.625 0)"/>
       <use xlink:href="#DejaVuSans-13" transform="translate(95.40625 0)"/>
      </g>
     </g>
    </g>
    <g id="xtick_4">
     <g id="line2d_4">
      <g>
       <use xlink:href="#mc0038d0d53" x="197.564479" y="277.342125" style="stroke: #000000; stroke-width: 0.8"/>
      </g>
     </g>
     <g id="text_4">
      <!-- 0.5 -->
      <g transform="translate(189.612917 291.939781) scale(0.1 -0.1)">
       <use xlink:href="#DejaVuSans-13"/>
       <use xlink:href="#DejaVuSans-11" transform="translate(63.625 0)"/>
       <use xlink:href="#DejaVuSans-18" transform="translate(95.40625 0)"/>
      </g>
     </g>
    </g>
    <g id="xtick_5">
     <g id="line2d_5">
      <g>
       <use xlink:href="#mc0038d0d53" x="239.43049" y="277.342125" style="stroke: #000000; stroke-width: 0.8"/>
      </g>
     </g>
     <g id="text_5">
      <!-- 1.0 -->
      <g transform="translate(231.478928 291.939781) scale(0.1 -0.1)">
       <use xlink:href="#DejaVuSans-14"/>
       <use xlink:href="#DejaVuSans-11" transform="translate(63.625 0)"/>
       <use xlink:href="#DejaVuSans-13" transform="translate(95.40625 0)"/>
      </g>
     </g>
    </g>
   </g>
   <g id="matplotlib.axis_2">
    <g id="ytick_1">
     <g id="line2d_6">
      <defs>
       <path id="mbe0609632e" d="M 0 0 
L -3.5 0 
" style="stroke: #000000; stroke-width: 0.8"/>
      </defs>
      <g>
       <use xlink:href="#mbe0609632e" x="38.482813" y="242.884645" style="stroke: #000000; stroke-width: 0.8"/>
      </g>
     </g>
     <g id="text_6">
      <!-- −1.0 -->
      <g transform="translate(7.2 246.683473) scale(0.1 -0.1)">
       <use xlink:href="#DejaVuSans-c9c"/>
       <use xlink:href="#DejaVuSans-14" transform="translate(83.796875 0)"/>
       <use xlink:href="#DejaVuSans-11" transform="translate(147.421875 0)"/>
       <use xlink:href="#DejaVuSans-13" transform="translate(179.203125 0)"/>
      </g>
     </g>
    </g>
    <g id="ytick_2">
     <g id="line2d_7">
      <g>
       <use xlink:href="#mbe0609632e" x="38.482813" y="201.018634" style="stroke: #000000; stroke-width: 0.8"/>
      </g>
     </g>
     <g id="text_7">
      <!-- −0.5 -->
      <g transform="translate(7.2 204.817462) scale(0.1 -0.1)">
       <use xlink:href="#DejaVuSans-c9c"/>
       <use xlink:href="#DejaVuSans-13" transform="translate(83.796875 0)"/>
       <use xlink:href="#DejaVuSans-11" transform="translate(147.421875 0)"/>
       <use xlink:href="#DejaVuSans-18" transform="translate(179.203125 0)"/>
      </g>
     </g>
    </g>
    <g id="ytick_3">
     <g id="line2d_8">
      <g>
       <use xlink:href="#mbe0609632e" x="38.482813" y="159.152623" style="stroke: #000000; stroke-width: 0.8"/>
      </g>
     </g>
     <g id="text_8">
      <!-- 0.0 -->
      <g transform="translate(15.579688 162.951451) scale(0.1 -0.1)">
       <use xlink:href="#DejaVuSans-13"/>
       <use xlink:href="#DejaVuSans-11" transform="translate(63.625 0)"/>
       <use xlink:href="#DejaVuSans-13" transform="translate(95.40625 0)"/>
      </g>
     </g>
    </g>
    <g id="ytick_4">
     <g id="line2d_9">
      <g>
       <use xlink:href="#mbe0609632e" x="38.482813" y="117.286612" style="stroke: #000000; stroke-width: 0.8"/>
      </g>
     </g>
     <g id="text_9">
      <!-- 0.5 -->
      <g transform="translate(15.579688 121.08544) scale(0.1 -0.1)">
       <use xlink:href="#DejaVuSans-13"/>
       <use xlink:href="#DejaVuSans-11" transform="translate(63.625 0)"/>
       <use xlink:href="#DejaVuSans-18" transform="translate(95.40625 0)"/>
      </g>
     </g>
    </g>
    <g id="ytick_5">
     <g id="line2d_10">
      <g>
       <use xlink:href="#mbe0609632e" x="38.482813" y="75.420601" style="stroke: #000000; stroke-width: 0.8"/>
      </g>
     </g>
     <g id="text_10">
      <!-- 1.0 -->
      <g transform="translate(15.579688 79.219429) scale(0.1 -0.1)">
       <use xlink:href="#DejaVuSans-14"/>
       <use xlink:href="#DejaVuSans-11" transform="translate(63.625 0)"/>
       <use xlink:href="#DejaVuSans-13" transform="translate(95.40625 0)"/>
      </g>
     </g>
    </g>
    <g id="ytick_6">
     <g id="line2d_11">
      <g>
       <use xlink:href="#mbe0609632e" x="38.482813" y="33.55459" style="stroke: #000000; stroke-width: 0.8"/>
      </g>
     </g>
     <g id="text_11">
      <!-- 1.5 -->
      <g transform="translate(15.579688 37.353418) scale(0.1 -0.1)">
       <use xlink:href="#DejaVuSans-14"/>
       <use xlink:href="#DejaVuSans-11" transform="translate(63.625 0)"/>
       <use xlink:href="#DejaVuSans-18" transform="translate(95.40625 0)"/>
      </g>
     </g>
    </g>
   </g>
   <g id="line2d_12">
    <path d="M 155.698468 159.152623 
L 213.300595 69.442626 
" clip-path="url(#p30957e073b)" style="fill: none; stroke: #1f77b4; stroke-width: 2; stroke-linecap: square"/>
    <defs>
     <path id="mb1a62e51b1" d="M 0 1.5 
C 0.397805 1.5 0.77937 1.341951 1.06066 1.06066 
C 1.341951 0.77937 1.5 0.397805 1.5 0 
C 1.5 -0.397805 1.341951 -0.77937 1.06066 -1.06066 
C 0.77937 -1.341951 0.397805 -1.5 0 -1.5 
C -0.397805 -1.5 -0.77937 -1.341951 -1.06066 -1.06066 
C -1.341951 -0.77937 -1.5 -0.397805 -1.5 0 
C -1.5 0.397805 -1.341951 0.77937 -1.06066 1.06066 
C -0.77937 1.341951 -0.397805 1.5 0 1.5 
z
" style="stroke: #1f77b4"/>
    </defs>
    <g clip-path="url(#p30957e073b)">
     <use xlink:href="#mb1a62e51b1" x="155.698468" y="159.152623" style="fill: #1f77b4; stroke: #1f77b4"/>
     <use xlink:href="#mb1a62e51b1" x="213.300595" y="69.442626" style="fill: #1f77b4; stroke: #1f77b4"/>
    </g>
   </g>
   <g id="line2d_13">
    <path d="M 262.30939 159.152623 
L 262.094748 152.39094 
L 261.451685 145.656485 
L 260.382792 138.976373 
L 258.892371 132.377504 
L 256.986426 125.88645 
L 254.672629 119.529346 
L 251.960299 113.331791 
L 248.860356 107.318741 
L 245.385283 101.514407 
L 241.549073 95.942162 
L 237.367172 90.624443 
L 232.856421 85.582664 
L 228.034982 80.837124 
L 222.922269 76.406933 
L 217.53887 72.30993 
L 211.906461 68.562612 
L 206.047723 65.180067 
L 199.986246 62.175918 
L 193.746437 59.562259 
L 187.353423 57.349615 
L 180.832946 55.546896 
L 174.211261 54.161361 
L 167.515031 53.198588 
L 160.77122 52.662455 
L 154.006983 52.555121 
L 147.249557 52.877017 
L 140.526152 53.626847 
L 133.863841 54.801592 
L 127.28945 56.396522 
L 120.829451 58.405215 
L 114.509859 60.819582 
L 108.356118 63.629901 
L 102.393008 66.824856 
L 96.64454 70.391583 
L 91.133862 74.31572 
L 85.883162 78.581464 
L 80.913584 83.17164 
L 76.245139 88.067765 
L 71.896624 93.250124 
L 67.885549 98.697848 
L 64.228066 104.389003 
L 60.938902 110.300671 
L 58.031302 116.409049 
L 55.516972 122.68954 
L 53.406038 129.116855 
L 51.707 135.665114 
L 50.426699 142.307948 
L 49.570289 149.01861 
L 49.141221 155.770079 
L 49.141221 162.535167 
L 49.570289 169.286635 
L 50.426699 175.997297 
L 51.707 182.640132 
L 53.406038 189.18839 
L 55.516972 195.615706 
L 58.031302 201.896197 
L 60.938902 208.004575 
L 64.228066 213.916243 
L 67.885549 219.607397 
L 71.896624 225.055122 
L 76.245139 230.23748 
L 80.913584 235.133605 
L 85.883162 239.723781 
L 91.133862 243.989526 
L 96.64454 247.913662 
L 102.393008 251.480389 
L 108.356118 254.675345 
L 114.509859 257.485664 
L 120.829451 259.900031 
L 127.28945 261.908724 
L 133.863841 263.503654 
L 140.526152 264.678399 
L 147.249557 265.428229 
L 154.006983 265.750125 
L 160.77122 265.64279 
L 167.515031 265.106657 
L 174.211261 264.143885 
L 180.832946 262.75835 
L 187.353423 260.955631 
L 193.746437 258.742987 
L 199.986246 256.129328 
L 206.047723 253.125178 
L 211.906461 249.742634 
L 217.53887 245.995316 
L 222.922269 241.898313 
L 228.034982 237.468122 
L 232.856421 232.722582 
L 237.367172 227.680802 
L 241.549073 222.363084 
L 245.385283 216.790839 
L 248.860356 210.986505 
L 251.960299 204.973454 
L 254.672629 198.7759 
L 256.986426 192.418796 
L 258.892371 185.927741 
L 260.382792 179.328872 
L 261.451685 172.648761 
L 262.094748 165.914305 
L 262.30939 159.152623 
" clip-path="url(#p30957e073b)" style="fill: none; stroke-dasharray: 0.8,1.32; stroke-dashoffset: 0; stroke: #b2b2b2; stroke-width: 0.8"/>
   </g>
   <g id="line2d_14">
    <path d="M 213.300595 69.442626 
L 178.119258 64.427648 
" clip-path="url(#p30957e073b)" style="fill: none; stroke: #ff7f0e; stroke-width: 2; stroke-linecap: square"/>
    <defs>
     <path id="m270b347d70" d="M 0 1.5 
C 0.397805 1.5 0.77937 1.341951 1.06066 1.06066 
C 1.341951 0.77937 1.5 0.397805 1.5 0 
C 1.5 -0.397805 1.341951 -0.77937 1.06066 -1.06066 
C 0.77937 -1.341951 0.397805 -1.5 0 -1.5 
C -0.397805 -1.5 -0.77937 -1.341951 -1.06066 -1.06066 
C -1.341951 -0.77937 -1.5 -0.397805 -1.5 0 
C -1.5 0.397805 -1.341951 0.77937 -1.06066 1.06066 
C -0.77937 1.341951 -0.397805 1.5 0 1.5 
z
" style="stroke: #ff7f0e"/>
    </defs>
    <g clip-path="url(#p30957e073b)">
     <use xlink:href="#m270b347d70" x="213.300595" y="69.442626" style="fill: #ff7f0e; stroke: #ff7f0e"/>
     <use xlink:href="#m270b347d70" x="178.119258" y="64.427648" style="fill: #ff7f0e; stroke: #ff7f0e"/>
    </g>
   </g>
   <g id="line2d_15">
    <path d="M 248.837569 69.442626 
L 248.766022 67.188732 
L 248.551667 64.943913 
L 248.19537 62.717209 
L 247.698563 60.517586 
L 247.063248 58.353901 
L 246.291982 56.234867 
L 245.387872 54.169015 
L 244.354558 52.164665 
L 243.1962 50.229887 
L 241.917463 48.372472 
L 240.523496 46.599899 
L 239.019913 44.919306 
L 237.412766 43.337459 
L 235.708529 41.860729 
L 233.914062 40.495061 
L 232.036593 39.245955 
L 230.08368 38.118441 
L 228.063188 37.117057 
L 225.983251 36.245838 
L 223.852247 35.50829 
L 221.678754 34.907383 
L 219.471526 34.445538 
L 217.239449 34.124614 
L 214.991512 33.945903 
L 212.736767 33.910125 
L 210.484291 34.017424 
L 208.243156 34.267367 
L 206.022386 34.658949 
L 203.830922 35.190592 
L 201.677589 35.860156 
L 199.571058 36.664945 
L 197.519812 37.601718 
L 195.532108 38.666704 
L 193.615952 39.855613 
L 191.77906 41.163658 
L 190.028826 42.585573 
L 188.3723 44.115632 
L 186.816152 45.747673 
L 185.366647 47.475126 
L 184.029622 49.291034 
L 182.810461 51.188086 
L 181.714073 53.158642 
L 180.744873 55.194768 
L 179.906763 57.288265 
L 179.203118 59.430703 
L 178.636772 61.613456 
L 178.210005 63.827734 
L 177.924535 66.064622 
L 177.781513 68.315111 
L 177.781513 70.57014 
L 177.924535 72.82063 
L 178.210005 75.057517 
L 178.636772 77.271795 
L 179.203118 79.454548 
L 179.906763 81.596987 
L 180.744873 83.690484 
L 181.714073 85.72661 
L 182.810461 87.697166 
L 184.029622 89.594217 
L 185.366647 91.410125 
L 186.816152 93.137578 
L 188.3723 94.76962 
L 190.028826 96.299679 
L 191.77906 97.721593 
L 193.615952 99.029639 
L 195.532108 100.218548 
L 197.519812 101.283533 
L 199.571058 102.220306 
L 201.677589 103.025095 
L 203.830922 103.694659 
L 206.022386 104.226303 
L 208.243156 104.617884 
L 210.484291 104.867828 
L 212.736767 104.975126 
L 214.991512 104.939348 
L 217.239449 104.760637 
L 219.471526 104.439713 
L 221.678754 103.977868 
L 223.852247 103.376962 
L 225.983251 102.639414 
L 228.063188 101.768194 
L 230.08368 100.766811 
L 232.036593 99.639296 
L 233.914062 98.39019 
L 235.708529 97.024522 
L 237.412766 95.547792 
L 239.019913 93.965945 
L 240.523496 92.285352 
L 241.917463 90.512779 
L 243.1962 88.655364 
L 244.354558 86.720586 
L 245.387872 84.716236 
L 246.291982 82.650385 
L 247.063248 80.53135 
L 247.698563 78.367665 
L 248.19537 76.168042 
L 248.551667 73.941338 
L 248.766022 71.69652 
L 248.837569 69.442626 
" clip-path="url(#p30957e073b)" style="fill: none; stroke-dasharray: 0.8,1.32; stroke-dashoffset: 0; stroke: #b2b2b2; stroke-width: 0.8"/>
   </g>
   <g id="line2d_16">
    <path d="M 178.119258 64.427648 
L 184.167555 84.874008 
" clip-path="url(#p30957e073b)" style="fill: none; stroke: #2ca02c; stroke-width: 2; stroke-linecap: square"/>
    <defs>
     <path id="m37a8e9e531" d="M 0 1.5 
C 0.397805 1.5 0.77937 1.341951 1.06066 1.06066 
C 1.341951 0.77937 1.5 0.397805 1.5 0 
C 1.5 -0.397805 1.341951 -0.77937 1.06066 -1.06066 
C 0.77937 -1.341951 0.397805 -1.5 0 -1.5 
C -0.397805 -1.5 -0.77937 -1.341951 -1.06066 -1.06066 
C -1.341951 -0.77937 -1.5 -0.397805 -1.5 0 
C -1.5 0.397805 -1.341951 0.77937 -1.06066 1.06066 
C -0.77937 1.341951 -0.397805 1.5 0 1.5 
z
" style="stroke: #2ca02c"/>
    </defs>
    <g clip-path="url(#p30957e073b)">
     <use xlink:href="#m37a8e9e531" x="178.119258" y="64.427648" style="fill: #2ca02c; stroke: #2ca02c"/>
     <use xlink:href="#m37a8e9e531" x="184.167555" y="84.874008" style="fill: #2ca02c; stroke: #2ca02c"/>
    </g>
   </g>
   <g id="line2d_17">
    <path d="M 199.441442 64.427648 
L 199.398514 63.075311 
L 199.269901 61.72842 
L 199.056122 60.392398 
L 198.758038 59.072624 
L 198.376849 57.774413 
L 197.91409 56.502992 
L 197.371624 55.263481 
L 196.751635 54.060871 
L 196.056621 52.900005 
L 195.289379 51.785556 
L 194.452998 50.722012 
L 193.550848 49.713656 
L 192.58656 48.764548 
L 191.564018 47.87851 
L 190.487338 47.059109 
L 189.360856 46.309645 
L 188.189109 45.633137 
L 186.976813 45.032307 
L 185.728851 44.509575 
L 184.450249 44.067046 
L 183.146153 43.706502 
L 181.821816 43.429395 
L 180.48257 43.236841 
L 179.133808 43.129614 
L 177.780961 43.108147 
L 176.429475 43.172526 
L 175.084794 43.322492 
L 173.752332 43.557442 
L 172.437454 43.876428 
L 171.145454 44.278166 
L 169.881536 44.761039 
L 168.650788 45.323103 
L 167.458166 45.962094 
L 166.308472 46.67544 
L 165.206336 47.460267 
L 164.156196 48.313416 
L 163.162281 49.231451 
L 162.228592 50.210676 
L 161.358889 51.247148 
L 160.556674 52.336693 
L 159.825177 53.474924 
L 159.167344 54.657257 
L 158.585824 55.878933 
L 158.082958 57.135031 
L 157.660772 58.420494 
L 157.320964 59.730146 
L 157.064904 61.058713 
L 156.893622 62.400845 
L 156.807808 63.751139 
L 156.807808 65.104157 
L 156.893622 66.45445 
L 157.064904 67.796583 
L 157.320964 69.125149 
L 157.660772 70.434801 
L 158.082958 71.720264 
L 158.585824 72.976362 
L 159.167344 74.198038 
L 159.825177 75.380372 
L 160.556674 76.518603 
L 161.358889 77.608148 
L 162.228592 78.644619 
L 163.162281 79.623844 
L 164.156196 80.541879 
L 165.206336 81.395028 
L 166.308472 82.179856 
L 167.458166 82.893201 
L 168.650788 83.532192 
L 169.881536 84.094256 
L 171.145454 84.577129 
L 172.437454 84.978868 
L 173.752332 85.297854 
L 175.084794 85.532803 
L 176.429475 85.682769 
L 177.780961 85.747148 
L 179.133808 85.725681 
L 180.48257 85.618455 
L 181.821816 85.4259 
L 183.146153 85.148793 
L 184.450249 84.788249 
L 185.728851 84.345721 
L 186.976813 83.822989 
L 188.189109 83.222159 
L 189.360856 82.54565 
L 190.487338 81.796186 
L 191.564018 80.976786 
L 192.58656 80.090747 
L 193.550848 79.14164 
L 194.452998 78.133284 
L 195.289379 77.06974 
L 196.056621 75.955291 
L 196.751635 74.794424 
L 197.371624 73.591814 
L 197.91409 72.352303 
L 198.376849 71.080882 
L 198.758038 69.782671 
L 199.056122 68.462898 
L 199.269901 67.126875 
L 199.398514 65.779984 
L 199.441442 64.427648 
" clip-path="url(#p30957e073b)" style="fill: none; stroke-dasharray: 0.8,1.32; stroke-dashoffset: 0; stroke: #b2b2b2; stroke-width: 0.8"/>
   </g>
   <g id="line2d_18">
    <defs>
     <path id="mdc2ef04c7f" d="M 0 2 
C 0.530406 2 1.03916 1.789267 1.414214 1.414214 
C 1.789267 1.03916 2 0.530406 2 0 
C 2 -0.530406 1.789267 -1.03916 1.414214 -1.414214 
C 1.03916 -1.789267 0.530406 -2 0 -2 
C -0.530406 -2 -1.03916 -1.789267 -1.414214 -1.414214 
C -1.789267 -1.03916 -2 -0.530406 -2 0 
C -2 0.530406 -1.789267 1.03916 -1.414214 1.414214 
C -1.03916 1.789267 -0.530406 2 0 2 
z
" style="stroke: #000000"/>
    </defs>
    <g clip-path="url(#p30957e073b)">
     <use xlink:href="#mdc2ef04c7f" x="184.167555" y="159.152623" style="stroke: #000000"/>
    </g>
   </g>
   <g id="line2d_19">
    <path d="M 38.482813 159.152623 
L 272.967798 159.152623 
" clip-path="url(#p30957e073b)" style="fill: none; stroke: #d9d9d9; stroke-width: 1.5; stroke-linecap: square"/>
   </g>
   <g id="line2d_20">
    <path d="M 155.698468 277.342125 
L 155.698468 22.318125 
" clip-path="url(#p30957e073b)" style="fill: none; stroke: #d9d9d9; stroke-width: 1.5; stroke-linecap: square"/>
   </g>
   <g id="patch_3">
    <path d="M 38.482813 277.342125 
L 38.482813 22.318125 
" style="fill: none; stroke: #000000; stroke-width: 0.8; stroke-linejoin: miter; stroke-linecap: square"/>
   </g>
   <g id="patch_4">
    <path d="M 272.967798 277.342125 
L 272.967798 22.318125 
" style="fill: none; stroke: #000000; stroke-width: 0.8; stroke-linejoin: miter; stroke-linecap: square"/>
   </g>
   <g id="patch_5">
    <path d="M 38.482813 277.342125 
L 272.967798 277.342125 
" style="fill: none; stroke: #000000; stroke-width: 0.8; stroke-linejoin: miter; stroke-linecap: square"/>
   </g>
   <g id="patch_6">
    <path d="M 38.482813 22.318125 
L 272.967798 22.318125 
" style="fill: none; stroke: #000000; stroke-width: 0.8; stroke-linejoin: miter; stroke-linecap: square"/>
   </g>
   <g id="text_12">
    <!-- Epicycles: arrows 4/(k*pi), k=1,3,5 tip-to-tail -->
    <g transform="translate(22.297493 16.318125) scale(0.12 -0.12)">
     <defs>
      <path id="DejaVuSans-28" d="M 628 4666 
L 3578 4666 
L 3578 4134 
L 1259 4134 
L 1259 2753 
L 3481 2753 
L 3481 2222 
L 1259 2222 
L 1259 531 
L 3634 531 
L 3634 0 
L 628 0 
L 628 4666 
z
" transform="scale(0.015625)"/>
      <path id="DejaVuSans-53" d="M 1159 525 
L 1159 -1331 
L 581 -1331 
L 581 3500 
L 1159 3500 
L 1159 2969 
Q 1341 3281 1617 3432 
Q 1894 3584 2278 3584 
Q 2916 3584 3314 3078 
Q 3713 2572 3713 1747 
Q 3713 922 3314 415 
Q 2916 -91 2278 -91 
Q 1894 -91 1617 61 
Q 1341 213 1159 525 
z
M 3116 1747 
Q 3116 2381 2855 2742 
Q 2594 3103 2138 3103 
Q 1681 3103 1420 2742 
Q 1159 2381 1159 1747 
Q 1159 1113 1420 752 
Q 1681 391 2138 391 
Q 2594 391 2855 752 
Q 3116 1113 3116 1747 
z
" transform="scale(0.015625)"/>
      <path id="DejaVuSans-4c" d="M 603 3500 
L 1178 3500 
L 1178 0 
L 603 0 
L 603 3500 
z
M 603 4863 
L 1178 4863 
L 1178 4134 
L 603 4134 
L 603 4863 
z
" transform="scale(0.015625)"/>
      <path id="DejaVuSans-46" d="M 3122 3366 
L 3122 2828 
Q 2878 2963 2633 3030 
Q 2388 3097 2138 3097 
Q 1578 3097 1268 2742 
Q 959 2388 959 1747 
Q 959 1106 1268 751 
Q 1578 397 2138 397 
Q 2388 397 2633 464 
Q 2878 531 3122 666 
L 3122 134 
Q 2881 22 2623 -34 
Q 2366 -91 2075 -91 
Q 1284 -91 818 406 
Q 353 903 353 1747 
Q 353 2603 823 3093 
Q 1294 3584 2113 3584 
Q 2378 3584 2631 3529 
Q 2884 3475 3122 3366 
z
" transform="scale(0.015625)"/>
      <path id="DejaVuSans-5c" d="M 2059 -325 
Q 1816 -950 1584 -1140 
Q 1353 -1331 966 -1331 
L 506 -1331 
L 506 -850 
L 844 -850 
Q 1081 -850 1212 -737 
Q 1344 -625 1503 -206 
L 1606 56 
L 191 3500 
L 800 3500 
L 1894 763 
L 2988 3500 
L 3597 3500 
L 2059 -325 
z
" transform="scale(0.015625)"/>
      <path id="DejaVuSans-4f" d="M 603 4863 
L 1178 4863 
L 1178 0 
L 603 0 
L 603 4863 
z
" transform="scale(0.015625)"/>
      <path id="DejaVuSans-48" d="M 3597 1894 
L 3597 1613 
L 953 1613 
Q 991 1019 1311 708 
Q 1631 397 2203 397 
Q 2534 397 2845 478 
Q 3156 559 3463 722 
L 3463 178 
Q 3153 47 2828 -22 
Q 2503 -91 2169 -91 
Q 1331 -91 842 396 
Q 353 884 353 1716 
Q 353 2575 817 3079 
Q 1281 3584 2069 3584 
Q 2775 3584 3186 3129 
Q 3597 2675 3597 1894 
z
M 3022 2063 
Q 3016 2534 2758 2815 
Q 2500 3097 2075 3097 
Q 1594 3097 1305 2825 
Q 1016 2553 972 2059 
L 3022 2063 
z
" transform="scale(0.015625)"/>
      <path id="DejaVuSans-56" d="M 2834 3397 
L 2834 2853 
Q 2591 2978 2328 3040 
Q 2066 3103 1784 3103 
Q 1356 3103 1142 2972 
Q 928 2841 928 2578 
Q 928 2378 1081 2264 
Q 1234 2150 1697 2047 
L 1894 2003 
Q 2506 1872 2764 1633 
Q 3022 1394 3022 966 
Q 3022 478 2636 193 
Q 2250 -91 1575 -91 
Q 1294 -91 989 -36 
Q 684 19 347 128 
L 347 722 
Q 666 556 975 473 
Q 1284 391 1588 391 
Q 1994 391 2212 530 
Q 2431 669 2431 922 
Q 2431 1156 2273 1281 
Q 2116 1406 1581 1522 
L 1381 1569 
Q 847 1681 609 1914 
Q 372 2147 372 2553 
Q 372 3047 722 3315 
Q 1072 3584 1716 3584 
Q 2034 3584 2315 3537 
Q 2597 3491 2834 3397 
z
" transform="scale(0.015625)"/>
      <path id="DejaVuSans-1d" d="M 750 794 
L 1409 794 
L 1409 0 
L 750 0 
L 750 794 
z
M 750 3309 
L 1409 3309 
L 1409 2516 
L 750 2516 
L 750 3309 
z
" transform="scale(0.015625)"/>
      <path id="DejaVuSans-3" transform="scale(0.015625)"/>
      <path id="DejaVuSans-44" d="M 2194 1759 
Q 1497 1759 1228 1600 
Q 959 1441 959 1056 
Q 959 750 1161 570 
Q 1363 391 1709 391 
Q 2188 391 2477 730 
Q 2766 1069 2766 1631 
L 2766 1759 
L 2194 1759 
z
M 3341 1997 
L 3341 0 
L 2766 0 
L 2766 531 
Q 2569 213 2275 61 
Q 1981 -91 1556 -91 
Q 1019 -91 701 211 
Q 384 513 384 1019 
Q 384 1609 779 1909 
Q 1175 2209 1959 2209 
L 2766 2209 
L 2766 2266 
Q 2766 2663 2505 2880 
Q 2244 3097 1772 3097 
Q 1472 3097 1187 3025 
Q 903 2953 641 2809 
L 641 3341 
Q 956 3463 1253 3523 
Q 1550 3584 1831 3584 
Q 2591 3584 2966 3190 
Q 3341 2797 3341 1997 
z
" transform="scale(0.015625)"/>
      <path id="DejaVuSans-55" d="M 2631 2963 
Q 2534 3019 2420 3045 
Q 2306 3072 2169 3072 
Q 1681 3072 1420 2755 
Q 1159 2438 1159 1844 
L 1159 0 
L 581 0 
L 581 3500 
L 1159 3500 
L 1159 2956 
Q 1341 3275 1631 3429 
Q 1922 3584 2338 3584 
Q 2397 3584 2469 3576 
Q 2541 3569 2628 3553 
L 2631 2963 
z
" transform="scale(0.015625)"/>
      <path id="DejaVuSans-52" d="M 1959 3097 
Q 1497 3097 1228 2736 
Q 959 2375 959 1747 
Q 959 1119 1226 758 
Q 1494 397 1959 397 
Q 2419 397 2687 759 
Q 2956 1122 2956 1747 
Q 2956 2369 2687 2733 
Q 2419 3097 1959 3097 
z
M 1959 3584 
Q 2709 3584 3137 3096 
Q 3566 2609 3566 1747 
Q 3566 888 3137 398 
Q 2709 -91 1959 -91 
Q 1206 -91 779 398 
Q 353 888 353 1747 
Q 353 2609 779 3096 
Q 1206 3584 1959 3584 
z
" transform="scale(0.015625)"/>
      <path id="DejaVuSans-5a" d="M 269 3500 
L 844 3500 
L 1563 769 
L 2278 3500 
L 2956 3500 
L 3675 769 
L 4391 3500 
L 4966 3500 
L 4050 0 
L 3372 0 
L 2619 2869 
L 1863 0 
L 1184 0 
L 269 3500 
z
" transform="scale(0.015625)"/>
      <path id="DejaVuSans-17" d="M 2419 4116 
L 825 1625 
L 2419 1625 
L 2419 4116 
z
M 2253 4666 
L 3047 4666 
L 3047 1625 
L 3713 1625 
L 3713 1100 
L 3047 1100 
L 3047 0 
L 2419 0 
L 2419 1100 
L 313 1100 
L 313 1709 
L 2253 4666 
z
" transform="scale(0.015625)"/>
      <path id="DejaVuSans-12" d="M 1625 4666 
L 2156 4666 
L 531 -594 
L 0 -594 
L 1625 4666 
z
" transform="scale(0.015625)"/>
      <path id="DejaVuSans-b" d="M 1984 4856 
Q 1566 4138 1362 3434 
Q 1159 2731 1159 2009 
Q 1159 1288 1364 580 
Q 1569 -128 1984 -844 
L 1484 -844 
Q 1016 -109 783 600 
Q 550 1309 550 2009 
Q 550 2706 781 3412 
Q 1013 4119 1484 4856 
L 1984 4856 
z
" transform="scale(0.015625)"/>
      <path id="DejaVuSans-4e" d="M 581 4863 
L 1159 4863 
L 1159 1991 
L 2875 3500 
L 3609 3500 
L 1753 1863 
L 3688 0 
L 2938 0 
L 1159 1709 
L 1159 0 
L 581 0 
L 581 4863 
z
" transform="scale(0.015625)"/>
      <path id="DejaVuSans-d" d="M 3009 3897 
L 1888 3291 
L 3009 2681 
L 2828 2375 
L 1778 3009 
L 1778 1831 
L 1422 1831 
L 1422 3009 
L 372 2375 
L 191 2681 
L 1313 3291 
L 191 3897 
L 372 4206 
L 1422 3572 
L 1422 4750 
L 1778 4750 
L 1778 3572 
L 2828 4206 
L 3009 3897 
z
" transform="scale(0.015625)"/>
      <path id="DejaVuSans-c" d="M 513 4856 
L 1013 4856 
Q 1481 4119 1714 3412 
Q 1947 2706 1947 2009 
Q 1947 1309 1714 600 
Q 1481 -109 1013 -844 
L 513 -844 
Q 928 -128 1133 580 
Q 1338 1288 1338 2009 
Q 1338 2731 1133 3434 
Q 928 4138 513 4856 
z
" transform="scale(0.015625)"/>
      <path id="DejaVuSans-f" d="M 750 794 
L 1409 794 
L 1409 256 
L 897 -744 
L 494 -744 
L 750 256 
L 750 794 
z
" transform="scale(0.015625)"/>
      <path id="DejaVuSans-20" d="M 678 2906 
L 4684 2906 
L 4684 2381 
L 678 2381 
L 678 2906 
z
M 678 1631 
L 4684 1631 
L 4684 1100 
L 678 1100 
L 678 1631 
z
" transform="scale(0.015625)"/>
      <path id="DejaVuSans-16" d="M 2597 2516 
Q 3050 2419 3304 2112 
Q 3559 1806 3559 1356 
Q 3559 666 3084 287 
Q 2609 -91 1734 -91 
Q 1441 -91 1130 -33 
Q 819 25 488 141 
L 488 750 
Q 750 597 1062 519 
Q 1375 441 1716 441 
Q 2309 441 2620 675 
Q 2931 909 2931 1356 
Q 2931 1769 2642 2001 
Q 2353 2234 1838 2234 
L 1294 2234 
L 1294 2753 
L 1863 2753 
Q 2328 2753 2575 2939 
Q 2822 3125 2822 3475 
Q 2822 3834 2567 4026 
Q 2313 4219 1838 4219 
Q 1578 4219 1281 4162 
Q 984 4106 628 3988 
L 628 4550 
Q 988 4650 1302 4700 
Q 1616 4750 1894 4750 
Q 2613 4750 3031 4423 
Q 3450 4097 3450 3541 
Q 3450 3153 3228 2886 
Q 3006 2619 2597 2516 
z
" transform="scale(0.015625)"/>
      <path id="DejaVuSans-57" d="M 1172 4494 
L 1172 3500 
L 2356 3500 
L 2356 3053 
L 1172 3053 
L 1172 1153 
Q 1172 725 1289 603 
Q 1406 481 1766 481 
L 2356 481 
L 2356 0 
L 1766 0 
Q 1100 0 847 248 
Q 594 497 594 1153 
L 594 3053 
L 172 3053 
L 172 3500 
L 594 3500 
L 594 4494 
L 1172 4494 
z
" transform="scale(0.015625)"/>
      <path id="DejaVuSans-10" d="M 313 2009 
L 1997 2009 
L 1997 1497 
L 313 1497 
L 313 2009 
z
" transform="scale(0.015625)"/>
     </defs>
     <use xlink:href="#DejaVuSans-28"/>
     <use xlink:href="#DejaVuSans-53" transform="translate(63.1875 0)"/>
     <use xlink:href="#DejaVuSans-4c" transform="translate(126.671875 0)"/>
     <use xlink:href="#DejaVuSans-46" transform="translate(154.453125 0)"/>
     <use xlink:href="#DejaVuSans-5c" transform="translate(209.4375 0)"/>
     <use xlink:href="#DejaVuSans-46" transform="translate(268.625 0)"/>
     <use xlink:href="#DejaVuSans-4f" transform="translate(323.609375 0)"/>
     <use xlink:href="#DejaVuSans-48" transform="translate(351.390625 0)"/>
     <use xlink:href="#DejaVuSans-56" transform="translate(412.921875 0)"/>
     <use xlink:href="#DejaVuSans-1d" transform="translate(465.015625 0)"/>
     <use xlink:href="#DejaVuSans-3" transform="translate(498.703125 0)"/>
     <use xlink:href="#DejaVuSans-44" transform="translate(530.484375 0)"/>
     <use xlink:href="#DejaVuSans-55" transform="translate(591.765625 0)"/>
     <use xlink:href="#DejaVuSans-55" transform="translate(631.125 0)"/>
     <use xlink:href="#DejaVuSans-52" transform="translate(670.03125 0)"/>
     <use xlink:href="#DejaVuSans-5a" transform="translate(731.21875 0)"/>
     <use xlink:href="#DejaVuSans-56" transform="translate(813 0)"/>
     <use xlink:href="#DejaVuSans-3" transform="translate(865.09375 0)"/>
     <use xlink:href="#DejaVuSans-17" transform="translate(896.875 0)"/>
     <use xlink:href="#DejaVuSans-12" transform="translate(960.5 0)"/>
     <use xlink:href="#DejaVuSans-b" transform="translate(994.1875 0)"/>
     <use xlink:href="#DejaVuSans-4e" transform="translate(1033.203125 0)"/>
     <use xlink:href="#DejaVuSans-d" transform="translate(1091.109375 0)"/>
     <use xlink:href="#DejaVuSans-53" transform="translate(1141.109375 0)"/>
     <use xlink:href="#DejaVuSans-4c" transform="translate(1204.59375 0)"/>
     <use xlink:href="#DejaVuSans-c" transform="translate(1232.375 0)"/>
     <use xlink:href="#DejaVuSans-f" transform="translate(1271.390625 0)"/>
     <use xlink:href="#DejaVuSans-3" transform="translate(1303.171875 0)"/>
     <use xlink:href="#DejaVuSans-4e" transform="translate(1334.953125 0)"/>
     <use xlink:href="#DejaVuSans-20" transform="translate(1392.859375 0)"/>
     <use xlink:href="#DejaVuSans-14" transform="translate(1476.65625 0)"/>
     <use xlink:href="#DejaVuSans-f" transform="translate(1540.28125 0)"/>
     <use xlink:href="#DejaVuSans-16" transform="translate(1572.0625 0)"/>
     <use xlink:href="#DejaVuSans-f" transform="translate(1635.6875 0)"/>
     <use xlink:href="#DejaVuSans-18" transform="translate(1667.46875 0)"/>
     <use xlink:href="#DejaVuSans-3" transform="translate(1731.09375 0)"/>
     <use xlink:href="#DejaVuSans-57" transform="translate(1762.875 0)"/>
     <use xlink:href="#DejaVuSans-4c" transform="translate(1802.078125 0)"/>
     <use xlink:href="#DejaVuSans-53" transform="translate(1829.859375 0)"/>
     <use xlink:href="#DejaVuSans-10" transform="translate(1893.34375 0)"/>
     <use xlink:href="#DejaVuSans-57" transform="translate(1929.421875 0)"/>
     <use xlink:href="#DejaVuSans-52" transform="translate(1968.625 0)"/>
     <use xlink:href="#DejaVuSans-10" transform="translate(2031.671875 0)"/>
     <use xlink:href="#DejaVuSans-57" transform="translate(2067.75 0)"/>
     <use xlink:href="#DejaVuSans-44" transform="translate(2106.953125 0)"/>
     <use xlink:href="#DejaVuSans-4c" transform="translate(2168.234375 0)"/>
     <use xlink:href="#DejaVuSans-4f" transform="translate(2196.015625 0)"/>
    </g>
   </g>
  </g>
  <g id="axes_2">
   <g id="patch_7">
    <path d="M 351.025305 277.342125 
L 630.025305 277.342125 
L 630.025305 22.318125 
L 351.025305 22.318125 
z
" style="fill: #ffffff"/>
   </g>
   <g id="matplotlib.axis_3">
    <g id="xtick_6">
     <g id="line2d_21">
      <g>
       <use xlink:href="#mc0038d0d53" x="394.42927" y="277.342125" style="stroke: #000000; stroke-width: 0.8"/>
      </g>
     </g>
     <g id="text_13">
      <!-- −2 -->
      <g transform="translate(387.058176 291.939781) scale(0.1 -0.1)">
       <defs>
        <path id="DejaVuSans-15" d="M 1228 531 
L 3431 531 
L 3431 0 
L 469 0 
L 469 531 
Q 828 903 1448 1529 
Q 2069 2156 2228 2338 
Q 2531 2678 2651 2914 
Q 2772 3150 2772 3378 
Q 2772 3750 2511 3984 
Q 2250 4219 1831 4219 
Q 1534 4219 1204 4116 
Q 875 4013 500 3803 
L 500 4441 
Q 881 4594 1212 4672 
Q 1544 4750 1819 4750 
Q 2544 4750 2975 4387 
Q 3406 4025 3406 3419 
Q 3406 3131 3298 2873 
Q 3191 2616 2906 2266 
Q 2828 2175 2409 1742 
Q 1991 1309 1228 531 
z
" transform="scale(0.015625)"/>
       </defs>
       <use xlink:href="#DejaVuSans-c9c"/>
       <use xlink:href="#DejaVuSans-15" transform="translate(83.796875 0)"/>
      </g>
     </g>
    </g>
    <g id="xtick_7">
     <g id="line2d_22">
      <g>
       <use xlink:href="#mc0038d0d53" x="448.252578" y="277.342125" style="stroke: #000000; stroke-width: 0.8"/>
      </g>
     </g>
     <g id="text_14">
      <!-- 0 -->
      <g transform="translate(445.071328 291.939781) scale(0.1 -0.1)">
       <use xlink:href="#DejaVuSans-13"/>
      </g>
     </g>
    </g>
    <g id="xtick_8">
     <g id="line2d_23">
      <g>
       <use xlink:href="#mc0038d0d53" x="502.075886" y="277.342125" style="stroke: #000000; stroke-width: 0.8"/>
      </g>
     </g>
     <g id="text_15">
      <!-- 2 -->
      <g transform="translate(498.894636 291.939781) scale(0.1 -0.1)">
       <use xlink:href="#DejaVuSans-15"/>
      </g>
     </g>
    </g>
    <g id="xtick_9">
     <g id="line2d_24">
      <g>
       <use xlink:href="#mc0038d0d53" x="555.899194" y="277.342125" style="stroke: #000000; stroke-width: 0.8"/>
      </g>
     </g>
     <g id="text_16">
      <!-- 4 -->
      <g transform="translate(552.717944 291.939781) scale(0.1 -0.1)">
       <use xlink:href="#DejaVuSans-17"/>
      </g>
     </g>
    </g>
    <g id="xtick_10">
     <g id="line2d_25">
      <g>
       <use xlink:href="#mc0038d0d53" x="609.722502" y="277.342125" style="stroke: #000000; stroke-width: 0.8"/>
      </g>
     </g>
     <g id="text_17">
      <!-- 6 -->
      <g transform="translate(606.541252 291.939781) scale(0.1 -0.1)">
       <defs>
        <path id="DejaVuSans-19" d="M 2113 2584 
Q 1688 2584 1439 2293 
Q 1191 2003 1191 1497 
Q 1191 994 1439 701 
Q 1688 409 2113 409 
Q 2538 409 2786 701 
Q 3034 994 3034 1497 
Q 3034 2003 2786 2293 
Q 2538 2584 2113 2584 
z
M 3366 4563 
L 3366 3988 
Q 3128 4100 2886 4159 
Q 2644 4219 2406 4219 
Q 1781 4219 1451 3797 
Q 1122 3375 1075 2522 
Q 1259 2794 1537 2939 
Q 1816 3084 2150 3084 
Q 2853 3084 3261 2657 
Q 3669 2231 3669 1497 
Q 3669 778 3244 343 
Q 2819 -91 2113 -91 
Q 1303 -91 875 529 
Q 447 1150 447 2328 
Q 447 3434 972 4092 
Q 1497 4750 2381 4750 
Q 2619 4750 2861 4703 
Q 3103 4656 3366 4563 
z
" transform="scale(0.015625)"/>
       </defs>
       <use xlink:href="#DejaVuSans-19"/>
      </g>
     </g>
    </g>
   </g>
   <g id="matplotlib.axis_4">
    <g id="ytick_7">
     <g id="line2d_26">
      <g>
       <use xlink:href="#mbe0609632e" x="351.025305" y="240.873477" style="stroke: #000000; stroke-width: 0.8"/>
      </g>
     </g>
     <g id="text_18">
      <!-- −1.0 -->
      <g transform="translate(319.742493 244.672306) scale(0.1 -0.1)">
       <use xlink:href="#DejaVuSans-c9c"/>
       <use xlink:href="#DejaVuSans-14" transform="translate(83.796875 0)"/>
       <use xlink:href="#DejaVuSans-11" transform="translate(147.421875 0)"/>
       <use xlink:href="#DejaVuSans-13" transform="translate(179.203125 0)"/>
      </g>
     </g>
    </g>
    <g id="ytick_8">
     <g id="line2d_27">
      <g>
       <use xlink:href="#mbe0609632e" x="351.025305" y="195.35173" style="stroke: #000000; stroke-width: 0.8"/>
      </g>
     </g>
     <g id="text_19">
      <!-- −0.5 -->
      <g transform="translate(319.742493 199.150558) scale(0.1 -0.1)">
       <use xlink:href="#DejaVuSans-c9c"/>
       <use xlink:href="#DejaVuSans-13" transform="translate(83.796875 0)"/>
       <use xlink:href="#DejaVuSans-11" transform="translate(147.421875 0)"/>
       <use xlink:href="#DejaVuSans-18" transform="translate(179.203125 0)"/>
      </g>
     </g>
    </g>
    <g id="ytick_9">
     <g id="line2d_28">
      <g>
       <use xlink:href="#mbe0609632e" x="351.025305" y="149.829982" style="stroke: #000000; stroke-width: 0.8"/>
      </g>
     </g>
     <g id="text_20">
      <!-- 0.0 -->
      <g transform="translate(328.12218 153.62881) scale(0.1 -0.1)">
       <use xlink:href="#DejaVuSans-13"/>
       <use xlink:href="#DejaVuSans-11" transform="translate(63.625 0)"/>
       <use xlink:href="#DejaVuSans-13" transform="translate(95.40625 0)"/>
      </g>
     </g>
    </g>
    <g id="ytick_10">
     <g id="line2d_29">
      <g>
       <use xlink:href="#mbe0609632e" x="351.025305" y="104.308234" style="stroke: #000000; stroke-width: 0.8"/>
      </g>
     </g>
     <g id="text_21">
      <!-- 0.5 -->
      <g transform="translate(328.12218 108.107062) scale(0.1 -0.1)">
       <use xlink:href="#DejaVuSans-13"/>
       <use xlink:href="#DejaVuSans-11" transform="translate(63.625 0)"/>
       <use xlink:href="#DejaVuSans-18" transform="translate(95.40625 0)"/>
      </g>
     </g>
    </g>
    <g id="ytick_11">
     <g id="line2d_30">
      <g>
       <use xlink:href="#mbe0609632e" x="351.025305" y="58.786486" style="stroke: #000000; stroke-width: 0.8"/>
      </g>
     </g>
     <g id="text_22">
      <!-- 1.0 -->
      <g transform="translate(328.12218 62.585314) scale(0.1 -0.1)">
       <use xlink:href="#DejaVuSans-14"/>
       <use xlink:href="#DejaVuSans-11" transform="translate(63.625 0)"/>
       <use xlink:href="#DejaVuSans-13" transform="translate(95.40625 0)"/>
      </g>
     </g>
    </g>
   </g>
   <g id="line2d_31">
    <path d="M 363.707124 240.873477 
L 448.210284 240.873477 
L 448.337166 58.786486 
L 532.713445 58.786486 
L 532.840327 240.873477 
L 617.216606 240.873477 
L 617.343487 58.786486 
L 617.343487 58.786486 
" clip-path="url(#p84e8ffe3bf)" style="fill: none; stroke: #999999; stroke-linecap: square"/>
   </g>
   <g id="line2d_32">
    <path d="M 363.707124 149.829982 
L 371.573784 183.234595 
L 375.760878 200.03205 
L 379.186682 212.890771 
L 382.231841 223.470136 
L 384.896355 231.958792 
L 387.307105 238.947954 
L 389.590975 244.910877 
L 391.747962 249.914795 
L 393.651187 253.797309 
L 395.427529 256.952388 
L 397.07699 259.464615 
L 398.59957 261.41834 
L 400.122149 263.014971 
L 401.517847 264.160469 
L 402.786663 264.935105 
L 404.05548 265.453923 
L 405.324296 265.71577 
L 406.46623 265.731229 
L 407.608165 265.538036 
L 408.7501 265.136537 
L 410.018916 264.44701 
L 411.287732 263.502751 
L 412.68343 262.17237 
L 414.079128 260.539891 
L 415.601707 258.419642 
L 417.251168 255.730805 
L 419.027511 252.390679 
L 420.930735 248.316721 
L 422.960841 243.429003 
L 425.117829 237.653161 
L 427.52858 230.532364 
L 430.066212 222.338786 
L 432.98449 212.124518 
L 436.15653 200.196195 
L 439.962979 184.974898 
L 444.911362 164.185104 
L 457.726406 109.859759 
L 461.532855 94.919669 
L 464.831777 82.848505 
L 467.750054 73.002651 
L 470.414568 64.798443 
L 472.825319 58.091221 
L 474.982307 52.712139 
L 477.012413 48.218529 
L 478.915637 44.530232 
L 480.69198 41.562452 
L 482.341441 39.228628 
L 483.86402 37.442821 
L 485.259718 36.121654 
L 486.655416 35.106259 
L 487.924232 34.450825 
L 489.193048 34.051818 
L 490.334983 33.912702 
L 491.476918 33.982267 
L 492.618852 34.260389 
L 493.887668 34.813395 
L 495.156485 35.622022 
L 496.425301 36.684473 
L 497.820999 38.143501 
L 499.343578 40.077542 
L 500.993039 42.568871 
L 502.6425 45.463019 
L 504.418843 49.017784 
L 506.322067 53.313239 
L 508.479055 58.763486 
L 510.762924 65.17084 
L 513.173675 72.594245 
L 515.838189 81.517069 
L 518.883348 92.528509 
L 522.309152 105.785024 
L 526.496245 122.932841 
L 532.713445 149.465626 
L 540.706987 183.409004 
L 544.894081 200.196195 
L 548.319885 213.043556 
L 551.365043 223.61074 
L 554.029558 232.087257 
L 556.440308 239.064348 
L 558.724178 245.014972 
L 560.881165 250.006586 
L 562.78439 253.877751 
L 564.560732 257.021873 
L 566.210193 259.523654 
L 567.732773 261.467539 
L 569.255352 263.054173 
L 570.65105 264.190395 
L 571.919866 264.956528 
L 573.188683 265.466796 
L 574.330617 265.706323 
L 575.472552 265.737241 
L 576.614486 265.559496 
L 577.756421 265.173407 
L 579.025237 264.500924 
L 580.294053 263.573587 
L 581.689751 262.261639 
L 583.085449 260.647352 
L 584.608029 258.546618 
L 586.25749 255.878461 
L 588.033832 252.559985 
L 589.937057 248.5084 
L 591.967163 243.643491 
L 594.12415 237.890542 
L 596.534901 230.793521 
L 599.072534 222.622705 
L 601.863929 212.890771 
L 605.03597 201.01505 
L 608.715537 186.360911 
L 613.537039 166.171394 
L 617.343487 149.829982 
L 617.343487 149.829982 
" clip-path="url(#p84e8ffe3bf)" style="fill: none; stroke: #1f77b4; stroke-width: 1.6; stroke-linecap: square"/>
   </g>
   <g id="line2d_33">
    <path d="M 363.707124 149.829982 
L 367.132927 192.726986 
L 368.90927 212.349981 
L 370.43185 226.821265 
L 371.700666 236.909138 
L 372.8426 244.320591 
L 373.857653 249.537808 
L 374.745825 253.044055 
L 375.507115 255.279367 
L 376.268404 256.829752 
L 376.902812 257.623099 
L 377.410339 257.948794 
L 377.917865 258.015289 
L 378.425392 257.838374 
L 378.932918 257.435119 
L 379.567326 256.640579 
L 380.328616 255.311028 
L 381.343669 253.012927 
L 382.612485 249.533356 
L 387.560869 235.293214 
L 388.702803 232.978495 
L 389.590975 231.625485 
L 390.352264 230.805233 
L 391.113554 230.310002 
L 391.747962 230.147358 
L 392.38237 230.208801 
L 393.016778 230.48722 
L 393.778068 231.092319 
L 394.66624 232.139565 
L 395.681293 233.723787 
L 396.950109 236.150646 
L 399.107096 240.862743 
L 401.264084 245.392564 
L 402.5329 247.568206 
L 403.547953 248.905864 
L 404.436124 249.727147 
L 405.197414 250.147495 
L 405.958704 250.29403 
L 406.593112 250.203971 
L 407.354402 249.843764 
L 408.115692 249.217758 
L 409.003863 248.173928 
L 410.018916 246.614719 
L 411.287732 244.22679 
L 413.317838 239.825339 
L 415.601707 234.967176 
L 416.870523 232.753907 
L 417.885576 231.402607 
L 418.773748 230.596818 
L 419.535038 230.220712 
L 420.169446 230.144541 
L 420.803854 230.292101 
L 421.438262 230.666887 
L 422.199552 231.415531 
L 422.960841 232.481629 
L 423.849013 234.102936 
L 424.990947 236.71717 
L 426.386645 240.543769 
L 431.208147 254.418571 
L 432.2232 256.37854 
L 432.98449 257.391861 
L 433.618898 257.884054 
L 434.126424 258.021553 
L 434.633951 257.912918 
L 435.141477 257.542586 
L 435.649004 256.896451 
L 436.283412 255.68202 
L 436.91782 253.99654 
L 437.67911 251.329752 
L 438.567281 247.307558 
L 439.582334 241.496674 
L 440.724269 233.431038 
L 441.993085 222.659503 
L 443.388783 208.818863 
L 445.165125 188.719387 
L 447.575876 158.563786 
L 451.76297 105.942884 
L 453.539312 86.444032 
L 455.061892 72.107919 
L 456.330708 62.146595 
L 457.472643 54.855084 
L 458.487696 49.745867 
L 459.375867 46.332857 
L 460.137157 44.175058 
L 460.898447 42.698818 
L 461.532855 41.963954 
L 462.040381 41.682497 
L 462.547908 41.657703 
L 463.055434 41.873559 
L 463.689842 42.455378 
L 464.32425 43.350044 
L 465.212422 45.054942 
L 466.227475 47.520565 
L 467.750054 51.895189 
L 471.30274 62.401959 
L 472.571556 65.38275 
L 473.586609 67.245633 
L 474.47478 68.438677 
L 475.23607 69.115281 
L 475.870478 69.429356 
L 476.504886 69.51675 
L 477.139294 69.382006 
L 477.773702 69.033481 
L 478.534992 68.350112 
L 479.423163 67.221911 
L 480.438216 65.56184 
L 481.833914 62.801613 
L 486.655416 52.760989 
L 487.797351 51.10251 
L 488.685522 50.168078 
L 489.446812 49.643853 
L 490.208101 49.389975 
L 490.842509 49.389975 
L 491.476918 49.582495 
L 492.238207 50.062434 
L 492.999497 50.801668 
L 493.887668 51.965365 
L 495.029603 53.871702 
L 496.425301 56.66899 
L 500.993039 66.225471 
L 502.134974 67.90765 
L 503.023145 68.836773 
L 503.784435 69.329071 
L 504.418843 69.507358 
L 505.053251 69.46488 
L 505.687659 69.196315 
L 506.322067 68.700299 
L 507.083357 67.808968 
L 507.971529 66.377652 
L 508.986582 64.26973 
L 510.255398 61.042635 
L 512.03174 55.799242 
L 514.823136 47.520565 
L 515.965071 44.782577 
L 516.853242 43.147893 
L 517.614532 42.183033 
L 518.24894 41.736602 
L 518.756466 41.638986 
L 519.263993 41.790195 
L 519.771519 42.205555 
L 520.279046 42.89892 
L 520.913454 44.175058 
L 521.674744 46.332857 
L 522.436034 49.198238 
L 523.324205 53.456208 
L 524.339258 59.536153 
L 525.481192 67.895398 
L 526.750009 78.970062 
L 528.272588 94.475826 
L 530.048931 115.018523 
L 532.840327 150.376513 
L 536.26613 193.222643 
L 538.042473 212.783814 
L 539.565053 227.187665 
L 540.833869 237.212344 
L 541.975803 244.563859 
L 542.990856 249.727074 
L 543.879028 253.186676 
L 544.640317 255.383192 
L 545.401607 256.896451 
L 546.036015 257.660501 
L 546.543542 257.964026 
L 547.051068 258.009616 
L 547.558595 257.81317 
L 548.066121 257.391861 
L 548.700529 256.576958 
L 549.461819 255.226386 
L 550.476872 252.906316 
L 551.87257 249.034675 
L 556.313427 236.089963 
L 557.455361 233.600244 
L 558.470414 231.909784 
L 559.358586 230.880443 
L 560.119875 230.348839 
L 560.754284 230.155986 
L 561.388692 230.187878 
L 562.0231 230.437913 
L 562.78439 231.011153 
L 563.672561 232.025205 
L 564.687614 233.577977 
L 565.95643 235.976978 
L 567.986536 240.391639 
L 570.270405 245.231052 
L 571.539221 247.439272 
L 572.554274 248.809985 
L 573.442446 249.663953 
L 574.203736 250.11417 
L 574.965025 250.291453 
L 575.599433 250.227105 
L 576.360723 249.897149 
L 577.122013 249.299985 
L 578.010184 248.287002 
L 579.025237 246.757984 
L 580.294053 244.398078 
L 582.197278 240.297289 
L 584.73491 234.885769 
L 586.003726 232.689384 
L 587.018779 231.355824 
L 587.906951 230.568055 
L 588.668241 230.208801 
L 589.302649 230.147358 
L 589.937057 230.310002 
L 590.571465 230.699962 
L 591.332755 231.466552 
L 592.094044 232.549856 
L 592.982216 234.189661 
L 594.12415 236.824051 
L 595.519848 240.667764 
L 600.214468 254.228336 
L 601.229521 256.240079 
L 601.990811 257.30105 
L 602.625219 257.838374 
L 603.132746 258.015289 
L 603.640272 257.948794 
L 604.147798 257.623099 
L 604.655325 257.023845 
L 605.289733 255.870753 
L 605.924141 254.249116 
L 606.685431 251.661369 
L 607.573602 247.733311 
L 608.588655 242.030242 
L 609.603708 235.044301 
L 610.872524 224.580809 
L 612.268222 211.038304 
L 613.917683 192.726986 
L 616.201553 164.534837 
L 617.343487 149.829982 
L 617.343487 149.829982 
" clip-path="url(#p84e8ffe3bf)" style="fill: none; stroke: #2ca02c; stroke-width: 1.6; stroke-linecap: square"/>
   </g>
   <g id="line2d_34">
    <path d="M 363.707124 149.829982 
L 366.117874 199.51237 
L 367.386691 221.362166 
L 368.401744 235.451986 
L 369.289915 244.95449 
L 370.051205 250.916652 
L 370.685613 254.36641 
L 371.193139 256.174597 
L 371.700666 257.188686 
L 372.081311 257.464862 
L 372.335074 257.434858 
L 372.715719 257.093106 
L 373.096364 256.426788 
L 373.60389 255.09857 
L 374.36518 252.354907 
L 375.507115 247.194306 
L 377.53722 237.869275 
L 378.425392 234.740886 
L 379.186682 232.824411 
L 379.82109 231.834134 
L 380.328616 231.451642 
L 380.709261 231.400703 
L 381.089906 231.544783 
L 381.597432 232.02238 
L 382.231841 233.031517 
L 382.99313 234.738963 
L 384.135065 237.963278 
L 386.292052 244.2222 
L 387.180224 246.147264 
L 387.941514 247.270565 
L 388.575922 247.783393 
L 389.083448 247.905181 
L 389.590975 247.773048 
L 390.098501 247.398298 
L 390.732909 246.618567 
L 391.494199 245.297851 
L 392.636134 242.78009 
L 395.046884 237.309104 
L 395.935056 235.896336 
L 396.569464 235.232122 
L 397.203872 234.892211 
L 397.711398 234.863221 
L 398.218925 235.048898 
L 398.853333 235.568561 
L 399.614623 236.568865 
L 400.502794 238.146033 
L 402.279137 241.924016 
L 403.547953 244.399923 
L 404.436124 245.685653 
L 405.070533 246.286309 
L 405.704941 246.583915 
L 406.212467 246.592492 
L 406.719994 246.396264 
L 407.354402 245.873914 
L 408.115692 244.879883 
L 409.003863 243.31408 
L 410.653324 239.814988 
L 412.049022 237.052581 
L 412.937193 235.757553 
L 413.571601 235.157151 
L 414.206009 234.870571 
L 414.713536 234.881507 
L 415.221062 235.108903 
L 415.855471 235.688939 
L 416.61676 236.781872 
L 417.504932 238.503408 
L 419.027511 242.070801 
L 420.550091 245.462181 
L 421.438262 246.914285 
L 422.07267 247.582869 
L 422.580197 247.858423 
L 423.087723 247.885655 
L 423.595249 247.656725 
L 424.102776 247.172409 
L 424.737184 246.223356 
L 425.498474 244.633295 
L 426.513527 241.925345 
L 429.431804 233.63877 
L 430.193094 232.249262 
L 430.70062 231.668893 
L 431.208147 231.407238 
L 431.588792 231.436111 
L 431.969437 231.6662 
L 432.476963 232.291733 
L 432.98449 233.279246 
L 433.618898 235.000004 
L 434.380187 237.701434 
L 435.522122 242.71751 
L 437.932873 253.669298 
L 438.694163 256.036207 
L 439.201689 257.03443 
L 439.582334 257.414032 
L 439.836097 257.471393 
L 440.08986 257.360588 
L 440.470505 256.858968 
L 440.85115 255.929864 
L 441.358677 253.984216 
L 441.993085 250.353456 
L 442.627493 245.338698 
L 443.388783 237.471224 
L 444.276954 225.810399 
L 445.292007 209.495649 
L 446.687705 182.912332 
L 451.76297 80.958195 
L 452.778023 66.323755 
L 453.666194 56.30475 
L 454.427484 49.894366 
L 455.061892 46.081574 
L 455.6963 43.604956 
L 456.203827 42.526883 
L 456.584471 42.206349 
L 456.838235 42.208724 
L 457.218879 42.512191 
L 457.599524 43.144262 
L 458.107051 44.433477 
L 458.868341 47.133562 
L 460.010275 52.262732 
L 462.167263 62.124665 
L 463.055434 65.169321 
L 463.816724 67.000233 
L 464.451132 67.91487 
L 464.958658 68.236896 
L 465.339303 68.243791 
L 465.719948 68.057632 
L 466.227475 67.528181 
L 466.861883 66.463066 
L 467.623173 64.704329 
L 468.765107 61.44049 
L 470.922095 55.229859 
L 471.810266 53.362059 
L 472.444674 52.437617 
L 473.079082 51.898334 
L 473.586609 51.755137 
L 474.094135 51.866429 
L 474.601662 52.221589 
L 475.23607 52.979541 
L 475.99736 54.279458 
L 477.139294 56.779589 
L 479.550045 62.271416 
L 480.438216 63.708474 
L 481.072625 64.393402 
L 481.707033 64.755542 
L 482.214559 64.802597 
L 482.722086 64.634566 
L 483.356494 64.135463 
L 483.990902 63.345327 
L 484.879073 61.841322 
L 486.274771 58.925871 
L 487.924232 55.55446 
L 488.812404 54.181907 
L 489.573693 53.404543 
L 490.208101 53.086049 
L 490.715628 53.060321 
L 491.223154 53.239644 
L 491.857562 53.742092 
L 492.618852 54.715447 
L 493.507024 56.26355 
L 495.029603 59.478651 
L 496.552183 62.534527 
L 497.440354 63.852038 
L 498.074762 64.472227 
L 498.70917 64.780551 
L 499.216697 64.787654 
L 499.724223 64.578201 
L 500.358631 64.019514 
L 500.993039 63.155201 
L 501.881211 61.514658 
L 503.150027 58.611762 
L 505.053251 54.279458 
L 505.941423 52.802076 
L 506.575831 52.110821 
L 507.083357 51.815188 
L 507.590884 51.766846 
L 508.09841 51.974338 
L 508.605937 52.437617 
L 509.240345 53.362059 
L 510.001635 54.926896 
L 511.016687 57.612054 
L 514.061846 66.202678 
L 514.823136 67.528181 
L 515.330663 68.057632 
L 515.838189 68.263385 
L 516.218834 68.190295 
L 516.599479 67.91487 
L 517.107005 67.228557 
L 517.741413 65.865335 
L 518.502703 63.538147 
L 519.390875 60.025656 
L 520.913454 52.872668 
L 522.309152 46.630963 
L 523.070442 44.067652 
L 523.70485 42.688169 
L 524.085495 42.271156 
L 524.466139 42.206349 
L 524.719903 42.375303 
L 525.100548 42.969592 
L 525.481192 43.997172 
L 525.988719 46.081574 
L 526.623127 49.894366 
L 527.257535 55.095928 
L 528.018825 63.186218 
L 528.906996 75.093002 
L 530.048931 93.918118 
L 531.444629 121.083961 
L 536.012367 213.847667 
L 537.154302 231.125198 
L 538.042473 241.656202 
L 538.803763 248.515567 
L 539.565053 253.366559 
L 540.199461 255.929864 
L 540.706987 257.072344 
L 541.087632 257.437606 
L 541.341395 257.46313 
L 541.72204 257.19838 
L 542.102685 256.601017 
L 542.610212 255.351453 
L 543.371501 252.695953 
L 544.386554 248.203832 
L 546.797305 237.208272 
L 547.685476 234.249424 
L 548.319885 232.74083 
L 548.954293 231.788345 
L 549.461819 231.436111 
L 549.842464 231.407238 
L 550.223109 231.572422 
L 550.730635 232.076061 
L 551.365043 233.113368 
L 552.126333 234.846719 
L 553.268268 238.091227 
L 555.425255 244.326731 
L 556.313427 246.223356 
L 557.074716 247.317056 
L 557.582243 247.73808 
L 558.089769 247.9027 
L 558.597296 247.812324 
L 559.104822 247.476883 
L 559.739231 246.740939 
L 560.50052 245.462181 
L 561.515573 243.277902 
L 564.306969 237.001468 
L 565.068259 235.842493 
L 565.702667 235.199129 
L 566.337075 234.881507 
L 566.844601 234.870571 
L 567.352128 235.073831 
L 567.986536 235.613909 
L 568.747826 236.635028 
L 569.635997 238.229501 
L 571.539221 242.282188 
L 572.808038 244.679954 
L 573.696209 245.873914 
L 574.330617 246.396264 
L 574.838144 246.592492 
L 575.34567 246.583915 
L 575.853197 246.370829 
L 576.487605 245.828703 
L 577.248894 244.814234 
L 578.137066 243.231108 
L 579.913409 239.452097 
L 581.182225 236.980627 
L 582.070396 235.708418 
L 582.704804 235.127966 
L 583.339212 234.863221 
L 583.846739 234.892211 
L 584.354265 235.137514 
L 584.988673 235.738784 
L 585.749963 236.853977 
L 586.638135 238.594788 
L 588.287596 242.477472 
L 589.683294 245.542855 
L 590.571465 246.969276 
L 591.205873 247.614978 
L 591.713399 247.87034 
L 592.220926 247.876408 
L 592.728452 247.626045 
L 593.235979 247.120759 
L 593.870387 246.147264 
L 594.631677 244.5323 
L 595.64673 241.802156 
L 598.565007 233.547257 
L 599.326297 232.189523 
L 599.833823 231.634494 
L 600.34135 231.400703 
L 600.721995 231.451642 
L 601.10264 231.70438 
L 601.610166 232.360312 
L 602.244574 233.686783 
L 603.005864 235.974362 
L 603.894035 239.451232 
L 605.416615 246.583314 
L 606.812313 252.863505 
L 607.573602 255.473413 
L 608.20801 256.905252 
L 608.588655 257.359232 
L 608.9693 257.464862 
L 609.223063 257.32511 
L 609.603708 256.777328 
L 609.984353 255.799136 
L 610.49188 253.784268 
L 611.126288 250.062616 
L 611.760696 244.95449 
L 612.521986 236.975529 
L 613.410157 225.191463 
L 614.42521 208.753902 
L 615.820908 182.050111 
L 617.343487 149.829982 
L 617.343487 149.829982 
" clip-path="url(#p84e8ffe3bf)" style="fill: none; stroke: #d62728; stroke-width: 1.6; stroke-linecap: square"/>
   </g>
   <g id="line2d_35">
    <path d="M 490.525305 277.342125 
L 490.525305 22.318125 
" clip-path="url(#p84e8ffe3bf)" style="fill: none; stroke-dasharray: 5.55,2.4; stroke-dashoffset: 0; stroke: #d9d9d9; stroke-width: 1.5"/>
   </g>
   <g id="patch_8">
    <path d="M 351.025305 277.342125 
L 351.025305 22.318125 
" style="fill: none; stroke: #000000; stroke-width: 0.8; stroke-linejoin: miter; stroke-linecap: square"/>
   </g>
   <g id="patch_9">
    <path d="M 630.025305 277.342125 
L 630.025305 22.318125 
" style="fill: none; stroke: #000000; stroke-width: 0.8; stroke-linejoin: miter; stroke-linecap: square"/>
   </g>
   <g id="patch_10">
    <path d="M 351.025305 277.342125 
L 630.025305 277.342125 
" style="fill: none; stroke: #000000; stroke-width: 0.8; stroke-linejoin: miter; stroke-linecap: square"/>
   </g>
   <g id="patch_11">
    <path d="M 351.025305 22.318125 
L 630.025305 22.318125 
" style="fill: none; stroke: #000000; stroke-width: 0.8; stroke-linejoin: miter; stroke-linecap: square"/>
   </g>
   <g id="text_23">
    <!-- Square-wave partial sums (Gibbs overshoot) -->
    <g transform="translate(356.823743 16.318125) scale(0.12 -0.12)">
     <defs>
      <path id="DejaVuSans-36" d="M 3425 4513 
L 3425 3897 
Q 3066 4069 2747 4153 
Q 2428 4238 2131 4238 
Q 1616 4238 1336 4038 
Q 1056 3838 1056 3469 
Q 1056 3159 1242 3001 
Q 1428 2844 1947 2747 
L 2328 2669 
Q 3034 2534 3370 2195 
Q 3706 1856 3706 1288 
Q 3706 609 3251 259 
Q 2797 -91 1919 -91 
Q 1588 -91 1214 -16 
Q 841 59 441 206 
L 441 856 
Q 825 641 1194 531 
Q 1563 422 1919 422 
Q 2459 422 2753 634 
Q 3047 847 3047 1241 
Q 3047 1584 2836 1778 
Q 2625 1972 2144 2069 
L 1759 2144 
Q 1053 2284 737 2584 
Q 422 2884 422 3419 
Q 422 4038 858 4394 
Q 1294 4750 2059 4750 
Q 2388 4750 2728 4690 
Q 3069 4631 3425 4513 
z
" transform="scale(0.015625)"/>
      <path id="DejaVuSans-54" d="M 947 1747 
Q 947 1113 1208 752 
Q 1469 391 1925 391 
Q 2381 391 2643 752 
Q 2906 1113 2906 1747 
Q 2906 2381 2643 2742 
Q 2381 3103 1925 3103 
Q 1469 3103 1208 2742 
Q 947 2381 947 1747 
z
M 2906 525 
Q 2725 213 2448 61 
Q 2172 -91 1784 -91 
Q 1150 -91 751 415 
Q 353 922 353 1747 
Q 353 2572 751 3078 
Q 1150 3584 1784 3584 
Q 2172 3584 2448 3432 
Q 2725 3281 2906 2969 
L 2906 3500 
L 3481 3500 
L 3481 -1331 
L 2906 -1331 
L 2906 525 
z
" transform="scale(0.015625)"/>
      <path id="DejaVuSans-58" d="M 544 1381 
L 544 3500 
L 1119 3500 
L 1119 1403 
Q 1119 906 1312 657 
Q 1506 409 1894 409 
Q 2359 409 2629 706 
Q 2900 1003 2900 1516 
L 2900 3500 
L 3475 3500 
L 3475 0 
L 2900 0 
L 2900 538 
Q 2691 219 2414 64 
Q 2138 -91 1772 -91 
Q 1169 -91 856 284 
Q 544 659 544 1381 
z
M 1991 3584 
L 1991 3584 
z
" transform="scale(0.015625)"/>
      <path id="DejaVuSans-59" d="M 191 3500 
L 800 3500 
L 1894 563 
L 2988 3500 
L 3597 3500 
L 2284 0 
L 1503 0 
L 191 3500 
z
" transform="scale(0.015625)"/>
      <path id="DejaVuSans-50" d="M 3328 2828 
Q 3544 3216 3844 3400 
Q 4144 3584 4550 3584 
Q 5097 3584 5394 3201 
Q 5691 2819 5691 2113 
L 5691 0 
L 5113 0 
L 5113 2094 
Q 5113 2597 4934 2840 
Q 4756 3084 4391 3084 
Q 3944 3084 3684 2787 
Q 3425 2491 3425 1978 
L 3425 0 
L 2847 0 
L 2847 2094 
Q 2847 2600 2669 2842 
Q 2491 3084 2119 3084 
Q 1678 3084 1418 2786 
Q 1159 2488 1159 1978 
L 1159 0 
L 581 0 
L 581 3500 
L 1159 3500 
L 1159 2956 
Q 1356 3278 1631 3431 
Q 1906 3584 2284 3584 
Q 2666 3584 2933 3390 
Q 3200 3197 3328 2828 
z
" transform="scale(0.015625)"/>
      <path id="DejaVuSans-2a" d="M 3809 666 
L 3809 1919 
L 2778 1919 
L 2778 2438 
L 4434 2438 
L 4434 434 
Q 4069 175 3628 42 
Q 3188 -91 2688 -91 
Q 1594 -91 976 548 
Q 359 1188 359 2328 
Q 359 3472 976 4111 
Q 1594 4750 2688 4750 
Q 3144 4750 3555 4637 
Q 3966 4525 4313 4306 
L 4313 3634 
Q 3963 3931 3569 4081 
Q 3175 4231 2741 4231 
Q 1884 4231 1454 3753 
Q 1025 3275 1025 2328 
Q 1025 1384 1454 906 
Q 1884 428 2741 428 
Q 3075 428 3337 486 
Q 3600 544 3809 666 
z
" transform="scale(0.015625)"/>
      <path id="DejaVuSans-45" d="M 3116 1747 
Q 3116 2381 2855 2742 
Q 2594 3103 2138 3103 
Q 1681 3103 1420 2742 
Q 1159 2381 1159 1747 
Q 1159 1113 1420 752 
Q 1681 391 2138 391 
Q 2594 391 2855 752 
Q 3116 1113 3116 1747 
z
M 1159 2969 
Q 1341 3281 1617 3432 
Q 1894 3584 2278 3584 
Q 2916 3584 3314 3078 
Q 3713 2572 3713 1747 
Q 3713 922 3314 415 
Q 2916 -91 2278 -91 
Q 1894 -91 1617 61 
Q 1341 213 1159 525 
L 1159 0 
L 581 0 
L 581 4863 
L 1159 4863 
L 1159 2969 
z
" transform="scale(0.015625)"/>
      <path id="DejaVuSans-4b" d="M 3513 2113 
L 3513 0 
L 2938 0 
L 2938 2094 
Q 2938 2591 2744 2837 
Q 2550 3084 2163 3084 
Q 1697 3084 1428 2787 
Q 1159 2491 1159 1978 
L 1159 0 
L 581 0 
L 581 4863 
L 1159 4863 
L 1159 2956 
Q 1366 3272 1645 3428 
Q 1925 3584 2291 3584 
Q 2894 3584 3203 3211 
Q 3513 2838 3513 2113 
z
" transform="scale(0.015625)"/>
     </defs>
     <use xlink:href="#DejaVuSans-36"/>
     <use xlink:href="#DejaVuSans-54" transform="translate(63.484375 0)"/>
     <use xlink:href="#DejaVuSans-58" transform="translate(126.96875 0)"/>
     <use xlink:href="#DejaVuSans-44" transform="translate(190.34375 0)"/>
     <use xlink:href="#DejaVuSans-55" transform="translate(251.625 0)"/>
     <use xlink:href="#DejaVuSans-48" transform="translate(290.53125 0)"/>
     <use xlink:href="#DejaVuSans-10" transform="translate(352.0625 0)"/>
     <use xlink:href="#DejaVuSans-5a" transform="translate(388.140625 0)"/>
     <use xlink:href="#DejaVuSans-44" transform="translate(469.921875 0)"/>
     <use xlink:href="#DejaVuSans-59" transform="translate(531.203125 0)"/>
     <use xlink:href="#DejaVuSans-48" transform="translate(590.390625 0)"/>
     <use xlink:href="#DejaVuSans-3" transform="translate(651.921875 0)"/>
     <use xlink:href="#DejaVuSans-53" transform="translate(683.703125 0)"/>
     <use xlink:href="#DejaVuSans-44" transform="translate(747.1875 0)"/>
     <use xlink:href="#DejaVuSans-55" transform="translate(808.46875 0)"/>
     <use xlink:href="#DejaVuSans-57" transform="translate(849.578125 0)"/>
     <use xlink:href="#DejaVuSans-4c" transform="translate(888.78125 0)"/>
     <use xlink:href="#DejaVuSans-44" transform="translate(916.5625 0)"/>
     <use xlink:href="#DejaVuSans-4f" transform="translate(977.84375 0)"/>
     <use xlink:href="#DejaVuSans-3" transform="translate(1005.625 0)"/>
     <use xlink:href="#DejaVuSans-56" transform="translate(1037.40625 0)"/>
     <use xlink:href="#DejaVuSans-58" transform="translate(1089.5 0)"/>
     <use xlink:href="#DejaVuSans-50" transform="translate(1152.875 0)"/>
     <use xlink:href="#DejaVuSans-56" transform="translate(1250.28125 0)"/>
     <use xlink:href="#DejaVuSans-3" transform="translate(1302.375 0)"/>
     <use xlink:href="#DejaVuSans-b" transform="translate(1334.15625 0)"/>
     <use xlink:href="#DejaVuSans-2a" transform="translate(1373.171875 0)"/>
     <use xlink:href="#DejaVuSans-4c" transform="translate(1450.65625 0)"/>
     <use xlink:href="#DejaVuSans-45" transform="translate(1478.4375 0)"/>
     <use xlink:href="#DejaVuSans-45" transform="translate(1541.921875 0)"/>
     <use xlink:href="#DejaVuSans-56" transform="translate(1605.40625 0)"/>
     <use xlink:href="#DejaVuSans-3" transform="translate(1657.5 0)"/>
     <use xlink:href="#DejaVuSans-52" transform="translate(1689.28125 0)"/>
     <use xlink:href="#DejaVuSans-59" transform="translate(1750.46875 0)"/>
     <use xlink:href="#DejaVuSans-48" transform="translate(1809.65625 0)"/>
     <use xlink:href="#DejaVuSans-55" transform="translate(1871.1875 0)"/>
     <use xlink:href="#DejaVuSans-56" transform="translate(1912.296875 0)"/>
     <use xlink:href="#DejaVuSans-4b" transform="translate(1964.390625 0)"/>
     <use xlink:href="#DejaVuSans-52" transform="translate(2027.765625 0)"/>
     <use xlink:href="#DejaVuSans-52" transform="translate(2088.953125 0)"/>
     <use xlink:href="#DejaVuSans-57" transform="translate(2150.140625 0)"/>
     <use xlink:href="#DejaVuSans-c" transform="translate(2189.34375 0)"/>
    </g>
   </g>
   <g id="legend_1">
    <g id="patch_12">
     <path d="M 547.926555 273.342125 
L 624.425305 273.342125 
Q 626.025305 273.342125 626.025305 271.742125 
L 626.025305 224.539625 
Q 626.025305 222.939625 624.425305 222.939625 
L 547.926555 222.939625 
Q 546.326555 222.939625 546.326555 224.539625 
L 546.326555 271.742125 
Q 546.326555 273.342125 547.926555 273.342125 
z
" style="fill: #ffffff; opacity: 0.8; stroke: #cccccc; stroke-linejoin: miter"/>
    </g>
    <g id="line2d_36">
     <path d="M 549.526555 229.418375 
L 557.526555 229.418375 
L 565.526555 229.418375 
" style="fill: none; stroke: #999999; stroke-linecap: square"/>
    </g>
    <g id="text_24">
     <!-- square wave -->
     <g transform="translate(571.926555 232.218375) scale(0.08 -0.08)">
      <use xlink:href="#DejaVuSans-56"/>
      <use xlink:href="#DejaVuSans-54" transform="translate(52.09375 0)"/>
      <use xlink:href="#DejaVuSans-58" transform="translate(115.578125 0)"/>
      <use xlink:href="#DejaVuSans-44" transform="translate(178.953125 0)"/>
      <use xlink:href="#DejaVuSans-55" transform="translate(240.234375 0)"/>
      <use xlink:href="#DejaVuSans-48" transform="translate(279.140625 0)"/>
      <use xlink:href="#DejaVuSans-3" transform="translate(340.671875 0)"/>
      <use xlink:href="#DejaVuSans-5a" transform="translate(372.453125 0)"/>
      <use xlink:href="#DejaVuSans-44" transform="translate(454.234375 0)"/>
      <use xlink:href="#DejaVuSans-59" transform="translate(515.515625 0)"/>
      <use xlink:href="#DejaVuSans-48" transform="translate(574.703125 0)"/>
     </g>
    </g>
    <g id="line2d_37">
     <path d="M 549.526555 241.419 
L 557.526555 241.419 
L 565.526555 241.419 
" style="fill: none; stroke: #1f77b4; stroke-width: 1.6; stroke-linecap: square"/>
    </g>
    <g id="text_25">
     <!-- 1 term(s) -->
     <g transform="translate(571.926555 244.219) scale(0.08 -0.08)">
      <use xlink:href="#DejaVuSans-14"/>
      <use xlink:href="#DejaVuSans-3" transform="translate(63.625 0)"/>
      <use xlink:href="#DejaVuSans-57" transform="translate(95.40625 0)"/>
      <use xlink:href="#DejaVuSans-48" transform="translate(134.609375 0)"/>
      <use xlink:href="#DejaVuSans-55" transform="translate(196.140625 0)"/>
      <use xlink:href="#DejaVuSans-50" transform="translate(235.5 0)"/>
      <use xlink:href="#DejaVuSans-b" transform="translate(332.90625 0)"/>
      <use xlink:href="#DejaVuSans-56" transform="translate(371.921875 0)"/>
      <use xlink:href="#DejaVuSans-c" transform="translate(424.015625 0)"/>
     </g>
    </g>
    <g id="line2d_38">
     <path d="M 549.526555 253.419625 
L 557.526555 253.419625 
L 565.526555 253.419625 
" style="fill: none; stroke: #2ca02c; stroke-width: 1.6; stroke-linecap: square"/>
    </g>
    <g id="text_26">
     <!-- 3 term(s) -->
     <g transform="translate(571.926555 256.219625) scale(0.08 -0.08)">
      <use xlink:href="#DejaVuSans-16"/>
      <use xlink:href="#DejaVuSans-3" transform="translate(63.625 0)"/>
      <use xlink:href="#DejaVuSans-57" transform="translate(95.40625 0)"/>
      <use xlink:href="#DejaVuSans-48" transform="translate(134.609375 0)"/>
      <use xlink:href="#DejaVuSans-55" transform="translate(196.140625 0)"/>
      <use xlink:href="#DejaVuSans-50" transform="translate(235.5 0)"/>
      <use xlink:href="#DejaVuSans-b" transform="translate(332.90625 0)"/>
      <use xlink:href="#DejaVuSans-56" transform="translate(371.921875 0)"/>
      <use xlink:href="#DejaVuSans-c" transform="translate(424.015625 0)"/>
     </g>
    </g>
    <g id="line2d_39">
     <path d="M 549.526555 265.42025 
L 557.526555 265.42025 
L 565.526555 265.42025 
" style="fill: none; stroke: #d62728; stroke-width: 1.6; stroke-linecap: square"/>
    </g>
    <g id="text_27">
     <!-- 5 term(s) -->
     <g transform="translate(571.926555 268.22025) scale(0.08 -0.08)">
      <use xlink:href="#DejaVuSans-18"/>
      <use xlink:href="#DejaVuSans-3" transform="translate(63.625 0)"/>
      <use xlink:href="#DejaVuSans-57" transform="translate(95.40625 0)"/>
      <use xlink:href="#DejaVuSans-48" transform="translate(134.609375 0)"/>
      <use xlink:href="#DejaVuSans-55" transform="translate(196.140625 0)"/>
      <use xlink:href="#DejaVuSans-50" transform="translate(235.5 0)"/>
      <use xlink:href="#DejaVuSans-b" transform="translate(332.90625 0)"/>
      <use xlink:href="#DejaVuSans-56" transform="translate(371.921875 0)"/>
      <use xlink:href="#DejaVuSans-c" transform="translate(424.015625 0)"/>
     </g>
    </g>
   </g>
  </g>
 </g>
 <defs>
  <clipPath id="p30957e073b">
   <rect x="38.482813" y="22.318125" width="234.484986" height="255.024"/>
  </clipPath>
  <clipPath id="p84e8ffe3bf">
   <rect x="351.025305" y="22.318125" width="279" height="255.024"/>
  </clipPath>
 </defs>
</svg>
