<?xml version="1.0" encoding="utf-8" standalone="no"?>
<!DOCTYPE svg PUBLIC "-//W3C//DTD SVG 1.1//EN"
  "http://www.w3.org/Graphics/SVG/1.1/DTD/svg11.dtd">
<svg xmlns:xlink="http://www.w3.org/1999/xlink" width="583.995881pt" height="325.88pt" viewBox="0 0 583.995881 325.88" xmlns="http://www.w3.org/2000/svg" version="1.1">
 <metadata>
  <rdf:RDF xmlns:dc="http://purl.org/dc/elements/1.1/" xmlns:cc="http://creativecommons.org/ns#" xmlns:rdf="http://www.w3.org/1999/02/22-rdf-syntax-ns#">
   <cc:Work>
    <dc:type rdf:resource="http://purl.org/dc/dcmitype/StillImage"/>
    <dc:date>2026-06-13T14:54:56.106572</dc:date>
    <dc:format>image/svg+xml</dc:format>
    <dc:creator>
     <cc:Agent>
      <dc:title>Matplotlib v3.11.0, https://matplotlib.org/</dc:title>
     </cc:Agent>
    </dc:creator>
   </cc:Work>
  </rdf:RDF>
 </metadata>
 <defs>
  <style type="text/css">*{stroke-linejoin: round; stroke-linecap: butt}</style>
 </defs>
 <g id="figure_1">
  <g id="patch_1">
   <path d="M 0 325.88 
L 583.995881 325.88 
L 583.995881 0 
L 0 0 
z
" style="fill: #ffffff"/>
  </g>
  <g id="axes_1">
   <g id="patch_2">
    <path d="M 38.482813 276.77906 
L 292.119176 276.77906 
L 292.119176 49.38094 
L 38.482813 49.38094 
z
" style="fill: #ffffff"/>
   </g>
   <g id="patch_3">
    <path d="M 152.181872 163.08 
L 239.642687 163.08 
L 239.627487 161.449469 
L 239.581891 159.819505 
L 239.505916 158.190674 
L 239.399588 156.563543 
L 239.262944 154.938677 
L 239.096031 153.31664 
L 238.898907 151.697997 
L 238.671642 150.083311 
L 238.414313 148.473142 
L 238.127011 146.86805 
L 237.809835 145.268594 
L 237.462895 143.675328 
L 237.086312 142.088807 
L 236.680218 140.509583 
L 236.244752 138.938204 
L 235.780068 137.375217 
L 235.286325 135.821164 
L 234.763695 134.276586 
L 234.212361 132.74202 
L 233.632514 131.217999 
L 233.024355 129.705054 
L 232.388097 128.203709 
L 231.723959 126.714486 
L 231.032173 125.237904 
L 230.312979 123.774476 
L 229.566628 122.32471 
L 228.793379 120.88911 
L 227.9935 119.468175 
L 227.167269 118.062399 
L 226.314975 116.672271 
L 225.436912 115.298274 
L 224.533386 113.940886 
L 223.604712 112.600577 
L 222.651212 111.277815 
L 221.673217 109.973059 
L 220.671068 108.686763 
L 219.645112 107.419373 
L 218.595707 106.17133 
L 217.523217 104.943068 
L 216.428015 103.735014 
L 215.310481 102.547588 
L 214.171005 101.381203 
L 213.009981 100.236263 
L 211.827815 99.113167 
L 210.624916 98.012306 
L 209.401702 96.934061 
L 208.1586 95.878809 
L 206.89604 94.846914 
L 205.614463 93.838737 
L 204.314312 92.854628 
L 202.996041 91.894929 
L 201.660107 90.959972 
L 200.306976 90.050084 
L 198.937116 89.165581 
L 197.551004 88.306769 
L 196.149123 87.473949 
L 194.731959 86.667408 
L 193.300005 85.887427 
L 191.853759 85.134278 
z
" clip-path="url(#p88fffc4349)" style="fill: #1f77b4; opacity: 0.3; stroke: #1f77b4; stroke-linejoin: miter"/>
   </g>
   <g id="matplotlib.axis_1">
    <g id="xtick_1">
     <g id="line2d_1">
      <defs>
       <path id="mbb0dce1a9d" d="M 0 0 
L 0 3.5 
" style="stroke: #000000; stroke-width: 0.8"/>
      </defs>
      <g>
       <use xlink:href="#mbb0dce1a9d" x="64.721057" y="276.77906" style="stroke: #000000; stroke-width: 0.8"/>
      </g>
     </g>
     <g id="text_1">
      <!-- −1.0 -->
      <g transform="translate(52.579651 291.376716) scale(0.1 -0.1)">
       <defs>
        <path id="DejaVuSans-c9c" d="M 678 2272 
L 4684 2272 
L 4684 1741 
L 678 1741 
L 678 2272 
z
" transform="scale(0.015625)"/>
        <path id="DejaVuSans-14" d="M 794 531 
L 1825 531 
L 1825 4091 
L 703 3866 
L 703 4441 
L 1819 4666 
L 2450 4666 
L 2450 531 
L 3481 531 
L 3481 0 
L 794 0 
L 794 531 
z
" transform="scale(0.015625)"/>
        <path id="DejaVuSans-11" d="M 684 794 
L 1344 794 
L 1344 0 
L 684 0 
L 684 794 
z
" transform="scale(0.015625)"/>
        <path id="DejaVuSans-13" d="M 2034 4250 
Q 1547 4250 1301 3770 
Q 1056 3291 1056 2328 
Q 1056 1369 1301 889 
Q 1547 409 2034 409 
Q 2525 409 2770 889 
Q 3016 1369 3016 2328 
Q 3016 3291 2770 3770 
Q 2525 4250 2034 4250 
z
M 2034 4750 
Q 2819 4750 3233 4129 
Q 3647 3509 3647 2328 
Q 3647 1150 3233 529 
Q 2819 -91 2034 -91 
Q 1250 -91 836 529 
Q 422 1150 422 2328 
Q 422 3509 836 4129 
Q 1250 4750 2034 4750 
z
" transform="scale(0.015625)"/>
       </defs>
       <use xlink:href="#DejaVuSans-c9c"/>
       <use xlink:href="#DejaVuSans-14" transform="translate(83.796875 0)"/>
       <use xlink:href="#DejaVuSans-11" transform="translate(147.421875 0)"/>
       <use xlink:href="#DejaVuSans-13" transform="translate(179.203125 0)"/>
      </g>
     </g>
    </g>
    <g id="xtick_2">
     <g id="line2d_2">
      <g>
       <use xlink:href="#mbb0dce1a9d" x="108.451465" y="276.77906" style="stroke: #000000; stroke-width: 0.8"/>
      </g>
     </g>
     <g id="text_2">
      <!-- −0.5 -->
      <g transform="translate(96.310058 291.376716) scale(0.1 -0.1)">
       <defs>
        <path id="DejaVuSans-18" d="M 691 4666 
L 3169 4666 
L 3169 4134 
L 1269 4134 
L 1269 2991 
Q 1406 3038 1543 3061 
Q 1681 3084 1819 3084 
Q 2600 3084 3056 2656 
Q 3513 2228 3513 1497 
Q 3513 744 3044 326 
Q 2575 -91 1722 -91 
Q 1428 -91 1123 -41 
Q 819 9 494 109 
L 494 744 
Q 775 591 1075 516 
Q 1375 441 1709 441 
Q 2250 441 2565 725 
Q 2881 1009 2881 1497 
Q 2881 1984 2565 2268 
Q 2250 2553 1709 2553 
Q 1456 2553 1204 2497 
Q 953 2441 691 2322 
L 691 4666 
z
" transform="scale(0.015625)"/>
       </defs>
       <use xlink:href="#DejaVuSans-c9c"/>
       <use xlink:href="#DejaVuSans-13" transform="translate(83.796875 0)"/>
       <use xlink:href="#DejaVuSans-11" transform="translate(147.421875 0)"/>
       <use xlink:href="#DejaVuSans-18" transform="translate(179.203125 0)"/>
      </g>
     </g>
    </g>
    <g id="xtick_3">
     <g id="line2d_3">
      <g>
       <use xlink:href="#mbb0dce1a9d" x="152.181872" y="276.77906" style="stroke: #000000; stroke-width: 0.8"/>
      </g>
     </g>
     <g id="text_3">
      <!-- 0.0 -->
      <g transform="translate(144.23031 291.376716) scale(0.1 -0.1)">
       <use xlink:href="#DejaVuSans-13"/>
       <use xlink:href="#DejaVuSans-11" transform="translate(63.625 0)"/>
       <use xlink:href="#DejaVuSans-13" transform="translate(95.40625 0)"/>
      </g>
     </g>
    </g>
    <g id="xtick_4">
     <g id="line2d_4">
      <g>
       <use xlink:href="#mbb0dce1a9d" x="195.91228" y="276.77906" style="stroke: #000000; stroke-width: 0.8"/>
      </g>
     </g>
     <g id="text_4">
      <!-- 0.5 -->
      <g transform="translate(187.960717 291.376716) scale(0.1 -0.1)">
       <use xlink:href="#DejaVuSans-13"/>
       <use xlink:href="#DejaVuSans-11" transform="translate(63.625 0)"/>
       <use xlink:href="#DejaVuSans-18" transform="translate(95.40625 0)"/>
      </g>
     </g>
    </g>
    <g id="xtick_5">
     <g id="line2d_5">
      <g>
       <use xlink:href="#mbb0dce1a9d" x="239.642687" y="276.77906" style="stroke: #000000; stroke-width: 0.8"/>
      </g>
     </g>
     <g id="text_5">
      <!-- 1.0 -->
      <g transform="translate(231.691125 291.376716) scale(0.1 -0.1)">
       <use xlink:href="#DejaVuSans-14"/>
       <use xlink:href="#DejaVuSans-11" transform="translate(63.625 0)"/>
       <use xlink:href="#DejaVuSans-13" transform="translate(95.40625 0)"/>
      </g>
     </g>
    </g>
    <g id="xtick_6">
     <g id="line2d_6">
      <g>
       <use xlink:href="#mbb0dce1a9d" x="283.373095" y="276.77906" style="stroke: #000000; stroke-width: 0.8"/>
      </g>
     </g>
     <g id="text_6">
      <!-- 1.5 -->
      <g transform="translate(275.421532 291.376716) scale(0.1 -0.1)">
       <use xlink:href="#DejaVuSans-14"/>
       <use xlink:href="#DejaVuSans-11" transform="translate(63.625 0)"/>
       <use xlink:href="#DejaVuSans-18" transform="translate(95.40625 0)"/>
      </g>
     </g>
    </g>
   </g>
   <g id="matplotlib.axis_2">
    <g id="ytick_1">
     <g id="line2d_7">
      <defs>
       <path id="mf4e4d0c655" d="M 0 0 
L -3.5 0 
" style="stroke: #000000; stroke-width: 0.8"/>
      </defs>
      <g>
       <use xlink:href="#mf4e4d0c655" x="38.482813" y="250.540815" style="stroke: #000000; stroke-width: 0.8"/>
      </g>
     </g>
     <g id="text_7">
      <!-- −1.0 -->
      <g transform="translate(7.2 254.339643) scale(0.1 -0.1)">
       <use xlink:href="#DejaVuSans-c9c"/>
       <use xlink:href="#DejaVuSans-14" transform="translate(83.796875 0)"/>
       <use xlink:href="#DejaVuSans-11" transform="translate(147.421875 0)"/>
       <use xlink:href="#DejaVuSans-13" transform="translate(179.203125 0)"/>
      </g>
     </g>
    </g>
    <g id="ytick_2">
     <g id="line2d_8">
      <g>
       <use xlink:href="#mf4e4d0c655" x="38.482813" y="206.810408" style="stroke: #000000; stroke-width: 0.8"/>
      </g>
     </g>
     <g id="text_8">
      <!-- −0.5 -->
      <g transform="translate(7.2 210.609236) scale(0.1 -0.1)">
       <use xlink:href="#DejaVuSans-c9c"/>
       <use xlink:href="#DejaVuSans-13" transform="translate(83.796875 0)"/>
       <use xlink:href="#DejaVuSans-11" transform="translate(147.421875 0)"/>
       <use xlink:href="#DejaVuSans-18" transform="translate(179.203125 0)"/>
      </g>
     </g>
    </g>
    <g id="ytick_3">
     <g id="line2d_9">
      <g>
       <use xlink:href="#mf4e4d0c655" x="38.482813" y="163.08" style="stroke: #000000; stroke-width: 0.8"/>
      </g>
     </g>
     <g id="text_9">
      <!-- 0.0 -->
      <g transform="translate(15.579688 166.878828) scale(0.1 -0.1)">
       <use xlink:href="#DejaVuSans-13"/>
       <use xlink:href="#DejaVuSans-11" transform="translate(63.625 0)"/>
       <use xlink:href="#DejaVuSans-13" transform="translate(95.40625 0)"/>
      </g>
     </g>
    </g>
    <g id="ytick_4">
     <g id="line2d_10">
      <g>
       <use xlink:href="#mf4e4d0c655" x="38.482813" y="119.349592" style="stroke: #000000; stroke-width: 0.8"/>
      </g>
     </g>
     <g id="text_10">
      <!-- 0.5 -->
      <g transform="translate(15.579688 123.148421) scale(0.1 -0.1)">
       <use xlink:href="#DejaVuSans-13"/>
       <use xlink:href="#DejaVuSans-11" transform="translate(63.625 0)"/>
       <use xlink:href="#DejaVuSans-18" transform="translate(95.40625 0)"/>
      </g>
     </g>
    </g>
    <g id="ytick_5">
     <g id="line2d_11">
      <g>
       <use xlink:href="#mf4e4d0c655" x="38.482813" y="75.619185" style="stroke: #000000; stroke-width: 0.8"/>
      </g>
     </g>
     <g id="text_11">
      <!-- 1.0 -->
      <g transform="translate(15.579688 79.418013) scale(0.1 -0.1)">
       <use xlink:href="#DejaVuSans-14"/>
       <use xlink:href="#DejaVuSans-11" transform="translate(63.625 0)"/>
       <use xlink:href="#DejaVuSans-13" transform="translate(95.40625 0)"/>
      </g>
     </g>
    </g>
   </g>
   <g id="line2d_12">
    <path d="M 239.642687 163.08 
L 239.545107 158.949713 
L 239.252586 154.828643 
L 238.765776 150.725985 
L 238.085764 146.650893 
L 237.214066 142.612461 
L 236.152628 138.6197 
L 234.903819 134.68152 
L 233.470425 130.806708 
L 231.855644 127.00391 
L 230.063079 123.281612 
L 228.096732 119.648119 
L 225.960988 116.11154 
L 223.660615 112.679767 
L 221.200744 109.360456 
L 218.586866 106.161014 
L 215.824811 103.08858 
L 212.920745 100.150011 
L 209.881147 97.351864 
L 206.712798 94.700381 
L 203.42277 92.201481 
L 200.018404 89.860737 
L 196.507295 87.683375 
L 192.897279 85.674252 
L 189.196411 83.837852 
L 185.41295 82.178272 
L 181.555336 80.699215 
L 177.632179 79.403982 
L 173.652233 78.295463 
L 169.624378 77.376131 
L 165.557601 76.648038 
L 161.460978 76.112809 
L 157.34365 75.771637 
L 153.214804 75.625285 
L 149.083653 75.674078 
L 144.959415 75.917908 
L 140.851294 76.356231 
L 136.768455 76.988068 
L 132.72001 77.81201 
L 128.714992 78.826219 
L 124.762337 80.02843 
L 120.870866 81.415962 
L 117.049263 82.985718 
L 113.306054 84.734197 
L 109.649592 86.657495 
L 106.088036 88.751321 
L 102.629334 91.011004 
L 99.281203 93.431502 
L 96.051113 96.007412 
L 92.946274 98.732987 
L 89.973612 101.602146 
L 87.139761 104.608486 
L 84.451045 107.745298 
L 81.913462 111.005584 
L 79.532676 114.382069 
L 77.313999 117.867217 
L 75.262381 121.453253 
L 73.382401 125.132175 
L 71.678253 128.895772 
L 70.15374 132.735649 
L 68.812264 136.643235 
L 67.656818 140.609812 
L 66.68998 144.626529 
L 65.913909 148.684423 
L 65.330334 152.774439 
L 64.94056 156.887451 
L 64.745455 161.01428 
L 64.745455 165.14572 
L 64.94056 169.272549 
L 65.330334 173.385561 
L 65.913909 177.475577 
L 66.68998 181.533471 
L 67.656818 185.550188 
L 68.812264 189.516765 
L 70.15374 193.424351 
L 71.678253 197.264228 
L 73.382401 201.027825 
L 75.262381 204.706747 
L 77.313999 208.292783 
L 79.532676 211.777931 
L 81.913462 215.154416 
L 84.451045 218.414702 
L 87.139761 221.551514 
L 89.973612 224.557854 
L 92.946274 227.427013 
L 96.051113 230.152588 
L 99.281203 232.728498 
L 102.629334 235.148996 
L 106.088036 237.408679 
L 109.649592 239.502505 
L 113.306054 241.425803 
L 117.049263 243.174282 
L 120.870866 244.744038 
L 124.762337 246.13157 
L 128.714992 247.333781 
L 132.72001 248.34799 
L 136.768455 249.171932 
L 140.851294 249.803769 
L 144.959415 250.242092 
L 149.083653 250.485922 
L 153.214804 250.534715 
L 157.34365 250.388363 
L 161.460978 250.047191 
L 165.557601 249.511962 
L 169.624378 248.783869 
L 173.652233 247.864537 
L 177.632179 246.756018 
L 181.555336 245.460785 
L 185.41295 243.981728 
L 189.196411 242.322148 
L 192.897279 240.485748 
L 196.507295 238.476625 
L 200.018404 236.299263 
L 203.42277 233.958519 
L 206.712798 231.459619 
L 209.881147 228.808136 
L 212.920745 226.009989 
L 215.824811 223.07142 
L 218.586866 219.998986 
L 221.200744 216.799544 
L 223.660615 213.480233 
L 225.960988 210.04846 
L 228.096732 206.511881 
L 230.063079 202.878388 
L 231.855644 199.15609 
L 233.470425 195.353292 
L 234.903819 191.47848 
L 236.152628 187.5403 
L 237.214066 183.547539 
L 238.085764 179.509107 
L 238.765776 175.434015 
L 239.252586 171.331357 
L 239.545107 167.210287 
L 239.642687 163.08 
L 239.642687 163.08 
" clip-path="url(#p88fffc4349)" style="fill: none; stroke: #666666; stroke-width: 1.5; stroke-linecap: square"/>
   </g>
   <g id="line2d_13">
    <path d="M 152.181872 163.08 
L 191.853759 85.134278 
" clip-path="url(#p88fffc4349)" style="fill: none; stroke: #1f77b4; stroke-width: 1.5; stroke-linecap: square"/>
   </g>
   <g id="line2d_14">
    <defs>
     <path id="ma04ee301a4" d="M 0 3 
C 0.795609 3 1.55874 2.683901 2.12132 2.12132 
C 2.683901 1.55874 3 0.795609 3 0 
C 3 -0.795609 2.683901 -1.55874 2.12132 -2.12132 
C 1.55874 -2.683901 0.795609 -3 0 -3 
C -0.795609 -3 -1.55874 -2.683901 -2.12132 -2.12132 
C -2.683901 -1.55874 -3 -0.795609 -3 0 
C -3 0.795609 -2.683901 1.55874 -2.12132 2.12132 
C -1.55874 2.683901 -0.795609 3 0 3 
z
" style="stroke: #1f77b4"/>
    </defs>
    <g clip-path="url(#p88fffc4349)">
     <use xlink:href="#ma04ee301a4" x="191.853759" y="85.134278" style="fill: #1f77b4; stroke: #1f77b4"/>
    </g>
   </g>
   <g id="line2d_15">
    <path d="M 38.482813 163.08 
L 292.119176 163.08 
" clip-path="url(#p88fffc4349)" style="fill: none; stroke: #cccccc; stroke-width: 0.6; stroke-linecap: square"/>
   </g>
   <g id="line2d_16">
    <path d="M 152.181872 276.77906 
L 152.181872 49.38094 
" clip-path="url(#p88fffc4349)" style="fill: none; stroke: #cccccc; stroke-width: 0.6; stroke-linecap: square"/>
   </g>
   <g id="patch_4">
    <path d="M 38.482813 276.77906 
L 38.482813 49.38094 
" style="fill: none; stroke: #000000; stroke-width: 0.8; stroke-linejoin: miter; stroke-linecap: square"/>
   </g>
   <g id="patch_5">
    <path d="M 292.119176 276.77906 
L 292.119176 49.38094 
" style="fill: none; stroke: #000000; stroke-width: 0.8; stroke-linejoin: miter; stroke-linecap: square"/>
   </g>
   <g id="patch_6">
    <path d="M 38.482812 276.77906 
L 292.119176 276.77906 
" style="fill: none; stroke: #000000; stroke-width: 0.8; stroke-linejoin: miter; stroke-linecap: square"/>
   </g>
   <g id="patch_7">
    <path d="M 38.482812 49.38094 
L 292.119176 49.38094 
" style="fill: none; stroke: #000000; stroke-width: 0.8; stroke-linejoin: miter; stroke-linecap: square"/>
   </g>
   <g id="text_12">
    <!-- $(\cos t,\ \sin t)$ -->
    <g transform="translate(199.853759 79.134278) scale(0.1 -0.1)">
     <defs>
      <path id="DejaVuSans-b" d="M 1984 4856 
Q 1566 4138 1362 3434 
Q 1159 2731 1159 2009 
Q 1159 1288 1364 580 
Q 1569 -128 1984 -844 
L 1484 -844 
Q 1016 -109 783 600 
Q 550 1309 550 2009 
Q 550 2706 781 3412 
Q 1013 4119 1484 4856 
L 1984 4856 
z
" transform="scale(0.015625)"/>
      <path id="DejaVuSans-46" d="M 3122 3366 
L 3122 2828 
Q 2878 2963 2633 3030 
Q 2388 3097 2138 3097 
Q 1578 3097 1268 2742 
Q 959 2388 959 1747 
Q 959 1106 1268 751 
Q 1578 397 2138 397 
Q 2388 397 2633 464 
Q 2878 531 3122 666 
L 3122 134 
Q 2881 22 2623 -34 
Q 2366 -91 2075 -91 
Q 1284 -91 818 406 
Q 353 903 353 1747 
Q 353 2603 823 3093 
Q 1294 3584 2113 3584 
Q 2378 3584 2631 3529 
Q 2884 3475 3122 3366 
z
" transform="scale(0.015625)"/>
      <path id="DejaVuSans-52" d="M 1959 3097 
Q 1497 3097 1228 2736 
Q 959 2375 959 1747 
Q 959 1119 1226 758 
Q 1494 397 1959 397 
Q 2419 397 2687 759 
Q 2956 1122 2956 1747 
Q 2956 2369 2687 2733 
Q 2419 3097 1959 3097 
z
M 1959 3584 
Q 2709 3584 3137 3096 
Q 3566 2609 3566 1747 
Q 3566 888 3137 398 
Q 2709 -91 1959 -91 
Q 1206 -91 779 398 
Q 353 888 353 1747 
Q 353 2609 779 3096 
Q 1206 3584 1959 3584 
z
" transform="scale(0.015625)"/>
      <path id="DejaVuSans-56" d="M 2834 3397 
L 2834 2853 
Q 2591 2978 2328 3040 
Q 2066 3103 1784 3103 
Q 1356 3103 1142 2972 
Q 928 2841 928 2578 
Q 928 2378 1081 2264 
Q 1234 2150 1697 2047 
L 1894 2003 
Q 2506 1872 2764 1633 
Q 3022 1394 3022 966 
Q 3022 478 2636 193 
Q 2250 -91 1575 -91 
Q 1294 -91 989 -36 
Q 684 19 347 128 
L 347 722 
Q 666 556 975 473 
Q 1284 391 1588 391 
Q 1994 391 2212 530 
Q 2431 669 2431 922 
Q 2431 1156 2273 1281 
Q 2116 1406 1581 1522 
L 1381 1569 
Q 847 1681 609 1914 
Q 372 2147 372 2553 
Q 372 3047 722 3315 
Q 1072 3584 1716 3584 
Q 2034 3584 2315 3537 
Q 2597 3491 2834 3397 
z
" transform="scale(0.015625)"/>
      <path id="DejaVuSans-Oblique-57" d="M 2706 3500 
L 2619 3053 
L 1472 3053 
L 1100 1153 
Q 1081 1047 1072 975 
Q 1063 903 1063 863 
Q 1063 663 1183 572 
Q 1303 481 1569 481 
L 2150 481 
L 2053 0 
L 1503 0 
Q 991 0 739 200 
Q 488 400 488 806 
Q 488 878 497 964 
Q 506 1050 525 1153 
L 897 3053 
L 409 3053 
L 500 3500 
L 978 3500 
L 1172 4494 
L 1747 4494 
L 1556 3500 
L 2706 3500 
z
" transform="scale(0.015625)"/>
      <path id="DejaVuSans-f" d="M 750 794 
L 1409 794 
L 1409 256 
L 897 -744 
L 494 -744 
L 750 256 
L 750 794 
z
" transform="scale(0.015625)"/>
      <path id="DejaVuSans-4c" d="M 603 3500 
L 1178 3500 
L 1178 0 
L 603 0 
L 603 3500 
z
M 603 4863 
L 1178 4863 
L 1178 4134 
L 603 4134 
L 603 4863 
z
" transform="scale(0.015625)"/>
      <path id="DejaVuSans-51" d="M 3513 2113 
L 3513 0 
L 2938 0 
L 2938 2094 
Q 2938 2591 2744 2837 
Q 2550 3084 2163 3084 
Q 1697 3084 1428 2787 
Q 1159 2491 1159 1978 
L 1159 0 
L 581 0 
L 581 3500 
L 1159 3500 
L 1159 2956 
Q 1366 3272 1645 3428 
Q 1925 3584 2291 3584 
Q 2894 3584 3203 3211 
Q 3513 2838 3513 2113 
z
" transform="scale(0.015625)"/>
      <path id="DejaVuSans-c" d="M 513 4856 
L 1013 4856 
Q 1481 4119 1714 3412 
Q 1947 2706 1947 2009 
Q 1947 1309 1714 600 
Q 1481 -109 1013 -844 
L 513 -844 
Q 928 -128 1133 580 
Q 1338 1288 1338 2009 
Q 1338 2731 1133 3434 
Q 928 4138 513 4856 
z
" transform="scale(0.015625)"/>
     </defs>
     <use xlink:href="#DejaVuSans-b" transform="translate(0 0.015625)"/>
     <use xlink:href="#DejaVuSans-46" transform="translate(39.013672 0.015625)"/>
     <use xlink:href="#DejaVuSans-52" transform="translate(93.994141 0.015625)"/>
     <use xlink:href="#DejaVuSans-56" transform="translate(155.175781 0.015625)"/>
     <use xlink:href="#DejaVuSans-Oblique-57" transform="translate(223.511067 0.015625)"/>
     <use xlink:href="#DejaVuSans-f" transform="translate(262.720051 0.015625)"/>
     <use xlink:href="#DejaVuSans-56" transform="translate(346.459961 0.015625)"/>
     <use xlink:href="#DejaVuSans-4c" transform="translate(398.55957 0.015625)"/>
     <use xlink:href="#DejaVuSans-51" transform="translate(426.342773 0.015625)"/>
     <use xlink:href="#DejaVuSans-Oblique-57" transform="translate(505.957356 0.015625)"/>
     <use xlink:href="#DejaVuSans-c" transform="translate(545.16634 0.015625)"/>
    </g>
   </g>
   <g id="text_13">
    <!-- circle  $x^2+y^2=1$   (area $=t/2$) -->
    <g transform="translate(72.360994 43.38094) scale(0.12 -0.12)">
     <defs>
      <path id="DejaVuSans-55" d="M 2631 2963 
Q 2534 3019 2420 3045 
Q 2306 3072 2169 3072 
Q 1681 3072 1420 2755 
Q 1159 2438 1159 1844 
L 1159 0 
L 581 0 
L 581 3500 
L 1159 3500 
L 1159 2956 
Q 1341 3275 1631 3429 
Q 1922 3584 2338 3584 
Q 2397 3584 2469 3576 
Q 2541 3569 2628 3553 
L 2631 2963 
z
" transform="scale(0.015625)"/>
      <path id="DejaVuSans-4f" d="M 603 4863 
L 1178 4863 
L 1178 0 
L 603 0 
L 603 4863 
z
" transform="scale(0.015625)"/>
      <path id="DejaVuSans-48" d="M 3597 1894 
L 3597 1613 
L 953 1613 
Q 991 1019 1311 708 
Q 1631 397 2203 397 
Q 2534 397 2845 478 
Q 3156 559 3463 722 
L 3463 178 
Q 3153 47 2828 -22 
Q 2503 -91 2169 -91 
Q 1331 -91 842 396 
Q 353 884 353 1716 
Q 353 2575 817 3079 
Q 1281 3584 2069 3584 
Q 2775 3584 3186 3129 
Q 3597 2675 3597 1894 
z
M 3022 2063 
Q 3016 2534 2758 2815 
Q 2500 3097 2075 3097 
Q 1594 3097 1305 2825 
Q 1016 2553 972 2059 
L 3022 2063 
z
" transform="scale(0.015625)"/>
      <path id="DejaVuSans-3" transform="scale(0.015625)"/>
      <path id="DejaVuSans-Oblique-5b" d="M 3841 3500 
L 2234 1784 
L 3219 0 
L 2559 0 
L 1819 1388 
L 531 0 
L -166 0 
L 1556 1844 
L 641 3500 
L 1300 3500 
L 1972 2234 
L 3144 3500 
L 3841 3500 
z
" transform="scale(0.015625)"/>
      <path id="DejaVuSans-15" d="M 1228 531 
L 3431 531 
L 3431 0 
L 469 0 
L 469 531 
Q 828 903 1448 1529 
Q 2069 2156 2228 2338 
Q 2531 2678 2651 2914 
Q 2772 3150 2772 3378 
Q 2772 3750 2511 3984 
Q 2250 4219 1831 4219 
Q 1534 4219 1204 4116 
Q 875 4013 500 3803 
L 500 4441 
Q 881 4594 1212 4672 
Q 1544 4750 1819 4750 
Q 2544 4750 2975 4387 
Q 3406 4025 3406 3419 
Q 3406 3131 3298 2873 
Q 3191 2616 2906 2266 
Q 2828 2175 2409 1742 
Q 1991 1309 1228 531 
z
" transform="scale(0.015625)"/>
      <path id="DejaVuSans-e" d="M 2944 4013 
L 2944 2272 
L 4684 2272 
L 4684 1741 
L 2944 1741 
L 2944 0 
L 2419 0 
L 2419 1741 
L 678 1741 
L 678 2272 
L 2419 2272 
L 2419 4013 
L 2944 4013 
z
" transform="scale(0.015625)"/>
      <path id="DejaVuSans-Oblique-5c" d="M 1588 -325 
Q 1188 -997 936 -1164 
Q 684 -1331 294 -1331 
L -159 -1331 
L -63 -850 
L 269 -850 
Q 509 -850 678 -719 
Q 847 -588 1056 -206 
L 1234 128 
L 459 3500 
L 1069 3500 
L 1650 819 
L 3256 3500 
L 3859 3500 
L 1588 -325 
z
" transform="scale(0.015625)"/>
      <path id="DejaVuSans-20" d="M 678 2906 
L 4684 2906 
L 4684 2381 
L 678 2381 
L 678 2906 
z
M 678 1631 
L 4684 1631 
L 4684 1100 
L 678 1100 
L 678 1631 
z
" transform="scale(0.015625)"/>
      <path id="DejaVuSans-44" d="M 2194 1759 
Q 1497 1759 1228 1600 
Q 959 1441 959 1056 
Q 959 750 1161 570 
Q 1363 391 1709 391 
Q 2188 391 2477 730 
Q 2766 1069 2766 1631 
L 2766 1759 
L 2194 1759 
z
M 3341 1997 
L 3341 0 
L 2766 0 
L 2766 531 
Q 2569 213 2275 61 
Q 1981 -91 1556 -91 
Q 1019 -91 701 211 
Q 384 513 384 1019 
Q 384 1609 779 1909 
Q 1175 2209 1959 2209 
L 2766 2209 
L 2766 2266 
Q 2766 2663 2505 2880 
Q 2244 3097 1772 3097 
Q 1472 3097 1187 3025 
Q 903 2953 641 2809 
L 641 3341 
Q 956 3463 1253 3523 
Q 1550 3584 1831 3584 
Q 2591 3584 2966 3190 
Q 3341 2797 3341 1997 
z
" transform="scale(0.015625)"/>
      <path id="DejaVuSans-12" d="M 1625 4666 
L 2156 4666 
L 531 -594 
L 0 -594 
L 1625 4666 
z
" transform="scale(0.015625)"/>
     </defs>
     <use xlink:href="#DejaVuSans-46" transform="translate(0 0.746875)"/>
     <use xlink:href="#DejaVuSans-4c" transform="translate(54.980469 0.746875)"/>
     <use xlink:href="#DejaVuSans-55" transform="translate(82.763672 0.746875)"/>
     <use xlink:href="#DejaVuSans-46" transform="translate(121.876953 0.746875)"/>
     <use xlink:href="#DejaVuSans-4f" transform="translate(176.857422 0.746875)"/>
     <use xlink:href="#DejaVuSans-48" transform="translate(204.640625 0.746875)"/>
     <use xlink:href="#DejaVuSans-3" transform="translate(266.164062 0.746875)"/>
     <use xlink:href="#DejaVuSans-3" transform="translate(297.951172 0.746875)"/>
     <use xlink:href="#DejaVuSans-Oblique-5b" transform="translate(329.738281 0.746875)"/>
     <use xlink:href="#DejaVuSans-15" transform="translate(393.384115 42.046875) scale(0.7)"/>
     <use xlink:href="#DejaVuSans-e" transform="translate(460.137044 0.746875)"/>
     <use xlink:href="#DejaVuSans-Oblique-5c" transform="translate(563.408529 0.746875)"/>
     <use xlink:href="#DejaVuSans-15" transform="translate(627.054362 42.046875) scale(0.7)"/>
     <use xlink:href="#DejaVuSans-20" transform="translate(693.807292 0.746875)"/>
     <use xlink:href="#DejaVuSans-14" transform="translate(797.078776 0.746875)"/>
     <use xlink:href="#DejaVuSans-3" transform="translate(860.701823 0.746875)"/>
     <use xlink:href="#DejaVuSans-3" transform="translate(892.488932 0.746875)"/>
     <use xlink:href="#DejaVuSans-3" transform="translate(924.276042 0.746875)"/>
     <use xlink:href="#DejaVuSans-b" transform="translate(956.063151 0.746875)"/>
     <use xlink:href="#DejaVuSans-44" transform="translate(995.076823 0.746875)"/>
     <use xlink:href="#DejaVuSans-55" transform="translate(1056.35612 0.746875)"/>
     <use xlink:href="#DejaVuSans-48" transform="translate(1095.469401 0.746875)"/>
     <use xlink:href="#DejaVuSans-44" transform="translate(1156.992839 0.746875)"/>
     <use xlink:href="#DejaVuSans-3" transform="translate(1218.272135 0.746875)"/>
     <use xlink:href="#DejaVuSans-20" transform="translate(1269.541667 0.746875)"/>
     <use xlink:href="#DejaVuSans-Oblique-57" transform="translate(1372.813151 0.746875)"/>
     <use xlink:href="#DejaVuSans-12" transform="translate(1412.022135 0.746875)"/>
     <use xlink:href="#DejaVuSans-15" transform="translate(1445.713542 0.746875)"/>
     <use xlink:href="#DejaVuSans-c" transform="translate(1509.336589 0.746875)"/>
    </g>
   </g>
  </g>
  <g id="axes_2">
   <g id="patch_8">
    <path d="M 365.714631 301.68 
L 573.614631 301.68 
L 573.614631 24.48 
L 365.714631 24.48 
z
" style="fill: #ffffff"/>
   </g>
   <g id="patch_9">
    <path d="M 384.614631 163.08 
L 447.614631 163.08 
L 447.62558 161.905356 
L 447.658434 160.730303 
L 447.713201 159.554434 
L 447.789903 158.377339 
L 447.888565 157.198609 
L 448.009222 156.017835 
L 448.151915 154.834606 
L 448.316695 153.648511 
L 448.503618 152.459137 
L 448.71275 151.266072 
L 448.944163 150.068899 
L 449.197938 148.867204 
L 449.474162 147.660569 
L 449.772933 146.448573 
L 450.094353 145.230796 
L 450.438535 144.006815 
L 450.805598 142.776203 
L 451.19567 141.538534 
L 451.608886 140.293377 
L 452.04539 139.040299 
L 452.505333 137.778864 
L 452.988876 136.508634 
L 453.496187 135.229168 
L 454.027442 133.940021 
L 454.582826 132.640744 
L 455.162531 131.330886 
L 455.76676 130.009992 
L 456.395721 128.677602 
L 457.049635 127.333254 
L 457.728728 125.976479 
L 458.433236 124.606807 
L 459.163405 123.223762 
L 459.919487 121.826861 
L 460.701747 120.415621 
L 461.510455 118.98955 
L 462.345893 117.548153 
L 463.208351 116.090929 
L 464.098129 114.61737 
L 465.015537 113.126965 
L 465.960892 111.619196 
L 466.934525 110.093539 
L 467.936773 108.549463 
L 468.967985 106.986432 
L 470.028519 105.403902 
L 471.118744 103.801323 
L 472.239038 102.178138 
L 473.389792 100.533783 
L 474.571405 98.867686 
L 475.784288 97.179268 
L 477.028863 95.467942 
L 478.305562 93.733114 
L 479.614829 91.97418 
L 480.957119 90.190528 
L 482.332899 88.38154 
L 483.742647 86.546585 
L 485.186853 84.685027 
L 486.666019 82.796217 
L 488.180659 80.8795 
L 489.7313 78.934209 
z
" clip-path="url(#p7340f2099a)" style="fill: #d62728; opacity: 0.3; stroke: #d62728; stroke-linejoin: miter"/>
   </g>
   <g id="matplotlib.axis_3">
    <g id="xtick_7">
     <g id="line2d_17">
      <g>
       <use xlink:href="#mbb0dce1a9d" x="384.614631" y="301.68" style="stroke: #000000; stroke-width: 0.8"/>
      </g>
     </g>
     <g id="text_14">
      <!-- 0 -->
      <g transform="translate(381.433381 316.277656) scale(0.1 -0.1)">
       <use xlink:href="#DejaVuSans-13"/>
      </g>
     </g>
    </g>
    <g id="xtick_8">
     <g id="line2d_18">
      <g>
       <use xlink:href="#mbb0dce1a9d" x="447.614631" y="301.68" style="stroke: #000000; stroke-width: 0.8"/>
      </g>
     </g>
     <g id="text_15">
      <!-- 1 -->
      <g transform="translate(444.433381 316.277656) scale(0.1 -0.1)">
       <use xlink:href="#DejaVuSans-14"/>
      </g>
     </g>
    </g>
    <g id="xtick_9">
     <g id="line2d_19">
      <g>
       <use xlink:href="#mbb0dce1a9d" x="510.614631" y="301.68" style="stroke: #000000; stroke-width: 0.8"/>
      </g>
     </g>
     <g id="text_16">
      <!-- 2 -->
      <g transform="translate(507.433381 316.277656) scale(0.1 -0.1)">
       <use xlink:href="#DejaVuSans-15"/>
      </g>
     </g>
    </g>
    <g id="xtick_10">
     <g id="line2d_20">
      <g>
       <use xlink:href="#mbb0dce1a9d" x="573.614631" y="301.68" style="stroke: #000000; stroke-width: 0.8"/>
      </g>
     </g>
     <g id="text_17">
      <!-- 3 -->
      <g transform="translate(570.433381 316.277656) scale(0.1 -0.1)">
       <defs>
        <path id="DejaVuSans-16" d="M 2597 2516 
Q 3050 2419 3304 2112 
Q 3559 1806 3559 1356 
Q 3559 666 3084 287 
Q 2609 -91 1734 -91 
Q 1441 -91 1130 -33 
Q 819 25 488 141 
L 488 750 
Q 750 597 1062 519 
Q 1375 441 1716 441 
Q 2309 441 2620 675 
Q 2931 909 2931 1356 
Q 2931 1769 2642 2001 
Q 2353 2234 1838 2234 
L 1294 2234 
L 1294 2753 
L 1863 2753 
Q 2328 2753 2575 2939 
Q 2822 3125 2822 3475 
Q 2822 3834 2567 4026 
Q 2313 4219 1838 4219 
Q 1578 4219 1281 4162 
Q 984 4106 628 3988 
L 628 4550 
Q 988 4650 1302 4700 
Q 1616 4750 1894 4750 
Q 2613 4750 3031 4423 
Q 3450 4097 3450 3541 
Q 3450 3153 3228 2886 
Q 3006 2619 2597 2516 
z
" transform="scale(0.015625)"/>
       </defs>
       <use xlink:href="#DejaVuSans-16"/>
      </g>
     </g>
    </g>
   </g>
   <g id="matplotlib.axis_4">
    <g id="ytick_6">
     <g id="line2d_21">
      <g>
       <use xlink:href="#mf4e4d0c655" x="365.714631" y="289.08" style="stroke: #000000; stroke-width: 0.8"/>
      </g>
     </g>
     <g id="text_18">
      <!-- −2.0 -->
      <g transform="translate(334.431818 292.878828) scale(0.1 -0.1)">
       <use xlink:href="#DejaVuSans-c9c"/>
       <use xlink:href="#DejaVuSans-15" transform="translate(83.796875 0)"/>
       <use xlink:href="#DejaVuSans-11" transform="translate(147.421875 0)"/>
       <use xlink:href="#DejaVuSans-13" transform="translate(179.203125 0)"/>
      </g>
     </g>
    </g>
    <g id="ytick_7">
     <g id="line2d_22">
      <g>
       <use xlink:href="#mf4e4d0c655" x="365.714631" y="257.58" style="stroke: #000000; stroke-width: 0.8"/>
      </g>
     </g>
     <g id="text_19">
      <!-- −1.5 -->
      <g transform="translate(334.431818 261.378828) scale(0.1 -0.1)">
       <use xlink:href="#DejaVuSans-c9c"/>
       <use xlink:href="#DejaVuSans-14" transform="translate(83.796875 0)"/>
       <use xlink:href="#DejaVuSans-11" transform="translate(147.421875 0)"/>
       <use xlink:href="#DejaVuSans-18" transform="translate(179.203125 0)"/>
      </g>
     </g>
    </g>
    <g id="ytick_8">
     <g id="line2d_23">
      <g>
       <use xlink:href="#mf4e4d0c655" x="365.714631" y="226.08" style="stroke: #000000; stroke-width: 0.8"/>
      </g>
     </g>
     <g id="text_20">
      <!-- −1.0 -->
      <g transform="translate(334.431818 229.878828) scale(0.1 -0.1)">
       <use xlink:href="#DejaVuSans-c9c"/>
       <use xlink:href="#DejaVuSans-14" transform="translate(83.796875 0)"/>
       <use xlink:href="#DejaVuSans-11" transform="translate(147.421875 0)"/>
       <use xlink:href="#DejaVuSans-13" transform="translate(179.203125 0)"/>
      </g>
     </g>
    </g>
    <g id="ytick_9">
     <g id="line2d_24">
      <g>
       <use xlink:href="#mf4e4d0c655" x="365.714631" y="194.58" style="stroke: #000000; stroke-width: 0.8"/>
      </g>
     </g>
     <g id="text_21">
      <!-- −0.5 -->
      <g transform="translate(334.431818 198.378828) scale(0.1 -0.1)">
       <use xlink:href="#DejaVuSans-c9c"/>
       <use xlink:href="#DejaVuSans-13" transform="translate(83.796875 0)"/>
       <use xlink:href="#DejaVuSans-11" transform="translate(147.421875 0)"/>
       <use xlink:href="#DejaVuSans-18" transform="translate(179.203125 0)"/>
      </g>
     </g>
    </g>
    <g id="ytick_10">
     <g id="line2d_25">
      <g>
       <use xlink:href="#mf4e4d0c655" x="365.714631" y="163.08" style="stroke: #000000; stroke-width: 0.8"/>
      </g>
     </g>
     <g id="text_22">
      <!-- 0.0 -->
      <g transform="translate(342.811506 166.878828) scale(0.1 -0.1)">
       <use xlink:href="#DejaVuSans-13"/>
       <use xlink:href="#DejaVuSans-11" transform="translate(63.625 0)"/>
       <use xlink:href="#DejaVuSans-13" transform="translate(95.40625 0)"/>
      </g>
     </g>
    </g>
    <g id="ytick_11">
     <g id="line2d_26">
      <g>
       <use xlink:href="#mf4e4d0c655" x="365.714631" y="131.58" style="stroke: #000000; stroke-width: 0.8"/>
      </g>
     </g>
     <g id="text_23">
      <!-- 0.5 -->
      <g transform="translate(342.811506 135.378828) scale(0.1 -0.1)">
       <use xlink:href="#DejaVuSans-13"/>
       <use xlink:href="#DejaVuSans-11" transform="translate(63.625 0)"/>
       <use xlink:href="#DejaVuSans-18" transform="translate(95.40625 0)"/>
      </g>
     </g>
    </g>
    <g id="ytick_12">
     <g id="line2d_27">
      <g>
       <use xlink:href="#mf4e4d0c655" x="365.714631" y="100.08" style="stroke: #000000; stroke-width: 0.8"/>
      </g>
     </g>
     <g id="text_24">
      <!-- 1.0 -->
      <g transform="translate(342.811506 103.878828) scale(0.1 -0.1)">
       <use xlink:href="#DejaVuSans-14"/>
       <use xlink:href="#DejaVuSans-11" transform="translate(63.625 0)"/>
       <use xlink:href="#DejaVuSans-13" transform="translate(95.40625 0)"/>
      </g>
     </g>
    </g>
    <g id="ytick_13">
     <g id="line2d_28">
      <g>
       <use xlink:href="#mf4e4d0c655" x="365.714631" y="68.58" style="stroke: #000000; stroke-width: 0.8"/>
      </g>
     </g>
     <g id="text_25">
      <!-- 1.5 -->
      <g transform="translate(342.811506 72.378828) scale(0.1 -0.1)">
       <use xlink:href="#DejaVuSans-14"/>
       <use xlink:href="#DejaVuSans-11" transform="translate(63.625 0)"/>
       <use xlink:href="#DejaVuSans-18" transform="translate(95.40625 0)"/>
      </g>
     </g>
    </g>
    <g id="ytick_14">
     <g id="line2d_29">
      <g>
       <use xlink:href="#mf4e4d0c655" x="365.714631" y="37.08" style="stroke: #000000; stroke-width: 0.8"/>
      </g>
     </g>
     <g id="text_26">
      <!-- 2.0 -->
      <g transform="translate(342.811506 40.878828) scale(0.1 -0.1)">
       <use xlink:href="#DejaVuSans-15"/>
       <use xlink:href="#DejaVuSans-11" transform="translate(63.625 0)"/>
       <use xlink:href="#DejaVuSans-13" transform="translate(95.40625 0)"/>
      </g>
     </g>
    </g>
   </g>
   <g id="line2d_30">
    <path d="M 546.994892 312.740781 
L 531.180181 295.414653 
L 518.1552 280.825843 
L 507.424688 268.499686 
L 497.832553 257.150707 
L 489.96368 247.515906 
L 482.915257 238.538684 
L 477.173253 230.88928 
L 472.026916 223.676268 
L 467.443128 216.853227 
L 463.774243 211.009576 
L 460.517961 205.415748 
L 457.657308 200.042586 
L 455.43454 195.429027 
L 453.503406 190.948682 
L 451.855955 186.583098 
L 450.4854 182.3143 
L 449.3861 178.124708 
L 448.553527 173.997069 
L 447.984252 169.914387 
L 447.700254 166.365698 
L 447.615137 162.827368 
L 447.728634 159.288241 
L 448.041102 155.73716 
L 448.553527 152.162931 
L 449.3861 148.035292 
L 450.4854 143.8457 
L 451.855955 139.576902 
L 453.503406 135.211318 
L 455.43454 130.730973 
L 457.657308 126.117414 
L 460.180864 121.351646 
L 463.392387 115.783753 
L 467.014523 109.96934 
L 471.06615 103.878099 
L 476.097446 96.746709 
L 481.717486 89.188428 
L 487.962438 81.154612 
L 495.601752 71.706366 
L 504.105423 61.54651 
L 514.445963 49.558306 
L 525.989962 36.517824 
L 539.978428 21.062714 
L 546.994892 13.419219 
L 546.994892 13.419219 
" clip-path="url(#p7340f2099a)" style="fill: none; stroke: #666666; stroke-width: 1.5; stroke-linecap: square"/>
   </g>
   <g id="line2d_31">
    <path d="M 384.614631 163.08 
L 489.7313 78.934209 
" clip-path="url(#p7340f2099a)" style="fill: none; stroke: #d62728; stroke-width: 1.5; stroke-linecap: square"/>
   </g>
   <g id="line2d_32">
    <defs>
     <path id="mbd2d006cb9" d="M 0 3 
C 0.795609 3 1.55874 2.683901 2.12132 2.12132 
C 2.683901 1.55874 3 0.795609 3 0 
C 3 -0.795609 2.683901 -1.55874 2.12132 -2.12132 
C 1.55874 -2.683901 0.795609 -3 0 -3 
C -0.795609 -3 -1.55874 -2.683901 -2.12132 -2.12132 
C -2.683901 -1.55874 -3 -0.795609 -3 0 
C -3 0.795609 -2.683901 1.55874 -2.12132 2.12132 
C -1.55874 2.683901 -0.795609 3 0 3 
z
" style="stroke: #d62728"/>
    </defs>
    <g clip-path="url(#p7340f2099a)">
     <use xlink:href="#mbd2d006cb9" x="489.7313" y="78.934209" style="fill: #d62728; stroke: #d62728"/>
    </g>
   </g>
   <g id="line2d_33">
    <path d="M 365.714631 163.08 
L 573.614631 163.08 
" clip-path="url(#p7340f2099a)" style="fill: none; stroke: #cccccc; stroke-width: 0.6; stroke-linecap: square"/>
   </g>
   <g id="line2d_34">
    <path d="M 384.614631 301.68 
L 384.614631 24.48 
" clip-path="url(#p7340f2099a)" style="fill: none; stroke: #cccccc; stroke-width: 0.6; stroke-linecap: square"/>
   </g>
   <g id="patch_10">
    <path d="M 365.714631 301.68 
L 365.714631 24.48 
" style="fill: none; stroke: #000000; stroke-width: 0.8; stroke-linejoin: miter; stroke-linecap: square"/>
   </g>
   <g id="patch_11">
    <path d="M 573.614631 301.68 
L 573.614631 24.48 
" style="fill: none; stroke: #000000; stroke-width: 0.8; stroke-linejoin: miter; stroke-linecap: square"/>
   </g>
   <g id="patch_12">
    <path d="M 365.714631 301.68 
L 573.614631 301.68 
" style="fill: none; stroke: #000000; stroke-width: 0.8; stroke-linejoin: miter; stroke-linecap: square"/>
   </g>
   <g id="patch_13">
    <path d="M 365.714631 24.48 
L 573.614631 24.48 
" style="fill: none; stroke: #000000; stroke-width: 0.8; stroke-linejoin: miter; stroke-linecap: square"/>
   </g>
   <g id="text_27">
    <!-- $(\cosh t,\ \sinh t)$ -->
    <g transform="translate(497.7313 72.934209) scale(0.1 -0.1)">
     <defs>
      <path id="DejaVuSans-4b" d="M 3513 2113 
L 3513 0 
L 2938 0 
L 2938 2094 
Q 2938 2591 2744 2837 
Q 2550 3084 2163 3084 
Q 1697 3084 1428 2787 
Q 1159 2491 1159 1978 
L 1159 0 
L 581 0 
L 581 4863 
L 1159 4863 
L 1159 2956 
Q 1366 3272 1645 3428 
Q 1925 3584 2291 3584 
Q 2894 3584 3203 3211 
Q 3513 2838 3513 2113 
z
" transform="scale(0.015625)"/>
     </defs>
     <use xlink:href="#DejaVuSans-b" transform="translate(0 0.015625)"/>
     <use xlink:href="#DejaVuSans-46" transform="translate(39.013672 0.015625)"/>
     <use xlink:href="#DejaVuSans-52" transform="translate(93.994141 0.015625)"/>
     <use xlink:href="#DejaVuSans-56" transform="translate(155.175781 0.015625)"/>
     <use xlink:href="#DejaVuSans-4b" transform="translate(207.275391 0.015625)"/>
     <use xlink:href="#DejaVuSans-Oblique-57" transform="translate(286.889973 0.015625)"/>
     <use xlink:href="#DejaVuSans-f" transform="translate(326.098958 0.015625)"/>
     <use xlink:href="#DejaVuSans-56" transform="translate(409.838867 0.015625)"/>
     <use xlink:href="#DejaVuSans-4c" transform="translate(461.938477 0.015625)"/>
     <use xlink:href="#DejaVuSans-51" transform="translate(489.72168 0.015625)"/>
     <use xlink:href="#DejaVuSans-4b" transform="translate(553.100586 0.015625)"/>
     <use xlink:href="#DejaVuSans-Oblique-57" transform="translate(632.715168 0.015625)"/>
     <use xlink:href="#DejaVuSans-c" transform="translate(671.924153 0.015625)"/>
    </g>
   </g>
   <g id="text_28">
    <!-- hyperbola  $x^2-y^2=1$   (area $=t/2$) -->
    <g transform="translate(362.564631 18.48) scale(0.12 -0.12)">
     <defs>
      <path id="DejaVuSans-5c" d="M 2059 -325 
Q 1816 -950 1584 -1140 
Q 1353 -1331 966 -1331 
L 506 -1331 
L 506 -850 
L 844 -850 
Q 1081 -850 1212 -737 
Q 1344 -625 1503 -206 
L 1606 56 
L 191 3500 
L 800 3500 
L 1894 763 
L 2988 3500 
L 3597 3500 
L 2059 -325 
z
" transform="scale(0.015625)"/>
      <path id="DejaVuSans-53" d="M 1159 525 
L 1159 -1331 
L 581 -1331 
L 581 3500 
L 1159 3500 
L 1159 2969 
Q 1341 3281 1617 3432 
Q 1894 3584 2278 3584 
Q 2916 3584 3314 3078 
Q 3713 2572 3713 1747 
Q 3713 922 3314 415 
Q 2916 -91 2278 -91 
Q 1894 -91 1617 61 
Q 1341 213 1159 525 
z
M 3116 1747 
Q 3116 2381 2855 2742 
Q 2594 3103 2138 3103 
Q 1681 3103 1420 2742 
Q 1159 2381 1159 1747 
Q 1159 1113 1420 752 
Q 1681 391 2138 391 
Q 2594 391 2855 752 
Q 3116 1113 3116 1747 
z
" transform="scale(0.015625)"/>
      <path id="DejaVuSans-45" d="M 3116 1747 
Q 3116 2381 2855 2742 
Q 2594 3103 2138 3103 
Q 1681 3103 1420 2742 
Q 1159 2381 1159 1747 
Q 1159 1113 1420 752 
Q 1681 391 2138 391 
Q 2594 391 2855 752 
Q 3116 1113 3116 1747 
z
M 1159 2969 
Q 1341 3281 1617 3432 
Q 1894 3584 2278 3584 
Q 2916 3584 3314 3078 
Q 3713 2572 3713 1747 
Q 3713 922 3314 415 
Q 2916 -91 2278 -91 
Q 1894 -91 1617 61 
Q 1341 213 1159 525 
L 1159 0 
L 581 0 
L 581 4863 
L 1159 4863 
L 1159 2969 
z
" transform="scale(0.015625)"/>
     </defs>
     <use xlink:href="#DejaVuSans-4b" transform="translate(0 0.746875)"/>
     <use xlink:href="#DejaVuSans-5c" transform="translate(63.378906 0.746875)"/>
     <use xlink:href="#DejaVuSans-53" transform="translate(122.558594 0.746875)"/>
     <use xlink:href="#DejaVuSans-48" transform="translate(186.035156 0.746875)"/>
     <use xlink:href="#DejaVuSans-55" transform="translate(247.558594 0.746875)"/>
     <use xlink:href="#DejaVuSans-45" transform="translate(288.671875 0.746875)"/>
     <use xlink:href="#DejaVuSans-52" transform="translate(352.148438 0.746875)"/>
     <use xlink:href="#DejaVuSans-4f" transform="translate(413.330078 0.746875)"/>
     <use xlink:href="#DejaVuSans-44" transform="translate(441.113281 0.746875)"/>
     <use xlink:href="#DejaVuSans-3" transform="translate(502.392578 0.746875)"/>
     <use xlink:href="#DejaVuSans-3" transform="translate(534.179688 0.746875)"/>
     <use xlink:href="#DejaVuSans-Oblique-5b" transform="translate(565.966797 0.746875)"/>
     <use xlink:href="#DejaVuSans-15" transform="translate(629.61263 42.046875) scale(0.7)"/>
     <use xlink:href="#DejaVuSans-c9c" transform="translate(696.36556 0.746875)"/>
     <use xlink:href="#DejaVuSans-Oblique-5c" transform="translate(799.637044 0.746875)"/>
     <use xlink:href="#DejaVuSans-15" transform="translate(863.282878 42.046875) scale(0.7)"/>
     <use xlink:href="#DejaVuSans-20" transform="translate(930.035807 0.746875)"/>
     <use xlink:href="#DejaVuSans-14" transform="translate(1033.307292 0.746875)"/>
     <use xlink:href="#DejaVuSans-3" transform="translate(1096.930339 0.746875)"/>
     <use xlink:href="#DejaVuSans-3" transform="translate(1128.717448 0.746875)"/>
     <use xlink:href="#DejaVuSans-3" transform="translate(1160.504557 0.746875)"/>
     <use xlink:href="#DejaVuSans-b" transform="translate(1192.291667 0.746875)"/>
     <use xlink:href="#DejaVuSans-44" transform="translate(1231.305339 0.746875)"/>
     <use xlink:href="#DejaVuSans-55" transform="translate(1292.584635 0.746875)"/>
     <use xlink:href="#DejaVuSans-48" transform="translate(1331.697917 0.746875)"/>
     <use xlink:href="#DejaVuSans-44" transform="translate(1393.221354 0.746875)"/>
     <use xlink:href="#DejaVuSans-3" transform="translate(1454.500651 0.746875)"/>
     <use xlink:href="#DejaVuSans-20" transform="translate(1505.770182 0.746875)"/>
     <use xlink:href="#DejaVuSans-Oblique-57" transform="translate(1609.041667 0.746875)"/>
     <use xlink:href="#DejaVuSans-12" transform="translate(1648.250651 0.746875)"/>
     <use xlink:href="#DejaVuSans-15" transform="translate(1681.942057 0.746875)"/>
     <use xlink:href="#DejaVuSans-c" transform="translate(1745.565104 0.746875)"/>
    </g>
   </g>
   <g id="axes_3">
    <g id="patch_14">
     <path d="M 486.296631 285.048 
L 569.456631 285.048 
L 569.456631 190.8 
L 486.296631 190.8 
z
" style="fill: #ffffff"/>
    </g>
    <g id="matplotlib.axis_5">
     <g id="xtick_11">
      <g id="line2d_35">
       <g>
        <use xlink:href="#mbb0dce1a9d" x="506.876631" y="285.048" style="stroke: #000000; stroke-width: 0.8"/>
       </g>
      </g>
      <g id="text_29">
       <!-- −1 -->
       <g transform="translate(502.453974 296.606594) scale(0.06 -0.06)">
        <use xlink:href="#DejaVuSans-c9c"/>
        <use xlink:href="#DejaVuSans-14" transform="translate(83.796875 0)"/>
       </g>
      </g>
     </g>
     <g id="xtick_12">
      <g id="line2d_36">
       <g>
        <use xlink:href="#mbb0dce1a9d" x="527.876631" y="285.048" style="stroke: #000000; stroke-width: 0.8"/>
       </g>
      </g>
      <g id="text_30">
       <!-- 0 -->
       <g transform="translate(525.967881 296.606594) scale(0.06 -0.06)">
        <use xlink:href="#DejaVuSans-13"/>
       </g>
      </g>
     </g>
     <g id="xtick_13">
      <g id="line2d_37">
       <g>
        <use xlink:href="#mbb0dce1a9d" x="548.876631" y="285.048" style="stroke: #000000; stroke-width: 0.8"/>
       </g>
      </g>
      <g id="text_31">
       <!-- 1 -->
       <g transform="translate(546.967881 296.606594) scale(0.06 -0.06)">
        <use xlink:href="#DejaVuSans-14"/>
       </g>
      </g>
     </g>
    </g>
    <g id="matplotlib.axis_6">
     <g id="ytick_15">
      <g id="line2d_38">
       <g>
        <use xlink:href="#mf4e4d0c655" x="486.296631" y="280.765663" style="stroke: #000000; stroke-width: 0.8"/>
       </g>
      </g>
      <g id="text_32">
       <!-- 1.0 -->
       <g transform="translate(469.754756 283.04496) scale(0.06 -0.06)">
        <use xlink:href="#DejaVuSans-14"/>
        <use xlink:href="#DejaVuSans-11" transform="translate(63.625 0)"/>
        <use xlink:href="#DejaVuSans-13" transform="translate(95.40625 0)"/>
       </g>
      </g>
     </g>
     <g id="ytick_16">
      <g id="line2d_39">
       <g>
        <use xlink:href="#mf4e4d0c655" x="486.296631" y="260.437608" style="stroke: #000000; stroke-width: 0.8"/>
       </g>
      </g>
      <g id="text_33">
       <!-- 1.5 -->
       <g transform="translate(469.754756 262.716905) scale(0.06 -0.06)">
        <use xlink:href="#DejaVuSans-14"/>
        <use xlink:href="#DejaVuSans-11" transform="translate(63.625 0)"/>
        <use xlink:href="#DejaVuSans-18" transform="translate(95.40625 0)"/>
       </g>
      </g>
     </g>
     <g id="ytick_17">
      <g id="line2d_40">
       <g>
        <use xlink:href="#mf4e4d0c655" x="486.296631" y="240.109552" style="stroke: #000000; stroke-width: 0.8"/>
       </g>
      </g>
      <g id="text_34">
       <!-- 2.0 -->
       <g transform="translate(469.754756 242.388849) scale(0.06 -0.06)">
        <use xlink:href="#DejaVuSans-15"/>
        <use xlink:href="#DejaVuSans-11" transform="translate(63.625 0)"/>
        <use xlink:href="#DejaVuSans-13" transform="translate(95.40625 0)"/>
       </g>
      </g>
     </g>
     <g id="ytick_18">
      <g id="line2d_41">
       <g>
        <use xlink:href="#mf4e4d0c655" x="486.296631" y="219.781497" style="stroke: #000000; stroke-width: 0.8"/>
       </g>
      </g>
      <g id="text_35">
       <!-- 2.5 -->
       <g transform="translate(469.754756 222.060794) scale(0.06 -0.06)">
        <use xlink:href="#DejaVuSans-15"/>
        <use xlink:href="#DejaVuSans-11" transform="translate(63.625 0)"/>
        <use xlink:href="#DejaVuSans-18" transform="translate(95.40625 0)"/>
       </g>
      </g>
     </g>
     <g id="ytick_19">
      <g id="line2d_42">
       <g>
        <use xlink:href="#mf4e4d0c655" x="486.296631" y="199.453441" style="stroke: #000000; stroke-width: 0.8"/>
       </g>
      </g>
      <g id="text_36">
       <!-- 3.0 -->
       <g transform="translate(469.754756 201.732738) scale(0.06 -0.06)">
        <use xlink:href="#DejaVuSans-16"/>
        <use xlink:href="#DejaVuSans-11" transform="translate(63.625 0)"/>
        <use xlink:href="#DejaVuSans-13" transform="translate(95.40625 0)"/>
       </g>
      </g>
     </g>
    </g>
    <g id="line2d_43">
     <path d="M 490.076631 195.084 
L 492.356028 207.348146 
L 494.635425 218.267012 
L 496.914822 227.969363 
L 499.194219 236.569622 
L 501.473616 244.169212 
L 503.373113 249.802791 
L 505.272611 254.850012 
L 507.172108 259.352198 
L 509.071606 263.346207 
L 510.971103 266.864741 
L 512.870601 269.936607 
L 514.770098 272.586953 
L 516.669596 274.837479 
L 518.569093 276.706611 
L 520.46859 278.209651 
L 521.988188 279.156864 
L 523.507786 279.882672 
L 525.027384 280.390877 
L 526.546982 280.684141 
L 528.06658 280.764 
L 529.586178 280.630873 
L 531.105776 280.284061 
L 532.625374 279.72175 
L 534.144972 278.940991 
L 535.66457 277.937697 
L 537.184168 276.706611 
L 539.083666 274.837479 
L 540.983163 272.586953 
L 542.882661 269.936607 
L 544.782158 266.864741 
L 546.681656 263.346207 
L 548.581153 259.352198 
L 550.480651 254.850012 
L 552.380148 249.802791 
L 554.279646 244.169212 
L 556.179143 237.903151 
L 558.078641 230.953307 
L 559.978138 223.262781 
L 561.877636 214.768608 
L 563.777133 205.401245 
L 565.676631 195.084 
L 565.676631 195.084 
" clip-path="url(#p82783472d3)" style="fill: none; stroke: #d62728; stroke-width: 1.5; stroke-linecap: square"/>
    </g>
    <g id="line2d_44">
     <path d="M 490.076631 214.902764 
L 493.115827 225.068013 
L 495.775123 233.264078 
L 498.43442 240.808183 
L 501.093716 247.700329 
L 503.753013 253.940515 
L 506.03241 258.770339 
L 508.311807 263.121172 
L 510.591204 266.993014 
L 512.870601 270.385866 
L 514.770098 272.847346 
L 516.669596 274.976194 
L 518.569093 276.77241 
L 520.46859 278.235993 
L 522.368088 279.366943 
L 523.887686 280.032208 
L 525.407284 280.484589 
L 526.926882 280.724084 
L 528.44648 280.750695 
L 529.966078 280.56442 
L 531.485676 280.165261 
L 533.005274 279.553218 
L 534.524872 278.728289 
L 536.04447 277.690476 
L 537.943967 276.09384 
L 539.843465 274.164571 
L 541.742962 271.90267 
L 543.64246 269.308136 
L 545.541957 266.38097 
L 547.821354 262.429296 
L 550.100751 257.998631 
L 552.380148 253.088975 
L 554.659545 247.700329 
L 557.318842 240.808183 
L 559.978138 233.264078 
L 562.637435 225.068013 
L 565.676631 214.902764 
L 565.676631 214.902764 
" clip-path="url(#p82783472d3)" style="fill: none; stroke-dasharray: 5.55,2.4; stroke-dashoffset: 0; stroke: #999999; stroke-width: 1.5"/>
    </g>
    <g id="patch_15">
     <path d="M 486.296631 285.048 
L 486.296631 190.8 
" style="fill: none; stroke: #000000; stroke-width: 0.8; stroke-linejoin: miter; stroke-linecap: square"/>
    </g>
    <g id="patch_16">
     <path d="M 569.456631 285.048 
L 569.456631 190.8 
" style="fill: none; stroke: #000000; stroke-width: 0.8; stroke-linejoin: miter; stroke-linecap: square"/>
    </g>
    <g id="patch_17">
     <path d="M 486.296631 285.048 
L 569.456631 285.048 
" style="fill: none; stroke: #000000; stroke-width: 0.8; stroke-linejoin: miter; stroke-linecap: square"/>
    </g>
    <g id="patch_18">
     <path d="M 486.296631 190.8 
L 569.456631 190.8 
" style="fill: none; stroke: #000000; stroke-width: 0.8; stroke-linejoin: miter; stroke-linecap: square"/>
    </g>
    <g id="text_37">
     <!-- $y=\cosh x$ (chain) -->
     <g transform="translate(493.076631 184.8) scale(0.08 -0.08)">
      <use xlink:href="#DejaVuSans-Oblique-5c" transform="translate(0 0.015625)"/>
      <use xlink:href="#DejaVuSans-20" transform="translate(78.662109 0.015625)"/>
      <use xlink:href="#DejaVuSans-46" transform="translate(181.933594 0.015625)"/>
      <use xlink:href="#DejaVuSans-52" transform="translate(236.914062 0.015625)"/>
      <use xlink:href="#DejaVuSans-56" transform="translate(298.095703 0.015625)"/>
      <use xlink:href="#DejaVuSans-4b" transform="translate(350.195312 0.015625)"/>
      <use xlink:href="#DejaVuSans-Oblique-5b" transform="translate(429.809895 0.015625)"/>
      <use xlink:href="#DejaVuSans-3" transform="translate(488.989583 0.015625)"/>
      <use xlink:href="#DejaVuSans-b" transform="translate(520.776692 0.015625)"/>
      <use xlink:href="#DejaVuSans-46" transform="translate(559.790364 0.015625)"/>
      <use xlink:href="#DejaVuSans-4b" transform="translate(614.770833 0.015625)"/>
      <use xlink:href="#DejaVuSans-44" transform="translate(678.149739 0.015625)"/>
      <use xlink:href="#DejaVuSans-4c" transform="translate(739.429036 0.015625)"/>
      <use xlink:href="#DejaVuSans-51" transform="translate(767.212239 0.015625)"/>
      <use xlink:href="#DejaVuSans-c" transform="translate(830.591145 0.015625)"/>
     </g>
    </g>
   </g>
  </g>
 </g>
 <defs>
  <clipPath id="p88fffc4349">
   <rect x="38.482813" y="49.38094" width="253.636364" height="227.398119"/>
  </clipPath>
  <clipPath id="p7340f2099a">
   <rect x="365.714631" y="24.48" width="207.9" height="277.2"/>
  </clipPath>
  <clipPath id="p82783472d3">
   <rect x="486.296631" y="190.8" width="83.16" height="94.248"/>
  </clipPath>
 </defs>
</svg>
