<?xml version="1.0" encoding="utf-8" standalone="no"?>
<!DOCTYPE svg PUBLIC "-//W3C//DTD SVG 1.1//EN"
  "http://www.w3.org/Graphics/SVG/1.1/DTD/svg11.dtd">
<svg xmlns:xlink="http://www.w3.org/1999/xlink" width="675.141595pt" height="325.518125pt" viewBox="0 0 675.141595 325.518125" xmlns="http://www.w3.org/2000/svg" version="1.1">
 <metadata>
  <rdf:RDF xmlns:dc="http://purl.org/dc/elements/1.1/" xmlns:cc="http://creativecommons.org/ns#" xmlns:rdf="http://www.w3.org/1999/02/22-rdf-syntax-ns#">
   <cc:Work>
    <dc:type rdf:resource="http://purl.org/dc/dcmitype/StillImage"/>
    <dc:date>2026-06-13T19:07:45.845494</dc:date>
    <dc:format>image/svg+xml</dc:format>
    <dc:creator>
     <cc:Agent>
      <dc:title>Matplotlib v3.11.0, https://matplotlib.org/</dc:title>
     </cc:Agent>
    </dc:creator>
   </cc:Work>
  </rdf:RDF>
 </metadata>
 <defs>
  <style type="text/css">*{stroke-linejoin: round; stroke-linecap: butt}</style>
 </defs>
 <g id="figure_1">
  <g id="patch_1">
   <path d="M 0 325.518125 
L 675.141595 325.518125 
L 675.141595 0 
L 0 0 
z
" style="fill: #ffffff"/>
  </g>
  <g id="axes_1">
   <g id="patch_2">
    <path d="M 28.942187 301.318125 
L 307.942187 301.318125 
L 307.942187 22.318125 
L 28.942187 22.318125 
z
" style="fill: #ffffff"/>
   </g>
   <g id="patch_3">
    <path d="M 195.700808 166.62847 
L 188.485291 169.033642 
L 188.485291 167.430194 
L 163.631843 167.430194 
L 163.631843 165.826746 
L 188.485291 165.826746 
L 188.485291 164.223297 
z
" clip-path="url(#p2ac0876da5)" style="fill: #1f77b4; stroke: #1f77b4; stroke-linejoin: miter"/>
   </g>
   <g id="patch_4">
    <path d="M 163.631843 134.559504 
L 166.037015 141.775022 
L 164.433567 141.775022 
L 164.433567 166.62847 
L 162.830119 166.62847 
L 162.830119 141.775022 
L 161.22667 141.775022 
z
" clip-path="url(#p2ac0876da5)" style="fill: #2ca02c; stroke: #2ca02c; stroke-linejoin: miter"/>
   </g>
   <g id="patch_5">
    <path d="M 259.838739 70.421573 
L 255.757026 78.584999 
L 254.396455 77.224428 
L 164.312128 167.308755 
L 162.951557 165.948184 
L 253.035884 75.863857 
L 251.675313 74.503286 
z
" clip-path="url(#p2ac0876da5)" style="fill: #d62728; stroke: #d62728; stroke-linejoin: miter"/>
   </g>
   <g id="matplotlib.axis_1">
    <g id="xtick_1">
     <g id="line2d_1">
      <defs>
       <path id="m7e5cb8032b" d="M 0 0 
L 0 3.5 
" style="stroke: #000000; stroke-width: 0.8"/>
      </defs>
      <g>
       <use xlink:href="#m7e5cb8032b" x="35.355981" y="301.318125" style="stroke: #000000; stroke-width: 0.8"/>
      </g>
     </g>
     <g id="text_1">
      <!-- −4 -->
      <g transform="translate(27.984887 315.915781) scale(0.1 -0.1)">
       <defs>
        <path id="DejaVuSans-c9c" d="M 678 2272 
L 4684 2272 
L 4684 1741 
L 678 1741 
L 678 2272 
z
" transform="scale(0.015625)"/>
        <path id="DejaVuSans-17" d="M 2419 4116 
L 825 1625 
L 2419 1625 
L 2419 4116 
z
M 2253 4666 
L 3047 4666 
L 3047 1625 
L 3713 1625 
L 3713 1100 
L 3047 1100 
L 3047 0 
L 2419 0 
L 2419 1100 
L 313 1100 
L 313 1709 
L 2253 4666 
z
" transform="scale(0.015625)"/>
       </defs>
       <use xlink:href="#DejaVuSans-c9c"/>
       <use xlink:href="#DejaVuSans-17" transform="translate(83.796875 0)"/>
      </g>
     </g>
    </g>
    <g id="xtick_2">
     <g id="line2d_2">
      <g>
       <use xlink:href="#m7e5cb8032b" x="67.424946" y="301.318125" style="stroke: #000000; stroke-width: 0.8"/>
      </g>
     </g>
     <g id="text_2">
      <!-- −3 -->
      <g transform="translate(60.053852 315.915781) scale(0.1 -0.1)">
       <defs>
        <path id="DejaVuSans-16" d="M 2597 2516 
Q 3050 2419 3304 2112 
Q 3559 1806 3559 1356 
Q 3559 666 3084 287 
Q 2609 -91 1734 -91 
Q 1441 -91 1130 -33 
Q 819 25 488 141 
L 488 750 
Q 750 597 1062 519 
Q 1375 441 1716 441 
Q 2309 441 2620 675 
Q 2931 909 2931 1356 
Q 2931 1769 2642 2001 
Q 2353 2234 1838 2234 
L 1294 2234 
L 1294 2753 
L 1863 2753 
Q 2328 2753 2575 2939 
Q 2822 3125 2822 3475 
Q 2822 3834 2567 4026 
Q 2313 4219 1838 4219 
Q 1578 4219 1281 4162 
Q 984 4106 628 3988 
L 628 4550 
Q 988 4650 1302 4700 
Q 1616 4750 1894 4750 
Q 2613 4750 3031 4423 
Q 3450 4097 3450 3541 
Q 3450 3153 3228 2886 
Q 3006 2619 2597 2516 
z
" transform="scale(0.015625)"/>
       </defs>
       <use xlink:href="#DejaVuSans-c9c"/>
       <use xlink:href="#DejaVuSans-16" transform="translate(83.796875 0)"/>
      </g>
     </g>
    </g>
    <g id="xtick_3">
     <g id="line2d_3">
      <g>
       <use xlink:href="#m7e5cb8032b" x="99.493912" y="301.318125" style="stroke: #000000; stroke-width: 0.8"/>
      </g>
     </g>
     <g id="text_3">
      <!-- −2 -->
      <g transform="translate(92.122818 315.915781) scale(0.1 -0.1)">
       <defs>
        <path id="DejaVuSans-15" d="M 1228 531 
L 3431 531 
L 3431 0 
L 469 0 
L 469 531 
Q 828 903 1448 1529 
Q 2069 2156 2228 2338 
Q 2531 2678 2651 2914 
Q 2772 3150 2772 3378 
Q 2772 3750 2511 3984 
Q 2250 4219 1831 4219 
Q 1534 4219 1204 4116 
Q 875 4013 500 3803 
L 500 4441 
Q 881 4594 1212 4672 
Q 1544 4750 1819 4750 
Q 2544 4750 2975 4387 
Q 3406 4025 3406 3419 
Q 3406 3131 3298 2873 
Q 3191 2616 2906 2266 
Q 2828 2175 2409 1742 
Q 1991 1309 1228 531 
z
" transform="scale(0.015625)"/>
       </defs>
       <use xlink:href="#DejaVuSans-c9c"/>
       <use xlink:href="#DejaVuSans-15" transform="translate(83.796875 0)"/>
      </g>
     </g>
    </g>
    <g id="xtick_4">
     <g id="line2d_4">
      <g>
       <use xlink:href="#m7e5cb8032b" x="131.562877" y="301.318125" style="stroke: #000000; stroke-width: 0.8"/>
      </g>
     </g>
     <g id="text_4">
      <!-- −1 -->
      <g transform="translate(124.191783 315.915781) scale(0.1 -0.1)">
       <defs>
        <path id="DejaVuSans-14" d="M 794 531 
L 1825 531 
L 1825 4091 
L 703 3866 
L 703 4441 
L 1819 4666 
L 2450 4666 
L 2450 531 
L 3481 531 
L 3481 0 
L 794 0 
L 794 531 
z
" transform="scale(0.015625)"/>
       </defs>
       <use xlink:href="#DejaVuSans-c9c"/>
       <use xlink:href="#DejaVuSans-14" transform="translate(83.796875 0)"/>
      </g>
     </g>
    </g>
    <g id="xtick_5">
     <g id="line2d_5">
      <g>
       <use xlink:href="#m7e5cb8032b" x="163.631843" y="301.318125" style="stroke: #000000; stroke-width: 0.8"/>
      </g>
     </g>
     <g id="text_5">
      <!-- 0 -->
      <g transform="translate(160.450593 315.915781) scale(0.1 -0.1)">
       <defs>
        <path id="DejaVuSans-13" d="M 2034 4250 
Q 1547 4250 1301 3770 
Q 1056 3291 1056 2328 
Q 1056 1369 1301 889 
Q 1547 409 2034 409 
Q 2525 409 2770 889 
Q 3016 1369 3016 2328 
Q 3016 3291 2770 3770 
Q 2525 4250 2034 4250 
z
M 2034 4750 
Q 2819 4750 3233 4129 
Q 3647 3509 3647 2328 
Q 3647 1150 3233 529 
Q 2819 -91 2034 -91 
Q 1250 -91 836 529 
Q 422 1150 422 2328 
Q 422 3509 836 4129 
Q 1250 4750 2034 4750 
z
" transform="scale(0.015625)"/>
       </defs>
       <use xlink:href="#DejaVuSans-13"/>
      </g>
     </g>
    </g>
    <g id="xtick_6">
     <g id="line2d_6">
      <g>
       <use xlink:href="#m7e5cb8032b" x="195.700808" y="301.318125" style="stroke: #000000; stroke-width: 0.8"/>
      </g>
     </g>
     <g id="text_6">
      <!-- 1 -->
      <g transform="translate(192.519558 315.915781) scale(0.1 -0.1)">
       <use xlink:href="#DejaVuSans-14"/>
      </g>
     </g>
    </g>
    <g id="xtick_7">
     <g id="line2d_7">
      <g>
       <use xlink:href="#m7e5cb8032b" x="227.769774" y="301.318125" style="stroke: #000000; stroke-width: 0.8"/>
      </g>
     </g>
     <g id="text_7">
      <!-- 2 -->
      <g transform="translate(224.588524 315.915781) scale(0.1 -0.1)">
       <use xlink:href="#DejaVuSans-15"/>
      </g>
     </g>
    </g>
    <g id="xtick_8">
     <g id="line2d_8">
      <g>
       <use xlink:href="#m7e5cb8032b" x="259.838739" y="301.318125" style="stroke: #000000; stroke-width: 0.8"/>
      </g>
     </g>
     <g id="text_8">
      <!-- 3 -->
      <g transform="translate(256.657489 315.915781) scale(0.1 -0.1)">
       <use xlink:href="#DejaVuSans-16"/>
      </g>
     </g>
    </g>
    <g id="xtick_9">
     <g id="line2d_9">
      <g>
       <use xlink:href="#m7e5cb8032b" x="291.907705" y="301.318125" style="stroke: #000000; stroke-width: 0.8"/>
      </g>
     </g>
     <g id="text_9">
      <!-- 4 -->
      <g transform="translate(288.726455 315.915781) scale(0.1 -0.1)">
       <use xlink:href="#DejaVuSans-17"/>
      </g>
     </g>
    </g>
   </g>
   <g id="matplotlib.axis_2">
    <g id="ytick_1">
     <g id="line2d_10">
      <defs>
       <path id="mae270b0a62" d="M 0 0 
L -3.5 0 
" style="stroke: #000000; stroke-width: 0.8"/>
      </defs>
      <g>
       <use xlink:href="#mae270b0a62" x="28.942187" y="294.904332" style="stroke: #000000; stroke-width: 0.8"/>
      </g>
     </g>
     <g id="text_10">
      <!-- −4 -->
      <g transform="translate(7.2 298.70316) scale(0.1 -0.1)">
       <use xlink:href="#DejaVuSans-c9c"/>
       <use xlink:href="#DejaVuSans-17" transform="translate(83.796875 0)"/>
      </g>
     </g>
    </g>
    <g id="ytick_2">
     <g id="line2d_11">
      <g>
       <use xlink:href="#mae270b0a62" x="28.942187" y="262.835366" style="stroke: #000000; stroke-width: 0.8"/>
      </g>
     </g>
     <g id="text_11">
      <!-- −3 -->
      <g transform="translate(7.2 266.634195) scale(0.1 -0.1)">
       <use xlink:href="#DejaVuSans-c9c"/>
       <use xlink:href="#DejaVuSans-16" transform="translate(83.796875 0)"/>
      </g>
     </g>
    </g>
    <g id="ytick_3">
     <g id="line2d_12">
      <g>
       <use xlink:href="#mae270b0a62" x="28.942187" y="230.766401" style="stroke: #000000; stroke-width: 0.8"/>
      </g>
     </g>
     <g id="text_12">
      <!-- −2 -->
      <g transform="translate(7.2 234.565229) scale(0.1 -0.1)">
       <use xlink:href="#DejaVuSans-c9c"/>
       <use xlink:href="#DejaVuSans-15" transform="translate(83.796875 0)"/>
      </g>
     </g>
    </g>
    <g id="ytick_4">
     <g id="line2d_13">
      <g>
       <use xlink:href="#mae270b0a62" x="28.942187" y="198.697435" style="stroke: #000000; stroke-width: 0.8"/>
      </g>
     </g>
     <g id="text_13">
      <!-- −1 -->
      <g transform="translate(7.2 202.496263) scale(0.1 -0.1)">
       <use xlink:href="#DejaVuSans-c9c"/>
       <use xlink:href="#DejaVuSans-14" transform="translate(83.796875 0)"/>
      </g>
     </g>
    </g>
    <g id="ytick_5">
     <g id="line2d_14">
      <g>
       <use xlink:href="#mae270b0a62" x="28.942187" y="166.62847" style="stroke: #000000; stroke-width: 0.8"/>
      </g>
     </g>
     <g id="text_14">
      <!-- 0 -->
      <g transform="translate(15.579687 170.427298) scale(0.1 -0.1)">
       <use xlink:href="#DejaVuSans-13"/>
      </g>
     </g>
    </g>
    <g id="ytick_6">
     <g id="line2d_15">
      <g>
       <use xlink:href="#mae270b0a62" x="28.942187" y="134.559504" style="stroke: #000000; stroke-width: 0.8"/>
      </g>
     </g>
     <g id="text_15">
      <!-- 1 -->
      <g transform="translate(15.579687 138.358332) scale(0.1 -0.1)">
       <use xlink:href="#DejaVuSans-14"/>
      </g>
     </g>
    </g>
    <g id="ytick_7">
     <g id="line2d_16">
      <g>
       <use xlink:href="#mae270b0a62" x="28.942187" y="102.490539" style="stroke: #000000; stroke-width: 0.8"/>
      </g>
     </g>
     <g id="text_16">
      <!-- 2 -->
      <g transform="translate(15.579687 106.289367) scale(0.1 -0.1)">
       <use xlink:href="#DejaVuSans-15"/>
      </g>
     </g>
    </g>
    <g id="ytick_8">
     <g id="line2d_17">
      <g>
       <use xlink:href="#mae270b0a62" x="28.942187" y="70.421573" style="stroke: #000000; stroke-width: 0.8"/>
      </g>
     </g>
     <g id="text_17">
      <!-- 3 -->
      <g transform="translate(15.579687 74.220401) scale(0.1 -0.1)">
       <use xlink:href="#DejaVuSans-16"/>
      </g>
     </g>
    </g>
    <g id="ytick_9">
     <g id="line2d_18">
      <g>
       <use xlink:href="#mae270b0a62" x="28.942187" y="38.352608" style="stroke: #000000; stroke-width: 0.8"/>
      </g>
     </g>
     <g id="text_18">
      <!-- 4 -->
      <g transform="translate(15.579687 42.151436) scale(0.1 -0.1)">
       <use xlink:href="#DejaVuSans-17"/>
      </g>
     </g>
    </g>
   </g>
   <g id="line2d_19">
    <path d="M 28.942187 294.904332 
L 307.942187 294.904332 
" clip-path="url(#p2ac0876da5)" style="fill: none; stroke: #d9d9d9; stroke-width: 0.8; stroke-linecap: square"/>
   </g>
   <g id="line2d_20">
    <path d="M 35.355981 301.318125 
L 35.355981 22.318125 
" clip-path="url(#p2ac0876da5)" style="fill: none; stroke: #d9d9d9; stroke-width: 0.8; stroke-linecap: square"/>
   </g>
   <g id="line2d_21">
    <path d="M 28.942187 262.835366 
L 307.942187 262.835366 
" clip-path="url(#p2ac0876da5)" style="fill: none; stroke: #d9d9d9; stroke-width: 0.8; stroke-linecap: square"/>
   </g>
   <g id="line2d_22">
    <path d="M 67.424946 301.318125 
L 67.424946 22.318125 
" clip-path="url(#p2ac0876da5)" style="fill: none; stroke: #d9d9d9; stroke-width: 0.8; stroke-linecap: square"/>
   </g>
   <g id="line2d_23">
    <path d="M 28.942187 230.766401 
L 307.942187 230.766401 
" clip-path="url(#p2ac0876da5)" style="fill: none; stroke: #d9d9d9; stroke-width: 0.8; stroke-linecap: square"/>
   </g>
   <g id="line2d_24">
    <path d="M 99.493912 301.318125 
L 99.493912 22.318125 
" clip-path="url(#p2ac0876da5)" style="fill: none; stroke: #d9d9d9; stroke-width: 0.8; stroke-linecap: square"/>
   </g>
   <g id="line2d_25">
    <path d="M 28.942187 198.697435 
L 307.942187 198.697435 
" clip-path="url(#p2ac0876da5)" style="fill: none; stroke: #d9d9d9; stroke-width: 0.8; stroke-linecap: square"/>
   </g>
   <g id="line2d_26">
    <path d="M 131.562877 301.318125 
L 131.562877 22.318125 
" clip-path="url(#p2ac0876da5)" style="fill: none; stroke: #d9d9d9; stroke-width: 0.8; stroke-linecap: square"/>
   </g>
   <g id="line2d_27">
    <path d="M 28.942187 166.62847 
L 307.942187 166.62847 
" clip-path="url(#p2ac0876da5)" style="fill: none; stroke: #d9d9d9; stroke-width: 0.8; stroke-linecap: square"/>
   </g>
   <g id="line2d_28">
    <path d="M 163.631843 301.318125 
L 163.631843 22.318125 
" clip-path="url(#p2ac0876da5)" style="fill: none; stroke: #d9d9d9; stroke-width: 0.8; stroke-linecap: square"/>
   </g>
   <g id="line2d_29">
    <path d="M 28.942187 134.559504 
L 307.942187 134.559504 
" clip-path="url(#p2ac0876da5)" style="fill: none; stroke: #d9d9d9; stroke-width: 0.8; stroke-linecap: square"/>
   </g>
   <g id="line2d_30">
    <path d="M 195.700808 301.318125 
L 195.700808 22.318125 
" clip-path="url(#p2ac0876da5)" style="fill: none; stroke: #d9d9d9; stroke-width: 0.8; stroke-linecap: square"/>
   </g>
   <g id="line2d_31">
    <path d="M 28.942187 102.490539 
L 307.942187 102.490539 
" clip-path="url(#p2ac0876da5)" style="fill: none; stroke: #d9d9d9; stroke-width: 0.8; stroke-linecap: square"/>
   </g>
   <g id="line2d_32">
    <path d="M 227.769774 301.318125 
L 227.769774 22.318125 
" clip-path="url(#p2ac0876da5)" style="fill: none; stroke: #d9d9d9; stroke-width: 0.8; stroke-linecap: square"/>
   </g>
   <g id="line2d_33">
    <path d="M 28.942187 70.421573 
L 307.942187 70.421573 
" clip-path="url(#p2ac0876da5)" style="fill: none; stroke: #d9d9d9; stroke-width: 0.8; stroke-linecap: square"/>
   </g>
   <g id="line2d_34">
    <path d="M 259.838739 301.318125 
L 259.838739 22.318125 
" clip-path="url(#p2ac0876da5)" style="fill: none; stroke: #d9d9d9; stroke-width: 0.8; stroke-linecap: square"/>
   </g>
   <g id="line2d_35">
    <path d="M 28.942187 38.352608 
L 307.942187 38.352608 
" clip-path="url(#p2ac0876da5)" style="fill: none; stroke: #d9d9d9; stroke-width: 0.8; stroke-linecap: square"/>
   </g>
   <g id="line2d_36">
    <path d="M 291.907705 301.318125 
L 291.907705 22.318125 
" clip-path="url(#p2ac0876da5)" style="fill: none; stroke: #d9d9d9; stroke-width: 0.8; stroke-linecap: square"/>
   </g>
   <g id="patch_6">
    <path d="M 28.942187 301.318125 
L 28.942187 22.318125 
" style="fill: none; stroke: #000000; stroke-width: 0.8; stroke-linejoin: miter; stroke-linecap: square"/>
   </g>
   <g id="patch_7">
    <path d="M 307.942187 301.318125 
L 307.942187 22.318125 
" style="fill: none; stroke: #000000; stroke-width: 0.8; stroke-linejoin: miter; stroke-linecap: square"/>
   </g>
   <g id="patch_8">
    <path d="M 28.942187 301.318125 
L 307.942188 301.318125 
" style="fill: none; stroke: #000000; stroke-width: 0.8; stroke-linejoin: miter; stroke-linecap: square"/>
   </g>
   <g id="patch_9">
    <path d="M 28.942187 22.318125 
L 307.942188 22.318125 
" style="fill: none; stroke: #000000; stroke-width: 0.8; stroke-linejoin: miter; stroke-linecap: square"/>
   </g>
   <g id="text_19">
    <!-- v reads (3, 3) -->
    <g style="fill: #d62728" transform="translate(266.252532 70.421573) scale(0.1 -0.1)">
     <defs>
      <path id="DejaVuSans-59" d="M 191 3500 
L 800 3500 
L 1894 563 
L 2988 3500 
L 3597 3500 
L 2284 0 
L 1503 0 
L 191 3500 
z
" transform="scale(0.015625)"/>
      <path id="DejaVuSans-3" transform="scale(0.015625)"/>
      <path id="DejaVuSans-55" d="M 2631 2963 
Q 2534 3019 2420 3045 
Q 2306 3072 2169 3072 
Q 1681 3072 1420 2755 
Q 1159 2438 1159 1844 
L 1159 0 
L 581 0 
L 581 3500 
L 1159 3500 
L 1159 2956 
Q 1341 3275 1631 3429 
Q 1922 3584 2338 3584 
Q 2397 3584 2469 3576 
Q 2541 3569 2628 3553 
L 2631 2963 
z
" transform="scale(0.015625)"/>
      <path id="DejaVuSans-48" d="M 3597 1894 
L 3597 1613 
L 953 1613 
Q 991 1019 1311 708 
Q 1631 397 2203 397 
Q 2534 397 2845 478 
Q 3156 559 3463 722 
L 3463 178 
Q 3153 47 2828 -22 
Q 2503 -91 2169 -91 
Q 1331 -91 842 396 
Q 353 884 353 1716 
Q 353 2575 817 3079 
Q 1281 3584 2069 3584 
Q 2775 3584 3186 3129 
Q 3597 2675 3597 1894 
z
M 3022 2063 
Q 3016 2534 2758 2815 
Q 2500 3097 2075 3097 
Q 1594 3097 1305 2825 
Q 1016 2553 972 2059 
L 3022 2063 
z
" transform="scale(0.015625)"/>
      <path id="DejaVuSans-44" d="M 2194 1759 
Q 1497 1759 1228 1600 
Q 959 1441 959 1056 
Q 959 750 1161 570 
Q 1363 391 1709 391 
Q 2188 391 2477 730 
Q 2766 1069 2766 1631 
L 2766 1759 
L 2194 1759 
z
M 3341 1997 
L 3341 0 
L 2766 0 
L 2766 531 
Q 2569 213 2275 61 
Q 1981 -91 1556 -91 
Q 1019 -91 701 211 
Q 384 513 384 1019 
Q 384 1609 779 1909 
Q 1175 2209 1959 2209 
L 2766 2209 
L 2766 2266 
Q 2766 2663 2505 2880 
Q 2244 3097 1772 3097 
Q 1472 3097 1187 3025 
Q 903 2953 641 2809 
L 641 3341 
Q 956 3463 1253 3523 
Q 1550 3584 1831 3584 
Q 2591 3584 2966 3190 
Q 3341 2797 3341 1997 
z
" transform="scale(0.015625)"/>
      <path id="DejaVuSans-47" d="M 2906 2969 
L 2906 4863 
L 3481 4863 
L 3481 0 
L 2906 0 
L 2906 525 
Q 2725 213 2448 61 
Q 2172 -91 1784 -91 
Q 1150 -91 751 415 
Q 353 922 353 1747 
Q 353 2572 751 3078 
Q 1150 3584 1784 3584 
Q 2172 3584 2448 3432 
Q 2725 3281 2906 2969 
z
M 947 1747 
Q 947 1113 1208 752 
Q 1469 391 1925 391 
Q 2381 391 2643 752 
Q 2906 1113 2906 1747 
Q 2906 2381 2643 2742 
Q 2381 3103 1925 3103 
Q 1469 3103 1208 2742 
Q 947 2381 947 1747 
z
" transform="scale(0.015625)"/>
      <path id="DejaVuSans-56" d="M 2834 3397 
L 2834 2853 
Q 2591 2978 2328 3040 
Q 2066 3103 1784 3103 
Q 1356 3103 1142 2972 
Q 928 2841 928 2578 
Q 928 2378 1081 2264 
Q 1234 2150 1697 2047 
L 1894 2003 
Q 2506 1872 2764 1633 
Q 3022 1394 3022 966 
Q 3022 478 2636 193 
Q 2250 -91 1575 -91 
Q 1294 -91 989 -36 
Q 684 19 347 128 
L 347 722 
Q 666 556 975 473 
Q 1284 391 1588 391 
Q 1994 391 2212 530 
Q 2431 669 2431 922 
Q 2431 1156 2273 1281 
Q 2116 1406 1581 1522 
L 1381 1569 
Q 847 1681 609 1914 
Q 372 2147 372 2553 
Q 372 3047 722 3315 
Q 1072 3584 1716 3584 
Q 2034 3584 2315 3537 
Q 2597 3491 2834 3397 
z
" transform="scale(0.015625)"/>
      <path id="DejaVuSans-b" d="M 1984 4856 
Q 1566 4138 1362 3434 
Q 1159 2731 1159 2009 
Q 1159 1288 1364 580 
Q 1569 -128 1984 -844 
L 1484 -844 
Q 1016 -109 783 600 
Q 550 1309 550 2009 
Q 550 2706 781 3412 
Q 1013 4119 1484 4856 
L 1984 4856 
z
" transform="scale(0.015625)"/>
      <path id="DejaVuSans-f" d="M 750 794 
L 1409 794 
L 1409 256 
L 897 -744 
L 494 -744 
L 750 256 
L 750 794 
z
" transform="scale(0.015625)"/>
      <path id="DejaVuSans-c" d="M 513 4856 
L 1013 4856 
Q 1481 4119 1714 3412 
Q 1947 2706 1947 2009 
Q 1947 1309 1714 600 
Q 1481 -109 1013 -844 
L 513 -844 
Q 928 -128 1133 580 
Q 1338 1288 1338 2009 
Q 1338 2731 1133 3434 
Q 928 4138 513 4856 
z
" transform="scale(0.015625)"/>
     </defs>
     <use xlink:href="#DejaVuSans-59"/>
     <use xlink:href="#DejaVuSans-3" transform="translate(59.1875 0)"/>
     <use xlink:href="#DejaVuSans-55" transform="translate(90.96875 0)"/>
     <use xlink:href="#DejaVuSans-48" transform="translate(129.875 0)"/>
     <use xlink:href="#DejaVuSans-44" transform="translate(191.40625 0)"/>
     <use xlink:href="#DejaVuSans-47" transform="translate(252.6875 0)"/>
     <use xlink:href="#DejaVuSans-56" transform="translate(316.171875 0)"/>
     <use xlink:href="#DejaVuSans-3" transform="translate(368.265625 0)"/>
     <use xlink:href="#DejaVuSans-b" transform="translate(400.046875 0)"/>
     <use xlink:href="#DejaVuSans-16" transform="translate(439.0625 0)"/>
     <use xlink:href="#DejaVuSans-f" transform="translate(502.6875 0)"/>
     <use xlink:href="#DejaVuSans-3" transform="translate(534.46875 0)"/>
     <use xlink:href="#DejaVuSans-16" transform="translate(566.25 0)"/>
     <use xlink:href="#DejaVuSans-c" transform="translate(629.875 0)"/>
    </g>
   </g>
   <g id="text_20">
    <!-- standard grid: coords = (3, 3) -->
    <g transform="translate(79.331875 16.318125) scale(0.12 -0.12)">
     <defs>
      <path id="DejaVuSans-57" d="M 1172 4494 
L 1172 3500 
L 2356 3500 
L 2356 3053 
L 1172 3053 
L 1172 1153 
Q 1172 725 1289 603 
Q 1406 481 1766 481 
L 2356 481 
L 2356 0 
L 1766 0 
Q 1100 0 847 248 
Q 594 497 594 1153 
L 594 3053 
L 172 3053 
L 172 3500 
L 594 3500 
L 594 4494 
L 1172 4494 
z
" transform="scale(0.015625)"/>
      <path id="DejaVuSans-51" d="M 3513 2113 
L 3513 0 
L 2938 0 
L 2938 2094 
Q 2938 2591 2744 2837 
Q 2550 3084 2163 3084 
Q 1697 3084 1428 2787 
Q 1159 2491 1159 1978 
L 1159 0 
L 581 0 
L 581 3500 
L 1159 3500 
L 1159 2956 
Q 1366 3272 1645 3428 
Q 1925 3584 2291 3584 
Q 2894 3584 3203 3211 
Q 3513 2838 3513 2113 
z
" transform="scale(0.015625)"/>
      <path id="DejaVuSans-4a" d="M 2906 1791 
Q 2906 2416 2648 2759 
Q 2391 3103 1925 3103 
Q 1463 3103 1205 2759 
Q 947 2416 947 1791 
Q 947 1169 1205 825 
Q 1463 481 1925 481 
Q 2391 481 2648 825 
Q 2906 1169 2906 1791 
z
M 3481 434 
Q 3481 -459 3084 -895 
Q 2688 -1331 1869 -1331 
Q 1566 -1331 1297 -1286 
Q 1028 -1241 775 -1147 
L 775 -588 
Q 1028 -725 1275 -790 
Q 1522 -856 1778 -856 
Q 2344 -856 2625 -561 
Q 2906 -266 2906 331 
L 2906 616 
Q 2728 306 2450 153 
Q 2172 0 1784 0 
Q 1141 0 747 490 
Q 353 981 353 1791 
Q 353 2603 747 3093 
Q 1141 3584 1784 3584 
Q 2172 3584 2450 3431 
Q 2728 3278 2906 2969 
L 2906 3500 
L 3481 3500 
L 3481 434 
z
" transform="scale(0.015625)"/>
      <path id="DejaVuSans-4c" d="M 603 3500 
L 1178 3500 
L 1178 0 
L 603 0 
L 603 3500 
z
M 603 4863 
L 1178 4863 
L 1178 4134 
L 603 4134 
L 603 4863 
z
" transform="scale(0.015625)"/>
      <path id="DejaVuSans-1d" d="M 750 794 
L 1409 794 
L 1409 0 
L 750 0 
L 750 794 
z
M 750 3309 
L 1409 3309 
L 1409 2516 
L 750 2516 
L 750 3309 
z
" transform="scale(0.015625)"/>
      <path id="DejaVuSans-46" d="M 3122 3366 
L 3122 2828 
Q 2878 2963 2633 3030 
Q 2388 3097 2138 3097 
Q 1578 3097 1268 2742 
Q 959 2388 959 1747 
Q 959 1106 1268 751 
Q 1578 397 2138 397 
Q 2388 397 2633 464 
Q 2878 531 3122 666 
L 3122 134 
Q 2881 22 2623 -34 
Q 2366 -91 2075 -91 
Q 1284 -91 818 406 
Q 353 903 353 1747 
Q 353 2603 823 3093 
Q 1294 3584 2113 3584 
Q 2378 3584 2631 3529 
Q 2884 3475 3122 3366 
z
" transform="scale(0.015625)"/>
      <path id="DejaVuSans-52" d="M 1959 3097 
Q 1497 3097 1228 2736 
Q 959 2375 959 1747 
Q 959 1119 1226 758 
Q 1494 397 1959 397 
Q 2419 397 2687 759 
Q 2956 1122 2956 1747 
Q 2956 2369 2687 2733 
Q 2419 3097 1959 3097 
z
M 1959 3584 
Q 2709 3584 3137 3096 
Q 3566 2609 3566 1747 
Q 3566 888 3137 398 
Q 2709 -91 1959 -91 
Q 1206 -91 779 398 
Q 353 888 353 1747 
Q 353 2609 779 3096 
Q 1206 3584 1959 3584 
z
" transform="scale(0.015625)"/>
      <path id="DejaVuSans-20" d="M 678 2906 
L 4684 2906 
L 4684 2381 
L 678 2381 
L 678 2906 
z
M 678 1631 
L 4684 1631 
L 4684 1100 
L 678 1100 
L 678 1631 
z
" transform="scale(0.015625)"/>
     </defs>
     <use xlink:href="#DejaVuSans-56"/>
     <use xlink:href="#DejaVuSans-57" transform="translate(52.09375 0)"/>
     <use xlink:href="#DejaVuSans-44" transform="translate(91.296875 0)"/>
     <use xlink:href="#DejaVuSans-51" transform="translate(152.578125 0)"/>
     <use xlink:href="#DejaVuSans-47" transform="translate(215.953125 0)"/>
     <use xlink:href="#DejaVuSans-44" transform="translate(279.4375 0)"/>
     <use xlink:href="#DejaVuSans-55" transform="translate(340.71875 0)"/>
     <use xlink:href="#DejaVuSans-47" transform="translate(380.078125 0)"/>
     <use xlink:href="#DejaVuSans-3" transform="translate(443.5625 0)"/>
     <use xlink:href="#DejaVuSans-4a" transform="translate(475.34375 0)"/>
     <use xlink:href="#DejaVuSans-55" transform="translate(538.828125 0)"/>
     <use xlink:href="#DejaVuSans-4c" transform="translate(579.9375 0)"/>
     <use xlink:href="#DejaVuSans-47" transform="translate(607.71875 0)"/>
     <use xlink:href="#DejaVuSans-1d" transform="translate(671.203125 0)"/>
     <use xlink:href="#DejaVuSans-3" transform="translate(704.890625 0)"/>
     <use xlink:href="#DejaVuSans-46" transform="translate(736.671875 0)"/>
     <use xlink:href="#DejaVuSans-52" transform="translate(791.65625 0)"/>
     <use xlink:href="#DejaVuSans-52" transform="translate(852.84375 0)"/>
     <use xlink:href="#DejaVuSans-55" transform="translate(914.03125 0)"/>
     <use xlink:href="#DejaVuSans-47" transform="translate(953.390625 0)"/>
     <use xlink:href="#DejaVuSans-56" transform="translate(1016.875 0)"/>
     <use xlink:href="#DejaVuSans-3" transform="translate(1068.96875 0)"/>
     <use xlink:href="#DejaVuSans-20" transform="translate(1100.75 0)"/>
     <use xlink:href="#DejaVuSans-3" transform="translate(1184.546875 0)"/>
     <use xlink:href="#DejaVuSans-b" transform="translate(1216.328125 0)"/>
     <use xlink:href="#DejaVuSans-16" transform="translate(1255.34375 0)"/>
     <use xlink:href="#DejaVuSans-f" transform="translate(1318.96875 0)"/>
     <use xlink:href="#DejaVuSans-3" transform="translate(1350.75 0)"/>
     <use xlink:href="#DejaVuSans-16" transform="translate(1382.53125 0)"/>
     <use xlink:href="#DejaVuSans-c" transform="translate(1446.15625 0)"/>
    </g>
   </g>
  </g>
  <g id="axes_2">
   <g id="patch_10">
    <path d="M 363.742187 301.318125 
L 642.742188 301.318125 
L 642.742188 22.318125 
L 363.742187 22.318125 
z
" style="fill: #ffffff"/>
   </g>
   <g id="patch_11">
    <path d="M 530.500808 134.559504 
L 527.099381 141.362359 
L 525.965572 140.22855 
L 498.998747 167.195374 
L 497.864938 166.061565 
L 524.831762 139.094741 
L 523.697953 137.960932 
z
" clip-path="url(#p3452c7f50b)" style="fill: #1f77b4; stroke: #1f77b4; stroke-linejoin: miter"/>
   </g>
   <g id="patch_12">
    <path d="M 530.500808 198.697435 
L 523.697953 195.296008 
L 524.831762 194.162199 
L 497.864938 167.195374 
L 498.998747 166.061565 
L 525.965572 193.02839 
L 527.099381 191.89458 
z
" clip-path="url(#p3452c7f50b)" style="fill: #2ca02c; stroke: #2ca02c; stroke-linejoin: miter"/>
   </g>
   <g id="patch_13">
    <path d="M 594.638739 70.421573 
L 590.557026 78.584999 
L 589.196455 77.224428 
L 499.112128 167.308755 
L 497.751557 165.948184 
L 587.835884 75.863857 
L 586.475313 74.503286 
z
" clip-path="url(#p3452c7f50b)" style="fill: #d62728; stroke: #d62728; stroke-linejoin: miter"/>
   </g>
   <g id="matplotlib.axis_3">
    <g id="xtick_10">
     <g id="line2d_37">
      <g>
       <use xlink:href="#m7e5cb8032b" x="370.155981" y="301.318125" style="stroke: #000000; stroke-width: 0.8"/>
      </g>
     </g>
     <g id="text_21">
      <!-- −4 -->
      <g transform="translate(362.784887 315.915781) scale(0.1 -0.1)">
       <use xlink:href="#DejaVuSans-c9c"/>
       <use xlink:href="#DejaVuSans-17" transform="translate(83.796875 0)"/>
      </g>
     </g>
    </g>
    <g id="xtick_11">
     <g id="line2d_38">
      <g>
       <use xlink:href="#m7e5cb8032b" x="402.224946" y="301.318125" style="stroke: #000000; stroke-width: 0.8"/>
      </g>
     </g>
     <g id="text_22">
      <!-- −3 -->
      <g transform="translate(394.853852 315.915781) scale(0.1 -0.1)">
       <use xlink:href="#DejaVuSans-c9c"/>
       <use xlink:href="#DejaVuSans-16" transform="translate(83.796875 0)"/>
      </g>
     </g>
    </g>
    <g id="xtick_12">
     <g id="line2d_39">
      <g>
       <use xlink:href="#m7e5cb8032b" x="434.293912" y="301.318125" style="stroke: #000000; stroke-width: 0.8"/>
      </g>
     </g>
     <g id="text_23">
      <!-- −2 -->
      <g transform="translate(426.922818 315.915781) scale(0.1 -0.1)">
       <use xlink:href="#DejaVuSans-c9c"/>
       <use xlink:href="#DejaVuSans-15" transform="translate(83.796875 0)"/>
      </g>
     </g>
    </g>
    <g id="xtick_13">
     <g id="line2d_40">
      <g>
       <use xlink:href="#m7e5cb8032b" x="466.362877" y="301.318125" style="stroke: #000000; stroke-width: 0.8"/>
      </g>
     </g>
     <g id="text_24">
      <!-- −1 -->
      <g transform="translate(458.991783 315.915781) scale(0.1 -0.1)">
       <use xlink:href="#DejaVuSans-c9c"/>
       <use xlink:href="#DejaVuSans-14" transform="translate(83.796875 0)"/>
      </g>
     </g>
    </g>
    <g id="xtick_14">
     <g id="line2d_41">
      <g>
       <use xlink:href="#m7e5cb8032b" x="498.431843" y="301.318125" style="stroke: #000000; stroke-width: 0.8"/>
      </g>
     </g>
     <g id="text_25">
      <!-- 0 -->
      <g transform="translate(495.250593 315.915781) scale(0.1 -0.1)">
       <use xlink:href="#DejaVuSans-13"/>
      </g>
     </g>
    </g>
    <g id="xtick_15">
     <g id="line2d_42">
      <g>
       <use xlink:href="#m7e5cb8032b" x="530.500808" y="301.318125" style="stroke: #000000; stroke-width: 0.8"/>
      </g>
     </g>
     <g id="text_26">
      <!-- 1 -->
      <g transform="translate(527.319558 315.915781) scale(0.1 -0.1)">
       <use xlink:href="#DejaVuSans-14"/>
      </g>
     </g>
    </g>
    <g id="xtick_16">
     <g id="line2d_43">
      <g>
       <use xlink:href="#m7e5cb8032b" x="562.569774" y="301.318125" style="stroke: #000000; stroke-width: 0.8"/>
      </g>
     </g>
     <g id="text_27">
      <!-- 2 -->
      <g transform="translate(559.388524 315.915781) scale(0.1 -0.1)">
       <use xlink:href="#DejaVuSans-15"/>
      </g>
     </g>
    </g>
    <g id="xtick_17">
     <g id="line2d_44">
      <g>
       <use xlink:href="#m7e5cb8032b" x="594.638739" y="301.318125" style="stroke: #000000; stroke-width: 0.8"/>
      </g>
     </g>
     <g id="text_28">
      <!-- 3 -->
      <g transform="translate(591.457489 315.915781) scale(0.1 -0.1)">
       <use xlink:href="#DejaVuSans-16"/>
      </g>
     </g>
    </g>
    <g id="xtick_18">
     <g id="line2d_45">
      <g>
       <use xlink:href="#m7e5cb8032b" x="626.707705" y="301.318125" style="stroke: #000000; stroke-width: 0.8"/>
      </g>
     </g>
     <g id="text_29">
      <!-- 4 -->
      <g transform="translate(623.526455 315.915781) scale(0.1 -0.1)">
       <use xlink:href="#DejaVuSans-17"/>
      </g>
     </g>
    </g>
   </g>
   <g id="matplotlib.axis_4">
    <g id="ytick_10">
     <g id="line2d_46">
      <g>
       <use xlink:href="#mae270b0a62" x="363.742187" y="294.904332" style="stroke: #000000; stroke-width: 0.8"/>
      </g>
     </g>
     <g id="text_30">
      <!-- −4 -->
      <g transform="translate(342 298.70316) scale(0.1 -0.1)">
       <use xlink:href="#DejaVuSans-c9c"/>
       <use xlink:href="#DejaVuSans-17" transform="translate(83.796875 0)"/>
      </g>
     </g>
    </g>
    <g id="ytick_11">
     <g id="line2d_47">
      <g>
       <use xlink:href="#mae270b0a62" x="363.742187" y="262.835366" style="stroke: #000000; stroke-width: 0.8"/>
      </g>
     </g>
     <g id="text_31">
      <!-- −3 -->
      <g transform="translate(342 266.634195) scale(0.1 -0.1)">
       <use xlink:href="#DejaVuSans-c9c"/>
       <use xlink:href="#DejaVuSans-16" transform="translate(83.796875 0)"/>
      </g>
     </g>
    </g>
    <g id="ytick_12">
     <g id="line2d_48">
      <g>
       <use xlink:href="#mae270b0a62" x="363.742187" y="230.766401" style="stroke: #000000; stroke-width: 0.8"/>
      </g>
     </g>
     <g id="text_32">
      <!-- −2 -->
      <g transform="translate(342 234.565229) scale(0.1 -0.1)">
       <use xlink:href="#DejaVuSans-c9c"/>
       <use xlink:href="#DejaVuSans-15" transform="translate(83.796875 0)"/>
      </g>
     </g>
    </g>
    <g id="ytick_13">
     <g id="line2d_49">
      <g>
       <use xlink:href="#mae270b0a62" x="363.742187" y="198.697435" style="stroke: #000000; stroke-width: 0.8"/>
      </g>
     </g>
     <g id="text_33">
      <!-- −1 -->
      <g transform="translate(342 202.496263) scale(0.1 -0.1)">
       <use xlink:href="#DejaVuSans-c9c"/>
       <use xlink:href="#DejaVuSans-14" transform="translate(83.796875 0)"/>
      </g>
     </g>
    </g>
    <g id="ytick_14">
     <g id="line2d_50">
      <g>
       <use xlink:href="#mae270b0a62" x="363.742187" y="166.62847" style="stroke: #000000; stroke-width: 0.8"/>
      </g>
     </g>
     <g id="text_34">
      <!-- 0 -->
      <g transform="translate(350.379687 170.427298) scale(0.1 -0.1)">
       <use xlink:href="#DejaVuSans-13"/>
      </g>
     </g>
    </g>
    <g id="ytick_15">
     <g id="line2d_51">
      <g>
       <use xlink:href="#mae270b0a62" x="363.742187" y="134.559504" style="stroke: #000000; stroke-width: 0.8"/>
      </g>
     </g>
     <g id="text_35">
      <!-- 1 -->
      <g transform="translate(350.379687 138.358332) scale(0.1 -0.1)">
       <use xlink:href="#DejaVuSans-14"/>
      </g>
     </g>
    </g>
    <g id="ytick_16">
     <g id="line2d_52">
      <g>
       <use xlink:href="#mae270b0a62" x="363.742187" y="102.490539" style="stroke: #000000; stroke-width: 0.8"/>
      </g>
     </g>
     <g id="text_36">
      <!-- 2 -->
      <g transform="translate(350.379687 106.289367) scale(0.1 -0.1)">
       <use xlink:href="#DejaVuSans-15"/>
      </g>
     </g>
    </g>
    <g id="ytick_17">
     <g id="line2d_53">
      <g>
       <use xlink:href="#mae270b0a62" x="363.742187" y="70.421573" style="stroke: #000000; stroke-width: 0.8"/>
      </g>
     </g>
     <g id="text_37">
      <!-- 3 -->
      <g transform="translate(350.379687 74.220401) scale(0.1 -0.1)">
       <use xlink:href="#DejaVuSans-16"/>
      </g>
     </g>
    </g>
    <g id="ytick_18">
     <g id="line2d_54">
      <g>
       <use xlink:href="#mae270b0a62" x="363.742187" y="38.352608" style="stroke: #000000; stroke-width: 0.8"/>
      </g>
     </g>
     <g id="text_38">
      <!-- 4 -->
      <g transform="translate(350.379687 42.151436) scale(0.1 -0.1)">
       <use xlink:href="#DejaVuSans-17"/>
      </g>
     </g>
    </g>
   </g>
   <g id="line2d_55">
    <path d="M 209.811153 198.697435 
L 409.508588 -1 
" clip-path="url(#p3452c7f50b)" style="fill: none; stroke: #d9d9d9; stroke-width: 0.8; stroke-linecap: square"/>
   </g>
   <g id="line2d_56">
    <path d="M 209.811153 134.559504 
L 401.769774 326.518125 
" clip-path="url(#p3452c7f50b)" style="fill: none; stroke: #d9d9d9; stroke-width: 0.8; stroke-linecap: square"/>
   </g>
   <g id="line2d_57">
    <path d="M 241.880119 230.766401 
L 473.646519 -1 
" clip-path="url(#p3452c7f50b)" style="fill: none; stroke: #d9d9d9; stroke-width: 0.8; stroke-linecap: square"/>
   </g>
   <g id="line2d_58">
    <path d="M 241.880119 102.490539 
L 465.907705 326.518125 
" clip-path="url(#p3452c7f50b)" style="fill: none; stroke: #d9d9d9; stroke-width: 0.8; stroke-linecap: square"/>
   </g>
   <g id="line2d_59">
    <path d="M 273.949084 262.835366 
L 537.78445 -1 
" clip-path="url(#p3452c7f50b)" style="fill: none; stroke: #d9d9d9; stroke-width: 0.8; stroke-linecap: square"/>
   </g>
   <g id="line2d_60">
    <path d="M 273.949084 70.421573 
L 530.045636 326.518125 
" clip-path="url(#p3452c7f50b)" style="fill: none; stroke: #d9d9d9; stroke-width: 0.8; stroke-linecap: square"/>
   </g>
   <g id="line2d_61">
    <path d="M 306.01805 294.904332 
L 601.922381 -1 
" clip-path="url(#p3452c7f50b)" style="fill: none; stroke: #d9d9d9; stroke-width: 0.8; stroke-linecap: square"/>
   </g>
   <g id="line2d_62">
    <path d="M 306.01805 38.352608 
L 594.183567 326.518125 
" clip-path="url(#p3452c7f50b)" style="fill: none; stroke: #d9d9d9; stroke-width: 0.8; stroke-linecap: square"/>
   </g>
   <g id="line2d_63">
    <path d="M 338.542187 326.518125 
L 658.77667 6.283642 
" clip-path="url(#p3452c7f50b)" style="fill: none; stroke: #d9d9d9; stroke-width: 0.8; stroke-linecap: square"/>
   </g>
   <g id="line2d_64">
    <path d="M 338.087015 6.283642 
L 658.321498 326.518125 
" clip-path="url(#p3452c7f50b)" style="fill: none; stroke: #d9d9d9; stroke-width: 0.8; stroke-linecap: square"/>
   </g>
   <g id="line2d_65">
    <path d="M 402.680119 326.518125 
L 676.141595 53.056649 
" clip-path="url(#p3452c7f50b)" style="fill: none; stroke: #d9d9d9; stroke-width: 0.8; stroke-linecap: square"/>
   </g>
   <g id="line2d_66">
    <path d="M 394.941304 -1 
L 676.141595 280.200291 
" clip-path="url(#p3452c7f50b)" style="fill: none; stroke: #d9d9d9; stroke-width: 0.8; stroke-linecap: square"/>
   </g>
   <g id="line2d_67">
    <path d="M 466.81805 326.518125 
L 676.141595 117.19458 
" clip-path="url(#p3452c7f50b)" style="fill: none; stroke: #d9d9d9; stroke-width: 0.8; stroke-linecap: square"/>
   </g>
   <g id="line2d_68">
    <path d="M 459.079235 -1 
L 676.141595 216.06236 
" clip-path="url(#p3452c7f50b)" style="fill: none; stroke: #d9d9d9; stroke-width: 0.8; stroke-linecap: square"/>
   </g>
   <g id="line2d_69">
    <path d="M 530.955981 326.518125 
L 676.141595 181.332511 
" clip-path="url(#p3452c7f50b)" style="fill: none; stroke: #d9d9d9; stroke-width: 0.8; stroke-linecap: square"/>
   </g>
   <g id="line2d_70">
    <path d="M 523.217166 -1 
L 676.141595 151.924429 
" clip-path="url(#p3452c7f50b)" style="fill: none; stroke: #d9d9d9; stroke-width: 0.8; stroke-linecap: square"/>
   </g>
   <g id="line2d_71">
    <path d="M 595.093912 326.518125 
L 676.141595 245.470442 
" clip-path="url(#p3452c7f50b)" style="fill: none; stroke: #d9d9d9; stroke-width: 0.8; stroke-linecap: square"/>
   </g>
   <g id="line2d_72">
    <path d="M 587.355097 -1 
L 676.141595 87.786498 
" clip-path="url(#p3452c7f50b)" style="fill: none; stroke: #d9d9d9; stroke-width: 0.8; stroke-linecap: square"/>
   </g>
   <g id="patch_14">
    <path d="M 363.742187 301.318125 
L 363.742187 22.318125 
" style="fill: none; stroke: #000000; stroke-width: 0.8; stroke-linejoin: miter; stroke-linecap: square"/>
   </g>
   <g id="patch_15">
    <path d="M 642.742188 301.318125 
L 642.742188 22.318125 
" style="fill: none; stroke: #000000; stroke-width: 0.8; stroke-linejoin: miter; stroke-linecap: square"/>
   </g>
   <g id="patch_16">
    <path d="M 363.742187 301.318125 
L 642.742188 301.318125 
" style="fill: none; stroke: #000000; stroke-width: 0.8; stroke-linejoin: miter; stroke-linecap: square"/>
   </g>
   <g id="patch_17">
    <path d="M 363.742187 22.318125 
L 642.742188 22.318125 
" style="fill: none; stroke: #000000; stroke-width: 0.8; stroke-linejoin: miter; stroke-linecap: square"/>
   </g>
   <g id="text_39">
    <!-- v reads (3, 0) -->
    <g style="fill: #d62728" transform="translate(601.052532 70.421573) scale(0.1 -0.1)">
     <use xlink:href="#DejaVuSans-59"/>
     <use xlink:href="#DejaVuSans-3" transform="translate(59.1875 0)"/>
     <use xlink:href="#DejaVuSans-55" transform="translate(90.96875 0)"/>
     <use xlink:href="#DejaVuSans-48" transform="translate(129.875 0)"/>
     <use xlink:href="#DejaVuSans-44" transform="translate(191.40625 0)"/>
     <use xlink:href="#DejaVuSans-47" transform="translate(252.6875 0)"/>
     <use xlink:href="#DejaVuSans-56" transform="translate(316.171875 0)"/>
     <use xlink:href="#DejaVuSans-3" transform="translate(368.265625 0)"/>
     <use xlink:href="#DejaVuSans-b" transform="translate(400.046875 0)"/>
     <use xlink:href="#DejaVuSans-16" transform="translate(439.0625 0)"/>
     <use xlink:href="#DejaVuSans-f" transform="translate(502.6875 0)"/>
     <use xlink:href="#DejaVuSans-3" transform="translate(534.46875 0)"/>
     <use xlink:href="#DejaVuSans-13" transform="translate(566.25 0)"/>
     <use xlink:href="#DejaVuSans-c" transform="translate(629.875 0)"/>
    </g>
   </g>
   <g id="text_40">
    <!-- eigenbasis grid {(1,1),(1,-1)}: coords = (3, 0) -->
    <g transform="translate(366.618437 16.318125) scale(0.12 -0.12)">
     <defs>
      <path id="DejaVuSans-45" d="M 3116 1747 
Q 3116 2381 2855 2742 
Q 2594 3103 2138 3103 
Q 1681 3103 1420 2742 
Q 1159 2381 1159 1747 
Q 1159 1113 1420 752 
Q 1681 391 2138 391 
Q 2594 391 2855 752 
Q 3116 1113 3116 1747 
z
M 1159 2969 
Q 1341 3281 1617 3432 
Q 1894 3584 2278 3584 
Q 2916 3584 3314 3078 
Q 3713 2572 3713 1747 
Q 3713 922 3314 415 
Q 2916 -91 2278 -91 
Q 1894 -91 1617 61 
Q 1341 213 1159 525 
L 1159 0 
L 581 0 
L 581 4863 
L 1159 4863 
L 1159 2969 
z
" transform="scale(0.015625)"/>
      <path id="DejaVuSans-5e" d="M 3272 -594 
L 3272 -1044 
L 3078 -1044 
Q 2300 -1044 2036 -812 
Q 1772 -581 1772 109 
L 1772 856 
Q 1772 1328 1603 1509 
Q 1434 1691 991 1691 
L 800 1691 
L 800 2138 
L 991 2138 
Q 1438 2138 1605 2317 
Q 1772 2497 1772 2963 
L 1772 3713 
Q 1772 4403 2036 4633 
Q 2300 4863 3078 4863 
L 3272 4863 
L 3272 4416 
L 3059 4416 
Q 2619 4416 2484 4278 
Q 2350 4141 2350 3700 
L 2350 2925 
Q 2350 2434 2208 2212 
Q 2066 1991 1722 1913 
Q 2069 1828 2209 1606 
Q 2350 1384 2350 897 
L 2350 122 
Q 2350 -319 2484 -456 
Q 2619 -594 3059 -594 
L 3272 -594 
z
" transform="scale(0.015625)"/>
      <path id="DejaVuSans-10" d="M 313 2009 
L 1997 2009 
L 1997 1497 
L 313 1497 
L 313 2009 
z
" transform="scale(0.015625)"/>
      <path id="DejaVuSans-60" d="M 800 -594 
L 1019 -594 
Q 1456 -594 1589 -459 
Q 1722 -325 1722 122 
L 1722 897 
Q 1722 1384 1862 1606 
Q 2003 1828 2350 1913 
Q 2003 1991 1862 2212 
Q 1722 2434 1722 2925 
L 1722 3700 
Q 1722 4144 1589 4280 
Q 1456 4416 1019 4416 
L 800 4416 
L 800 4863 
L 997 4863 
Q 1775 4863 2036 4633 
Q 2297 4403 2297 3713 
L 2297 2963 
Q 2297 2497 2465 2317 
Q 2634 2138 3078 2138 
L 3272 2138 
L 3272 1691 
L 3078 1691 
Q 2634 1691 2465 1509 
Q 2297 1328 2297 856 
L 2297 109 
Q 2297 -581 2036 -812 
Q 1775 -1044 997 -1044 
L 800 -1044 
L 800 -594 
z
" transform="scale(0.015625)"/>
     </defs>
     <use xlink:href="#DejaVuSans-48"/>
     <use xlink:href="#DejaVuSans-4c" transform="translate(61.53125 0)"/>
     <use xlink:href="#DejaVuSans-4a" transform="translate(89.3125 0)"/>
     <use xlink:href="#DejaVuSans-48" transform="translate(152.796875 0)"/>
     <use xlink:href="#DejaVuSans-51" transform="translate(214.328125 0)"/>
     <use xlink:href="#DejaVuSans-45" transform="translate(277.703125 0)"/>
     <use xlink:href="#DejaVuSans-44" transform="translate(341.1875 0)"/>
     <use xlink:href="#DejaVuSans-56" transform="translate(402.46875 0)"/>
     <use xlink:href="#DejaVuSans-4c" transform="translate(454.5625 0)"/>
     <use xlink:href="#DejaVuSans-56" transform="translate(482.34375 0)"/>
     <use xlink:href="#DejaVuSans-3" transform="translate(534.4375 0)"/>
     <use xlink:href="#DejaVuSans-4a" transform="translate(566.21875 0)"/>
     <use xlink:href="#DejaVuSans-55" transform="translate(629.703125 0)"/>
     <use xlink:href="#DejaVuSans-4c" transform="translate(670.8125 0)"/>
     <use xlink:href="#DejaVuSans-47" transform="translate(698.59375 0)"/>
     <use xlink:href="#DejaVuSans-3" transform="translate(762.078125 0)"/>
     <use xlink:href="#DejaVuSans-5e" transform="translate(793.859375 0)"/>
     <use xlink:href="#DejaVuSans-b" transform="translate(857.484375 0)"/>
     <use xlink:href="#DejaVuSans-14" transform="translate(896.5 0)"/>
     <use xlink:href="#DejaVuSans-f" transform="translate(960.125 0)"/>
     <use xlink:href="#DejaVuSans-14" transform="translate(991.90625 0)"/>
     <use xlink:href="#DejaVuSans-c" transform="translate(1055.53125 0)"/>
     <use xlink:href="#DejaVuSans-f" transform="translate(1094.546875 0)"/>
     <use xlink:href="#DejaVuSans-b" transform="translate(1126.328125 0)"/>
     <use xlink:href="#DejaVuSans-14" transform="translate(1165.34375 0)"/>
     <use xlink:href="#DejaVuSans-f" transform="translate(1228.96875 0)"/>
     <use xlink:href="#DejaVuSans-10" transform="translate(1260.75 0)"/>
     <use xlink:href="#DejaVuSans-14" transform="translate(1296.828125 0)"/>
     <use xlink:href="#DejaVuSans-c" transform="translate(1360.453125 0)"/>
     <use xlink:href="#DejaVuSans-60" transform="translate(1399.46875 0)"/>
     <use xlink:href="#DejaVuSans-1d" transform="translate(1463.09375 0)"/>
     <use xlink:href="#DejaVuSans-3" transform="translate(1496.78125 0)"/>
     <use xlink:href="#DejaVuSans-46" transform="translate(1528.5625 0)"/>
     <use xlink:href="#DejaVuSans-52" transform="translate(1583.546875 0)"/>
     <use xlink:href="#DejaVuSans-52" transform="translate(1644.734375 0)"/>
     <use xlink:href="#DejaVuSans-55" transform="translate(1705.921875 0)"/>
     <use xlink:href="#DejaVuSans-47" transform="translate(1745.28125 0)"/>
     <use xlink:href="#DejaVuSans-56" transform="translate(1808.765625 0)"/>
     <use xlink:href="#DejaVuSans-3" transform="translate(1860.859375 0)"/>
     <use xlink:href="#DejaVuSans-20" transform="translate(1892.640625 0)"/>
     <use xlink:href="#DejaVuSans-3" transform="translate(1976.4375 0)"/>
     <use xlink:href="#DejaVuSans-b" transform="translate(2008.21875 0)"/>
     <use xlink:href="#DejaVuSans-16" transform="translate(2047.234375 0)"/>
     <use xlink:href="#DejaVuSans-f" transform="translate(2110.859375 0)"/>
     <use xlink:href="#DejaVuSans-3" transform="translate(2142.640625 0)"/>
     <use xlink:href="#DejaVuSans-13" transform="translate(2174.421875 0)"/>
     <use xlink:href="#DejaVuSans-c" transform="translate(2238.046875 0)"/>
    </g>
   </g>
  </g>
 </g>
 <defs>
  <clipPath id="p2ac0876da5">
   <rect x="28.942187" y="22.318125" width="279" height="279"/>
  </clipPath>
  <clipPath id="p3452c7f50b">
   <rect x="363.742187" y="22.318125" width="279" height="279"/>
  </clipPath>
 </defs>
</svg>
