<?xml version="1.0" encoding="utf-8" standalone="no"?>
<!DOCTYPE svg PUBLIC "-//W3C//DTD SVG 1.1//EN"
  "http://www.w3.org/Graphics/SVG/1.1/DTD/svg11.dtd">
<svg xmlns:xlink="http://www.w3.org/1999/xlink" width="720.77965pt" height="366.878437pt" viewBox="0 0 720.77965 366.878437" xmlns="http://www.w3.org/2000/svg" version="1.1">
 <metadata>
  <rdf:RDF xmlns:dc="http://purl.org/dc/elements/1.1/" xmlns:cc="http://creativecommons.org/ns#" xmlns:rdf="http://www.w3.org/1999/02/22-rdf-syntax-ns#">
   <cc:Work>
    <dc:type rdf:resource="http://purl.org/dc/dcmitype/StillImage"/>
    <dc:date>2026-06-13T19:07:47.236456</dc:date>
    <dc:format>image/svg+xml</dc:format>
    <dc:creator>
     <cc:Agent>
      <dc:title>Matplotlib v3.11.0, https://matplotlib.org/</dc:title>
     </cc:Agent>
    </dc:creator>
   </cc:Work>
  </rdf:RDF>
 </metadata>
 <defs>
  <style type="text/css">*{stroke-linejoin: round; stroke-linecap: butt}</style>
 </defs>
 <g id="figure_1">
  <g id="patch_1">
   <path d="M 0 366.878437 
L 720.77965 366.878437 
L 720.77965 0 
L 0 0 
z
" style="fill: #ffffff"/>
  </g>
  <g id="axes_1">
   <g id="patch_2">
    <path d="M 28.942187 342.678437 
L 297.175521 342.678437 
L 297.175521 20.798437 
L 28.942187 20.798437 
z
" style="fill: #ffffff"/>
   </g>
   <g id="matplotlib.axis_1">
    <g id="xtick_1">
     <g id="line2d_1">
      <defs>
       <path id="me406b6a824" d="M 0 0 
L 0 3.5 
" style="stroke: #000000; stroke-width: 0.8"/>
      </defs>
      <g>
       <use xlink:href="#me406b6a824" x="28.942188" y="342.678437" style="stroke: #000000; stroke-width: 0.8"/>
      </g>
     </g>
     <g id="text_1">
      <!-- −1 -->
      <g transform="translate(21.571094 357.276094) scale(0.1 -0.1)">
       <defs>
        <path id="DejaVuSans-c9c" d="M 678 2272 
L 4684 2272 
L 4684 1741 
L 678 1741 
L 678 2272 
z
" transform="scale(0.015625)"/>
        <path id="DejaVuSans-14" d="M 794 531 
L 1825 531 
L 1825 4091 
L 703 3866 
L 703 4441 
L 1819 4666 
L 2450 4666 
L 2450 531 
L 3481 531 
L 3481 0 
L 794 0 
L 794 531 
z
" transform="scale(0.015625)"/>
       </defs>
       <use xlink:href="#DejaVuSans-c9c"/>
       <use xlink:href="#DejaVuSans-14" transform="translate(83.796875 0)"/>
      </g>
     </g>
    </g>
    <g id="xtick_2">
     <g id="line2d_2">
      <g>
       <use xlink:href="#me406b6a824" x="82.588854" y="342.678437" style="stroke: #000000; stroke-width: 0.8"/>
      </g>
     </g>
     <g id="text_2">
      <!-- 0 -->
      <g transform="translate(79.407604 357.276094) scale(0.1 -0.1)">
       <defs>
        <path id="DejaVuSans-13" d="M 2034 4250 
Q 1547 4250 1301 3770 
Q 1056 3291 1056 2328 
Q 1056 1369 1301 889 
Q 1547 409 2034 409 
Q 2525 409 2770 889 
Q 3016 1369 3016 2328 
Q 3016 3291 2770 3770 
Q 2525 4250 2034 4250 
z
M 2034 4750 
Q 2819 4750 3233 4129 
Q 3647 3509 3647 2328 
Q 3647 1150 3233 529 
Q 2819 -91 2034 -91 
Q 1250 -91 836 529 
Q 422 1150 422 2328 
Q 422 3509 836 4129 
Q 1250 4750 2034 4750 
z
" transform="scale(0.015625)"/>
       </defs>
       <use xlink:href="#DejaVuSans-13"/>
      </g>
     </g>
    </g>
    <g id="xtick_3">
     <g id="line2d_3">
      <g>
       <use xlink:href="#me406b6a824" x="136.235521" y="342.678437" style="stroke: #000000; stroke-width: 0.8"/>
      </g>
     </g>
     <g id="text_3">
      <!-- 1 -->
      <g transform="translate(133.054271 357.276094) scale(0.1 -0.1)">
       <use xlink:href="#DejaVuSans-14"/>
      </g>
     </g>
    </g>
    <g id="xtick_4">
     <g id="line2d_4">
      <g>
       <use xlink:href="#me406b6a824" x="189.882188" y="342.678437" style="stroke: #000000; stroke-width: 0.8"/>
      </g>
     </g>
     <g id="text_4">
      <!-- 2 -->
      <g transform="translate(186.700938 357.276094) scale(0.1 -0.1)">
       <defs>
        <path id="DejaVuSans-15" d="M 1228 531 
L 3431 531 
L 3431 0 
L 469 0 
L 469 531 
Q 828 903 1448 1529 
Q 2069 2156 2228 2338 
Q 2531 2678 2651 2914 
Q 2772 3150 2772 3378 
Q 2772 3750 2511 3984 
Q 2250 4219 1831 4219 
Q 1534 4219 1204 4116 
Q 875 4013 500 3803 
L 500 4441 
Q 881 4594 1212 4672 
Q 1544 4750 1819 4750 
Q 2544 4750 2975 4387 
Q 3406 4025 3406 3419 
Q 3406 3131 3298 2873 
Q 3191 2616 2906 2266 
Q 2828 2175 2409 1742 
Q 1991 1309 1228 531 
z
" transform="scale(0.015625)"/>
       </defs>
       <use xlink:href="#DejaVuSans-15"/>
      </g>
     </g>
    </g>
    <g id="xtick_5">
     <g id="line2d_5">
      <g>
       <use xlink:href="#me406b6a824" x="243.528854" y="342.678437" style="stroke: #000000; stroke-width: 0.8"/>
      </g>
     </g>
     <g id="text_5">
      <!-- 3 -->
      <g transform="translate(240.347604 357.276094) scale(0.1 -0.1)">
       <defs>
        <path id="DejaVuSans-16" d="M 2597 2516 
Q 3050 2419 3304 2112 
Q 3559 1806 3559 1356 
Q 3559 666 3084 287 
Q 2609 -91 1734 -91 
Q 1441 -91 1130 -33 
Q 819 25 488 141 
L 488 750 
Q 750 597 1062 519 
Q 1375 441 1716 441 
Q 2309 441 2620 675 
Q 2931 909 2931 1356 
Q 2931 1769 2642 2001 
Q 2353 2234 1838 2234 
L 1294 2234 
L 1294 2753 
L 1863 2753 
Q 2328 2753 2575 2939 
Q 2822 3125 2822 3475 
Q 2822 3834 2567 4026 
Q 2313 4219 1838 4219 
Q 1578 4219 1281 4162 
Q 984 4106 628 3988 
L 628 4550 
Q 988 4650 1302 4700 
Q 1616 4750 1894 4750 
Q 2613 4750 3031 4423 
Q 3450 4097 3450 3541 
Q 3450 3153 3228 2886 
Q 3006 2619 2597 2516 
z
" transform="scale(0.015625)"/>
       </defs>
       <use xlink:href="#DejaVuSans-16"/>
      </g>
     </g>
    </g>
    <g id="xtick_6">
     <g id="line2d_6">
      <g>
       <use xlink:href="#me406b6a824" x="297.175521" y="342.678437" style="stroke: #000000; stroke-width: 0.8"/>
      </g>
     </g>
     <g id="text_6">
      <!-- 4 -->
      <g transform="translate(293.994271 357.276094) scale(0.1 -0.1)">
       <defs>
        <path id="DejaVuSans-17" d="M 2419 4116 
L 825 1625 
L 2419 1625 
L 2419 4116 
z
M 2253 4666 
L 3047 4666 
L 3047 1625 
L 3713 1625 
L 3713 1100 
L 3047 1100 
L 3047 0 
L 2419 0 
L 2419 1100 
L 313 1100 
L 313 1709 
L 2253 4666 
z
" transform="scale(0.015625)"/>
       </defs>
       <use xlink:href="#DejaVuSans-17"/>
      </g>
     </g>
    </g>
   </g>
   <g id="matplotlib.axis_2">
    <g id="ytick_1">
     <g id="line2d_7">
      <defs>
       <path id="m981eeb971d" d="M 0 0 
L -3.5 0 
" style="stroke: #000000; stroke-width: 0.8"/>
      </defs>
      <g>
       <use xlink:href="#m981eeb971d" x="28.942187" y="315.855104" style="stroke: #000000; stroke-width: 0.8"/>
      </g>
     </g>
     <g id="text_7">
      <!-- −2 -->
      <g transform="translate(7.2 319.653932) scale(0.1 -0.1)">
       <use xlink:href="#DejaVuSans-c9c"/>
       <use xlink:href="#DejaVuSans-15" transform="translate(83.796875 0)"/>
      </g>
     </g>
    </g>
    <g id="ytick_2">
     <g id="line2d_8">
      <g>
       <use xlink:href="#m981eeb971d" x="28.942187" y="262.208437" style="stroke: #000000; stroke-width: 0.8"/>
      </g>
     </g>
     <g id="text_8">
      <!-- −1 -->
      <g transform="translate(7.2 266.007266) scale(0.1 -0.1)">
       <use xlink:href="#DejaVuSans-c9c"/>
       <use xlink:href="#DejaVuSans-14" transform="translate(83.796875 0)"/>
      </g>
     </g>
    </g>
    <g id="ytick_3">
     <g id="line2d_9">
      <g>
       <use xlink:href="#m981eeb971d" x="28.942187" y="208.561771" style="stroke: #000000; stroke-width: 0.8"/>
      </g>
     </g>
     <g id="text_9">
      <!-- 0 -->
      <g transform="translate(15.579687 212.360599) scale(0.1 -0.1)">
       <use xlink:href="#DejaVuSans-13"/>
      </g>
     </g>
    </g>
    <g id="ytick_4">
     <g id="line2d_10">
      <g>
       <use xlink:href="#m981eeb971d" x="28.942187" y="154.915104" style="stroke: #000000; stroke-width: 0.8"/>
      </g>
     </g>
     <g id="text_10">
      <!-- 1 -->
      <g transform="translate(15.579687 158.713932) scale(0.1 -0.1)">
       <use xlink:href="#DejaVuSans-14"/>
      </g>
     </g>
    </g>
    <g id="ytick_5">
     <g id="line2d_11">
      <g>
       <use xlink:href="#m981eeb971d" x="28.942187" y="101.268437" style="stroke: #000000; stroke-width: 0.8"/>
      </g>
     </g>
     <g id="text_11">
      <!-- 2 -->
      <g transform="translate(15.579687 105.067266) scale(0.1 -0.1)">
       <use xlink:href="#DejaVuSans-15"/>
      </g>
     </g>
    </g>
    <g id="ytick_6">
     <g id="line2d_12">
      <g>
       <use xlink:href="#m981eeb971d" x="28.942187" y="47.621771" style="stroke: #000000; stroke-width: 0.8"/>
      </g>
     </g>
     <g id="text_12">
      <!-- 3 -->
      <g transform="translate(15.579687 51.420599) scale(0.1 -0.1)">
       <use xlink:href="#DejaVuSans-16"/>
      </g>
     </g>
    </g>
   </g>
   <g id="line2d_13">
    <path d="M 58.277969 -1 
L 61.787085 6.018233 
L 67.261235 16.966533 
L 72.735385 27.914832 
L 78.209534 38.863131 
L 83.683684 49.811431 
L 89.157834 60.75973 
L 94.631983 71.708029 
L 100.106133 82.656329 
L 105.580283 93.604628 
L 111.054432 104.552927 
L 116.528582 115.501227 
L 122.002732 126.449526 
L 127.476881 137.397825 
L 132.951031 148.346125 
L 138.425181 159.294424 
L 143.89933 170.242723 
L 149.37348 181.191023 
L 154.84763 192.139322 
L 160.321779 203.087621 
L 165.795929 214.03592 
L 171.270079 224.98422 
L 176.744228 235.932519 
L 182.218378 246.880818 
L 187.692528 257.829118 
L 193.166677 268.777417 
L 198.640827 279.725716 
L 204.114977 290.674016 
L 209.589126 301.622315 
L 215.063276 312.570614 
L 220.537426 323.518914 
L 226.011575 334.467213 
L 231.485725 345.415512 
L 236.959875 356.363812 
L 242.434024 367.312111 
L 242.717188 367.878437 
" clip-path="url(#p6a972678a8)" style="fill: none; stroke: #2471a3; stroke-width: 2; stroke-linecap: square"/>
   </g>
   <g id="line2d_14">
    <path d="M 28.942188 181.738437 
L 34.416337 184.475512 
L 39.890487 187.212587 
L 45.364636 189.949662 
L 50.838786 192.686737 
L 56.312936 195.423812 
L 61.787085 198.160886 
L 67.261235 200.897961 
L 72.735385 203.635036 
L 78.209534 206.372111 
L 83.683684 209.109186 
L 89.157834 211.846261 
L 94.631983 214.583335 
L 100.106133 217.32041 
L 105.580283 220.057485 
L 111.054432 222.79456 
L 116.528582 225.531635 
L 122.002732 228.26871 
L 127.476881 231.005784 
L 132.951031 233.742859 
L 138.425181 236.479934 
L 143.89933 239.217009 
L 149.37348 241.954084 
L 154.84763 244.691159 
L 160.321779 247.428233 
L 165.795929 250.165308 
L 171.270079 252.902383 
L 176.744228 255.639458 
L 182.218378 258.376533 
L 187.692528 261.113608 
L 193.166677 263.850682 
L 198.640827 266.587757 
L 204.114977 269.324832 
L 209.589126 272.061907 
L 215.063276 274.798982 
L 220.537426 277.536057 
L 226.011575 280.273131 
L 231.485725 283.010206 
L 236.959875 285.747281 
L 242.434024 288.484356 
L 247.908174 291.221431 
L 253.382324 293.958506 
L 258.856473 296.69558 
L 264.330623 299.432655 
L 269.804773 302.16973 
L 275.278922 304.906805 
L 280.753072 307.64388 
L 286.227222 310.380955 
L 291.701371 313.118029 
L 297.175521 315.855104 
" clip-path="url(#p6a972678a8)" style="fill: none; stroke: #e07b39; stroke-width: 2; stroke-linecap: square"/>
   </g>
   <g id="line2d_15">
    <defs>
     <path id="m81668f8e27" d="M 0 4.5 
C 1.193414 4.5 2.338109 4.025852 3.181981 3.181981 
C 4.025852 2.338109 4.5 1.193414 4.5 0 
C 4.5 -1.193414 4.025852 -2.338109 3.181981 -3.181981 
C 2.338109 -4.025852 1.193414 -4.5 0 -4.5 
C -1.193414 -4.5 -2.338109 -4.025852 -3.181981 -3.181981 
C -4.025852 -2.338109 -4.5 -1.193414 -4.5 0 
C -4.5 1.193414 -4.025852 2.338109 -3.181981 3.181981 
C -2.338109 4.025852 -1.193414 4.5 0 4.5 
z
" style="stroke: #c0392b"/>
    </defs>
    <g clip-path="url(#p6a972678a8)">
     <use xlink:href="#m81668f8e27" x="189.882188" y="262.208437" style="fill: #c0392b; stroke: #c0392b"/>
    </g>
   </g>
   <g id="line2d_16">
    <path d="M 28.942187 208.561771 
L 297.175521 208.561771 
" clip-path="url(#p6a972678a8)" style="fill: none; stroke: #999999; stroke-width: 0.6; stroke-linecap: square"/>
   </g>
   <g id="line2d_17">
    <path d="M 82.588854 342.678437 
L 82.588854 20.798437 
" clip-path="url(#p6a972678a8)" style="fill: none; stroke: #999999; stroke-width: 0.6; stroke-linecap: square"/>
   </g>
   <g id="patch_3">
    <path d="M 28.942187 342.678437 
L 28.942187 20.798437 
" style="fill: none; stroke: #000000; stroke-width: 0.8; stroke-linejoin: miter; stroke-linecap: square"/>
   </g>
   <g id="patch_4">
    <path d="M 297.175521 342.678437 
L 297.175521 20.798437 
" style="fill: none; stroke: #000000; stroke-width: 0.8; stroke-linejoin: miter; stroke-linecap: square"/>
   </g>
   <g id="patch_5">
    <path d="M 28.942188 342.678437 
L 297.175521 342.678437 
" style="fill: none; stroke: #000000; stroke-width: 0.8; stroke-linejoin: miter; stroke-linecap: square"/>
   </g>
   <g id="patch_6">
    <path d="M 28.942188 20.798437 
L 297.175521 20.798437 
" style="fill: none; stroke: #000000; stroke-width: 0.8; stroke-linejoin: miter; stroke-linecap: square"/>
   </g>
   <g id="text_13">
    <!-- (2, -1) -->
    <g style="fill: #c0392b" transform="translate(195.246854 264.890771) scale(0.1 -0.1)">
     <defs>
      <path id="DejaVuSans-b" d="M 1984 4856 
Q 1566 4138 1362 3434 
Q 1159 2731 1159 2009 
Q 1159 1288 1364 580 
Q 1569 -128 1984 -844 
L 1484 -844 
Q 1016 -109 783 600 
Q 550 1309 550 2009 
Q 550 2706 781 3412 
Q 1013 4119 1484 4856 
L 1984 4856 
z
" transform="scale(0.015625)"/>
      <path id="DejaVuSans-f" d="M 750 794 
L 1409 794 
L 1409 256 
L 897 -744 
L 494 -744 
L 750 256 
L 750 794 
z
" transform="scale(0.015625)"/>
      <path id="DejaVuSans-3" transform="scale(0.015625)"/>
      <path id="DejaVuSans-10" d="M 313 2009 
L 1997 2009 
L 1997 1497 
L 313 1497 
L 313 2009 
z
" transform="scale(0.015625)"/>
      <path id="DejaVuSans-c" d="M 513 4856 
L 1013 4856 
Q 1481 4119 1714 3412 
Q 1947 2706 1947 2009 
Q 1947 1309 1714 600 
Q 1481 -109 1013 -844 
L 513 -844 
Q 928 -128 1133 580 
Q 1338 1288 1338 2009 
Q 1338 2731 1133 3434 
Q 928 4138 513 4856 
z
" transform="scale(0.015625)"/>
     </defs>
     <use xlink:href="#DejaVuSans-b"/>
     <use xlink:href="#DejaVuSans-15" transform="translate(39.015625 0)"/>
     <use xlink:href="#DejaVuSans-f" transform="translate(102.640625 0)"/>
     <use xlink:href="#DejaVuSans-3" transform="translate(134.421875 0)"/>
     <use xlink:href="#DejaVuSans-10" transform="translate(166.203125 0)"/>
     <use xlink:href="#DejaVuSans-14" transform="translate(202.28125 0)"/>
     <use xlink:href="#DejaVuSans-c" transform="translate(265.90625 0)"/>
    </g>
   </g>
   <g id="text_14">
    <!-- row picture: lines meet at the solution -->
    <g transform="translate(67.642448 14.798437) scale(0.1 -0.1)">
     <defs>
      <path id="DejaVuSans-55" d="M 2631 2963 
Q 2534 3019 2420 3045 
Q 2306 3072 2169 3072 
Q 1681 3072 1420 2755 
Q 1159 2438 1159 1844 
L 1159 0 
L 581 0 
L 581 3500 
L 1159 3500 
L 1159 2956 
Q 1341 3275 1631 3429 
Q 1922 3584 2338 3584 
Q 2397 3584 2469 3576 
Q 2541 3569 2628 3553 
L 2631 2963 
z
" transform="scale(0.015625)"/>
      <path id="DejaVuSans-52" d="M 1959 3097 
Q 1497 3097 1228 2736 
Q 959 2375 959 1747 
Q 959 1119 1226 758 
Q 1494 397 1959 397 
Q 2419 397 2687 759 
Q 2956 1122 2956 1747 
Q 2956 2369 2687 2733 
Q 2419 3097 1959 3097 
z
M 1959 3584 
Q 2709 3584 3137 3096 
Q 3566 2609 3566 1747 
Q 3566 888 3137 398 
Q 2709 -91 1959 -91 
Q 1206 -91 779 398 
Q 353 888 353 1747 
Q 353 2609 779 3096 
Q 1206 3584 1959 3584 
z
" transform="scale(0.015625)"/>
      <path id="DejaVuSans-5a" d="M 269 3500 
L 844 3500 
L 1563 769 
L 2278 3500 
L 2956 3500 
L 3675 769 
L 4391 3500 
L 4966 3500 
L 4050 0 
L 3372 0 
L 2619 2869 
L 1863 0 
L 1184 0 
L 269 3500 
z
" transform="scale(0.015625)"/>
      <path id="DejaVuSans-53" d="M 1159 525 
L 1159 -1331 
L 581 -1331 
L 581 3500 
L 1159 3500 
L 1159 2969 
Q 1341 3281 1617 3432 
Q 1894 3584 2278 3584 
Q 2916 3584 3314 3078 
Q 3713 2572 3713 1747 
Q 3713 922 3314 415 
Q 2916 -91 2278 -91 
Q 1894 -91 1617 61 
Q 1341 213 1159 525 
z
M 3116 1747 
Q 3116 2381 2855 2742 
Q 2594 3103 2138 3103 
Q 1681 3103 1420 2742 
Q 1159 2381 1159 1747 
Q 1159 1113 1420 752 
Q 1681 391 2138 391 
Q 2594 391 2855 752 
Q 3116 1113 3116 1747 
z
" transform="scale(0.015625)"/>
      <path id="DejaVuSans-4c" d="M 603 3500 
L 1178 3500 
L 1178 0 
L 603 0 
L 603 3500 
z
M 603 4863 
L 1178 4863 
L 1178 4134 
L 603 4134 
L 603 4863 
z
" transform="scale(0.015625)"/>
      <path id="DejaVuSans-46" d="M 3122 3366 
L 3122 2828 
Q 2878 2963 2633 3030 
Q 2388 3097 2138 3097 
Q 1578 3097 1268 2742 
Q 959 2388 959 1747 
Q 959 1106 1268 751 
Q 1578 397 2138 397 
Q 2388 397 2633 464 
Q 2878 531 3122 666 
L 3122 134 
Q 2881 22 2623 -34 
Q 2366 -91 2075 -91 
Q 1284 -91 818 406 
Q 353 903 353 1747 
Q 353 2603 823 3093 
Q 1294 3584 2113 3584 
Q 2378 3584 2631 3529 
Q 2884 3475 3122 3366 
z
" transform="scale(0.015625)"/>
      <path id="DejaVuSans-57" d="M 1172 4494 
L 1172 3500 
L 2356 3500 
L 2356 3053 
L 1172 3053 
L 1172 1153 
Q 1172 725 1289 603 
Q 1406 481 1766 481 
L 2356 481 
L 2356 0 
L 1766 0 
Q 1100 0 847 248 
Q 594 497 594 1153 
L 594 3053 
L 172 3053 
L 172 3500 
L 594 3500 
L 594 4494 
L 1172 4494 
z
" transform="scale(0.015625)"/>
      <path id="DejaVuSans-58" d="M 544 1381 
L 544 3500 
L 1119 3500 
L 1119 1403 
Q 1119 906 1312 657 
Q 1506 409 1894 409 
Q 2359 409 2629 706 
Q 2900 1003 2900 1516 
L 2900 3500 
L 3475 3500 
L 3475 0 
L 2900 0 
L 2900 538 
Q 2691 219 2414 64 
Q 2138 -91 1772 -91 
Q 1169 -91 856 284 
Q 544 659 544 1381 
z
M 1991 3584 
L 1991 3584 
z
" transform="scale(0.015625)"/>
      <path id="DejaVuSans-48" d="M 3597 1894 
L 3597 1613 
L 953 1613 
Q 991 1019 1311 708 
Q 1631 397 2203 397 
Q 2534 397 2845 478 
Q 3156 559 3463 722 
L 3463 178 
Q 3153 47 2828 -22 
Q 2503 -91 2169 -91 
Q 1331 -91 842 396 
Q 353 884 353 1716 
Q 353 2575 817 3079 
Q 1281 3584 2069 3584 
Q 2775 3584 3186 3129 
Q 3597 2675 3597 1894 
z
M 3022 2063 
Q 3016 2534 2758 2815 
Q 2500 3097 2075 3097 
Q 1594 3097 1305 2825 
Q 1016 2553 972 2059 
L 3022 2063 
z
" transform="scale(0.015625)"/>
      <path id="DejaVuSans-1d" d="M 750 794 
L 1409 794 
L 1409 0 
L 750 0 
L 750 794 
z
M 750 3309 
L 1409 3309 
L 1409 2516 
L 750 2516 
L 750 3309 
z
" transform="scale(0.015625)"/>
      <path id="DejaVuSans-4f" d="M 603 4863 
L 1178 4863 
L 1178 0 
L 603 0 
L 603 4863 
z
" transform="scale(0.015625)"/>
      <path id="DejaVuSans-51" d="M 3513 2113 
L 3513 0 
L 2938 0 
L 2938 2094 
Q 2938 2591 2744 2837 
Q 2550 3084 2163 3084 
Q 1697 3084 1428 2787 
Q 1159 2491 1159 1978 
L 1159 0 
L 581 0 
L 581 3500 
L 1159 3500 
L 1159 2956 
Q 1366 3272 1645 3428 
Q 1925 3584 2291 3584 
Q 2894 3584 3203 3211 
Q 3513 2838 3513 2113 
z
" transform="scale(0.015625)"/>
      <path id="DejaVuSans-56" d="M 2834 3397 
L 2834 2853 
Q 2591 2978 2328 3040 
Q 2066 3103 1784 3103 
Q 1356 3103 1142 2972 
Q 928 2841 928 2578 
Q 928 2378 1081 2264 
Q 1234 2150 1697 2047 
L 1894 2003 
Q 2506 1872 2764 1633 
Q 3022 1394 3022 966 
Q 3022 478 2636 193 
Q 2250 -91 1575 -91 
Q 1294 -91 989 -36 
Q 684 19 347 128 
L 347 722 
Q 666 556 975 473 
Q 1284 391 1588 391 
Q 1994 391 2212 530 
Q 2431 669 2431 922 
Q 2431 1156 2273 1281 
Q 2116 1406 1581 1522 
L 1381 1569 
Q 847 1681 609 1914 
Q 372 2147 372 2553 
Q 372 3047 722 3315 
Q 1072 3584 1716 3584 
Q 2034 3584 2315 3537 
Q 2597 3491 2834 3397 
z
" transform="scale(0.015625)"/>
      <path id="DejaVuSans-50" d="M 3328 2828 
Q 3544 3216 3844 3400 
Q 4144 3584 4550 3584 
Q 5097 3584 5394 3201 
Q 5691 2819 5691 2113 
L 5691 0 
L 5113 0 
L 5113 2094 
Q 5113 2597 4934 2840 
Q 4756 3084 4391 3084 
Q 3944 3084 3684 2787 
Q 3425 2491 3425 1978 
L 3425 0 
L 2847 0 
L 2847 2094 
Q 2847 2600 2669 2842 
Q 2491 3084 2119 3084 
Q 1678 3084 1418 2786 
Q 1159 2488 1159 1978 
L 1159 0 
L 581 0 
L 581 3500 
L 1159 3500 
L 1159 2956 
Q 1356 3278 1631 3431 
Q 1906 3584 2284 3584 
Q 2666 3584 2933 3390 
Q 3200 3197 3328 2828 
z
" transform="scale(0.015625)"/>
      <path id="DejaVuSans-44" d="M 2194 1759 
Q 1497 1759 1228 1600 
Q 959 1441 959 1056 
Q 959 750 1161 570 
Q 1363 391 1709 391 
Q 2188 391 2477 730 
Q 2766 1069 2766 1631 
L 2766 1759 
L 2194 1759 
z
M 3341 1997 
L 3341 0 
L 2766 0 
L 2766 531 
Q 2569 213 2275 61 
Q 1981 -91 1556 -91 
Q 1019 -91 701 211 
Q 384 513 384 1019 
Q 384 1609 779 1909 
Q 1175 2209 1959 2209 
L 2766 2209 
L 2766 2266 
Q 2766 2663 2505 2880 
Q 2244 3097 1772 3097 
Q 1472 3097 1187 3025 
Q 903 2953 641 2809 
L 641 3341 
Q 956 3463 1253 3523 
Q 1550 3584 1831 3584 
Q 2591 3584 2966 3190 
Q 3341 2797 3341 1997 
z
" transform="scale(0.015625)"/>
      <path id="DejaVuSans-4b" d="M 3513 2113 
L 3513 0 
L 2938 0 
L 2938 2094 
Q 2938 2591 2744 2837 
Q 2550 3084 2163 3084 
Q 1697 3084 1428 2787 
Q 1159 2491 1159 1978 
L 1159 0 
L 581 0 
L 581 4863 
L 1159 4863 
L 1159 2956 
Q 1366 3272 1645 3428 
Q 1925 3584 2291 3584 
Q 2894 3584 3203 3211 
Q 3513 2838 3513 2113 
z
" transform="scale(0.015625)"/>
     </defs>
     <use xlink:href="#DejaVuSans-55"/>
     <use xlink:href="#DejaVuSans-52" transform="translate(38.90625 0)"/>
     <use xlink:href="#DejaVuSans-5a" transform="translate(100.09375 0)"/>
     <use xlink:href="#DejaVuSans-3" transform="translate(181.875 0)"/>
     <use xlink:href="#DejaVuSans-53" transform="translate(213.65625 0)"/>
     <use xlink:href="#DejaVuSans-4c" transform="translate(277.140625 0)"/>
     <use xlink:href="#DejaVuSans-46" transform="translate(304.921875 0)"/>
     <use xlink:href="#DejaVuSans-57" transform="translate(359.90625 0)"/>
     <use xlink:href="#DejaVuSans-58" transform="translate(399.109375 0)"/>
     <use xlink:href="#DejaVuSans-55" transform="translate(462.484375 0)"/>
     <use xlink:href="#DejaVuSans-48" transform="translate(501.390625 0)"/>
     <use xlink:href="#DejaVuSans-1d" transform="translate(562.921875 0)"/>
     <use xlink:href="#DejaVuSans-3" transform="translate(596.609375 0)"/>
     <use xlink:href="#DejaVuSans-4f" transform="translate(628.390625 0)"/>
     <use xlink:href="#DejaVuSans-4c" transform="translate(656.171875 0)"/>
     <use xlink:href="#DejaVuSans-51" transform="translate(683.953125 0)"/>
     <use xlink:href="#DejaVuSans-48" transform="translate(747.328125 0)"/>
     <use xlink:href="#DejaVuSans-56" transform="translate(808.859375 0)"/>
     <use xlink:href="#DejaVuSans-3" transform="translate(860.953125 0)"/>
     <use xlink:href="#DejaVuSans-50" transform="translate(892.734375 0)"/>
     <use xlink:href="#DejaVuSans-48" transform="translate(990.140625 0)"/>
     <use xlink:href="#DejaVuSans-48" transform="translate(1051.671875 0)"/>
     <use xlink:href="#DejaVuSans-57" transform="translate(1113.203125 0)"/>
     <use xlink:href="#DejaVuSans-3" transform="translate(1152.40625 0)"/>
     <use xlink:href="#DejaVuSans-44" transform="translate(1184.1875 0)"/>
     <use xlink:href="#DejaVuSans-57" transform="translate(1245.46875 0)"/>
     <use xlink:href="#DejaVuSans-3" transform="translate(1284.671875 0)"/>
     <use xlink:href="#DejaVuSans-57" transform="translate(1316.453125 0)"/>
     <use xlink:href="#DejaVuSans-4b" transform="translate(1355.65625 0)"/>
     <use xlink:href="#DejaVuSans-48" transform="translate(1419.03125 0)"/>
     <use xlink:href="#DejaVuSans-3" transform="translate(1480.5625 0)"/>
     <use xlink:href="#DejaVuSans-56" transform="translate(1512.34375 0)"/>
     <use xlink:href="#DejaVuSans-52" transform="translate(1564.4375 0)"/>
     <use xlink:href="#DejaVuSans-4f" transform="translate(1625.625 0)"/>
     <use xlink:href="#DejaVuSans-58" transform="translate(1653.40625 0)"/>
     <use xlink:href="#DejaVuSans-57" transform="translate(1716.78125 0)"/>
     <use xlink:href="#DejaVuSans-4c" transform="translate(1755.984375 0)"/>
     <use xlink:href="#DejaVuSans-52" transform="translate(1783.765625 0)"/>
     <use xlink:href="#DejaVuSans-51" transform="translate(1844.953125 0)"/>
    </g>
   </g>
   <g id="legend_1">
    <g id="patch_7">
     <path d="M 189.238021 51.199687 
L 291.575521 51.199687 
Q 293.175521 51.199687 293.175521 49.599687 
L 293.175521 26.398437 
Q 293.175521 24.798437 291.575521 24.798437 
L 189.238021 24.798437 
Q 187.638021 24.798437 187.638021 26.398437 
L 187.638021 49.599687 
Q 187.638021 51.199687 189.238021 51.199687 
z
" style="fill: #ffffff; opacity: 0.8; stroke: #cccccc; stroke-linejoin: miter"/>
    </g>
    <g id="line2d_18">
     <path d="M 190.838021 31.277187 
L 198.838021 31.277187 
L 206.838021 31.277187 
" style="fill: none; stroke: #2471a3; stroke-width: 2; stroke-linecap: square"/>
    </g>
    <g id="text_15">
     <!-- 2x + y = 3  (row 1) -->
     <g transform="translate(213.238021 34.077187) scale(0.08 -0.08)">
      <defs>
       <path id="DejaVuSans-5b" d="M 3513 3500 
L 2247 1797 
L 3578 0 
L 2900 0 
L 1881 1375 
L 863 0 
L 184 0 
L 1544 1831 
L 300 3500 
L 978 3500 
L 1906 2253 
L 2834 3500 
L 3513 3500 
z
" transform="scale(0.015625)"/>
       <path id="DejaVuSans-e" d="M 2944 4013 
L 2944 2272 
L 4684 2272 
L 4684 1741 
L 2944 1741 
L 2944 0 
L 2419 0 
L 2419 1741 
L 678 1741 
L 678 2272 
L 2419 2272 
L 2419 4013 
L 2944 4013 
z
" transform="scale(0.015625)"/>
       <path id="DejaVuSans-5c" d="M 2059 -325 
Q 1816 -950 1584 -1140 
Q 1353 -1331 966 -1331 
L 506 -1331 
L 506 -850 
L 844 -850 
Q 1081 -850 1212 -737 
Q 1344 -625 1503 -206 
L 1606 56 
L 191 3500 
L 800 3500 
L 1894 763 
L 2988 3500 
L 3597 3500 
L 2059 -325 
z
" transform="scale(0.015625)"/>
       <path id="DejaVuSans-20" d="M 678 2906 
L 4684 2906 
L 4684 2381 
L 678 2381 
L 678 2906 
z
M 678 1631 
L 4684 1631 
L 4684 1100 
L 678 1100 
L 678 1631 
z
" transform="scale(0.015625)"/>
      </defs>
      <use xlink:href="#DejaVuSans-15"/>
      <use xlink:href="#DejaVuSans-5b" transform="translate(63.625 0)"/>
      <use xlink:href="#DejaVuSans-3" transform="translate(122.8125 0)"/>
      <use xlink:href="#DejaVuSans-e" transform="translate(154.59375 0)"/>
      <use xlink:href="#DejaVuSans-3" transform="translate(238.390625 0)"/>
      <use xlink:href="#DejaVuSans-5c" transform="translate(270.171875 0)"/>
      <use xlink:href="#DejaVuSans-3" transform="translate(329.359375 0)"/>
      <use xlink:href="#DejaVuSans-20" transform="translate(361.140625 0)"/>
      <use xlink:href="#DejaVuSans-3" transform="translate(444.9375 0)"/>
      <use xlink:href="#DejaVuSans-16" transform="translate(476.71875 0)"/>
      <use xlink:href="#DejaVuSans-3" transform="translate(540.34375 0)"/>
      <use xlink:href="#DejaVuSans-3" transform="translate(572.125 0)"/>
      <use xlink:href="#DejaVuSans-b" transform="translate(603.90625 0)"/>
      <use xlink:href="#DejaVuSans-55" transform="translate(642.921875 0)"/>
      <use xlink:href="#DejaVuSans-52" transform="translate(681.828125 0)"/>
      <use xlink:href="#DejaVuSans-5a" transform="translate(743.015625 0)"/>
      <use xlink:href="#DejaVuSans-3" transform="translate(824.796875 0)"/>
      <use xlink:href="#DejaVuSans-14" transform="translate(856.578125 0)"/>
      <use xlink:href="#DejaVuSans-c" transform="translate(920.203125 0)"/>
     </g>
    </g>
    <g id="line2d_19">
     <path d="M 190.838021 43.277812 
L 198.838021 43.277812 
L 206.838021 43.277812 
" style="fill: none; stroke: #e07b39; stroke-width: 2; stroke-linecap: square"/>
    </g>
    <g id="text_16">
     <!-- x + 2y = 0  (row 2) -->
     <g transform="translate(213.238021 46.077812) scale(0.08 -0.08)">
      <use xlink:href="#DejaVuSans-5b"/>
      <use xlink:href="#DejaVuSans-3" transform="translate(59.1875 0)"/>
      <use xlink:href="#DejaVuSans-e" transform="translate(90.96875 0)"/>
      <use xlink:href="#DejaVuSans-3" transform="translate(174.765625 0)"/>
      <use xlink:href="#DejaVuSans-15" transform="translate(206.546875 0)"/>
      <use xlink:href="#DejaVuSans-5c" transform="translate(270.171875 0)"/>
      <use xlink:href="#DejaVuSans-3" transform="translate(329.359375 0)"/>
      <use xlink:href="#DejaVuSans-20" transform="translate(361.140625 0)"/>
      <use xlink:href="#DejaVuSans-3" transform="translate(444.9375 0)"/>
      <use xlink:href="#DejaVuSans-13" transform="translate(476.71875 0)"/>
      <use xlink:href="#DejaVuSans-3" transform="translate(540.34375 0)"/>
      <use xlink:href="#DejaVuSans-3" transform="translate(572.125 0)"/>
      <use xlink:href="#DejaVuSans-b" transform="translate(603.90625 0)"/>
      <use xlink:href="#DejaVuSans-55" transform="translate(642.921875 0)"/>
      <use xlink:href="#DejaVuSans-52" transform="translate(681.828125 0)"/>
      <use xlink:href="#DejaVuSans-5a" transform="translate(743.015625 0)"/>
      <use xlink:href="#DejaVuSans-3" transform="translate(824.796875 0)"/>
      <use xlink:href="#DejaVuSans-15" transform="translate(856.578125 0)"/>
      <use xlink:href="#DejaVuSans-c" transform="translate(920.203125 0)"/>
     </g>
    </g>
   </g>
  </g>
  <g id="axes_2">
   <g id="patch_8">
    <path d="M 360.919309 327.354725 
L 710.3984 327.354725 
L 710.3984 36.12215 
L 360.919309 36.12215 
z
" style="fill: #ffffff"/>
   </g>
   <g id="matplotlib.axis_3">
    <g id="xtick_7">
     <g id="line2d_20">
      <g>
       <use xlink:href="#me406b6a824" x="360.919309" y="327.354725" style="stroke: #000000; stroke-width: 0.8"/>
      </g>
     </g>
     <g id="text_17">
      <!-- −1 -->
      <g transform="translate(353.548215 341.952382) scale(0.1 -0.1)">
       <use xlink:href="#DejaVuSans-c9c"/>
       <use xlink:href="#DejaVuSans-14" transform="translate(83.796875 0)"/>
      </g>
     </g>
    </g>
    <g id="xtick_8">
     <g id="line2d_21">
      <g>
       <use xlink:href="#me406b6a824" x="419.165824" y="327.354725" style="stroke: #000000; stroke-width: 0.8"/>
      </g>
     </g>
     <g id="text_18">
      <!-- 0 -->
      <g transform="translate(415.984574 341.952382) scale(0.1 -0.1)">
       <use xlink:href="#DejaVuSans-13"/>
      </g>
     </g>
    </g>
    <g id="xtick_9">
     <g id="line2d_22">
      <g>
       <use xlink:href="#me406b6a824" x="477.412339" y="327.354725" style="stroke: #000000; stroke-width: 0.8"/>
      </g>
     </g>
     <g id="text_19">
      <!-- 1 -->
      <g transform="translate(474.231089 341.952382) scale(0.1 -0.1)">
       <use xlink:href="#DejaVuSans-14"/>
      </g>
     </g>
    </g>
    <g id="xtick_10">
     <g id="line2d_23">
      <g>
       <use xlink:href="#me406b6a824" x="535.658854" y="327.354725" style="stroke: #000000; stroke-width: 0.8"/>
      </g>
     </g>
     <g id="text_20">
      <!-- 2 -->
      <g transform="translate(532.477604 341.952382) scale(0.1 -0.1)">
       <use xlink:href="#DejaVuSans-15"/>
      </g>
     </g>
    </g>
    <g id="xtick_11">
     <g id="line2d_24">
      <g>
       <use xlink:href="#me406b6a824" x="593.905369" y="327.354725" style="stroke: #000000; stroke-width: 0.8"/>
      </g>
     </g>
     <g id="text_21">
      <!-- 3 -->
      <g transform="translate(590.724119 341.952382) scale(0.1 -0.1)">
       <use xlink:href="#DejaVuSans-16"/>
      </g>
     </g>
    </g>
    <g id="xtick_12">
     <g id="line2d_25">
      <g>
       <use xlink:href="#me406b6a824" x="652.151884" y="327.354725" style="stroke: #000000; stroke-width: 0.8"/>
      </g>
     </g>
     <g id="text_22">
      <!-- 4 -->
      <g transform="translate(648.970634 341.952382) scale(0.1 -0.1)">
       <use xlink:href="#DejaVuSans-17"/>
      </g>
     </g>
    </g>
    <g id="xtick_13">
     <g id="line2d_26">
      <g>
       <use xlink:href="#me406b6a824" x="710.3984" y="327.354725" style="stroke: #000000; stroke-width: 0.8"/>
      </g>
     </g>
     <g id="text_23">
      <!-- 5 -->
      <g transform="translate(707.21715 341.952382) scale(0.1 -0.1)">
       <defs>
        <path id="DejaVuSans-18" d="M 691 4666 
L 3169 4666 
L 3169 4134 
L 1269 4134 
L 1269 2991 
Q 1406 3038 1543 3061 
Q 1681 3084 1819 3084 
Q 2600 3084 3056 2656 
Q 3513 2228 3513 1497 
Q 3513 744 3044 326 
Q 2575 -91 1722 -91 
Q 1428 -91 1123 -41 
Q 819 9 494 109 
L 494 744 
Q 775 591 1075 516 
Q 1375 441 1709 441 
Q 2250 441 2565 725 
Q 2881 1009 2881 1497 
Q 2881 1984 2565 2268 
Q 2250 2553 1709 2553 
Q 1456 2553 1204 2497 
Q 953 2441 691 2322 
L 691 4666 
z
" transform="scale(0.015625)"/>
       </defs>
       <use xlink:href="#DejaVuSans-18"/>
      </g>
     </g>
    </g>
   </g>
   <g id="matplotlib.axis_4">
    <g id="ytick_7">
     <g id="line2d_27">
      <g>
       <use xlink:href="#m981eeb971d" x="360.919309" y="298.231468" style="stroke: #000000; stroke-width: 0.8"/>
      </g>
     </g>
     <g id="text_24">
      <!-- −1 -->
      <g transform="translate(339.177121 302.030296) scale(0.1 -0.1)">
       <use xlink:href="#DejaVuSans-c9c"/>
       <use xlink:href="#DejaVuSans-14" transform="translate(83.796875 0)"/>
      </g>
     </g>
    </g>
    <g id="ytick_8">
     <g id="line2d_28">
      <g>
       <use xlink:href="#m981eeb971d" x="360.919309" y="239.984953" style="stroke: #000000; stroke-width: 0.8"/>
      </g>
     </g>
     <g id="text_25">
      <!-- 0 -->
      <g transform="translate(347.556809 243.783781) scale(0.1 -0.1)">
       <use xlink:href="#DejaVuSans-13"/>
      </g>
     </g>
    </g>
    <g id="ytick_9">
     <g id="line2d_29">
      <g>
       <use xlink:href="#m981eeb971d" x="360.919309" y="181.738437" style="stroke: #000000; stroke-width: 0.8"/>
      </g>
     </g>
     <g id="text_26">
      <!-- 1 -->
      <g transform="translate(347.556809 185.537266) scale(0.1 -0.1)">
       <use xlink:href="#DejaVuSans-14"/>
      </g>
     </g>
    </g>
    <g id="ytick_10">
     <g id="line2d_30">
      <g>
       <use xlink:href="#m981eeb971d" x="360.919309" y="123.491922" style="stroke: #000000; stroke-width: 0.8"/>
      </g>
     </g>
     <g id="text_27">
      <!-- 2 -->
      <g transform="translate(347.556809 127.29075) scale(0.1 -0.1)">
       <use xlink:href="#DejaVuSans-15"/>
      </g>
     </g>
    </g>
    <g id="ytick_11">
     <g id="line2d_31">
      <g>
       <use xlink:href="#m981eeb971d" x="360.919309" y="65.245407" style="stroke: #000000; stroke-width: 0.8"/>
      </g>
     </g>
     <g id="text_28">
      <!-- 3 -->
      <g transform="translate(347.556809 69.044235) scale(0.1 -0.1)">
       <use xlink:href="#DejaVuSans-16"/>
      </g>
     </g>
    </g>
   </g>
   <g id="line2d_32">
    <path d="M 360.919309 239.984953 
L 710.3984 239.984953 
" clip-path="url(#p91e8a5ec2a)" style="fill: none; stroke: #999999; stroke-width: 0.6; stroke-linecap: square"/>
   </g>
   <g id="line2d_33">
    <path d="M 419.165824 327.354725 
L 419.165824 36.12215 
" clip-path="url(#p91e8a5ec2a)" style="fill: none; stroke: #999999; stroke-width: 0.6; stroke-linecap: square"/>
   </g>
   <g id="patch_9">
    <path d="M 360.919309 327.354725 
L 360.919309 36.12215 
" style="fill: none; stroke: #000000; stroke-width: 0.8; stroke-linejoin: miter; stroke-linecap: square"/>
   </g>
   <g id="patch_10">
    <path d="M 710.3984 327.354725 
L 710.3984 36.12215 
" style="fill: none; stroke: #000000; stroke-width: 0.8; stroke-linejoin: miter; stroke-linecap: square"/>
   </g>
   <g id="patch_11">
    <path d="M 360.919309 327.354725 
L 710.3984 327.354725 
" style="fill: none; stroke: #000000; stroke-width: 0.8; stroke-linejoin: miter; stroke-linecap: square"/>
   </g>
   <g id="patch_12">
    <path d="M 360.919309 36.12215 
L 710.3984 36.12215 
" style="fill: none; stroke: #000000; stroke-width: 0.8; stroke-linejoin: miter; stroke-linecap: square"/>
   </g>
   <g id="patch_13">
    <path d="M 418.71861 239.090525 
Q 529.84524 183.527211 640.971869 127.963896 
L 639.406621 124.833401 
Q 645.779253 124.162662 652.151884 123.491922 
Q 647.791714 128.187584 643.431544 132.883246 
L 641.866296 129.752751 
Q 530.739667 185.316065 419.613037 240.87938 
L 418.71861 239.090525 
z
" style="fill: #2471a3; stroke: #2471a3; stroke-linecap: round"/>
   </g>
   <g id="patch_14">
    <path d="M 653.046312 123.939136 
Q 626.606255 176.81925 600.166198 229.699364 
L 603.296693 231.264612 
Q 598.601031 235.624782 593.905369 239.984953 
Q 594.576109 233.612321 595.246848 227.239689 
L 598.377343 228.804937 
Q 624.8174 175.924823 651.257457 123.044709 
L 653.046312 123.939136 
z
" style="fill: #e07b39; stroke: #e07b39; stroke-linecap: round"/>
   </g>
   <g id="patch_15">
    <path d="M 419.165824 238.784953 
Q 500.535057 238.784953 581.904291 238.784953 
L 581.904291 234.484953 
Q 587.90483 237.234953 593.905369 239.984953 
Q 587.90483 242.734953 581.904291 245.484953 
L 581.904291 241.184953 
Q 500.535057 241.184953 419.165824 241.184953 
L 419.165824 238.784953 
z
" style="fill: #c0392b; stroke: #c0392b; stroke-linecap: round"/>
   </g>
   <g id="text_29">
    <!-- 2*(2,1) -->
    <g style="fill: #2471a3" transform="translate(535.658854 111.842619) scale(0.09 -0.09)">
     <defs>
      <path id="DejaVuSans-d" d="M 3009 3897 
L 1888 3291 
L 3009 2681 
L 2828 2375 
L 1778 3009 
L 1778 1831 
L 1422 1831 
L 1422 3009 
L 372 2375 
L 191 2681 
L 1313 3291 
L 191 3897 
L 372 4206 
L 1422 3572 
L 1422 4750 
L 1778 4750 
L 1778 3572 
L 2828 4206 
L 3009 3897 
z
" transform="scale(0.015625)"/>
     </defs>
     <use xlink:href="#DejaVuSans-15"/>
     <use xlink:href="#DejaVuSans-d" transform="translate(63.625 0)"/>
     <use xlink:href="#DejaVuSans-b" transform="translate(113.625 0)"/>
     <use xlink:href="#DejaVuSans-15" transform="translate(152.640625 0)"/>
     <use xlink:href="#DejaVuSans-f" transform="translate(216.265625 0)"/>
     <use xlink:href="#DejaVuSans-14" transform="translate(248.046875 0)"/>
     <use xlink:href="#DejaVuSans-c" transform="translate(311.671875 0)"/>
    </g>
   </g>
   <g id="text_30">
    <!-- -1*(1,2) -->
    <g style="fill: #e07b39" transform="translate(605.554672 175.913786) scale(0.09 -0.09)">
     <use xlink:href="#DejaVuSans-10"/>
     <use xlink:href="#DejaVuSans-14" transform="translate(36.078125 0)"/>
     <use xlink:href="#DejaVuSans-d" transform="translate(99.703125 0)"/>
     <use xlink:href="#DejaVuSans-b" transform="translate(149.703125 0)"/>
     <use xlink:href="#DejaVuSans-14" transform="translate(188.71875 0)"/>
     <use xlink:href="#DejaVuSans-f" transform="translate(252.34375 0)"/>
     <use xlink:href="#DejaVuSans-15" transform="translate(284.125 0)"/>
     <use xlink:href="#DejaVuSans-c" transform="translate(347.75 0)"/>
    </g>
   </g>
   <g id="text_31">
    <!-- b = (3,0) -->
    <g style="fill: #c0392b" transform="translate(500.710945 266.195884) scale(0.1 -0.1)">
     <defs>
      <path id="DejaVuSans-45" d="M 3116 1747 
Q 3116 2381 2855 2742 
Q 2594 3103 2138 3103 
Q 1681 3103 1420 2742 
Q 1159 2381 1159 1747 
Q 1159 1113 1420 752 
Q 1681 391 2138 391 
Q 2594 391 2855 752 
Q 3116 1113 3116 1747 
z
M 1159 2969 
Q 1341 3281 1617 3432 
Q 1894 3584 2278 3584 
Q 2916 3584 3314 3078 
Q 3713 2572 3713 1747 
Q 3713 922 3314 415 
Q 2916 -91 2278 -91 
Q 1894 -91 1617 61 
Q 1341 213 1159 525 
L 1159 0 
L 581 0 
L 581 4863 
L 1159 4863 
L 1159 2969 
z
" transform="scale(0.015625)"/>
     </defs>
     <use xlink:href="#DejaVuSans-45"/>
     <use xlink:href="#DejaVuSans-3" transform="translate(63.484375 0)"/>
     <use xlink:href="#DejaVuSans-20" transform="translate(95.265625 0)"/>
     <use xlink:href="#DejaVuSans-3" transform="translate(179.0625 0)"/>
     <use xlink:href="#DejaVuSans-b" transform="translate(210.84375 0)"/>
     <use xlink:href="#DejaVuSans-16" transform="translate(249.859375 0)"/>
     <use xlink:href="#DejaVuSans-f" transform="translate(313.484375 0)"/>
     <use xlink:href="#DejaVuSans-13" transform="translate(345.265625 0)"/>
     <use xlink:href="#DejaVuSans-c" transform="translate(408.890625 0)"/>
    </g>
   </g>
   <g id="text_32">
    <!-- column picture: 2*c1 + (-1)*c2 = b -->
    <g transform="translate(448.088542 30.12215) scale(0.1 -0.1)">
     <use xlink:href="#DejaVuSans-46"/>
     <use xlink:href="#DejaVuSans-52" transform="translate(54.984375 0)"/>
     <use xlink:href="#DejaVuSans-4f" transform="translate(116.171875 0)"/>
     <use xlink:href="#DejaVuSans-58" transform="translate(143.953125 0)"/>
     <use xlink:href="#DejaVuSans-50" transform="translate(207.328125 0)"/>
     <use xlink:href="#DejaVuSans-51" transform="translate(304.734375 0)"/>
     <use xlink:href="#DejaVuSans-3" transform="translate(368.109375 0)"/>
     <use xlink:href="#DejaVuSans-53" transform="translate(399.890625 0)"/>
     <use xlink:href="#DejaVuSans-4c" transform="translate(463.375 0)"/>
     <use xlink:href="#DejaVuSans-46" transform="translate(491.15625 0)"/>
     <use xlink:href="#DejaVuSans-57" transform="translate(546.140625 0)"/>
     <use xlink:href="#DejaVuSans-58" transform="translate(585.34375 0)"/>
     <use xlink:href="#DejaVuSans-55" transform="translate(648.71875 0)"/>
     <use xlink:href="#DejaVuSans-48" transform="translate(687.625 0)"/>
     <use xlink:href="#DejaVuSans-1d" transform="translate(749.15625 0)"/>
     <use xlink:href="#DejaVuSans-3" transform="translate(782.84375 0)"/>
     <use xlink:href="#DejaVuSans-15" transform="translate(814.625 0)"/>
     <use xlink:href="#DejaVuSans-d" transform="translate(878.25 0)"/>
     <use xlink:href="#DejaVuSans-46" transform="translate(928.25 0)"/>
     <use xlink:href="#DejaVuSans-14" transform="translate(983.234375 0)"/>
     <use xlink:href="#DejaVuSans-3" transform="translate(1046.859375 0)"/>
     <use xlink:href="#DejaVuSans-e" transform="translate(1078.640625 0)"/>
     <use xlink:href="#DejaVuSans-3" transform="translate(1162.4375 0)"/>
     <use xlink:href="#DejaVuSans-b" transform="translate(1194.21875 0)"/>
     <use xlink:href="#DejaVuSans-10" transform="translate(1233.234375 0)"/>
     <use xlink:href="#DejaVuSans-14" transform="translate(1269.3125 0)"/>
     <use xlink:href="#DejaVuSans-c" transform="translate(1332.9375 0)"/>
     <use xlink:href="#DejaVuSans-d" transform="translate(1371.953125 0)"/>
     <use xlink:href="#DejaVuSans-46" transform="translate(1421.953125 0)"/>
     <use xlink:href="#DejaVuSans-15" transform="translate(1476.9375 0)"/>
     <use xlink:href="#DejaVuSans-3" transform="translate(1540.5625 0)"/>
     <use xlink:href="#DejaVuSans-20" transform="translate(1572.34375 0)"/>
     <use xlink:href="#DejaVuSans-3" transform="translate(1656.140625 0)"/>
     <use xlink:href="#DejaVuSans-45" transform="translate(1687.921875 0)"/>
    </g>
   </g>
  </g>
 </g>
 <defs>
  <clipPath id="p6a972678a8">
   <rect x="28.942187" y="20.798437" width="268.233333" height="321.88"/>
  </clipPath>
  <clipPath id="p91e8a5ec2a">
   <rect x="360.919309" y="36.12215" width="349.479091" height="291.232576"/>
  </clipPath>
 </defs>
</svg>
