<?xml version="1.0" encoding="utf-8" standalone="no"?>
<!DOCTYPE svg PUBLIC "-//W3C//DTD SVG 1.1//EN"
  "http://www.w3.org/Graphics/SVG/1.1/DTD/svg11.dtd">
<svg xmlns:xlink="http://www.w3.org/1999/xlink" width="705.261818pt" height="364.260256pt" viewBox="0 0 705.261818 364.260256" xmlns="http://www.w3.org/2000/svg" version="1.1">
 <metadata>
  <rdf:RDF xmlns:dc="http://purl.org/dc/elements/1.1/" xmlns:cc="http://creativecommons.org/ns#" xmlns:rdf="http://www.w3.org/1999/02/22-rdf-syntax-ns#">
   <cc:Work>
    <dc:type rdf:resource="http://purl.org/dc/dcmitype/StillImage"/>
    <dc:date>2026-06-13T19:07:48.019163</dc:date>
    <dc:format>image/svg+xml</dc:format>
    <dc:creator>
     <cc:Agent>
      <dc:title>Matplotlib v3.11.0, https://matplotlib.org/</dc:title>
     </cc:Agent>
    </dc:creator>
   </cc:Work>
  </rdf:RDF>
 </metadata>
 <defs>
  <style type="text/css">*{stroke-linejoin: round; stroke-linecap: butt}</style>
 </defs>
 <g id="figure_1">
  <g id="patch_1">
   <path d="M 0 364.260256 
L 705.261818 364.260256 
L 705.261818 0 
L 0 0 
z
" style="fill: #ffffff"/>
  </g>
  <g id="axes_1">
   <g id="patch_2">
    <path d="M 7.2 357.060256 
L 343.461818 357.060256 
L 343.461818 20.798437 
L 7.2 20.798437 
z
" style="fill: #ffffff"/>
   </g>
   <g id="patch_3">
    <path d="M 151.312208 212.948048 
L 247.387013 164.910645 
L 295.424416 68.83584 
L 199.34961 116.873243 
z
" clip-path="url(#p8a54fdb220)" style="fill: #e07b39; fill-opacity: 0.2; stroke: #e07b39; stroke-width: 1.8; stroke-linejoin: miter"/>
   </g>
   <g id="matplotlib.axis_1"/>
   <g id="matplotlib.axis_2"/>
   <g id="line2d_1">
    <path d="M -1 85.23584 
L 42.11792 -1 
" clip-path="url(#p8a54fdb220)" style="fill: none; stroke: #d9d9d9; stroke-width: 0.7; stroke-linecap: square"/>
   </g>
   <g id="line2d_2">
    <path d="M 279.024416 365.260256 
L 391.499221 309.022853 
" clip-path="url(#p8a54fdb220)" style="fill: none; stroke: #d9d9d9; stroke-width: 0.7; stroke-linecap: square"/>
   </g>
   <g id="line2d_3">
    <path d="M -1 229.348048 
L 114.174024 -1 
" clip-path="url(#p8a54fdb220)" style="fill: none; stroke: #d9d9d9; stroke-width: 0.7; stroke-linecap: square"/>
   </g>
   <g id="line2d_4">
    <path d="M 134.912208 365.260256 
L 439.536623 212.948048 
" clip-path="url(#p8a54fdb220)" style="fill: none; stroke: #d9d9d9; stroke-width: 0.7; stroke-linecap: square"/>
   </g>
   <g id="line2d_5">
    <path d="M 3.1 365.260256 
L 186.230128 -1 
" clip-path="url(#p8a54fdb220)" style="fill: none; stroke: #d9d9d9; stroke-width: 0.7; stroke-linecap: square"/>
   </g>
   <g id="line2d_6">
    <path d="M -1 361.160256 
L 487.574026 116.873243 
" clip-path="url(#p8a54fdb220)" style="fill: none; stroke: #d9d9d9; stroke-width: 0.7; stroke-linecap: square"/>
   </g>
   <g id="line2d_7">
    <path d="M 75.156104 365.260256 
L 258.286232 -1 
" clip-path="url(#p8a54fdb220)" style="fill: none; stroke: #d9d9d9; stroke-width: 0.7; stroke-linecap: square"/>
   </g>
   <g id="line2d_8">
    <path d="M -1 289.104152 
L 535.611429 20.798438 
" clip-path="url(#p8a54fdb220)" style="fill: none; stroke: #d9d9d9; stroke-width: 0.7; stroke-linecap: square"/>
   </g>
   <g id="line2d_9">
    <path d="M 147.212208 365.260256 
L 330.342336 -1 
" clip-path="url(#p8a54fdb220)" style="fill: none; stroke: #d9d9d9; stroke-width: 0.7; stroke-linecap: square"/>
   </g>
   <g id="line2d_10">
    <path d="M -1 217.048048 
L 435.096096 -1 
" clip-path="url(#p8a54fdb220)" style="fill: none; stroke: #d9d9d9; stroke-width: 0.7; stroke-linecap: square"/>
   </g>
   <g id="line2d_11">
    <path d="M 219.268312 365.260256 
L 402.39844 -1 
" clip-path="url(#p8a54fdb220)" style="fill: none; stroke: #d9d9d9; stroke-width: 0.7; stroke-linecap: square"/>
   </g>
   <g id="line2d_12">
    <path d="M -1 144.991944 
L 290.983888 -1 
" clip-path="url(#p8a54fdb220)" style="fill: none; stroke: #d9d9d9; stroke-width: 0.7; stroke-linecap: square"/>
   </g>
   <g id="line2d_13">
    <path d="M 295.424416 357.060256 
L 474.454543 -1 
" clip-path="url(#p8a54fdb220)" style="fill: none; stroke: #d9d9d9; stroke-width: 0.7; stroke-linecap: square"/>
   </g>
   <g id="line2d_14">
    <path d="M 7.2 68.83584 
L 146.87168 -1 
" clip-path="url(#p8a54fdb220)" style="fill: none; stroke: #d9d9d9; stroke-width: 0.7; stroke-linecap: square"/>
   </g>
   <g id="line2d_15">
    <path d="M 391.499221 309.022853 
L 546.510647 -1 
" clip-path="url(#p8a54fdb220)" style="fill: none; stroke: #d9d9d9; stroke-width: 0.7; stroke-linecap: square"/>
   </g>
   <g id="line2d_16">
    <path clip-path="url(#p8a54fdb220)" style="fill: none; stroke: #d9d9d9; stroke-width: 0.7; stroke-linecap: square"/>
   </g>
   <g id="line2d_17">
    <path d="M 7.2 212.948048 
L 343.461818 212.948048 
" clip-path="url(#p8a54fdb220)" style="fill: none; stroke: #666666; stroke-width: 0.6; stroke-linecap: square"/>
   </g>
   <g id="line2d_18">
    <path d="M 151.312208 357.060256 
L 151.312208 20.798437 
" clip-path="url(#p8a54fdb220)" style="fill: none; stroke: #666666; stroke-width: 0.6; stroke-linecap: square"/>
   </g>
   <g id="patch_4">
    <path d="M 7.2 357.060256 
L 7.2 20.798438 
" style="fill: none; stroke: #000000; stroke-width: 0.8; stroke-linejoin: miter; stroke-linecap: square"/>
   </g>
   <g id="patch_5">
    <path d="M 343.461818 357.060256 
L 343.461818 20.798438 
" style="fill: none; stroke: #000000; stroke-width: 0.8; stroke-linejoin: miter; stroke-linecap: square"/>
   </g>
   <g id="patch_6">
    <path d="M 7.2 357.060256 
L 343.461818 357.060256 
" style="fill: none; stroke: #000000; stroke-width: 0.8; stroke-linejoin: miter; stroke-linecap: square"/>
   </g>
   <g id="patch_7">
    <path d="M 7.2 20.798437 
L 343.461818 20.798437 
" style="fill: none; stroke: #000000; stroke-width: 0.8; stroke-linejoin: miter; stroke-linecap: square"/>
   </g>
   <g id="patch_8">
    <path d="M 150.864994 212.053621 
Q 193.535425 190.718405 236.205856 169.38319 
L 234.640608 166.252695 
Q 241.013811 165.58167 247.387013 164.910645 
Q 243.026272 169.606592 238.665531 174.302539 
L 237.100283 171.172044 
Q 194.429852 192.50726 151.759421 213.842475 
L 150.864994 212.053621 
z
" style="fill: #c0392b; stroke: #c0392b; stroke-linecap: round"/>
   </g>
   <g id="patch_9">
    <path d="M 150.417781 212.500834 
Q 171.752996 169.830403 193.088211 127.159973 
L 189.957716 125.594725 
Q 194.653663 121.233984 199.34961 116.873243 
Q 198.678586 123.246445 198.007561 129.619647 
L 194.877066 128.0544 
Q 173.54185 170.724831 152.206635 213.395261 
L 150.417781 212.500834 
z
" style="fill: #2471a3; stroke: #2471a3; stroke-linecap: round"/>
   </g>
   <g id="text_1">
    <!-- area=3 -->
    <g style="fill: #e07b39" transform="translate(202.995109 140.891944) scale(0.11 -0.11)">
     <defs>
      <path id="DejaVuSans-44" d="M 2194 1759 
Q 1497 1759 1228 1600 
Q 959 1441 959 1056 
Q 959 750 1161 570 
Q 1363 391 1709 391 
Q 2188 391 2477 730 
Q 2766 1069 2766 1631 
L 2766 1759 
L 2194 1759 
z
M 3341 1997 
L 3341 0 
L 2766 0 
L 2766 531 
Q 2569 213 2275 61 
Q 1981 -91 1556 -91 
Q 1019 -91 701 211 
Q 384 513 384 1019 
Q 384 1609 779 1909 
Q 1175 2209 1959 2209 
L 2766 2209 
L 2766 2266 
Q 2766 2663 2505 2880 
Q 2244 3097 1772 3097 
Q 1472 3097 1187 3025 
Q 903 2953 641 2809 
L 641 3341 
Q 956 3463 1253 3523 
Q 1550 3584 1831 3584 
Q 2591 3584 2966 3190 
Q 3341 2797 3341 1997 
z
" transform="scale(0.015625)"/>
      <path id="DejaVuSans-55" d="M 2631 2963 
Q 2534 3019 2420 3045 
Q 2306 3072 2169 3072 
Q 1681 3072 1420 2755 
Q 1159 2438 1159 1844 
L 1159 0 
L 581 0 
L 581 3500 
L 1159 3500 
L 1159 2956 
Q 1341 3275 1631 3429 
Q 1922 3584 2338 3584 
Q 2397 3584 2469 3576 
Q 2541 3569 2628 3553 
L 2631 2963 
z
" transform="scale(0.015625)"/>
      <path id="DejaVuSans-48" d="M 3597 1894 
L 3597 1613 
L 953 1613 
Q 991 1019 1311 708 
Q 1631 397 2203 397 
Q 2534 397 2845 478 
Q 3156 559 3463 722 
L 3463 178 
Q 3153 47 2828 -22 
Q 2503 -91 2169 -91 
Q 1331 -91 842 396 
Q 353 884 353 1716 
Q 353 2575 817 3079 
Q 1281 3584 2069 3584 
Q 2775 3584 3186 3129 
Q 3597 2675 3597 1894 
z
M 3022 2063 
Q 3016 2534 2758 2815 
Q 2500 3097 2075 3097 
Q 1594 3097 1305 2825 
Q 1016 2553 972 2059 
L 3022 2063 
z
" transform="scale(0.015625)"/>
      <path id="DejaVuSans-20" d="M 678 2906 
L 4684 2906 
L 4684 2381 
L 678 2381 
L 678 2906 
z
M 678 1631 
L 4684 1631 
L 4684 1100 
L 678 1100 
L 678 1631 
z
" transform="scale(0.015625)"/>
      <path id="DejaVuSans-16" d="M 2597 2516 
Q 3050 2419 3304 2112 
Q 3559 1806 3559 1356 
Q 3559 666 3084 287 
Q 2609 -91 1734 -91 
Q 1441 -91 1130 -33 
Q 819 25 488 141 
L 488 750 
Q 750 597 1062 519 
Q 1375 441 1716 441 
Q 2309 441 2620 675 
Q 2931 909 2931 1356 
Q 2931 1769 2642 2001 
Q 2353 2234 1838 2234 
L 1294 2234 
L 1294 2753 
L 1863 2753 
Q 2328 2753 2575 2939 
Q 2822 3125 2822 3475 
Q 2822 3834 2567 4026 
Q 2313 4219 1838 4219 
Q 1578 4219 1281 4162 
Q 984 4106 628 3988 
L 628 4550 
Q 988 4650 1302 4700 
Q 1616 4750 1894 4750 
Q 2613 4750 3031 4423 
Q 3450 4097 3450 3541 
Q 3450 3153 3228 2886 
Q 3006 2619 2597 2516 
z
" transform="scale(0.015625)"/>
     </defs>
     <use xlink:href="#DejaVuSans-44"/>
     <use xlink:href="#DejaVuSans-55" transform="translate(61.28125 0)"/>
     <use xlink:href="#DejaVuSans-48" transform="translate(100.1875 0)"/>
     <use xlink:href="#DejaVuSans-44" transform="translate(161.71875 0)"/>
     <use xlink:href="#DejaVuSans-20" transform="translate(223 0)"/>
     <use xlink:href="#DejaVuSans-16" transform="translate(306.796875 0)"/>
    </g>
   </g>
   <g id="text_2">
    <!-- S=[[2,1],[1,2]]  det=+3  (no flip) -->
    <g transform="translate(93.210597 14.798437) scale(0.1 -0.1)">
     <defs>
      <path id="DejaVuSans-36" d="M 3425 4513 
L 3425 3897 
Q 3066 4069 2747 4153 
Q 2428 4238 2131 4238 
Q 1616 4238 1336 4038 
Q 1056 3838 1056 3469 
Q 1056 3159 1242 3001 
Q 1428 2844 1947 2747 
L 2328 2669 
Q 3034 2534 3370 2195 
Q 3706 1856 3706 1288 
Q 3706 609 3251 259 
Q 2797 -91 1919 -91 
Q 1588 -91 1214 -16 
Q 841 59 441 206 
L 441 856 
Q 825 641 1194 531 
Q 1563 422 1919 422 
Q 2459 422 2753 634 
Q 3047 847 3047 1241 
Q 3047 1584 2836 1778 
Q 2625 1972 2144 2069 
L 1759 2144 
Q 1053 2284 737 2584 
Q 422 2884 422 3419 
Q 422 4038 858 4394 
Q 1294 4750 2059 4750 
Q 2388 4750 2728 4690 
Q 3069 4631 3425 4513 
z
" transform="scale(0.015625)"/>
      <path id="DejaVuSans-3e" d="M 550 4863 
L 1875 4863 
L 1875 4416 
L 1125 4416 
L 1125 -397 
L 1875 -397 
L 1875 -844 
L 550 -844 
L 550 4863 
z
" transform="scale(0.015625)"/>
      <path id="DejaVuSans-15" d="M 1228 531 
L 3431 531 
L 3431 0 
L 469 0 
L 469 531 
Q 828 903 1448 1529 
Q 2069 2156 2228 2338 
Q 2531 2678 2651 2914 
Q 2772 3150 2772 3378 
Q 2772 3750 2511 3984 
Q 2250 4219 1831 4219 
Q 1534 4219 1204 4116 
Q 875 4013 500 3803 
L 500 4441 
Q 881 4594 1212 4672 
Q 1544 4750 1819 4750 
Q 2544 4750 2975 4387 
Q 3406 4025 3406 3419 
Q 3406 3131 3298 2873 
Q 3191 2616 2906 2266 
Q 2828 2175 2409 1742 
Q 1991 1309 1228 531 
z
" transform="scale(0.015625)"/>
      <path id="DejaVuSans-f" d="M 750 794 
L 1409 794 
L 1409 256 
L 897 -744 
L 494 -744 
L 750 256 
L 750 794 
z
" transform="scale(0.015625)"/>
      <path id="DejaVuSans-14" d="M 794 531 
L 1825 531 
L 1825 4091 
L 703 3866 
L 703 4441 
L 1819 4666 
L 2450 4666 
L 2450 531 
L 3481 531 
L 3481 0 
L 794 0 
L 794 531 
z
" transform="scale(0.015625)"/>
      <path id="DejaVuSans-40" d="M 1947 4863 
L 1947 -844 
L 622 -844 
L 622 -397 
L 1369 -397 
L 1369 4416 
L 622 4416 
L 622 4863 
L 1947 4863 
z
" transform="scale(0.015625)"/>
      <path id="DejaVuSans-3" transform="scale(0.015625)"/>
      <path id="DejaVuSans-47" d="M 2906 2969 
L 2906 4863 
L 3481 4863 
L 3481 0 
L 2906 0 
L 2906 525 
Q 2725 213 2448 61 
Q 2172 -91 1784 -91 
Q 1150 -91 751 415 
Q 353 922 353 1747 
Q 353 2572 751 3078 
Q 1150 3584 1784 3584 
Q 2172 3584 2448 3432 
Q 2725 3281 2906 2969 
z
M 947 1747 
Q 947 1113 1208 752 
Q 1469 391 1925 391 
Q 2381 391 2643 752 
Q 2906 1113 2906 1747 
Q 2906 2381 2643 2742 
Q 2381 3103 1925 3103 
Q 1469 3103 1208 2742 
Q 947 2381 947 1747 
z
" transform="scale(0.015625)"/>
      <path id="DejaVuSans-57" d="M 1172 4494 
L 1172 3500 
L 2356 3500 
L 2356 3053 
L 1172 3053 
L 1172 1153 
Q 1172 725 1289 603 
Q 1406 481 1766 481 
L 2356 481 
L 2356 0 
L 1766 0 
Q 1100 0 847 248 
Q 594 497 594 1153 
L 594 3053 
L 172 3053 
L 172 3500 
L 594 3500 
L 594 4494 
L 1172 4494 
z
" transform="scale(0.015625)"/>
      <path id="DejaVuSans-e" d="M 2944 4013 
L 2944 2272 
L 4684 2272 
L 4684 1741 
L 2944 1741 
L 2944 0 
L 2419 0 
L 2419 1741 
L 678 1741 
L 678 2272 
L 2419 2272 
L 2419 4013 
L 2944 4013 
z
" transform="scale(0.015625)"/>
      <path id="DejaVuSans-b" d="M 1984 4856 
Q 1566 4138 1362 3434 
Q 1159 2731 1159 2009 
Q 1159 1288 1364 580 
Q 1569 -128 1984 -844 
L 1484 -844 
Q 1016 -109 783 600 
Q 550 1309 550 2009 
Q 550 2706 781 3412 
Q 1013 4119 1484 4856 
L 1984 4856 
z
" transform="scale(0.015625)"/>
      <path id="DejaVuSans-51" d="M 3513 2113 
L 3513 0 
L 2938 0 
L 2938 2094 
Q 2938 2591 2744 2837 
Q 2550 3084 2163 3084 
Q 1697 3084 1428 2787 
Q 1159 2491 1159 1978 
L 1159 0 
L 581 0 
L 581 3500 
L 1159 3500 
L 1159 2956 
Q 1366 3272 1645 3428 
Q 1925 3584 2291 3584 
Q 2894 3584 3203 3211 
Q 3513 2838 3513 2113 
z
" transform="scale(0.015625)"/>
      <path id="DejaVuSans-52" d="M 1959 3097 
Q 1497 3097 1228 2736 
Q 959 2375 959 1747 
Q 959 1119 1226 758 
Q 1494 397 1959 397 
Q 2419 397 2687 759 
Q 2956 1122 2956 1747 
Q 2956 2369 2687 2733 
Q 2419 3097 1959 3097 
z
M 1959 3584 
Q 2709 3584 3137 3096 
Q 3566 2609 3566 1747 
Q 3566 888 3137 398 
Q 2709 -91 1959 -91 
Q 1206 -91 779 398 
Q 353 888 353 1747 
Q 353 2609 779 3096 
Q 1206 3584 1959 3584 
z
" transform="scale(0.015625)"/>
      <path id="DejaVuSans-13b0" d="M 1831 4863 
L 3431 4863 
L 3431 0 
L 2853 0 
L 2853 4384 
L 1825 4384 
Q 1516 4384 1395 4259 
Q 1275 4134 1275 3809 
L 1275 3500 
L 2222 3500 
L 2222 3053 
L 1275 3053 
L 1275 0 
L 697 0 
L 697 3053 
L 147 3053 
L 147 3500 
L 697 3500 
L 697 3744 
Q 697 4328 969 4595 
Q 1241 4863 1831 4863 
z
" transform="scale(0.015625)"/>
      <path id="DejaVuSans-4c" d="M 603 3500 
L 1178 3500 
L 1178 0 
L 603 0 
L 603 3500 
z
M 603 4863 
L 1178 4863 
L 1178 4134 
L 603 4134 
L 603 4863 
z
" transform="scale(0.015625)"/>
      <path id="DejaVuSans-53" d="M 1159 525 
L 1159 -1331 
L 581 -1331 
L 581 3500 
L 1159 3500 
L 1159 2969 
Q 1341 3281 1617 3432 
Q 1894 3584 2278 3584 
Q 2916 3584 3314 3078 
Q 3713 2572 3713 1747 
Q 3713 922 3314 415 
Q 2916 -91 2278 -91 
Q 1894 -91 1617 61 
Q 1341 213 1159 525 
z
M 3116 1747 
Q 3116 2381 2855 2742 
Q 2594 3103 2138 3103 
Q 1681 3103 1420 2742 
Q 1159 2381 1159 1747 
Q 1159 1113 1420 752 
Q 1681 391 2138 391 
Q 2594 391 2855 752 
Q 3116 1113 3116 1747 
z
" transform="scale(0.015625)"/>
      <path id="DejaVuSans-c" d="M 513 4856 
L 1013 4856 
Q 1481 4119 1714 3412 
Q 1947 2706 1947 2009 
Q 1947 1309 1714 600 
Q 1481 -109 1013 -844 
L 513 -844 
Q 928 -128 1133 580 
Q 1338 1288 1338 2009 
Q 1338 2731 1133 3434 
Q 928 4138 513 4856 
z
" transform="scale(0.015625)"/>
     </defs>
     <use xlink:href="#DejaVuSans-36"/>
     <use xlink:href="#DejaVuSans-20" transform="translate(63.484375 0)"/>
     <use xlink:href="#DejaVuSans-3e" transform="translate(147.28125 0)"/>
     <use xlink:href="#DejaVuSans-3e" transform="translate(186.296875 0)"/>
     <use xlink:href="#DejaVuSans-15" transform="translate(225.3125 0)"/>
     <use xlink:href="#DejaVuSans-f" transform="translate(288.9375 0)"/>
     <use xlink:href="#DejaVuSans-14" transform="translate(320.71875 0)"/>
     <use xlink:href="#DejaVuSans-40" transform="translate(384.34375 0)"/>
     <use xlink:href="#DejaVuSans-f" transform="translate(423.359375 0)"/>
     <use xlink:href="#DejaVuSans-3e" transform="translate(455.140625 0)"/>
     <use xlink:href="#DejaVuSans-14" transform="translate(494.15625 0)"/>
     <use xlink:href="#DejaVuSans-f" transform="translate(557.78125 0)"/>
     <use xlink:href="#DejaVuSans-15" transform="translate(589.5625 0)"/>
     <use xlink:href="#DejaVuSans-40" transform="translate(653.1875 0)"/>
     <use xlink:href="#DejaVuSans-40" transform="translate(692.203125 0)"/>
     <use xlink:href="#DejaVuSans-3" transform="translate(731.21875 0)"/>
     <use xlink:href="#DejaVuSans-3" transform="translate(763 0)"/>
     <use xlink:href="#DejaVuSans-47" transform="translate(794.78125 0)"/>
     <use xlink:href="#DejaVuSans-48" transform="translate(858.265625 0)"/>
     <use xlink:href="#DejaVuSans-57" transform="translate(919.796875 0)"/>
     <use xlink:href="#DejaVuSans-20" transform="translate(959 0)"/>
     <use xlink:href="#DejaVuSans-e" transform="translate(1042.796875 0)"/>
     <use xlink:href="#DejaVuSans-16" transform="translate(1126.59375 0)"/>
     <use xlink:href="#DejaVuSans-3" transform="translate(1190.21875 0)"/>
     <use xlink:href="#DejaVuSans-3" transform="translate(1222 0)"/>
     <use xlink:href="#DejaVuSans-b" transform="translate(1253.78125 0)"/>
     <use xlink:href="#DejaVuSans-51" transform="translate(1292.796875 0)"/>
     <use xlink:href="#DejaVuSans-52" transform="translate(1356.171875 0)"/>
     <use xlink:href="#DejaVuSans-3" transform="translate(1417.359375 0)"/>
     <use xlink:href="#DejaVuSans-13b0" transform="translate(1449.140625 0)"/>
     <use xlink:href="#DejaVuSans-4c" transform="translate(1512.125 0)"/>
     <use xlink:href="#DejaVuSans-53" transform="translate(1539.90625 0)"/>
     <use xlink:href="#DejaVuSans-c" transform="translate(1603.390625 0)"/>
    </g>
   </g>
  </g>
  <g id="axes_2">
   <g id="patch_10">
    <path d="M 361.8 357.060256 
L 698.061818 357.060256 
L 698.061818 20.798437 
L 361.8 20.798437 
z
" style="fill: #ffffff"/>
   </g>
   <g id="patch_11">
    <path d="M 505.912208 212.948048 
L 553.94961 212.948048 
L 553.94961 260.98545 
L 505.912208 260.98545 
z
" clip-path="url(#pf83eaa5ac5)" style="fill: #7b5ea7; fill-opacity: 0.2; stroke: #7b5ea7; stroke-width: 1.8; stroke-linejoin: miter"/>
   </g>
   <g id="matplotlib.axis_3"/>
   <g id="matplotlib.axis_4"/>
   <g id="line2d_19">
    <path d="M 361.8 68.83584 
L 361.8 365.260256 
" clip-path="url(#pf83eaa5ac5)" style="fill: none; stroke: #d9d9d9; stroke-width: 0.7; stroke-linecap: square"/>
   </g>
   <g id="line2d_20">
    <path d="M 361.8 68.83584 
L 698.061818 68.83584 
" clip-path="url(#pf83eaa5ac5)" style="fill: none; stroke: #d9d9d9; stroke-width: 0.7; stroke-linecap: square"/>
   </g>
   <g id="line2d_21">
    <path d="M 409.837403 68.83584 
L 409.837403 365.260256 
" clip-path="url(#pf83eaa5ac5)" style="fill: none; stroke: #d9d9d9; stroke-width: 0.7; stroke-linecap: square"/>
   </g>
   <g id="line2d_22">
    <path d="M 361.8 116.873243 
L 698.061818 116.873243 
" clip-path="url(#pf83eaa5ac5)" style="fill: none; stroke: #d9d9d9; stroke-width: 0.7; stroke-linecap: square"/>
   </g>
   <g id="line2d_23">
    <path d="M 457.874805 68.83584 
L 457.874805 365.260256 
" clip-path="url(#pf83eaa5ac5)" style="fill: none; stroke: #d9d9d9; stroke-width: 0.7; stroke-linecap: square"/>
   </g>
   <g id="line2d_24">
    <path d="M 361.8 164.910645 
L 698.061818 164.910645 
" clip-path="url(#pf83eaa5ac5)" style="fill: none; stroke: #d9d9d9; stroke-width: 0.7; stroke-linecap: square"/>
   </g>
   <g id="line2d_25">
    <path d="M 505.912208 68.83584 
L 505.912208 365.260256 
" clip-path="url(#pf83eaa5ac5)" style="fill: none; stroke: #d9d9d9; stroke-width: 0.7; stroke-linecap: square"/>
   </g>
   <g id="line2d_26">
    <path d="M 361.8 212.948048 
L 698.061818 212.948048 
" clip-path="url(#pf83eaa5ac5)" style="fill: none; stroke: #d9d9d9; stroke-width: 0.7; stroke-linecap: square"/>
   </g>
   <g id="line2d_27">
    <path d="M 553.94961 68.83584 
L 553.94961 365.260256 
" clip-path="url(#pf83eaa5ac5)" style="fill: none; stroke: #d9d9d9; stroke-width: 0.7; stroke-linecap: square"/>
   </g>
   <g id="line2d_28">
    <path d="M 361.8 260.98545 
L 698.061818 260.98545 
" clip-path="url(#pf83eaa5ac5)" style="fill: none; stroke: #d9d9d9; stroke-width: 0.7; stroke-linecap: square"/>
   </g>
   <g id="line2d_29">
    <path d="M 601.987013 68.83584 
L 601.987013 365.260256 
" clip-path="url(#pf83eaa5ac5)" style="fill: none; stroke: #d9d9d9; stroke-width: 0.7; stroke-linecap: square"/>
   </g>
   <g id="line2d_30">
    <path d="M 361.8 309.022853 
L 698.061818 309.022853 
" clip-path="url(#pf83eaa5ac5)" style="fill: none; stroke: #d9d9d9; stroke-width: 0.7; stroke-linecap: square"/>
   </g>
   <g id="line2d_31">
    <path d="M 650.024416 68.83584 
L 650.024416 365.260256 
" clip-path="url(#pf83eaa5ac5)" style="fill: none; stroke: #d9d9d9; stroke-width: 0.7; stroke-linecap: square"/>
   </g>
   <g id="line2d_32">
    <path d="M 361.8 357.060256 
L 698.061818 357.060256 
" clip-path="url(#pf83eaa5ac5)" style="fill: none; stroke: #d9d9d9; stroke-width: 0.7; stroke-linecap: square"/>
   </g>
   <g id="line2d_33">
    <path d="M 698.061818 68.83584 
L 698.061818 365.260256 
" clip-path="url(#pf83eaa5ac5)" style="fill: none; stroke: #d9d9d9; stroke-width: 0.7; stroke-linecap: square"/>
   </g>
   <g id="line2d_34">
    <path clip-path="url(#pf83eaa5ac5)" style="fill: none; stroke: #d9d9d9; stroke-width: 0.7; stroke-linecap: square"/>
   </g>
   <g id="line2d_35">
    <path d="M 361.8 212.948048 
L 698.061818 212.948048 
" clip-path="url(#pf83eaa5ac5)" style="fill: none; stroke: #666666; stroke-width: 0.6; stroke-linecap: square"/>
   </g>
   <g id="line2d_36">
    <path d="M 505.912208 357.060256 
L 505.912208 20.798437 
" clip-path="url(#pf83eaa5ac5)" style="fill: none; stroke: #666666; stroke-width: 0.6; stroke-linecap: square"/>
   </g>
   <g id="patch_12">
    <path d="M 361.8 357.060256 
L 361.8 20.798438 
" style="fill: none; stroke: #000000; stroke-width: 0.8; stroke-linejoin: miter; stroke-linecap: square"/>
   </g>
   <g id="patch_13">
    <path d="M 698.061818 357.060256 
L 698.061818 20.798438 
" style="fill: none; stroke: #000000; stroke-width: 0.8; stroke-linejoin: miter; stroke-linecap: square"/>
   </g>
   <g id="patch_14">
    <path d="M 361.8 357.060256 
L 698.061818 357.060256 
" style="fill: none; stroke: #000000; stroke-width: 0.8; stroke-linejoin: miter; stroke-linecap: square"/>
   </g>
   <g id="patch_15">
    <path d="M 361.8 20.798437 
L 698.061818 20.798437 
" style="fill: none; stroke: #000000; stroke-width: 0.8; stroke-linejoin: miter; stroke-linecap: square"/>
   </g>
   <g id="patch_16">
    <path d="M 505.912208 211.948048 
Q 523.930632 211.948048 541.949056 211.948048 
L 541.949056 208.448048 
Q 547.949333 210.698048 553.94961 212.948048 
Q 547.949333 215.198048 541.949056 217.448048 
L 541.949056 213.948048 
Q 523.930632 213.948048 505.912208 213.948048 
L 505.912208 211.948048 
z
" style="fill: #c0392b; stroke: #c0392b; stroke-linecap: round"/>
   </g>
   <g id="patch_17">
    <path d="M 506.912208 212.948048 
Q 506.912208 230.966472 506.912208 248.984896 
L 510.412208 248.984896 
Q 508.162208 254.985173 505.912208 260.98545 
Q 503.662208 254.985173 501.412208 248.984896 
L 504.912208 248.984896 
Q 504.912208 230.966472 504.912208 212.948048 
L 506.912208 212.948048 
z
" style="fill: #2471a3; stroke: #2471a3; stroke-linecap: round"/>
   </g>
   <g id="text_3">
    <!-- area=1 -->
    <g style="fill: #7b5ea7" transform="translate(509.557706 236.966749) scale(0.11 -0.11)">
     <use xlink:href="#DejaVuSans-44"/>
     <use xlink:href="#DejaVuSans-55" transform="translate(61.28125 0)"/>
     <use xlink:href="#DejaVuSans-48" transform="translate(100.1875 0)"/>
     <use xlink:href="#DejaVuSans-44" transform="translate(161.71875 0)"/>
     <use xlink:href="#DejaVuSans-20" transform="translate(223 0)"/>
     <use xlink:href="#DejaVuSans-14" transform="translate(306.796875 0)"/>
    </g>
   </g>
   <g id="text_4">
    <!-- reflect [[1,0],[0,-1]]  det=-1  (flip) -->
    <g transform="translate(446.027784 14.798437) scale(0.1 -0.1)">
     <defs>
      <path id="DejaVuSans-46" d="M 3122 3366 
L 3122 2828 
Q 2878 2963 2633 3030 
Q 2388 3097 2138 3097 
Q 1578 3097 1268 2742 
Q 959 2388 959 1747 
Q 959 1106 1268 751 
Q 1578 397 2138 397 
Q 2388 397 2633 464 
Q 2878 531 3122 666 
L 3122 134 
Q 2881 22 2623 -34 
Q 2366 -91 2075 -91 
Q 1284 -91 818 406 
Q 353 903 353 1747 
Q 353 2603 823 3093 
Q 1294 3584 2113 3584 
Q 2378 3584 2631 3529 
Q 2884 3475 3122 3366 
z
" transform="scale(0.015625)"/>
      <path id="DejaVuSans-13" d="M 2034 4250 
Q 1547 4250 1301 3770 
Q 1056 3291 1056 2328 
Q 1056 1369 1301 889 
Q 1547 409 2034 409 
Q 2525 409 2770 889 
Q 3016 1369 3016 2328 
Q 3016 3291 2770 3770 
Q 2525 4250 2034 4250 
z
M 2034 4750 
Q 2819 4750 3233 4129 
Q 3647 3509 3647 2328 
Q 3647 1150 3233 529 
Q 2819 -91 2034 -91 
Q 1250 -91 836 529 
Q 422 1150 422 2328 
Q 422 3509 836 4129 
Q 1250 4750 2034 4750 
z
" transform="scale(0.015625)"/>
      <path id="DejaVuSans-10" d="M 313 2009 
L 1997 2009 
L 1997 1497 
L 313 1497 
L 313 2009 
z
" transform="scale(0.015625)"/>
     </defs>
     <use xlink:href="#DejaVuSans-55"/>
     <use xlink:href="#DejaVuSans-48" transform="translate(38.90625 0)"/>
     <use xlink:href="#DejaVuSans-13b0" transform="translate(100.4375 0)"/>
     <use xlink:href="#DejaVuSans-48" transform="translate(163.421875 0)"/>
     <use xlink:href="#DejaVuSans-46" transform="translate(224.953125 0)"/>
     <use xlink:href="#DejaVuSans-57" transform="translate(279.9375 0)"/>
     <use xlink:href="#DejaVuSans-3" transform="translate(319.140625 0)"/>
     <use xlink:href="#DejaVuSans-3e" transform="translate(350.921875 0)"/>
     <use xlink:href="#DejaVuSans-3e" transform="translate(389.9375 0)"/>
     <use xlink:href="#DejaVuSans-14" transform="translate(428.953125 0)"/>
     <use xlink:href="#DejaVuSans-f" transform="translate(492.578125 0)"/>
     <use xlink:href="#DejaVuSans-13" transform="translate(524.359375 0)"/>
     <use xlink:href="#DejaVuSans-40" transform="translate(587.984375 0)"/>
     <use xlink:href="#DejaVuSans-f" transform="translate(627 0)"/>
     <use xlink:href="#DejaVuSans-3e" transform="translate(658.78125 0)"/>
     <use xlink:href="#DejaVuSans-13" transform="translate(697.796875 0)"/>
     <use xlink:href="#DejaVuSans-f" transform="translate(761.421875 0)"/>
     <use xlink:href="#DejaVuSans-10" transform="translate(793.203125 0)"/>
     <use xlink:href="#DejaVuSans-14" transform="translate(829.28125 0)"/>
     <use xlink:href="#DejaVuSans-40" transform="translate(892.90625 0)"/>
     <use xlink:href="#DejaVuSans-40" transform="translate(931.921875 0)"/>
     <use xlink:href="#DejaVuSans-3" transform="translate(970.9375 0)"/>
     <use xlink:href="#DejaVuSans-3" transform="translate(1002.71875 0)"/>
     <use xlink:href="#DejaVuSans-47" transform="translate(1034.5 0)"/>
     <use xlink:href="#DejaVuSans-48" transform="translate(1097.984375 0)"/>
     <use xlink:href="#DejaVuSans-57" transform="translate(1159.515625 0)"/>
     <use xlink:href="#DejaVuSans-20" transform="translate(1198.71875 0)"/>
     <use xlink:href="#DejaVuSans-10" transform="translate(1282.515625 0)"/>
     <use xlink:href="#DejaVuSans-14" transform="translate(1318.59375 0)"/>
     <use xlink:href="#DejaVuSans-3" transform="translate(1382.21875 0)"/>
     <use xlink:href="#DejaVuSans-3" transform="translate(1414 0)"/>
     <use xlink:href="#DejaVuSans-b" transform="translate(1445.78125 0)"/>
     <use xlink:href="#DejaVuSans-13b0" transform="translate(1484.796875 0)"/>
     <use xlink:href="#DejaVuSans-4c" transform="translate(1547.78125 0)"/>
     <use xlink:href="#DejaVuSans-53" transform="translate(1575.5625 0)"/>
     <use xlink:href="#DejaVuSans-c" transform="translate(1639.046875 0)"/>
    </g>
   </g>
  </g>
 </g>
 <defs>
  <clipPath id="p8a54fdb220">
   <rect x="7.2" y="20.798437" width="336.261818" height="336.261818"/>
  </clipPath>
  <clipPath id="pf83eaa5ac5">
   <rect x="361.8" y="20.798437" width="336.261818" height="336.261818"/>
  </clipPath>
 </defs>
</svg>
