<?xml version="1.0" encoding="utf-8" standalone="no"?>
<!DOCTYPE svg PUBLIC "-//W3C//DTD SVG 1.1//EN"
  "http://www.w3.org/Graphics/SVG/1.1/DTD/svg11.dtd">
<svg xmlns:xlink="http://www.w3.org/1999/xlink" width="368.782187pt" height="377.638437pt" viewBox="0 0 368.782187 377.638437" xmlns="http://www.w3.org/2000/svg" version="1.1">
 <metadata>
  <rdf:RDF xmlns:dc="http://purl.org/dc/elements/1.1/" xmlns:cc="http://creativecommons.org/ns#" xmlns:rdf="http://www.w3.org/1999/02/22-rdf-syntax-ns#">
   <cc:Work>
    <dc:type rdf:resource="http://purl.org/dc/dcmitype/StillImage"/>
    <dc:date>2026-06-13T19:07:48.764060</dc:date>
    <dc:format>image/svg+xml</dc:format>
    <dc:creator>
     <cc:Agent>
      <dc:title>Matplotlib v3.11.0, https://matplotlib.org/</dc:title>
     </cc:Agent>
    </dc:creator>
   </cc:Work>
  </rdf:RDF>
 </metadata>
 <defs>
  <style type="text/css">*{stroke-linejoin: round; stroke-linecap: butt}</style>
 </defs>
 <g id="figure_1">
  <g id="patch_1">
   <path d="M 0 377.638437 
L 368.782187 377.638437 
L 368.782187 0 
L 0 0 
z
" style="fill: #ffffff"/>
  </g>
  <g id="axes_1">
   <g id="patch_2">
    <path d="M 28.942187 353.438437 
L 361.582187 353.438437 
L 361.582187 20.798437 
L 28.942187 20.798437 
z
" style="fill: #ffffff"/>
   </g>
   <g id="matplotlib.axis_1">
    <g id="xtick_1">
     <g id="line2d_1">
      <path d="M 49.732187 353.438437 
L 49.732187 20.798437 
" clip-path="url(#p5b89eb8740)" style="fill: none; stroke: #e6e6e6; stroke-width: 0.6; stroke-linecap: square"/>
     </g>
     <g id="line2d_2">
      <defs>
       <path id="mef049f3b6f" d="M 0 0 
L 0 3.5 
" style="stroke: #000000; stroke-width: 0.8"/>
      </defs>
      <g>
       <use xlink:href="#mef049f3b6f" x="49.732187" y="353.438437" style="stroke: #000000; stroke-width: 0.8"/>
      </g>
     </g>
     <g id="text_1">
      <!-- −1 -->
      <g transform="translate(42.361094 368.036094) scale(0.1 -0.1)">
       <defs>
        <path id="DejaVuSans-c9c" d="M 678 2272 
L 4684 2272 
L 4684 1741 
L 678 1741 
L 678 2272 
z
" transform="scale(0.015625)"/>
        <path id="DejaVuSans-14" d="M 794 531 
L 1825 531 
L 1825 4091 
L 703 3866 
L 703 4441 
L 1819 4666 
L 2450 4666 
L 2450 531 
L 3481 531 
L 3481 0 
L 794 0 
L 794 531 
z
" transform="scale(0.015625)"/>
       </defs>
       <use xlink:href="#DejaVuSans-c9c"/>
       <use xlink:href="#DejaVuSans-14" transform="translate(83.796875 0)"/>
      </g>
     </g>
    </g>
    <g id="xtick_2">
     <g id="line2d_3">
      <path d="M 91.312187 353.438437 
L 91.312187 20.798437 
" clip-path="url(#p5b89eb8740)" style="fill: none; stroke: #e6e6e6; stroke-width: 0.6; stroke-linecap: square"/>
     </g>
     <g id="line2d_4">
      <g>
       <use xlink:href="#mef049f3b6f" x="91.312187" y="353.438437" style="stroke: #000000; stroke-width: 0.8"/>
      </g>
     </g>
     <g id="text_2">
      <!-- 0 -->
      <g transform="translate(88.130937 368.036094) scale(0.1 -0.1)">
       <defs>
        <path id="DejaVuSans-13" d="M 2034 4250 
Q 1547 4250 1301 3770 
Q 1056 3291 1056 2328 
Q 1056 1369 1301 889 
Q 1547 409 2034 409 
Q 2525 409 2770 889 
Q 3016 1369 3016 2328 
Q 3016 3291 2770 3770 
Q 2525 4250 2034 4250 
z
M 2034 4750 
Q 2819 4750 3233 4129 
Q 3647 3509 3647 2328 
Q 3647 1150 3233 529 
Q 2819 -91 2034 -91 
Q 1250 -91 836 529 
Q 422 1150 422 2328 
Q 422 3509 836 4129 
Q 1250 4750 2034 4750 
z
" transform="scale(0.015625)"/>
       </defs>
       <use xlink:href="#DejaVuSans-13"/>
      </g>
     </g>
    </g>
    <g id="xtick_3">
     <g id="line2d_5">
      <path d="M 132.892187 353.438437 
L 132.892187 20.798437 
" clip-path="url(#p5b89eb8740)" style="fill: none; stroke: #e6e6e6; stroke-width: 0.6; stroke-linecap: square"/>
     </g>
     <g id="line2d_6">
      <g>
       <use xlink:href="#mef049f3b6f" x="132.892187" y="353.438437" style="stroke: #000000; stroke-width: 0.8"/>
      </g>
     </g>
     <g id="text_3">
      <!-- 1 -->
      <g transform="translate(129.710937 368.036094) scale(0.1 -0.1)">
       <use xlink:href="#DejaVuSans-14"/>
      </g>
     </g>
    </g>
    <g id="xtick_4">
     <g id="line2d_7">
      <path d="M 174.472187 353.438437 
L 174.472187 20.798437 
" clip-path="url(#p5b89eb8740)" style="fill: none; stroke: #e6e6e6; stroke-width: 0.6; stroke-linecap: square"/>
     </g>
     <g id="line2d_8">
      <g>
       <use xlink:href="#mef049f3b6f" x="174.472187" y="353.438437" style="stroke: #000000; stroke-width: 0.8"/>
      </g>
     </g>
     <g id="text_4">
      <!-- 2 -->
      <g transform="translate(171.290937 368.036094) scale(0.1 -0.1)">
       <defs>
        <path id="DejaVuSans-15" d="M 1228 531 
L 3431 531 
L 3431 0 
L 469 0 
L 469 531 
Q 828 903 1448 1529 
Q 2069 2156 2228 2338 
Q 2531 2678 2651 2914 
Q 2772 3150 2772 3378 
Q 2772 3750 2511 3984 
Q 2250 4219 1831 4219 
Q 1534 4219 1204 4116 
Q 875 4013 500 3803 
L 500 4441 
Q 881 4594 1212 4672 
Q 1544 4750 1819 4750 
Q 2544 4750 2975 4387 
Q 3406 4025 3406 3419 
Q 3406 3131 3298 2873 
Q 3191 2616 2906 2266 
Q 2828 2175 2409 1742 
Q 1991 1309 1228 531 
z
" transform="scale(0.015625)"/>
       </defs>
       <use xlink:href="#DejaVuSans-15"/>
      </g>
     </g>
    </g>
    <g id="xtick_5">
     <g id="line2d_9">
      <path d="M 216.052188 353.438437 
L 216.052188 20.798437 
" clip-path="url(#p5b89eb8740)" style="fill: none; stroke: #e6e6e6; stroke-width: 0.6; stroke-linecap: square"/>
     </g>
     <g id="line2d_10">
      <g>
       <use xlink:href="#mef049f3b6f" x="216.052188" y="353.438437" style="stroke: #000000; stroke-width: 0.8"/>
      </g>
     </g>
     <g id="text_5">
      <!-- 3 -->
      <g transform="translate(212.870937 368.036094) scale(0.1 -0.1)">
       <defs>
        <path id="DejaVuSans-16" d="M 2597 2516 
Q 3050 2419 3304 2112 
Q 3559 1806 3559 1356 
Q 3559 666 3084 287 
Q 2609 -91 1734 -91 
Q 1441 -91 1130 -33 
Q 819 25 488 141 
L 488 750 
Q 750 597 1062 519 
Q 1375 441 1716 441 
Q 2309 441 2620 675 
Q 2931 909 2931 1356 
Q 2931 1769 2642 2001 
Q 2353 2234 1838 2234 
L 1294 2234 
L 1294 2753 
L 1863 2753 
Q 2328 2753 2575 2939 
Q 2822 3125 2822 3475 
Q 2822 3834 2567 4026 
Q 2313 4219 1838 4219 
Q 1578 4219 1281 4162 
Q 984 4106 628 3988 
L 628 4550 
Q 988 4650 1302 4700 
Q 1616 4750 1894 4750 
Q 2613 4750 3031 4423 
Q 3450 4097 3450 3541 
Q 3450 3153 3228 2886 
Q 3006 2619 2597 2516 
z
" transform="scale(0.015625)"/>
       </defs>
       <use xlink:href="#DejaVuSans-16"/>
      </g>
     </g>
    </g>
    <g id="xtick_6">
     <g id="line2d_11">
      <path d="M 257.632187 353.438437 
L 257.632187 20.798437 
" clip-path="url(#p5b89eb8740)" style="fill: none; stroke: #e6e6e6; stroke-width: 0.6; stroke-linecap: square"/>
     </g>
     <g id="line2d_12">
      <g>
       <use xlink:href="#mef049f3b6f" x="257.632187" y="353.438437" style="stroke: #000000; stroke-width: 0.8"/>
      </g>
     </g>
     <g id="text_6">
      <!-- 4 -->
      <g transform="translate(254.450937 368.036094) scale(0.1 -0.1)">
       <defs>
        <path id="DejaVuSans-17" d="M 2419 4116 
L 825 1625 
L 2419 1625 
L 2419 4116 
z
M 2253 4666 
L 3047 4666 
L 3047 1625 
L 3713 1625 
L 3713 1100 
L 3047 1100 
L 3047 0 
L 2419 0 
L 2419 1100 
L 313 1100 
L 313 1709 
L 2253 4666 
z
" transform="scale(0.015625)"/>
       </defs>
       <use xlink:href="#DejaVuSans-17"/>
      </g>
     </g>
    </g>
    <g id="xtick_7">
     <g id="line2d_13">
      <path d="M 299.212187 353.438437 
L 299.212187 20.798437 
" clip-path="url(#p5b89eb8740)" style="fill: none; stroke: #e6e6e6; stroke-width: 0.6; stroke-linecap: square"/>
     </g>
     <g id="line2d_14">
      <g>
       <use xlink:href="#mef049f3b6f" x="299.212187" y="353.438437" style="stroke: #000000; stroke-width: 0.8"/>
      </g>
     </g>
     <g id="text_7">
      <!-- 5 -->
      <g transform="translate(296.030937 368.036094) scale(0.1 -0.1)">
       <defs>
        <path id="DejaVuSans-18" d="M 691 4666 
L 3169 4666 
L 3169 4134 
L 1269 4134 
L 1269 2991 
Q 1406 3038 1543 3061 
Q 1681 3084 1819 3084 
Q 2600 3084 3056 2656 
Q 3513 2228 3513 1497 
Q 3513 744 3044 326 
Q 2575 -91 1722 -91 
Q 1428 -91 1123 -41 
Q 819 9 494 109 
L 494 744 
Q 775 591 1075 516 
Q 1375 441 1709 441 
Q 2250 441 2565 725 
Q 2881 1009 2881 1497 
Q 2881 1984 2565 2268 
Q 2250 2553 1709 2553 
Q 1456 2553 1204 2497 
Q 953 2441 691 2322 
L 691 4666 
z
" transform="scale(0.015625)"/>
       </defs>
       <use xlink:href="#DejaVuSans-18"/>
      </g>
     </g>
    </g>
    <g id="xtick_8">
     <g id="line2d_15">
      <path d="M 340.792187 353.438437 
L 340.792187 20.798437 
" clip-path="url(#p5b89eb8740)" style="fill: none; stroke: #e6e6e6; stroke-width: 0.6; stroke-linecap: square"/>
     </g>
     <g id="line2d_16">
      <g>
       <use xlink:href="#mef049f3b6f" x="340.792187" y="353.438437" style="stroke: #000000; stroke-width: 0.8"/>
      </g>
     </g>
     <g id="text_8">
      <!-- 6 -->
      <g transform="translate(337.610937 368.036094) scale(0.1 -0.1)">
       <defs>
        <path id="DejaVuSans-19" d="M 2113 2584 
Q 1688 2584 1439 2293 
Q 1191 2003 1191 1497 
Q 1191 994 1439 701 
Q 1688 409 2113 409 
Q 2538 409 2786 701 
Q 3034 994 3034 1497 
Q 3034 2003 2786 2293 
Q 2538 2584 2113 2584 
z
M 3366 4563 
L 3366 3988 
Q 3128 4100 2886 4159 
Q 2644 4219 2406 4219 
Q 1781 4219 1451 3797 
Q 1122 3375 1075 2522 
Q 1259 2794 1537 2939 
Q 1816 3084 2150 3084 
Q 2853 3084 3261 2657 
Q 3669 2231 3669 1497 
Q 3669 778 3244 343 
Q 2819 -91 2113 -91 
Q 1303 -91 875 529 
Q 447 1150 447 2328 
Q 447 3434 972 4092 
Q 1497 4750 2381 4750 
Q 2619 4750 2861 4703 
Q 3103 4656 3366 4563 
z
" transform="scale(0.015625)"/>
       </defs>
       <use xlink:href="#DejaVuSans-19"/>
      </g>
     </g>
    </g>
   </g>
   <g id="matplotlib.axis_2">
    <g id="ytick_1">
     <g id="line2d_17">
      <path d="M 28.942187 332.648437 
L 361.582187 332.648437 
" clip-path="url(#p5b89eb8740)" style="fill: none; stroke: #e6e6e6; stroke-width: 0.6; stroke-linecap: square"/>
     </g>
     <g id="line2d_18">
      <defs>
       <path id="me0a2fdc27f" d="M 0 0 
L -3.5 0 
" style="stroke: #000000; stroke-width: 0.8"/>
      </defs>
      <g>
       <use xlink:href="#me0a2fdc27f" x="28.942187" y="332.648437" style="stroke: #000000; stroke-width: 0.8"/>
      </g>
     </g>
     <g id="text_9">
      <!-- −2 -->
      <g transform="translate(7.2 336.447266) scale(0.1 -0.1)">
       <use xlink:href="#DejaVuSans-c9c"/>
       <use xlink:href="#DejaVuSans-15" transform="translate(83.796875 0)"/>
      </g>
     </g>
    </g>
    <g id="ytick_2">
     <g id="line2d_19">
      <path d="M 28.942187 291.068437 
L 361.582187 291.068437 
" clip-path="url(#p5b89eb8740)" style="fill: none; stroke: #e6e6e6; stroke-width: 0.6; stroke-linecap: square"/>
     </g>
     <g id="line2d_20">
      <g>
       <use xlink:href="#me0a2fdc27f" x="28.942187" y="291.068437" style="stroke: #000000; stroke-width: 0.8"/>
      </g>
     </g>
     <g id="text_10">
      <!-- −1 -->
      <g transform="translate(7.2 294.867266) scale(0.1 -0.1)">
       <use xlink:href="#DejaVuSans-c9c"/>
       <use xlink:href="#DejaVuSans-14" transform="translate(83.796875 0)"/>
      </g>
     </g>
    </g>
    <g id="ytick_3">
     <g id="line2d_21">
      <path d="M 28.942187 249.488437 
L 361.582187 249.488437 
" clip-path="url(#p5b89eb8740)" style="fill: none; stroke: #e6e6e6; stroke-width: 0.6; stroke-linecap: square"/>
     </g>
     <g id="line2d_22">
      <g>
       <use xlink:href="#me0a2fdc27f" x="28.942187" y="249.488437" style="stroke: #000000; stroke-width: 0.8"/>
      </g>
     </g>
     <g id="text_11">
      <!-- 0 -->
      <g transform="translate(15.579687 253.287266) scale(0.1 -0.1)">
       <use xlink:href="#DejaVuSans-13"/>
      </g>
     </g>
    </g>
    <g id="ytick_4">
     <g id="line2d_23">
      <path d="M 28.942187 207.908437 
L 361.582187 207.908437 
" clip-path="url(#p5b89eb8740)" style="fill: none; stroke: #e6e6e6; stroke-width: 0.6; stroke-linecap: square"/>
     </g>
     <g id="line2d_24">
      <g>
       <use xlink:href="#me0a2fdc27f" x="28.942187" y="207.908437" style="stroke: #000000; stroke-width: 0.8"/>
      </g>
     </g>
     <g id="text_12">
      <!-- 1 -->
      <g transform="translate(15.579687 211.707266) scale(0.1 -0.1)">
       <use xlink:href="#DejaVuSans-14"/>
      </g>
     </g>
    </g>
    <g id="ytick_5">
     <g id="line2d_25">
      <path d="M 28.942187 166.328437 
L 361.582187 166.328437 
" clip-path="url(#p5b89eb8740)" style="fill: none; stroke: #e6e6e6; stroke-width: 0.6; stroke-linecap: square"/>
     </g>
     <g id="line2d_26">
      <g>
       <use xlink:href="#me0a2fdc27f" x="28.942187" y="166.328437" style="stroke: #000000; stroke-width: 0.8"/>
      </g>
     </g>
     <g id="text_13">
      <!-- 2 -->
      <g transform="translate(15.579687 170.127266) scale(0.1 -0.1)">
       <use xlink:href="#DejaVuSans-15"/>
      </g>
     </g>
    </g>
    <g id="ytick_6">
     <g id="line2d_27">
      <path d="M 28.942187 124.748437 
L 361.582187 124.748437 
" clip-path="url(#p5b89eb8740)" style="fill: none; stroke: #e6e6e6; stroke-width: 0.6; stroke-linecap: square"/>
     </g>
     <g id="line2d_28">
      <g>
       <use xlink:href="#me0a2fdc27f" x="28.942187" y="124.748437" style="stroke: #000000; stroke-width: 0.8"/>
      </g>
     </g>
     <g id="text_14">
      <!-- 3 -->
      <g transform="translate(15.579687 128.547266) scale(0.1 -0.1)">
       <use xlink:href="#DejaVuSans-16"/>
      </g>
     </g>
    </g>
    <g id="ytick_7">
     <g id="line2d_29">
      <path d="M 28.942187 83.168437 
L 361.582187 83.168437 
" clip-path="url(#p5b89eb8740)" style="fill: none; stroke: #e6e6e6; stroke-width: 0.6; stroke-linecap: square"/>
     </g>
     <g id="line2d_30">
      <g>
       <use xlink:href="#me0a2fdc27f" x="28.942187" y="83.168437" style="stroke: #000000; stroke-width: 0.8"/>
      </g>
     </g>
     <g id="text_15">
      <!-- 4 -->
      <g transform="translate(15.579687 86.967266) scale(0.1 -0.1)">
       <use xlink:href="#DejaVuSans-17"/>
      </g>
     </g>
    </g>
    <g id="ytick_8">
     <g id="line2d_31">
      <path d="M 28.942187 41.588437 
L 361.582187 41.588437 
" clip-path="url(#p5b89eb8740)" style="fill: none; stroke: #e6e6e6; stroke-width: 0.6; stroke-linecap: square"/>
     </g>
     <g id="line2d_32">
      <g>
       <use xlink:href="#me0a2fdc27f" x="28.942187" y="41.588437" style="stroke: #000000; stroke-width: 0.8"/>
      </g>
     </g>
     <g id="text_16">
      <!-- 5 -->
      <g transform="translate(15.579687 45.387266) scale(0.1 -0.1)">
       <use xlink:href="#DejaVuSans-18"/>
      </g>
     </g>
    </g>
   </g>
   <g id="line2d_33">
    <path d="M -1 341.800625 
L 257.632187 83.168437 
" clip-path="url(#p5b89eb8740)" style="fill: none; stroke-dasharray: 3.7,1.6; stroke-dashoffset: 0; stroke: #c0392b; stroke-opacity: 0.7"/>
   </g>
   <g id="line2d_34">
    <path d="M -1 157.17625 
L 220.462187 378.638437 
" clip-path="url(#p5b89eb8740)" style="fill: none; stroke-dasharray: 3.7,1.6; stroke-dashoffset: 0; stroke: #2471a3; stroke-opacity: 0.7"/>
   </g>
   <g id="line2d_35">
    <path d="M 28.942187 249.488437 
L 361.582187 249.488437 
" clip-path="url(#p5b89eb8740)" style="fill: none; stroke: #999999; stroke-width: 0.6; stroke-linecap: square"/>
   </g>
   <g id="line2d_36">
    <path d="M 91.312187 353.438437 
L 91.312187 20.798437 
" clip-path="url(#p5b89eb8740)" style="fill: none; stroke: #999999; stroke-width: 0.6; stroke-linecap: square"/>
   </g>
   <g id="patch_3">
    <path d="M 28.942187 353.438437 
L 28.942187 20.798437 
" style="fill: none; stroke: #000000; stroke-width: 0.8; stroke-linejoin: miter; stroke-linecap: square"/>
   </g>
   <g id="patch_4">
    <path d="M 361.582187 353.438437 
L 361.582187 20.798437 
" style="fill: none; stroke: #000000; stroke-width: 0.8; stroke-linejoin: miter; stroke-linecap: square"/>
   </g>
   <g id="patch_5">
    <path d="M 28.942187 353.438437 
L 361.582187 353.438437 
" style="fill: none; stroke: #000000; stroke-width: 0.8; stroke-linejoin: miter; stroke-linecap: square"/>
   </g>
   <g id="patch_6">
    <path d="M 28.942187 20.798437 
L 361.582187 20.798437 
" style="fill: none; stroke: #000000; stroke-width: 0.8; stroke-linejoin: miter; stroke-linecap: square"/>
   </g>
   <g id="patch_7">
    <path d="M 90.746502 248.922752 
Q 107.2945 232.374755 123.842497 215.826757 
L 121.226202 213.210462 
Q 127.059195 210.55945 132.892187 207.908437 
Q 130.241175 213.74143 127.590163 219.574423 
L 124.973868 216.958128 
Q 108.42587 233.506125 91.877873 250.054123 
L 90.746502 248.922752 
z
" style="fill: #c0392b; stroke: #c0392b; stroke-linecap: round"/>
   </g>
   <g id="patch_8">
    <path d="M 90.53437 248.71062 
Q 148.660781 190.584209 206.787193 132.457797 
L 204.38303 130.053634 
Q 210.217609 127.401036 216.052188 124.748437 
Q 213.399589 130.583016 210.746991 136.417595 
L 208.342828 134.013432 
Q 150.216416 192.139844 92.090005 250.266255 
L 90.53437 248.71062 
z
" style="fill: #c0392b; stroke: #c0392b; stroke-linecap: round"/>
   </g>
   <g id="text_17">
    <!-- S(1,1)=(3,3) -->
    <g style="fill: #c0392b" transform="translate(220.210187 120.590437) scale(0.09 -0.09)">
     <defs>
      <path id="DejaVuSans-36" d="M 3425 4513 
L 3425 3897 
Q 3066 4069 2747 4153 
Q 2428 4238 2131 4238 
Q 1616 4238 1336 4038 
Q 1056 3838 1056 3469 
Q 1056 3159 1242 3001 
Q 1428 2844 1947 2747 
L 2328 2669 
Q 3034 2534 3370 2195 
Q 3706 1856 3706 1288 
Q 3706 609 3251 259 
Q 2797 -91 1919 -91 
Q 1588 -91 1214 -16 
Q 841 59 441 206 
L 441 856 
Q 825 641 1194 531 
Q 1563 422 1919 422 
Q 2459 422 2753 634 
Q 3047 847 3047 1241 
Q 3047 1584 2836 1778 
Q 2625 1972 2144 2069 
L 1759 2144 
Q 1053 2284 737 2584 
Q 422 2884 422 3419 
Q 422 4038 858 4394 
Q 1294 4750 2059 4750 
Q 2388 4750 2728 4690 
Q 3069 4631 3425 4513 
z
" transform="scale(0.015625)"/>
      <path id="DejaVuSans-b" d="M 1984 4856 
Q 1566 4138 1362 3434 
Q 1159 2731 1159 2009 
Q 1159 1288 1364 580 
Q 1569 -128 1984 -844 
L 1484 -844 
Q 1016 -109 783 600 
Q 550 1309 550 2009 
Q 550 2706 781 3412 
Q 1013 4119 1484 4856 
L 1984 4856 
z
" transform="scale(0.015625)"/>
      <path id="DejaVuSans-f" d="M 750 794 
L 1409 794 
L 1409 256 
L 897 -744 
L 494 -744 
L 750 256 
L 750 794 
z
" transform="scale(0.015625)"/>
      <path id="DejaVuSans-c" d="M 513 4856 
L 1013 4856 
Q 1481 4119 1714 3412 
Q 1947 2706 1947 2009 
Q 1947 1309 1714 600 
Q 1481 -109 1013 -844 
L 513 -844 
Q 928 -128 1133 580 
Q 1338 1288 1338 2009 
Q 1338 2731 1133 3434 
Q 928 4138 513 4856 
z
" transform="scale(0.015625)"/>
      <path id="DejaVuSans-20" d="M 678 2906 
L 4684 2906 
L 4684 2381 
L 678 2381 
L 678 2906 
z
M 678 1631 
L 4684 1631 
L 4684 1100 
L 678 1100 
L 678 1631 
z
" transform="scale(0.015625)"/>
     </defs>
     <use xlink:href="#DejaVuSans-36"/>
     <use xlink:href="#DejaVuSans-b" transform="translate(63.484375 0)"/>
     <use xlink:href="#DejaVuSans-14" transform="translate(102.5 0)"/>
     <use xlink:href="#DejaVuSans-f" transform="translate(166.125 0)"/>
     <use xlink:href="#DejaVuSans-14" transform="translate(197.90625 0)"/>
     <use xlink:href="#DejaVuSans-c" transform="translate(261.53125 0)"/>
     <use xlink:href="#DejaVuSans-20" transform="translate(300.546875 0)"/>
     <use xlink:href="#DejaVuSans-b" transform="translate(384.34375 0)"/>
     <use xlink:href="#DejaVuSans-16" transform="translate(423.359375 0)"/>
     <use xlink:href="#DejaVuSans-f" transform="translate(486.984375 0)"/>
     <use xlink:href="#DejaVuSans-16" transform="translate(518.765625 0)"/>
     <use xlink:href="#DejaVuSans-c" transform="translate(582.390625 0)"/>
    </g>
   </g>
   <g id="patch_9">
    <path d="M 91.877873 248.922752 
Q 108.42587 265.47075 124.973868 282.018747 
L 127.590163 279.402452 
Q 130.241175 285.235445 132.892187 291.068437 
Q 127.059195 288.417425 121.226202 285.766413 
L 123.842497 283.150118 
Q 107.2945 266.60212 90.746502 250.054123 
L 91.877873 248.922752 
z
" style="fill: #2471a3; stroke: #2471a3; stroke-linecap: round"/>
   </g>
   <g id="patch_10">
    <path d="M 92.090005 248.71062 
Q 108.638002 265.258617 125.186 281.806615 
L 127.590163 279.402452 
Q 130.241175 285.235445 132.892187 291.068437 
Q 127.059195 288.417425 121.226202 285.766413 
L 123.630365 283.36225 
Q 107.082367 266.814252 90.53437 250.266255 
L 92.090005 248.71062 
z
" style="fill: #2471a3; stroke: #2471a3; stroke-linecap: round"/>
   </g>
   <g id="text_18">
    <!-- S(1,-1)=(1,-1) -->
    <g style="fill: #2471a3" transform="translate(137.050187 286.910437) scale(0.09 -0.09)">
     <defs>
      <path id="DejaVuSans-10" d="M 313 2009 
L 1997 2009 
L 1997 1497 
L 313 1497 
L 313 2009 
z
" transform="scale(0.015625)"/>
     </defs>
     <use xlink:href="#DejaVuSans-36"/>
     <use xlink:href="#DejaVuSans-b" transform="translate(63.484375 0)"/>
     <use xlink:href="#DejaVuSans-14" transform="translate(102.5 0)"/>
     <use xlink:href="#DejaVuSans-f" transform="translate(166.125 0)"/>
     <use xlink:href="#DejaVuSans-10" transform="translate(197.90625 0)"/>
     <use xlink:href="#DejaVuSans-14" transform="translate(233.984375 0)"/>
     <use xlink:href="#DejaVuSans-c" transform="translate(297.609375 0)"/>
     <use xlink:href="#DejaVuSans-20" transform="translate(336.625 0)"/>
     <use xlink:href="#DejaVuSans-b" transform="translate(420.421875 0)"/>
     <use xlink:href="#DejaVuSans-14" transform="translate(459.4375 0)"/>
     <use xlink:href="#DejaVuSans-f" transform="translate(523.0625 0)"/>
     <use xlink:href="#DejaVuSans-10" transform="translate(554.84375 0)"/>
     <use xlink:href="#DejaVuSans-14" transform="translate(590.921875 0)"/>
     <use xlink:href="#DejaVuSans-c" transform="translate(654.546875 0)"/>
    </g>
   </g>
   <g id="patch_11">
    <path d="M 91.312187 248.688437 
Q 126.891461 248.688437 162.470734 248.688437 
L 162.470734 244.988437 
Q 168.471461 247.238437 174.472187 249.488437 
Q 168.471461 251.738437 162.470734 253.988437 
L 162.470734 250.288437 
Q 126.891461 250.288437 91.312187 250.288437 
L 91.312187 248.688437 
z
" style="fill: #7f8c8d; stroke: #7f8c8d; stroke-linecap: round"/>
   </g>
   <g id="patch_12">
    <path d="M 90.820253 248.504568 
Q 168.613986 209.607701 246.40772 170.710834 
L 244.887193 167.669782 
Q 251.25969 166.99911 257.632187 166.328437 
Q 253.272152 171.024032 248.912116 175.719626 
L 247.391589 172.678574 
Q 169.597856 211.575441 91.804122 250.472307 
L 90.820253 248.504568 
z
" style="fill: #7f8c8d; stroke: #7f8c8d; stroke-linecap: round"/>
   </g>
   <g id="text_19">
    <!-- S(2,0)=(4,2) -->
    <g style="fill: #7f8c8d" transform="translate(261.790188 162.170437) scale(0.09 -0.09)">
     <use xlink:href="#DejaVuSans-36"/>
     <use xlink:href="#DejaVuSans-b" transform="translate(63.484375 0)"/>
     <use xlink:href="#DejaVuSans-15" transform="translate(102.5 0)"/>
     <use xlink:href="#DejaVuSans-f" transform="translate(166.125 0)"/>
     <use xlink:href="#DejaVuSans-13" transform="translate(197.90625 0)"/>
     <use xlink:href="#DejaVuSans-c" transform="translate(261.53125 0)"/>
     <use xlink:href="#DejaVuSans-20" transform="translate(300.546875 0)"/>
     <use xlink:href="#DejaVuSans-b" transform="translate(384.34375 0)"/>
     <use xlink:href="#DejaVuSans-17" transform="translate(423.359375 0)"/>
     <use xlink:href="#DejaVuSans-f" transform="translate(486.984375 0)"/>
     <use xlink:href="#DejaVuSans-15" transform="translate(518.765625 0)"/>
     <use xlink:href="#DejaVuSans-c" transform="translate(582.390625 0)"/>
    </g>
   </g>
   <g id="text_20">
    <!-- S=[[2,1],[1,2]]: red &amp; blue stay on their line; grey is turned -->
    <g transform="translate(47.3825 14.798437) scale(0.1 -0.1)">
     <defs>
      <path id="DejaVuSans-3e" d="M 550 4863 
L 1875 4863 
L 1875 4416 
L 1125 4416 
L 1125 -397 
L 1875 -397 
L 1875 -844 
L 550 -844 
L 550 4863 
z
" transform="scale(0.015625)"/>
      <path id="DejaVuSans-40" d="M 1947 4863 
L 1947 -844 
L 622 -844 
L 622 -397 
L 1369 -397 
L 1369 4416 
L 622 4416 
L 622 4863 
L 1947 4863 
z
" transform="scale(0.015625)"/>
      <path id="DejaVuSans-1d" d="M 750 794 
L 1409 794 
L 1409 0 
L 750 0 
L 750 794 
z
M 750 3309 
L 1409 3309 
L 1409 2516 
L 750 2516 
L 750 3309 
z
" transform="scale(0.015625)"/>
      <path id="DejaVuSans-3" transform="scale(0.015625)"/>
      <path id="DejaVuSans-55" d="M 2631 2963 
Q 2534 3019 2420 3045 
Q 2306 3072 2169 3072 
Q 1681 3072 1420 2755 
Q 1159 2438 1159 1844 
L 1159 0 
L 581 0 
L 581 3500 
L 1159 3500 
L 1159 2956 
Q 1341 3275 1631 3429 
Q 1922 3584 2338 3584 
Q 2397 3584 2469 3576 
Q 2541 3569 2628 3553 
L 2631 2963 
z
" transform="scale(0.015625)"/>
      <path id="DejaVuSans-48" d="M 3597 1894 
L 3597 1613 
L 953 1613 
Q 991 1019 1311 708 
Q 1631 397 2203 397 
Q 2534 397 2845 478 
Q 3156 559 3463 722 
L 3463 178 
Q 3153 47 2828 -22 
Q 2503 -91 2169 -91 
Q 1331 -91 842 396 
Q 353 884 353 1716 
Q 353 2575 817 3079 
Q 1281 3584 2069 3584 
Q 2775 3584 3186 3129 
Q 3597 2675 3597 1894 
z
M 3022 2063 
Q 3016 2534 2758 2815 
Q 2500 3097 2075 3097 
Q 1594 3097 1305 2825 
Q 1016 2553 972 2059 
L 3022 2063 
z
" transform="scale(0.015625)"/>
      <path id="DejaVuSans-47" d="M 2906 2969 
L 2906 4863 
L 3481 4863 
L 3481 0 
L 2906 0 
L 2906 525 
Q 2725 213 2448 61 
Q 2172 -91 1784 -91 
Q 1150 -91 751 415 
Q 353 922 353 1747 
Q 353 2572 751 3078 
Q 1150 3584 1784 3584 
Q 2172 3584 2448 3432 
Q 2725 3281 2906 2969 
z
M 947 1747 
Q 947 1113 1208 752 
Q 1469 391 1925 391 
Q 2381 391 2643 752 
Q 2906 1113 2906 1747 
Q 2906 2381 2643 2742 
Q 2381 3103 1925 3103 
Q 1469 3103 1208 2742 
Q 947 2381 947 1747 
z
" transform="scale(0.015625)"/>
      <path id="DejaVuSans-9" d="M 1556 2509 
Q 1272 2256 1139 2004 
Q 1006 1753 1006 1478 
Q 1006 1022 1337 719 
Q 1669 416 2169 416 
Q 2466 416 2725 514 
Q 2984 613 3213 813 
L 1556 2509 
z
M 1997 2859 
L 3584 1234 
Q 3769 1513 3872 1830 
Q 3975 2147 3994 2503 
L 4575 2503 
Q 4538 2091 4375 1687 
Q 4213 1284 3922 891 
L 4794 0 
L 4006 0 
L 3559 459 
Q 3234 181 2878 45 
Q 2522 -91 2113 -91 
Q 1359 -91 881 339 
Q 403 769 403 1441 
Q 403 1841 612 2192 
Q 822 2544 1241 2853 
Q 1091 3050 1012 3245 
Q 934 3441 934 3628 
Q 934 4134 1281 4442 
Q 1628 4750 2203 4750 
Q 2463 4750 2720 4694 
Q 2978 4638 3244 4525 
L 3244 3956 
Q 2972 4103 2725 4179 
Q 2478 4256 2266 4256 
Q 1938 4256 1733 4082 
Q 1528 3909 1528 3634 
Q 1528 3475 1620 3314 
Q 1713 3153 1997 2859 
z
" transform="scale(0.015625)"/>
      <path id="DejaVuSans-45" d="M 3116 1747 
Q 3116 2381 2855 2742 
Q 2594 3103 2138 3103 
Q 1681 3103 1420 2742 
Q 1159 2381 1159 1747 
Q 1159 1113 1420 752 
Q 1681 391 2138 391 
Q 2594 391 2855 752 
Q 3116 1113 3116 1747 
z
M 1159 2969 
Q 1341 3281 1617 3432 
Q 1894 3584 2278 3584 
Q 2916 3584 3314 3078 
Q 3713 2572 3713 1747 
Q 3713 922 3314 415 
Q 2916 -91 2278 -91 
Q 1894 -91 1617 61 
Q 1341 213 1159 525 
L 1159 0 
L 581 0 
L 581 4863 
L 1159 4863 
L 1159 2969 
z
" transform="scale(0.015625)"/>
      <path id="DejaVuSans-4f" d="M 603 4863 
L 1178 4863 
L 1178 0 
L 603 0 
L 603 4863 
z
" transform="scale(0.015625)"/>
      <path id="DejaVuSans-58" d="M 544 1381 
L 544 3500 
L 1119 3500 
L 1119 1403 
Q 1119 906 1312 657 
Q 1506 409 1894 409 
Q 2359 409 2629 706 
Q 2900 1003 2900 1516 
L 2900 3500 
L 3475 3500 
L 3475 0 
L 2900 0 
L 2900 538 
Q 2691 219 2414 64 
Q 2138 -91 1772 -91 
Q 1169 -91 856 284 
Q 544 659 544 1381 
z
M 1991 3584 
L 1991 3584 
z
" transform="scale(0.015625)"/>
      <path id="DejaVuSans-56" d="M 2834 3397 
L 2834 2853 
Q 2591 2978 2328 3040 
Q 2066 3103 1784 3103 
Q 1356 3103 1142 2972 
Q 928 2841 928 2578 
Q 928 2378 1081 2264 
Q 1234 2150 1697 2047 
L 1894 2003 
Q 2506 1872 2764 1633 
Q 3022 1394 3022 966 
Q 3022 478 2636 193 
Q 2250 -91 1575 -91 
Q 1294 -91 989 -36 
Q 684 19 347 128 
L 347 722 
Q 666 556 975 473 
Q 1284 391 1588 391 
Q 1994 391 2212 530 
Q 2431 669 2431 922 
Q 2431 1156 2273 1281 
Q 2116 1406 1581 1522 
L 1381 1569 
Q 847 1681 609 1914 
Q 372 2147 372 2553 
Q 372 3047 722 3315 
Q 1072 3584 1716 3584 
Q 2034 3584 2315 3537 
Q 2597 3491 2834 3397 
z
" transform="scale(0.015625)"/>
      <path id="DejaVuSans-57" d="M 1172 4494 
L 1172 3500 
L 2356 3500 
L 2356 3053 
L 1172 3053 
L 1172 1153 
Q 1172 725 1289 603 
Q 1406 481 1766 481 
L 2356 481 
L 2356 0 
L 1766 0 
Q 1100 0 847 248 
Q 594 497 594 1153 
L 594 3053 
L 172 3053 
L 172 3500 
L 594 3500 
L 594 4494 
L 1172 4494 
z
" transform="scale(0.015625)"/>
      <path id="DejaVuSans-44" d="M 2194 1759 
Q 1497 1759 1228 1600 
Q 959 1441 959 1056 
Q 959 750 1161 570 
Q 1363 391 1709 391 
Q 2188 391 2477 730 
Q 2766 1069 2766 1631 
L 2766 1759 
L 2194 1759 
z
M 3341 1997 
L 3341 0 
L 2766 0 
L 2766 531 
Q 2569 213 2275 61 
Q 1981 -91 1556 -91 
Q 1019 -91 701 211 
Q 384 513 384 1019 
Q 384 1609 779 1909 
Q 1175 2209 1959 2209 
L 2766 2209 
L 2766 2266 
Q 2766 2663 2505 2880 
Q 2244 3097 1772 3097 
Q 1472 3097 1187 3025 
Q 903 2953 641 2809 
L 641 3341 
Q 956 3463 1253 3523 
Q 1550 3584 1831 3584 
Q 2591 3584 2966 3190 
Q 3341 2797 3341 1997 
z
" transform="scale(0.015625)"/>
      <path id="DejaVuSans-5c" d="M 2059 -325 
Q 1816 -950 1584 -1140 
Q 1353 -1331 966 -1331 
L 506 -1331 
L 506 -850 
L 844 -850 
Q 1081 -850 1212 -737 
Q 1344 -625 1503 -206 
L 1606 56 
L 191 3500 
L 800 3500 
L 1894 763 
L 2988 3500 
L 3597 3500 
L 2059 -325 
z
" transform="scale(0.015625)"/>
      <path id="DejaVuSans-52" d="M 1959 3097 
Q 1497 3097 1228 2736 
Q 959 2375 959 1747 
Q 959 1119 1226 758 
Q 1494 397 1959 397 
Q 2419 397 2687 759 
Q 2956 1122 2956 1747 
Q 2956 2369 2687 2733 
Q 2419 3097 1959 3097 
z
M 1959 3584 
Q 2709 3584 3137 3096 
Q 3566 2609 3566 1747 
Q 3566 888 3137 398 
Q 2709 -91 1959 -91 
Q 1206 -91 779 398 
Q 353 888 353 1747 
Q 353 2609 779 3096 
Q 1206 3584 1959 3584 
z
" transform="scale(0.015625)"/>
      <path id="DejaVuSans-51" d="M 3513 2113 
L 3513 0 
L 2938 0 
L 2938 2094 
Q 2938 2591 2744 2837 
Q 2550 3084 2163 3084 
Q 1697 3084 1428 2787 
Q 1159 2491 1159 1978 
L 1159 0 
L 581 0 
L 581 3500 
L 1159 3500 
L 1159 2956 
Q 1366 3272 1645 3428 
Q 1925 3584 2291 3584 
Q 2894 3584 3203 3211 
Q 3513 2838 3513 2113 
z
" transform="scale(0.015625)"/>
      <path id="DejaVuSans-4b" d="M 3513 2113 
L 3513 0 
L 2938 0 
L 2938 2094 
Q 2938 2591 2744 2837 
Q 2550 3084 2163 3084 
Q 1697 3084 1428 2787 
Q 1159 2491 1159 1978 
L 1159 0 
L 581 0 
L 581 4863 
L 1159 4863 
L 1159 2956 
Q 1366 3272 1645 3428 
Q 1925 3584 2291 3584 
Q 2894 3584 3203 3211 
Q 3513 2838 3513 2113 
z
" transform="scale(0.015625)"/>
      <path id="DejaVuSans-4c" d="M 603 3500 
L 1178 3500 
L 1178 0 
L 603 0 
L 603 3500 
z
M 603 4863 
L 1178 4863 
L 1178 4134 
L 603 4134 
L 603 4863 
z
" transform="scale(0.015625)"/>
      <path id="DejaVuSans-1e" d="M 750 3309 
L 1409 3309 
L 1409 2516 
L 750 2516 
L 750 3309 
z
M 750 794 
L 1409 794 
L 1409 256 
L 897 -744 
L 494 -744 
L 750 256 
L 750 794 
z
" transform="scale(0.015625)"/>
      <path id="DejaVuSans-4a" d="M 2906 1791 
Q 2906 2416 2648 2759 
Q 2391 3103 1925 3103 
Q 1463 3103 1205 2759 
Q 947 2416 947 1791 
Q 947 1169 1205 825 
Q 1463 481 1925 481 
Q 2391 481 2648 825 
Q 2906 1169 2906 1791 
z
M 3481 434 
Q 3481 -459 3084 -895 
Q 2688 -1331 1869 -1331 
Q 1566 -1331 1297 -1286 
Q 1028 -1241 775 -1147 
L 775 -588 
Q 1028 -725 1275 -790 
Q 1522 -856 1778 -856 
Q 2344 -856 2625 -561 
Q 2906 -266 2906 331 
L 2906 616 
Q 2728 306 2450 153 
Q 2172 0 1784 0 
Q 1141 0 747 490 
Q 353 981 353 1791 
Q 353 2603 747 3093 
Q 1141 3584 1784 3584 
Q 2172 3584 2450 3431 
Q 2728 3278 2906 2969 
L 2906 3500 
L 3481 3500 
L 3481 434 
z
" transform="scale(0.015625)"/>
     </defs>
     <use xlink:href="#DejaVuSans-36"/>
     <use xlink:href="#DejaVuSans-20" transform="translate(63.484375 0)"/>
     <use xlink:href="#DejaVuSans-3e" transform="translate(147.28125 0)"/>
     <use xlink:href="#DejaVuSans-3e" transform="translate(186.296875 0)"/>
     <use xlink:href="#DejaVuSans-15" transform="translate(225.3125 0)"/>
     <use xlink:href="#DejaVuSans-f" transform="translate(288.9375 0)"/>
     <use xlink:href="#DejaVuSans-14" transform="translate(320.71875 0)"/>
     <use xlink:href="#DejaVuSans-40" transform="translate(384.34375 0)"/>
     <use xlink:href="#DejaVuSans-f" transform="translate(423.359375 0)"/>
     <use xlink:href="#DejaVuSans-3e" transform="translate(455.140625 0)"/>
     <use xlink:href="#DejaVuSans-14" transform="translate(494.15625 0)"/>
     <use xlink:href="#DejaVuSans-f" transform="translate(557.78125 0)"/>
     <use xlink:href="#DejaVuSans-15" transform="translate(589.5625 0)"/>
     <use xlink:href="#DejaVuSans-40" transform="translate(653.1875 0)"/>
     <use xlink:href="#DejaVuSans-40" transform="translate(692.203125 0)"/>
     <use xlink:href="#DejaVuSans-1d" transform="translate(731.21875 0)"/>
     <use xlink:href="#DejaVuSans-3" transform="translate(764.90625 0)"/>
     <use xlink:href="#DejaVuSans-55" transform="translate(796.6875 0)"/>
     <use xlink:href="#DejaVuSans-48" transform="translate(835.59375 0)"/>
     <use xlink:href="#DejaVuSans-47" transform="translate(897.125 0)"/>
     <use xlink:href="#DejaVuSans-3" transform="translate(960.609375 0)"/>
     <use xlink:href="#DejaVuSans-9" transform="translate(992.390625 0)"/>
     <use xlink:href="#DejaVuSans-3" transform="translate(1070.375 0)"/>
     <use xlink:href="#DejaVuSans-45" transform="translate(1102.15625 0)"/>
     <use xlink:href="#DejaVuSans-4f" transform="translate(1165.640625 0)"/>
     <use xlink:href="#DejaVuSans-58" transform="translate(1193.421875 0)"/>
     <use xlink:href="#DejaVuSans-48" transform="translate(1256.796875 0)"/>
     <use xlink:href="#DejaVuSans-3" transform="translate(1318.328125 0)"/>
     <use xlink:href="#DejaVuSans-56" transform="translate(1350.109375 0)"/>
     <use xlink:href="#DejaVuSans-57" transform="translate(1402.203125 0)"/>
     <use xlink:href="#DejaVuSans-44" transform="translate(1441.40625 0)"/>
     <use xlink:href="#DejaVuSans-5c" transform="translate(1502.6875 0)"/>
     <use xlink:href="#DejaVuSans-3" transform="translate(1561.875 0)"/>
     <use xlink:href="#DejaVuSans-52" transform="translate(1593.65625 0)"/>
     <use xlink:href="#DejaVuSans-51" transform="translate(1654.84375 0)"/>
     <use xlink:href="#DejaVuSans-3" transform="translate(1718.21875 0)"/>
     <use xlink:href="#DejaVuSans-57" transform="translate(1750 0)"/>
     <use xlink:href="#DejaVuSans-4b" transform="translate(1789.203125 0)"/>
     <use xlink:href="#DejaVuSans-48" transform="translate(1852.578125 0)"/>
     <use xlink:href="#DejaVuSans-4c" transform="translate(1914.109375 0)"/>
     <use xlink:href="#DejaVuSans-55" transform="translate(1941.890625 0)"/>
     <use xlink:href="#DejaVuSans-3" transform="translate(1983 0)"/>
     <use xlink:href="#DejaVuSans-4f" transform="translate(2014.78125 0)"/>
     <use xlink:href="#DejaVuSans-4c" transform="translate(2042.5625 0)"/>
     <use xlink:href="#DejaVuSans-51" transform="translate(2070.34375 0)"/>
     <use xlink:href="#DejaVuSans-48" transform="translate(2133.71875 0)"/>
     <use xlink:href="#DejaVuSans-1e" transform="translate(2195.25 0)"/>
     <use xlink:href="#DejaVuSans-3" transform="translate(2228.9375 0)"/>
     <use xlink:href="#DejaVuSans-4a" transform="translate(2260.71875 0)"/>
     <use xlink:href="#DejaVuSans-55" transform="translate(2324.203125 0)"/>
     <use xlink:href="#DejaVuSans-48" transform="translate(2363.109375 0)"/>
     <use xlink:href="#DejaVuSans-5c" transform="translate(2424.640625 0)"/>
     <use xlink:href="#DejaVuSans-3" transform="translate(2483.828125 0)"/>
     <use xlink:href="#DejaVuSans-4c" transform="translate(2515.609375 0)"/>
     <use xlink:href="#DejaVuSans-56" transform="translate(2543.390625 0)"/>
     <use xlink:href="#DejaVuSans-3" transform="translate(2595.484375 0)"/>
     <use xlink:href="#DejaVuSans-57" transform="translate(2627.265625 0)"/>
     <use xlink:href="#DejaVuSans-58" transform="translate(2666.46875 0)"/>
     <use xlink:href="#DejaVuSans-55" transform="translate(2729.84375 0)"/>
     <use xlink:href="#DejaVuSans-51" transform="translate(2769.203125 0)"/>
     <use xlink:href="#DejaVuSans-48" transform="translate(2832.578125 0)"/>
     <use xlink:href="#DejaVuSans-47" transform="translate(2894.109375 0)"/>
    </g>
   </g>
  </g>
 </g>
 <defs>
  <clipPath id="p5b89eb8740">
   <rect x="28.942187" y="20.798437" width="332.64" height="332.64"/>
  </clipPath>
 </defs>
</svg>
