<?xml version="1.0" encoding="utf-8" standalone="no"?>
<!DOCTYPE svg PUBLIC "-//W3C//DTD SVG 1.1//EN"
  "http://www.w3.org/Graphics/SVG/1.1/DTD/svg11.dtd">
<svg xmlns:xlink="http://www.w3.org/1999/xlink" width="669.6pt" height="349.438594pt" viewBox="0 0 669.6 349.438594" xmlns="http://www.w3.org/2000/svg" version="1.1">
 <metadata>
  <rdf:RDF xmlns:dc="http://purl.org/dc/elements/1.1/" xmlns:cc="http://creativecommons.org/ns#" xmlns:rdf="http://www.w3.org/1999/02/22-rdf-syntax-ns#">
   <cc:Work>
    <dc:type rdf:resource="http://purl.org/dc/dcmitype/StillImage"/>
    <dc:date>2026-06-13T19:07:49.150210</dc:date>
    <dc:format>image/svg+xml</dc:format>
    <dc:creator>
     <cc:Agent>
      <dc:title>Matplotlib v3.11.0, https://matplotlib.org/</dc:title>
     </cc:Agent>
    </dc:creator>
   </cc:Work>
  </rdf:RDF>
 </metadata>
 <defs>
  <style type="text/css">*{stroke-linejoin: round; stroke-linecap: butt}</style>
 </defs>
 <g id="figure_1">
  <g id="patch_1">
   <path d="M 0 349.438594 
L 669.6 349.438594 
L 669.6 0 
L 0 0 
z
" style="fill: #ffffff"/>
  </g>
  <g id="axes_1">
   <g id="patch_2">
    <path d="M 7.2 342.238594 
L 329.4 342.238594 
L 329.4 20.038594 
L 7.2 20.038594 
z
" style="fill: #ffffff"/>
   </g>
   <g id="matplotlib.axis_1"/>
   <g id="matplotlib.axis_2"/>
   <g id="line2d_1">
    <path d="M 7.2 181.138594 
L 329.4 181.138594 
" clip-path="url(#pd3e7ca770f)" style="fill: none; stroke: #666666; stroke-width: 0.6; stroke-linecap: square"/>
   </g>
   <g id="line2d_2">
    <path d="M 168.3 342.238594 
L 168.3 20.038594 
" clip-path="url(#pd3e7ca770f)" style="fill: none; stroke: #666666; stroke-width: 0.6; stroke-linecap: square"/>
   </g>
   <g id="patch_3">
    <path d="M 7.2 342.238594 
L 7.2 20.038594 
" style="fill: none; stroke: #000000; stroke-width: 0.8; stroke-linejoin: miter; stroke-linecap: square"/>
   </g>
   <g id="patch_4">
    <path d="M 329.4 342.238594 
L 329.4 20.038594 
" style="fill: none; stroke: #000000; stroke-width: 0.8; stroke-linejoin: miter; stroke-linecap: square"/>
   </g>
   <g id="patch_5">
    <path d="M 7.2 342.238594 
L 329.4 342.238594 
" style="fill: none; stroke: #000000; stroke-width: 0.8; stroke-linejoin: miter; stroke-linecap: square"/>
   </g>
   <g id="patch_6">
    <path d="M 7.2 20.038594 
L 329.4 20.038594 
" style="fill: none; stroke: #000000; stroke-width: 0.8; stroke-linejoin: miter; stroke-linecap: square"/>
   </g>
   <g id="patch_7">
    <path d="M 168.3 180.838594 
Q 191.068115 180.838594 213.836231 180.838594 
L 213.836231 179.138594 
Q 219.835973 180.138594 225.835714 181.138594 
Q 219.835973 182.138594 213.836231 183.138594 
L 213.836231 181.438594 
Q 191.068115 181.438594 168.3 181.438594 
L 168.3 180.838594 
z
" style="fill: #bfbfbf; stroke: #bfbfbf; stroke-linecap: round"/>
   </g>
   <g id="patch_8">
    <path d="M 167.910289 180.913594 
Q 179.294346 161.195827 190.678404 141.478061 
L 188.903052 140.453061 
Q 192.985455 135.882132 197.067857 131.311204 
Q 195.150518 137.132132 193.233179 142.953061 
L 191.457827 141.928061 
Q 180.073769 161.645827 168.689711 181.363594 
L 167.910289 180.913594 
z
" style="fill: #2471a3; stroke: #2471a3; stroke-linecap: round"/>
   </g>
   <g id="patch_9">
    <path d="M 168.21548 180.850746 
Q 190.061327 174.436226 211.907174 168.021707 
L 211.428228 166.390569 
Q 217.466671 165.659739 223.505114 164.92891 
Q 218.030136 167.578725 212.555159 170.228541 
L 212.076213 168.597403 
Q 190.230367 175.011922 168.38452 181.426442 
L 168.21548 180.850746 
z
" style="fill: #bfbfbf; stroke: #bfbfbf; stroke-linecap: round"/>
   </g>
   <g id="patch_10">
    <path d="M 167.862685 181.032502 
Q 173.230471 158.906184 178.598258 136.779866 
L 176.606044 136.29656 
Q 179.235302 130.760641 181.864559 125.224721 
Q 181.66483 131.350038 181.465102 137.475355 
L 179.472889 136.992049 
Q 174.105102 159.118367 168.737315 181.244685 
L 167.862685 181.032502 
z
" style="fill: #2471a3; stroke: #2471a3; stroke-linecap: round"/>
   </g>
   <g id="patch_11">
    <path d="M 168.137808 180.886218 
Q 187.291565 168.576845 206.445323 156.267473 
L 205.526233 154.837342 
Q 211.114178 152.43489 216.702123 150.032438 
Q 212.19546 154.117397 207.688797 158.202356 
L 206.769707 156.772225 
Q 187.61595 169.081597 168.462192 181.39097 
L 168.137808 180.886218 
z
" style="fill: #bfbfbf; stroke: #bfbfbf; stroke-linecap: round"/>
   </g>
   <g id="patch_12">
    <path d="M 167.85051 181.160006 
Q 166.767159 158.417679 165.683809 135.675352 
L 163.636131 135.772895 
Q 164.599236 129.720471 165.56234 123.668048 
Q 167.096404 129.601517 168.630467 135.534985 
L 166.582789 135.632528 
Q 167.66614 158.374855 168.74949 181.117182 
L 167.85051 181.160006 
z
" style="fill: #2471a3; stroke: #2471a3; stroke-linecap: round"/>
   </g>
   <g id="patch_13">
    <path d="M 168.073275 180.942136 
Q 182.98322 163.735142 197.893165 146.528148 
L 196.60839 145.414885 
Q 201.293135 141.535444 205.97788 137.656002 
Q 202.804634 142.845165 199.631389 148.034328 
L 198.346614 146.921065 
Q 183.43667 164.128058 168.526725 181.335052 
L 168.073275 180.942136 
z
" style="fill: #bfbfbf; stroke: #bfbfbf; stroke-linecap: round"/>
   </g>
   <g id="patch_14">
    <path d="M 167.87475 181.285774 
Q 160.428028 159.769887 152.981307 138.253999 
L 151.044056 138.924488 
Q 150.262983 132.845892 149.481911 126.767297 
Q 152.625485 132.028223 155.76906 137.289148 
L 153.831808 137.959638 
Q 161.278529 159.475525 168.72525 180.991413 
L 167.87475 181.285774 
z
" style="fill: #2471a3; stroke: #2471a3; stroke-linecap: round"/>
   </g>
   <g id="patch_15">
    <path d="M 168.02711 181.013969 
Q 177.485327 160.303363 186.943544 139.592757 
L 185.39717 138.886551 
Q 188.799185 133.844409 192.201199 128.802267 
Q 190.618449 134.675239 189.035698 140.548211 
L 187.489324 139.842006 
Q 178.031107 160.552612 168.57289 181.263218 
L 168.02711 181.013969 
z
" style="fill: #bfbfbf; stroke: #bfbfbf; stroke-linecap: round"/>
   </g>
   <g id="patch_16">
    <path d="M 167.933441 181.399619 
Q 154.726638 162.85326 141.519835 144.306901 
L 139.849955 145.496017 
Q 137.387983 139.883701 134.926011 134.271385 
Q 139.424423 138.433559 143.922835 142.595733 
L 142.252954 143.784849 
Q 155.459756 162.331209 168.666559 180.877568 
L 167.933441 181.399619 
z
" style="fill: #2471a3; stroke: #2471a3; stroke-linecap: round"/>
   </g>
   <g id="patch_17">
    <path d="M 168.003054 181.095899 
Q 171.243294 158.55953 174.483535 136.023162 
L 172.800838 135.781226 
Q 174.644512 129.984868 176.488186 124.18851 
Q 176.624155 130.269498 176.760124 136.350486 
L 175.077428 136.10855 
Q 171.837187 158.644919 168.596946 181.181288 
L 168.003054 181.095899 
z
" style="fill: #bfbfbf; stroke: #bfbfbf; stroke-linecap: round"/>
   </g>
   <g id="patch_18">
    <path d="M 168.021828 181.492318 
Q 150.124881 167.418002 132.227933 153.343687 
L 130.960707 154.955096 
Q 127.017291 150.263736 123.073874 145.572375 
Q 128.562688 148.298603 134.051502 151.024831 
L 132.784276 152.63624 
Q 150.681224 166.710555 168.578172 180.78487 
L 168.021828 181.492318 
z
" style="fill: #2471a3; stroke: #2471a3; stroke-linecap: round"/>
   </g>
   <g id="patch_19">
    <path d="M 168.003054 181.181288 
Q 164.762813 158.644919 161.522572 136.10855 
L 159.839876 136.350486 
Q 159.975845 130.269498 160.111814 124.18851 
Q 161.955488 129.984868 163.799162 135.781226 
L 162.116465 136.023162 
Q 165.356706 158.55953 168.596946 181.095899 
L 168.003054 181.181288 
z
" style="fill: #bfbfbf; stroke: #bfbfbf; stroke-linecap: round"/>
   </g>
   <g id="patch_20">
    <path d="M 168.132752 181.556359 
Q 146.995564 173.094306 125.858375 164.632252 
L 125.096467 166.535406 
Q 119.991078 163.145068 114.885688 159.754729 
Q 120.920234 160.824148 126.95478 161.893567 
L 126.192872 163.796721 
Q 147.33006 172.258774 168.467248 180.720828 
L 168.132752 181.556359 
z
" style="fill: #2471a3; stroke: #2471a3; stroke-linecap: round"/>
   </g>
   <g id="patch_21">
    <path d="M 168.02711 181.263218 
Q 158.568893 160.552612 149.110676 139.842006 
L 147.564302 140.548211 
Q 145.981551 134.675239 144.398801 128.802267 
Q 147.800815 133.844409 151.20283 138.886551 
L 149.656456 139.592757 
Q 159.114673 160.303363 168.57289 181.013969 
L 168.02711 181.263218 
z
" style="fill: #bfbfbf; stroke: #bfbfbf; stroke-linecap: round"/>
   </g>
   <g id="patch_22">
    <path d="M 168.257225 181.586556 
Q 145.592205 179.422309 122.927185 177.258062 
L 122.732321 179.29878 
Q 116.878566 177.484128 111.024812 175.669476 
Q 117.116206 174.995448 123.207601 174.32142 
L 123.012736 176.362137 
Q 145.677756 178.526384 168.342775 180.690631 
L 168.257225 181.586556 
z
" style="fill: #2471a3; stroke: #2471a3; stroke-linecap: round"/>
   </g>
   <g id="patch_23">
    <path d="M 168.073275 181.335052 
Q 153.16333 164.128058 138.253386 146.921065 
L 136.968611 148.034328 
Q 133.795366 142.845165 130.62212 137.656002 
Q 135.306865 141.535444 139.99161 145.414885 
L 138.706835 146.528148 
Q 153.61678 163.735142 168.526725 180.942136 
L 168.073275 181.335052 
z
" style="fill: #bfbfbf; stroke: #bfbfbf; stroke-linecap: round"/>
   </g>
   <g id="patch_24">
    <path d="M 168.385163 181.580462 
Q 146.028497 185.889356 123.671831 190.19825 
L 124.059796 192.211204 
Q 117.931914 192.119252 111.804031 192.027299 
Q 117.458786 189.66443 123.11354 187.30156 
L 123.501505 189.314514 
Q 145.858171 185.00562 168.214837 180.696726 
L 168.385163 181.580462 
z
" style="fill: #2471a3; stroke: #2471a3; stroke-linecap: round"/>
   </g>
   <g id="patch_25">
    <path d="M 168.137808 181.39097 
Q 148.98405 169.081597 129.830293 156.772225 
L 128.911203 158.202356 
Q 124.40454 154.117397 119.897877 150.032438 
Q 125.485822 152.43489 131.073767 154.837342 
L 130.154677 156.267473 
Q 149.308435 168.576845 168.462192 180.886218 
L 168.137808 181.39097 
z
" style="fill: #bfbfbf; stroke: #bfbfbf; stroke-linecap: round"/>
   </g>
   <g id="patch_26">
    <path d="M 168.506202 181.53857 
Q 148.269094 191.971524 128.031986 202.404478 
L 128.97135 204.226591 
Q 123.065784 205.864788 117.160218 207.502984 
Q 121.920218 203.642699 126.680217 199.782414 
L 127.619582 201.604526 
Q 147.85669 191.171572 168.093798 180.738618 
L 168.506202 181.53857 
z
" style="fill: #2471a3; stroke: #2471a3; stroke-linecap: round"/>
   </g>
   <g id="patch_27">
    <path d="M 168.21548 181.426442 
Q 146.369633 175.011922 124.523787 168.597403 
L 124.044841 170.228541 
Q 118.569864 167.578725 113.094886 164.92891 
Q 119.133329 165.659739 125.171772 166.390569 
L 124.692826 168.021707 
Q 146.538673 174.436226 168.38452 180.850746 
L 168.21548 181.426442 
z
" style="fill: #bfbfbf; stroke: #bfbfbf; stroke-linecap: round"/>
   </g>
   <g id="patch_28">
    <path d="M 168.610536 181.464274 
Q 152.132475 197.176073 135.654415 212.887871 
L 137.069077 214.371526 
Q 131.864261 217.607154 126.659445 220.842783 
Q 130.139064 215.797819 133.618682 210.752856 
L 135.033344 212.236511 
Q 151.511404 196.524712 167.989464 180.812913 
L 168.610536 181.464274 
z
" style="fill: #2471a3; stroke: #2471a3; stroke-linecap: round"/>
   </g>
   <g id="patch_29">
    <path d="M 168.3 181.438594 
Q 145.531885 181.438594 122.763769 181.438594 
L 122.763769 183.138594 
Q 116.764027 182.138594 110.764286 181.138594 
Q 116.764027 180.138594 122.763769 179.138594 
L 122.763769 180.838594 
Q 145.531885 180.838594 168.3 180.838594 
L 168.3 181.438594 
z
" style="fill: #bfbfbf; stroke: #bfbfbf; stroke-linecap: round"/>
   </g>
   <g id="patch_30">
    <path d="M 168.689711 181.363594 
Q 157.305654 201.08136 145.921596 220.799127 
L 147.696948 221.824127 
Q 143.614545 226.395055 139.532143 230.965984 
Q 141.449482 225.145055 143.366821 219.324127 
L 145.142173 220.349127 
Q 156.526231 200.63136 167.910289 180.913594 
L 168.689711 181.363594 
z
" style="fill: #2471a3; stroke: #2471a3; stroke-linecap: round"/>
   </g>
   <g id="text_1">
    <!-- R(60): every arrow turns 60 - - no fixed line -->
    <g transform="translate(72.282656 14.038594) scale(0.09 -0.09)">
     <defs>
      <path id="DejaVuSans-35" d="M 2841 2188 
Q 3044 2119 3236 1894 
Q 3428 1669 3622 1275 
L 4263 0 
L 3584 0 
L 2988 1197 
Q 2756 1666 2539 1819 
Q 2322 1972 1947 1972 
L 1259 1972 
L 1259 0 
L 628 0 
L 628 4666 
L 2053 4666 
Q 2853 4666 3247 4331 
Q 3641 3997 3641 3322 
Q 3641 2881 3436 2590 
Q 3231 2300 2841 2188 
z
M 1259 4147 
L 1259 2491 
L 2053 2491 
Q 2509 2491 2742 2702 
Q 2975 2913 2975 3322 
Q 2975 3731 2742 3939 
Q 2509 4147 2053 4147 
L 1259 4147 
z
" transform="scale(0.015625)"/>
      <path id="DejaVuSans-b" d="M 1984 4856 
Q 1566 4138 1362 3434 
Q 1159 2731 1159 2009 
Q 1159 1288 1364 580 
Q 1569 -128 1984 -844 
L 1484 -844 
Q 1016 -109 783 600 
Q 550 1309 550 2009 
Q 550 2706 781 3412 
Q 1013 4119 1484 4856 
L 1984 4856 
z
" transform="scale(0.015625)"/>
      <path id="DejaVuSans-19" d="M 2113 2584 
Q 1688 2584 1439 2293 
Q 1191 2003 1191 1497 
Q 1191 994 1439 701 
Q 1688 409 2113 409 
Q 2538 409 2786 701 
Q 3034 994 3034 1497 
Q 3034 2003 2786 2293 
Q 2538 2584 2113 2584 
z
M 3366 4563 
L 3366 3988 
Q 3128 4100 2886 4159 
Q 2644 4219 2406 4219 
Q 1781 4219 1451 3797 
Q 1122 3375 1075 2522 
Q 1259 2794 1537 2939 
Q 1816 3084 2150 3084 
Q 2853 3084 3261 2657 
Q 3669 2231 3669 1497 
Q 3669 778 3244 343 
Q 2819 -91 2113 -91 
Q 1303 -91 875 529 
Q 447 1150 447 2328 
Q 447 3434 972 4092 
Q 1497 4750 2381 4750 
Q 2619 4750 2861 4703 
Q 3103 4656 3366 4563 
z
" transform="scale(0.015625)"/>
      <path id="DejaVuSans-13" d="M 2034 4250 
Q 1547 4250 1301 3770 
Q 1056 3291 1056 2328 
Q 1056 1369 1301 889 
Q 1547 409 2034 409 
Q 2525 409 2770 889 
Q 3016 1369 3016 2328 
Q 3016 3291 2770 3770 
Q 2525 4250 2034 4250 
z
M 2034 4750 
Q 2819 4750 3233 4129 
Q 3647 3509 3647 2328 
Q 3647 1150 3233 529 
Q 2819 -91 2034 -91 
Q 1250 -91 836 529 
Q 422 1150 422 2328 
Q 422 3509 836 4129 
Q 1250 4750 2034 4750 
z
" transform="scale(0.015625)"/>
      <path id="DejaVuSans-c" d="M 513 4856 
L 1013 4856 
Q 1481 4119 1714 3412 
Q 1947 2706 1947 2009 
Q 1947 1309 1714 600 
Q 1481 -109 1013 -844 
L 513 -844 
Q 928 -128 1133 580 
Q 1338 1288 1338 2009 
Q 1338 2731 1133 3434 
Q 928 4138 513 4856 
z
" transform="scale(0.015625)"/>
      <path id="DejaVuSans-1d" d="M 750 794 
L 1409 794 
L 1409 0 
L 750 0 
L 750 794 
z
M 750 3309 
L 1409 3309 
L 1409 2516 
L 750 2516 
L 750 3309 
z
" transform="scale(0.015625)"/>
      <path id="DejaVuSans-3" transform="scale(0.015625)"/>
      <path id="DejaVuSans-48" d="M 3597 1894 
L 3597 1613 
L 953 1613 
Q 991 1019 1311 708 
Q 1631 397 2203 397 
Q 2534 397 2845 478 
Q 3156 559 3463 722 
L 3463 178 
Q 3153 47 2828 -22 
Q 2503 -91 2169 -91 
Q 1331 -91 842 396 
Q 353 884 353 1716 
Q 353 2575 817 3079 
Q 1281 3584 2069 3584 
Q 2775 3584 3186 3129 
Q 3597 2675 3597 1894 
z
M 3022 2063 
Q 3016 2534 2758 2815 
Q 2500 3097 2075 3097 
Q 1594 3097 1305 2825 
Q 1016 2553 972 2059 
L 3022 2063 
z
" transform="scale(0.015625)"/>
      <path id="DejaVuSans-59" d="M 191 3500 
L 800 3500 
L 1894 563 
L 2988 3500 
L 3597 3500 
L 2284 0 
L 1503 0 
L 191 3500 
z
" transform="scale(0.015625)"/>
      <path id="DejaVuSans-55" d="M 2631 2963 
Q 2534 3019 2420 3045 
Q 2306 3072 2169 3072 
Q 1681 3072 1420 2755 
Q 1159 2438 1159 1844 
L 1159 0 
L 581 0 
L 581 3500 
L 1159 3500 
L 1159 2956 
Q 1341 3275 1631 3429 
Q 1922 3584 2338 3584 
Q 2397 3584 2469 3576 
Q 2541 3569 2628 3553 
L 2631 2963 
z
" transform="scale(0.015625)"/>
      <path id="DejaVuSans-5c" d="M 2059 -325 
Q 1816 -950 1584 -1140 
Q 1353 -1331 966 -1331 
L 506 -1331 
L 506 -850 
L 844 -850 
Q 1081 -850 1212 -737 
Q 1344 -625 1503 -206 
L 1606 56 
L 191 3500 
L 800 3500 
L 1894 763 
L 2988 3500 
L 3597 3500 
L 2059 -325 
z
" transform="scale(0.015625)"/>
      <path id="DejaVuSans-44" d="M 2194 1759 
Q 1497 1759 1228 1600 
Q 959 1441 959 1056 
Q 959 750 1161 570 
Q 1363 391 1709 391 
Q 2188 391 2477 730 
Q 2766 1069 2766 1631 
L 2766 1759 
L 2194 1759 
z
M 3341 1997 
L 3341 0 
L 2766 0 
L 2766 531 
Q 2569 213 2275 61 
Q 1981 -91 1556 -91 
Q 1019 -91 701 211 
Q 384 513 384 1019 
Q 384 1609 779 1909 
Q 1175 2209 1959 2209 
L 2766 2209 
L 2766 2266 
Q 2766 2663 2505 2880 
Q 2244 3097 1772 3097 
Q 1472 3097 1187 3025 
Q 903 2953 641 2809 
L 641 3341 
Q 956 3463 1253 3523 
Q 1550 3584 1831 3584 
Q 2591 3584 2966 3190 
Q 3341 2797 3341 1997 
z
" transform="scale(0.015625)"/>
      <path id="DejaVuSans-52" d="M 1959 3097 
Q 1497 3097 1228 2736 
Q 959 2375 959 1747 
Q 959 1119 1226 758 
Q 1494 397 1959 397 
Q 2419 397 2687 759 
Q 2956 1122 2956 1747 
Q 2956 2369 2687 2733 
Q 2419 3097 1959 3097 
z
M 1959 3584 
Q 2709 3584 3137 3096 
Q 3566 2609 3566 1747 
Q 3566 888 3137 398 
Q 2709 -91 1959 -91 
Q 1206 -91 779 398 
Q 353 888 353 1747 
Q 353 2609 779 3096 
Q 1206 3584 1959 3584 
z
" transform="scale(0.015625)"/>
      <path id="DejaVuSans-5a" d="M 269 3500 
L 844 3500 
L 1563 769 
L 2278 3500 
L 2956 3500 
L 3675 769 
L 4391 3500 
L 4966 3500 
L 4050 0 
L 3372 0 
L 2619 2869 
L 1863 0 
L 1184 0 
L 269 3500 
z
" transform="scale(0.015625)"/>
      <path id="DejaVuSans-57" d="M 1172 4494 
L 1172 3500 
L 2356 3500 
L 2356 3053 
L 1172 3053 
L 1172 1153 
Q 1172 725 1289 603 
Q 1406 481 1766 481 
L 2356 481 
L 2356 0 
L 1766 0 
Q 1100 0 847 248 
Q 594 497 594 1153 
L 594 3053 
L 172 3053 
L 172 3500 
L 594 3500 
L 594 4494 
L 1172 4494 
z
" transform="scale(0.015625)"/>
      <path id="DejaVuSans-58" d="M 544 1381 
L 544 3500 
L 1119 3500 
L 1119 1403 
Q 1119 906 1312 657 
Q 1506 409 1894 409 
Q 2359 409 2629 706 
Q 2900 1003 2900 1516 
L 2900 3500 
L 3475 3500 
L 3475 0 
L 2900 0 
L 2900 538 
Q 2691 219 2414 64 
Q 2138 -91 1772 -91 
Q 1169 -91 856 284 
Q 544 659 544 1381 
z
M 1991 3584 
L 1991 3584 
z
" transform="scale(0.015625)"/>
      <path id="DejaVuSans-51" d="M 3513 2113 
L 3513 0 
L 2938 0 
L 2938 2094 
Q 2938 2591 2744 2837 
Q 2550 3084 2163 3084 
Q 1697 3084 1428 2787 
Q 1159 2491 1159 1978 
L 1159 0 
L 581 0 
L 581 3500 
L 1159 3500 
L 1159 2956 
Q 1366 3272 1645 3428 
Q 1925 3584 2291 3584 
Q 2894 3584 3203 3211 
Q 3513 2838 3513 2113 
z
" transform="scale(0.015625)"/>
      <path id="DejaVuSans-56" d="M 2834 3397 
L 2834 2853 
Q 2591 2978 2328 3040 
Q 2066 3103 1784 3103 
Q 1356 3103 1142 2972 
Q 928 2841 928 2578 
Q 928 2378 1081 2264 
Q 1234 2150 1697 2047 
L 1894 2003 
Q 2506 1872 2764 1633 
Q 3022 1394 3022 966 
Q 3022 478 2636 193 
Q 2250 -91 1575 -91 
Q 1294 -91 989 -36 
Q 684 19 347 128 
L 347 722 
Q 666 556 975 473 
Q 1284 391 1588 391 
Q 1994 391 2212 530 
Q 2431 669 2431 922 
Q 2431 1156 2273 1281 
Q 2116 1406 1581 1522 
L 1381 1569 
Q 847 1681 609 1914 
Q 372 2147 372 2553 
Q 372 3047 722 3315 
Q 1072 3584 1716 3584 
Q 2034 3584 2315 3537 
Q 2597 3491 2834 3397 
z
" transform="scale(0.015625)"/>
      <path id="DejaVuSans-10" d="M 313 2009 
L 1997 2009 
L 1997 1497 
L 313 1497 
L 313 2009 
z
" transform="scale(0.015625)"/>
      <path id="DejaVuSans-13af" d="M 3431 3500 
L 3431 0 
L 2853 0 
L 2853 3053 
L 1275 3053 
L 1275 0 
L 697 0 
L 697 3053 
L 147 3053 
L 147 3500 
L 697 3500 
L 697 3744 
Q 697 4316 967 4589 
Q 1238 4863 1797 4863 
L 2375 4863 
L 2375 4384 
L 1825 4384 
Q 1516 4384 1395 4259 
Q 1275 4134 1275 3809 
L 1275 3500 
L 3431 3500 
z
M 2853 4856 
L 3431 4856 
L 3431 4128 
L 2853 4128 
L 2853 4856 
z
" transform="scale(0.015625)"/>
      <path id="DejaVuSans-5b" d="M 3513 3500 
L 2247 1797 
L 3578 0 
L 2900 0 
L 1881 1375 
L 863 0 
L 184 0 
L 1544 1831 
L 300 3500 
L 978 3500 
L 1906 2253 
L 2834 3500 
L 3513 3500 
z
" transform="scale(0.015625)"/>
      <path id="DejaVuSans-47" d="M 2906 2969 
L 2906 4863 
L 3481 4863 
L 3481 0 
L 2906 0 
L 2906 525 
Q 2725 213 2448 61 
Q 2172 -91 1784 -91 
Q 1150 -91 751 415 
Q 353 922 353 1747 
Q 353 2572 751 3078 
Q 1150 3584 1784 3584 
Q 2172 3584 2448 3432 
Q 2725 3281 2906 2969 
z
M 947 1747 
Q 947 1113 1208 752 
Q 1469 391 1925 391 
Q 2381 391 2643 752 
Q 2906 1113 2906 1747 
Q 2906 2381 2643 2742 
Q 2381 3103 1925 3103 
Q 1469 3103 1208 2742 
Q 947 2381 947 1747 
z
" transform="scale(0.015625)"/>
      <path id="DejaVuSans-4f" d="M 603 4863 
L 1178 4863 
L 1178 0 
L 603 0 
L 603 4863 
z
" transform="scale(0.015625)"/>
      <path id="DejaVuSans-4c" d="M 603 3500 
L 1178 3500 
L 1178 0 
L 603 0 
L 603 3500 
z
M 603 4863 
L 1178 4863 
L 1178 4134 
L 603 4134 
L 603 4863 
z
" transform="scale(0.015625)"/>
     </defs>
     <use xlink:href="#DejaVuSans-35"/>
     <use xlink:href="#DejaVuSans-b" transform="translate(69.484375 0)"/>
     <use xlink:href="#DejaVuSans-19" transform="translate(108.5 0)"/>
     <use xlink:href="#DejaVuSans-13" transform="translate(172.125 0)"/>
     <use xlink:href="#DejaVuSans-c" transform="translate(235.75 0)"/>
     <use xlink:href="#DejaVuSans-1d" transform="translate(274.765625 0)"/>
     <use xlink:href="#DejaVuSans-3" transform="translate(308.453125 0)"/>
     <use xlink:href="#DejaVuSans-48" transform="translate(340.234375 0)"/>
     <use xlink:href="#DejaVuSans-59" transform="translate(401.765625 0)"/>
     <use xlink:href="#DejaVuSans-48" transform="translate(460.953125 0)"/>
     <use xlink:href="#DejaVuSans-55" transform="translate(522.484375 0)"/>
     <use xlink:href="#DejaVuSans-5c" transform="translate(563.59375 0)"/>
     <use xlink:href="#DejaVuSans-3" transform="translate(622.78125 0)"/>
     <use xlink:href="#DejaVuSans-44" transform="translate(654.5625 0)"/>
     <use xlink:href="#DejaVuSans-55" transform="translate(715.84375 0)"/>
     <use xlink:href="#DejaVuSans-55" transform="translate(755.203125 0)"/>
     <use xlink:href="#DejaVuSans-52" transform="translate(794.109375 0)"/>
     <use xlink:href="#DejaVuSans-5a" transform="translate(855.296875 0)"/>
     <use xlink:href="#DejaVuSans-3" transform="translate(937.078125 0)"/>
     <use xlink:href="#DejaVuSans-57" transform="translate(968.859375 0)"/>
     <use xlink:href="#DejaVuSans-58" transform="translate(1008.0625 0)"/>
     <use xlink:href="#DejaVuSans-55" transform="translate(1071.4375 0)"/>
     <use xlink:href="#DejaVuSans-51" transform="translate(1110.796875 0)"/>
     <use xlink:href="#DejaVuSans-56" transform="translate(1174.171875 0)"/>
     <use xlink:href="#DejaVuSans-3" transform="translate(1226.265625 0)"/>
     <use xlink:href="#DejaVuSans-19" transform="translate(1258.046875 0)"/>
     <use xlink:href="#DejaVuSans-13" transform="translate(1321.671875 0)"/>
     <use xlink:href="#DejaVuSans-3" transform="translate(1385.296875 0)"/>
     <use xlink:href="#DejaVuSans-10" transform="translate(1417.078125 0)"/>
     <use xlink:href="#DejaVuSans-10" transform="translate(1453.15625 0)"/>
     <use xlink:href="#DejaVuSans-3" transform="translate(1489.234375 0)"/>
     <use xlink:href="#DejaVuSans-51" transform="translate(1521.015625 0)"/>
     <use xlink:href="#DejaVuSans-52" transform="translate(1584.390625 0)"/>
     <use xlink:href="#DejaVuSans-3" transform="translate(1645.578125 0)"/>
     <use xlink:href="#DejaVuSans-13af" transform="translate(1677.359375 0)"/>
     <use xlink:href="#DejaVuSans-5b" transform="translate(1740.34375 0)"/>
     <use xlink:href="#DejaVuSans-48" transform="translate(1796.453125 0)"/>
     <use xlink:href="#DejaVuSans-47" transform="translate(1857.984375 0)"/>
     <use xlink:href="#DejaVuSans-3" transform="translate(1921.46875 0)"/>
     <use xlink:href="#DejaVuSans-4f" transform="translate(1953.25 0)"/>
     <use xlink:href="#DejaVuSans-4c" transform="translate(1981.03125 0)"/>
     <use xlink:href="#DejaVuSans-51" transform="translate(2008.8125 0)"/>
     <use xlink:href="#DejaVuSans-48" transform="translate(2072.1875 0)"/>
    </g>
   </g>
  </g>
  <g id="axes_2">
   <g id="patch_31">
    <path d="M 340.2 342.238594 
L 662.4 342.238594 
L 662.4 20.038594 
L 340.2 20.038594 
z
" style="fill: #ffffff"/>
   </g>
   <g id="matplotlib.axis_3"/>
   <g id="matplotlib.axis_4"/>
   <g id="line2d_3">
    <path d="M 395.521876 286.916717 
L 607.078124 75.36047 
" clip-path="url(#p0f785c6933)" style="fill: none; stroke-dasharray: 5.92,2.56; stroke-dashoffset: 0; stroke: #c0392b; stroke-width: 1.6"/>
   </g>
   <g id="line2d_4">
    <path d="M 395.521876 75.36047 
L 607.078124 286.916717 
" clip-path="url(#p0f785c6933)" style="fill: none; stroke-dasharray: 5.92,2.56; stroke-dashoffset: 0; stroke: #c0392b; stroke-width: 1.6"/>
   </g>
   <g id="line2d_5">
    <path d="M 340.2 181.138594 
L 662.4 181.138594 
" clip-path="url(#p0f785c6933)" style="fill: none; stroke: #666666; stroke-width: 0.6; stroke-linecap: square"/>
   </g>
   <g id="line2d_6">
    <path d="M 501.3 342.238594 
L 501.3 20.038594 
" clip-path="url(#p0f785c6933)" style="fill: none; stroke: #666666; stroke-width: 0.6; stroke-linecap: square"/>
   </g>
   <g id="patch_32">
    <path d="M 340.2 342.238594 
L 340.2 20.038594 
" style="fill: none; stroke: #000000; stroke-width: 0.8; stroke-linejoin: miter; stroke-linecap: square"/>
   </g>
   <g id="patch_33">
    <path d="M 662.4 342.238594 
L 662.4 20.038594 
" style="fill: none; stroke: #000000; stroke-width: 0.8; stroke-linejoin: miter; stroke-linecap: square"/>
   </g>
   <g id="patch_34">
    <path d="M 340.2 342.238594 
L 662.4 342.238594 
" style="fill: none; stroke: #000000; stroke-width: 0.8; stroke-linejoin: miter; stroke-linecap: square"/>
   </g>
   <g id="patch_35">
    <path d="M 340.2 20.038594 
L 662.4 20.038594 
" style="fill: none; stroke: #000000; stroke-width: 0.8; stroke-linejoin: miter; stroke-linecap: square"/>
   </g>
   <g id="patch_36">
    <path d="M 501.3 180.838594 
Q 524.068115 180.838594 546.836231 180.838594 
L 546.836231 179.138594 
Q 552.835973 180.138594 558.835714 181.138594 
Q 552.835973 182.138594 546.836231 183.138594 
L 546.836231 181.438594 
Q 524.068115 181.438594 501.3 181.438594 
L 501.3 180.838594 
z
" style="fill: #bfbfbf; stroke: #bfbfbf; stroke-linecap: round"/>
   </g>
   <g id="patch_37">
    <path d="M 501.098754 180.736102 
Q 553.266833 154.652062 605.434912 128.568023 
L 604.518124 126.734447 
Q 610.444776 125.168663 616.371429 123.602879 
Q 611.56281 127.404731 606.754192 131.206583 
L 605.837404 129.373007 
Q 553.669325 155.457047 501.501246 181.541086 
L 501.098754 180.736102 
z
" style="fill: #2471a3; stroke: #2471a3; stroke-linecap: round"/>
   </g>
   <g id="patch_38">
    <path d="M 501.21548 180.850746 
Q 523.061327 174.436226 544.907174 168.021707 
L 544.428228 166.390569 
Q 550.466671 165.659739 556.505114 164.92891 
Q 551.030136 167.578725 545.555159 170.228541 
L 545.076213 168.597403 
Q 523.230367 175.011922 501.38452 181.426442 
L 501.21548 180.850746 
z
" style="fill: #bfbfbf; stroke: #bfbfbf; stroke-linecap: round"/>
   </g>
   <g id="patch_39">
    <path d="M 501.043926 180.768559 
Q 559.421315 140.36979 617.798705 99.971021 
L 616.632144 98.285307 
Q 622.276027 95.899709 627.919911 93.514112 
Q 623.698663 97.955459 619.477415 102.396806 
L 618.310854 100.711091 
Q 559.933464 141.10986 501.556074 181.508629 
L 501.043926 180.768559 
z
" style="fill: #2471a3; stroke: #2471a3; stroke-linecap: round"/>
   </g>
   <g id="patch_40">
    <path d="M 501.137808 180.886218 
Q 520.291565 168.576845 539.445323 156.267473 
L 538.526233 154.837342 
Q 544.114178 152.43489 549.702123 150.032438 
Q 545.19546 154.117397 540.688797 158.202356 
L 539.769707 156.772225 
Q 520.61595 169.081597 501.462192 181.39097 
L 501.137808 180.886218 
z
" style="fill: #bfbfbf; stroke: #bfbfbf; stroke-linecap: round"/>
   </g>
   <g id="patch_41">
    <path d="M 501.005648 180.798216 
Q 560.422036 129.416076 619.838424 78.033937 
L 618.497487 76.483327 
Q 623.853944 73.503744 629.210401 70.52416 
Q 625.489233 75.39473 621.768064 80.265301 
L 620.427128 78.714692 
Q 561.01074 130.096832 501.594352 181.478971 
L 501.005648 180.798216 
z
" style="fill: #2471a3; stroke: #2471a3; stroke-linecap: round"/>
   </g>
   <g id="patch_42">
    <path d="M 501.073275 180.942136 
Q 515.98322 163.735142 530.893165 146.528148 
L 529.60839 145.414885 
Q 534.293135 141.535444 538.97788 137.656002 
Q 535.804634 142.845165 532.631389 148.034328 
L 531.346614 146.921065 
Q 516.43667 164.128058 501.526725 181.335052 
L 501.073275 180.942136 
z
" style="fill: #bfbfbf; stroke: #bfbfbf; stroke-linecap: round"/>
   </g>
   <g id="patch_43">
    <path d="M 500.974309 180.82807 
Q 556.252747 122.849532 611.531185 64.870994 
L 610.047479 63.456386 
Q 615.092916 59.975958 620.138352 56.495531 
Q 616.902313 61.70109 613.666274 66.90665 
L 612.182568 65.492042 
Q 556.90413 123.47058 501.625691 181.449118 
L 500.974309 180.82807 
z
" style="fill: #2471a3; stroke: #2471a3; stroke-linecap: round"/>
   </g>
   <g id="patch_44">
    <path d="M 501.02711 181.013969 
Q 510.485327 160.303363 519.943544 139.592757 
L 518.39717 138.886551 
Q 521.799185 133.844409 525.201199 128.802267 
Q 523.618449 134.675239 522.035698 140.548211 
L 520.489324 139.842006 
Q 511.031107 160.552612 501.57289 181.263218 
L 501.02711 181.013969 
z
" style="fill: #bfbfbf; stroke: #bfbfbf; stroke-linecap: round"/>
   </g>
   <g id="patch_45">
    <path d="M 500.944975 180.862085 
Q 547.327284 121.309178 593.709593 61.756272 
L 592.092256 60.496621 
Q 596.765491 56.530681 601.438726 52.564741 
Q 598.737853 58.06684 596.036981 63.568939 
L 594.419644 62.309289 
Q 548.037334 121.862196 501.655025 181.415102 
L 500.944975 180.862085 
z
" style="fill: #2471a3; stroke: #2471a3; stroke-linecap: round"/>
   </g>
   <g id="patch_46">
    <path d="M 501.003054 181.095899 
Q 504.243294 158.55953 507.483535 136.023162 
L 505.800838 135.781226 
Q 507.644512 129.984868 509.488186 124.18851 
Q 509.624155 130.269498 509.760124 136.350486 
L 508.077428 136.10855 
Q 504.837187 158.644919 501.596946 181.181288 
L 501.003054 181.095899 
z
" style="fill: #bfbfbf; stroke: #bfbfbf; stroke-linecap: round"/>
   </g>
   <g id="patch_47">
    <path d="M 500.914231 180.9069 
Q 534.48825 125.006247 568.06227 69.105593 
L 566.304876 68.0501 
Q 570.465666 63.55017 574.626455 59.050241 
Q 572.608829 64.837357 570.591203 70.624474 
L 568.833809 69.568981 
Q 535.259789 125.469634 501.685769 181.370287 
L 500.914231 180.9069 
z
" style="fill: #2471a3; stroke: #2471a3; stroke-linecap: round"/>
   </g>
   <g id="patch_48">
    <path d="M 501.003054 181.181288 
Q 497.762813 158.644919 494.522572 136.10855 
L 492.839876 136.350486 
Q 492.975845 130.269498 493.111814 124.18851 
Q 494.955488 129.984868 496.799162 135.781226 
L 495.116465 136.023162 
Q 498.356706 158.55953 501.596946 181.095899 
L 501.003054 181.181288 
z
" style="fill: #bfbfbf; stroke: #bfbfbf; stroke-linecap: round"/>
   </g>
   <g id="patch_49">
    <path d="M 500.879882 180.977347 
Q 519.016584 133.723433 537.153285 86.469519 
L 535.239413 85.734948 
Q 538.556563 80.58078 541.873712 75.426612 
Q 540.890553 81.476598 539.907394 87.526584 
L 537.993522 86.792013 
Q 519.85682 134.045927 501.720118 181.299841 
L 500.879882 180.977347 
z
" style="fill: #2471a3; stroke: #2471a3; stroke-linecap: round"/>
   </g>
   <g id="patch_50">
    <path d="M 501.02711 181.263218 
Q 491.568893 160.552612 482.110676 139.842006 
L 480.564302 140.548211 
Q 478.981551 134.675239 477.398801 128.802267 
Q 480.800815 133.844409 484.20283 138.886551 
L 482.656456 139.592757 
Q 492.114673 160.303363 501.57289 181.013969 
L 501.02711 181.263218 
z
" style="fill: #bfbfbf; stroke: #bfbfbf; stroke-linecap: round"/>
   </g>
   <g id="patch_51">
    <path d="M 500.850707 181.113374 
Q 502.781307 146.719938 504.711907 112.326503 
L 502.665129 112.211611 
Q 504.249528 106.289376 505.833928 100.36714 
Q 506.745599 106.429487 507.65727 112.491834 
L 505.610492 112.376943 
Q 503.679892 146.770378 501.749293 181.163814 
L 500.850707 181.113374 
z
" style="fill: #2471a3; stroke: #2471a3; stroke-linecap: round"/>
   </g>
   <g id="patch_52">
    <path d="M 501.073275 181.335052 
Q 486.16333 164.128058 471.253386 146.921065 
L 469.968611 148.034328 
Q 466.795366 142.845165 463.62212 137.656002 
Q 468.306865 141.535444 472.99161 145.414885 
L 471.706835 146.528148 
Q 486.61678 163.735142 501.526725 180.942136 
L 501.073275 181.335052 
z
" style="fill: #bfbfbf; stroke: #bfbfbf; stroke-linecap: round"/>
   </g>
   <g id="patch_53">
    <path d="M 500.922128 181.382956 
Q 488.243089 161.776633 475.56405 142.17031 
L 473.842635 143.283517 
Q 471.634733 137.567404 469.426831 131.851291 
Q 473.73402 136.209834 478.041209 140.568378 
L 476.319793 141.681585 
Q 488.998833 161.287908 501.677872 180.894231 
L 500.922128 181.382956 
z
" style="fill: #2471a3; stroke: #2471a3; stroke-linecap: round"/>
   </g>
   <g id="patch_54">
    <path d="M 501.137808 181.39097 
Q 481.98405 169.081597 462.830293 156.772225 
L 461.911203 158.202356 
Q 457.40454 154.117397 452.897877 150.032438 
Q 458.485822 152.43489 464.073767 154.837342 
L 463.154677 156.267473 
Q 482.308435 168.576845 501.462192 180.886218 
L 501.137808 181.39097 
z
" style="fill: #bfbfbf; stroke: #bfbfbf; stroke-linecap: round"/>
   </g>
   <g id="patch_55">
    <path d="M 501.20743 181.578969 
Q 474.230873 175.908313 447.254317 170.237656 
L 446.832609 172.243812 
Q 441.21726 169.786109 435.60191 167.328405 
Q 441.731537 167.339577 447.861165 167.350748 
L 447.439457 169.356904 
Q 474.416013 175.027561 501.39257 180.698218 
L 501.20743 181.578969 
z
" style="fill: #2471a3; stroke: #2471a3; stroke-linecap: round"/>
   </g>
   <g id="patch_56">
    <path d="M 501.21548 181.426442 
Q 479.369633 175.011922 457.523787 168.597403 
L 457.044841 170.228541 
Q 451.569864 167.578725 446.094886 164.92891 
Q 452.133329 165.659739 458.171772 166.390569 
L 457.692826 168.021707 
Q 479.538673 174.436226 501.38452 180.850746 
L 501.21548 181.426442 
z
" style="fill: #bfbfbf; stroke: #bfbfbf; stroke-linecap: round"/>
   </g>
   <g id="patch_57">
    <path d="M 501.405797 181.57598 
Q 460.137002 191.558304 418.868206 201.540627 
L 419.350172 203.533165 
Q 413.224814 203.728752 407.099457 203.92434 
Q 412.637051 201.298828 418.174645 198.673316 
L 418.656611 200.665854 
Q 459.925407 190.683531 501.194203 180.701207 
L 501.405797 181.57598 
z
" style="fill: #2471a3; stroke: #2471a3; stroke-linecap: round"/>
   </g>
   <g id="patch_58">
    <path d="M 501.3 181.438594 
Q 478.531885 181.438594 455.763769 181.438594 
L 455.763769 183.138594 
Q 449.764027 182.138594 443.764286 181.138594 
Q 449.764027 180.138594 455.763769 179.138594 
L 455.763769 180.838594 
Q 478.531885 180.838594 501.3 180.838594 
L 501.3 181.438594 
z
" style="fill: #bfbfbf; stroke: #bfbfbf; stroke-linecap: round"/>
   </g>
   <g id="patch_59">
    <path d="M 501.501246 181.541086 
Q 449.333167 207.625125 397.165088 233.709165 
L 398.081876 235.542741 
Q 392.155224 237.108524 386.228571 238.674308 
Q 391.03719 234.872456 395.845808 231.070605 
L 396.762596 232.90418 
Q 448.930675 206.820141 501.098754 180.736102 
L 501.501246 181.541086 
z
" style="fill: #2471a3; stroke: #2471a3; stroke-linecap: round"/>
   </g>
   <g id="text_2">
    <!-- lambda=3 -->
    <g style="fill: #c0392b" transform="translate(559.477968 112.604197) scale(0.08 -0.08)">
     <defs>
      <path id="DejaVuSans-50" d="M 3328 2828 
Q 3544 3216 3844 3400 
Q 4144 3584 4550 3584 
Q 5097 3584 5394 3201 
Q 5691 2819 5691 2113 
L 5691 0 
L 5113 0 
L 5113 2094 
Q 5113 2597 4934 2840 
Q 4756 3084 4391 3084 
Q 3944 3084 3684 2787 
Q 3425 2491 3425 1978 
L 3425 0 
L 2847 0 
L 2847 2094 
Q 2847 2600 2669 2842 
Q 2491 3084 2119 3084 
Q 1678 3084 1418 2786 
Q 1159 2488 1159 1978 
L 1159 0 
L 581 0 
L 581 3500 
L 1159 3500 
L 1159 2956 
Q 1356 3278 1631 3431 
Q 1906 3584 2284 3584 
Q 2666 3584 2933 3390 
Q 3200 3197 3328 2828 
z
" transform="scale(0.015625)"/>
      <path id="DejaVuSans-45" d="M 3116 1747 
Q 3116 2381 2855 2742 
Q 2594 3103 2138 3103 
Q 1681 3103 1420 2742 
Q 1159 2381 1159 1747 
Q 1159 1113 1420 752 
Q 1681 391 2138 391 
Q 2594 391 2855 752 
Q 3116 1113 3116 1747 
z
M 1159 2969 
Q 1341 3281 1617 3432 
Q 1894 3584 2278 3584 
Q 2916 3584 3314 3078 
Q 3713 2572 3713 1747 
Q 3713 922 3314 415 
Q 2916 -91 2278 -91 
Q 1894 -91 1617 61 
Q 1341 213 1159 525 
L 1159 0 
L 581 0 
L 581 4863 
L 1159 4863 
L 1159 2969 
z
" transform="scale(0.015625)"/>
      <path id="DejaVuSans-20" d="M 678 2906 
L 4684 2906 
L 4684 2381 
L 678 2381 
L 678 2906 
z
M 678 1631 
L 4684 1631 
L 4684 1100 
L 678 1100 
L 678 1631 
z
" transform="scale(0.015625)"/>
      <path id="DejaVuSans-16" d="M 2597 2516 
Q 3050 2419 3304 2112 
Q 3559 1806 3559 1356 
Q 3559 666 3084 287 
Q 2609 -91 1734 -91 
Q 1441 -91 1130 -33 
Q 819 25 488 141 
L 488 750 
Q 750 597 1062 519 
Q 1375 441 1716 441 
Q 2309 441 2620 675 
Q 2931 909 2931 1356 
Q 2931 1769 2642 2001 
Q 2353 2234 1838 2234 
L 1294 2234 
L 1294 2753 
L 1863 2753 
Q 2328 2753 2575 2939 
Q 2822 3125 2822 3475 
Q 2822 3834 2567 4026 
Q 2313 4219 1838 4219 
Q 1578 4219 1281 4162 
Q 984 4106 628 3988 
L 628 4550 
Q 988 4650 1302 4700 
Q 1616 4750 1894 4750 
Q 2613 4750 3031 4423 
Q 3450 4097 3450 3541 
Q 3450 3153 3228 2886 
Q 3006 2619 2597 2516 
z
" transform="scale(0.015625)"/>
     </defs>
     <use xlink:href="#DejaVuSans-4f"/>
     <use xlink:href="#DejaVuSans-44" transform="translate(27.78125 0)"/>
     <use xlink:href="#DejaVuSans-50" transform="translate(89.0625 0)"/>
     <use xlink:href="#DejaVuSans-45" transform="translate(186.46875 0)"/>
     <use xlink:href="#DejaVuSans-47" transform="translate(249.953125 0)"/>
     <use xlink:href="#DejaVuSans-44" transform="translate(313.4375 0)"/>
     <use xlink:href="#DejaVuSans-20" transform="translate(374.71875 0)"/>
     <use xlink:href="#DejaVuSans-16" transform="translate(458.515625 0)"/>
    </g>
   </g>
   <g id="text_3">
    <!-- lambda=1 -->
    <g style="fill: #c0392b" transform="translate(559.477968 228.960133) scale(0.08 -0.08)">
     <defs>
      <path id="DejaVuSans-14" d="M 794 531 
L 1825 531 
L 1825 4091 
L 703 3866 
L 703 4441 
L 1819 4666 
L 2450 4666 
L 2450 531 
L 3481 531 
L 3481 0 
L 794 0 
L 794 531 
z
" transform="scale(0.015625)"/>
     </defs>
     <use xlink:href="#DejaVuSans-4f"/>
     <use xlink:href="#DejaVuSans-44" transform="translate(27.78125 0)"/>
     <use xlink:href="#DejaVuSans-50" transform="translate(89.0625 0)"/>
     <use xlink:href="#DejaVuSans-45" transform="translate(186.46875 0)"/>
     <use xlink:href="#DejaVuSans-47" transform="translate(249.953125 0)"/>
     <use xlink:href="#DejaVuSans-44" transform="translate(313.4375 0)"/>
     <use xlink:href="#DejaVuSans-20" transform="translate(374.71875 0)"/>
     <use xlink:href="#DejaVuSans-14" transform="translate(458.515625 0)"/>
    </g>
   </g>
   <g id="text_4">
    <!-- S=[[2,1],[1,2]]: two fixed lines stay put -->
    <g transform="translate(413.078203 14.038594) scale(0.09 -0.09)">
     <defs>
      <path id="DejaVuSans-36" d="M 3425 4513 
L 3425 3897 
Q 3066 4069 2747 4153 
Q 2428 4238 2131 4238 
Q 1616 4238 1336 4038 
Q 1056 3838 1056 3469 
Q 1056 3159 1242 3001 
Q 1428 2844 1947 2747 
L 2328 2669 
Q 3034 2534 3370 2195 
Q 3706 1856 3706 1288 
Q 3706 609 3251 259 
Q 2797 -91 1919 -91 
Q 1588 -91 1214 -16 
Q 841 59 441 206 
L 441 856 
Q 825 641 1194 531 
Q 1563 422 1919 422 
Q 2459 422 2753 634 
Q 3047 847 3047 1241 
Q 3047 1584 2836 1778 
Q 2625 1972 2144 2069 
L 1759 2144 
Q 1053 2284 737 2584 
Q 422 2884 422 3419 
Q 422 4038 858 4394 
Q 1294 4750 2059 4750 
Q 2388 4750 2728 4690 
Q 3069 4631 3425 4513 
z
" transform="scale(0.015625)"/>
      <path id="DejaVuSans-3e" d="M 550 4863 
L 1875 4863 
L 1875 4416 
L 1125 4416 
L 1125 -397 
L 1875 -397 
L 1875 -844 
L 550 -844 
L 550 4863 
z
" transform="scale(0.015625)"/>
      <path id="DejaVuSans-15" d="M 1228 531 
L 3431 531 
L 3431 0 
L 469 0 
L 469 531 
Q 828 903 1448 1529 
Q 2069 2156 2228 2338 
Q 2531 2678 2651 2914 
Q 2772 3150 2772 3378 
Q 2772 3750 2511 3984 
Q 2250 4219 1831 4219 
Q 1534 4219 1204 4116 
Q 875 4013 500 3803 
L 500 4441 
Q 881 4594 1212 4672 
Q 1544 4750 1819 4750 
Q 2544 4750 2975 4387 
Q 3406 4025 3406 3419 
Q 3406 3131 3298 2873 
Q 3191 2616 2906 2266 
Q 2828 2175 2409 1742 
Q 1991 1309 1228 531 
z
" transform="scale(0.015625)"/>
      <path id="DejaVuSans-f" d="M 750 794 
L 1409 794 
L 1409 256 
L 897 -744 
L 494 -744 
L 750 256 
L 750 794 
z
" transform="scale(0.015625)"/>
      <path id="DejaVuSans-40" d="M 1947 4863 
L 1947 -844 
L 622 -844 
L 622 -397 
L 1369 -397 
L 1369 4416 
L 622 4416 
L 622 4863 
L 1947 4863 
z
" transform="scale(0.015625)"/>
      <path id="DejaVuSans-53" d="M 1159 525 
L 1159 -1331 
L 581 -1331 
L 581 3500 
L 1159 3500 
L 1159 2969 
Q 1341 3281 1617 3432 
Q 1894 3584 2278 3584 
Q 2916 3584 3314 3078 
Q 3713 2572 3713 1747 
Q 3713 922 3314 415 
Q 2916 -91 2278 -91 
Q 1894 -91 1617 61 
Q 1341 213 1159 525 
z
M 3116 1747 
Q 3116 2381 2855 2742 
Q 2594 3103 2138 3103 
Q 1681 3103 1420 2742 
Q 1159 2381 1159 1747 
Q 1159 1113 1420 752 
Q 1681 391 2138 391 
Q 2594 391 2855 752 
Q 3116 1113 3116 1747 
z
" transform="scale(0.015625)"/>
     </defs>
     <use xlink:href="#DejaVuSans-36"/>
     <use xlink:href="#DejaVuSans-20" transform="translate(63.484375 0)"/>
     <use xlink:href="#DejaVuSans-3e" transform="translate(147.28125 0)"/>
     <use xlink:href="#DejaVuSans-3e" transform="translate(186.296875 0)"/>
     <use xlink:href="#DejaVuSans-15" transform="translate(225.3125 0)"/>
     <use xlink:href="#DejaVuSans-f" transform="translate(288.9375 0)"/>
     <use xlink:href="#DejaVuSans-14" transform="translate(320.71875 0)"/>
     <use xlink:href="#DejaVuSans-40" transform="translate(384.34375 0)"/>
     <use xlink:href="#DejaVuSans-f" transform="translate(423.359375 0)"/>
     <use xlink:href="#DejaVuSans-3e" transform="translate(455.140625 0)"/>
     <use xlink:href="#DejaVuSans-14" transform="translate(494.15625 0)"/>
     <use xlink:href="#DejaVuSans-f" transform="translate(557.78125 0)"/>
     <use xlink:href="#DejaVuSans-15" transform="translate(589.5625 0)"/>
     <use xlink:href="#DejaVuSans-40" transform="translate(653.1875 0)"/>
     <use xlink:href="#DejaVuSans-40" transform="translate(692.203125 0)"/>
     <use xlink:href="#DejaVuSans-1d" transform="translate(731.21875 0)"/>
     <use xlink:href="#DejaVuSans-3" transform="translate(764.90625 0)"/>
     <use xlink:href="#DejaVuSans-57" transform="translate(796.6875 0)"/>
     <use xlink:href="#DejaVuSans-5a" transform="translate(835.890625 0)"/>
     <use xlink:href="#DejaVuSans-52" transform="translate(917.671875 0)"/>
     <use xlink:href="#DejaVuSans-3" transform="translate(978.859375 0)"/>
     <use xlink:href="#DejaVuSans-13af" transform="translate(1010.640625 0)"/>
     <use xlink:href="#DejaVuSans-5b" transform="translate(1073.625 0)"/>
     <use xlink:href="#DejaVuSans-48" transform="translate(1129.734375 0)"/>
     <use xlink:href="#DejaVuSans-47" transform="translate(1191.265625 0)"/>
     <use xlink:href="#DejaVuSans-3" transform="translate(1254.75 0)"/>
     <use xlink:href="#DejaVuSans-4f" transform="translate(1286.53125 0)"/>
     <use xlink:href="#DejaVuSans-4c" transform="translate(1314.3125 0)"/>
     <use xlink:href="#DejaVuSans-51" transform="translate(1342.09375 0)"/>
     <use xlink:href="#DejaVuSans-48" transform="translate(1405.46875 0)"/>
     <use xlink:href="#DejaVuSans-56" transform="translate(1467 0)"/>
     <use xlink:href="#DejaVuSans-3" transform="translate(1519.09375 0)"/>
     <use xlink:href="#DejaVuSans-56" transform="translate(1550.875 0)"/>
     <use xlink:href="#DejaVuSans-57" transform="translate(1602.96875 0)"/>
     <use xlink:href="#DejaVuSans-44" transform="translate(1642.171875 0)"/>
     <use xlink:href="#DejaVuSans-5c" transform="translate(1703.453125 0)"/>
     <use xlink:href="#DejaVuSans-3" transform="translate(1762.640625 0)"/>
     <use xlink:href="#DejaVuSans-53" transform="translate(1794.421875 0)"/>
     <use xlink:href="#DejaVuSans-58" transform="translate(1857.90625 0)"/>
     <use xlink:href="#DejaVuSans-57" transform="translate(1921.28125 0)"/>
    </g>
   </g>
  </g>
 </g>
 <defs>
  <clipPath id="pd3e7ca770f">
   <rect x="7.2" y="20.038594" width="322.2" height="322.2"/>
  </clipPath>
  <clipPath id="p0f785c6933">
   <rect x="340.2" y="20.038594" width="322.2" height="322.2"/>
  </clipPath>
 </defs>
</svg>
