<?xml version="1.0" encoding="utf-8" standalone="no"?>
<!DOCTYPE svg PUBLIC "-//W3C//DTD SVG 1.1//EN"
  "http://www.w3.org/Graphics/SVG/1.1/DTD/svg11.dtd">
<svg xmlns:xlink="http://www.w3.org/1999/xlink" width="649.942187pt" height="323.998437pt" viewBox="0 0 649.942187 323.998437" xmlns="http://www.w3.org/2000/svg" version="1.1">
 <metadata>
  <rdf:RDF xmlns:dc="http://purl.org/dc/elements/1.1/" xmlns:cc="http://creativecommons.org/ns#" xmlns:rdf="http://www.w3.org/1999/02/22-rdf-syntax-ns#">
   <cc:Work>
    <dc:type rdf:resource="http://purl.org/dc/dcmitype/StillImage"/>
    <dc:date>2026-06-13T19:07:49.547257</dc:date>
    <dc:format>image/svg+xml</dc:format>
    <dc:creator>
     <cc:Agent>
      <dc:title>Matplotlib v3.11.0, https://matplotlib.org/</dc:title>
     </cc:Agent>
    </dc:creator>
   </cc:Work>
  </rdf:RDF>
 </metadata>
 <defs>
  <style type="text/css">*{stroke-linejoin: round; stroke-linecap: butt}</style>
 </defs>
 <g id="figure_1">
  <g id="patch_1">
   <path d="M 0 323.998437 
L 649.942187 323.998437 
L 649.942187 0 
L 0 0 
z
" style="fill: #ffffff"/>
  </g>
  <g id="axes_1">
   <g id="patch_2">
    <path d="M 28.942187 299.798437 
L 307.942187 299.798437 
L 307.942187 20.798437 
L 28.942187 20.798437 
z
" style="fill: #ffffff"/>
   </g>
   <g id="matplotlib.axis_1">
    <g id="xtick_1">
     <g id="line2d_1">
      <defs>
       <path id="m875e57af44" d="M 0 0 
L 0 3.5 
" style="stroke: #000000; stroke-width: 0.8"/>
      </defs>
      <g>
       <use xlink:href="#m875e57af44" x="36.482728" y="299.798437" style="stroke: #000000; stroke-width: 0.8"/>
      </g>
     </g>
     <g id="text_1">
      <!-- −3 -->
      <g transform="translate(29.111634 314.396094) scale(0.1 -0.1)">
       <defs>
        <path id="DejaVuSans-c9c" d="M 678 2272 
L 4684 2272 
L 4684 1741 
L 678 1741 
L 678 2272 
z
" transform="scale(0.015625)"/>
        <path id="DejaVuSans-16" d="M 2597 2516 
Q 3050 2419 3304 2112 
Q 3559 1806 3559 1356 
Q 3559 666 3084 287 
Q 2609 -91 1734 -91 
Q 1441 -91 1130 -33 
Q 819 25 488 141 
L 488 750 
Q 750 597 1062 519 
Q 1375 441 1716 441 
Q 2309 441 2620 675 
Q 2931 909 2931 1356 
Q 2931 1769 2642 2001 
Q 2353 2234 1838 2234 
L 1294 2234 
L 1294 2753 
L 1863 2753 
Q 2328 2753 2575 2939 
Q 2822 3125 2822 3475 
Q 2822 3834 2567 4026 
Q 2313 4219 1838 4219 
Q 1578 4219 1281 4162 
Q 984 4106 628 3988 
L 628 4550 
Q 988 4650 1302 4700 
Q 1616 4750 1894 4750 
Q 2613 4750 3031 4423 
Q 3450 4097 3450 3541 
Q 3450 3153 3228 2886 
Q 3006 2619 2597 2516 
z
" transform="scale(0.015625)"/>
       </defs>
       <use xlink:href="#DejaVuSans-c9c"/>
       <use xlink:href="#DejaVuSans-16" transform="translate(83.796875 0)"/>
      </g>
     </g>
    </g>
    <g id="xtick_2">
     <g id="line2d_2">
      <g>
       <use xlink:href="#m875e57af44" x="74.185431" y="299.798437" style="stroke: #000000; stroke-width: 0.8"/>
      </g>
     </g>
     <g id="text_2">
      <!-- −2 -->
      <g transform="translate(66.814337 314.396094) scale(0.1 -0.1)">
       <defs>
        <path id="DejaVuSans-15" d="M 1228 531 
L 3431 531 
L 3431 0 
L 469 0 
L 469 531 
Q 828 903 1448 1529 
Q 2069 2156 2228 2338 
Q 2531 2678 2651 2914 
Q 2772 3150 2772 3378 
Q 2772 3750 2511 3984 
Q 2250 4219 1831 4219 
Q 1534 4219 1204 4116 
Q 875 4013 500 3803 
L 500 4441 
Q 881 4594 1212 4672 
Q 1544 4750 1819 4750 
Q 2544 4750 2975 4387 
Q 3406 4025 3406 3419 
Q 3406 3131 3298 2873 
Q 3191 2616 2906 2266 
Q 2828 2175 2409 1742 
Q 1991 1309 1228 531 
z
" transform="scale(0.015625)"/>
       </defs>
       <use xlink:href="#DejaVuSans-c9c"/>
       <use xlink:href="#DejaVuSans-15" transform="translate(83.796875 0)"/>
      </g>
     </g>
    </g>
    <g id="xtick_3">
     <g id="line2d_3">
      <g>
       <use xlink:href="#m875e57af44" x="111.888133" y="299.798437" style="stroke: #000000; stroke-width: 0.8"/>
      </g>
     </g>
     <g id="text_3">
      <!-- −1 -->
      <g transform="translate(104.51704 314.396094) scale(0.1 -0.1)">
       <defs>
        <path id="DejaVuSans-14" d="M 794 531 
L 1825 531 
L 1825 4091 
L 703 3866 
L 703 4441 
L 1819 4666 
L 2450 4666 
L 2450 531 
L 3481 531 
L 3481 0 
L 794 0 
L 794 531 
z
" transform="scale(0.015625)"/>
       </defs>
       <use xlink:href="#DejaVuSans-c9c"/>
       <use xlink:href="#DejaVuSans-14" transform="translate(83.796875 0)"/>
      </g>
     </g>
    </g>
    <g id="xtick_4">
     <g id="line2d_4">
      <g>
       <use xlink:href="#m875e57af44" x="149.590836" y="299.798437" style="stroke: #000000; stroke-width: 0.8"/>
      </g>
     </g>
     <g id="text_4">
      <!-- 0 -->
      <g transform="translate(146.409586 314.396094) scale(0.1 -0.1)">
       <defs>
        <path id="DejaVuSans-13" d="M 2034 4250 
Q 1547 4250 1301 3770 
Q 1056 3291 1056 2328 
Q 1056 1369 1301 889 
Q 1547 409 2034 409 
Q 2525 409 2770 889 
Q 3016 1369 3016 2328 
Q 3016 3291 2770 3770 
Q 2525 4250 2034 4250 
z
M 2034 4750 
Q 2819 4750 3233 4129 
Q 3647 3509 3647 2328 
Q 3647 1150 3233 529 
Q 2819 -91 2034 -91 
Q 1250 -91 836 529 
Q 422 1150 422 2328 
Q 422 3509 836 4129 
Q 1250 4750 2034 4750 
z
" transform="scale(0.015625)"/>
       </defs>
       <use xlink:href="#DejaVuSans-13"/>
      </g>
     </g>
    </g>
    <g id="xtick_5">
     <g id="line2d_5">
      <g>
       <use xlink:href="#m875e57af44" x="187.293539" y="299.798437" style="stroke: #000000; stroke-width: 0.8"/>
      </g>
     </g>
     <g id="text_5">
      <!-- 1 -->
      <g transform="translate(184.112289 314.396094) scale(0.1 -0.1)">
       <use xlink:href="#DejaVuSans-14"/>
      </g>
     </g>
    </g>
    <g id="xtick_6">
     <g id="line2d_6">
      <g>
       <use xlink:href="#m875e57af44" x="224.996242" y="299.798437" style="stroke: #000000; stroke-width: 0.8"/>
      </g>
     </g>
     <g id="text_6">
      <!-- 2 -->
      <g transform="translate(221.814992 314.396094) scale(0.1 -0.1)">
       <use xlink:href="#DejaVuSans-15"/>
      </g>
     </g>
    </g>
    <g id="xtick_7">
     <g id="line2d_7">
      <g>
       <use xlink:href="#m875e57af44" x="262.698944" y="299.798437" style="stroke: #000000; stroke-width: 0.8"/>
      </g>
     </g>
     <g id="text_7">
      <!-- 3 -->
      <g transform="translate(259.517694 314.396094) scale(0.1 -0.1)">
       <use xlink:href="#DejaVuSans-16"/>
      </g>
     </g>
    </g>
    <g id="xtick_8">
     <g id="line2d_8">
      <g>
       <use xlink:href="#m875e57af44" x="300.401647" y="299.798437" style="stroke: #000000; stroke-width: 0.8"/>
      </g>
     </g>
     <g id="text_8">
      <!-- 4 -->
      <g transform="translate(297.220397 314.396094) scale(0.1 -0.1)">
       <defs>
        <path id="DejaVuSans-17" d="M 2419 4116 
L 825 1625 
L 2419 1625 
L 2419 4116 
z
M 2253 4666 
L 3047 4666 
L 3047 1625 
L 3713 1625 
L 3713 1100 
L 3047 1100 
L 3047 0 
L 2419 0 
L 2419 1100 
L 313 1100 
L 313 1709 
L 2253 4666 
z
" transform="scale(0.015625)"/>
       </defs>
       <use xlink:href="#DejaVuSans-17"/>
      </g>
     </g>
    </g>
   </g>
   <g id="matplotlib.axis_2">
    <g id="ytick_1">
     <g id="line2d_9">
      <defs>
       <path id="m42f03fc6a2" d="M 0 0 
L -3.5 0 
" style="stroke: #000000; stroke-width: 0.8"/>
      </defs>
      <g>
       <use xlink:href="#m42f03fc6a2" x="28.942187" y="292.257897" style="stroke: #000000; stroke-width: 0.8"/>
      </g>
     </g>
     <g id="text_9">
      <!-- −3 -->
      <g transform="translate(7.2 296.056725) scale(0.1 -0.1)">
       <use xlink:href="#DejaVuSans-c9c"/>
       <use xlink:href="#DejaVuSans-16" transform="translate(83.796875 0)"/>
      </g>
     </g>
    </g>
    <g id="ytick_2">
     <g id="line2d_10">
      <g>
       <use xlink:href="#m42f03fc6a2" x="28.942187" y="254.555194" style="stroke: #000000; stroke-width: 0.8"/>
      </g>
     </g>
     <g id="text_10">
      <!-- −2 -->
      <g transform="translate(7.2 258.354022) scale(0.1 -0.1)">
       <use xlink:href="#DejaVuSans-c9c"/>
       <use xlink:href="#DejaVuSans-15" transform="translate(83.796875 0)"/>
      </g>
     </g>
    </g>
    <g id="ytick_3">
     <g id="line2d_11">
      <g>
       <use xlink:href="#m42f03fc6a2" x="28.942187" y="216.852492" style="stroke: #000000; stroke-width: 0.8"/>
      </g>
     </g>
     <g id="text_11">
      <!-- −1 -->
      <g transform="translate(7.2 220.65132) scale(0.1 -0.1)">
       <use xlink:href="#DejaVuSans-c9c"/>
       <use xlink:href="#DejaVuSans-14" transform="translate(83.796875 0)"/>
      </g>
     </g>
    </g>
    <g id="ytick_4">
     <g id="line2d_12">
      <g>
       <use xlink:href="#m42f03fc6a2" x="28.942187" y="179.149789" style="stroke: #000000; stroke-width: 0.8"/>
      </g>
     </g>
     <g id="text_12">
      <!-- 0 -->
      <g transform="translate(15.579687 182.948617) scale(0.1 -0.1)">
       <use xlink:href="#DejaVuSans-13"/>
      </g>
     </g>
    </g>
    <g id="ytick_5">
     <g id="line2d_13">
      <g>
       <use xlink:href="#m42f03fc6a2" x="28.942187" y="141.447086" style="stroke: #000000; stroke-width: 0.8"/>
      </g>
     </g>
     <g id="text_13">
      <!-- 1 -->
      <g transform="translate(15.579687 145.245914) scale(0.1 -0.1)">
       <use xlink:href="#DejaVuSans-14"/>
      </g>
     </g>
    </g>
    <g id="ytick_6">
     <g id="line2d_14">
      <g>
       <use xlink:href="#m42f03fc6a2" x="28.942187" y="103.744383" style="stroke: #000000; stroke-width: 0.8"/>
      </g>
     </g>
     <g id="text_14">
      <!-- 2 -->
      <g transform="translate(15.579687 107.543212) scale(0.1 -0.1)">
       <use xlink:href="#DejaVuSans-15"/>
      </g>
     </g>
    </g>
    <g id="ytick_7">
     <g id="line2d_15">
      <g>
       <use xlink:href="#m42f03fc6a2" x="28.942187" y="66.041681" style="stroke: #000000; stroke-width: 0.8"/>
      </g>
     </g>
     <g id="text_15">
      <!-- 3 -->
      <g transform="translate(15.579687 69.840509) scale(0.1 -0.1)">
       <use xlink:href="#DejaVuSans-16"/>
      </g>
     </g>
    </g>
    <g id="ytick_8">
     <g id="line2d_16">
      <g>
       <use xlink:href="#m42f03fc6a2" x="28.942187" y="28.338978" style="stroke: #000000; stroke-width: 0.8"/>
      </g>
     </g>
     <g id="text_16">
      <!-- 4 -->
      <g transform="translate(15.579687 32.137806) scale(0.1 -0.1)">
       <use xlink:href="#DejaVuSans-17"/>
      </g>
     </g>
    </g>
   </g>
   <g id="line2d_17">
    <path d="M 28.942187 216.852492 
L 307.942187 216.852492 
" clip-path="url(#p9eda82e006)" style="fill: none; stroke: #e6e6e6; stroke-width: 0.7; stroke-linecap: square"/>
   </g>
   <g id="line2d_18">
    <path d="M 111.888133 299.798437 
L 111.888133 20.798437 
" clip-path="url(#p9eda82e006)" style="fill: none; stroke: #e6e6e6; stroke-width: 0.7; stroke-linecap: square"/>
   </g>
   <g id="line2d_19">
    <path d="M 28.942187 179.149789 
L 307.942187 179.149789 
" clip-path="url(#p9eda82e006)" style="fill: none; stroke: #e6e6e6; stroke-width: 0.7; stroke-linecap: square"/>
   </g>
   <g id="line2d_20">
    <path d="M 149.590836 299.798437 
L 149.590836 20.798437 
" clip-path="url(#p9eda82e006)" style="fill: none; stroke: #e6e6e6; stroke-width: 0.7; stroke-linecap: square"/>
   </g>
   <g id="line2d_21">
    <path d="M 28.942187 141.447086 
L 307.942187 141.447086 
" clip-path="url(#p9eda82e006)" style="fill: none; stroke: #e6e6e6; stroke-width: 0.7; stroke-linecap: square"/>
   </g>
   <g id="line2d_22">
    <path d="M 187.293539 299.798437 
L 187.293539 20.798437 
" clip-path="url(#p9eda82e006)" style="fill: none; stroke: #e6e6e6; stroke-width: 0.7; stroke-linecap: square"/>
   </g>
   <g id="line2d_23">
    <path d="M 28.942187 103.744383 
L 307.942187 103.744383 
" clip-path="url(#p9eda82e006)" style="fill: none; stroke: #e6e6e6; stroke-width: 0.7; stroke-linecap: square"/>
   </g>
   <g id="line2d_24">
    <path d="M 224.996242 299.798437 
L 224.996242 20.798437 
" clip-path="url(#p9eda82e006)" style="fill: none; stroke: #e6e6e6; stroke-width: 0.7; stroke-linecap: square"/>
   </g>
   <g id="line2d_25">
    <path d="M 28.942187 66.041681 
L 307.942187 66.041681 
" clip-path="url(#p9eda82e006)" style="fill: none; stroke: #e6e6e6; stroke-width: 0.7; stroke-linecap: square"/>
   </g>
   <g id="line2d_26">
    <path d="M 262.698944 299.798437 
L 262.698944 20.798437 
" clip-path="url(#p9eda82e006)" style="fill: none; stroke: #e6e6e6; stroke-width: 0.7; stroke-linecap: square"/>
   </g>
   <g id="line2d_27">
    <path d="M 149.590836 179.149789 
L 187.293539 179.149789 
L 187.293539 141.447086 
L 149.590836 141.447086 
L 149.590836 179.149789 
" clip-path="url(#p9eda82e006)" style="fill: none; stroke: #808080; stroke-width: 1.5; stroke-linecap: square"/>
   </g>
   <g id="line2d_28">
    <path d="M 149.590836 179.149789 
L 224.996242 141.447086 
L 262.698944 66.041681 
L 187.293539 103.744383 
L 149.590836 179.149789 
" clip-path="url(#p9eda82e006)" style="fill: none; stroke: #c0392b; stroke-width: 2; stroke-linecap: square"/>
   </g>
   <g id="line2d_29">
    <path d="M 28.942187 179.149789 
L 307.942187 179.149789 
" clip-path="url(#p9eda82e006)" style="fill: none; stroke: #999999; stroke-width: 0.6; stroke-linecap: square"/>
   </g>
   <g id="line2d_30">
    <path d="M 149.590836 299.798437 
L 149.590836 20.798437 
" clip-path="url(#p9eda82e006)" style="fill: none; stroke: #999999; stroke-width: 0.6; stroke-linecap: square"/>
   </g>
   <g id="patch_3">
    <path d="M 28.942187 299.798437 
L 28.942187 20.798437 
" style="fill: none; stroke: #000000; stroke-width: 0.8; stroke-linejoin: miter; stroke-linecap: square"/>
   </g>
   <g id="patch_4">
    <path d="M 307.942187 299.798437 
L 307.942187 20.798437 
" style="fill: none; stroke: #000000; stroke-width: 0.8; stroke-linejoin: miter; stroke-linecap: square"/>
   </g>
   <g id="patch_5">
    <path d="M 28.942188 299.798437 
L 307.942187 299.798437 
" style="fill: none; stroke: #000000; stroke-width: 0.8; stroke-linejoin: miter; stroke-linecap: square"/>
   </g>
   <g id="patch_6">
    <path d="M 28.942188 20.798437 
L 307.942187 20.798437 
" style="fill: none; stroke: #000000; stroke-width: 0.8; stroke-linejoin: miter; stroke-linecap: square"/>
   </g>
   <g id="text_17">
    <!-- standard grid: S skews the square (looks complex) -->
    <g transform="translate(42.057812 14.798437) scale(0.1 -0.1)">
     <defs>
      <path id="DejaVuSans-56" d="M 2834 3397 
L 2834 2853 
Q 2591 2978 2328 3040 
Q 2066 3103 1784 3103 
Q 1356 3103 1142 2972 
Q 928 2841 928 2578 
Q 928 2378 1081 2264 
Q 1234 2150 1697 2047 
L 1894 2003 
Q 2506 1872 2764 1633 
Q 3022 1394 3022 966 
Q 3022 478 2636 193 
Q 2250 -91 1575 -91 
Q 1294 -91 989 -36 
Q 684 19 347 128 
L 347 722 
Q 666 556 975 473 
Q 1284 391 1588 391 
Q 1994 391 2212 530 
Q 2431 669 2431 922 
Q 2431 1156 2273 1281 
Q 2116 1406 1581 1522 
L 1381 1569 
Q 847 1681 609 1914 
Q 372 2147 372 2553 
Q 372 3047 722 3315 
Q 1072 3584 1716 3584 
Q 2034 3584 2315 3537 
Q 2597 3491 2834 3397 
z
" transform="scale(0.015625)"/>
      <path id="DejaVuSans-57" d="M 1172 4494 
L 1172 3500 
L 2356 3500 
L 2356 3053 
L 1172 3053 
L 1172 1153 
Q 1172 725 1289 603 
Q 1406 481 1766 481 
L 2356 481 
L 2356 0 
L 1766 0 
Q 1100 0 847 248 
Q 594 497 594 1153 
L 594 3053 
L 172 3053 
L 172 3500 
L 594 3500 
L 594 4494 
L 1172 4494 
z
" transform="scale(0.015625)"/>
      <path id="DejaVuSans-44" d="M 2194 1759 
Q 1497 1759 1228 1600 
Q 959 1441 959 1056 
Q 959 750 1161 570 
Q 1363 391 1709 391 
Q 2188 391 2477 730 
Q 2766 1069 2766 1631 
L 2766 1759 
L 2194 1759 
z
M 3341 1997 
L 3341 0 
L 2766 0 
L 2766 531 
Q 2569 213 2275 61 
Q 1981 -91 1556 -91 
Q 1019 -91 701 211 
Q 384 513 384 1019 
Q 384 1609 779 1909 
Q 1175 2209 1959 2209 
L 2766 2209 
L 2766 2266 
Q 2766 2663 2505 2880 
Q 2244 3097 1772 3097 
Q 1472 3097 1187 3025 
Q 903 2953 641 2809 
L 641 3341 
Q 956 3463 1253 3523 
Q 1550 3584 1831 3584 
Q 2591 3584 2966 3190 
Q 3341 2797 3341 1997 
z
" transform="scale(0.015625)"/>
      <path id="DejaVuSans-51" d="M 3513 2113 
L 3513 0 
L 2938 0 
L 2938 2094 
Q 2938 2591 2744 2837 
Q 2550 3084 2163 3084 
Q 1697 3084 1428 2787 
Q 1159 2491 1159 1978 
L 1159 0 
L 581 0 
L 581 3500 
L 1159 3500 
L 1159 2956 
Q 1366 3272 1645 3428 
Q 1925 3584 2291 3584 
Q 2894 3584 3203 3211 
Q 3513 2838 3513 2113 
z
" transform="scale(0.015625)"/>
      <path id="DejaVuSans-47" d="M 2906 2969 
L 2906 4863 
L 3481 4863 
L 3481 0 
L 2906 0 
L 2906 525 
Q 2725 213 2448 61 
Q 2172 -91 1784 -91 
Q 1150 -91 751 415 
Q 353 922 353 1747 
Q 353 2572 751 3078 
Q 1150 3584 1784 3584 
Q 2172 3584 2448 3432 
Q 2725 3281 2906 2969 
z
M 947 1747 
Q 947 1113 1208 752 
Q 1469 391 1925 391 
Q 2381 391 2643 752 
Q 2906 1113 2906 1747 
Q 2906 2381 2643 2742 
Q 2381 3103 1925 3103 
Q 1469 3103 1208 2742 
Q 947 2381 947 1747 
z
" transform="scale(0.015625)"/>
      <path id="DejaVuSans-55" d="M 2631 2963 
Q 2534 3019 2420 3045 
Q 2306 3072 2169 3072 
Q 1681 3072 1420 2755 
Q 1159 2438 1159 1844 
L 1159 0 
L 581 0 
L 581 3500 
L 1159 3500 
L 1159 2956 
Q 1341 3275 1631 3429 
Q 1922 3584 2338 3584 
Q 2397 3584 2469 3576 
Q 2541 3569 2628 3553 
L 2631 2963 
z
" transform="scale(0.015625)"/>
      <path id="DejaVuSans-3" transform="scale(0.015625)"/>
      <path id="DejaVuSans-4a" d="M 2906 1791 
Q 2906 2416 2648 2759 
Q 2391 3103 1925 3103 
Q 1463 3103 1205 2759 
Q 947 2416 947 1791 
Q 947 1169 1205 825 
Q 1463 481 1925 481 
Q 2391 481 2648 825 
Q 2906 1169 2906 1791 
z
M 3481 434 
Q 3481 -459 3084 -895 
Q 2688 -1331 1869 -1331 
Q 1566 -1331 1297 -1286 
Q 1028 -1241 775 -1147 
L 775 -588 
Q 1028 -725 1275 -790 
Q 1522 -856 1778 -856 
Q 2344 -856 2625 -561 
Q 2906 -266 2906 331 
L 2906 616 
Q 2728 306 2450 153 
Q 2172 0 1784 0 
Q 1141 0 747 490 
Q 353 981 353 1791 
Q 353 2603 747 3093 
Q 1141 3584 1784 3584 
Q 2172 3584 2450 3431 
Q 2728 3278 2906 2969 
L 2906 3500 
L 3481 3500 
L 3481 434 
z
" transform="scale(0.015625)"/>
      <path id="DejaVuSans-4c" d="M 603 3500 
L 1178 3500 
L 1178 0 
L 603 0 
L 603 3500 
z
M 603 4863 
L 1178 4863 
L 1178 4134 
L 603 4134 
L 603 4863 
z
" transform="scale(0.015625)"/>
      <path id="DejaVuSans-1d" d="M 750 794 
L 1409 794 
L 1409 0 
L 750 0 
L 750 794 
z
M 750 3309 
L 1409 3309 
L 1409 2516 
L 750 2516 
L 750 3309 
z
" transform="scale(0.015625)"/>
      <path id="DejaVuSans-36" d="M 3425 4513 
L 3425 3897 
Q 3066 4069 2747 4153 
Q 2428 4238 2131 4238 
Q 1616 4238 1336 4038 
Q 1056 3838 1056 3469 
Q 1056 3159 1242 3001 
Q 1428 2844 1947 2747 
L 2328 2669 
Q 3034 2534 3370 2195 
Q 3706 1856 3706 1288 
Q 3706 609 3251 259 
Q 2797 -91 1919 -91 
Q 1588 -91 1214 -16 
Q 841 59 441 206 
L 441 856 
Q 825 641 1194 531 
Q 1563 422 1919 422 
Q 2459 422 2753 634 
Q 3047 847 3047 1241 
Q 3047 1584 2836 1778 
Q 2625 1972 2144 2069 
L 1759 2144 
Q 1053 2284 737 2584 
Q 422 2884 422 3419 
Q 422 4038 858 4394 
Q 1294 4750 2059 4750 
Q 2388 4750 2728 4690 
Q 3069 4631 3425 4513 
z
" transform="scale(0.015625)"/>
      <path id="DejaVuSans-4e" d="M 581 4863 
L 1159 4863 
L 1159 1991 
L 2875 3500 
L 3609 3500 
L 1753 1863 
L 3688 0 
L 2938 0 
L 1159 1709 
L 1159 0 
L 581 0 
L 581 4863 
z
" transform="scale(0.015625)"/>
      <path id="DejaVuSans-48" d="M 3597 1894 
L 3597 1613 
L 953 1613 
Q 991 1019 1311 708 
Q 1631 397 2203 397 
Q 2534 397 2845 478 
Q 3156 559 3463 722 
L 3463 178 
Q 3153 47 2828 -22 
Q 2503 -91 2169 -91 
Q 1331 -91 842 396 
Q 353 884 353 1716 
Q 353 2575 817 3079 
Q 1281 3584 2069 3584 
Q 2775 3584 3186 3129 
Q 3597 2675 3597 1894 
z
M 3022 2063 
Q 3016 2534 2758 2815 
Q 2500 3097 2075 3097 
Q 1594 3097 1305 2825 
Q 1016 2553 972 2059 
L 3022 2063 
z
" transform="scale(0.015625)"/>
      <path id="DejaVuSans-5a" d="M 269 3500 
L 844 3500 
L 1563 769 
L 2278 3500 
L 2956 3500 
L 3675 769 
L 4391 3500 
L 4966 3500 
L 4050 0 
L 3372 0 
L 2619 2869 
L 1863 0 
L 1184 0 
L 269 3500 
z
" transform="scale(0.015625)"/>
      <path id="DejaVuSans-4b" d="M 3513 2113 
L 3513 0 
L 2938 0 
L 2938 2094 
Q 2938 2591 2744 2837 
Q 2550 3084 2163 3084 
Q 1697 3084 1428 2787 
Q 1159 2491 1159 1978 
L 1159 0 
L 581 0 
L 581 4863 
L 1159 4863 
L 1159 2956 
Q 1366 3272 1645 3428 
Q 1925 3584 2291 3584 
Q 2894 3584 3203 3211 
Q 3513 2838 3513 2113 
z
" transform="scale(0.015625)"/>
      <path id="DejaVuSans-54" d="M 947 1747 
Q 947 1113 1208 752 
Q 1469 391 1925 391 
Q 2381 391 2643 752 
Q 2906 1113 2906 1747 
Q 2906 2381 2643 2742 
Q 2381 3103 1925 3103 
Q 1469 3103 1208 2742 
Q 947 2381 947 1747 
z
M 2906 525 
Q 2725 213 2448 61 
Q 2172 -91 1784 -91 
Q 1150 -91 751 415 
Q 353 922 353 1747 
Q 353 2572 751 3078 
Q 1150 3584 1784 3584 
Q 2172 3584 2448 3432 
Q 2725 3281 2906 2969 
L 2906 3500 
L 3481 3500 
L 3481 -1331 
L 2906 -1331 
L 2906 525 
z
" transform="scale(0.015625)"/>
      <path id="DejaVuSans-58" d="M 544 1381 
L 544 3500 
L 1119 3500 
L 1119 1403 
Q 1119 906 1312 657 
Q 1506 409 1894 409 
Q 2359 409 2629 706 
Q 2900 1003 2900 1516 
L 2900 3500 
L 3475 3500 
L 3475 0 
L 2900 0 
L 2900 538 
Q 2691 219 2414 64 
Q 2138 -91 1772 -91 
Q 1169 -91 856 284 
Q 544 659 544 1381 
z
M 1991 3584 
L 1991 3584 
z
" transform="scale(0.015625)"/>
      <path id="DejaVuSans-b" d="M 1984 4856 
Q 1566 4138 1362 3434 
Q 1159 2731 1159 2009 
Q 1159 1288 1364 580 
Q 1569 -128 1984 -844 
L 1484 -844 
Q 1016 -109 783 600 
Q 550 1309 550 2009 
Q 550 2706 781 3412 
Q 1013 4119 1484 4856 
L 1984 4856 
z
" transform="scale(0.015625)"/>
      <path id="DejaVuSans-4f" d="M 603 4863 
L 1178 4863 
L 1178 0 
L 603 0 
L 603 4863 
z
" transform="scale(0.015625)"/>
      <path id="DejaVuSans-52" d="M 1959 3097 
Q 1497 3097 1228 2736 
Q 959 2375 959 1747 
Q 959 1119 1226 758 
Q 1494 397 1959 397 
Q 2419 397 2687 759 
Q 2956 1122 2956 1747 
Q 2956 2369 2687 2733 
Q 2419 3097 1959 3097 
z
M 1959 3584 
Q 2709 3584 3137 3096 
Q 3566 2609 3566 1747 
Q 3566 888 3137 398 
Q 2709 -91 1959 -91 
Q 1206 -91 779 398 
Q 353 888 353 1747 
Q 353 2609 779 3096 
Q 1206 3584 1959 3584 
z
" transform="scale(0.015625)"/>
      <path id="DejaVuSans-46" d="M 3122 3366 
L 3122 2828 
Q 2878 2963 2633 3030 
Q 2388 3097 2138 3097 
Q 1578 3097 1268 2742 
Q 959 2388 959 1747 
Q 959 1106 1268 751 
Q 1578 397 2138 397 
Q 2388 397 2633 464 
Q 2878 531 3122 666 
L 3122 134 
Q 2881 22 2623 -34 
Q 2366 -91 2075 -91 
Q 1284 -91 818 406 
Q 353 903 353 1747 
Q 353 2603 823 3093 
Q 1294 3584 2113 3584 
Q 2378 3584 2631 3529 
Q 2884 3475 3122 3366 
z
" transform="scale(0.015625)"/>
      <path id="DejaVuSans-50" d="M 3328 2828 
Q 3544 3216 3844 3400 
Q 4144 3584 4550 3584 
Q 5097 3584 5394 3201 
Q 5691 2819 5691 2113 
L 5691 0 
L 5113 0 
L 5113 2094 
Q 5113 2597 4934 2840 
Q 4756 3084 4391 3084 
Q 3944 3084 3684 2787 
Q 3425 2491 3425 1978 
L 3425 0 
L 2847 0 
L 2847 2094 
Q 2847 2600 2669 2842 
Q 2491 3084 2119 3084 
Q 1678 3084 1418 2786 
Q 1159 2488 1159 1978 
L 1159 0 
L 581 0 
L 581 3500 
L 1159 3500 
L 1159 2956 
Q 1356 3278 1631 3431 
Q 1906 3584 2284 3584 
Q 2666 3584 2933 3390 
Q 3200 3197 3328 2828 
z
" transform="scale(0.015625)"/>
      <path id="DejaVuSans-53" d="M 1159 525 
L 1159 -1331 
L 581 -1331 
L 581 3500 
L 1159 3500 
L 1159 2969 
Q 1341 3281 1617 3432 
Q 1894 3584 2278 3584 
Q 2916 3584 3314 3078 
Q 3713 2572 3713 1747 
Q 3713 922 3314 415 
Q 2916 -91 2278 -91 
Q 1894 -91 1617 61 
Q 1341 213 1159 525 
z
M 3116 1747 
Q 3116 2381 2855 2742 
Q 2594 3103 2138 3103 
Q 1681 3103 1420 2742 
Q 1159 2381 1159 1747 
Q 1159 1113 1420 752 
Q 1681 391 2138 391 
Q 2594 391 2855 752 
Q 3116 1113 3116 1747 
z
" transform="scale(0.015625)"/>
      <path id="DejaVuSans-5b" d="M 3513 3500 
L 2247 1797 
L 3578 0 
L 2900 0 
L 1881 1375 
L 863 0 
L 184 0 
L 1544 1831 
L 300 3500 
L 978 3500 
L 1906 2253 
L 2834 3500 
L 3513 3500 
z
" transform="scale(0.015625)"/>
      <path id="DejaVuSans-c" d="M 513 4856 
L 1013 4856 
Q 1481 4119 1714 3412 
Q 1947 2706 1947 2009 
Q 1947 1309 1714 600 
Q 1481 -109 1013 -844 
L 513 -844 
Q 928 -128 1133 580 
Q 1338 1288 1338 2009 
Q 1338 2731 1133 3434 
Q 928 4138 513 4856 
z
" transform="scale(0.015625)"/>
     </defs>
     <use xlink:href="#DejaVuSans-56"/>
     <use xlink:href="#DejaVuSans-57" transform="translate(52.09375 0)"/>
     <use xlink:href="#DejaVuSans-44" transform="translate(91.296875 0)"/>
     <use xlink:href="#DejaVuSans-51" transform="translate(152.578125 0)"/>
     <use xlink:href="#DejaVuSans-47" transform="translate(215.953125 0)"/>
     <use xlink:href="#DejaVuSans-44" transform="translate(279.4375 0)"/>
     <use xlink:href="#DejaVuSans-55" transform="translate(340.71875 0)"/>
     <use xlink:href="#DejaVuSans-47" transform="translate(380.078125 0)"/>
     <use xlink:href="#DejaVuSans-3" transform="translate(443.5625 0)"/>
     <use xlink:href="#DejaVuSans-4a" transform="translate(475.34375 0)"/>
     <use xlink:href="#DejaVuSans-55" transform="translate(538.828125 0)"/>
     <use xlink:href="#DejaVuSans-4c" transform="translate(579.9375 0)"/>
     <use xlink:href="#DejaVuSans-47" transform="translate(607.71875 0)"/>
     <use xlink:href="#DejaVuSans-1d" transform="translate(671.203125 0)"/>
     <use xlink:href="#DejaVuSans-3" transform="translate(704.890625 0)"/>
     <use xlink:href="#DejaVuSans-36" transform="translate(736.671875 0)"/>
     <use xlink:href="#DejaVuSans-3" transform="translate(800.15625 0)"/>
     <use xlink:href="#DejaVuSans-56" transform="translate(831.9375 0)"/>
     <use xlink:href="#DejaVuSans-4e" transform="translate(884.03125 0)"/>
     <use xlink:href="#DejaVuSans-48" transform="translate(938.375 0)"/>
     <use xlink:href="#DejaVuSans-5a" transform="translate(999.90625 0)"/>
     <use xlink:href="#DejaVuSans-56" transform="translate(1081.6875 0)"/>
     <use xlink:href="#DejaVuSans-3" transform="translate(1133.78125 0)"/>
     <use xlink:href="#DejaVuSans-57" transform="translate(1165.5625 0)"/>
     <use xlink:href="#DejaVuSans-4b" transform="translate(1204.765625 0)"/>
     <use xlink:href="#DejaVuSans-48" transform="translate(1268.140625 0)"/>
     <use xlink:href="#DejaVuSans-3" transform="translate(1329.671875 0)"/>
     <use xlink:href="#DejaVuSans-56" transform="translate(1361.453125 0)"/>
     <use xlink:href="#DejaVuSans-54" transform="translate(1413.546875 0)"/>
     <use xlink:href="#DejaVuSans-58" transform="translate(1477.03125 0)"/>
     <use xlink:href="#DejaVuSans-44" transform="translate(1540.40625 0)"/>
     <use xlink:href="#DejaVuSans-55" transform="translate(1601.6875 0)"/>
     <use xlink:href="#DejaVuSans-48" transform="translate(1640.59375 0)"/>
     <use xlink:href="#DejaVuSans-3" transform="translate(1702.125 0)"/>
     <use xlink:href="#DejaVuSans-b" transform="translate(1733.90625 0)"/>
     <use xlink:href="#DejaVuSans-4f" transform="translate(1772.921875 0)"/>
     <use xlink:href="#DejaVuSans-52" transform="translate(1800.703125 0)"/>
     <use xlink:href="#DejaVuSans-52" transform="translate(1861.890625 0)"/>
     <use xlink:href="#DejaVuSans-4e" transform="translate(1923.078125 0)"/>
     <use xlink:href="#DejaVuSans-56" transform="translate(1980.984375 0)"/>
     <use xlink:href="#DejaVuSans-3" transform="translate(2033.078125 0)"/>
     <use xlink:href="#DejaVuSans-46" transform="translate(2064.859375 0)"/>
     <use xlink:href="#DejaVuSans-52" transform="translate(2119.84375 0)"/>
     <use xlink:href="#DejaVuSans-50" transform="translate(2181.03125 0)"/>
     <use xlink:href="#DejaVuSans-53" transform="translate(2278.4375 0)"/>
     <use xlink:href="#DejaVuSans-4f" transform="translate(2341.921875 0)"/>
     <use xlink:href="#DejaVuSans-48" transform="translate(2369.703125 0)"/>
     <use xlink:href="#DejaVuSans-5b" transform="translate(2429.484375 0)"/>
     <use xlink:href="#DejaVuSans-c" transform="translate(2488.671875 0)"/>
    </g>
   </g>
   <g id="legend_1">
    <g id="patch_7">
     <path d="M 34.542187 51.199687 
L 133.935937 51.199687 
Q 135.535937 51.199687 135.535937 49.599687 
L 135.535937 26.398437 
Q 135.535937 24.798437 133.935937 24.798437 
L 34.542187 24.798437 
Q 32.942187 24.798437 32.942187 26.398437 
L 32.942187 49.599687 
Q 32.942187 51.199687 34.542187 51.199687 
z
" style="fill: #ffffff; opacity: 0.8; stroke: #cccccc; stroke-linejoin: miter"/>
    </g>
    <g id="line2d_31">
     <path d="M 36.142187 31.277187 
L 44.142187 31.277187 
L 52.142187 31.277187 
" style="fill: none; stroke: #808080; stroke-width: 1.5; stroke-linecap: square"/>
    </g>
    <g id="text_18">
     <!-- unit square -->
     <g transform="translate(58.542187 34.077187) scale(0.08 -0.08)">
      <use xlink:href="#DejaVuSans-58"/>
      <use xlink:href="#DejaVuSans-51" transform="translate(63.375 0)"/>
      <use xlink:href="#DejaVuSans-4c" transform="translate(126.75 0)"/>
      <use xlink:href="#DejaVuSans-57" transform="translate(154.53125 0)"/>
      <use xlink:href="#DejaVuSans-3" transform="translate(193.734375 0)"/>
      <use xlink:href="#DejaVuSans-56" transform="translate(225.515625 0)"/>
      <use xlink:href="#DejaVuSans-54" transform="translate(277.609375 0)"/>
      <use xlink:href="#DejaVuSans-58" transform="translate(341.09375 0)"/>
      <use xlink:href="#DejaVuSans-44" transform="translate(404.46875 0)"/>
      <use xlink:href="#DejaVuSans-55" transform="translate(465.75 0)"/>
      <use xlink:href="#DejaVuSans-48" transform="translate(504.65625 0)"/>
     </g>
    </g>
    <g id="line2d_32">
     <path d="M 36.142187 43.277812 
L 44.142187 43.277812 
L 52.142187 43.277812 
" style="fill: none; stroke: #c0392b; stroke-width: 2; stroke-linecap: square"/>
    </g>
    <g id="text_19">
     <!-- S(square): skewed -->
     <g transform="translate(58.542187 46.077812) scale(0.08 -0.08)">
      <use xlink:href="#DejaVuSans-36"/>
      <use xlink:href="#DejaVuSans-b" transform="translate(63.484375 0)"/>
      <use xlink:href="#DejaVuSans-56" transform="translate(102.5 0)"/>
      <use xlink:href="#DejaVuSans-54" transform="translate(154.59375 0)"/>
      <use xlink:href="#DejaVuSans-58" transform="translate(218.078125 0)"/>
      <use xlink:href="#DejaVuSans-44" transform="translate(281.453125 0)"/>
      <use xlink:href="#DejaVuSans-55" transform="translate(342.734375 0)"/>
      <use xlink:href="#DejaVuSans-48" transform="translate(381.640625 0)"/>
      <use xlink:href="#DejaVuSans-c" transform="translate(443.171875 0)"/>
      <use xlink:href="#DejaVuSans-1d" transform="translate(482.1875 0)"/>
      <use xlink:href="#DejaVuSans-3" transform="translate(515.875 0)"/>
      <use xlink:href="#DejaVuSans-56" transform="translate(547.65625 0)"/>
      <use xlink:href="#DejaVuSans-4e" transform="translate(599.75 0)"/>
      <use xlink:href="#DejaVuSans-48" transform="translate(654.09375 0)"/>
      <use xlink:href="#DejaVuSans-5a" transform="translate(715.625 0)"/>
      <use xlink:href="#DejaVuSans-48" transform="translate(797.40625 0)"/>
      <use xlink:href="#DejaVuSans-47" transform="translate(858.9375 0)"/>
     </g>
    </g>
   </g>
  </g>
  <g id="axes_2">
   <g id="patch_8">
    <path d="M 363.742187 299.798437 
L 642.742188 299.798437 
L 642.742188 20.798437 
L 363.742187 20.798437 
z
" style="fill: #ffffff"/>
   </g>
   <g id="matplotlib.axis_3">
    <g id="xtick_9">
     <g id="line2d_33">
      <g>
       <use xlink:href="#m875e57af44" x="371.282728" y="299.798437" style="stroke: #000000; stroke-width: 0.8"/>
      </g>
     </g>
     <g id="text_20">
      <!-- −3 -->
      <g transform="translate(363.911634 314.396094) scale(0.1 -0.1)">
       <use xlink:href="#DejaVuSans-c9c"/>
       <use xlink:href="#DejaVuSans-16" transform="translate(83.796875 0)"/>
      </g>
     </g>
    </g>
    <g id="xtick_10">
     <g id="line2d_34">
      <g>
       <use xlink:href="#m875e57af44" x="408.985431" y="299.798437" style="stroke: #000000; stroke-width: 0.8"/>
      </g>
     </g>
     <g id="text_21">
      <!-- −2 -->
      <g transform="translate(401.614337 314.396094) scale(0.1 -0.1)">
       <use xlink:href="#DejaVuSans-c9c"/>
       <use xlink:href="#DejaVuSans-15" transform="translate(83.796875 0)"/>
      </g>
     </g>
    </g>
    <g id="xtick_11">
     <g id="line2d_35">
      <g>
       <use xlink:href="#m875e57af44" x="446.688133" y="299.798437" style="stroke: #000000; stroke-width: 0.8"/>
      </g>
     </g>
     <g id="text_22">
      <!-- −1 -->
      <g transform="translate(439.31704 314.396094) scale(0.1 -0.1)">
       <use xlink:href="#DejaVuSans-c9c"/>
       <use xlink:href="#DejaVuSans-14" transform="translate(83.796875 0)"/>
      </g>
     </g>
    </g>
    <g id="xtick_12">
     <g id="line2d_36">
      <g>
       <use xlink:href="#m875e57af44" x="484.390836" y="299.798437" style="stroke: #000000; stroke-width: 0.8"/>
      </g>
     </g>
     <g id="text_23">
      <!-- 0 -->
      <g transform="translate(481.209586 314.396094) scale(0.1 -0.1)">
       <use xlink:href="#DejaVuSans-13"/>
      </g>
     </g>
    </g>
    <g id="xtick_13">
     <g id="line2d_37">
      <g>
       <use xlink:href="#m875e57af44" x="522.093539" y="299.798437" style="stroke: #000000; stroke-width: 0.8"/>
      </g>
     </g>
     <g id="text_24">
      <!-- 1 -->
      <g transform="translate(518.912289 314.396094) scale(0.1 -0.1)">
       <use xlink:href="#DejaVuSans-14"/>
      </g>
     </g>
    </g>
    <g id="xtick_14">
     <g id="line2d_38">
      <g>
       <use xlink:href="#m875e57af44" x="559.796242" y="299.798437" style="stroke: #000000; stroke-width: 0.8"/>
      </g>
     </g>
     <g id="text_25">
      <!-- 2 -->
      <g transform="translate(556.614992 314.396094) scale(0.1 -0.1)">
       <use xlink:href="#DejaVuSans-15"/>
      </g>
     </g>
    </g>
    <g id="xtick_15">
     <g id="line2d_39">
      <g>
       <use xlink:href="#m875e57af44" x="597.498944" y="299.798437" style="stroke: #000000; stroke-width: 0.8"/>
      </g>
     </g>
     <g id="text_26">
      <!-- 3 -->
      <g transform="translate(594.317694 314.396094) scale(0.1 -0.1)">
       <use xlink:href="#DejaVuSans-16"/>
      </g>
     </g>
    </g>
    <g id="xtick_16">
     <g id="line2d_40">
      <g>
       <use xlink:href="#m875e57af44" x="635.201647" y="299.798437" style="stroke: #000000; stroke-width: 0.8"/>
      </g>
     </g>
     <g id="text_27">
      <!-- 4 -->
      <g transform="translate(632.020397 314.396094) scale(0.1 -0.1)">
       <use xlink:href="#DejaVuSans-17"/>
      </g>
     </g>
    </g>
   </g>
   <g id="matplotlib.axis_4">
    <g id="ytick_9">
     <g id="line2d_41">
      <g>
       <use xlink:href="#m42f03fc6a2" x="363.742187" y="292.257897" style="stroke: #000000; stroke-width: 0.8"/>
      </g>
     </g>
     <g id="text_28">
      <!-- −3 -->
      <g transform="translate(342 296.056725) scale(0.1 -0.1)">
       <use xlink:href="#DejaVuSans-c9c"/>
       <use xlink:href="#DejaVuSans-16" transform="translate(83.796875 0)"/>
      </g>
     </g>
    </g>
    <g id="ytick_10">
     <g id="line2d_42">
      <g>
       <use xlink:href="#m42f03fc6a2" x="363.742187" y="254.555194" style="stroke: #000000; stroke-width: 0.8"/>
      </g>
     </g>
     <g id="text_29">
      <!-- −2 -->
      <g transform="translate(342 258.354022) scale(0.1 -0.1)">
       <use xlink:href="#DejaVuSans-c9c"/>
       <use xlink:href="#DejaVuSans-15" transform="translate(83.796875 0)"/>
      </g>
     </g>
    </g>
    <g id="ytick_11">
     <g id="line2d_43">
      <g>
       <use xlink:href="#m42f03fc6a2" x="363.742187" y="216.852492" style="stroke: #000000; stroke-width: 0.8"/>
      </g>
     </g>
     <g id="text_30">
      <!-- −1 -->
      <g transform="translate(342 220.65132) scale(0.1 -0.1)">
       <use xlink:href="#DejaVuSans-c9c"/>
       <use xlink:href="#DejaVuSans-14" transform="translate(83.796875 0)"/>
      </g>
     </g>
    </g>
    <g id="ytick_12">
     <g id="line2d_44">
      <g>
       <use xlink:href="#m42f03fc6a2" x="363.742187" y="179.149789" style="stroke: #000000; stroke-width: 0.8"/>
      </g>
     </g>
     <g id="text_31">
      <!-- 0 -->
      <g transform="translate(350.379687 182.948617) scale(0.1 -0.1)">
       <use xlink:href="#DejaVuSans-13"/>
      </g>
     </g>
    </g>
    <g id="ytick_13">
     <g id="line2d_45">
      <g>
       <use xlink:href="#m42f03fc6a2" x="363.742187" y="141.447086" style="stroke: #000000; stroke-width: 0.8"/>
      </g>
     </g>
     <g id="text_32">
      <!-- 1 -->
      <g transform="translate(350.379687 145.245914) scale(0.1 -0.1)">
       <use xlink:href="#DejaVuSans-14"/>
      </g>
     </g>
    </g>
    <g id="ytick_14">
     <g id="line2d_46">
      <g>
       <use xlink:href="#m42f03fc6a2" x="363.742187" y="103.744383" style="stroke: #000000; stroke-width: 0.8"/>
      </g>
     </g>
     <g id="text_33">
      <!-- 2 -->
      <g transform="translate(350.379687 107.543212) scale(0.1 -0.1)">
       <use xlink:href="#DejaVuSans-15"/>
      </g>
     </g>
    </g>
    <g id="ytick_15">
     <g id="line2d_47">
      <g>
       <use xlink:href="#m42f03fc6a2" x="363.742187" y="66.041681" style="stroke: #000000; stroke-width: 0.8"/>
      </g>
     </g>
     <g id="text_34">
      <!-- 3 -->
      <g transform="translate(350.379687 69.840509) scale(0.1 -0.1)">
       <use xlink:href="#DejaVuSans-16"/>
      </g>
     </g>
    </g>
    <g id="ytick_16">
     <g id="line2d_48">
      <g>
       <use xlink:href="#m42f03fc6a2" x="363.742187" y="28.338978" style="stroke: #000000; stroke-width: 0.8"/>
      </g>
     </g>
     <g id="text_35">
      <!-- 4 -->
      <g transform="translate(350.379687 32.137806) scale(0.1 -0.1)">
       <use xlink:href="#DejaVuSans-17"/>
      </g>
     </g>
    </g>
   </g>
   <g id="line2d_49">
    <path d="M 371.282728 292.257897 
L 597.498944 66.041681 
" clip-path="url(#pcd0e586289)" style="fill: none; stroke-dasharray: 3.7,1.6; stroke-dashoffset: 0; stroke: #c0392b; stroke-opacity: 0.7"/>
   </g>
   <g id="line2d_50">
    <path d="M 371.282728 66.041681 
L 597.498944 292.257897 
" clip-path="url(#pcd0e586289)" style="fill: none; stroke-dasharray: 3.7,1.6; stroke-dashoffset: 0; stroke: #2471a3; stroke-opacity: 0.7"/>
   </g>
   <g id="line2d_51">
    <path d="M 484.390836 179.149789 
L 522.093539 141.447086 
L 559.796242 179.149789 
L 522.093539 216.852492 
L 484.390836 179.149789 
" clip-path="url(#pcd0e586289)" style="fill: none; stroke: #808080; stroke-width: 1.5; stroke-linecap: square"/>
   </g>
   <g id="line2d_52">
    <path d="M 484.390836 179.149789 
L 597.498944 66.041681 
L 635.201647 103.744383 
L 522.093539 216.852492 
L 484.390836 179.149789 
" clip-path="url(#pcd0e586289)" style="fill: none; stroke: #c0392b; stroke-width: 2; stroke-linecap: square"/>
   </g>
   <g id="line2d_53">
    <path d="M 363.742187 179.149789 
L 642.742188 179.149789 
" clip-path="url(#pcd0e586289)" style="fill: none; stroke: #999999; stroke-width: 0.6; stroke-linecap: square"/>
   </g>
   <g id="line2d_54">
    <path d="M 484.390836 299.798437 
L 484.390836 20.798437 
" clip-path="url(#pcd0e586289)" style="fill: none; stroke: #999999; stroke-width: 0.6; stroke-linecap: square"/>
   </g>
   <g id="patch_9">
    <path d="M 363.742187 299.798437 
L 363.742187 20.798437 
" style="fill: none; stroke: #000000; stroke-width: 0.8; stroke-linejoin: miter; stroke-linecap: square"/>
   </g>
   <g id="patch_10">
    <path d="M 642.742188 299.798437 
L 642.742188 20.798437 
" style="fill: none; stroke: #000000; stroke-width: 0.8; stroke-linejoin: miter; stroke-linecap: square"/>
   </g>
   <g id="patch_11">
    <path d="M 363.742187 299.798437 
L 642.742188 299.798437 
" style="fill: none; stroke: #000000; stroke-width: 0.8; stroke-linejoin: miter; stroke-linecap: square"/>
   </g>
   <g id="patch_12">
    <path d="M 363.742187 20.798437 
L 642.742188 20.798437 
" style="fill: none; stroke: #000000; stroke-width: 0.8; stroke-linejoin: miter; stroke-linecap: square"/>
   </g>
   <g id="text_36">
    <!-- eigenbasis grid: S = pure stretch (3 and 1), no skew -->
    <g transform="translate(372.982812 14.798437) scale(0.1 -0.1)">
     <defs>
      <path id="DejaVuSans-45" d="M 3116 1747 
Q 3116 2381 2855 2742 
Q 2594 3103 2138 3103 
Q 1681 3103 1420 2742 
Q 1159 2381 1159 1747 
Q 1159 1113 1420 752 
Q 1681 391 2138 391 
Q 2594 391 2855 752 
Q 3116 1113 3116 1747 
z
M 1159 2969 
Q 1341 3281 1617 3432 
Q 1894 3584 2278 3584 
Q 2916 3584 3314 3078 
Q 3713 2572 3713 1747 
Q 3713 922 3314 415 
Q 2916 -91 2278 -91 
Q 1894 -91 1617 61 
Q 1341 213 1159 525 
L 1159 0 
L 581 0 
L 581 4863 
L 1159 4863 
L 1159 2969 
z
" transform="scale(0.015625)"/>
      <path id="DejaVuSans-20" d="M 678 2906 
L 4684 2906 
L 4684 2381 
L 678 2381 
L 678 2906 
z
M 678 1631 
L 4684 1631 
L 4684 1100 
L 678 1100 
L 678 1631 
z
" transform="scale(0.015625)"/>
      <path id="DejaVuSans-f" d="M 750 794 
L 1409 794 
L 1409 256 
L 897 -744 
L 494 -744 
L 750 256 
L 750 794 
z
" transform="scale(0.015625)"/>
     </defs>
     <use xlink:href="#DejaVuSans-48"/>
     <use xlink:href="#DejaVuSans-4c" transform="translate(61.53125 0)"/>
     <use xlink:href="#DejaVuSans-4a" transform="translate(89.3125 0)"/>
     <use xlink:href="#DejaVuSans-48" transform="translate(152.796875 0)"/>
     <use xlink:href="#DejaVuSans-51" transform="translate(214.328125 0)"/>
     <use xlink:href="#DejaVuSans-45" transform="translate(277.703125 0)"/>
     <use xlink:href="#DejaVuSans-44" transform="translate(341.1875 0)"/>
     <use xlink:href="#DejaVuSans-56" transform="translate(402.46875 0)"/>
     <use xlink:href="#DejaVuSans-4c" transform="translate(454.5625 0)"/>
     <use xlink:href="#DejaVuSans-56" transform="translate(482.34375 0)"/>
     <use xlink:href="#DejaVuSans-3" transform="translate(534.4375 0)"/>
     <use xlink:href="#DejaVuSans-4a" transform="translate(566.21875 0)"/>
     <use xlink:href="#DejaVuSans-55" transform="translate(629.703125 0)"/>
     <use xlink:href="#DejaVuSans-4c" transform="translate(670.8125 0)"/>
     <use xlink:href="#DejaVuSans-47" transform="translate(698.59375 0)"/>
     <use xlink:href="#DejaVuSans-1d" transform="translate(762.078125 0)"/>
     <use xlink:href="#DejaVuSans-3" transform="translate(795.765625 0)"/>
     <use xlink:href="#DejaVuSans-36" transform="translate(827.546875 0)"/>
     <use xlink:href="#DejaVuSans-3" transform="translate(891.03125 0)"/>
     <use xlink:href="#DejaVuSans-20" transform="translate(922.8125 0)"/>
     <use xlink:href="#DejaVuSans-3" transform="translate(1006.609375 0)"/>
     <use xlink:href="#DejaVuSans-53" transform="translate(1038.390625 0)"/>
     <use xlink:href="#DejaVuSans-58" transform="translate(1101.875 0)"/>
     <use xlink:href="#DejaVuSans-55" transform="translate(1165.25 0)"/>
     <use xlink:href="#DejaVuSans-48" transform="translate(1204.15625 0)"/>
     <use xlink:href="#DejaVuSans-3" transform="translate(1265.6875 0)"/>
     <use xlink:href="#DejaVuSans-56" transform="translate(1297.46875 0)"/>
     <use xlink:href="#DejaVuSans-57" transform="translate(1349.5625 0)"/>
     <use xlink:href="#DejaVuSans-55" transform="translate(1388.765625 0)"/>
     <use xlink:href="#DejaVuSans-48" transform="translate(1427.671875 0)"/>
     <use xlink:href="#DejaVuSans-57" transform="translate(1489.203125 0)"/>
     <use xlink:href="#DejaVuSans-46" transform="translate(1528.40625 0)"/>
     <use xlink:href="#DejaVuSans-4b" transform="translate(1583.390625 0)"/>
     <use xlink:href="#DejaVuSans-3" transform="translate(1646.765625 0)"/>
     <use xlink:href="#DejaVuSans-b" transform="translate(1678.546875 0)"/>
     <use xlink:href="#DejaVuSans-16" transform="translate(1717.5625 0)"/>
     <use xlink:href="#DejaVuSans-3" transform="translate(1781.1875 0)"/>
     <use xlink:href="#DejaVuSans-44" transform="translate(1812.96875 0)"/>
     <use xlink:href="#DejaVuSans-51" transform="translate(1874.25 0)"/>
     <use xlink:href="#DejaVuSans-47" transform="translate(1937.625 0)"/>
     <use xlink:href="#DejaVuSans-3" transform="translate(2001.109375 0)"/>
     <use xlink:href="#DejaVuSans-14" transform="translate(2032.890625 0)"/>
     <use xlink:href="#DejaVuSans-c" transform="translate(2096.515625 0)"/>
     <use xlink:href="#DejaVuSans-f" transform="translate(2135.53125 0)"/>
     <use xlink:href="#DejaVuSans-3" transform="translate(2167.3125 0)"/>
     <use xlink:href="#DejaVuSans-51" transform="translate(2199.09375 0)"/>
     <use xlink:href="#DejaVuSans-52" transform="translate(2262.46875 0)"/>
     <use xlink:href="#DejaVuSans-3" transform="translate(2323.65625 0)"/>
     <use xlink:href="#DejaVuSans-56" transform="translate(2355.4375 0)"/>
     <use xlink:href="#DejaVuSans-4e" transform="translate(2407.53125 0)"/>
     <use xlink:href="#DejaVuSans-48" transform="translate(2461.875 0)"/>
     <use xlink:href="#DejaVuSans-5a" transform="translate(2523.40625 0)"/>
    </g>
   </g>
   <g id="legend_2">
    <g id="patch_13">
     <path d="M 369.342187 51.199687 
L 515.000937 51.199687 
Q 516.600937 51.199687 516.600937 49.599687 
L 516.600937 26.398437 
Q 516.600937 24.798437 515.000937 24.798437 
L 369.342187 24.798437 
Q 367.742187 24.798437 367.742187 26.398437 
L 367.742187 49.599687 
Q 367.742187 51.199687 369.342187 51.199687 
z
" style="fill: #ffffff; opacity: 0.8; stroke: #cccccc; stroke-linejoin: miter"/>
    </g>
    <g id="line2d_55">
     <path d="M 370.942187 31.277187 
L 378.942187 31.277187 
L 386.942187 31.277187 
" style="fill: none; stroke: #808080; stroke-width: 1.5; stroke-linecap: square"/>
    </g>
    <g id="text_37">
     <!-- square (eigen-axes) -->
     <g transform="translate(393.342187 34.077187) scale(0.08 -0.08)">
      <defs>
       <path id="DejaVuSans-10" d="M 313 2009 
L 1997 2009 
L 1997 1497 
L 313 1497 
L 313 2009 
z
" transform="scale(0.015625)"/>
      </defs>
      <use xlink:href="#DejaVuSans-56"/>
      <use xlink:href="#DejaVuSans-54" transform="translate(52.09375 0)"/>
      <use xlink:href="#DejaVuSans-58" transform="translate(115.578125 0)"/>
      <use xlink:href="#DejaVuSans-44" transform="translate(178.953125 0)"/>
      <use xlink:href="#DejaVuSans-55" transform="translate(240.234375 0)"/>
      <use xlink:href="#DejaVuSans-48" transform="translate(279.140625 0)"/>
      <use xlink:href="#DejaVuSans-3" transform="translate(340.671875 0)"/>
      <use xlink:href="#DejaVuSans-b" transform="translate(372.453125 0)"/>
      <use xlink:href="#DejaVuSans-48" transform="translate(411.46875 0)"/>
      <use xlink:href="#DejaVuSans-4c" transform="translate(473 0)"/>
      <use xlink:href="#DejaVuSans-4a" transform="translate(500.78125 0)"/>
      <use xlink:href="#DejaVuSans-48" transform="translate(564.265625 0)"/>
      <use xlink:href="#DejaVuSans-51" transform="translate(625.796875 0)"/>
      <use xlink:href="#DejaVuSans-10" transform="translate(689.171875 0)"/>
      <use xlink:href="#DejaVuSans-44" transform="translate(725.25 0)"/>
      <use xlink:href="#DejaVuSans-5b" transform="translate(786.53125 0)"/>
      <use xlink:href="#DejaVuSans-48" transform="translate(842.640625 0)"/>
      <use xlink:href="#DejaVuSans-56" transform="translate(904.171875 0)"/>
      <use xlink:href="#DejaVuSans-c" transform="translate(956.265625 0)"/>
     </g>
    </g>
    <g id="line2d_56">
     <path d="M 370.942187 43.277812 
L 378.942187 43.277812 
L 386.942187 43.277812 
" style="fill: none; stroke: #c0392b; stroke-width: 2; stroke-linecap: square"/>
    </g>
    <g id="text_38">
     <!-- x3 along (1,1), x1 along (1,-1) -->
     <g transform="translate(393.342187 46.077812) scale(0.08 -0.08)">
      <use xlink:href="#DejaVuSans-5b"/>
      <use xlink:href="#DejaVuSans-16" transform="translate(59.1875 0)"/>
      <use xlink:href="#DejaVuSans-3" transform="translate(122.8125 0)"/>
      <use xlink:href="#DejaVuSans-44" transform="translate(154.59375 0)"/>
      <use xlink:href="#DejaVuSans-4f" transform="translate(215.875 0)"/>
      <use xlink:href="#DejaVuSans-52" transform="translate(243.65625 0)"/>
      <use xlink:href="#DejaVuSans-51" transform="translate(304.84375 0)"/>
      <use xlink:href="#DejaVuSans-4a" transform="translate(368.21875 0)"/>
      <use xlink:href="#DejaVuSans-3" transform="translate(431.703125 0)"/>
      <use xlink:href="#DejaVuSans-b" transform="translate(463.484375 0)"/>
      <use xlink:href="#DejaVuSans-14" transform="translate(502.5 0)"/>
      <use xlink:href="#DejaVuSans-f" transform="translate(566.125 0)"/>
      <use xlink:href="#DejaVuSans-14" transform="translate(597.90625 0)"/>
      <use xlink:href="#DejaVuSans-c" transform="translate(661.53125 0)"/>
      <use xlink:href="#DejaVuSans-f" transform="translate(700.546875 0)"/>
      <use xlink:href="#DejaVuSans-3" transform="translate(732.328125 0)"/>
      <use xlink:href="#DejaVuSans-5b" transform="translate(764.109375 0)"/>
      <use xlink:href="#DejaVuSans-14" transform="translate(823.296875 0)"/>
      <use xlink:href="#DejaVuSans-3" transform="translate(886.921875 0)"/>
      <use xlink:href="#DejaVuSans-44" transform="translate(918.703125 0)"/>
      <use xlink:href="#DejaVuSans-4f" transform="translate(979.984375 0)"/>
      <use xlink:href="#DejaVuSans-52" transform="translate(1007.765625 0)"/>
      <use xlink:href="#DejaVuSans-51" transform="translate(1068.953125 0)"/>
      <use xlink:href="#DejaVuSans-4a" transform="translate(1132.328125 0)"/>
      <use xlink:href="#DejaVuSans-3" transform="translate(1195.8125 0)"/>
      <use xlink:href="#DejaVuSans-b" transform="translate(1227.59375 0)"/>
      <use xlink:href="#DejaVuSans-14" transform="translate(1266.609375 0)"/>
      <use xlink:href="#DejaVuSans-f" transform="translate(1330.234375 0)"/>
      <use xlink:href="#DejaVuSans-10" transform="translate(1362.015625 0)"/>
      <use xlink:href="#DejaVuSans-14" transform="translate(1398.09375 0)"/>
      <use xlink:href="#DejaVuSans-c" transform="translate(1461.71875 0)"/>
     </g>
    </g>
   </g>
  </g>
 </g>
 <defs>
  <clipPath id="p9eda82e006">
   <rect x="28.942187" y="20.798437" width="279" height="279"/>
  </clipPath>
  <clipPath id="pcd0e586289">
   <rect x="363.742187" y="20.798437" width="279" height="279"/>
  </clipPath>
 </defs>
</svg>
