<?xml version="1.0" encoding="utf-8" standalone="no"?>
<!DOCTYPE svg PUBLIC "-//W3C//DTD SVG 1.1//EN"
  "http://www.w3.org/Graphics/SVG/1.1/DTD/svg11.dtd">
<svg xmlns:xlink="http://www.w3.org/1999/xlink" width="379.625586pt" height="377.638437pt" viewBox="0 0 379.625586 377.638437" xmlns="http://www.w3.org/2000/svg" version="1.1">
 <metadata>
  <rdf:RDF xmlns:dc="http://purl.org/dc/elements/1.1/" xmlns:cc="http://creativecommons.org/ns#" xmlns:rdf="http://www.w3.org/1999/02/22-rdf-syntax-ns#">
   <cc:Work>
    <dc:type rdf:resource="http://purl.org/dc/dcmitype/StillImage"/>
    <dc:date>2026-06-13T19:07:51.746458</dc:date>
    <dc:format>image/svg+xml</dc:format>
    <dc:creator>
     <cc:Agent>
      <dc:title>Matplotlib v3.11.0, https://matplotlib.org/</dc:title>
     </cc:Agent>
    </dc:creator>
   </cc:Work>
  </rdf:RDF>
 </metadata>
 <defs>
  <style type="text/css">*{stroke-linejoin: round; stroke-linecap: butt}</style>
 </defs>
 <g id="figure_1">
  <g id="patch_1">
   <path d="M 0 377.638437 
L 379.625586 377.638437 
L 379.625586 0 
L 0 0 
z
" style="fill: #ffffff"/>
  </g>
  <g id="axes_1">
   <g id="patch_2">
    <path d="M 28.942187 353.438437 
L 361.582187 353.438437 
L 361.582187 20.798437 
L 28.942187 20.798437 
z
" style="fill: #ffffff"/>
   </g>
   <g id="matplotlib.axis_1">
    <g id="xtick_1">
     <g id="line2d_1">
      <path d="M 56.662187 353.438437 
L 56.662187 20.798437 
" clip-path="url(#p34a28e281f)" style="fill: none; stroke: #e6e6e6; stroke-width: 0.6; stroke-linecap: square"/>
     </g>
     <g id="line2d_2">
      <defs>
       <path id="m157103aa73" d="M 0 0 
L 0 3.5 
" style="stroke: #000000; stroke-width: 0.8"/>
      </defs>
      <g>
       <use xlink:href="#m157103aa73" x="56.662187" y="353.438437" style="stroke: #000000; stroke-width: 0.8"/>
      </g>
     </g>
     <g id="text_1">
      <!-- −2 -->
      <g transform="translate(49.291094 368.036094) scale(0.1 -0.1)">
       <defs>
        <path id="DejaVuSans-c9c" d="M 678 2272 
L 4684 2272 
L 4684 1741 
L 678 1741 
L 678 2272 
z
" transform="scale(0.015625)"/>
        <path id="DejaVuSans-15" d="M 1228 531 
L 3431 531 
L 3431 0 
L 469 0 
L 469 531 
Q 828 903 1448 1529 
Q 2069 2156 2228 2338 
Q 2531 2678 2651 2914 
Q 2772 3150 2772 3378 
Q 2772 3750 2511 3984 
Q 2250 4219 1831 4219 
Q 1534 4219 1204 4116 
Q 875 4013 500 3803 
L 500 4441 
Q 881 4594 1212 4672 
Q 1544 4750 1819 4750 
Q 2544 4750 2975 4387 
Q 3406 4025 3406 3419 
Q 3406 3131 3298 2873 
Q 3191 2616 2906 2266 
Q 2828 2175 2409 1742 
Q 1991 1309 1228 531 
z
" transform="scale(0.015625)"/>
       </defs>
       <use xlink:href="#DejaVuSans-c9c"/>
       <use xlink:href="#DejaVuSans-15" transform="translate(83.796875 0)"/>
      </g>
     </g>
    </g>
    <g id="xtick_2">
     <g id="line2d_3">
      <path d="M 125.962187 353.438437 
L 125.962187 20.798437 
" clip-path="url(#p34a28e281f)" style="fill: none; stroke: #e6e6e6; stroke-width: 0.6; stroke-linecap: square"/>
     </g>
     <g id="line2d_4">
      <g>
       <use xlink:href="#m157103aa73" x="125.962187" y="353.438437" style="stroke: #000000; stroke-width: 0.8"/>
      </g>
     </g>
     <g id="text_2">
      <!-- −1 -->
      <g transform="translate(118.591094 368.036094) scale(0.1 -0.1)">
       <defs>
        <path id="DejaVuSans-14" d="M 794 531 
L 1825 531 
L 1825 4091 
L 703 3866 
L 703 4441 
L 1819 4666 
L 2450 4666 
L 2450 531 
L 3481 531 
L 3481 0 
L 794 0 
L 794 531 
z
" transform="scale(0.015625)"/>
       </defs>
       <use xlink:href="#DejaVuSans-c9c"/>
       <use xlink:href="#DejaVuSans-14" transform="translate(83.796875 0)"/>
      </g>
     </g>
    </g>
    <g id="xtick_3">
     <g id="line2d_5">
      <path d="M 195.262187 353.438437 
L 195.262187 20.798437 
" clip-path="url(#p34a28e281f)" style="fill: none; stroke: #e6e6e6; stroke-width: 0.6; stroke-linecap: square"/>
     </g>
     <g id="line2d_6">
      <g>
       <use xlink:href="#m157103aa73" x="195.262187" y="353.438437" style="stroke: #000000; stroke-width: 0.8"/>
      </g>
     </g>
     <g id="text_3">
      <!-- 0 -->
      <g transform="translate(192.080937 368.036094) scale(0.1 -0.1)">
       <defs>
        <path id="DejaVuSans-13" d="M 2034 4250 
Q 1547 4250 1301 3770 
Q 1056 3291 1056 2328 
Q 1056 1369 1301 889 
Q 1547 409 2034 409 
Q 2525 409 2770 889 
Q 3016 1369 3016 2328 
Q 3016 3291 2770 3770 
Q 2525 4250 2034 4250 
z
M 2034 4750 
Q 2819 4750 3233 4129 
Q 3647 3509 3647 2328 
Q 3647 1150 3233 529 
Q 2819 -91 2034 -91 
Q 1250 -91 836 529 
Q 422 1150 422 2328 
Q 422 3509 836 4129 
Q 1250 4750 2034 4750 
z
" transform="scale(0.015625)"/>
       </defs>
       <use xlink:href="#DejaVuSans-13"/>
      </g>
     </g>
    </g>
    <g id="xtick_4">
     <g id="line2d_7">
      <path d="M 264.562187 353.438437 
L 264.562187 20.798437 
" clip-path="url(#p34a28e281f)" style="fill: none; stroke: #e6e6e6; stroke-width: 0.6; stroke-linecap: square"/>
     </g>
     <g id="line2d_8">
      <g>
       <use xlink:href="#m157103aa73" x="264.562187" y="353.438437" style="stroke: #000000; stroke-width: 0.8"/>
      </g>
     </g>
     <g id="text_4">
      <!-- 1 -->
      <g transform="translate(261.380938 368.036094) scale(0.1 -0.1)">
       <use xlink:href="#DejaVuSans-14"/>
      </g>
     </g>
    </g>
    <g id="xtick_5">
     <g id="line2d_9">
      <path d="M 333.862188 353.438437 
L 333.862188 20.798437 
" clip-path="url(#p34a28e281f)" style="fill: none; stroke: #e6e6e6; stroke-width: 0.6; stroke-linecap: square"/>
     </g>
     <g id="line2d_10">
      <g>
       <use xlink:href="#m157103aa73" x="333.862188" y="353.438437" style="stroke: #000000; stroke-width: 0.8"/>
      </g>
     </g>
     <g id="text_5">
      <!-- 2 -->
      <g transform="translate(330.680938 368.036094) scale(0.1 -0.1)">
       <use xlink:href="#DejaVuSans-15"/>
      </g>
     </g>
    </g>
   </g>
   <g id="matplotlib.axis_2">
    <g id="ytick_1">
     <g id="line2d_11">
      <path d="M 28.942187 325.718437 
L 361.582187 325.718437 
" clip-path="url(#p34a28e281f)" style="fill: none; stroke: #e6e6e6; stroke-width: 0.6; stroke-linecap: square"/>
     </g>
     <g id="line2d_12">
      <defs>
       <path id="me6576b0a35" d="M 0 0 
L -3.5 0 
" style="stroke: #000000; stroke-width: 0.8"/>
      </defs>
      <g>
       <use xlink:href="#me6576b0a35" x="28.942187" y="325.718437" style="stroke: #000000; stroke-width: 0.8"/>
      </g>
     </g>
     <g id="text_6">
      <!-- −2 -->
      <g transform="translate(7.2 329.517266) scale(0.1 -0.1)">
       <use xlink:href="#DejaVuSans-c9c"/>
       <use xlink:href="#DejaVuSans-15" transform="translate(83.796875 0)"/>
      </g>
     </g>
    </g>
    <g id="ytick_2">
     <g id="line2d_13">
      <path d="M 28.942187 256.418437 
L 361.582187 256.418437 
" clip-path="url(#p34a28e281f)" style="fill: none; stroke: #e6e6e6; stroke-width: 0.6; stroke-linecap: square"/>
     </g>
     <g id="line2d_14">
      <g>
       <use xlink:href="#me6576b0a35" x="28.942187" y="256.418437" style="stroke: #000000; stroke-width: 0.8"/>
      </g>
     </g>
     <g id="text_7">
      <!-- −1 -->
      <g transform="translate(7.2 260.217266) scale(0.1 -0.1)">
       <use xlink:href="#DejaVuSans-c9c"/>
       <use xlink:href="#DejaVuSans-14" transform="translate(83.796875 0)"/>
      </g>
     </g>
    </g>
    <g id="ytick_3">
     <g id="line2d_15">
      <path d="M 28.942187 187.118437 
L 361.582187 187.118437 
" clip-path="url(#p34a28e281f)" style="fill: none; stroke: #e6e6e6; stroke-width: 0.6; stroke-linecap: square"/>
     </g>
     <g id="line2d_16">
      <g>
       <use xlink:href="#me6576b0a35" x="28.942187" y="187.118437" style="stroke: #000000; stroke-width: 0.8"/>
      </g>
     </g>
     <g id="text_8">
      <!-- 0 -->
      <g transform="translate(15.579687 190.917266) scale(0.1 -0.1)">
       <use xlink:href="#DejaVuSans-13"/>
      </g>
     </g>
    </g>
    <g id="ytick_4">
     <g id="line2d_17">
      <path d="M 28.942187 117.818437 
L 361.582187 117.818437 
" clip-path="url(#p34a28e281f)" style="fill: none; stroke: #e6e6e6; stroke-width: 0.6; stroke-linecap: square"/>
     </g>
     <g id="line2d_18">
      <g>
       <use xlink:href="#me6576b0a35" x="28.942187" y="117.818437" style="stroke: #000000; stroke-width: 0.8"/>
      </g>
     </g>
     <g id="text_9">
      <!-- 1 -->
      <g transform="translate(15.579687 121.617266) scale(0.1 -0.1)">
       <use xlink:href="#DejaVuSans-14"/>
      </g>
     </g>
    </g>
    <g id="ytick_5">
     <g id="line2d_19">
      <path d="M 28.942187 48.518437 
L 361.582187 48.518437 
" clip-path="url(#p34a28e281f)" style="fill: none; stroke: #e6e6e6; stroke-width: 0.6; stroke-linecap: square"/>
     </g>
     <g id="line2d_20">
      <g>
       <use xlink:href="#me6576b0a35" x="28.942187" y="48.518437" style="stroke: #000000; stroke-width: 0.8"/>
      </g>
     </g>
     <g id="text_10">
      <!-- 2 -->
      <g transform="translate(15.579687 52.317266) scale(0.1 -0.1)">
       <use xlink:href="#DejaVuSans-15"/>
      </g>
     </g>
    </g>
   </g>
   <g id="line2d_21">
    <path d="M 244.264687 138.115938 
L 249.51018 143.555791 
L 254.540507 149.168429 
L 259.335715 154.93159 
L 263.876786 160.822414 
L 268.145707 166.817538 
L 272.125548 172.893182 
L 275.800522 179.025249 
L 279.156054 185.189416 
L 281.455012 189.818901 
L 283.561641 194.44236 
L 285.47124 199.049477 
L 287.179546 203.629971 
L 288.682749 208.173622 
L 289.977495 212.67029 
L 291.060893 217.109942 
L 291.930527 221.482671 
L 292.584456 225.77872 
L 293.021221 229.988503 
L 293.239848 234.102626 
L 293.239848 238.111909 
L 293.021221 242.007406 
L 292.584456 245.780423 
L 291.930527 249.422543 
L 291.060893 252.925639 
L 289.977495 256.281892 
L 288.682749 259.483815 
L 287.179546 262.524262 
L 285.47124 265.39645 
L 283.561641 268.093968 
L 281.455012 270.610799 
L 279.156054 272.941326 
L 276.669895 275.080348 
L 274.002083 277.023092 
L 271.158573 278.765224 
L 268.145707 280.302857 
L 264.970211 281.632558 
L 261.639168 282.751362 
L 258.160012 283.656771 
L 254.540507 284.346765 
L 250.788728 284.819805 
L 246.913048 285.074835 
L 242.922115 285.111286 
L 238.824834 284.929077 
L 234.630348 284.528613 
L 230.348015 283.91079 
L 225.987393 283.076985 
L 221.558211 282.029059 
L 217.070352 280.76935 
L 212.53383 279.30067 
L 207.958769 277.626294 
L 203.355376 275.749961 
L 198.733925 273.675856 
L 194.104726 271.408607 
L 189.478111 268.953274 
L 183.331148 265.39645 
L 177.231507 261.529148 
L 171.203382 257.366708 
L 165.270683 252.925639 
L 159.45694 248.223555 
L 153.785214 243.279108 
L 148.277999 238.111909 
L 142.95714 232.742452 
L 137.84374 227.192034 
L 132.958082 221.482671 
L 128.319543 215.637007 
L 123.946522 209.678229 
L 119.856363 203.629971 
L 116.065289 197.516223 
L 112.588338 191.361233 
L 110.195111 186.732609 
L 107.991703 182.104846 
L 105.983029 177.48827 
L 104.173572 172.893182 
L 102.567369 168.329837 
L 101.168004 163.808416 
L 99.978601 159.33901 
L 99.001812 154.93159 
L 98.239818 150.595991 
L 97.694319 146.341888 
L 97.366531 142.178774 
L 97.257188 138.115938 
L 97.366531 134.162445 
L 97.694319 130.327118 
L 98.239818 126.618514 
L 99.001812 123.04491 
L 99.978601 119.614279 
L 101.168004 116.334275 
L 102.567369 113.212219 
L 104.173572 110.255077 
L 105.983029 107.469447 
L 107.991703 104.861545 
L 110.195111 102.43719 
L 112.588338 100.201792 
L 115.166042 98.160339 
L 117.922472 96.317387 
L 120.851477 94.677047 
L 123.946522 93.24298 
L 127.200699 92.018386 
L 130.606749 91.005997 
L 134.15707 90.208073 
L 137.84374 89.626393 
L 141.658533 89.262257 
L 145.592937 89.116476 
L 149.638173 89.189375 
L 153.785214 89.480793 
L 158.024806 89.990078 
L 162.347489 90.716095 
L 166.743618 91.657223 
L 171.203382 92.811362 
L 175.716832 94.175938 
L 180.273894 95.747904 
L 184.864402 97.523754 
L 189.478111 99.499524 
L 194.104726 101.670807 
L 198.733925 104.032757 
L 203.355376 106.580103 
L 209.487443 110.255077 
L 215.563087 114.234918 
L 221.558211 118.503839 
L 227.449035 123.04491 
L 233.212196 127.840118 
L 238.824834 132.870445 
L 244.264687 138.115938 
L 244.264687 138.115938 
" clip-path="url(#p34a28e281f)" style="fill: none; stroke: #2471a3; stroke-width: 2; stroke-linecap: square"/>
   </g>
   <g id="line2d_22">
    <path d="M 42.802187 34.658437 
L 347.722188 339.578437 
" clip-path="url(#p34a28e281f)" style="fill: none; stroke-dasharray: 4.44,1.92; stroke-dashoffset: 0; stroke: #c0392b; stroke-width: 1.2"/>
   </g>
   <g id="line2d_23">
    <path d="M 42.802187 339.578437 
L 347.722188 34.658437 
" clip-path="url(#p34a28e281f)" style="fill: none; stroke-dasharray: 4.44,1.92; stroke-dashoffset: 0; stroke: #27ae60; stroke-width: 1.2"/>
   </g>
   <g id="line2d_24">
    <path d="M 28.942187 187.118437 
L 361.582187 187.118437 
" clip-path="url(#p34a28e281f)" style="fill: none; stroke: #999999; stroke-width: 0.6; stroke-linecap: square"/>
   </g>
   <g id="line2d_25">
    <path d="M 195.262187 353.438437 
L 195.262187 20.798437 
" clip-path="url(#p34a28e281f)" style="fill: none; stroke: #999999; stroke-width: 0.6; stroke-linecap: square"/>
   </g>
   <g id="patch_3">
    <path d="M 28.942187 353.438437 
L 28.942187 20.798437 
" style="fill: none; stroke: #000000; stroke-width: 0.8; stroke-linejoin: miter; stroke-linecap: square"/>
   </g>
   <g id="patch_4">
    <path d="M 361.582187 353.438437 
L 361.582187 20.798437 
" style="fill: none; stroke: #000000; stroke-width: 0.8; stroke-linejoin: miter; stroke-linecap: square"/>
   </g>
   <g id="patch_5">
    <path d="M 28.942187 353.438437 
L 361.582187 353.438437 
" style="fill: none; stroke: #000000; stroke-width: 0.8; stroke-linejoin: miter; stroke-linecap: square"/>
   </g>
   <g id="patch_6">
    <path d="M 28.942187 20.798437 
L 361.582187 20.798437 
" style="fill: none; stroke: #000000; stroke-width: 0.8; stroke-linejoin: miter; stroke-linecap: square"/>
   </g>
   <g id="patch_7">
    <path d="M 195.969294 186.411331 
Q 234.165294 224.607331 272.361294 262.803331 
L 274.836168 260.328457 
Q 277.486588 266.160857 280.137007 271.993257 
Q 274.304607 269.342838 268.472207 266.692418 
L 270.947081 264.217544 
Q 232.751081 226.021544 194.555081 187.825544 
L 195.969294 186.411331 
z
" style="fill: #c0392b; stroke: #c0392b; stroke-linecap: round"/>
   </g>
   <g id="text_11">
    <!-- (1,-1)  long  lam=1 -->
    <g style="fill: #c0392b" transform="translate(286.926993 278.783243) scale(0.09 -0.09)">
     <defs>
      <path id="DejaVuSans-b" d="M 1984 4856 
Q 1566 4138 1362 3434 
Q 1159 2731 1159 2009 
Q 1159 1288 1364 580 
Q 1569 -128 1984 -844 
L 1484 -844 
Q 1016 -109 783 600 
Q 550 1309 550 2009 
Q 550 2706 781 3412 
Q 1013 4119 1484 4856 
L 1984 4856 
z
" transform="scale(0.015625)"/>
      <path id="DejaVuSans-f" d="M 750 794 
L 1409 794 
L 1409 256 
L 897 -744 
L 494 -744 
L 750 256 
L 750 794 
z
" transform="scale(0.015625)"/>
      <path id="DejaVuSans-10" d="M 313 2009 
L 1997 2009 
L 1997 1497 
L 313 1497 
L 313 2009 
z
" transform="scale(0.015625)"/>
      <path id="DejaVuSans-c" d="M 513 4856 
L 1013 4856 
Q 1481 4119 1714 3412 
Q 1947 2706 1947 2009 
Q 1947 1309 1714 600 
Q 1481 -109 1013 -844 
L 513 -844 
Q 928 -128 1133 580 
Q 1338 1288 1338 2009 
Q 1338 2731 1133 3434 
Q 928 4138 513 4856 
z
" transform="scale(0.015625)"/>
      <path id="DejaVuSans-3" transform="scale(0.015625)"/>
      <path id="DejaVuSans-4f" d="M 603 4863 
L 1178 4863 
L 1178 0 
L 603 0 
L 603 4863 
z
" transform="scale(0.015625)"/>
      <path id="DejaVuSans-52" d="M 1959 3097 
Q 1497 3097 1228 2736 
Q 959 2375 959 1747 
Q 959 1119 1226 758 
Q 1494 397 1959 397 
Q 2419 397 2687 759 
Q 2956 1122 2956 1747 
Q 2956 2369 2687 2733 
Q 2419 3097 1959 3097 
z
M 1959 3584 
Q 2709 3584 3137 3096 
Q 3566 2609 3566 1747 
Q 3566 888 3137 398 
Q 2709 -91 1959 -91 
Q 1206 -91 779 398 
Q 353 888 353 1747 
Q 353 2609 779 3096 
Q 1206 3584 1959 3584 
z
" transform="scale(0.015625)"/>
      <path id="DejaVuSans-51" d="M 3513 2113 
L 3513 0 
L 2938 0 
L 2938 2094 
Q 2938 2591 2744 2837 
Q 2550 3084 2163 3084 
Q 1697 3084 1428 2787 
Q 1159 2491 1159 1978 
L 1159 0 
L 581 0 
L 581 3500 
L 1159 3500 
L 1159 2956 
Q 1366 3272 1645 3428 
Q 1925 3584 2291 3584 
Q 2894 3584 3203 3211 
Q 3513 2838 3513 2113 
z
" transform="scale(0.015625)"/>
      <path id="DejaVuSans-4a" d="M 2906 1791 
Q 2906 2416 2648 2759 
Q 2391 3103 1925 3103 
Q 1463 3103 1205 2759 
Q 947 2416 947 1791 
Q 947 1169 1205 825 
Q 1463 481 1925 481 
Q 2391 481 2648 825 
Q 2906 1169 2906 1791 
z
M 3481 434 
Q 3481 -459 3084 -895 
Q 2688 -1331 1869 -1331 
Q 1566 -1331 1297 -1286 
Q 1028 -1241 775 -1147 
L 775 -588 
Q 1028 -725 1275 -790 
Q 1522 -856 1778 -856 
Q 2344 -856 2625 -561 
Q 2906 -266 2906 331 
L 2906 616 
Q 2728 306 2450 153 
Q 2172 0 1784 0 
Q 1141 0 747 490 
Q 353 981 353 1791 
Q 353 2603 747 3093 
Q 1141 3584 1784 3584 
Q 2172 3584 2450 3431 
Q 2728 3278 2906 2969 
L 2906 3500 
L 3481 3500 
L 3481 434 
z
" transform="scale(0.015625)"/>
      <path id="DejaVuSans-44" d="M 2194 1759 
Q 1497 1759 1228 1600 
Q 959 1441 959 1056 
Q 959 750 1161 570 
Q 1363 391 1709 391 
Q 2188 391 2477 730 
Q 2766 1069 2766 1631 
L 2766 1759 
L 2194 1759 
z
M 3341 1997 
L 3341 0 
L 2766 0 
L 2766 531 
Q 2569 213 2275 61 
Q 1981 -91 1556 -91 
Q 1019 -91 701 211 
Q 384 513 384 1019 
Q 384 1609 779 1909 
Q 1175 2209 1959 2209 
L 2766 2209 
L 2766 2266 
Q 2766 2663 2505 2880 
Q 2244 3097 1772 3097 
Q 1472 3097 1187 3025 
Q 903 2953 641 2809 
L 641 3341 
Q 956 3463 1253 3523 
Q 1550 3584 1831 3584 
Q 2591 3584 2966 3190 
Q 3341 2797 3341 1997 
z
" transform="scale(0.015625)"/>
      <path id="DejaVuSans-50" d="M 3328 2828 
Q 3544 3216 3844 3400 
Q 4144 3584 4550 3584 
Q 5097 3584 5394 3201 
Q 5691 2819 5691 2113 
L 5691 0 
L 5113 0 
L 5113 2094 
Q 5113 2597 4934 2840 
Q 4756 3084 4391 3084 
Q 3944 3084 3684 2787 
Q 3425 2491 3425 1978 
L 3425 0 
L 2847 0 
L 2847 2094 
Q 2847 2600 2669 2842 
Q 2491 3084 2119 3084 
Q 1678 3084 1418 2786 
Q 1159 2488 1159 1978 
L 1159 0 
L 581 0 
L 581 3500 
L 1159 3500 
L 1159 2956 
Q 1356 3278 1631 3431 
Q 1906 3584 2284 3584 
Q 2666 3584 2933 3390 
Q 3200 3197 3328 2828 
z
" transform="scale(0.015625)"/>
      <path id="DejaVuSans-20" d="M 678 2906 
L 4684 2906 
L 4684 2381 
L 678 2381 
L 678 2906 
z
M 678 1631 
L 4684 1631 
L 4684 1100 
L 678 1100 
L 678 1631 
z
" transform="scale(0.015625)"/>
     </defs>
     <use xlink:href="#DejaVuSans-b"/>
     <use xlink:href="#DejaVuSans-14" transform="translate(39.015625 0)"/>
     <use xlink:href="#DejaVuSans-f" transform="translate(102.640625 0)"/>
     <use xlink:href="#DejaVuSans-10" transform="translate(134.421875 0)"/>
     <use xlink:href="#DejaVuSans-14" transform="translate(170.5 0)"/>
     <use xlink:href="#DejaVuSans-c" transform="translate(234.125 0)"/>
     <use xlink:href="#DejaVuSans-3" transform="translate(273.140625 0)"/>
     <use xlink:href="#DejaVuSans-3" transform="translate(304.921875 0)"/>
     <use xlink:href="#DejaVuSans-4f" transform="translate(336.703125 0)"/>
     <use xlink:href="#DejaVuSans-52" transform="translate(364.484375 0)"/>
     <use xlink:href="#DejaVuSans-51" transform="translate(425.671875 0)"/>
     <use xlink:href="#DejaVuSans-4a" transform="translate(489.046875 0)"/>
     <use xlink:href="#DejaVuSans-3" transform="translate(552.53125 0)"/>
     <use xlink:href="#DejaVuSans-3" transform="translate(584.3125 0)"/>
     <use xlink:href="#DejaVuSans-4f" transform="translate(616.09375 0)"/>
     <use xlink:href="#DejaVuSans-44" transform="translate(643.875 0)"/>
     <use xlink:href="#DejaVuSans-50" transform="translate(705.15625 0)"/>
     <use xlink:href="#DejaVuSans-20" transform="translate(802.5625 0)"/>
     <use xlink:href="#DejaVuSans-14" transform="translate(886.359375 0)"/>
    </g>
   </g>
   <g id="patch_8">
    <path d="M 194.555081 186.411331 
Q 214.813774 166.152637 235.072468 145.893944 
L 232.597594 143.41907 
Q 238.431141 140.767504 244.264687 138.115938 
Q 241.613121 143.949484 238.961555 149.783031 
L 236.486681 147.308157 
Q 216.227988 167.566851 195.969294 187.825544 
L 194.555081 186.411331 
z
" style="fill: #27ae60; stroke: #27ae60; stroke-linecap: round"/>
   </g>
   <g id="text_12">
    <!-- (1,1)  short  lam=3 -->
    <g style="fill: #27ae60" transform="translate(248.184887 134.195738) scale(0.09 -0.09)">
     <defs>
      <path id="DejaVuSans-56" d="M 2834 3397 
L 2834 2853 
Q 2591 2978 2328 3040 
Q 2066 3103 1784 3103 
Q 1356 3103 1142 2972 
Q 928 2841 928 2578 
Q 928 2378 1081 2264 
Q 1234 2150 1697 2047 
L 1894 2003 
Q 2506 1872 2764 1633 
Q 3022 1394 3022 966 
Q 3022 478 2636 193 
Q 2250 -91 1575 -91 
Q 1294 -91 989 -36 
Q 684 19 347 128 
L 347 722 
Q 666 556 975 473 
Q 1284 391 1588 391 
Q 1994 391 2212 530 
Q 2431 669 2431 922 
Q 2431 1156 2273 1281 
Q 2116 1406 1581 1522 
L 1381 1569 
Q 847 1681 609 1914 
Q 372 2147 372 2553 
Q 372 3047 722 3315 
Q 1072 3584 1716 3584 
Q 2034 3584 2315 3537 
Q 2597 3491 2834 3397 
z
" transform="scale(0.015625)"/>
      <path id="DejaVuSans-4b" d="M 3513 2113 
L 3513 0 
L 2938 0 
L 2938 2094 
Q 2938 2591 2744 2837 
Q 2550 3084 2163 3084 
Q 1697 3084 1428 2787 
Q 1159 2491 1159 1978 
L 1159 0 
L 581 0 
L 581 4863 
L 1159 4863 
L 1159 2956 
Q 1366 3272 1645 3428 
Q 1925 3584 2291 3584 
Q 2894 3584 3203 3211 
Q 3513 2838 3513 2113 
z
" transform="scale(0.015625)"/>
      <path id="DejaVuSans-55" d="M 2631 2963 
Q 2534 3019 2420 3045 
Q 2306 3072 2169 3072 
Q 1681 3072 1420 2755 
Q 1159 2438 1159 1844 
L 1159 0 
L 581 0 
L 581 3500 
L 1159 3500 
L 1159 2956 
Q 1341 3275 1631 3429 
Q 1922 3584 2338 3584 
Q 2397 3584 2469 3576 
Q 2541 3569 2628 3553 
L 2631 2963 
z
" transform="scale(0.015625)"/>
      <path id="DejaVuSans-57" d="M 1172 4494 
L 1172 3500 
L 2356 3500 
L 2356 3053 
L 1172 3053 
L 1172 1153 
Q 1172 725 1289 603 
Q 1406 481 1766 481 
L 2356 481 
L 2356 0 
L 1766 0 
Q 1100 0 847 248 
Q 594 497 594 1153 
L 594 3053 
L 172 3053 
L 172 3500 
L 594 3500 
L 594 4494 
L 1172 4494 
z
" transform="scale(0.015625)"/>
      <path id="DejaVuSans-16" d="M 2597 2516 
Q 3050 2419 3304 2112 
Q 3559 1806 3559 1356 
Q 3559 666 3084 287 
Q 2609 -91 1734 -91 
Q 1441 -91 1130 -33 
Q 819 25 488 141 
L 488 750 
Q 750 597 1062 519 
Q 1375 441 1716 441 
Q 2309 441 2620 675 
Q 2931 909 2931 1356 
Q 2931 1769 2642 2001 
Q 2353 2234 1838 2234 
L 1294 2234 
L 1294 2753 
L 1863 2753 
Q 2328 2753 2575 2939 
Q 2822 3125 2822 3475 
Q 2822 3834 2567 4026 
Q 2313 4219 1838 4219 
Q 1578 4219 1281 4162 
Q 984 4106 628 3988 
L 628 4550 
Q 988 4650 1302 4700 
Q 1616 4750 1894 4750 
Q 2613 4750 3031 4423 
Q 3450 4097 3450 3541 
Q 3450 3153 3228 2886 
Q 3006 2619 2597 2516 
z
" transform="scale(0.015625)"/>
     </defs>
     <use xlink:href="#DejaVuSans-b"/>
     <use xlink:href="#DejaVuSans-14" transform="translate(39.015625 0)"/>
     <use xlink:href="#DejaVuSans-f" transform="translate(102.640625 0)"/>
     <use xlink:href="#DejaVuSans-14" transform="translate(134.421875 0)"/>
     <use xlink:href="#DejaVuSans-c" transform="translate(198.046875 0)"/>
     <use xlink:href="#DejaVuSans-3" transform="translate(237.0625 0)"/>
     <use xlink:href="#DejaVuSans-3" transform="translate(268.84375 0)"/>
     <use xlink:href="#DejaVuSans-56" transform="translate(300.625 0)"/>
     <use xlink:href="#DejaVuSans-4b" transform="translate(352.71875 0)"/>
     <use xlink:href="#DejaVuSans-52" transform="translate(416.09375 0)"/>
     <use xlink:href="#DejaVuSans-55" transform="translate(477.28125 0)"/>
     <use xlink:href="#DejaVuSans-57" transform="translate(518.390625 0)"/>
     <use xlink:href="#DejaVuSans-3" transform="translate(557.59375 0)"/>
     <use xlink:href="#DejaVuSans-3" transform="translate(589.375 0)"/>
     <use xlink:href="#DejaVuSans-4f" transform="translate(621.15625 0)"/>
     <use xlink:href="#DejaVuSans-44" transform="translate(648.9375 0)"/>
     <use xlink:href="#DejaVuSans-50" transform="translate(710.21875 0)"/>
     <use xlink:href="#DejaVuSans-20" transform="translate(807.625 0)"/>
     <use xlink:href="#DejaVuSans-16" transform="translate(891.421875 0)"/>
    </g>
   </g>
   <g id="text_13">
    <!-- x^T S x = 3 is an ellipse; axes are eigenvectors of S -->
    <g transform="translate(64.495 14.798437) scale(0.1 -0.1)">
     <defs>
      <path id="DejaVuSans-5b" d="M 3513 3500 
L 2247 1797 
L 3578 0 
L 2900 0 
L 1881 1375 
L 863 0 
L 184 0 
L 1544 1831 
L 300 3500 
L 978 3500 
L 1906 2253 
L 2834 3500 
L 3513 3500 
z
" transform="scale(0.015625)"/>
      <path id="DejaVuSans-41" d="M 2988 4666 
L 4684 2925 
L 4056 2925 
L 2681 4159 
L 1306 2925 
L 678 2925 
L 2375 4666 
L 2988 4666 
z
" transform="scale(0.015625)"/>
      <path id="DejaVuSans-37" d="M -19 4666 
L 3928 4666 
L 3928 4134 
L 2272 4134 
L 2272 0 
L 1638 0 
L 1638 4134 
L -19 4134 
L -19 4666 
z
" transform="scale(0.015625)"/>
      <path id="DejaVuSans-36" d="M 3425 4513 
L 3425 3897 
Q 3066 4069 2747 4153 
Q 2428 4238 2131 4238 
Q 1616 4238 1336 4038 
Q 1056 3838 1056 3469 
Q 1056 3159 1242 3001 
Q 1428 2844 1947 2747 
L 2328 2669 
Q 3034 2534 3370 2195 
Q 3706 1856 3706 1288 
Q 3706 609 3251 259 
Q 2797 -91 1919 -91 
Q 1588 -91 1214 -16 
Q 841 59 441 206 
L 441 856 
Q 825 641 1194 531 
Q 1563 422 1919 422 
Q 2459 422 2753 634 
Q 3047 847 3047 1241 
Q 3047 1584 2836 1778 
Q 2625 1972 2144 2069 
L 1759 2144 
Q 1053 2284 737 2584 
Q 422 2884 422 3419 
Q 422 4038 858 4394 
Q 1294 4750 2059 4750 
Q 2388 4750 2728 4690 
Q 3069 4631 3425 4513 
z
" transform="scale(0.015625)"/>
      <path id="DejaVuSans-4c" d="M 603 3500 
L 1178 3500 
L 1178 0 
L 603 0 
L 603 3500 
z
M 603 4863 
L 1178 4863 
L 1178 4134 
L 603 4134 
L 603 4863 
z
" transform="scale(0.015625)"/>
      <path id="DejaVuSans-48" d="M 3597 1894 
L 3597 1613 
L 953 1613 
Q 991 1019 1311 708 
Q 1631 397 2203 397 
Q 2534 397 2845 478 
Q 3156 559 3463 722 
L 3463 178 
Q 3153 47 2828 -22 
Q 2503 -91 2169 -91 
Q 1331 -91 842 396 
Q 353 884 353 1716 
Q 353 2575 817 3079 
Q 1281 3584 2069 3584 
Q 2775 3584 3186 3129 
Q 3597 2675 3597 1894 
z
M 3022 2063 
Q 3016 2534 2758 2815 
Q 2500 3097 2075 3097 
Q 1594 3097 1305 2825 
Q 1016 2553 972 2059 
L 3022 2063 
z
" transform="scale(0.015625)"/>
      <path id="DejaVuSans-53" d="M 1159 525 
L 1159 -1331 
L 581 -1331 
L 581 3500 
L 1159 3500 
L 1159 2969 
Q 1341 3281 1617 3432 
Q 1894 3584 2278 3584 
Q 2916 3584 3314 3078 
Q 3713 2572 3713 1747 
Q 3713 922 3314 415 
Q 2916 -91 2278 -91 
Q 1894 -91 1617 61 
Q 1341 213 1159 525 
z
M 3116 1747 
Q 3116 2381 2855 2742 
Q 2594 3103 2138 3103 
Q 1681 3103 1420 2742 
Q 1159 2381 1159 1747 
Q 1159 1113 1420 752 
Q 1681 391 2138 391 
Q 2594 391 2855 752 
Q 3116 1113 3116 1747 
z
" transform="scale(0.015625)"/>
      <path id="DejaVuSans-1e" d="M 750 3309 
L 1409 3309 
L 1409 2516 
L 750 2516 
L 750 3309 
z
M 750 794 
L 1409 794 
L 1409 256 
L 897 -744 
L 494 -744 
L 750 256 
L 750 794 
z
" transform="scale(0.015625)"/>
      <path id="DejaVuSans-59" d="M 191 3500 
L 800 3500 
L 1894 563 
L 2988 3500 
L 3597 3500 
L 2284 0 
L 1503 0 
L 191 3500 
z
" transform="scale(0.015625)"/>
      <path id="DejaVuSans-46" d="M 3122 3366 
L 3122 2828 
Q 2878 2963 2633 3030 
Q 2388 3097 2138 3097 
Q 1578 3097 1268 2742 
Q 959 2388 959 1747 
Q 959 1106 1268 751 
Q 1578 397 2138 397 
Q 2388 397 2633 464 
Q 2878 531 3122 666 
L 3122 134 
Q 2881 22 2623 -34 
Q 2366 -91 2075 -91 
Q 1284 -91 818 406 
Q 353 903 353 1747 
Q 353 2603 823 3093 
Q 1294 3584 2113 3584 
Q 2378 3584 2631 3529 
Q 2884 3475 3122 3366 
z
" transform="scale(0.015625)"/>
      <path id="DejaVuSans-49" d="M 2375 4863 
L 2375 4384 
L 1825 4384 
Q 1516 4384 1395 4259 
Q 1275 4134 1275 3809 
L 1275 3500 
L 2222 3500 
L 2222 3053 
L 1275 3053 
L 1275 0 
L 697 0 
L 697 3053 
L 147 3053 
L 147 3500 
L 697 3500 
L 697 3744 
Q 697 4328 969 4595 
Q 1241 4863 1831 4863 
L 2375 4863 
z
" transform="scale(0.015625)"/>
     </defs>
     <use xlink:href="#DejaVuSans-5b"/>
     <use xlink:href="#DejaVuSans-41" transform="translate(59.1875 0)"/>
     <use xlink:href="#DejaVuSans-37" transform="translate(142.984375 0)"/>
     <use xlink:href="#DejaVuSans-3" transform="translate(204.0625 0)"/>
     <use xlink:href="#DejaVuSans-36" transform="translate(235.84375 0)"/>
     <use xlink:href="#DejaVuSans-3" transform="translate(299.328125 0)"/>
     <use xlink:href="#DejaVuSans-5b" transform="translate(331.109375 0)"/>
     <use xlink:href="#DejaVuSans-3" transform="translate(390.296875 0)"/>
     <use xlink:href="#DejaVuSans-20" transform="translate(422.078125 0)"/>
     <use xlink:href="#DejaVuSans-3" transform="translate(505.875 0)"/>
     <use xlink:href="#DejaVuSans-16" transform="translate(537.65625 0)"/>
     <use xlink:href="#DejaVuSans-3" transform="translate(601.28125 0)"/>
     <use xlink:href="#DejaVuSans-4c" transform="translate(633.0625 0)"/>
     <use xlink:href="#DejaVuSans-56" transform="translate(660.84375 0)"/>
     <use xlink:href="#DejaVuSans-3" transform="translate(712.9375 0)"/>
     <use xlink:href="#DejaVuSans-44" transform="translate(744.71875 0)"/>
     <use xlink:href="#DejaVuSans-51" transform="translate(806 0)"/>
     <use xlink:href="#DejaVuSans-3" transform="translate(869.375 0)"/>
     <use xlink:href="#DejaVuSans-48" transform="translate(901.15625 0)"/>
     <use xlink:href="#DejaVuSans-4f" transform="translate(962.6875 0)"/>
     <use xlink:href="#DejaVuSans-4f" transform="translate(990.46875 0)"/>
     <use xlink:href="#DejaVuSans-4c" transform="translate(1018.25 0)"/>
     <use xlink:href="#DejaVuSans-53" transform="translate(1046.03125 0)"/>
     <use xlink:href="#DejaVuSans-56" transform="translate(1109.515625 0)"/>
     <use xlink:href="#DejaVuSans-48" transform="translate(1161.609375 0)"/>
     <use xlink:href="#DejaVuSans-1e" transform="translate(1223.140625 0)"/>
     <use xlink:href="#DejaVuSans-3" transform="translate(1256.828125 0)"/>
     <use xlink:href="#DejaVuSans-44" transform="translate(1288.609375 0)"/>
     <use xlink:href="#DejaVuSans-5b" transform="translate(1349.890625 0)"/>
     <use xlink:href="#DejaVuSans-48" transform="translate(1406 0)"/>
     <use xlink:href="#DejaVuSans-56" transform="translate(1467.53125 0)"/>
     <use xlink:href="#DejaVuSans-3" transform="translate(1519.625 0)"/>
     <use xlink:href="#DejaVuSans-44" transform="translate(1551.40625 0)"/>
     <use xlink:href="#DejaVuSans-55" transform="translate(1612.6875 0)"/>
     <use xlink:href="#DejaVuSans-48" transform="translate(1651.59375 0)"/>
     <use xlink:href="#DejaVuSans-3" transform="translate(1713.125 0)"/>
     <use xlink:href="#DejaVuSans-48" transform="translate(1744.90625 0)"/>
     <use xlink:href="#DejaVuSans-4c" transform="translate(1806.4375 0)"/>
     <use xlink:href="#DejaVuSans-4a" transform="translate(1834.21875 0)"/>
     <use xlink:href="#DejaVuSans-48" transform="translate(1897.703125 0)"/>
     <use xlink:href="#DejaVuSans-51" transform="translate(1959.234375 0)"/>
     <use xlink:href="#DejaVuSans-59" transform="translate(2022.609375 0)"/>
     <use xlink:href="#DejaVuSans-48" transform="translate(2081.796875 0)"/>
     <use xlink:href="#DejaVuSans-46" transform="translate(2143.328125 0)"/>
     <use xlink:href="#DejaVuSans-57" transform="translate(2198.3125 0)"/>
     <use xlink:href="#DejaVuSans-52" transform="translate(2237.515625 0)"/>
     <use xlink:href="#DejaVuSans-55" transform="translate(2298.703125 0)"/>
     <use xlink:href="#DejaVuSans-56" transform="translate(2339.8125 0)"/>
     <use xlink:href="#DejaVuSans-3" transform="translate(2391.90625 0)"/>
     <use xlink:href="#DejaVuSans-52" transform="translate(2423.6875 0)"/>
     <use xlink:href="#DejaVuSans-49" transform="translate(2484.875 0)"/>
     <use xlink:href="#DejaVuSans-3" transform="translate(2520.078125 0)"/>
     <use xlink:href="#DejaVuSans-36" transform="translate(2551.859375 0)"/>
    </g>
   </g>
  </g>
 </g>
 <defs>
  <clipPath id="p34a28e281f">
   <rect x="28.942187" y="20.798437" width="332.64" height="332.64"/>
  </clipPath>
 </defs>
</svg>
