<?xml version="1.0" encoding="utf-8" standalone="no"?>
<!DOCTYPE svg PUBLIC "-//W3C//DTD SVG 1.1//EN"
  "http://www.w3.org/Graphics/SVG/1.1/DTD/svg11.dtd">
<svg xmlns:xlink="http://www.w3.org/1999/xlink" width="481.233097pt" height="487.758594pt" viewBox="0 0 481.233097 487.758594" xmlns="http://www.w3.org/2000/svg" version="1.1">
 <metadata>
  <rdf:RDF xmlns:dc="http://purl.org/dc/elements/1.1/" xmlns:cc="http://creativecommons.org/ns#" xmlns:rdf="http://www.w3.org/1999/02/22-rdf-syntax-ns#">
   <cc:Work>
    <dc:type rdf:resource="http://purl.org/dc/dcmitype/StillImage"/>
    <dc:date>2026-06-13T19:07:52.323067</dc:date>
    <dc:format>image/svg+xml</dc:format>
    <dc:creator>
     <cc:Agent>
      <dc:title>Matplotlib v3.11.0, https://matplotlib.org/</dc:title>
     </cc:Agent>
    </dc:creator>
   </cc:Work>
  </rdf:RDF>
 </metadata>
 <defs>
  <style type="text/css">*{stroke-linejoin: round; stroke-linecap: butt}</style>
 </defs>
 <g id="figure_1">
  <g id="patch_1">
   <path d="M 0 487.758594 
L 481.233097 487.758594 
L 481.233097 0 
L 0 0 
z
" style="fill: #ffffff"/>
  </g>
  <g id="axes_1">
   <g id="patch_2">
    <path d="M 28.942188 221.638594 
L 230.542188 221.638594 
L 230.542188 20.038594 
L 28.942188 20.038594 
z
" style="fill: #ffffff"/>
   </g>
   <g id="matplotlib.axis_1">
    <g id="xtick_1">
     <g id="line2d_1">
      <path d="M 70.44807 221.638594 
L 70.44807 20.038594 
" clip-path="url(#p59a90a4f95)" style="fill: none; stroke: #ebebeb; stroke-width: 0.5; stroke-linecap: square"/>
     </g>
     <g id="line2d_2">
      <defs>
       <path id="m34bd98b9c5" d="M 0 0 
L 0 3.5 
" style="stroke: #000000; stroke-width: 0.8"/>
      </defs>
      <g>
       <use xlink:href="#m34bd98b9c5" x="70.44807" y="221.638594" style="stroke: #000000; stroke-width: 0.8"/>
      </g>
     </g>
     <g id="text_1">
      <!-- −2 -->
      <g transform="translate(63.076976 236.23625) scale(0.1 -0.1)">
       <defs>
        <path id="DejaVuSans-c9c" d="M 678 2272 
L 4684 2272 
L 4684 1741 
L 678 1741 
L 678 2272 
z
" transform="scale(0.015625)"/>
        <path id="DejaVuSans-15" d="M 1228 531 
L 3431 531 
L 3431 0 
L 469 0 
L 469 531 
Q 828 903 1448 1529 
Q 2069 2156 2228 2338 
Q 2531 2678 2651 2914 
Q 2772 3150 2772 3378 
Q 2772 3750 2511 3984 
Q 2250 4219 1831 4219 
Q 1534 4219 1204 4116 
Q 875 4013 500 3803 
L 500 4441 
Q 881 4594 1212 4672 
Q 1544 4750 1819 4750 
Q 2544 4750 2975 4387 
Q 3406 4025 3406 3419 
Q 3406 3131 3298 2873 
Q 3191 2616 2906 2266 
Q 2828 2175 2409 1742 
Q 1991 1309 1228 531 
z
" transform="scale(0.015625)"/>
       </defs>
       <use xlink:href="#DejaVuSans-c9c"/>
       <use xlink:href="#DejaVuSans-15" transform="translate(83.796875 0)"/>
      </g>
     </g>
    </g>
    <g id="xtick_2">
     <g id="line2d_3">
      <path d="M 129.742188 221.638594 
L 129.742188 20.038594 
" clip-path="url(#p59a90a4f95)" style="fill: none; stroke: #ebebeb; stroke-width: 0.5; stroke-linecap: square"/>
     </g>
     <g id="line2d_4">
      <g>
       <use xlink:href="#m34bd98b9c5" x="129.742188" y="221.638594" style="stroke: #000000; stroke-width: 0.8"/>
      </g>
     </g>
     <g id="text_2">
      <!-- 0 -->
      <g transform="translate(126.560937 236.23625) scale(0.1 -0.1)">
       <defs>
        <path id="DejaVuSans-13" d="M 2034 4250 
Q 1547 4250 1301 3770 
Q 1056 3291 1056 2328 
Q 1056 1369 1301 889 
Q 1547 409 2034 409 
Q 2525 409 2770 889 
Q 3016 1369 3016 2328 
Q 3016 3291 2770 3770 
Q 2525 4250 2034 4250 
z
M 2034 4750 
Q 2819 4750 3233 4129 
Q 3647 3509 3647 2328 
Q 3647 1150 3233 529 
Q 2819 -91 2034 -91 
Q 1250 -91 836 529 
Q 422 1150 422 2328 
Q 422 3509 836 4129 
Q 1250 4750 2034 4750 
z
" transform="scale(0.015625)"/>
       </defs>
       <use xlink:href="#DejaVuSans-13"/>
      </g>
     </g>
    </g>
    <g id="xtick_3">
     <g id="line2d_5">
      <path d="M 189.036305 221.638594 
L 189.036305 20.038594 
" clip-path="url(#p59a90a4f95)" style="fill: none; stroke: #ebebeb; stroke-width: 0.5; stroke-linecap: square"/>
     </g>
     <g id="line2d_6">
      <g>
       <use xlink:href="#m34bd98b9c5" x="189.036305" y="221.638594" style="stroke: #000000; stroke-width: 0.8"/>
      </g>
     </g>
     <g id="text_3">
      <!-- 2 -->
      <g transform="translate(185.855055 236.23625) scale(0.1 -0.1)">
       <use xlink:href="#DejaVuSans-15"/>
      </g>
     </g>
    </g>
   </g>
   <g id="matplotlib.axis_2">
    <g id="ytick_1">
     <g id="line2d_7">
      <path d="M 28.942188 209.77977 
L 230.542188 209.77977 
" clip-path="url(#p59a90a4f95)" style="fill: none; stroke: #ebebeb; stroke-width: 0.5; stroke-linecap: square"/>
     </g>
     <g id="line2d_8">
      <defs>
       <path id="m89796b1b26" d="M 0 0 
L -3.5 0 
" style="stroke: #000000; stroke-width: 0.8"/>
      </defs>
      <g>
       <use xlink:href="#m89796b1b26" x="28.942188" y="209.77977" style="stroke: #000000; stroke-width: 0.8"/>
      </g>
     </g>
     <g id="text_4">
      <!-- −3 -->
      <g transform="translate(7.2 213.578598) scale(0.1 -0.1)">
       <defs>
        <path id="DejaVuSans-16" d="M 2597 2516 
Q 3050 2419 3304 2112 
Q 3559 1806 3559 1356 
Q 3559 666 3084 287 
Q 2609 -91 1734 -91 
Q 1441 -91 1130 -33 
Q 819 25 488 141 
L 488 750 
Q 750 597 1062 519 
Q 1375 441 1716 441 
Q 2309 441 2620 675 
Q 2931 909 2931 1356 
Q 2931 1769 2642 2001 
Q 2353 2234 1838 2234 
L 1294 2234 
L 1294 2753 
L 1863 2753 
Q 2328 2753 2575 2939 
Q 2822 3125 2822 3475 
Q 2822 3834 2567 4026 
Q 2313 4219 1838 4219 
Q 1578 4219 1281 4162 
Q 984 4106 628 3988 
L 628 4550 
Q 988 4650 1302 4700 
Q 1616 4750 1894 4750 
Q 2613 4750 3031 4423 
Q 3450 4097 3450 3541 
Q 3450 3153 3228 2886 
Q 3006 2619 2597 2516 
z
" transform="scale(0.015625)"/>
       </defs>
       <use xlink:href="#DejaVuSans-c9c"/>
       <use xlink:href="#DejaVuSans-16" transform="translate(83.796875 0)"/>
      </g>
     </g>
    </g>
    <g id="ytick_2">
     <g id="line2d_9">
      <path d="M 28.942188 180.132711 
L 230.542188 180.132711 
" clip-path="url(#p59a90a4f95)" style="fill: none; stroke: #ebebeb; stroke-width: 0.5; stroke-linecap: square"/>
     </g>
     <g id="line2d_10">
      <g>
       <use xlink:href="#m89796b1b26" x="28.942188" y="180.132711" style="stroke: #000000; stroke-width: 0.8"/>
      </g>
     </g>
     <g id="text_5">
      <!-- −2 -->
      <g transform="translate(7.2 183.93154) scale(0.1 -0.1)">
       <use xlink:href="#DejaVuSans-c9c"/>
       <use xlink:href="#DejaVuSans-15" transform="translate(83.796875 0)"/>
      </g>
     </g>
    </g>
    <g id="ytick_3">
     <g id="line2d_11">
      <path d="M 28.942188 150.485653 
L 230.542188 150.485653 
" clip-path="url(#p59a90a4f95)" style="fill: none; stroke: #ebebeb; stroke-width: 0.5; stroke-linecap: square"/>
     </g>
     <g id="line2d_12">
      <g>
       <use xlink:href="#m89796b1b26" x="28.942188" y="150.485653" style="stroke: #000000; stroke-width: 0.8"/>
      </g>
     </g>
     <g id="text_6">
      <!-- −1 -->
      <g transform="translate(7.2 154.284481) scale(0.1 -0.1)">
       <defs>
        <path id="DejaVuSans-14" d="M 794 531 
L 1825 531 
L 1825 4091 
L 703 3866 
L 703 4441 
L 1819 4666 
L 2450 4666 
L 2450 531 
L 3481 531 
L 3481 0 
L 794 0 
L 794 531 
z
" transform="scale(0.015625)"/>
       </defs>
       <use xlink:href="#DejaVuSans-c9c"/>
       <use xlink:href="#DejaVuSans-14" transform="translate(83.796875 0)"/>
      </g>
     </g>
    </g>
    <g id="ytick_4">
     <g id="line2d_13">
      <path d="M 28.942188 120.838594 
L 230.542188 120.838594 
" clip-path="url(#p59a90a4f95)" style="fill: none; stroke: #ebebeb; stroke-width: 0.5; stroke-linecap: square"/>
     </g>
     <g id="line2d_14">
      <g>
       <use xlink:href="#m89796b1b26" x="28.942188" y="120.838594" style="stroke: #000000; stroke-width: 0.8"/>
      </g>
     </g>
     <g id="text_7">
      <!-- 0 -->
      <g transform="translate(15.579688 124.637422) scale(0.1 -0.1)">
       <use xlink:href="#DejaVuSans-13"/>
      </g>
     </g>
    </g>
    <g id="ytick_5">
     <g id="line2d_15">
      <path d="M 28.942188 91.191535 
L 230.542188 91.191535 
" clip-path="url(#p59a90a4f95)" style="fill: none; stroke: #ebebeb; stroke-width: 0.5; stroke-linecap: square"/>
     </g>
     <g id="line2d_16">
      <g>
       <use xlink:href="#m89796b1b26" x="28.942188" y="91.191535" style="stroke: #000000; stroke-width: 0.8"/>
      </g>
     </g>
     <g id="text_8">
      <!-- 1 -->
      <g transform="translate(15.579688 94.990363) scale(0.1 -0.1)">
       <use xlink:href="#DejaVuSans-14"/>
      </g>
     </g>
    </g>
    <g id="ytick_6">
     <g id="line2d_17">
      <path d="M 28.942188 61.544476 
L 230.542188 61.544476 
" clip-path="url(#p59a90a4f95)" style="fill: none; stroke: #ebebeb; stroke-width: 0.5; stroke-linecap: square"/>
     </g>
     <g id="line2d_18">
      <g>
       <use xlink:href="#m89796b1b26" x="28.942188" y="61.544476" style="stroke: #000000; stroke-width: 0.8"/>
      </g>
     </g>
     <g id="text_9">
      <!-- 2 -->
      <g transform="translate(15.579688 65.343304) scale(0.1 -0.1)">
       <use xlink:href="#DejaVuSans-15"/>
      </g>
     </g>
    </g>
    <g id="ytick_7">
     <g id="line2d_19">
      <path d="M 28.942188 31.897417 
L 230.542188 31.897417 
" clip-path="url(#p59a90a4f95)" style="fill: none; stroke: #ebebeb; stroke-width: 0.5; stroke-linecap: square"/>
     </g>
     <g id="line2d_20">
      <g>
       <use xlink:href="#m89796b1b26" x="28.942188" y="31.897417" style="stroke: #000000; stroke-width: 0.8"/>
      </g>
     </g>
     <g id="text_10">
      <!-- 3 -->
      <g transform="translate(15.579688 35.696245) scale(0.1 -0.1)">
       <use xlink:href="#DejaVuSans-16"/>
      </g>
     </g>
    </g>
   </g>
   <g id="line2d_21">
    <path d="M 159.389246 120.838594 
L 159.257012 118.041587 
L 158.861488 115.269532 
L 158.206202 112.547155 
L 157.297002 109.898744 
L 156.141996 107.347922 
L 154.751488 104.917445 
L 153.137883 102.628993 
L 151.315574 100.502982 
L 149.300818 98.558377 
L 147.111588 96.812524 
L 144.767413 95.280998 
L 142.289203 93.97746 
L 139.699067 92.91354 
L 137.02011 92.098727 
L 134.27623 91.540291 
L 131.491903 91.243212 
L 128.691968 91.210142 
L 125.901401 91.441375 
L 123.145096 91.934849 
L 120.447642 92.68616 
L 117.8331 93.688608 
L 115.324794 94.93325 
L 112.945099 96.408982 
L 110.715245 98.102641 
L 108.655122 99.999118 
L 106.783108 102.081495 
L 105.115902 104.331196 
L 103.668377 106.728153 
L 102.453446 109.250984 
L 101.481947 111.877183 
L 100.762545 114.583322 
L 100.301659 117.345263 
L 100.103399 120.138366 
L 100.169535 122.937715 
L 100.499476 125.718339 
L 101.090279 128.455433 
L 101.936674 131.12458 
L 103.03111 133.70197 
L 104.363825 136.164612 
L 105.92293 138.490536 
L 107.694516 140.658995 
L 109.662781 142.650644 
L 111.810165 144.447717 
L 114.117514 146.034182 
L 116.564244 147.395888 
L 119.128529 148.520688 
L 121.787494 149.398547 
L 124.517419 150.021635 
L 127.293953 150.384393 
L 130.092326 150.483585 
L 132.887576 150.318326 
L 135.654767 149.890091 
L 138.369214 149.2027 
L 141.006703 148.262284 
L 143.543706 147.077233 
L 145.957592 145.658118 
L 148.226826 144.017598 
L 150.331167 142.170308 
L 152.251842 140.132726 
L 153.971718 137.92303 
L 155.475452 135.56093 
L 156.749631 133.067498 
L 157.782887 130.464978 
L 158.566004 127.776585 
L 159.091995 125.0263 
L 159.356169 122.238659 
L 159.389246 120.838594 
L 159.389246 120.838594 
" clip-path="url(#p59a90a4f95)" style="fill: none; stroke: #cccccc; stroke-linecap: square"/>
   </g>
   <g id="line2d_22">
    <path d="M 159.389246 120.838594 
L 159.257012 118.041587 
L 158.861488 115.269532 
L 158.206202 112.547155 
L 157.297002 109.898744 
L 156.141996 107.347922 
L 154.751488 104.917445 
L 153.137883 102.628993 
L 151.315574 100.502982 
L 149.300818 98.558377 
L 147.111588 96.812524 
L 144.767413 95.280998 
L 142.289203 93.97746 
L 139.699067 92.91354 
L 137.02011 92.098727 
L 134.27623 91.540291 
L 131.491903 91.243212 
L 128.691968 91.210142 
L 125.901401 91.441375 
L 123.145096 91.934849 
L 120.447642 92.68616 
L 117.8331 93.688608 
L 115.324794 94.93325 
L 112.945099 96.408982 
L 110.715245 98.102641 
L 108.655122 99.999118 
L 106.783108 102.081495 
L 105.115902 104.331196 
L 103.668377 106.728153 
L 102.453446 109.250984 
L 101.481947 111.877183 
L 100.762545 114.583322 
L 100.301659 117.345263 
L 100.103399 120.138366 
L 100.169535 122.937715 
L 100.499476 125.718339 
L 101.090279 128.455433 
L 101.936674 131.12458 
L 103.03111 133.70197 
L 104.363825 136.164612 
L 105.92293 138.490536 
L 107.694516 140.658995 
L 109.662781 142.650644 
L 111.810165 144.447717 
L 114.117514 146.034182 
L 116.564244 147.395888 
L 119.128529 148.520688 
L 121.787494 149.398547 
L 124.517419 150.021635 
L 127.293953 150.384393 
L 130.092326 150.483585 
L 132.887576 150.318326 
L 135.654767 149.890091 
L 138.369214 149.2027 
L 141.006703 148.262284 
L 143.543706 147.077233 
L 145.957592 145.658118 
L 148.226826 144.017598 
L 150.331167 142.170308 
L 152.251842 140.132726 
L 153.971718 137.92303 
L 155.475452 135.56093 
L 156.749631 133.067498 
L 157.782887 130.464978 
L 158.566004 127.776585 
L 159.091995 125.0263 
L 159.356169 122.238659 
L 159.389246 120.838594 
L 159.389246 120.838594 
" clip-path="url(#p59a90a4f95)" style="fill: none; stroke: #2471a3; stroke-width: 2; stroke-linecap: square"/>
   </g>
   <g id="line2d_23">
    <path d="M 28.942188 120.838594 
L 230.542188 120.838594 
" clip-path="url(#p59a90a4f95)" style="fill: none; stroke: #b2b2b2; stroke-width: 0.5; stroke-linecap: square"/>
   </g>
   <g id="line2d_24">
    <path d="M 129.742188 221.638594 
L 129.742188 20.038594 
" clip-path="url(#p59a90a4f95)" style="fill: none; stroke: #b2b2b2; stroke-width: 0.5; stroke-linecap: square"/>
   </g>
   <g id="patch_3">
    <path d="M 28.942188 221.638594 
L 28.942188 20.038594 
" style="fill: none; stroke: #000000; stroke-width: 0.8; stroke-linejoin: miter; stroke-linecap: square"/>
   </g>
   <g id="patch_4">
    <path d="M 230.542188 221.638594 
L 230.542188 20.038594 
" style="fill: none; stroke: #000000; stroke-width: 0.8; stroke-linejoin: miter; stroke-linecap: square"/>
   </g>
   <g id="patch_5">
    <path d="M 28.942188 221.638594 
L 230.542187 221.638594 
" style="fill: none; stroke: #000000; stroke-width: 0.8; stroke-linejoin: miter; stroke-linecap: square"/>
   </g>
   <g id="patch_6">
    <path d="M 28.942188 20.038594 
L 230.542187 20.038594 
" style="fill: none; stroke: #000000; stroke-width: 0.8; stroke-linejoin: miter; stroke-linecap: square"/>
   </g>
   <g id="patch_7">
    <path d="M 129.742188 120.038594 
Q 138.567182 120.038594 147.392176 120.038594 
L 147.392176 116.838594 
Q 153.390711 118.838594 159.389246 120.838594 
Q 153.390711 122.838594 147.392176 124.838594 
L 147.392176 121.638594 
Q 138.567182 121.638594 129.742188 121.638594 
L 129.742188 120.038594 
z
" style="fill: #c0392b; stroke: #c0392b; stroke-linecap: round"/>
   </g>
   <g id="patch_8">
    <path d="M 128.942187 120.838594 
Q 128.942187 112.013599 128.942187 103.188605 
L 125.742188 103.188605 
Q 127.742188 97.19007 129.742188 91.191535 
Q 131.742188 97.19007 133.742188 103.188605 
L 130.542188 103.188605 
Q 130.542188 112.013599 130.542188 120.838594 
L 128.942187 120.838594 
z
" style="fill: #27ae60; stroke: #27ae60; stroke-linecap: round"/>
   </g>
   <g id="text_11">
    <!-- unit circle (before) -->
    <g transform="translate(88.200859 14.038594) scale(0.09 -0.09)">
     <defs>
      <path id="DejaVuSans-58" d="M 544 1381 
L 544 3500 
L 1119 3500 
L 1119 1403 
Q 1119 906 1312 657 
Q 1506 409 1894 409 
Q 2359 409 2629 706 
Q 2900 1003 2900 1516 
L 2900 3500 
L 3475 3500 
L 3475 0 
L 2900 0 
L 2900 538 
Q 2691 219 2414 64 
Q 2138 -91 1772 -91 
Q 1169 -91 856 284 
Q 544 659 544 1381 
z
M 1991 3584 
L 1991 3584 
z
" transform="scale(0.015625)"/>
      <path id="DejaVuSans-51" d="M 3513 2113 
L 3513 0 
L 2938 0 
L 2938 2094 
Q 2938 2591 2744 2837 
Q 2550 3084 2163 3084 
Q 1697 3084 1428 2787 
Q 1159 2491 1159 1978 
L 1159 0 
L 581 0 
L 581 3500 
L 1159 3500 
L 1159 2956 
Q 1366 3272 1645 3428 
Q 1925 3584 2291 3584 
Q 2894 3584 3203 3211 
Q 3513 2838 3513 2113 
z
" transform="scale(0.015625)"/>
      <path id="DejaVuSans-4c" d="M 603 3500 
L 1178 3500 
L 1178 0 
L 603 0 
L 603 3500 
z
M 603 4863 
L 1178 4863 
L 1178 4134 
L 603 4134 
L 603 4863 
z
" transform="scale(0.015625)"/>
      <path id="DejaVuSans-57" d="M 1172 4494 
L 1172 3500 
L 2356 3500 
L 2356 3053 
L 1172 3053 
L 1172 1153 
Q 1172 725 1289 603 
Q 1406 481 1766 481 
L 2356 481 
L 2356 0 
L 1766 0 
Q 1100 0 847 248 
Q 594 497 594 1153 
L 594 3053 
L 172 3053 
L 172 3500 
L 594 3500 
L 594 4494 
L 1172 4494 
z
" transform="scale(0.015625)"/>
      <path id="DejaVuSans-3" transform="scale(0.015625)"/>
      <path id="DejaVuSans-46" d="M 3122 3366 
L 3122 2828 
Q 2878 2963 2633 3030 
Q 2388 3097 2138 3097 
Q 1578 3097 1268 2742 
Q 959 2388 959 1747 
Q 959 1106 1268 751 
Q 1578 397 2138 397 
Q 2388 397 2633 464 
Q 2878 531 3122 666 
L 3122 134 
Q 2881 22 2623 -34 
Q 2366 -91 2075 -91 
Q 1284 -91 818 406 
Q 353 903 353 1747 
Q 353 2603 823 3093 
Q 1294 3584 2113 3584 
Q 2378 3584 2631 3529 
Q 2884 3475 3122 3366 
z
" transform="scale(0.015625)"/>
      <path id="DejaVuSans-55" d="M 2631 2963 
Q 2534 3019 2420 3045 
Q 2306 3072 2169 3072 
Q 1681 3072 1420 2755 
Q 1159 2438 1159 1844 
L 1159 0 
L 581 0 
L 581 3500 
L 1159 3500 
L 1159 2956 
Q 1341 3275 1631 3429 
Q 1922 3584 2338 3584 
Q 2397 3584 2469 3576 
Q 2541 3569 2628 3553 
L 2631 2963 
z
" transform="scale(0.015625)"/>
      <path id="DejaVuSans-4f" d="M 603 4863 
L 1178 4863 
L 1178 0 
L 603 0 
L 603 4863 
z
" transform="scale(0.015625)"/>
      <path id="DejaVuSans-48" d="M 3597 1894 
L 3597 1613 
L 953 1613 
Q 991 1019 1311 708 
Q 1631 397 2203 397 
Q 2534 397 2845 478 
Q 3156 559 3463 722 
L 3463 178 
Q 3153 47 2828 -22 
Q 2503 -91 2169 -91 
Q 1331 -91 842 396 
Q 353 884 353 1716 
Q 353 2575 817 3079 
Q 1281 3584 2069 3584 
Q 2775 3584 3186 3129 
Q 3597 2675 3597 1894 
z
M 3022 2063 
Q 3016 2534 2758 2815 
Q 2500 3097 2075 3097 
Q 1594 3097 1305 2825 
Q 1016 2553 972 2059 
L 3022 2063 
z
" transform="scale(0.015625)"/>
      <path id="DejaVuSans-b" d="M 1984 4856 
Q 1566 4138 1362 3434 
Q 1159 2731 1159 2009 
Q 1159 1288 1364 580 
Q 1569 -128 1984 -844 
L 1484 -844 
Q 1016 -109 783 600 
Q 550 1309 550 2009 
Q 550 2706 781 3412 
Q 1013 4119 1484 4856 
L 1984 4856 
z
" transform="scale(0.015625)"/>
      <path id="DejaVuSans-45" d="M 3116 1747 
Q 3116 2381 2855 2742 
Q 2594 3103 2138 3103 
Q 1681 3103 1420 2742 
Q 1159 2381 1159 1747 
Q 1159 1113 1420 752 
Q 1681 391 2138 391 
Q 2594 391 2855 752 
Q 3116 1113 3116 1747 
z
M 1159 2969 
Q 1341 3281 1617 3432 
Q 1894 3584 2278 3584 
Q 2916 3584 3314 3078 
Q 3713 2572 3713 1747 
Q 3713 922 3314 415 
Q 2916 -91 2278 -91 
Q 1894 -91 1617 61 
Q 1341 213 1159 525 
L 1159 0 
L 581 0 
L 581 4863 
L 1159 4863 
L 1159 2969 
z
" transform="scale(0.015625)"/>
      <path id="DejaVuSans-49" d="M 2375 4863 
L 2375 4384 
L 1825 4384 
Q 1516 4384 1395 4259 
Q 1275 4134 1275 3809 
L 1275 3500 
L 2222 3500 
L 2222 3053 
L 1275 3053 
L 1275 0 
L 697 0 
L 697 3053 
L 147 3053 
L 147 3500 
L 697 3500 
L 697 3744 
Q 697 4328 969 4595 
Q 1241 4863 1831 4863 
L 2375 4863 
z
" transform="scale(0.015625)"/>
      <path id="DejaVuSans-52" d="M 1959 3097 
Q 1497 3097 1228 2736 
Q 959 2375 959 1747 
Q 959 1119 1226 758 
Q 1494 397 1959 397 
Q 2419 397 2687 759 
Q 2956 1122 2956 1747 
Q 2956 2369 2687 2733 
Q 2419 3097 1959 3097 
z
M 1959 3584 
Q 2709 3584 3137 3096 
Q 3566 2609 3566 1747 
Q 3566 888 3137 398 
Q 2709 -91 1959 -91 
Q 1206 -91 779 398 
Q 353 888 353 1747 
Q 353 2609 779 3096 
Q 1206 3584 1959 3584 
z
" transform="scale(0.015625)"/>
      <path id="DejaVuSans-c" d="M 513 4856 
L 1013 4856 
Q 1481 4119 1714 3412 
Q 1947 2706 1947 2009 
Q 1947 1309 1714 600 
Q 1481 -109 1013 -844 
L 513 -844 
Q 928 -128 1133 580 
Q 1338 1288 1338 2009 
Q 1338 2731 1133 3434 
Q 928 4138 513 4856 
z
" transform="scale(0.015625)"/>
     </defs>
     <use xlink:href="#DejaVuSans-58"/>
     <use xlink:href="#DejaVuSans-51" transform="translate(63.375 0)"/>
     <use xlink:href="#DejaVuSans-4c" transform="translate(126.75 0)"/>
     <use xlink:href="#DejaVuSans-57" transform="translate(154.53125 0)"/>
     <use xlink:href="#DejaVuSans-3" transform="translate(193.734375 0)"/>
     <use xlink:href="#DejaVuSans-46" transform="translate(225.515625 0)"/>
     <use xlink:href="#DejaVuSans-4c" transform="translate(280.5 0)"/>
     <use xlink:href="#DejaVuSans-55" transform="translate(308.28125 0)"/>
     <use xlink:href="#DejaVuSans-46" transform="translate(347.1875 0)"/>
     <use xlink:href="#DejaVuSans-4f" transform="translate(402.171875 0)"/>
     <use xlink:href="#DejaVuSans-48" transform="translate(429.953125 0)"/>
     <use xlink:href="#DejaVuSans-3" transform="translate(491.484375 0)"/>
     <use xlink:href="#DejaVuSans-b" transform="translate(523.265625 0)"/>
     <use xlink:href="#DejaVuSans-45" transform="translate(562.28125 0)"/>
     <use xlink:href="#DejaVuSans-48" transform="translate(625.765625 0)"/>
     <use xlink:href="#DejaVuSans-49" transform="translate(687.296875 0)"/>
     <use xlink:href="#DejaVuSans-52" transform="translate(722.5 0)"/>
     <use xlink:href="#DejaVuSans-55" transform="translate(783.6875 0)"/>
     <use xlink:href="#DejaVuSans-48" transform="translate(822.59375 0)"/>
     <use xlink:href="#DejaVuSans-c" transform="translate(884.125 0)"/>
    </g>
   </g>
  </g>
  <g id="axes_2">
   <g id="patch_9">
    <path d="M 272.433097 221.638594 
L 474.033097 221.638594 
L 474.033097 20.038594 
L 272.433097 20.038594 
z
" style="fill: #ffffff"/>
   </g>
   <g id="matplotlib.axis_3">
    <g id="xtick_4">
     <g id="line2d_25">
      <path d="M 313.938979 221.638594 
L 313.938979 20.038594 
" clip-path="url(#p2ebc5f6b6a)" style="fill: none; stroke: #ebebeb; stroke-width: 0.5; stroke-linecap: square"/>
     </g>
     <g id="line2d_26">
      <g>
       <use xlink:href="#m34bd98b9c5" x="313.938979" y="221.638594" style="stroke: #000000; stroke-width: 0.8"/>
      </g>
     </g>
     <g id="text_12">
      <!-- −2 -->
      <g transform="translate(306.567885 236.23625) scale(0.1 -0.1)">
       <use xlink:href="#DejaVuSans-c9c"/>
       <use xlink:href="#DejaVuSans-15" transform="translate(83.796875 0)"/>
      </g>
     </g>
    </g>
    <g id="xtick_5">
     <g id="line2d_27">
      <path d="M 373.233097 221.638594 
L 373.233097 20.038594 
" clip-path="url(#p2ebc5f6b6a)" style="fill: none; stroke: #ebebeb; stroke-width: 0.5; stroke-linecap: square"/>
     </g>
     <g id="line2d_28">
      <g>
       <use xlink:href="#m34bd98b9c5" x="373.233097" y="221.638594" style="stroke: #000000; stroke-width: 0.8"/>
      </g>
     </g>
     <g id="text_13">
      <!-- 0 -->
      <g transform="translate(370.051847 236.23625) scale(0.1 -0.1)">
       <use xlink:href="#DejaVuSans-13"/>
      </g>
     </g>
    </g>
    <g id="xtick_6">
     <g id="line2d_29">
      <path d="M 432.527214 221.638594 
L 432.527214 20.038594 
" clip-path="url(#p2ebc5f6b6a)" style="fill: none; stroke: #ebebeb; stroke-width: 0.5; stroke-linecap: square"/>
     </g>
     <g id="line2d_30">
      <g>
       <use xlink:href="#m34bd98b9c5" x="432.527214" y="221.638594" style="stroke: #000000; stroke-width: 0.8"/>
      </g>
     </g>
     <g id="text_14">
      <!-- 2 -->
      <g transform="translate(429.345964 236.23625) scale(0.1 -0.1)">
       <use xlink:href="#DejaVuSans-15"/>
      </g>
     </g>
    </g>
   </g>
   <g id="matplotlib.axis_4">
    <g id="ytick_8">
     <g id="line2d_31">
      <path d="M 272.433097 209.77977 
L 474.033097 209.77977 
" clip-path="url(#p2ebc5f6b6a)" style="fill: none; stroke: #ebebeb; stroke-width: 0.5; stroke-linecap: square"/>
     </g>
     <g id="line2d_32">
      <g>
       <use xlink:href="#m89796b1b26" x="272.433097" y="209.77977" style="stroke: #000000; stroke-width: 0.8"/>
      </g>
     </g>
     <g id="text_15">
      <!-- −3 -->
      <g transform="translate(250.690909 213.578598) scale(0.1 -0.1)">
       <use xlink:href="#DejaVuSans-c9c"/>
       <use xlink:href="#DejaVuSans-16" transform="translate(83.796875 0)"/>
      </g>
     </g>
    </g>
    <g id="ytick_9">
     <g id="line2d_33">
      <path d="M 272.433097 180.132711 
L 474.033097 180.132711 
" clip-path="url(#p2ebc5f6b6a)" style="fill: none; stroke: #ebebeb; stroke-width: 0.5; stroke-linecap: square"/>
     </g>
     <g id="line2d_34">
      <g>
       <use xlink:href="#m89796b1b26" x="272.433097" y="180.132711" style="stroke: #000000; stroke-width: 0.8"/>
      </g>
     </g>
     <g id="text_16">
      <!-- −2 -->
      <g transform="translate(250.690909 183.93154) scale(0.1 -0.1)">
       <use xlink:href="#DejaVuSans-c9c"/>
       <use xlink:href="#DejaVuSans-15" transform="translate(83.796875 0)"/>
      </g>
     </g>
    </g>
    <g id="ytick_10">
     <g id="line2d_35">
      <path d="M 272.433097 150.485653 
L 474.033097 150.485653 
" clip-path="url(#p2ebc5f6b6a)" style="fill: none; stroke: #ebebeb; stroke-width: 0.5; stroke-linecap: square"/>
     </g>
     <g id="line2d_36">
      <g>
       <use xlink:href="#m89796b1b26" x="272.433097" y="150.485653" style="stroke: #000000; stroke-width: 0.8"/>
      </g>
     </g>
     <g id="text_17">
      <!-- −1 -->
      <g transform="translate(250.690909 154.284481) scale(0.1 -0.1)">
       <use xlink:href="#DejaVuSans-c9c"/>
       <use xlink:href="#DejaVuSans-14" transform="translate(83.796875 0)"/>
      </g>
     </g>
    </g>
    <g id="ytick_11">
     <g id="line2d_37">
      <path d="M 272.433097 120.838594 
L 474.033097 120.838594 
" clip-path="url(#p2ebc5f6b6a)" style="fill: none; stroke: #ebebeb; stroke-width: 0.5; stroke-linecap: square"/>
     </g>
     <g id="line2d_38">
      <g>
       <use xlink:href="#m89796b1b26" x="272.433097" y="120.838594" style="stroke: #000000; stroke-width: 0.8"/>
      </g>
     </g>
     <g id="text_18">
      <!-- 0 -->
      <g transform="translate(259.070597 124.637422) scale(0.1 -0.1)">
       <use xlink:href="#DejaVuSans-13"/>
      </g>
     </g>
    </g>
    <g id="ytick_12">
     <g id="line2d_39">
      <path d="M 272.433097 91.191535 
L 474.033097 91.191535 
" clip-path="url(#p2ebc5f6b6a)" style="fill: none; stroke: #ebebeb; stroke-width: 0.5; stroke-linecap: square"/>
     </g>
     <g id="line2d_40">
      <g>
       <use xlink:href="#m89796b1b26" x="272.433097" y="91.191535" style="stroke: #000000; stroke-width: 0.8"/>
      </g>
     </g>
     <g id="text_19">
      <!-- 1 -->
      <g transform="translate(259.070597 94.990363) scale(0.1 -0.1)">
       <use xlink:href="#DejaVuSans-14"/>
      </g>
     </g>
    </g>
    <g id="ytick_13">
     <g id="line2d_41">
      <path d="M 272.433097 61.544476 
L 474.033097 61.544476 
" clip-path="url(#p2ebc5f6b6a)" style="fill: none; stroke: #ebebeb; stroke-width: 0.5; stroke-linecap: square"/>
     </g>
     <g id="line2d_42">
      <g>
       <use xlink:href="#m89796b1b26" x="272.433097" y="61.544476" style="stroke: #000000; stroke-width: 0.8"/>
      </g>
     </g>
     <g id="text_20">
      <!-- 2 -->
      <g transform="translate(259.070597 65.343304) scale(0.1 -0.1)">
       <use xlink:href="#DejaVuSans-15"/>
      </g>
     </g>
    </g>
    <g id="ytick_14">
     <g id="line2d_43">
      <path d="M 272.433097 31.897417 
L 474.033097 31.897417 
" clip-path="url(#p2ebc5f6b6a)" style="fill: none; stroke: #ebebeb; stroke-width: 0.5; stroke-linecap: square"/>
     </g>
     <g id="line2d_44">
      <g>
       <use xlink:href="#m89796b1b26" x="272.433097" y="31.897417" style="stroke: #000000; stroke-width: 0.8"/>
      </g>
     </g>
     <g id="text_21">
      <!-- 3 -->
      <g transform="translate(259.070597 35.696245) scale(0.1 -0.1)">
       <use xlink:href="#DejaVuSans-16"/>
      </g>
     </g>
    </g>
   </g>
   <g id="line2d_45">
    <path d="M 402.880155 120.838594 
L 402.747921 118.041587 
L 402.352397 115.269532 
L 401.697112 112.547155 
L 400.787911 109.898744 
L 399.632905 107.347922 
L 398.242397 104.917445 
L 396.628792 102.628993 
L 394.806483 100.502982 
L 392.791727 98.558377 
L 390.602497 96.812524 
L 388.258322 95.280998 
L 385.780112 93.97746 
L 383.189976 92.91354 
L 380.511019 92.098727 
L 377.767139 91.540291 
L 374.982812 91.243212 
L 372.182877 91.210142 
L 369.39231 91.441375 
L 366.636005 91.934849 
L 363.938551 92.68616 
L 361.324009 93.688608 
L 358.815703 94.93325 
L 356.436008 96.408982 
L 354.206154 98.102641 
L 352.146031 99.999118 
L 350.274017 102.081495 
L 348.606811 104.331196 
L 347.159287 106.728153 
L 345.944355 109.250984 
L 344.972856 111.877183 
L 344.253454 114.583322 
L 343.792568 117.345263 
L 343.594308 120.138366 
L 343.660444 122.937715 
L 343.990385 125.718339 
L 344.581188 128.455433 
L 345.427583 131.12458 
L 346.52202 133.70197 
L 347.854734 136.164612 
L 349.413839 138.490536 
L 351.185425 140.658995 
L 353.15369 142.650644 
L 355.301075 144.447717 
L 357.608423 146.034182 
L 360.055153 147.395888 
L 362.619438 148.520688 
L 365.278403 149.398547 
L 368.008328 150.021635 
L 370.784862 150.384393 
L 373.583235 150.483585 
L 376.378485 150.318326 
L 379.145676 149.890091 
L 381.860123 149.2027 
L 384.497612 148.262284 
L 387.034615 147.077233 
L 389.448501 145.658118 
L 391.717735 144.017598 
L 393.822076 142.170308 
L 395.742751 140.132726 
L 397.462627 137.92303 
L 398.966361 135.56093 
L 400.24054 133.067498 
L 401.273796 130.464978 
L 402.056913 127.776585 
L 402.582904 125.0263 
L 402.847078 122.238659 
L 402.880155 120.838594 
L 402.880155 120.838594 
" clip-path="url(#p2ebc5f6b6a)" style="fill: none; stroke: #cccccc; stroke-linecap: square"/>
   </g>
   <g id="line2d_46">
    <path d="M 432.527214 91.191535 
L 434.675413 86.619587 
L 436.442898 82.259669 
L 437.575333 78.942599 
L 438.452565 75.791702 
L 439.071114 72.819477 
L 439.428526 70.037713 
L 439.523385 67.457442 
L 439.355313 65.088899 
L 438.924979 62.941478 
L 438.431105 61.481182 
L 437.791749 60.153336 
L 437.008338 58.960902 
L 436.082619 57.906541 
L 435.016658 56.992607 
L 433.812834 56.221138 
L 432.473832 55.593855 
L 431.002642 55.112159 
L 429.402545 54.777125 
L 427.074773 54.559797 
L 424.533446 54.605354 
L 421.788645 54.913614 
L 418.851255 55.483355 
L 415.732929 56.312318 
L 412.446033 57.397214 
L 409.003605 58.733741 
L 404.502709 60.750084 
L 399.808058 63.138752 
L 394.948742 65.884943 
L 389.95487 68.971641 
L 384.857385 72.379721 
L 379.687874 76.088064 
L 374.478367 80.073692 
L 369.261144 84.311911 
L 364.068532 88.776458 
L 358.932706 93.439671 
L 352.889443 99.257005 
L 347.027657 105.26686 
L 341.399639 111.415623 
L 336.92449 116.606158 
L 332.674319 121.822917 
L 328.675461 127.033578 
L 324.952693 132.205853 
L 321.529083 137.307693 
L 318.425845 142.307487 
L 315.662206 147.174254 
L 313.255292 151.877838 
L 311.220015 156.389095 
L 309.568988 160.680072 
L 308.531782 163.936335 
L 307.751204 167.021657 
L 307.230349 169.923801 
L 306.971284 172.631257 
L 306.975036 175.133285 
L 307.24159 177.419961 
L 307.613373 178.988155 
L 308.131579 180.426594 
L 308.795052 181.73207 
L 309.602311 182.901668 
L 310.551556 183.932779 
L 311.640668 184.823103 
L 312.867216 185.570652 
L 314.228464 186.173758 
L 315.721375 186.631076 
L 317.342617 186.941586 
L 319.697606 187.126079 
L 322.264935 187.047653 
L 325.034422 186.706619 
L 327.995081 186.10433 
L 331.135169 185.243175 
L 334.442232 184.126569 
L 337.903153 182.758942 
L 342.424701 180.704764 
L 347.137146 178.279641 
L 352.011288 175.498598 
L 357.016926 172.378867 
L 362.123043 168.939779 
L 367.298001 165.202644 
L 372.509735 161.190618 
L 377.725951 156.928561 
L 382.914328 152.44288 
L 388.042717 147.761371 
L 394.072897 141.925985 
L 399.917174 135.902487 
L 405.523413 129.74461 
L 409.97729 124.550001 
L 414.20349 119.332396 
L 418.175828 114.124123 
L 421.869688 108.957455 
L 425.262184 103.864406 
L 428.332294 98.876533 
L 431.060995 94.024743 
L 432.527214 91.191535 
L 432.527214 91.191535 
" clip-path="url(#p2ebc5f6b6a)" style="fill: none; stroke: #2471a3; stroke-width: 2; stroke-linecap: square"/>
   </g>
   <g id="line2d_47">
    <path d="M 272.433097 120.838594 
L 474.033097 120.838594 
" clip-path="url(#p2ebc5f6b6a)" style="fill: none; stroke: #b2b2b2; stroke-width: 0.5; stroke-linecap: square"/>
   </g>
   <g id="line2d_48">
    <path d="M 373.233097 221.638594 
L 373.233097 20.038594 
" clip-path="url(#p2ebc5f6b6a)" style="fill: none; stroke: #b2b2b2; stroke-width: 0.5; stroke-linecap: square"/>
   </g>
   <g id="patch_10">
    <path d="M 272.433097 221.638594 
L 272.433097 20.038594 
" style="fill: none; stroke: #000000; stroke-width: 0.8; stroke-linejoin: miter; stroke-linecap: square"/>
   </g>
   <g id="patch_11">
    <path d="M 474.033097 221.638594 
L 474.033097 20.038594 
" style="fill: none; stroke: #000000; stroke-width: 0.8; stroke-linejoin: miter; stroke-linecap: square"/>
   </g>
   <g id="patch_12">
    <path d="M 272.433097 221.638594 
L 474.033097 221.638594 
" style="fill: none; stroke: #000000; stroke-width: 0.8; stroke-linejoin: miter; stroke-linecap: square"/>
   </g>
   <g id="patch_13">
    <path d="M 272.433097 20.038594 
L 474.033097 20.038594 
" style="fill: none; stroke: #000000; stroke-width: 0.8; stroke-linejoin: miter; stroke-linecap: square"/>
   </g>
   <g id="patch_14">
    <path d="M 372.875326 120.123052 
Q 397.157179 107.982125 421.439032 95.841199 
L 420.007949 92.979032 
Q 426.267581 92.085283 432.527214 91.191535 
Q 428.056436 95.662992 423.585657 100.134449 
L 422.154574 97.272282 
Q 397.872721 109.413209 373.590867 121.554136 
L 372.875326 120.123052 
z
" style="fill: #c0392b; stroke: #c0392b; stroke-linecap: round"/>
   </g>
   <g id="patch_15">
    <path d="M 372.517555 120.480823 
Q 384.658481 96.19897 396.799408 71.917117 
L 393.937241 70.486033 
Q 398.408698 66.015255 402.880155 61.544476 
Q 401.986407 67.804109 401.092659 74.063742 
L 398.230492 72.632658 
Q 386.089565 96.914511 373.948638 121.196365 
L 372.517555 120.480823 
z
" style="fill: #27ae60; stroke: #27ae60; stroke-linecap: round"/>
   </g>
   <g id="text_22">
    <!-- S sends circle -&gt; ellipse (semi-axes 3,1) -->
    <g transform="translate(283.343487 14.038594) scale(0.09 -0.09)">
     <defs>
      <path id="DejaVuSans-36" d="M 3425 4513 
L 3425 3897 
Q 3066 4069 2747 4153 
Q 2428 4238 2131 4238 
Q 1616 4238 1336 4038 
Q 1056 3838 1056 3469 
Q 1056 3159 1242 3001 
Q 1428 2844 1947 2747 
L 2328 2669 
Q 3034 2534 3370 2195 
Q 3706 1856 3706 1288 
Q 3706 609 3251 259 
Q 2797 -91 1919 -91 
Q 1588 -91 1214 -16 
Q 841 59 441 206 
L 441 856 
Q 825 641 1194 531 
Q 1563 422 1919 422 
Q 2459 422 2753 634 
Q 3047 847 3047 1241 
Q 3047 1584 2836 1778 
Q 2625 1972 2144 2069 
L 1759 2144 
Q 1053 2284 737 2584 
Q 422 2884 422 3419 
Q 422 4038 858 4394 
Q 1294 4750 2059 4750 
Q 2388 4750 2728 4690 
Q 3069 4631 3425 4513 
z
" transform="scale(0.015625)"/>
      <path id="DejaVuSans-56" d="M 2834 3397 
L 2834 2853 
Q 2591 2978 2328 3040 
Q 2066 3103 1784 3103 
Q 1356 3103 1142 2972 
Q 928 2841 928 2578 
Q 928 2378 1081 2264 
Q 1234 2150 1697 2047 
L 1894 2003 
Q 2506 1872 2764 1633 
Q 3022 1394 3022 966 
Q 3022 478 2636 193 
Q 2250 -91 1575 -91 
Q 1294 -91 989 -36 
Q 684 19 347 128 
L 347 722 
Q 666 556 975 473 
Q 1284 391 1588 391 
Q 1994 391 2212 530 
Q 2431 669 2431 922 
Q 2431 1156 2273 1281 
Q 2116 1406 1581 1522 
L 1381 1569 
Q 847 1681 609 1914 
Q 372 2147 372 2553 
Q 372 3047 722 3315 
Q 1072 3584 1716 3584 
Q 2034 3584 2315 3537 
Q 2597 3491 2834 3397 
z
" transform="scale(0.015625)"/>
      <path id="DejaVuSans-47" d="M 2906 2969 
L 2906 4863 
L 3481 4863 
L 3481 0 
L 2906 0 
L 2906 525 
Q 2725 213 2448 61 
Q 2172 -91 1784 -91 
Q 1150 -91 751 415 
Q 353 922 353 1747 
Q 353 2572 751 3078 
Q 1150 3584 1784 3584 
Q 2172 3584 2448 3432 
Q 2725 3281 2906 2969 
z
M 947 1747 
Q 947 1113 1208 752 
Q 1469 391 1925 391 
Q 2381 391 2643 752 
Q 2906 1113 2906 1747 
Q 2906 2381 2643 2742 
Q 2381 3103 1925 3103 
Q 1469 3103 1208 2742 
Q 947 2381 947 1747 
z
" transform="scale(0.015625)"/>
      <path id="DejaVuSans-10" d="M 313 2009 
L 1997 2009 
L 1997 1497 
L 313 1497 
L 313 2009 
z
" transform="scale(0.015625)"/>
      <path id="DejaVuSans-21" d="M 678 3150 
L 678 3719 
L 4684 2266 
L 4684 1747 
L 678 294 
L 678 863 
L 3897 2003 
L 678 3150 
z
" transform="scale(0.015625)"/>
      <path id="DejaVuSans-53" d="M 1159 525 
L 1159 -1331 
L 581 -1331 
L 581 3500 
L 1159 3500 
L 1159 2969 
Q 1341 3281 1617 3432 
Q 1894 3584 2278 3584 
Q 2916 3584 3314 3078 
Q 3713 2572 3713 1747 
Q 3713 922 3314 415 
Q 2916 -91 2278 -91 
Q 1894 -91 1617 61 
Q 1341 213 1159 525 
z
M 3116 1747 
Q 3116 2381 2855 2742 
Q 2594 3103 2138 3103 
Q 1681 3103 1420 2742 
Q 1159 2381 1159 1747 
Q 1159 1113 1420 752 
Q 1681 391 2138 391 
Q 2594 391 2855 752 
Q 3116 1113 3116 1747 
z
" transform="scale(0.015625)"/>
      <path id="DejaVuSans-50" d="M 3328 2828 
Q 3544 3216 3844 3400 
Q 4144 3584 4550 3584 
Q 5097 3584 5394 3201 
Q 5691 2819 5691 2113 
L 5691 0 
L 5113 0 
L 5113 2094 
Q 5113 2597 4934 2840 
Q 4756 3084 4391 3084 
Q 3944 3084 3684 2787 
Q 3425 2491 3425 1978 
L 3425 0 
L 2847 0 
L 2847 2094 
Q 2847 2600 2669 2842 
Q 2491 3084 2119 3084 
Q 1678 3084 1418 2786 
Q 1159 2488 1159 1978 
L 1159 0 
L 581 0 
L 581 3500 
L 1159 3500 
L 1159 2956 
Q 1356 3278 1631 3431 
Q 1906 3584 2284 3584 
Q 2666 3584 2933 3390 
Q 3200 3197 3328 2828 
z
" transform="scale(0.015625)"/>
      <path id="DejaVuSans-44" d="M 2194 1759 
Q 1497 1759 1228 1600 
Q 959 1441 959 1056 
Q 959 750 1161 570 
Q 1363 391 1709 391 
Q 2188 391 2477 730 
Q 2766 1069 2766 1631 
L 2766 1759 
L 2194 1759 
z
M 3341 1997 
L 3341 0 
L 2766 0 
L 2766 531 
Q 2569 213 2275 61 
Q 1981 -91 1556 -91 
Q 1019 -91 701 211 
Q 384 513 384 1019 
Q 384 1609 779 1909 
Q 1175 2209 1959 2209 
L 2766 2209 
L 2766 2266 
Q 2766 2663 2505 2880 
Q 2244 3097 1772 3097 
Q 1472 3097 1187 3025 
Q 903 2953 641 2809 
L 641 3341 
Q 956 3463 1253 3523 
Q 1550 3584 1831 3584 
Q 2591 3584 2966 3190 
Q 3341 2797 3341 1997 
z
" transform="scale(0.015625)"/>
      <path id="DejaVuSans-5b" d="M 3513 3500 
L 2247 1797 
L 3578 0 
L 2900 0 
L 1881 1375 
L 863 0 
L 184 0 
L 1544 1831 
L 300 3500 
L 978 3500 
L 1906 2253 
L 2834 3500 
L 3513 3500 
z
" transform="scale(0.015625)"/>
      <path id="DejaVuSans-f" d="M 750 794 
L 1409 794 
L 1409 256 
L 897 -744 
L 494 -744 
L 750 256 
L 750 794 
z
" transform="scale(0.015625)"/>
     </defs>
     <use xlink:href="#DejaVuSans-36"/>
     <use xlink:href="#DejaVuSans-3" transform="translate(63.484375 0)"/>
     <use xlink:href="#DejaVuSans-56" transform="translate(95.265625 0)"/>
     <use xlink:href="#DejaVuSans-48" transform="translate(147.359375 0)"/>
     <use xlink:href="#DejaVuSans-51" transform="translate(208.890625 0)"/>
     <use xlink:href="#DejaVuSans-47" transform="translate(272.265625 0)"/>
     <use xlink:href="#DejaVuSans-56" transform="translate(335.75 0)"/>
     <use xlink:href="#DejaVuSans-3" transform="translate(387.84375 0)"/>
     <use xlink:href="#DejaVuSans-46" transform="translate(419.625 0)"/>
     <use xlink:href="#DejaVuSans-4c" transform="translate(474.609375 0)"/>
     <use xlink:href="#DejaVuSans-55" transform="translate(502.390625 0)"/>
     <use xlink:href="#DejaVuSans-46" transform="translate(541.296875 0)"/>
     <use xlink:href="#DejaVuSans-4f" transform="translate(596.28125 0)"/>
     <use xlink:href="#DejaVuSans-48" transform="translate(624.0625 0)"/>
     <use xlink:href="#DejaVuSans-3" transform="translate(685.59375 0)"/>
     <use xlink:href="#DejaVuSans-10" transform="translate(717.375 0)"/>
     <use xlink:href="#DejaVuSans-21" transform="translate(753.453125 0)"/>
     <use xlink:href="#DejaVuSans-3" transform="translate(837.25 0)"/>
     <use xlink:href="#DejaVuSans-48" transform="translate(869.03125 0)"/>
     <use xlink:href="#DejaVuSans-4f" transform="translate(930.5625 0)"/>
     <use xlink:href="#DejaVuSans-4f" transform="translate(958.34375 0)"/>
     <use xlink:href="#DejaVuSans-4c" transform="translate(986.125 0)"/>
     <use xlink:href="#DejaVuSans-53" transform="translate(1013.90625 0)"/>
     <use xlink:href="#DejaVuSans-56" transform="translate(1077.390625 0)"/>
     <use xlink:href="#DejaVuSans-48" transform="translate(1129.484375 0)"/>
     <use xlink:href="#DejaVuSans-3" transform="translate(1191.015625 0)"/>
     <use xlink:href="#DejaVuSans-b" transform="translate(1222.796875 0)"/>
     <use xlink:href="#DejaVuSans-56" transform="translate(1261.8125 0)"/>
     <use xlink:href="#DejaVuSans-48" transform="translate(1313.90625 0)"/>
     <use xlink:href="#DejaVuSans-50" transform="translate(1375.4375 0)"/>
     <use xlink:href="#DejaVuSans-4c" transform="translate(1472.84375 0)"/>
     <use xlink:href="#DejaVuSans-10" transform="translate(1500.625 0)"/>
     <use xlink:href="#DejaVuSans-44" transform="translate(1536.703125 0)"/>
     <use xlink:href="#DejaVuSans-5b" transform="translate(1597.984375 0)"/>
     <use xlink:href="#DejaVuSans-48" transform="translate(1654.09375 0)"/>
     <use xlink:href="#DejaVuSans-56" transform="translate(1715.625 0)"/>
     <use xlink:href="#DejaVuSans-3" transform="translate(1767.71875 0)"/>
     <use xlink:href="#DejaVuSans-16" transform="translate(1799.5 0)"/>
     <use xlink:href="#DejaVuSans-f" transform="translate(1863.125 0)"/>
     <use xlink:href="#DejaVuSans-14" transform="translate(1894.90625 0)"/>
     <use xlink:href="#DejaVuSans-c" transform="translate(1958.53125 0)"/>
    </g>
   </g>
  </g>
  <g id="axes_3">
   <g id="patch_16">
    <path d="M 28.942188 463.558594 
L 230.542188 463.558594 
L 230.542188 261.958594 
L 28.942188 261.958594 
z
" style="fill: #ffffff"/>
   </g>
   <g id="matplotlib.axis_5">
    <g id="xtick_7">
     <g id="line2d_49">
      <path d="M 70.44807 463.558594 
L 70.44807 261.958594 
" clip-path="url(#pad523d26e8)" style="fill: none; stroke: #ebebeb; stroke-width: 0.5; stroke-linecap: square"/>
     </g>
     <g id="line2d_50">
      <g>
       <use xlink:href="#m34bd98b9c5" x="70.44807" y="463.558594" style="stroke: #000000; stroke-width: 0.8"/>
      </g>
     </g>
     <g id="text_23">
      <!-- −2 -->
      <g transform="translate(63.076976 478.15625) scale(0.1 -0.1)">
       <use xlink:href="#DejaVuSans-c9c"/>
       <use xlink:href="#DejaVuSans-15" transform="translate(83.796875 0)"/>
      </g>
     </g>
    </g>
    <g id="xtick_8">
     <g id="line2d_51">
      <path d="M 129.742188 463.558594 
L 129.742188 261.958594 
" clip-path="url(#pad523d26e8)" style="fill: none; stroke: #ebebeb; stroke-width: 0.5; stroke-linecap: square"/>
     </g>
     <g id="line2d_52">
      <g>
       <use xlink:href="#m34bd98b9c5" x="129.742188" y="463.558594" style="stroke: #000000; stroke-width: 0.8"/>
      </g>
     </g>
     <g id="text_24">
      <!-- 0 -->
      <g transform="translate(126.560937 478.15625) scale(0.1 -0.1)">
       <use xlink:href="#DejaVuSans-13"/>
      </g>
     </g>
    </g>
    <g id="xtick_9">
     <g id="line2d_53">
      <path d="M 189.036305 463.558594 
L 189.036305 261.958594 
" clip-path="url(#pad523d26e8)" style="fill: none; stroke: #ebebeb; stroke-width: 0.5; stroke-linecap: square"/>
     </g>
     <g id="line2d_54">
      <g>
       <use xlink:href="#m34bd98b9c5" x="189.036305" y="463.558594" style="stroke: #000000; stroke-width: 0.8"/>
      </g>
     </g>
     <g id="text_25">
      <!-- 2 -->
      <g transform="translate(185.855055 478.15625) scale(0.1 -0.1)">
       <use xlink:href="#DejaVuSans-15"/>
      </g>
     </g>
    </g>
   </g>
   <g id="matplotlib.axis_6">
    <g id="ytick_15">
     <g id="line2d_55">
      <path d="M 28.942188 451.69977 
L 230.542188 451.69977 
" clip-path="url(#pad523d26e8)" style="fill: none; stroke: #ebebeb; stroke-width: 0.5; stroke-linecap: square"/>
     </g>
     <g id="line2d_56">
      <g>
       <use xlink:href="#m89796b1b26" x="28.942188" y="451.69977" style="stroke: #000000; stroke-width: 0.8"/>
      </g>
     </g>
     <g id="text_26">
      <!-- −3 -->
      <g transform="translate(7.2 455.498598) scale(0.1 -0.1)">
       <use xlink:href="#DejaVuSans-c9c"/>
       <use xlink:href="#DejaVuSans-16" transform="translate(83.796875 0)"/>
      </g>
     </g>
    </g>
    <g id="ytick_16">
     <g id="line2d_57">
      <path d="M 28.942188 422.052711 
L 230.542188 422.052711 
" clip-path="url(#pad523d26e8)" style="fill: none; stroke: #ebebeb; stroke-width: 0.5; stroke-linecap: square"/>
     </g>
     <g id="line2d_58">
      <g>
       <use xlink:href="#m89796b1b26" x="28.942188" y="422.052711" style="stroke: #000000; stroke-width: 0.8"/>
      </g>
     </g>
     <g id="text_27">
      <!-- −2 -->
      <g transform="translate(7.2 425.85154) scale(0.1 -0.1)">
       <use xlink:href="#DejaVuSans-c9c"/>
       <use xlink:href="#DejaVuSans-15" transform="translate(83.796875 0)"/>
      </g>
     </g>
    </g>
    <g id="ytick_17">
     <g id="line2d_59">
      <path d="M 28.942188 392.405653 
L 230.542188 392.405653 
" clip-path="url(#pad523d26e8)" style="fill: none; stroke: #ebebeb; stroke-width: 0.5; stroke-linecap: square"/>
     </g>
     <g id="line2d_60">
      <g>
       <use xlink:href="#m89796b1b26" x="28.942188" y="392.405653" style="stroke: #000000; stroke-width: 0.8"/>
      </g>
     </g>
     <g id="text_28">
      <!-- −1 -->
      <g transform="translate(7.2 396.204481) scale(0.1 -0.1)">
       <use xlink:href="#DejaVuSans-c9c"/>
       <use xlink:href="#DejaVuSans-14" transform="translate(83.796875 0)"/>
      </g>
     </g>
    </g>
    <g id="ytick_18">
     <g id="line2d_61">
      <path d="M 28.942188 362.758594 
L 230.542188 362.758594 
" clip-path="url(#pad523d26e8)" style="fill: none; stroke: #ebebeb; stroke-width: 0.5; stroke-linecap: square"/>
     </g>
     <g id="line2d_62">
      <g>
       <use xlink:href="#m89796b1b26" x="28.942188" y="362.758594" style="stroke: #000000; stroke-width: 0.8"/>
      </g>
     </g>
     <g id="text_29">
      <!-- 0 -->
      <g transform="translate(15.579688 366.557422) scale(0.1 -0.1)">
       <use xlink:href="#DejaVuSans-13"/>
      </g>
     </g>
    </g>
    <g id="ytick_19">
     <g id="line2d_63">
      <path d="M 28.942188 333.111535 
L 230.542188 333.111535 
" clip-path="url(#pad523d26e8)" style="fill: none; stroke: #ebebeb; stroke-width: 0.5; stroke-linecap: square"/>
     </g>
     <g id="line2d_64">
      <g>
       <use xlink:href="#m89796b1b26" x="28.942188" y="333.111535" style="stroke: #000000; stroke-width: 0.8"/>
      </g>
     </g>
     <g id="text_30">
      <!-- 1 -->
      <g transform="translate(15.579688 336.910363) scale(0.1 -0.1)">
       <use xlink:href="#DejaVuSans-14"/>
      </g>
     </g>
    </g>
    <g id="ytick_20">
     <g id="line2d_65">
      <path d="M 28.942188 303.464476 
L 230.542188 303.464476 
" clip-path="url(#pad523d26e8)" style="fill: none; stroke: #ebebeb; stroke-width: 0.5; stroke-linecap: square"/>
     </g>
     <g id="line2d_66">
      <g>
       <use xlink:href="#m89796b1b26" x="28.942188" y="303.464476" style="stroke: #000000; stroke-width: 0.8"/>
      </g>
     </g>
     <g id="text_31">
      <!-- 2 -->
      <g transform="translate(15.579688 307.263304) scale(0.1 -0.1)">
       <use xlink:href="#DejaVuSans-15"/>
      </g>
     </g>
    </g>
    <g id="ytick_21">
     <g id="line2d_67">
      <path d="M 28.942188 273.817417 
L 230.542188 273.817417 
" clip-path="url(#pad523d26e8)" style="fill: none; stroke: #ebebeb; stroke-width: 0.5; stroke-linecap: square"/>
     </g>
     <g id="line2d_68">
      <g>
       <use xlink:href="#m89796b1b26" x="28.942188" y="273.817417" style="stroke: #000000; stroke-width: 0.8"/>
      </g>
     </g>
     <g id="text_32">
      <!-- 3 -->
      <g transform="translate(15.579688 277.616245) scale(0.1 -0.1)">
       <use xlink:href="#DejaVuSans-16"/>
      </g>
     </g>
    </g>
   </g>
   <g id="line2d_69">
    <path d="M 159.389246 362.758594 
L 159.257012 359.961587 
L 158.861488 357.189532 
L 158.206202 354.467155 
L 157.297002 351.818744 
L 156.141996 349.267922 
L 154.751488 346.837445 
L 153.137883 344.548993 
L 151.315574 342.422982 
L 149.300818 340.478377 
L 147.111588 338.732524 
L 144.767413 337.200998 
L 142.289203 335.89746 
L 139.699067 334.83354 
L 137.02011 334.018727 
L 134.27623 333.460291 
L 131.491903 333.163212 
L 128.691968 333.130142 
L 125.901401 333.361375 
L 123.145096 333.854849 
L 120.447642 334.60616 
L 117.8331 335.608608 
L 115.324794 336.85325 
L 112.945099 338.328982 
L 110.715245 340.022641 
L 108.655122 341.919118 
L 106.783108 344.001495 
L 105.115902 346.251196 
L 103.668377 348.648153 
L 102.453446 351.170984 
L 101.481947 353.797183 
L 100.762545 356.503322 
L 100.301659 359.265263 
L 100.103399 362.058366 
L 100.169535 364.857715 
L 100.499476 367.638339 
L 101.090279 370.375433 
L 101.936674 373.04458 
L 103.03111 375.62197 
L 104.363825 378.084612 
L 105.92293 380.410536 
L 107.694516 382.578995 
L 109.662781 384.570644 
L 111.810165 386.367717 
L 114.117514 387.954182 
L 116.564244 389.315888 
L 119.128529 390.440688 
L 121.787494 391.318547 
L 124.517419 391.941635 
L 127.293953 392.304393 
L 130.092326 392.403585 
L 132.887576 392.238326 
L 135.654767 391.810091 
L 138.369214 391.1227 
L 141.006703 390.182284 
L 143.543706 388.997233 
L 145.957592 387.578118 
L 148.226826 385.937598 
L 150.331167 384.090308 
L 152.251842 382.052726 
L 153.971718 379.84303 
L 155.475452 377.48093 
L 156.749631 374.987498 
L 157.782887 372.384978 
L 158.566004 369.696585 
L 159.091995 366.9463 
L 159.356169 364.158659 
L 159.389246 362.758594 
L 159.389246 362.758594 
" clip-path="url(#pad523d26e8)" style="fill: none; stroke: #cccccc; stroke-linecap: square"/>
   </g>
   <g id="line2d_70">
    <path d="M 66.851278 383.72223 
L 62.099418 382.00838 
L 57.766689 380.175254 
L 54.620413 378.630483 
L 51.772097 377.02276 
L 49.233036 375.358459 
L 47.013303 373.644183 
L 45.121701 371.886731 
L 43.565732 370.093074 
L 42.351569 368.270326 
L 41.668206 366.888519 
L 41.181369 365.497497 
L 40.892147 364.100364 
L 40.801183 362.700236 
L 40.908682 361.300239 
L 41.214403 359.903495 
L 41.717664 358.513123 
L 42.417343 357.132224 
L 43.311877 355.763879 
L 44.804186 353.964222 
L 46.633389 352.199446 
L 48.79223 350.476551 
L 51.272146 348.802371 
L 54.063301 347.183546 
L 57.154625 345.626497 
L 60.533855 344.1374 
L 65.14224 342.380556 
L 70.150903 340.74998 
L 75.528809 339.255775 
L 81.242634 337.907199 
L 87.256976 336.712609 
L 93.534567 335.679407 
L 100.03651 334.813995 
L 106.722517 334.121734 
L 113.55116 333.606915 
L 120.480127 333.272727 
L 128.866835 333.112971 
L 137.261353 333.217671 
L 145.588795 333.585894 
L 152.423465 334.091748 
L 159.117596 334.775229 
L 165.629709 335.632103 
L 171.919454 336.657059 
L 177.947858 337.843747 
L 183.677567 339.184814 
L 189.073078 340.671951 
L 194.10096 342.295941 
L 198.730058 344.046724 
L 202.93169 345.913451 
L 205.96763 347.482561 
L 208.701235 349.11226 
L 211.121661 350.796086 
L 213.219307 352.52736 
L 214.985855 354.299214 
L 216.414298 356.104621 
L 217.260288 357.476391 
L 217.910991 358.859949 
L 218.364956 360.252205 
L 218.621168 361.650055 
L 218.679056 363.050378 
L 218.538492 364.45005 
L 218.199788 365.845947 
L 217.663701 367.234956 
L 216.931426 368.613976 
L 216.004599 369.97993 
L 214.469826 371.775615 
L 212.598995 373.535536 
L 210.399525 375.252711 
L 207.88014 376.920331 
L 205.050834 378.53178 
L 201.922827 380.080667 
L 198.508528 381.560849 
L 193.858788 383.305544 
L 188.811765 384.922924 
L 183.398732 386.402969 
L 177.653229 387.736506 
L 171.610856 388.915274 
L 165.309055 389.931969 
L 158.786872 390.78029 
L 152.08472 391.454982 
L 145.244129 391.951863 
L 138.307483 392.267855 
L 129.917261 392.405595 
L 121.525477 392.278867 
L 113.20699 391.8888 
L 106.384481 391.365024 
L 99.706702 390.663994 
L 93.21503 389.790056 
L 86.94969 388.748624 
L 80.949504 387.546151 
L 75.251649 386.190088 
L 69.891433 384.688837 
L 66.851278 383.72223 
L 66.851278 383.72223 
" clip-path="url(#pad523d26e8)" style="fill: none; stroke: #2471a3; stroke-width: 2; stroke-linecap: square"/>
   </g>
   <g id="line2d_71">
    <path d="M 28.942188 362.758594 
L 230.542188 362.758594 
" clip-path="url(#pad523d26e8)" style="fill: none; stroke: #b2b2b2; stroke-width: 0.5; stroke-linecap: square"/>
   </g>
   <g id="line2d_72">
    <path d="M 129.742188 463.558594 
L 129.742188 261.958594 
" clip-path="url(#pad523d26e8)" style="fill: none; stroke: #b2b2b2; stroke-width: 0.5; stroke-linecap: square"/>
   </g>
   <g id="patch_17">
    <path d="M 28.942188 463.558594 
L 28.942188 261.958594 
" style="fill: none; stroke: #000000; stroke-width: 0.8; stroke-linejoin: miter; stroke-linecap: square"/>
   </g>
   <g id="patch_18">
    <path d="M 230.542188 463.558594 
L 230.542188 261.958594 
" style="fill: none; stroke: #000000; stroke-width: 0.8; stroke-linejoin: miter; stroke-linecap: square"/>
   </g>
   <g id="patch_19">
    <path d="M 28.942187 463.558594 
L 230.542188 463.558594 
" style="fill: none; stroke: #000000; stroke-width: 0.8; stroke-linejoin: miter; stroke-linecap: square"/>
   </g>
   <g id="patch_20">
    <path d="M 28.942187 261.958594 
L 230.542188 261.958594 
" style="fill: none; stroke: #000000; stroke-width: 0.8; stroke-linejoin: miter; stroke-linecap: square"/>
   </g>
   <g id="patch_21">
    <path d="M 129.99517 363.51754 
Q 104.240375 372.102472 78.485581 380.687403 
L 79.497509 383.72319 
Q 73.174394 383.72271 66.851278 383.72223 
Q 71.909483 379.927977 76.967687 376.133724 
L 77.979616 379.16951 
Q 103.734411 370.584579 129.489205 361.999647 
L 129.99517 363.51754 
z
" style="fill: #c0392b; stroke: #c0392b; stroke-linecap: round"/>
   </g>
   <g id="patch_22">
    <path d="M 129.489205 363.51754 
Q 103.734411 354.932609 77.979616 346.347677 
L 76.967687 349.383464 
Q 71.909483 345.589211 66.851278 341.794957 
Q 73.174394 341.794477 79.497509 341.793998 
L 78.485581 344.829784 
Q 104.240375 353.414716 129.99517 361.999647 
L 129.489205 363.51754 
z
" style="fill: #27ae60; stroke: #27ae60; stroke-linecap: round"/>
   </g>
   <g id="text_33">
    <!-- step1+2: V^T rotate, then Sigma stretch -->
    <g transform="translate(37.197578 255.958594) scale(0.09 -0.09)">
     <defs>
      <path id="DejaVuSans-e" d="M 2944 4013 
L 2944 2272 
L 4684 2272 
L 4684 1741 
L 2944 1741 
L 2944 0 
L 2419 0 
L 2419 1741 
L 678 1741 
L 678 2272 
L 2419 2272 
L 2419 4013 
L 2944 4013 
z
" transform="scale(0.015625)"/>
      <path id="DejaVuSans-1d" d="M 750 794 
L 1409 794 
L 1409 0 
L 750 0 
L 750 794 
z
M 750 3309 
L 1409 3309 
L 1409 2516 
L 750 2516 
L 750 3309 
z
" transform="scale(0.015625)"/>
      <path id="DejaVuSans-39" d="M 1831 0 
L 50 4666 
L 709 4666 
L 2188 738 
L 3669 4666 
L 4325 4666 
L 2547 0 
L 1831 0 
z
" transform="scale(0.015625)"/>
      <path id="DejaVuSans-41" d="M 2988 4666 
L 4684 2925 
L 4056 2925 
L 2681 4159 
L 1306 2925 
L 678 2925 
L 2375 4666 
L 2988 4666 
z
" transform="scale(0.015625)"/>
      <path id="DejaVuSans-37" d="M -19 4666 
L 3928 4666 
L 3928 4134 
L 2272 4134 
L 2272 0 
L 1638 0 
L 1638 4134 
L -19 4134 
L -19 4666 
z
" transform="scale(0.015625)"/>
      <path id="DejaVuSans-4b" d="M 3513 2113 
L 3513 0 
L 2938 0 
L 2938 2094 
Q 2938 2591 2744 2837 
Q 2550 3084 2163 3084 
Q 1697 3084 1428 2787 
Q 1159 2491 1159 1978 
L 1159 0 
L 581 0 
L 581 4863 
L 1159 4863 
L 1159 2956 
Q 1366 3272 1645 3428 
Q 1925 3584 2291 3584 
Q 2894 3584 3203 3211 
Q 3513 2838 3513 2113 
z
" transform="scale(0.015625)"/>
      <path id="DejaVuSans-4a" d="M 2906 1791 
Q 2906 2416 2648 2759 
Q 2391 3103 1925 3103 
Q 1463 3103 1205 2759 
Q 947 2416 947 1791 
Q 947 1169 1205 825 
Q 1463 481 1925 481 
Q 2391 481 2648 825 
Q 2906 1169 2906 1791 
z
M 3481 434 
Q 3481 -459 3084 -895 
Q 2688 -1331 1869 -1331 
Q 1566 -1331 1297 -1286 
Q 1028 -1241 775 -1147 
L 775 -588 
Q 1028 -725 1275 -790 
Q 1522 -856 1778 -856 
Q 2344 -856 2625 -561 
Q 2906 -266 2906 331 
L 2906 616 
Q 2728 306 2450 153 
Q 2172 0 1784 0 
Q 1141 0 747 490 
Q 353 981 353 1791 
Q 353 2603 747 3093 
Q 1141 3584 1784 3584 
Q 2172 3584 2450 3431 
Q 2728 3278 2906 2969 
L 2906 3500 
L 3481 3500 
L 3481 434 
z
" transform="scale(0.015625)"/>
     </defs>
     <use xlink:href="#DejaVuSans-56"/>
     <use xlink:href="#DejaVuSans-57" transform="translate(52.09375 0)"/>
     <use xlink:href="#DejaVuSans-48" transform="translate(91.296875 0)"/>
     <use xlink:href="#DejaVuSans-53" transform="translate(152.828125 0)"/>
     <use xlink:href="#DejaVuSans-14" transform="translate(216.3125 0)"/>
     <use xlink:href="#DejaVuSans-e" transform="translate(279.9375 0)"/>
     <use xlink:href="#DejaVuSans-15" transform="translate(363.734375 0)"/>
     <use xlink:href="#DejaVuSans-1d" transform="translate(427.359375 0)"/>
     <use xlink:href="#DejaVuSans-3" transform="translate(461.046875 0)"/>
     <use xlink:href="#DejaVuSans-39" transform="translate(492.828125 0)"/>
     <use xlink:href="#DejaVuSans-41" transform="translate(561.234375 0)"/>
     <use xlink:href="#DejaVuSans-37" transform="translate(645.03125 0)"/>
     <use xlink:href="#DejaVuSans-3" transform="translate(706.109375 0)"/>
     <use xlink:href="#DejaVuSans-55" transform="translate(737.890625 0)"/>
     <use xlink:href="#DejaVuSans-52" transform="translate(776.796875 0)"/>
     <use xlink:href="#DejaVuSans-57" transform="translate(837.984375 0)"/>
     <use xlink:href="#DejaVuSans-44" transform="translate(877.1875 0)"/>
     <use xlink:href="#DejaVuSans-57" transform="translate(938.46875 0)"/>
     <use xlink:href="#DejaVuSans-48" transform="translate(977.671875 0)"/>
     <use xlink:href="#DejaVuSans-f" transform="translate(1039.203125 0)"/>
     <use xlink:href="#DejaVuSans-3" transform="translate(1070.984375 0)"/>
     <use xlink:href="#DejaVuSans-57" transform="translate(1102.765625 0)"/>
     <use xlink:href="#DejaVuSans-4b" transform="translate(1141.96875 0)"/>
     <use xlink:href="#DejaVuSans-48" transform="translate(1205.34375 0)"/>
     <use xlink:href="#DejaVuSans-51" transform="translate(1266.875 0)"/>
     <use xlink:href="#DejaVuSans-3" transform="translate(1330.25 0)"/>
     <use xlink:href="#DejaVuSans-36" transform="translate(1362.03125 0)"/>
     <use xlink:href="#DejaVuSans-4c" transform="translate(1425.515625 0)"/>
     <use xlink:href="#DejaVuSans-4a" transform="translate(1453.296875 0)"/>
     <use xlink:href="#DejaVuSans-50" transform="translate(1516.78125 0)"/>
     <use xlink:href="#DejaVuSans-44" transform="translate(1614.1875 0)"/>
     <use xlink:href="#DejaVuSans-3" transform="translate(1675.46875 0)"/>
     <use xlink:href="#DejaVuSans-56" transform="translate(1707.25 0)"/>
     <use xlink:href="#DejaVuSans-57" transform="translate(1759.34375 0)"/>
     <use xlink:href="#DejaVuSans-55" transform="translate(1798.546875 0)"/>
     <use xlink:href="#DejaVuSans-48" transform="translate(1837.453125 0)"/>
     <use xlink:href="#DejaVuSans-57" transform="translate(1898.984375 0)"/>
     <use xlink:href="#DejaVuSans-46" transform="translate(1938.1875 0)"/>
     <use xlink:href="#DejaVuSans-4b" transform="translate(1993.171875 0)"/>
    </g>
   </g>
  </g>
  <g id="axes_4">
   <g id="patch_23">
    <path d="M 272.433097 463.558594 
L 474.033097 463.558594 
L 474.033097 261.958594 
L 272.433097 261.958594 
z
" style="fill: #ffffff"/>
   </g>
   <g id="matplotlib.axis_7">
    <g id="xtick_10">
     <g id="line2d_73">
      <path d="M 313.938979 463.558594 
L 313.938979 261.958594 
" clip-path="url(#p01971f435a)" style="fill: none; stroke: #ebebeb; stroke-width: 0.5; stroke-linecap: square"/>
     </g>
     <g id="line2d_74">
      <g>
       <use xlink:href="#m34bd98b9c5" x="313.938979" y="463.558594" style="stroke: #000000; stroke-width: 0.8"/>
      </g>
     </g>
     <g id="text_34">
      <!-- −2 -->
      <g transform="translate(306.567885 478.15625) scale(0.1 -0.1)">
       <use xlink:href="#DejaVuSans-c9c"/>
       <use xlink:href="#DejaVuSans-15" transform="translate(83.796875 0)"/>
      </g>
     </g>
    </g>
    <g id="xtick_11">
     <g id="line2d_75">
      <path d="M 373.233097 463.558594 
L 373.233097 261.958594 
" clip-path="url(#p01971f435a)" style="fill: none; stroke: #ebebeb; stroke-width: 0.5; stroke-linecap: square"/>
     </g>
     <g id="line2d_76">
      <g>
       <use xlink:href="#m34bd98b9c5" x="373.233097" y="463.558594" style="stroke: #000000; stroke-width: 0.8"/>
      </g>
     </g>
     <g id="text_35">
      <!-- 0 -->
      <g transform="translate(370.051847 478.15625) scale(0.1 -0.1)">
       <use xlink:href="#DejaVuSans-13"/>
      </g>
     </g>
    </g>
    <g id="xtick_12">
     <g id="line2d_77">
      <path d="M 432.527214 463.558594 
L 432.527214 261.958594 
" clip-path="url(#p01971f435a)" style="fill: none; stroke: #ebebeb; stroke-width: 0.5; stroke-linecap: square"/>
     </g>
     <g id="line2d_78">
      <g>
       <use xlink:href="#m34bd98b9c5" x="432.527214" y="463.558594" style="stroke: #000000; stroke-width: 0.8"/>
      </g>
     </g>
     <g id="text_36">
      <!-- 2 -->
      <g transform="translate(429.345964 478.15625) scale(0.1 -0.1)">
       <use xlink:href="#DejaVuSans-15"/>
      </g>
     </g>
    </g>
   </g>
   <g id="matplotlib.axis_8">
    <g id="ytick_22">
     <g id="line2d_79">
      <path d="M 272.433097 451.69977 
L 474.033097 451.69977 
" clip-path="url(#p01971f435a)" style="fill: none; stroke: #ebebeb; stroke-width: 0.5; stroke-linecap: square"/>
     </g>
     <g id="line2d_80">
      <g>
       <use xlink:href="#m89796b1b26" x="272.433097" y="451.69977" style="stroke: #000000; stroke-width: 0.8"/>
      </g>
     </g>
     <g id="text_37">
      <!-- −3 -->
      <g transform="translate(250.690909 455.498598) scale(0.1 -0.1)">
       <use xlink:href="#DejaVuSans-c9c"/>
       <use xlink:href="#DejaVuSans-16" transform="translate(83.796875 0)"/>
      </g>
     </g>
    </g>
    <g id="ytick_23">
     <g id="line2d_81">
      <path d="M 272.433097 422.052711 
L 474.033097 422.052711 
" clip-path="url(#p01971f435a)" style="fill: none; stroke: #ebebeb; stroke-width: 0.5; stroke-linecap: square"/>
     </g>
     <g id="line2d_82">
      <g>
       <use xlink:href="#m89796b1b26" x="272.433097" y="422.052711" style="stroke: #000000; stroke-width: 0.8"/>
      </g>
     </g>
     <g id="text_38">
      <!-- −2 -->
      <g transform="translate(250.690909 425.85154) scale(0.1 -0.1)">
       <use xlink:href="#DejaVuSans-c9c"/>
       <use xlink:href="#DejaVuSans-15" transform="translate(83.796875 0)"/>
      </g>
     </g>
    </g>
    <g id="ytick_24">
     <g id="line2d_83">
      <path d="M 272.433097 392.405653 
L 474.033097 392.405653 
" clip-path="url(#p01971f435a)" style="fill: none; stroke: #ebebeb; stroke-width: 0.5; stroke-linecap: square"/>
     </g>
     <g id="line2d_84">
      <g>
       <use xlink:href="#m89796b1b26" x="272.433097" y="392.405653" style="stroke: #000000; stroke-width: 0.8"/>
      </g>
     </g>
     <g id="text_39">
      <!-- −1 -->
      <g transform="translate(250.690909 396.204481) scale(0.1 -0.1)">
       <use xlink:href="#DejaVuSans-c9c"/>
       <use xlink:href="#DejaVuSans-14" transform="translate(83.796875 0)"/>
      </g>
     </g>
    </g>
    <g id="ytick_25">
     <g id="line2d_85">
      <path d="M 272.433097 362.758594 
L 474.033097 362.758594 
" clip-path="url(#p01971f435a)" style="fill: none; stroke: #ebebeb; stroke-width: 0.5; stroke-linecap: square"/>
     </g>
     <g id="line2d_86">
      <g>
       <use xlink:href="#m89796b1b26" x="272.433097" y="362.758594" style="stroke: #000000; stroke-width: 0.8"/>
      </g>
     </g>
     <g id="text_40">
      <!-- 0 -->
      <g transform="translate(259.070597 366.557422) scale(0.1 -0.1)">
       <use xlink:href="#DejaVuSans-13"/>
      </g>
     </g>
    </g>
    <g id="ytick_26">
     <g id="line2d_87">
      <path d="M 272.433097 333.111535 
L 474.033097 333.111535 
" clip-path="url(#p01971f435a)" style="fill: none; stroke: #ebebeb; stroke-width: 0.5; stroke-linecap: square"/>
     </g>
     <g id="line2d_88">
      <g>
       <use xlink:href="#m89796b1b26" x="272.433097" y="333.111535" style="stroke: #000000; stroke-width: 0.8"/>
      </g>
     </g>
     <g id="text_41">
      <!-- 1 -->
      <g transform="translate(259.070597 336.910363) scale(0.1 -0.1)">
       <use xlink:href="#DejaVuSans-14"/>
      </g>
     </g>
    </g>
    <g id="ytick_27">
     <g id="line2d_89">
      <path d="M 272.433097 303.464476 
L 474.033097 303.464476 
" clip-path="url(#p01971f435a)" style="fill: none; stroke: #ebebeb; stroke-width: 0.5; stroke-linecap: square"/>
     </g>
     <g id="line2d_90">
      <g>
       <use xlink:href="#m89796b1b26" x="272.433097" y="303.464476" style="stroke: #000000; stroke-width: 0.8"/>
      </g>
     </g>
     <g id="text_42">
      <!-- 2 -->
      <g transform="translate(259.070597 307.263304) scale(0.1 -0.1)">
       <use xlink:href="#DejaVuSans-15"/>
      </g>
     </g>
    </g>
    <g id="ytick_28">
     <g id="line2d_91">
      <path d="M 272.433097 273.817417 
L 474.033097 273.817417 
" clip-path="url(#p01971f435a)" style="fill: none; stroke: #ebebeb; stroke-width: 0.5; stroke-linecap: square"/>
     </g>
     <g id="line2d_92">
      <g>
       <use xlink:href="#m89796b1b26" x="272.433097" y="273.817417" style="stroke: #000000; stroke-width: 0.8"/>
      </g>
     </g>
     <g id="text_43">
      <!-- 3 -->
      <g transform="translate(259.070597 277.616245) scale(0.1 -0.1)">
       <use xlink:href="#DejaVuSans-16"/>
      </g>
     </g>
    </g>
   </g>
   <g id="line2d_93">
    <path d="M 402.880155 362.758594 
L 402.747921 359.961587 
L 402.352397 357.189532 
L 401.697112 354.467155 
L 400.787911 351.818744 
L 399.632905 349.267922 
L 398.242397 346.837445 
L 396.628792 344.548993 
L 394.806483 342.422982 
L 392.791727 340.478377 
L 390.602497 338.732524 
L 388.258322 337.200998 
L 385.780112 335.89746 
L 383.189976 334.83354 
L 380.511019 334.018727 
L 377.767139 333.460291 
L 374.982812 333.163212 
L 372.182877 333.130142 
L 369.39231 333.361375 
L 366.636005 333.854849 
L 363.938551 334.60616 
L 361.324009 335.608608 
L 358.815703 336.85325 
L 356.436008 338.328982 
L 354.206154 340.022641 
L 352.146031 341.919118 
L 350.274017 344.001495 
L 348.606811 346.251196 
L 347.159287 348.648153 
L 345.944355 351.170984 
L 344.972856 353.797183 
L 344.253454 356.503322 
L 343.792568 359.265263 
L 343.594308 362.058366 
L 343.660444 364.857715 
L 343.990385 367.638339 
L 344.581188 370.375433 
L 345.427583 373.04458 
L 346.52202 375.62197 
L 347.854734 378.084612 
L 349.413839 380.410536 
L 351.185425 382.578995 
L 353.15369 384.570644 
L 355.301075 386.367717 
L 357.608423 387.954182 
L 360.055153 389.315888 
L 362.619438 390.440688 
L 365.278403 391.318547 
L 368.008328 391.941635 
L 370.784862 392.304393 
L 373.583235 392.403585 
L 376.378485 392.238326 
L 379.145676 391.810091 
L 381.860123 391.1227 
L 384.497612 390.182284 
L 387.034615 388.997233 
L 389.448501 387.578118 
L 391.717735 385.937598 
L 393.822076 384.090308 
L 395.742751 382.052726 
L 397.462627 379.84303 
L 398.966361 377.48093 
L 400.24054 374.987498 
L 401.273796 372.384978 
L 402.056913 369.696585 
L 402.582904 366.9463 
L 402.847078 364.158659 
L 402.880155 362.758594 
L 402.880155 362.758594 
" clip-path="url(#p01971f435a)" style="fill: none; stroke: #cccccc; stroke-linecap: square"/>
   </g>
   <g id="line2d_94">
    <path d="M 432.527214 333.111535 
L 434.675413 328.539587 
L 436.442898 324.179669 
L 437.575333 320.862599 
L 438.452565 317.711702 
L 439.071114 314.739477 
L 439.428526 311.957713 
L 439.523385 309.377442 
L 439.355313 307.008899 
L 438.924979 304.861478 
L 438.431105 303.401182 
L 437.791749 302.073336 
L 437.008338 300.880902 
L 436.082619 299.826541 
L 435.016658 298.912607 
L 433.812834 298.141138 
L 432.473832 297.513855 
L 431.002642 297.032159 
L 429.402545 296.697125 
L 427.074773 296.479797 
L 424.533446 296.525354 
L 421.788645 296.833614 
L 418.851255 297.403355 
L 415.732929 298.232318 
L 412.446033 299.317214 
L 409.003605 300.653741 
L 404.502709 302.670084 
L 399.808058 305.058752 
L 394.948742 307.804943 
L 389.95487 310.891641 
L 384.857385 314.299721 
L 379.687874 318.008064 
L 374.478367 321.993692 
L 369.261144 326.231911 
L 364.068532 330.696458 
L 358.932706 335.359671 
L 352.889443 341.177005 
L 347.027657 347.18686 
L 341.399639 353.335623 
L 336.92449 358.526158 
L 332.674319 363.742917 
L 328.675461 368.953578 
L 324.952693 374.125853 
L 321.529083 379.227693 
L 318.425845 384.227487 
L 315.662206 389.094254 
L 313.255292 393.797838 
L 311.220015 398.309095 
L 309.568988 402.600072 
L 308.531782 405.856335 
L 307.751204 408.941657 
L 307.230349 411.843801 
L 306.971284 414.551257 
L 306.975036 417.053285 
L 307.24159 419.339961 
L 307.613373 420.908155 
L 308.131579 422.346594 
L 308.795052 423.65207 
L 309.602311 424.821668 
L 310.551556 425.852779 
L 311.640668 426.743103 
L 312.867216 427.490652 
L 314.228464 428.093758 
L 315.721375 428.551076 
L 317.342617 428.861586 
L 319.697606 429.046079 
L 322.264935 428.967653 
L 325.034422 428.626619 
L 327.995081 428.02433 
L 331.135169 427.163175 
L 334.442232 426.046569 
L 337.903153 424.678942 
L 342.424701 422.624764 
L 347.137146 420.199641 
L 352.011288 417.418598 
L 357.016926 414.298867 
L 362.123043 410.859779 
L 367.298001 407.122644 
L 372.509735 403.110618 
L 377.725951 398.848561 
L 382.914328 394.36288 
L 388.042717 389.681371 
L 394.072897 383.845985 
L 399.917174 377.822487 
L 405.523413 371.66461 
L 409.97729 366.470001 
L 414.20349 361.252396 
L 418.175828 356.044123 
L 421.869688 350.877455 
L 425.262184 345.784406 
L 428.332294 340.796533 
L 431.060995 335.944743 
L 432.527214 333.111535 
L 432.527214 333.111535 
" clip-path="url(#p01971f435a)" style="fill: none; stroke: #2471a3; stroke-width: 2; stroke-linecap: square"/>
   </g>
   <g id="line2d_95">
    <path d="M 272.433097 362.758594 
L 474.033097 362.758594 
" clip-path="url(#p01971f435a)" style="fill: none; stroke: #b2b2b2; stroke-width: 0.5; stroke-linecap: square"/>
   </g>
   <g id="line2d_96">
    <path d="M 373.233097 463.558594 
L 373.233097 261.958594 
" clip-path="url(#p01971f435a)" style="fill: none; stroke: #b2b2b2; stroke-width: 0.5; stroke-linecap: square"/>
   </g>
   <g id="patch_24">
    <path d="M 272.433097 463.558594 
L 272.433097 261.958594 
" style="fill: none; stroke: #000000; stroke-width: 0.8; stroke-linejoin: miter; stroke-linecap: square"/>
   </g>
   <g id="patch_25">
    <path d="M 474.033097 463.558594 
L 474.033097 261.958594 
" style="fill: none; stroke: #000000; stroke-width: 0.8; stroke-linejoin: miter; stroke-linecap: square"/>
   </g>
   <g id="patch_26">
    <path d="M 272.433097 463.558594 
L 474.033097 463.558594 
" style="fill: none; stroke: #000000; stroke-width: 0.8; stroke-linejoin: miter; stroke-linecap: square"/>
   </g>
   <g id="patch_27">
    <path d="M 272.433097 261.958594 
L 474.033097 261.958594 
" style="fill: none; stroke: #000000; stroke-width: 0.8; stroke-linejoin: miter; stroke-linecap: square"/>
   </g>
   <g id="patch_28">
    <path d="M 372.875326 362.043052 
Q 397.157179 349.902125 421.439032 337.761199 
L 420.007949 334.899032 
Q 426.267581 334.005283 432.527214 333.111535 
Q 428.056436 337.582992 423.585657 342.054449 
L 422.154574 339.192282 
Q 397.872721 351.333209 373.590867 363.474136 
L 372.875326 362.043052 
z
" style="fill: #c0392b; stroke: #c0392b; stroke-linecap: round"/>
   </g>
   <g id="patch_29">
    <path d="M 372.517555 362.400823 
Q 384.658481 338.11897 396.799408 313.837117 
L 393.937241 312.406033 
Q 398.408698 307.935255 402.880155 303.464476 
Q 401.986407 309.724109 401.092659 315.983742 
L 398.230492 314.552658 
Q 386.089565 338.834511 373.948638 363.116365 
L 372.517555 362.400823 
z
" style="fill: #27ae60; stroke: #27ae60; stroke-linecap: round"/>
   </g>
   <g id="text_44">
    <!-- step3: U rotate -&gt; same ellipse -->
    <g transform="translate(302.978956 255.958594) scale(0.09 -0.09)">
     <defs>
      <path id="DejaVuSans-38" d="M 556 4666 
L 1191 4666 
L 1191 1831 
Q 1191 1081 1462 751 
Q 1734 422 2344 422 
Q 2950 422 3222 751 
Q 3494 1081 3494 1831 
L 3494 4666 
L 4128 4666 
L 4128 1753 
Q 4128 841 3676 375 
Q 3225 -91 2344 -91 
Q 1459 -91 1007 375 
Q 556 841 556 1753 
L 556 4666 
z
" transform="scale(0.015625)"/>
     </defs>
     <use xlink:href="#DejaVuSans-56"/>
     <use xlink:href="#DejaVuSans-57" transform="translate(52.09375 0)"/>
     <use xlink:href="#DejaVuSans-48" transform="translate(91.296875 0)"/>
     <use xlink:href="#DejaVuSans-53" transform="translate(152.828125 0)"/>
     <use xlink:href="#DejaVuSans-16" transform="translate(216.3125 0)"/>
     <use xlink:href="#DejaVuSans-1d" transform="translate(279.9375 0)"/>
     <use xlink:href="#DejaVuSans-3" transform="translate(313.625 0)"/>
     <use xlink:href="#DejaVuSans-38" transform="translate(345.40625 0)"/>
     <use xlink:href="#DejaVuSans-3" transform="translate(418.59375 0)"/>
     <use xlink:href="#DejaVuSans-55" transform="translate(450.375 0)"/>
     <use xlink:href="#DejaVuSans-52" transform="translate(489.28125 0)"/>
     <use xlink:href="#DejaVuSans-57" transform="translate(550.46875 0)"/>
     <use xlink:href="#DejaVuSans-44" transform="translate(589.671875 0)"/>
     <use xlink:href="#DejaVuSans-57" transform="translate(650.953125 0)"/>
     <use xlink:href="#DejaVuSans-48" transform="translate(690.15625 0)"/>
     <use xlink:href="#DejaVuSans-3" transform="translate(751.6875 0)"/>
     <use xlink:href="#DejaVuSans-10" transform="translate(783.46875 0)"/>
     <use xlink:href="#DejaVuSans-21" transform="translate(819.546875 0)"/>
     <use xlink:href="#DejaVuSans-3" transform="translate(903.34375 0)"/>
     <use xlink:href="#DejaVuSans-56" transform="translate(935.125 0)"/>
     <use xlink:href="#DejaVuSans-44" transform="translate(987.21875 0)"/>
     <use xlink:href="#DejaVuSans-50" transform="translate(1048.5 0)"/>
     <use xlink:href="#DejaVuSans-48" transform="translate(1145.90625 0)"/>
     <use xlink:href="#DejaVuSans-3" transform="translate(1207.4375 0)"/>
     <use xlink:href="#DejaVuSans-48" transform="translate(1239.21875 0)"/>
     <use xlink:href="#DejaVuSans-4f" transform="translate(1300.75 0)"/>
     <use xlink:href="#DejaVuSans-4f" transform="translate(1328.53125 0)"/>
     <use xlink:href="#DejaVuSans-4c" transform="translate(1356.3125 0)"/>
     <use xlink:href="#DejaVuSans-53" transform="translate(1384.09375 0)"/>
     <use xlink:href="#DejaVuSans-56" transform="translate(1447.578125 0)"/>
     <use xlink:href="#DejaVuSans-48" transform="translate(1499.671875 0)"/>
    </g>
   </g>
  </g>
 </g>
 <defs>
  <clipPath id="p59a90a4f95">
   <rect x="28.942188" y="20.038594" width="201.6" height="201.6"/>
  </clipPath>
  <clipPath id="p2ebc5f6b6a">
   <rect x="272.433097" y="20.038594" width="201.6" height="201.6"/>
  </clipPath>
  <clipPath id="pad523d26e8">
   <rect x="28.942188" y="261.958594" width="201.6" height="201.6"/>
  </clipPath>
  <clipPath id="p01971f435a">
   <rect x="272.433097" y="261.958594" width="201.6" height="201.6"/>
  </clipPath>
 </defs>
</svg>
