<?xml version="1.0" encoding="utf-8" standalone="no"?>
<!DOCTYPE svg PUBLIC "-//W3C//DTD SVG 1.1//EN"
  "http://www.w3.org/Graphics/SVG/1.1/DTD/svg11.dtd">
<svg xmlns:xlink="http://www.w3.org/1999/xlink" width="511.263125pt" height="237.600859pt" viewBox="0 0 511.263125 237.600859" xmlns="http://www.w3.org/2000/svg" version="1.1">
 <metadata>
  <rdf:RDF xmlns:dc="http://purl.org/dc/elements/1.1/" xmlns:cc="http://creativecommons.org/ns#" xmlns:rdf="http://www.w3.org/1999/02/22-rdf-syntax-ns#">
   <cc:Work>
    <dc:type rdf:resource="http://purl.org/dc/dcmitype/StillImage"/>
    <dc:date>2026-06-20T15:04:15.862530</dc:date>
    <dc:format>image/svg+xml</dc:format>
    <dc:creator>
     <cc:Agent>
      <dc:title>Matplotlib v3.11.0, https://matplotlib.org/</dc:title>
     </cc:Agent>
    </dc:creator>
   </cc:Work>
  </rdf:RDF>
 </metadata>
 <defs>
  <style type="text/css">*{stroke-linejoin: round; stroke-linecap: butt}</style>
 </defs>
 <g id="figure_1">
  <g id="patch_1">
   <path d="M 0 237.600859 
L 511.263125 237.600859 
L 511.263125 0 
L 0 0 
z
" style="fill: #fdfcf9"/>
  </g>
  <g id="axes_1">
   <g id="patch_2">
    <path d="M 44.103125 199.400859 
L 504.063125 199.400859 
L 504.063125 21.558281 
L 44.103125 21.558281 
z
" style="fill: #fdfcf9"/>
   </g>
   <g id="patch_3">
    <path d="M 65.010398 199.400859 
L 148.639489 199.400859 
L 148.639489 21.558281 
L 65.010398 21.558281 
z
" clip-path="url(#p57c894a1c8)" style="opacity: 0.05; stroke: #000000; stroke-linejoin: miter"/>
   </g>
   <g id="matplotlib.axis_1">
    <g id="xtick_1">
     <g id="line2d_1">
      <defs>
       <path id="m2464dd4c55" d="M 0 0 
L 0 3.5 
" style="stroke: #1a1a1a; stroke-width: 0.8"/>
      </defs>
      <g>
       <use xlink:href="#m2464dd4c55" x="65.010398" y="199.400859" style="fill: #1a1a1a; stroke: #1a1a1a; stroke-width: 0.8"/>
      </g>
     </g>
     <g id="text_1">
      <!-- 0 -->
      <g style="fill: #1a1a1a" transform="translate(61.829148 213.998516) scale(0.1 -0.1)">
       <defs>
        <path id="DejaVuSans-13" d="M 2034 4250 
Q 1547 4250 1301 3770 
Q 1056 3291 1056 2328 
Q 1056 1369 1301 889 
Q 1547 409 2034 409 
Q 2525 409 2770 889 
Q 3016 1369 3016 2328 
Q 3016 3291 2770 3770 
Q 2525 4250 2034 4250 
z
M 2034 4750 
Q 2819 4750 3233 4129 
Q 3647 3509 3647 2328 
Q 3647 1150 3233 529 
Q 2819 -91 2034 -91 
Q 1250 -91 836 529 
Q 422 1150 422 2328 
Q 422 3509 836 4129 
Q 1250 4750 2034 4750 
z
" transform="scale(0.015625)"/>
       </defs>
       <use xlink:href="#DejaVuSans-13"/>
      </g>
     </g>
    </g>
    <g id="xtick_2">
     <g id="line2d_2">
      <g>
       <use xlink:href="#m2464dd4c55" x="157.93161" y="199.400859" style="fill: #1a1a1a; stroke: #1a1a1a; stroke-width: 0.8"/>
      </g>
     </g>
     <g id="text_2">
      <!-- 10 -->
      <g style="fill: #1a1a1a" transform="translate(151.56911 213.998516) scale(0.1 -0.1)">
       <defs>
        <path id="DejaVuSans-14" d="M 794 531 
L 1825 531 
L 1825 4091 
L 703 3866 
L 703 4441 
L 1819 4666 
L 2450 4666 
L 2450 531 
L 3481 531 
L 3481 0 
L 794 0 
L 794 531 
z
" transform="scale(0.015625)"/>
       </defs>
       <use xlink:href="#DejaVuSans-14"/>
       <use xlink:href="#DejaVuSans-13" transform="translate(63.625 0)"/>
      </g>
     </g>
    </g>
    <g id="xtick_3">
     <g id="line2d_3">
      <g>
       <use xlink:href="#m2464dd4c55" x="250.852822" y="199.400859" style="fill: #1a1a1a; stroke: #1a1a1a; stroke-width: 0.8"/>
      </g>
     </g>
     <g id="text_3">
      <!-- 20 -->
      <g style="fill: #1a1a1a" transform="translate(244.490322 213.998516) scale(0.1 -0.1)">
       <defs>
        <path id="DejaVuSans-15" d="M 1228 531 
L 3431 531 
L 3431 0 
L 469 0 
L 469 531 
Q 828 903 1448 1529 
Q 2069 2156 2228 2338 
Q 2531 2678 2651 2914 
Q 2772 3150 2772 3378 
Q 2772 3750 2511 3984 
Q 2250 4219 1831 4219 
Q 1534 4219 1204 4116 
Q 875 4013 500 3803 
L 500 4441 
Q 881 4594 1212 4672 
Q 1544 4750 1819 4750 
Q 2544 4750 2975 4387 
Q 3406 4025 3406 3419 
Q 3406 3131 3298 2873 
Q 3191 2616 2906 2266 
Q 2828 2175 2409 1742 
Q 1991 1309 1228 531 
z
" transform="scale(0.015625)"/>
       </defs>
       <use xlink:href="#DejaVuSans-15"/>
       <use xlink:href="#DejaVuSans-13" transform="translate(63.625 0)"/>
      </g>
     </g>
    </g>
    <g id="xtick_4">
     <g id="line2d_4">
      <g>
       <use xlink:href="#m2464dd4c55" x="343.774034" y="199.400859" style="fill: #1a1a1a; stroke: #1a1a1a; stroke-width: 0.8"/>
      </g>
     </g>
     <g id="text_4">
      <!-- 30 -->
      <g style="fill: #1a1a1a" transform="translate(337.411534 213.998516) scale(0.1 -0.1)">
       <defs>
        <path id="DejaVuSans-16" d="M 2597 2516 
Q 3050 2419 3304 2112 
Q 3559 1806 3559 1356 
Q 3559 666 3084 287 
Q 2609 -91 1734 -91 
Q 1441 -91 1130 -33 
Q 819 25 488 141 
L 488 750 
Q 750 597 1062 519 
Q 1375 441 1716 441 
Q 2309 441 2620 675 
Q 2931 909 2931 1356 
Q 2931 1769 2642 2001 
Q 2353 2234 1838 2234 
L 1294 2234 
L 1294 2753 
L 1863 2753 
Q 2328 2753 2575 2939 
Q 2822 3125 2822 3475 
Q 2822 3834 2567 4026 
Q 2313 4219 1838 4219 
Q 1578 4219 1281 4162 
Q 984 4106 628 3988 
L 628 4550 
Q 988 4650 1302 4700 
Q 1616 4750 1894 4750 
Q 2613 4750 3031 4423 
Q 3450 4097 3450 3541 
Q 3450 3153 3228 2886 
Q 3006 2619 2597 2516 
z
" transform="scale(0.015625)"/>
       </defs>
       <use xlink:href="#DejaVuSans-16"/>
       <use xlink:href="#DejaVuSans-13" transform="translate(63.625 0)"/>
      </g>
     </g>
    </g>
    <g id="xtick_5">
     <g id="line2d_5">
      <g>
       <use xlink:href="#m2464dd4c55" x="436.695246" y="199.400859" style="fill: #1a1a1a; stroke: #1a1a1a; stroke-width: 0.8"/>
      </g>
     </g>
     <g id="text_5">
      <!-- 40 -->
      <g style="fill: #1a1a1a" transform="translate(430.332746 213.998516) scale(0.1 -0.1)">
       <defs>
        <path id="DejaVuSans-17" d="M 2419 4116 
L 825 1625 
L 2419 1625 
L 2419 4116 
z
M 2253 4666 
L 3047 4666 
L 3047 1625 
L 3713 1625 
L 3713 1100 
L 3047 1100 
L 3047 0 
L 2419 0 
L 2419 1100 
L 313 1100 
L 313 1709 
L 2253 4666 
z
" transform="scale(0.015625)"/>
       </defs>
       <use xlink:href="#DejaVuSans-17"/>
       <use xlink:href="#DejaVuSans-13" transform="translate(63.625 0)"/>
      </g>
     </g>
    </g>
    <g id="text_6">
     <!-- step n -->
     <g style="fill: #1a1a1a" transform="translate(258.509687 227.998516) scale(0.1 -0.1)">
      <defs>
       <path id="DejaVuSans-56" d="M 2834 3397 
L 2834 2853 
Q 2591 2978 2328 3040 
Q 2066 3103 1784 3103 
Q 1356 3103 1142 2972 
Q 928 2841 928 2578 
Q 928 2378 1081 2264 
Q 1234 2150 1697 2047 
L 1894 2003 
Q 2506 1872 2764 1633 
Q 3022 1394 3022 966 
Q 3022 478 2636 193 
Q 2250 -91 1575 -91 
Q 1294 -91 989 -36 
Q 684 19 347 128 
L 347 722 
Q 666 556 975 473 
Q 1284 391 1588 391 
Q 1994 391 2212 530 
Q 2431 669 2431 922 
Q 2431 1156 2273 1281 
Q 2116 1406 1581 1522 
L 1381 1569 
Q 847 1681 609 1914 
Q 372 2147 372 2553 
Q 372 3047 722 3315 
Q 1072 3584 1716 3584 
Q 2034 3584 2315 3537 
Q 2597 3491 2834 3397 
z
" transform="scale(0.015625)"/>
       <path id="DejaVuSans-57" d="M 1172 4494 
L 1172 3500 
L 2356 3500 
L 2356 3053 
L 1172 3053 
L 1172 1153 
Q 1172 725 1289 603 
Q 1406 481 1766 481 
L 2356 481 
L 2356 0 
L 1766 0 
Q 1100 0 847 248 
Q 594 497 594 1153 
L 594 3053 
L 172 3053 
L 172 3500 
L 594 3500 
L 594 4494 
L 1172 4494 
z
" transform="scale(0.015625)"/>
       <path id="DejaVuSans-48" d="M 3597 1894 
L 3597 1613 
L 953 1613 
Q 991 1019 1311 708 
Q 1631 397 2203 397 
Q 2534 397 2845 478 
Q 3156 559 3463 722 
L 3463 178 
Q 3153 47 2828 -22 
Q 2503 -91 2169 -91 
Q 1331 -91 842 396 
Q 353 884 353 1716 
Q 353 2575 817 3079 
Q 1281 3584 2069 3584 
Q 2775 3584 3186 3129 
Q 3597 2675 3597 1894 
z
M 3022 2063 
Q 3016 2534 2758 2815 
Q 2500 3097 2075 3097 
Q 1594 3097 1305 2825 
Q 1016 2553 972 2059 
L 3022 2063 
z
" transform="scale(0.015625)"/>
       <path id="DejaVuSans-53" d="M 1159 525 
L 1159 -1331 
L 581 -1331 
L 581 3500 
L 1159 3500 
L 1159 2969 
Q 1341 3281 1617 3432 
Q 1894 3584 2278 3584 
Q 2916 3584 3314 3078 
Q 3713 2572 3713 1747 
Q 3713 922 3314 415 
Q 2916 -91 2278 -91 
Q 1894 -91 1617 61 
Q 1341 213 1159 525 
z
M 3116 1747 
Q 3116 2381 2855 2742 
Q 2594 3103 2138 3103 
Q 1681 3103 1420 2742 
Q 1159 2381 1159 1747 
Q 1159 1113 1420 752 
Q 1681 391 2138 391 
Q 2594 391 2855 752 
Q 3116 1113 3116 1747 
z
" transform="scale(0.015625)"/>
       <path id="DejaVuSans-3" transform="scale(0.015625)"/>
       <path id="DejaVuSans-51" d="M 3513 2113 
L 3513 0 
L 2938 0 
L 2938 2094 
Q 2938 2591 2744 2837 
Q 2550 3084 2163 3084 
Q 1697 3084 1428 2787 
Q 1159 2491 1159 1978 
L 1159 0 
L 581 0 
L 581 3500 
L 1159 3500 
L 1159 2956 
Q 1366 3272 1645 3428 
Q 1925 3584 2291 3584 
Q 2894 3584 3203 3211 
Q 3513 2838 3513 2113 
z
" transform="scale(0.015625)"/>
      </defs>
      <use xlink:href="#DejaVuSans-56"/>
      <use xlink:href="#DejaVuSans-57" transform="translate(52.09375 0)"/>
      <use xlink:href="#DejaVuSans-48" transform="translate(91.296875 0)"/>
      <use xlink:href="#DejaVuSans-53" transform="translate(152.828125 0)"/>
      <use xlink:href="#DejaVuSans-3" transform="translate(216.3125 0)"/>
      <use xlink:href="#DejaVuSans-51" transform="translate(248.09375 0)"/>
     </g>
    </g>
   </g>
   <g id="matplotlib.axis_2">
    <g id="ytick_1">
     <g id="line2d_6">
      <defs>
       <path id="m7b84f85d69" d="M 0 0 
L -3.5 0 
" style="stroke: #1a1a1a; stroke-width: 0.8"/>
      </defs>
      <g>
       <use xlink:href="#m7b84f85d69" x="44.103125" y="187.544687" style="fill: #1a1a1a; stroke: #1a1a1a; stroke-width: 0.8"/>
      </g>
     </g>
     <g id="text_7">
      <!-- 0.0 -->
      <g style="fill: #1a1a1a" transform="translate(21.2 191.343516) scale(0.1 -0.1)">
       <defs>
        <path id="DejaVuSans-11" d="M 684 794 
L 1344 794 
L 1344 0 
L 684 0 
L 684 794 
z
" transform="scale(0.015625)"/>
       </defs>
       <use xlink:href="#DejaVuSans-13"/>
       <use xlink:href="#DejaVuSans-11" transform="translate(63.625 0)"/>
       <use xlink:href="#DejaVuSans-13" transform="translate(95.40625 0)"/>
      </g>
     </g>
    </g>
    <g id="ytick_2">
     <g id="line2d_7">
      <g>
       <use xlink:href="#m7b84f85d69" x="44.103125" y="157.904258" style="fill: #1a1a1a; stroke: #1a1a1a; stroke-width: 0.8"/>
      </g>
     </g>
     <g id="text_8">
      <!-- 0.2 -->
      <g style="fill: #1a1a1a" transform="translate(21.2 161.703086) scale(0.1 -0.1)">
       <use xlink:href="#DejaVuSans-13"/>
       <use xlink:href="#DejaVuSans-11" transform="translate(63.625 0)"/>
       <use xlink:href="#DejaVuSans-15" transform="translate(95.40625 0)"/>
      </g>
     </g>
    </g>
    <g id="ytick_3">
     <g id="line2d_8">
      <g>
       <use xlink:href="#m7b84f85d69" x="44.103125" y="128.263828" style="fill: #1a1a1a; stroke: #1a1a1a; stroke-width: 0.8"/>
      </g>
     </g>
     <g id="text_9">
      <!-- 0.4 -->
      <g style="fill: #1a1a1a" transform="translate(21.2 132.062656) scale(0.1 -0.1)">
       <use xlink:href="#DejaVuSans-13"/>
       <use xlink:href="#DejaVuSans-11" transform="translate(63.625 0)"/>
       <use xlink:href="#DejaVuSans-17" transform="translate(95.40625 0)"/>
      </g>
     </g>
    </g>
    <g id="ytick_4">
     <g id="line2d_9">
      <g>
       <use xlink:href="#m7b84f85d69" x="44.103125" y="98.623398" style="fill: #1a1a1a; stroke: #1a1a1a; stroke-width: 0.8"/>
      </g>
     </g>
     <g id="text_10">
      <!-- 0.6 -->
      <g style="fill: #1a1a1a" transform="translate(21.2 102.422227) scale(0.1 -0.1)">
       <defs>
        <path id="DejaVuSans-19" d="M 2113 2584 
Q 1688 2584 1439 2293 
Q 1191 2003 1191 1497 
Q 1191 994 1439 701 
Q 1688 409 2113 409 
Q 2538 409 2786 701 
Q 3034 994 3034 1497 
Q 3034 2003 2786 2293 
Q 2538 2584 2113 2584 
z
M 3366 4563 
L 3366 3988 
Q 3128 4100 2886 4159 
Q 2644 4219 2406 4219 
Q 1781 4219 1451 3797 
Q 1122 3375 1075 2522 
Q 1259 2794 1537 2939 
Q 1816 3084 2150 3084 
Q 2853 3084 3261 2657 
Q 3669 2231 3669 1497 
Q 3669 778 3244 343 
Q 2819 -91 2113 -91 
Q 1303 -91 875 529 
Q 447 1150 447 2328 
Q 447 3434 972 4092 
Q 1497 4750 2381 4750 
Q 2619 4750 2861 4703 
Q 3103 4656 3366 4563 
z
" transform="scale(0.015625)"/>
       </defs>
       <use xlink:href="#DejaVuSans-13"/>
       <use xlink:href="#DejaVuSans-11" transform="translate(63.625 0)"/>
       <use xlink:href="#DejaVuSans-19" transform="translate(95.40625 0)"/>
      </g>
     </g>
    </g>
    <g id="ytick_5">
     <g id="line2d_10">
      <g>
       <use xlink:href="#m7b84f85d69" x="44.103125" y="68.982969" style="fill: #1a1a1a; stroke: #1a1a1a; stroke-width: 0.8"/>
      </g>
     </g>
     <g id="text_11">
      <!-- 0.8 -->
      <g style="fill: #1a1a1a" transform="translate(21.2 72.781797) scale(0.1 -0.1)">
       <defs>
        <path id="DejaVuSans-1b" d="M 2034 2216 
Q 1584 2216 1326 1975 
Q 1069 1734 1069 1313 
Q 1069 891 1326 650 
Q 1584 409 2034 409 
Q 2484 409 2743 651 
Q 3003 894 3003 1313 
Q 3003 1734 2745 1975 
Q 2488 2216 2034 2216 
z
M 1403 2484 
Q 997 2584 770 2862 
Q 544 3141 544 3541 
Q 544 4100 942 4425 
Q 1341 4750 2034 4750 
Q 2731 4750 3128 4425 
Q 3525 4100 3525 3541 
Q 3525 3141 3298 2862 
Q 3072 2584 2669 2484 
Q 3125 2378 3379 2068 
Q 3634 1759 3634 1313 
Q 3634 634 3220 271 
Q 2806 -91 2034 -91 
Q 1263 -91 848 271 
Q 434 634 434 1313 
Q 434 1759 690 2068 
Q 947 2378 1403 2484 
z
M 1172 3481 
Q 1172 3119 1398 2916 
Q 1625 2713 2034 2713 
Q 2441 2713 2670 2916 
Q 2900 3119 2900 3481 
Q 2900 3844 2670 4047 
Q 2441 4250 2034 4250 
Q 1625 4250 1398 4047 
Q 1172 3844 1172 3481 
z
" transform="scale(0.015625)"/>
       </defs>
       <use xlink:href="#DejaVuSans-13"/>
       <use xlink:href="#DejaVuSans-11" transform="translate(63.625 0)"/>
       <use xlink:href="#DejaVuSans-1b" transform="translate(95.40625 0)"/>
      </g>
     </g>
    </g>
    <g id="ytick_6">
     <g id="line2d_11">
      <g>
       <use xlink:href="#m7b84f85d69" x="44.103125" y="39.342539" style="fill: #1a1a1a; stroke: #1a1a1a; stroke-width: 0.8"/>
      </g>
     </g>
     <g id="text_12">
      <!-- 1.0 -->
      <g style="fill: #1a1a1a" transform="translate(21.2 43.141367) scale(0.1 -0.1)">
       <use xlink:href="#DejaVuSans-14"/>
       <use xlink:href="#DejaVuSans-11" transform="translate(63.625 0)"/>
       <use xlink:href="#DejaVuSans-13" transform="translate(95.40625 0)"/>
      </g>
     </g>
    </g>
    <g id="text_13">
     <!-- xₙ -->
     <g style="fill: #1a1a1a" transform="translate(14.797656 115.431133) rotate(-90) scale(0.1 -0.1)">
      <defs>
       <path id="DejaVuSans-5b" d="M 3513 3500 
L 2247 1797 
L 3578 0 
L 2900 0 
L 1881 1375 
L 863 0 
L 184 0 
L 1544 1831 
L 300 3500 
L 978 3500 
L 1906 2253 
L 2834 3500 
L 3513 3500 
z
" transform="scale(0.015625)"/>
       <path id="DejaVuSans-b73" d="M 2213 1184 
L 2213 0 
L 1850 0 
L 1850 1171 
Q 1850 1450 1728 1589 
Q 1606 1728 1363 1728 
Q 1069 1728 900 1560 
Q 731 1393 731 1106 
L 731 0 
L 366 0 
L 366 1959 
L 731 1959 
L 731 1656 
Q 859 1831 1036 1918 
Q 1213 2006 1444 2006 
Q 1822 2006 2017 1796 
Q 2213 1587 2213 1184 
z
" transform="scale(0.015625)"/>
      </defs>
      <use xlink:href="#DejaVuSans-5b"/>
      <use xlink:href="#DejaVuSans-b73" transform="translate(59.1875 0)"/>
     </g>
    </g>
   </g>
   <g id="line2d_12">
    <path d="M 65.010398 143.084043 
L 74.302519 63.054883 
L 83.59464 107.871212 
L 92.886761 40.180628 
L 102.178883 184.211289 
L 111.471004 174.510996 
L 120.763125 139.994931 
L 130.055246 58.36986 
L 139.347367 121.206893 
L 148.639489 40.969196 
L 157.93161 181.109476 
L 167.223731 162.921555 
L 176.515852 105.416256 
L 185.807973 41.081744 
L 195.100095 180.66951 
L 204.392216 161.319751 
L 213.684337 101.207353 
L 222.976458 43.38367 
L 232.26858 171.820933 
L 241.560701 131.322622 
L 250.852822 47.970186 
L 260.144943 155.043149 
L 269.437064 86.049591 
L 278.729186 59.596833 
L 288.021307 117.59986 
L 297.313428 39.808777 
L 306.605549 185.685601 
L 315.89767 180.201625 
L 325.189792 159.627762 
L 334.481913 96.911896 
L 343.774034 46.718888 
L 353.066155 159.507842 
L 362.358277 96.613319 
L 371.650398 46.98774 
L 380.942519 158.541435 
L 390.23464 94.235496 
L 399.526761 49.300607 
L 408.818883 150.388843 
L 418.111004 76.182761 
L 427.403125 76.8149 
L 436.695246 75.55423 
L 445.987367 78.08976 
L 455.279489 73.077405 
L 464.57161 83.321139 
L 473.863731 63.832426 
L 483.155852 105.772613 
" clip-path="url(#p57c894a1c8)" style="fill: none; stroke: #2b5b84; stroke-width: 1.6; stroke-linecap: square"/>
    <defs>
     <path id="m2e19e16a81" d="M 0 1.25 
C 0.331504 1.25 0.649475 1.118292 0.883883 0.883883 
C 1.118292 0.649475 1.25 0.331504 1.25 0 
C 1.25 -0.331504 1.118292 -0.649475 0.883883 -0.883883 
C 0.649475 -1.118292 0.331504 -1.25 0 -1.25 
C -0.331504 -1.25 -0.649475 -1.118292 -0.883883 -0.883883 
C -1.118292 -0.649475 -1.25 -0.331504 -1.25 0 
C -1.25 0.331504 -1.118292 0.649475 -0.883883 0.883883 
C -0.649475 1.118292 -0.331504 1.25 0 1.25 
z
" style="stroke: #2b5b84"/>
    </defs>
    <g clip-path="url(#p57c894a1c8)">
     <use xlink:href="#m2e19e16a81" x="65.010398" y="143.084043" style="fill: #2b5b84; stroke: #2b5b84"/>
     <use xlink:href="#m2e19e16a81" x="74.302519" y="63.054883" style="fill: #2b5b84; stroke: #2b5b84"/>
     <use xlink:href="#m2e19e16a81" x="83.59464" y="107.871212" style="fill: #2b5b84; stroke: #2b5b84"/>
     <use xlink:href="#m2e19e16a81" x="92.886761" y="40.180628" style="fill: #2b5b84; stroke: #2b5b84"/>
     <use xlink:href="#m2e19e16a81" x="102.178883" y="184.211289" style="fill: #2b5b84; stroke: #2b5b84"/>
     <use xlink:href="#m2e19e16a81" x="111.471004" y="174.510996" style="fill: #2b5b84; stroke: #2b5b84"/>
     <use xlink:href="#m2e19e16a81" x="120.763125" y="139.994931" style="fill: #2b5b84; stroke: #2b5b84"/>
     <use xlink:href="#m2e19e16a81" x="130.055246" y="58.36986" style="fill: #2b5b84; stroke: #2b5b84"/>
     <use xlink:href="#m2e19e16a81" x="139.347367" y="121.206893" style="fill: #2b5b84; stroke: #2b5b84"/>
     <use xlink:href="#m2e19e16a81" x="148.639489" y="40.969196" style="fill: #2b5b84; stroke: #2b5b84"/>
     <use xlink:href="#m2e19e16a81" x="157.93161" y="181.109476" style="fill: #2b5b84; stroke: #2b5b84"/>
     <use xlink:href="#m2e19e16a81" x="167.223731" y="162.921555" style="fill: #2b5b84; stroke: #2b5b84"/>
     <use xlink:href="#m2e19e16a81" x="176.515852" y="105.416256" style="fill: #2b5b84; stroke: #2b5b84"/>
     <use xlink:href="#m2e19e16a81" x="185.807973" y="41.081744" style="fill: #2b5b84; stroke: #2b5b84"/>
     <use xlink:href="#m2e19e16a81" x="195.100095" y="180.66951" style="fill: #2b5b84; stroke: #2b5b84"/>
     <use xlink:href="#m2e19e16a81" x="204.392216" y="161.319751" style="fill: #2b5b84; stroke: #2b5b84"/>
     <use xlink:href="#m2e19e16a81" x="213.684337" y="101.207353" style="fill: #2b5b84; stroke: #2b5b84"/>
     <use xlink:href="#m2e19e16a81" x="222.976458" y="43.38367" style="fill: #2b5b84; stroke: #2b5b84"/>
     <use xlink:href="#m2e19e16a81" x="232.26858" y="171.820933" style="fill: #2b5b84; stroke: #2b5b84"/>
     <use xlink:href="#m2e19e16a81" x="241.560701" y="131.322622" style="fill: #2b5b84; stroke: #2b5b84"/>
     <use xlink:href="#m2e19e16a81" x="250.852822" y="47.970186" style="fill: #2b5b84; stroke: #2b5b84"/>
     <use xlink:href="#m2e19e16a81" x="260.144943" y="155.043149" style="fill: #2b5b84; stroke: #2b5b84"/>
     <use xlink:href="#m2e19e16a81" x="269.437064" y="86.049591" style="fill: #2b5b84; stroke: #2b5b84"/>
     <use xlink:href="#m2e19e16a81" x="278.729186" y="59.596833" style="fill: #2b5b84; stroke: #2b5b84"/>
     <use xlink:href="#m2e19e16a81" x="288.021307" y="117.59986" style="fill: #2b5b84; stroke: #2b5b84"/>
     <use xlink:href="#m2e19e16a81" x="297.313428" y="39.808777" style="fill: #2b5b84; stroke: #2b5b84"/>
     <use xlink:href="#m2e19e16a81" x="306.605549" y="185.685601" style="fill: #2b5b84; stroke: #2b5b84"/>
     <use xlink:href="#m2e19e16a81" x="315.89767" y="180.201625" style="fill: #2b5b84; stroke: #2b5b84"/>
     <use xlink:href="#m2e19e16a81" x="325.189792" y="159.627762" style="fill: #2b5b84; stroke: #2b5b84"/>
     <use xlink:href="#m2e19e16a81" x="334.481913" y="96.911896" style="fill: #2b5b84; stroke: #2b5b84"/>
     <use xlink:href="#m2e19e16a81" x="343.774034" y="46.718888" style="fill: #2b5b84; stroke: #2b5b84"/>
     <use xlink:href="#m2e19e16a81" x="353.066155" y="159.507842" style="fill: #2b5b84; stroke: #2b5b84"/>
     <use xlink:href="#m2e19e16a81" x="362.358277" y="96.613319" style="fill: #2b5b84; stroke: #2b5b84"/>
     <use xlink:href="#m2e19e16a81" x="371.650398" y="46.98774" style="fill: #2b5b84; stroke: #2b5b84"/>
     <use xlink:href="#m2e19e16a81" x="380.942519" y="158.541435" style="fill: #2b5b84; stroke: #2b5b84"/>
     <use xlink:href="#m2e19e16a81" x="390.23464" y="94.235496" style="fill: #2b5b84; stroke: #2b5b84"/>
     <use xlink:href="#m2e19e16a81" x="399.526761" y="49.300607" style="fill: #2b5b84; stroke: #2b5b84"/>
     <use xlink:href="#m2e19e16a81" x="408.818883" y="150.388843" style="fill: #2b5b84; stroke: #2b5b84"/>
     <use xlink:href="#m2e19e16a81" x="418.111004" y="76.182761" style="fill: #2b5b84; stroke: #2b5b84"/>
     <use xlink:href="#m2e19e16a81" x="427.403125" y="76.8149" style="fill: #2b5b84; stroke: #2b5b84"/>
     <use xlink:href="#m2e19e16a81" x="436.695246" y="75.55423" style="fill: #2b5b84; stroke: #2b5b84"/>
     <use xlink:href="#m2e19e16a81" x="445.987367" y="78.08976" style="fill: #2b5b84; stroke: #2b5b84"/>
     <use xlink:href="#m2e19e16a81" x="455.279489" y="73.077405" style="fill: #2b5b84; stroke: #2b5b84"/>
     <use xlink:href="#m2e19e16a81" x="464.57161" y="83.321139" style="fill: #2b5b84; stroke: #2b5b84"/>
     <use xlink:href="#m2e19e16a81" x="473.863731" y="63.832426" style="fill: #2b5b84; stroke: #2b5b84"/>
     <use xlink:href="#m2e19e16a81" x="483.155852" y="105.772613" style="fill: #2b5b84; stroke: #2b5b84"/>
    </g>
   </g>
   <g id="line2d_13">
    <path d="M 65.010398 142.935841 
L 74.302519 62.818352 
L 83.59464 108.516086 
L 92.886761 39.997874 
L 102.178883 184.934937 
L 111.471004 177.289512 
L 120.763125 149.362502 
L 130.055246 74.164344 
L 139.347367 80.984607 
L 148.639489 67.779025 
L 157.93161 95.623898 
L 167.223731 47.913056 
L 176.515852 155.245149 
L 185.807973 86.504296 
L 195.100095 58.930024 
L 204.392216 119.550053 
L 213.684337 40.348964 
L 222.976458 183.546324 
L 232.26858 171.982723 
L 241.560701 131.833164 
L 250.852822 48.469953 
L 260.144943 153.283574 
L 269.437064 82.18193 
L 278.729186 65.719832 
L 288.021307 100.814235 
L 297.313428 43.647502 
L 306.605549 170.825035 
L 315.89767 128.211091 
L 325.189792 45.22851 
L 334.481913 164.935867 
L 343.774034 110.905663 
L 353.066155 39.516388 
L 362.358277 186.850108 
L 371.650398 184.779391 
L 380.942519 176.689892 
L 390.23464 147.305664 
L 399.526761 70.290497 
L 408.818883 89.603388 
L 418.111004 54.682569 
L 427.403125 132.535798 
L 436.695246 49.180764 
L 445.987367 150.804183 
L 455.279489 77.015736 
L 464.57161 75.15822 
L 473.863731 78.903945 
L 483.155852 71.541497 
" clip-path="url(#p57c894a1c8)" style="fill: none; stroke: #c0532b; stroke-width: 1.6; stroke-linecap: square"/>
    <defs>
     <path id="ma1e41edcbf" d="M 0 1.25 
C 0.331504 1.25 0.649475 1.118292 0.883883 0.883883 
C 1.118292 0.649475 1.25 0.331504 1.25 0 
C 1.25 -0.331504 1.118292 -0.649475 0.883883 -0.883883 
C 0.649475 -1.118292 0.331504 -1.25 0 -1.25 
C -0.331504 -1.25 -0.649475 -1.118292 -0.883883 -0.883883 
C -1.118292 -0.649475 -1.25 -0.331504 -1.25 0 
C -1.25 0.331504 -1.118292 0.649475 -0.883883 0.883883 
C -0.649475 1.118292 -0.331504 1.25 0 1.25 
z
" style="stroke: #c0532b"/>
    </defs>
    <g clip-path="url(#p57c894a1c8)">
     <use xlink:href="#ma1e41edcbf" x="65.010398" y="142.935841" style="fill: #c0532b; stroke: #c0532b"/>
     <use xlink:href="#ma1e41edcbf" x="74.302519" y="62.818352" style="fill: #c0532b; stroke: #c0532b"/>
     <use xlink:href="#ma1e41edcbf" x="83.59464" y="108.516086" style="fill: #c0532b; stroke: #c0532b"/>
     <use xlink:href="#ma1e41edcbf" x="92.886761" y="39.997874" style="fill: #c0532b; stroke: #c0532b"/>
     <use xlink:href="#ma1e41edcbf" x="102.178883" y="184.934937" style="fill: #c0532b; stroke: #c0532b"/>
     <use xlink:href="#ma1e41edcbf" x="111.471004" y="177.289512" style="fill: #c0532b; stroke: #c0532b"/>
     <use xlink:href="#ma1e41edcbf" x="120.763125" y="149.362502" style="fill: #c0532b; stroke: #c0532b"/>
     <use xlink:href="#ma1e41edcbf" x="130.055246" y="74.164344" style="fill: #c0532b; stroke: #c0532b"/>
     <use xlink:href="#ma1e41edcbf" x="139.347367" y="80.984607" style="fill: #c0532b; stroke: #c0532b"/>
     <use xlink:href="#ma1e41edcbf" x="148.639489" y="67.779025" style="fill: #c0532b; stroke: #c0532b"/>
     <use xlink:href="#ma1e41edcbf" x="157.93161" y="95.623898" style="fill: #c0532b; stroke: #c0532b"/>
     <use xlink:href="#ma1e41edcbf" x="167.223731" y="47.913056" style="fill: #c0532b; stroke: #c0532b"/>
     <use xlink:href="#ma1e41edcbf" x="176.515852" y="155.245149" style="fill: #c0532b; stroke: #c0532b"/>
     <use xlink:href="#ma1e41edcbf" x="185.807973" y="86.504296" style="fill: #c0532b; stroke: #c0532b"/>
     <use xlink:href="#ma1e41edcbf" x="195.100095" y="58.930024" style="fill: #c0532b; stroke: #c0532b"/>
     <use xlink:href="#ma1e41edcbf" x="204.392216" y="119.550053" style="fill: #c0532b; stroke: #c0532b"/>
     <use xlink:href="#ma1e41edcbf" x="213.684337" y="40.348964" style="fill: #c0532b; stroke: #c0532b"/>
     <use xlink:href="#ma1e41edcbf" x="222.976458" y="183.546324" style="fill: #c0532b; stroke: #c0532b"/>
     <use xlink:href="#ma1e41edcbf" x="232.26858" y="171.982723" style="fill: #c0532b; stroke: #c0532b"/>
     <use xlink:href="#ma1e41edcbf" x="241.560701" y="131.833164" style="fill: #c0532b; stroke: #c0532b"/>
     <use xlink:href="#ma1e41edcbf" x="250.852822" y="48.469953" style="fill: #c0532b; stroke: #c0532b"/>
     <use xlink:href="#ma1e41edcbf" x="260.144943" y="153.283574" style="fill: #c0532b; stroke: #c0532b"/>
     <use xlink:href="#ma1e41edcbf" x="269.437064" y="82.18193" style="fill: #c0532b; stroke: #c0532b"/>
     <use xlink:href="#ma1e41edcbf" x="278.729186" y="65.719832" style="fill: #c0532b; stroke: #c0532b"/>
     <use xlink:href="#ma1e41edcbf" x="288.021307" y="100.814235" style="fill: #c0532b; stroke: #c0532b"/>
     <use xlink:href="#ma1e41edcbf" x="297.313428" y="43.647502" style="fill: #c0532b; stroke: #c0532b"/>
     <use xlink:href="#ma1e41edcbf" x="306.605549" y="170.825035" style="fill: #c0532b; stroke: #c0532b"/>
     <use xlink:href="#ma1e41edcbf" x="315.89767" y="128.211091" style="fill: #c0532b; stroke: #c0532b"/>
     <use xlink:href="#ma1e41edcbf" x="325.189792" y="45.22851" style="fill: #c0532b; stroke: #c0532b"/>
     <use xlink:href="#ma1e41edcbf" x="334.481913" y="164.935867" style="fill: #c0532b; stroke: #c0532b"/>
     <use xlink:href="#ma1e41edcbf" x="343.774034" y="110.905663" style="fill: #c0532b; stroke: #c0532b"/>
     <use xlink:href="#ma1e41edcbf" x="353.066155" y="39.516388" style="fill: #c0532b; stroke: #c0532b"/>
     <use xlink:href="#ma1e41edcbf" x="362.358277" y="186.850108" style="fill: #c0532b; stroke: #c0532b"/>
     <use xlink:href="#ma1e41edcbf" x="371.650398" y="184.779391" style="fill: #c0532b; stroke: #c0532b"/>
     <use xlink:href="#ma1e41edcbf" x="380.942519" y="176.689892" style="fill: #c0532b; stroke: #c0532b"/>
     <use xlink:href="#ma1e41edcbf" x="390.23464" y="147.305664" style="fill: #c0532b; stroke: #c0532b"/>
     <use xlink:href="#ma1e41edcbf" x="399.526761" y="70.290497" style="fill: #c0532b; stroke: #c0532b"/>
     <use xlink:href="#ma1e41edcbf" x="408.818883" y="89.603388" style="fill: #c0532b; stroke: #c0532b"/>
     <use xlink:href="#ma1e41edcbf" x="418.111004" y="54.682569" style="fill: #c0532b; stroke: #c0532b"/>
     <use xlink:href="#ma1e41edcbf" x="427.403125" y="132.535798" style="fill: #c0532b; stroke: #c0532b"/>
     <use xlink:href="#ma1e41edcbf" x="436.695246" y="49.180764" style="fill: #c0532b; stroke: #c0532b"/>
     <use xlink:href="#ma1e41edcbf" x="445.987367" y="150.804183" style="fill: #c0532b; stroke: #c0532b"/>
     <use xlink:href="#ma1e41edcbf" x="455.279489" y="77.015736" style="fill: #c0532b; stroke: #c0532b"/>
     <use xlink:href="#ma1e41edcbf" x="464.57161" y="75.15822" style="fill: #c0532b; stroke: #c0532b"/>
     <use xlink:href="#ma1e41edcbf" x="473.863731" y="78.903945" style="fill: #c0532b; stroke: #c0532b"/>
     <use xlink:href="#ma1e41edcbf" x="483.155852" y="71.541497" style="fill: #c0532b; stroke: #c0532b"/>
    </g>
   </g>
   <g id="patch_4">
    <path d="M 44.103125 199.400859 
L 44.103125 21.558281 
" style="fill: none; stroke: #1a1a1a; stroke-width: 0.8; stroke-linejoin: miter; stroke-linecap: square"/>
   </g>
   <g id="patch_5">
    <path d="M 44.103125 199.400859 
L 504.063125 199.400859 
" style="fill: none; stroke: #1a1a1a; stroke-width: 0.8; stroke-linejoin: miter; stroke-linecap: square"/>
   </g>
   <g id="text_14">
    <!-- tracks overlap -->
    <g style="fill: #1a1a1a" transform="translate(71.910822 30.45041) scale(0.09 -0.09)">
     <defs>
      <path id="DejaVuSans-55" d="M 2631 2963 
Q 2534 3019 2420 3045 
Q 2306 3072 2169 3072 
Q 1681 3072 1420 2755 
Q 1159 2438 1159 1844 
L 1159 0 
L 581 0 
L 581 3500 
L 1159 3500 
L 1159 2956 
Q 1341 3275 1631 3429 
Q 1922 3584 2338 3584 
Q 2397 3584 2469 3576 
Q 2541 3569 2628 3553 
L 2631 2963 
z
" transform="scale(0.015625)"/>
      <path id="DejaVuSans-44" d="M 2194 1759 
Q 1497 1759 1228 1600 
Q 959 1441 959 1056 
Q 959 750 1161 570 
Q 1363 391 1709 391 
Q 2188 391 2477 730 
Q 2766 1069 2766 1631 
L 2766 1759 
L 2194 1759 
z
M 3341 1997 
L 3341 0 
L 2766 0 
L 2766 531 
Q 2569 213 2275 61 
Q 1981 -91 1556 -91 
Q 1019 -91 701 211 
Q 384 513 384 1019 
Q 384 1609 779 1909 
Q 1175 2209 1959 2209 
L 2766 2209 
L 2766 2266 
Q 2766 2663 2505 2880 
Q 2244 3097 1772 3097 
Q 1472 3097 1187 3025 
Q 903 2953 641 2809 
L 641 3341 
Q 956 3463 1253 3523 
Q 1550 3584 1831 3584 
Q 2591 3584 2966 3190 
Q 3341 2797 3341 1997 
z
" transform="scale(0.015625)"/>
      <path id="DejaVuSans-46" d="M 3122 3366 
L 3122 2828 
Q 2878 2963 2633 3030 
Q 2388 3097 2138 3097 
Q 1578 3097 1268 2742 
Q 959 2388 959 1747 
Q 959 1106 1268 751 
Q 1578 397 2138 397 
Q 2388 397 2633 464 
Q 2878 531 3122 666 
L 3122 134 
Q 2881 22 2623 -34 
Q 2366 -91 2075 -91 
Q 1284 -91 818 406 
Q 353 903 353 1747 
Q 353 2603 823 3093 
Q 1294 3584 2113 3584 
Q 2378 3584 2631 3529 
Q 2884 3475 3122 3366 
z
" transform="scale(0.015625)"/>
      <path id="DejaVuSans-4e" d="M 581 4863 
L 1159 4863 
L 1159 1991 
L 2875 3500 
L 3609 3500 
L 1753 1863 
L 3688 0 
L 2938 0 
L 1159 1709 
L 1159 0 
L 581 0 
L 581 4863 
z
" transform="scale(0.015625)"/>
      <path id="DejaVuSans-52" d="M 1959 3097 
Q 1497 3097 1228 2736 
Q 959 2375 959 1747 
Q 959 1119 1226 758 
Q 1494 397 1959 397 
Q 2419 397 2687 759 
Q 2956 1122 2956 1747 
Q 2956 2369 2687 2733 
Q 2419 3097 1959 3097 
z
M 1959 3584 
Q 2709 3584 3137 3096 
Q 3566 2609 3566 1747 
Q 3566 888 3137 398 
Q 2709 -91 1959 -91 
Q 1206 -91 779 398 
Q 353 888 353 1747 
Q 353 2609 779 3096 
Q 1206 3584 1959 3584 
z
" transform="scale(0.015625)"/>
      <path id="DejaVuSans-59" d="M 191 3500 
L 800 3500 
L 1894 563 
L 2988 3500 
L 3597 3500 
L 2284 0 
L 1503 0 
L 191 3500 
z
" transform="scale(0.015625)"/>
      <path id="DejaVuSans-4f" d="M 603 4863 
L 1178 4863 
L 1178 0 
L 603 0 
L 603 4863 
z
" transform="scale(0.015625)"/>
     </defs>
     <use xlink:href="#DejaVuSans-57"/>
     <use xlink:href="#DejaVuSans-55" transform="translate(39.203125 0)"/>
     <use xlink:href="#DejaVuSans-44" transform="translate(80.3125 0)"/>
     <use xlink:href="#DejaVuSans-46" transform="translate(141.59375 0)"/>
     <use xlink:href="#DejaVuSans-4e" transform="translate(196.578125 0)"/>
     <use xlink:href="#DejaVuSans-56" transform="translate(254.484375 0)"/>
     <use xlink:href="#DejaVuSans-3" transform="translate(306.578125 0)"/>
     <use xlink:href="#DejaVuSans-52" transform="translate(338.359375 0)"/>
     <use xlink:href="#DejaVuSans-59" transform="translate(399.546875 0)"/>
     <use xlink:href="#DejaVuSans-48" transform="translate(458.734375 0)"/>
     <use xlink:href="#DejaVuSans-55" transform="translate(520.265625 0)"/>
     <use xlink:href="#DejaVuSans-4f" transform="translate(561.375 0)"/>
     <use xlink:href="#DejaVuSans-44" transform="translate(589.15625 0)"/>
     <use xlink:href="#DejaVuSans-53" transform="translate(650.4375 0)"/>
    </g>
   </g>
   <g id="patch_6">
    <path d="M 311.921514 182.796959 
Q 282.373049 177.923324 253.927713 173.231636 
" style="fill: none; stroke: #1a1a1a; stroke-linecap: round"/>
    <path d="M 257.186794 175.593498 
L 253.927713 173.231636 
L 257.772651 172.041489 
" style="fill: none; stroke: #1a1a1a; stroke-linecap: round"/>
   </g>
   <g id="text_15">
    <!-- then diverge -->
    <g style="fill: #1a1a1a" transform="translate(315.89767 190.50873) scale(0.09 -0.09)">
     <defs>
      <path id="DejaVuSans-4b" d="M 3513 2113 
L 3513 0 
L 2938 0 
L 2938 2094 
Q 2938 2591 2744 2837 
Q 2550 3084 2163 3084 
Q 1697 3084 1428 2787 
Q 1159 2491 1159 1978 
L 1159 0 
L 581 0 
L 581 4863 
L 1159 4863 
L 1159 2956 
Q 1366 3272 1645 3428 
Q 1925 3584 2291 3584 
Q 2894 3584 3203 3211 
Q 3513 2838 3513 2113 
z
" transform="scale(0.015625)"/>
      <path id="DejaVuSans-47" d="M 2906 2969 
L 2906 4863 
L 3481 4863 
L 3481 0 
L 2906 0 
L 2906 525 
Q 2725 213 2448 61 
Q 2172 -91 1784 -91 
Q 1150 -91 751 415 
Q 353 922 353 1747 
Q 353 2572 751 3078 
Q 1150 3584 1784 3584 
Q 2172 3584 2448 3432 
Q 2725 3281 2906 2969 
z
M 947 1747 
Q 947 1113 1208 752 
Q 1469 391 1925 391 
Q 2381 391 2643 752 
Q 2906 1113 2906 1747 
Q 2906 2381 2643 2742 
Q 2381 3103 1925 3103 
Q 1469 3103 1208 2742 
Q 947 2381 947 1747 
z
" transform="scale(0.015625)"/>
      <path id="DejaVuSans-4c" d="M 603 3500 
L 1178 3500 
L 1178 0 
L 603 0 
L 603 3500 
z
M 603 4863 
L 1178 4863 
L 1178 4134 
L 603 4134 
L 603 4863 
z
" transform="scale(0.015625)"/>
      <path id="DejaVuSans-4a" d="M 2906 1791 
Q 2906 2416 2648 2759 
Q 2391 3103 1925 3103 
Q 1463 3103 1205 2759 
Q 947 2416 947 1791 
Q 947 1169 1205 825 
Q 1463 481 1925 481 
Q 2391 481 2648 825 
Q 2906 1169 2906 1791 
z
M 3481 434 
Q 3481 -459 3084 -895 
Q 2688 -1331 1869 -1331 
Q 1566 -1331 1297 -1286 
Q 1028 -1241 775 -1147 
L 775 -588 
Q 1028 -725 1275 -790 
Q 1522 -856 1778 -856 
Q 2344 -856 2625 -561 
Q 2906 -266 2906 331 
L 2906 616 
Q 2728 306 2450 153 
Q 2172 0 1784 0 
Q 1141 0 747 490 
Q 353 981 353 1791 
Q 353 2603 747 3093 
Q 1141 3584 1784 3584 
Q 2172 3584 2450 3431 
Q 2728 3278 2906 2969 
L 2906 3500 
L 3481 3500 
L 3481 434 
z
" transform="scale(0.015625)"/>
     </defs>
     <use xlink:href="#DejaVuSans-57"/>
     <use xlink:href="#DejaVuSans-4b" transform="translate(39.203125 0)"/>
     <use xlink:href="#DejaVuSans-48" transform="translate(102.578125 0)"/>
     <use xlink:href="#DejaVuSans-51" transform="translate(164.109375 0)"/>
     <use xlink:href="#DejaVuSans-3" transform="translate(227.484375 0)"/>
     <use xlink:href="#DejaVuSans-47" transform="translate(259.265625 0)"/>
     <use xlink:href="#DejaVuSans-4c" transform="translate(322.75 0)"/>
     <use xlink:href="#DejaVuSans-59" transform="translate(350.53125 0)"/>
     <use xlink:href="#DejaVuSans-48" transform="translate(409.71875 0)"/>
     <use xlink:href="#DejaVuSans-55" transform="translate(471.25 0)"/>
     <use xlink:href="#DejaVuSans-4a" transform="translate(510.609375 0)"/>
     <use xlink:href="#DejaVuSans-48" transform="translate(574.09375 0)"/>
    </g>
   </g>
   <g id="text_16">
    <!-- Two starts differing by 0.001  (logistic, r = 4) -->
    <g style="fill: #1a1a1a" transform="translate(151.018047 15.558281) scale(0.11 -0.11)">
     <defs>
      <path id="DejaVuSans-37" d="M -19 4666 
L 3928 4666 
L 3928 4134 
L 2272 4134 
L 2272 0 
L 1638 0 
L 1638 4134 
L -19 4134 
L -19 4666 
z
" transform="scale(0.015625)"/>
      <path id="DejaVuSans-5a" d="M 269 3500 
L 844 3500 
L 1563 769 
L 2278 3500 
L 2956 3500 
L 3675 769 
L 4391 3500 
L 4966 3500 
L 4050 0 
L 3372 0 
L 2619 2869 
L 1863 0 
L 1184 0 
L 269 3500 
z
" transform="scale(0.015625)"/>
      <path id="DejaVuSans-13ae" d="M 4531 4863 
L 4531 4384 
L 3981 4384 
Q 3672 4384 3551 4259 
Q 3431 4134 3431 3809 
L 3431 3500 
L 4378 3500 
L 4378 3053 
L 3431 3053 
L 3431 0 
L 2853 0 
L 2853 3053 
L 1275 3053 
L 1275 0 
L 697 0 
L 697 3053 
L 147 3053 
L 147 3500 
L 697 3500 
L 697 3744 
Q 697 4328 969 4595 
Q 1241 4863 1831 4863 
L 2375 4863 
L 2375 4384 
L 1825 4384 
Q 1516 4384 1394 4259 
Q 1275 4134 1275 3809 
L 1275 3500 
L 2853 3500 
L 2853 3744 
Q 2853 4328 3125 4595 
Q 3397 4863 3988 4863 
L 4531 4863 
z
" transform="scale(0.015625)"/>
      <path id="DejaVuSans-45" d="M 3116 1747 
Q 3116 2381 2855 2742 
Q 2594 3103 2138 3103 
Q 1681 3103 1420 2742 
Q 1159 2381 1159 1747 
Q 1159 1113 1420 752 
Q 1681 391 2138 391 
Q 2594 391 2855 752 
Q 3116 1113 3116 1747 
z
M 1159 2969 
Q 1341 3281 1617 3432 
Q 1894 3584 2278 3584 
Q 2916 3584 3314 3078 
Q 3713 2572 3713 1747 
Q 3713 922 3314 415 
Q 2916 -91 2278 -91 
Q 1894 -91 1617 61 
Q 1341 213 1159 525 
L 1159 0 
L 581 0 
L 581 4863 
L 1159 4863 
L 1159 2969 
z
" transform="scale(0.015625)"/>
      <path id="DejaVuSans-5c" d="M 2059 -325 
Q 1816 -950 1584 -1140 
Q 1353 -1331 966 -1331 
L 506 -1331 
L 506 -850 
L 844 -850 
Q 1081 -850 1212 -737 
Q 1344 -625 1503 -206 
L 1606 56 
L 191 3500 
L 800 3500 
L 1894 763 
L 2988 3500 
L 3597 3500 
L 2059 -325 
z
" transform="scale(0.015625)"/>
      <path id="DejaVuSans-b" d="M 1984 4856 
Q 1566 4138 1362 3434 
Q 1159 2731 1159 2009 
Q 1159 1288 1364 580 
Q 1569 -128 1984 -844 
L 1484 -844 
Q 1016 -109 783 600 
Q 550 1309 550 2009 
Q 550 2706 781 3412 
Q 1013 4119 1484 4856 
L 1984 4856 
z
" transform="scale(0.015625)"/>
      <path id="DejaVuSans-f" d="M 750 794 
L 1409 794 
L 1409 256 
L 897 -744 
L 494 -744 
L 750 256 
L 750 794 
z
" transform="scale(0.015625)"/>
      <path id="DejaVuSans-20" d="M 678 2906 
L 4684 2906 
L 4684 2381 
L 678 2381 
L 678 2906 
z
M 678 1631 
L 4684 1631 
L 4684 1100 
L 678 1100 
L 678 1631 
z
" transform="scale(0.015625)"/>
      <path id="DejaVuSans-c" d="M 513 4856 
L 1013 4856 
Q 1481 4119 1714 3412 
Q 1947 2706 1947 2009 
Q 1947 1309 1714 600 
Q 1481 -109 1013 -844 
L 513 -844 
Q 928 -128 1133 580 
Q 1338 1288 1338 2009 
Q 1338 2731 1133 3434 
Q 928 4138 513 4856 
z
" transform="scale(0.015625)"/>
     </defs>
     <use xlink:href="#DejaVuSans-37"/>
     <use xlink:href="#DejaVuSans-5a" transform="translate(44.53125 0)"/>
     <use xlink:href="#DejaVuSans-52" transform="translate(126.3125 0)"/>
     <use xlink:href="#DejaVuSans-3" transform="translate(187.5 0)"/>
     <use xlink:href="#DejaVuSans-56" transform="translate(219.28125 0)"/>
     <use xlink:href="#DejaVuSans-57" transform="translate(271.375 0)"/>
     <use xlink:href="#DejaVuSans-44" transform="translate(310.578125 0)"/>
     <use xlink:href="#DejaVuSans-55" transform="translate(371.859375 0)"/>
     <use xlink:href="#DejaVuSans-57" transform="translate(412.96875 0)"/>
     <use xlink:href="#DejaVuSans-56" transform="translate(452.171875 0)"/>
     <use xlink:href="#DejaVuSans-3" transform="translate(504.265625 0)"/>
     <use xlink:href="#DejaVuSans-47" transform="translate(536.046875 0)"/>
     <use xlink:href="#DejaVuSans-4c" transform="translate(599.53125 0)"/>
     <use xlink:href="#DejaVuSans-13ae" transform="translate(627.3125 0)"/>
     <use xlink:href="#DejaVuSans-48" transform="translate(696.203125 0)"/>
     <use xlink:href="#DejaVuSans-55" transform="translate(757.734375 0)"/>
     <use xlink:href="#DejaVuSans-4c" transform="translate(798.84375 0)"/>
     <use xlink:href="#DejaVuSans-51" transform="translate(826.625 0)"/>
     <use xlink:href="#DejaVuSans-4a" transform="translate(890 0)"/>
     <use xlink:href="#DejaVuSans-3" transform="translate(953.484375 0)"/>
     <use xlink:href="#DejaVuSans-45" transform="translate(985.265625 0)"/>
     <use xlink:href="#DejaVuSans-5c" transform="translate(1048.75 0)"/>
     <use xlink:href="#DejaVuSans-3" transform="translate(1107.9375 0)"/>
     <use xlink:href="#DejaVuSans-13" transform="translate(1139.71875 0)"/>
     <use xlink:href="#DejaVuSans-11" transform="translate(1203.34375 0)"/>
     <use xlink:href="#DejaVuSans-13" transform="translate(1235.125 0)"/>
     <use xlink:href="#DejaVuSans-13" transform="translate(1298.75 0)"/>
     <use xlink:href="#DejaVuSans-14" transform="translate(1362.375 0)"/>
     <use xlink:href="#DejaVuSans-3" transform="translate(1426 0)"/>
     <use xlink:href="#DejaVuSans-3" transform="translate(1457.78125 0)"/>
     <use xlink:href="#DejaVuSans-b" transform="translate(1489.5625 0)"/>
     <use xlink:href="#DejaVuSans-4f" transform="translate(1528.578125 0)"/>
     <use xlink:href="#DejaVuSans-52" transform="translate(1556.359375 0)"/>
     <use xlink:href="#DejaVuSans-4a" transform="translate(1617.546875 0)"/>
     <use xlink:href="#DejaVuSans-4c" transform="translate(1681.03125 0)"/>
     <use xlink:href="#DejaVuSans-56" transform="translate(1708.8125 0)"/>
     <use xlink:href="#DejaVuSans-57" transform="translate(1760.90625 0)"/>
     <use xlink:href="#DejaVuSans-4c" transform="translate(1800.109375 0)"/>
     <use xlink:href="#DejaVuSans-46" transform="translate(1827.890625 0)"/>
     <use xlink:href="#DejaVuSans-f" transform="translate(1882.875 0)"/>
     <use xlink:href="#DejaVuSans-3" transform="translate(1914.65625 0)"/>
     <use xlink:href="#DejaVuSans-55" transform="translate(1946.4375 0)"/>
     <use xlink:href="#DejaVuSans-3" transform="translate(1987.546875 0)"/>
     <use xlink:href="#DejaVuSans-20" transform="translate(2019.328125 0)"/>
     <use xlink:href="#DejaVuSans-3" transform="translate(2103.125 0)"/>
     <use xlink:href="#DejaVuSans-17" transform="translate(2134.90625 0)"/>
     <use xlink:href="#DejaVuSans-c" transform="translate(2198.53125 0)"/>
    </g>
   </g>
   <g id="legend_1">
    <g id="line2d_14">
     <path d="M 377.492188 172.488047 
L 386.492188 172.488047 
L 395.492188 172.488047 
" style="fill: none; stroke: #2b5b84; stroke-width: 1.6; stroke-linecap: square"/>
     <g>
      <use xlink:href="#m2e19e16a81" x="386.492188" y="172.488047" style="fill: #2b5b84; stroke: #2b5b84"/>
     </g>
    </g>
    <g id="text_17">
     <!-- x0 = 0.300 -->
     <g transform="translate(402.692187 175.638047) scale(0.09 -0.09)">
      <use xlink:href="#DejaVuSans-5b"/>
      <use xlink:href="#DejaVuSans-13" transform="translate(59.1875 0)"/>
      <use xlink:href="#DejaVuSans-3" transform="translate(122.8125 0)"/>
      <use xlink:href="#DejaVuSans-20" transform="translate(154.59375 0)"/>
      <use xlink:href="#DejaVuSans-3" transform="translate(238.390625 0)"/>
      <use xlink:href="#DejaVuSans-13" transform="translate(270.171875 0)"/>
      <use xlink:href="#DejaVuSans-11" transform="translate(333.796875 0)"/>
      <use xlink:href="#DejaVuSans-16" transform="translate(365.578125 0)"/>
      <use xlink:href="#DejaVuSans-13" transform="translate(429.203125 0)"/>
      <use xlink:href="#DejaVuSans-13" transform="translate(492.828125 0)"/>
     </g>
    </g>
    <g id="line2d_15">
     <path d="M 377.492188 185.98875 
L 386.492188 185.98875 
L 395.492188 185.98875 
" style="fill: none; stroke: #c0532b; stroke-width: 1.6; stroke-linecap: square"/>
     <g>
      <use xlink:href="#ma1e41edcbf" x="386.492188" y="185.98875" style="fill: #c0532b; stroke: #c0532b"/>
     </g>
    </g>
    <g id="text_18">
     <!-- x0 = 0.301 (+0.001) -->
     <g transform="translate(402.692187 189.13875) scale(0.09 -0.09)">
      <defs>
       <path id="DejaVuSans-e" d="M 2944 4013 
L 2944 2272 
L 4684 2272 
L 4684 1741 
L 2944 1741 
L 2944 0 
L 2419 0 
L 2419 1741 
L 678 1741 
L 678 2272 
L 2419 2272 
L 2419 4013 
L 2944 4013 
z
" transform="scale(0.015625)"/>
      </defs>
      <use xlink:href="#DejaVuSans-5b"/>
      <use xlink:href="#DejaVuSans-13" transform="translate(59.1875 0)"/>
      <use xlink:href="#DejaVuSans-3" transform="translate(122.8125 0)"/>
      <use xlink:href="#DejaVuSans-20" transform="translate(154.59375 0)"/>
      <use xlink:href="#DejaVuSans-3" transform="translate(238.390625 0)"/>
      <use xlink:href="#DejaVuSans-13" transform="translate(270.171875 0)"/>
      <use xlink:href="#DejaVuSans-11" transform="translate(333.796875 0)"/>
      <use xlink:href="#DejaVuSans-16" transform="translate(365.578125 0)"/>
      <use xlink:href="#DejaVuSans-13" transform="translate(429.203125 0)"/>
      <use xlink:href="#DejaVuSans-14" transform="translate(492.828125 0)"/>
      <use xlink:href="#DejaVuSans-3" transform="translate(556.453125 0)"/>
      <use xlink:href="#DejaVuSans-b" transform="translate(588.234375 0)"/>
      <use xlink:href="#DejaVuSans-e" transform="translate(627.25 0)"/>
      <use xlink:href="#DejaVuSans-13" transform="translate(711.046875 0)"/>
      <use xlink:href="#DejaVuSans-11" transform="translate(774.671875 0)"/>
      <use xlink:href="#DejaVuSans-13" transform="translate(806.453125 0)"/>
      <use xlink:href="#DejaVuSans-13" transform="translate(870.078125 0)"/>
      <use xlink:href="#DejaVuSans-14" transform="translate(933.703125 0)"/>
      <use xlink:href="#DejaVuSans-c" transform="translate(997.328125 0)"/>
     </g>
    </g>
   </g>
  </g>
 </g>
 <defs>
  <clipPath id="p57c894a1c8">
   <rect x="44.103125" y="21.558281" width="459.96" height="177.842578"/>
  </clipPath>
 </defs>
</svg>
