<?xml version="1.0" encoding="utf-8" standalone="no"?>
<!DOCTYPE svg PUBLIC "-//W3C//DTD SVG 1.1//EN"
  "http://www.w3.org/Graphics/SVG/1.1/DTD/svg11.dtd">
<svg xmlns:xlink="http://www.w3.org/1999/xlink" width="352.297266pt" height="352.800859pt" viewBox="0 0 352.297266 352.800859" xmlns="http://www.w3.org/2000/svg" version="1.1">
 <metadata>
  <rdf:RDF xmlns:dc="http://purl.org/dc/elements/1.1/" xmlns:cc="http://creativecommons.org/ns#" xmlns:rdf="http://www.w3.org/1999/02/22-rdf-syntax-ns#">
   <cc:Work>
    <dc:type rdf:resource="http://purl.org/dc/dcmitype/StillImage"/>
    <dc:date>2026-06-20T15:04:16.302987</dc:date>
    <dc:format>image/svg+xml</dc:format>
    <dc:creator>
     <cc:Agent>
      <dc:title>Matplotlib v3.11.0, https://matplotlib.org/</dc:title>
     </cc:Agent>
    </dc:creator>
   </cc:Work>
  </rdf:RDF>
 </metadata>
 <defs>
  <style type="text/css">*{stroke-linejoin: round; stroke-linecap: butt}</style>
 </defs>
 <g id="figure_1">
  <g id="patch_1">
   <path d="M 0 352.800859 
L 352.297266 352.800859 
L 352.297266 0 
L 0 0 
z
" style="fill: #fdfcf9"/>
  </g>
  <g id="axes_1">
   <g id="patch_2">
    <path d="M 44.103125 314.600859 
L 337.145703 314.600859 
L 337.145703 21.558281 
L 44.103125 21.558281 
z
" style="fill: #fdfcf9"/>
   </g>
   <g id="matplotlib.axis_1">
    <g id="xtick_1">
     <g id="line2d_1">
      <defs>
       <path id="mdec403e8df" d="M 0 0 
L 0 3.5 
" style="stroke: #1a1a1a; stroke-width: 0.8"/>
      </defs>
      <g>
       <use xlink:href="#mdec403e8df" x="44.103125" y="314.600859" style="fill: #1a1a1a; stroke: #1a1a1a; stroke-width: 0.8"/>
      </g>
     </g>
     <g id="text_1">
      <!-- 0.0 -->
      <g style="fill: #1a1a1a" transform="translate(36.151563 329.198516) scale(0.1 -0.1)">
       <defs>
        <path id="DejaVuSans-13" d="M 2034 4250 
Q 1547 4250 1301 3770 
Q 1056 3291 1056 2328 
Q 1056 1369 1301 889 
Q 1547 409 2034 409 
Q 2525 409 2770 889 
Q 3016 1369 3016 2328 
Q 3016 3291 2770 3770 
Q 2525 4250 2034 4250 
z
M 2034 4750 
Q 2819 4750 3233 4129 
Q 3647 3509 3647 2328 
Q 3647 1150 3233 529 
Q 2819 -91 2034 -91 
Q 1250 -91 836 529 
Q 422 1150 422 2328 
Q 422 3509 836 4129 
Q 1250 4750 2034 4750 
z
" transform="scale(0.015625)"/>
        <path id="DejaVuSans-11" d="M 684 794 
L 1344 794 
L 1344 0 
L 684 0 
L 684 794 
z
" transform="scale(0.015625)"/>
       </defs>
       <use xlink:href="#DejaVuSans-13"/>
       <use xlink:href="#DejaVuSans-11" transform="translate(63.625 0)"/>
       <use xlink:href="#DejaVuSans-13" transform="translate(95.40625 0)"/>
      </g>
     </g>
    </g>
    <g id="xtick_2">
     <g id="line2d_2">
      <g>
       <use xlink:href="#mdec403e8df" x="102.711641" y="314.600859" style="fill: #1a1a1a; stroke: #1a1a1a; stroke-width: 0.8"/>
      </g>
     </g>
     <g id="text_2">
      <!-- 0.2 -->
      <g style="fill: #1a1a1a" transform="translate(94.760078 329.198516) scale(0.1 -0.1)">
       <defs>
        <path id="DejaVuSans-15" d="M 1228 531 
L 3431 531 
L 3431 0 
L 469 0 
L 469 531 
Q 828 903 1448 1529 
Q 2069 2156 2228 2338 
Q 2531 2678 2651 2914 
Q 2772 3150 2772 3378 
Q 2772 3750 2511 3984 
Q 2250 4219 1831 4219 
Q 1534 4219 1204 4116 
Q 875 4013 500 3803 
L 500 4441 
Q 881 4594 1212 4672 
Q 1544 4750 1819 4750 
Q 2544 4750 2975 4387 
Q 3406 4025 3406 3419 
Q 3406 3131 3298 2873 
Q 3191 2616 2906 2266 
Q 2828 2175 2409 1742 
Q 1991 1309 1228 531 
z
" transform="scale(0.015625)"/>
       </defs>
       <use xlink:href="#DejaVuSans-13"/>
       <use xlink:href="#DejaVuSans-11" transform="translate(63.625 0)"/>
       <use xlink:href="#DejaVuSans-15" transform="translate(95.40625 0)"/>
      </g>
     </g>
    </g>
    <g id="xtick_3">
     <g id="line2d_3">
      <g>
       <use xlink:href="#mdec403e8df" x="161.320156" y="314.600859" style="fill: #1a1a1a; stroke: #1a1a1a; stroke-width: 0.8"/>
      </g>
     </g>
     <g id="text_3">
      <!-- 0.4 -->
      <g style="fill: #1a1a1a" transform="translate(153.368594 329.198516) scale(0.1 -0.1)">
       <defs>
        <path id="DejaVuSans-17" d="M 2419 4116 
L 825 1625 
L 2419 1625 
L 2419 4116 
z
M 2253 4666 
L 3047 4666 
L 3047 1625 
L 3713 1625 
L 3713 1100 
L 3047 1100 
L 3047 0 
L 2419 0 
L 2419 1100 
L 313 1100 
L 313 1709 
L 2253 4666 
z
" transform="scale(0.015625)"/>
       </defs>
       <use xlink:href="#DejaVuSans-13"/>
       <use xlink:href="#DejaVuSans-11" transform="translate(63.625 0)"/>
       <use xlink:href="#DejaVuSans-17" transform="translate(95.40625 0)"/>
      </g>
     </g>
    </g>
    <g id="xtick_4">
     <g id="line2d_4">
      <g>
       <use xlink:href="#mdec403e8df" x="219.928672" y="314.600859" style="fill: #1a1a1a; stroke: #1a1a1a; stroke-width: 0.8"/>
      </g>
     </g>
     <g id="text_4">
      <!-- 0.6 -->
      <g style="fill: #1a1a1a" transform="translate(211.977109 329.198516) scale(0.1 -0.1)">
       <defs>
        <path id="DejaVuSans-19" d="M 2113 2584 
Q 1688 2584 1439 2293 
Q 1191 2003 1191 1497 
Q 1191 994 1439 701 
Q 1688 409 2113 409 
Q 2538 409 2786 701 
Q 3034 994 3034 1497 
Q 3034 2003 2786 2293 
Q 2538 2584 2113 2584 
z
M 3366 4563 
L 3366 3988 
Q 3128 4100 2886 4159 
Q 2644 4219 2406 4219 
Q 1781 4219 1451 3797 
Q 1122 3375 1075 2522 
Q 1259 2794 1537 2939 
Q 1816 3084 2150 3084 
Q 2853 3084 3261 2657 
Q 3669 2231 3669 1497 
Q 3669 778 3244 343 
Q 2819 -91 2113 -91 
Q 1303 -91 875 529 
Q 447 1150 447 2328 
Q 447 3434 972 4092 
Q 1497 4750 2381 4750 
Q 2619 4750 2861 4703 
Q 3103 4656 3366 4563 
z
" transform="scale(0.015625)"/>
       </defs>
       <use xlink:href="#DejaVuSans-13"/>
       <use xlink:href="#DejaVuSans-11" transform="translate(63.625 0)"/>
       <use xlink:href="#DejaVuSans-19" transform="translate(95.40625 0)"/>
      </g>
     </g>
    </g>
    <g id="xtick_5">
     <g id="line2d_5">
      <g>
       <use xlink:href="#mdec403e8df" x="278.537188" y="314.600859" style="fill: #1a1a1a; stroke: #1a1a1a; stroke-width: 0.8"/>
      </g>
     </g>
     <g id="text_5">
      <!-- 0.8 -->
      <g style="fill: #1a1a1a" transform="translate(270.585625 329.198516) scale(0.1 -0.1)">
       <defs>
        <path id="DejaVuSans-1b" d="M 2034 2216 
Q 1584 2216 1326 1975 
Q 1069 1734 1069 1313 
Q 1069 891 1326 650 
Q 1584 409 2034 409 
Q 2484 409 2743 651 
Q 3003 894 3003 1313 
Q 3003 1734 2745 1975 
Q 2488 2216 2034 2216 
z
M 1403 2484 
Q 997 2584 770 2862 
Q 544 3141 544 3541 
Q 544 4100 942 4425 
Q 1341 4750 2034 4750 
Q 2731 4750 3128 4425 
Q 3525 4100 3525 3541 
Q 3525 3141 3298 2862 
Q 3072 2584 2669 2484 
Q 3125 2378 3379 2068 
Q 3634 1759 3634 1313 
Q 3634 634 3220 271 
Q 2806 -91 2034 -91 
Q 1263 -91 848 271 
Q 434 634 434 1313 
Q 434 1759 690 2068 
Q 947 2378 1403 2484 
z
M 1172 3481 
Q 1172 3119 1398 2916 
Q 1625 2713 2034 2713 
Q 2441 2713 2670 2916 
Q 2900 3119 2900 3481 
Q 2900 3844 2670 4047 
Q 2441 4250 2034 4250 
Q 1625 4250 1398 4047 
Q 1172 3844 1172 3481 
z
" transform="scale(0.015625)"/>
       </defs>
       <use xlink:href="#DejaVuSans-13"/>
       <use xlink:href="#DejaVuSans-11" transform="translate(63.625 0)"/>
       <use xlink:href="#DejaVuSans-1b" transform="translate(95.40625 0)"/>
      </g>
     </g>
    </g>
    <g id="xtick_6">
     <g id="line2d_6">
      <g>
       <use xlink:href="#mdec403e8df" x="337.145703" y="314.600859" style="fill: #1a1a1a; stroke: #1a1a1a; stroke-width: 0.8"/>
      </g>
     </g>
     <g id="text_6">
      <!-- 1.0 -->
      <g style="fill: #1a1a1a" transform="translate(329.194141 329.198516) scale(0.1 -0.1)">
       <defs>
        <path id="DejaVuSans-14" d="M 794 531 
L 1825 531 
L 1825 4091 
L 703 3866 
L 703 4441 
L 1819 4666 
L 2450 4666 
L 2450 531 
L 3481 531 
L 3481 0 
L 794 0 
L 794 531 
z
" transform="scale(0.015625)"/>
       </defs>
       <use xlink:href="#DejaVuSans-14"/>
       <use xlink:href="#DejaVuSans-11" transform="translate(63.625 0)"/>
       <use xlink:href="#DejaVuSans-13" transform="translate(95.40625 0)"/>
      </g>
     </g>
    </g>
    <g id="text_7">
     <!-- xₙ -->
     <g style="fill: #1a1a1a" transform="translate(185.672852 343.198516) scale(0.1 -0.1)">
      <defs>
       <path id="DejaVuSans-5b" d="M 3513 3500 
L 2247 1797 
L 3578 0 
L 2900 0 
L 1881 1375 
L 863 0 
L 184 0 
L 1544 1831 
L 300 3500 
L 978 3500 
L 1906 2253 
L 2834 3500 
L 3513 3500 
z
" transform="scale(0.015625)"/>
       <path id="DejaVuSans-b73" d="M 2213 1184 
L 2213 0 
L 1850 0 
L 1850 1171 
Q 1850 1450 1728 1589 
Q 1606 1728 1363 1728 
Q 1069 1728 900 1560 
Q 731 1393 731 1106 
L 731 0 
L 366 0 
L 366 1959 
L 731 1959 
L 731 1656 
Q 859 1831 1036 1918 
Q 1213 2006 1444 2006 
Q 1822 2006 2017 1796 
Q 2213 1587 2213 1184 
z
" transform="scale(0.015625)"/>
      </defs>
      <use xlink:href="#DejaVuSans-5b"/>
      <use xlink:href="#DejaVuSans-b73" transform="translate(59.1875 0)"/>
     </g>
    </g>
   </g>
   <g id="matplotlib.axis_2">
    <g id="ytick_1">
     <g id="line2d_7">
      <defs>
       <path id="mc8c9043474" d="M 0 0 
L -3.5 0 
" style="stroke: #1a1a1a; stroke-width: 0.8"/>
      </defs>
      <g>
       <use xlink:href="#mc8c9043474" x="44.103125" y="314.600859" style="fill: #1a1a1a; stroke: #1a1a1a; stroke-width: 0.8"/>
      </g>
     </g>
     <g id="text_8">
      <!-- 0.0 -->
      <g style="fill: #1a1a1a" transform="translate(21.2 318.399687) scale(0.1 -0.1)">
       <use xlink:href="#DejaVuSans-13"/>
       <use xlink:href="#DejaVuSans-11" transform="translate(63.625 0)"/>
       <use xlink:href="#DejaVuSans-13" transform="translate(95.40625 0)"/>
      </g>
     </g>
    </g>
    <g id="ytick_2">
     <g id="line2d_8">
      <g>
       <use xlink:href="#mc8c9043474" x="44.103125" y="255.992344" style="fill: #1a1a1a; stroke: #1a1a1a; stroke-width: 0.8"/>
      </g>
     </g>
     <g id="text_9">
      <!-- 0.2 -->
      <g style="fill: #1a1a1a" transform="translate(21.2 259.791172) scale(0.1 -0.1)">
       <use xlink:href="#DejaVuSans-13"/>
       <use xlink:href="#DejaVuSans-11" transform="translate(63.625 0)"/>
       <use xlink:href="#DejaVuSans-15" transform="translate(95.40625 0)"/>
      </g>
     </g>
    </g>
    <g id="ytick_3">
     <g id="line2d_9">
      <g>
       <use xlink:href="#mc8c9043474" x="44.103125" y="197.383828" style="fill: #1a1a1a; stroke: #1a1a1a; stroke-width: 0.8"/>
      </g>
     </g>
     <g id="text_10">
      <!-- 0.4 -->
      <g style="fill: #1a1a1a" transform="translate(21.2 201.182656) scale(0.1 -0.1)">
       <use xlink:href="#DejaVuSans-13"/>
       <use xlink:href="#DejaVuSans-11" transform="translate(63.625 0)"/>
       <use xlink:href="#DejaVuSans-17" transform="translate(95.40625 0)"/>
      </g>
     </g>
    </g>
    <g id="ytick_4">
     <g id="line2d_10">
      <g>
       <use xlink:href="#mc8c9043474" x="44.103125" y="138.775312" style="fill: #1a1a1a; stroke: #1a1a1a; stroke-width: 0.8"/>
      </g>
     </g>
     <g id="text_11">
      <!-- 0.6 -->
      <g style="fill: #1a1a1a" transform="translate(21.2 142.574141) scale(0.1 -0.1)">
       <use xlink:href="#DejaVuSans-13"/>
       <use xlink:href="#DejaVuSans-11" transform="translate(63.625 0)"/>
       <use xlink:href="#DejaVuSans-19" transform="translate(95.40625 0)"/>
      </g>
     </g>
    </g>
    <g id="ytick_5">
     <g id="line2d_11">
      <g>
       <use xlink:href="#mc8c9043474" x="44.103125" y="80.166797" style="fill: #1a1a1a; stroke: #1a1a1a; stroke-width: 0.8"/>
      </g>
     </g>
     <g id="text_12">
      <!-- 0.8 -->
      <g style="fill: #1a1a1a" transform="translate(21.2 83.965625) scale(0.1 -0.1)">
       <use xlink:href="#DejaVuSans-13"/>
       <use xlink:href="#DejaVuSans-11" transform="translate(63.625 0)"/>
       <use xlink:href="#DejaVuSans-1b" transform="translate(95.40625 0)"/>
      </g>
     </g>
    </g>
    <g id="ytick_6">
     <g id="line2d_12">
      <g>
       <use xlink:href="#mc8c9043474" x="44.103125" y="21.558281" style="fill: #1a1a1a; stroke: #1a1a1a; stroke-width: 0.8"/>
      </g>
     </g>
     <g id="text_13">
      <!-- 1.0 -->
      <g style="fill: #1a1a1a" transform="translate(21.2 25.357109) scale(0.1 -0.1)">
       <use xlink:href="#DejaVuSans-14"/>
       <use xlink:href="#DejaVuSans-11" transform="translate(63.625 0)"/>
       <use xlink:href="#DejaVuSans-13" transform="translate(95.40625 0)"/>
      </g>
     </g>
    </g>
    <g id="text_14">
     <!-- xₙ₊₁ -->
     <g style="fill: #1a1a1a" transform="translate(14.797656 177.674883) rotate(-90) scale(0.1 -0.1)">
      <defs>
       <path id="DejaVuSans-b65" d="M 1853 2246 
L 1853 1271 
L 2950 1271 
L 2950 975 
L 1853 975 
L 1853 0 
L 1525 0 
L 1525 975 
L 428 975 
L 428 1271 
L 1525 1271 
L 1525 2246 
L 1853 2246 
z
" transform="scale(0.015625)"/>
       <path id="DejaVuSans-b5c" d="M 488 343 
L 1125 343 
L 1125 2253 
L 428 2125 
L 428 2487 
L 1147 2609 
L 1575 2609 
L 1575 343 
L 2216 343 
L 2216 0 
L 488 0 
L 488 343 
z
" transform="scale(0.015625)"/>
      </defs>
      <use xlink:href="#DejaVuSans-5b"/>
      <use xlink:href="#DejaVuSans-b73" transform="translate(59.1875 0)"/>
      <use xlink:href="#DejaVuSans-b65" transform="translate(99.03125 0)"/>
      <use xlink:href="#DejaVuSans-b5c" transform="translate(151.8125 0)"/>
     </g>
    </g>
   </g>
   <g id="line2d_13">
    <path d="M 44.103125 314.600859 
L 49.978665 300.206522 
L 55.854206 286.401211 
L 61.729746 273.184926 
L 67.605287 260.557668 
L 73.480827 248.519437 
L 78.621925 238.46917 
L 83.763023 228.869877 
L 88.904121 219.721558 
L 94.045219 211.024212 
L 99.186316 202.777839 
L 104.327414 194.98244 
L 109.468512 187.638015 
L 113.875167 181.701731 
L 118.281823 176.096775 
L 122.688478 170.823146 
L 127.095133 165.880844 
L 131.501789 161.269871 
L 135.908444 156.990224 
L 140.315099 153.041905 
L 144.721755 149.424914 
L 149.12841 146.13925 
L 152.800623 143.654294 
L 156.472835 141.399426 
L 160.145048 139.374647 
L 163.817261 137.579957 
L 167.489474 136.015355 
L 171.161686 134.680841 
L 174.833899 133.576416 
L 178.506112 132.70208 
L 182.178325 132.057832 
L 185.850537 131.643673 
L 189.52275 131.459602 
L 193.194963 131.50562 
L 196.867176 131.781726 
L 200.539389 132.287921 
L 204.211601 133.024204 
L 207.883814 133.990576 
L 211.556027 135.187036 
L 215.22824 136.613585 
L 218.900452 138.270222 
L 222.572665 140.156948 
L 226.244878 142.273762 
L 229.917091 144.620665 
L 233.589303 147.197657 
L 237.995959 150.593763 
L 242.402614 154.321197 
L 246.809269 158.379959 
L 251.215925 162.770048 
L 255.62258 167.491464 
L 260.029235 172.544208 
L 264.435891 177.928279 
L 268.842546 183.643678 
L 273.249201 189.690404 
L 277.655856 196.068458 
L 282.796954 203.928282 
L 287.938052 212.239079 
L 293.07915 221.00085 
L 298.220248 230.213594 
L 303.361346 239.877312 
L 308.502444 249.992003 
L 313.643541 260.557668 
L 319.519082 273.184926 
L 325.394622 286.401211 
L 331.270163 300.206522 
L 337.145703 314.600859 
L 337.145703 314.600859 
" clip-path="url(#pd94b142df2)" style="fill: none; stroke: #2b5b84; stroke-width: 1.8; stroke-linecap: square"/>
   </g>
   <g id="line2d_14">
    <path d="M 44.103125 314.600859 
L 337.145703 21.558281 
" clip-path="url(#pd94b142df2)" style="fill: none; stroke-dasharray: 3.7,1.6; stroke-dashoffset: 0; stroke: #1a1a1a"/>
   </g>
   <g id="line2d_15">
    <path d="M 73.407383 285.296602 
L 73.407383 248.666279 
" clip-path="url(#pd94b142df2)" style="fill: none; stroke: #c0532b; stroke-width: 0.9; stroke-linecap: square"/>
   </g>
   <g id="line2d_16">
    <path d="M 73.407383 248.666279 
L 110.037705 248.666279 
" clip-path="url(#pd94b142df2)" style="fill: none; stroke: #c0532b; stroke-width: 0.9; stroke-linecap: square"/>
   </g>
   <g id="line2d_17">
    <path d="M 110.037705 248.666279 
L 110.037705 186.85261 
" clip-path="url(#pd94b142df2)" style="fill: none; stroke: #c0532b; stroke-width: 0.9; stroke-linecap: square"/>
   </g>
   <g id="line2d_18">
    <path d="M 110.037705 186.85261 
L 171.851374 186.85261 
" clip-path="url(#pd94b142df2)" style="fill: none; stroke: #c0532b; stroke-width: 0.9; stroke-linecap: square"/>
   </g>
   <g id="line2d_19">
    <path d="M 171.851374 186.85261 
L 171.851374 134.455868 
" clip-path="url(#pd94b142df2)" style="fill: none; stroke: #c0532b; stroke-width: 0.9; stroke-linecap: square"/>
   </g>
   <g id="line2d_20">
    <path d="M 171.851374 134.455868 
L 224.248117 134.455868 
" clip-path="url(#pd94b142df2)" style="fill: none; stroke: #c0532b; stroke-width: 0.9; stroke-linecap: square"/>
   </g>
   <g id="line2d_21">
    <path d="M 224.248117 134.455868 
L 224.248117 141.094206 
" clip-path="url(#pd94b142df2)" style="fill: none; stroke: #c0532b; stroke-width: 0.9; stroke-linecap: square"/>
   </g>
   <g id="line2d_22">
    <path d="M 224.248117 141.094206 
L 217.609778 141.094206 
" clip-path="url(#pd94b142df2)" style="fill: none; stroke: #c0532b; stroke-width: 0.9; stroke-linecap: square"/>
   </g>
   <g id="line2d_23">
    <path d="M 217.609778 141.094206 
L 217.609778 137.66174 
" clip-path="url(#pd94b142df2)" style="fill: none; stroke: #c0532b; stroke-width: 0.9; stroke-linecap: square"/>
   </g>
   <g id="line2d_24">
    <path d="M 217.609778 137.66174 
L 221.042244 137.66174 
" clip-path="url(#pd94b142df2)" style="fill: none; stroke: #c0532b; stroke-width: 0.9; stroke-linecap: square"/>
   </g>
   <g id="line2d_25">
    <path d="M 221.042244 137.66174 
L 221.042244 139.342678 
" clip-path="url(#pd94b142df2)" style="fill: none; stroke: #c0532b; stroke-width: 0.9; stroke-linecap: square"/>
   </g>
   <g id="line2d_26">
    <path d="M 221.042244 139.342678 
L 219.361307 139.342678 
" clip-path="url(#pd94b142df2)" style="fill: none; stroke: #c0532b; stroke-width: 0.9; stroke-linecap: square"/>
   </g>
   <g id="line2d_27">
    <path d="M 219.361307 139.342678 
L 219.361307 138.494376 
" clip-path="url(#pd94b142df2)" style="fill: none; stroke: #c0532b; stroke-width: 0.9; stroke-linecap: square"/>
   </g>
   <g id="line2d_28">
    <path d="M 219.361307 138.494376 
L 220.209608 138.494376 
" clip-path="url(#pd94b142df2)" style="fill: none; stroke: #c0532b; stroke-width: 0.9; stroke-linecap: square"/>
   </g>
   <g id="line2d_29">
    <path d="M 220.209608 138.494376 
L 220.209608 138.916454 
" clip-path="url(#pd94b142df2)" style="fill: none; stroke: #c0532b; stroke-width: 0.9; stroke-linecap: square"/>
   </g>
   <g id="line2d_30">
    <path d="M 220.209608 138.916454 
L 219.78753 138.916454 
" clip-path="url(#pd94b142df2)" style="fill: none; stroke: #c0532b; stroke-width: 0.9; stroke-linecap: square"/>
   </g>
   <g id="line2d_31">
    <path d="M 219.78753 138.916454 
L 219.78753 138.704912 
" clip-path="url(#pd94b142df2)" style="fill: none; stroke: #c0532b; stroke-width: 0.9; stroke-linecap: square"/>
   </g>
   <g id="line2d_32">
    <path d="M 219.78753 138.704912 
L 219.999073 138.704912 
" clip-path="url(#pd94b142df2)" style="fill: none; stroke: #c0532b; stroke-width: 0.9; stroke-linecap: square"/>
   </g>
   <g id="line2d_33">
    <path d="M 219.999073 138.704912 
L 219.999073 138.810555 
" clip-path="url(#pd94b142df2)" style="fill: none; stroke: #c0532b; stroke-width: 0.9; stroke-linecap: square"/>
   </g>
   <g id="line2d_34">
    <path d="M 219.999073 138.810555 
L 219.893429 138.810555 
" clip-path="url(#pd94b142df2)" style="fill: none; stroke: #c0532b; stroke-width: 0.9; stroke-linecap: square"/>
   </g>
   <g id="line2d_35">
    <path d="M 219.893429 138.810555 
L 219.893429 138.757702 
" clip-path="url(#pd94b142df2)" style="fill: none; stroke: #c0532b; stroke-width: 0.9; stroke-linecap: square"/>
   </g>
   <g id="line2d_36">
    <path d="M 219.893429 138.757702 
L 219.946283 138.757702 
" clip-path="url(#pd94b142df2)" style="fill: none; stroke: #c0532b; stroke-width: 0.9; stroke-linecap: square"/>
   </g>
   <g id="line2d_37">
    <path d="M 219.946283 138.757702 
L 219.946283 138.784121 
" clip-path="url(#pd94b142df2)" style="fill: none; stroke: #c0532b; stroke-width: 0.9; stroke-linecap: square"/>
   </g>
   <g id="line2d_38">
    <path d="M 219.946283 138.784121 
L 219.919864 138.784121 
" clip-path="url(#pd94b142df2)" style="fill: none; stroke: #c0532b; stroke-width: 0.9; stroke-linecap: square"/>
   </g>
   <g id="line2d_39">
    <path d="M 219.919864 138.784121 
L 219.919864 138.770909 
" clip-path="url(#pd94b142df2)" style="fill: none; stroke: #c0532b; stroke-width: 0.9; stroke-linecap: square"/>
   </g>
   <g id="line2d_40">
    <path d="M 219.919864 138.770909 
L 219.933075 138.770909 
" clip-path="url(#pd94b142df2)" style="fill: none; stroke: #c0532b; stroke-width: 0.9; stroke-linecap: square"/>
   </g>
   <g id="line2d_41">
    <path d="M 219.933075 138.770909 
L 219.933075 138.777514 
" clip-path="url(#pd94b142df2)" style="fill: none; stroke: #c0532b; stroke-width: 0.9; stroke-linecap: square"/>
   </g>
   <g id="line2d_42">
    <path d="M 219.933075 138.777514 
L 219.92647 138.777514 
" clip-path="url(#pd94b142df2)" style="fill: none; stroke: #c0532b; stroke-width: 0.9; stroke-linecap: square"/>
   </g>
   <g id="line2d_43">
    <path d="M 219.92647 138.777514 
L 219.92647 138.774212 
" clip-path="url(#pd94b142df2)" style="fill: none; stroke: #c0532b; stroke-width: 0.9; stroke-linecap: square"/>
   </g>
   <g id="line2d_44">
    <path d="M 219.92647 138.774212 
L 219.929773 138.774212 
" clip-path="url(#pd94b142df2)" style="fill: none; stroke: #c0532b; stroke-width: 0.9; stroke-linecap: square"/>
   </g>
   <g id="line2d_45">
    <path d="M 219.929773 138.774212 
L 219.929773 138.775863 
" clip-path="url(#pd94b142df2)" style="fill: none; stroke: #c0532b; stroke-width: 0.9; stroke-linecap: square"/>
   </g>
   <g id="line2d_46">
    <path d="M 219.929773 138.775863 
L 219.928121 138.775863 
" clip-path="url(#pd94b142df2)" style="fill: none; stroke: #c0532b; stroke-width: 0.9; stroke-linecap: square"/>
   </g>
   <g id="line2d_47">
    <path d="M 219.928121 138.775863 
L 219.928121 138.775037 
" clip-path="url(#pd94b142df2)" style="fill: none; stroke: #c0532b; stroke-width: 0.9; stroke-linecap: square"/>
   </g>
   <g id="line2d_48">
    <path d="M 219.928121 138.775037 
L 219.928947 138.775037 
" clip-path="url(#pd94b142df2)" style="fill: none; stroke: #c0532b; stroke-width: 0.9; stroke-linecap: square"/>
   </g>
   <g id="line2d_49">
    <path d="M 219.928947 138.775037 
L 219.928947 138.77545 
" clip-path="url(#pd94b142df2)" style="fill: none; stroke: #c0532b; stroke-width: 0.9; stroke-linecap: square"/>
   </g>
   <g id="line2d_50">
    <path d="M 219.928947 138.77545 
L 219.928534 138.77545 
" clip-path="url(#pd94b142df2)" style="fill: none; stroke: #c0532b; stroke-width: 0.9; stroke-linecap: square"/>
   </g>
   <g id="line2d_51">
    <path d="M 219.928534 138.77545 
L 219.928534 138.775244 
" clip-path="url(#pd94b142df2)" style="fill: none; stroke: #c0532b; stroke-width: 0.9; stroke-linecap: square"/>
   </g>
   <g id="line2d_52">
    <path d="M 219.928534 138.775244 
L 219.928741 138.775244 
" clip-path="url(#pd94b142df2)" style="fill: none; stroke: #c0532b; stroke-width: 0.9; stroke-linecap: square"/>
   </g>
   <g id="line2d_53">
    <path d="M 219.928741 138.775244 
L 219.928741 138.775347 
" clip-path="url(#pd94b142df2)" style="fill: none; stroke: #c0532b; stroke-width: 0.9; stroke-linecap: square"/>
   </g>
   <g id="line2d_54">
    <path d="M 219.928741 138.775347 
L 219.928637 138.775347 
" clip-path="url(#pd94b142df2)" style="fill: none; stroke: #c0532b; stroke-width: 0.9; stroke-linecap: square"/>
   </g>
   <g id="line2d_55">
    <path d="M 219.928637 138.775347 
L 219.928637 138.775295 
" clip-path="url(#pd94b142df2)" style="fill: none; stroke: #c0532b; stroke-width: 0.9; stroke-linecap: square"/>
   </g>
   <g id="line2d_56">
    <path d="M 219.928637 138.775295 
L 219.928689 138.775295 
" clip-path="url(#pd94b142df2)" style="fill: none; stroke: #c0532b; stroke-width: 0.9; stroke-linecap: square"/>
   </g>
   <g id="line2d_57">
    <path d="M 219.928689 138.775295 
L 219.928689 138.775321 
" clip-path="url(#pd94b142df2)" style="fill: none; stroke: #c0532b; stroke-width: 0.9; stroke-linecap: square"/>
   </g>
   <g id="line2d_58">
    <path d="M 219.928689 138.775321 
L 219.928663 138.775321 
" clip-path="url(#pd94b142df2)" style="fill: none; stroke: #c0532b; stroke-width: 0.9; stroke-linecap: square"/>
   </g>
   <g id="line2d_59">
    <path d="M 219.928663 138.775321 
L 219.928663 138.775308 
" clip-path="url(#pd94b142df2)" style="fill: none; stroke: #c0532b; stroke-width: 0.9; stroke-linecap: square"/>
   </g>
   <g id="line2d_60">
    <path d="M 219.928663 138.775308 
L 219.928676 138.775308 
" clip-path="url(#pd94b142df2)" style="fill: none; stroke: #c0532b; stroke-width: 0.9; stroke-linecap: square"/>
   </g>
   <g id="line2d_61">
    <path d="M 219.928676 138.775308 
L 219.928676 138.775315 
" clip-path="url(#pd94b142df2)" style="fill: none; stroke: #c0532b; stroke-width: 0.9; stroke-linecap: square"/>
   </g>
   <g id="line2d_62">
    <path d="M 219.928676 138.775315 
L 219.92867 138.775315 
" clip-path="url(#pd94b142df2)" style="fill: none; stroke: #c0532b; stroke-width: 0.9; stroke-linecap: square"/>
   </g>
   <g id="line2d_63">
    <path d="M 219.92867 138.775315 
L 219.92867 138.775311 
" clip-path="url(#pd94b142df2)" style="fill: none; stroke: #c0532b; stroke-width: 0.9; stroke-linecap: square"/>
   </g>
   <g id="line2d_64">
    <path d="M 219.92867 138.775311 
L 219.928673 138.775311 
" clip-path="url(#pd94b142df2)" style="fill: none; stroke: #c0532b; stroke-width: 0.9; stroke-linecap: square"/>
   </g>
   <g id="line2d_65">
    <path d="M 219.928673 138.775311 
L 219.928673 138.775313 
" clip-path="url(#pd94b142df2)" style="fill: none; stroke: #c0532b; stroke-width: 0.9; stroke-linecap: square"/>
   </g>
   <g id="line2d_66">
    <path d="M 219.928673 138.775313 
L 219.928671 138.775313 
" clip-path="url(#pd94b142df2)" style="fill: none; stroke: #c0532b; stroke-width: 0.9; stroke-linecap: square"/>
   </g>
   <g id="line2d_67">
    <path d="M 219.928671 138.775313 
L 219.928671 138.775312 
" clip-path="url(#pd94b142df2)" style="fill: none; stroke: #c0532b; stroke-width: 0.9; stroke-linecap: square"/>
   </g>
   <g id="line2d_68">
    <path d="M 219.928671 138.775312 
L 219.928672 138.775312 
" clip-path="url(#pd94b142df2)" style="fill: none; stroke: #c0532b; stroke-width: 0.9; stroke-linecap: square"/>
   </g>
   <g id="line2d_69">
    <path d="M 219.928672 138.775312 
L 219.928672 138.775313 
" clip-path="url(#pd94b142df2)" style="fill: none; stroke: #c0532b; stroke-width: 0.9; stroke-linecap: square"/>
   </g>
   <g id="line2d_70">
    <path d="M 219.928672 138.775313 
L 219.928672 138.775313 
" clip-path="url(#pd94b142df2)" style="fill: none; stroke: #c0532b; stroke-width: 0.9; stroke-linecap: square"/>
   </g>
   <g id="line2d_71">
    <defs>
     <path id="mdc0f6ffcee" d="M 0 3 
C 0.795609 3 1.55874 2.683901 2.12132 2.12132 
C 2.683901 1.55874 3 0.795609 3 0 
C 3 -0.795609 2.683901 -1.55874 2.12132 -2.12132 
C 1.55874 -2.683901 0.795609 -3 0 -3 
C -0.795609 -3 -1.55874 -2.683901 -2.12132 -2.12132 
C -2.683901 -1.55874 -3 -0.795609 -3 0 
C -3 0.795609 -2.683901 1.55874 -2.12132 2.12132 
C -1.55874 2.683901 -0.795609 3 0 3 
z
" style="stroke: #1a1a1a"/>
    </defs>
    <g clip-path="url(#pd94b142df2)">
     <use xlink:href="#mdc0f6ffcee" x="219.928672" y="138.775312" style="fill: #1a1a1a; stroke: #1a1a1a"/>
    </g>
   </g>
   <g id="patch_3">
    <path d="M 44.103125 314.600859 
L 44.103125 21.558281 
" style="fill: none; stroke: #1a1a1a; stroke-width: 0.8; stroke-linejoin: miter; stroke-linecap: square"/>
   </g>
   <g id="patch_4">
    <path d="M 44.103125 314.600859 
L 337.145703 314.600859 
" style="fill: none; stroke: #1a1a1a; stroke-width: 0.8; stroke-linejoin: miter; stroke-linecap: square"/>
   </g>
   <g id="text_15">
    <!-- x* = 0.6 -->
    <g style="fill: #1a1a1a" transform="translate(225.789523 153.427441) scale(0.1 -0.1)">
     <defs>
      <path id="DejaVuSans-d" d="M 3009 3897 
L 1888 3291 
L 3009 2681 
L 2828 2375 
L 1778 3009 
L 1778 1831 
L 1422 1831 
L 1422 3009 
L 372 2375 
L 191 2681 
L 1313 3291 
L 191 3897 
L 372 4206 
L 1422 3572 
L 1422 4750 
L 1778 4750 
L 1778 3572 
L 2828 4206 
L 3009 3897 
z
" transform="scale(0.015625)"/>
      <path id="DejaVuSans-3" transform="scale(0.015625)"/>
      <path id="DejaVuSans-20" d="M 678 2906 
L 4684 2906 
L 4684 2381 
L 678 2381 
L 678 2906 
z
M 678 1631 
L 4684 1631 
L 4684 1100 
L 678 1100 
L 678 1631 
z
" transform="scale(0.015625)"/>
     </defs>
     <use xlink:href="#DejaVuSans-5b"/>
     <use xlink:href="#DejaVuSans-d" transform="translate(59.1875 0)"/>
     <use xlink:href="#DejaVuSans-3" transform="translate(109.1875 0)"/>
     <use xlink:href="#DejaVuSans-20" transform="translate(140.96875 0)"/>
     <use xlink:href="#DejaVuSans-3" transform="translate(224.765625 0)"/>
     <use xlink:href="#DejaVuSans-13" transform="translate(256.546875 0)"/>
     <use xlink:href="#DejaVuSans-11" transform="translate(320.171875 0)"/>
     <use xlink:href="#DejaVuSans-19" transform="translate(351.953125 0)"/>
    </g>
   </g>
   <g id="text_16">
    <!-- start 0.1 -->
    <g style="fill: #c0532b" transform="translate(54.340742 308.740008) scale(0.09 -0.09)">
     <defs>
      <path id="DejaVuSans-56" d="M 2834 3397 
L 2834 2853 
Q 2591 2978 2328 3040 
Q 2066 3103 1784 3103 
Q 1356 3103 1142 2972 
Q 928 2841 928 2578 
Q 928 2378 1081 2264 
Q 1234 2150 1697 2047 
L 1894 2003 
Q 2506 1872 2764 1633 
Q 3022 1394 3022 966 
Q 3022 478 2636 193 
Q 2250 -91 1575 -91 
Q 1294 -91 989 -36 
Q 684 19 347 128 
L 347 722 
Q 666 556 975 473 
Q 1284 391 1588 391 
Q 1994 391 2212 530 
Q 2431 669 2431 922 
Q 2431 1156 2273 1281 
Q 2116 1406 1581 1522 
L 1381 1569 
Q 847 1681 609 1914 
Q 372 2147 372 2553 
Q 372 3047 722 3315 
Q 1072 3584 1716 3584 
Q 2034 3584 2315 3537 
Q 2597 3491 2834 3397 
z
" transform="scale(0.015625)"/>
      <path id="DejaVuSans-57" d="M 1172 4494 
L 1172 3500 
L 2356 3500 
L 2356 3053 
L 1172 3053 
L 1172 1153 
Q 1172 725 1289 603 
Q 1406 481 1766 481 
L 2356 481 
L 2356 0 
L 1766 0 
Q 1100 0 847 248 
Q 594 497 594 1153 
L 594 3053 
L 172 3053 
L 172 3500 
L 594 3500 
L 594 4494 
L 1172 4494 
z
" transform="scale(0.015625)"/>
      <path id="DejaVuSans-44" d="M 2194 1759 
Q 1497 1759 1228 1600 
Q 959 1441 959 1056 
Q 959 750 1161 570 
Q 1363 391 1709 391 
Q 2188 391 2477 730 
Q 2766 1069 2766 1631 
L 2766 1759 
L 2194 1759 
z
M 3341 1997 
L 3341 0 
L 2766 0 
L 2766 531 
Q 2569 213 2275 61 
Q 1981 -91 1556 -91 
Q 1019 -91 701 211 
Q 384 513 384 1019 
Q 384 1609 779 1909 
Q 1175 2209 1959 2209 
L 2766 2209 
L 2766 2266 
Q 2766 2663 2505 2880 
Q 2244 3097 1772 3097 
Q 1472 3097 1187 3025 
Q 903 2953 641 2809 
L 641 3341 
Q 956 3463 1253 3523 
Q 1550 3584 1831 3584 
Q 2591 3584 2966 3190 
Q 3341 2797 3341 1997 
z
" transform="scale(0.015625)"/>
      <path id="DejaVuSans-55" d="M 2631 2963 
Q 2534 3019 2420 3045 
Q 2306 3072 2169 3072 
Q 1681 3072 1420 2755 
Q 1159 2438 1159 1844 
L 1159 0 
L 581 0 
L 581 3500 
L 1159 3500 
L 1159 2956 
Q 1341 3275 1631 3429 
Q 1922 3584 2338 3584 
Q 2397 3584 2469 3576 
Q 2541 3569 2628 3553 
L 2631 2963 
z
" transform="scale(0.015625)"/>
     </defs>
     <use xlink:href="#DejaVuSans-56"/>
     <use xlink:href="#DejaVuSans-57" transform="translate(52.09375 0)"/>
     <use xlink:href="#DejaVuSans-44" transform="translate(91.296875 0)"/>
     <use xlink:href="#DejaVuSans-55" transform="translate(152.578125 0)"/>
     <use xlink:href="#DejaVuSans-57" transform="translate(193.6875 0)"/>
     <use xlink:href="#DejaVuSans-3" transform="translate(232.890625 0)"/>
     <use xlink:href="#DejaVuSans-13" transform="translate(264.671875 0)"/>
     <use xlink:href="#DejaVuSans-11" transform="translate(328.296875 0)"/>
     <use xlink:href="#DejaVuSans-14" transform="translate(360.078125 0)"/>
    </g>
   </g>
   <g id="text_17">
    <!-- Cobweb: r = 2.5 spirals into x* = 0.6 -->
    <g style="fill: #1a1a1a" transform="translate(89.294648 15.558281) scale(0.11 -0.11)">
     <defs>
      <path id="DejaVuSans-26" d="M 4122 4306 
L 4122 3641 
Q 3803 3938 3442 4084 
Q 3081 4231 2675 4231 
Q 1875 4231 1450 3742 
Q 1025 3253 1025 2328 
Q 1025 1406 1450 917 
Q 1875 428 2675 428 
Q 3081 428 3442 575 
Q 3803 722 4122 1019 
L 4122 359 
Q 3791 134 3420 21 
Q 3050 -91 2638 -91 
Q 1578 -91 968 557 
Q 359 1206 359 2328 
Q 359 3453 968 4101 
Q 1578 4750 2638 4750 
Q 3056 4750 3426 4639 
Q 3797 4528 4122 4306 
z
" transform="scale(0.015625)"/>
      <path id="DejaVuSans-52" d="M 1959 3097 
Q 1497 3097 1228 2736 
Q 959 2375 959 1747 
Q 959 1119 1226 758 
Q 1494 397 1959 397 
Q 2419 397 2687 759 
Q 2956 1122 2956 1747 
Q 2956 2369 2687 2733 
Q 2419 3097 1959 3097 
z
M 1959 3584 
Q 2709 3584 3137 3096 
Q 3566 2609 3566 1747 
Q 3566 888 3137 398 
Q 2709 -91 1959 -91 
Q 1206 -91 779 398 
Q 353 888 353 1747 
Q 353 2609 779 3096 
Q 1206 3584 1959 3584 
z
" transform="scale(0.015625)"/>
      <path id="DejaVuSans-45" d="M 3116 1747 
Q 3116 2381 2855 2742 
Q 2594 3103 2138 3103 
Q 1681 3103 1420 2742 
Q 1159 2381 1159 1747 
Q 1159 1113 1420 752 
Q 1681 391 2138 391 
Q 2594 391 2855 752 
Q 3116 1113 3116 1747 
z
M 1159 2969 
Q 1341 3281 1617 3432 
Q 1894 3584 2278 3584 
Q 2916 3584 3314 3078 
Q 3713 2572 3713 1747 
Q 3713 922 3314 415 
Q 2916 -91 2278 -91 
Q 1894 -91 1617 61 
Q 1341 213 1159 525 
L 1159 0 
L 581 0 
L 581 4863 
L 1159 4863 
L 1159 2969 
z
" transform="scale(0.015625)"/>
      <path id="DejaVuSans-5a" d="M 269 3500 
L 844 3500 
L 1563 769 
L 2278 3500 
L 2956 3500 
L 3675 769 
L 4391 3500 
L 4966 3500 
L 4050 0 
L 3372 0 
L 2619 2869 
L 1863 0 
L 1184 0 
L 269 3500 
z
" transform="scale(0.015625)"/>
      <path id="DejaVuSans-48" d="M 3597 1894 
L 3597 1613 
L 953 1613 
Q 991 1019 1311 708 
Q 1631 397 2203 397 
Q 2534 397 2845 478 
Q 3156 559 3463 722 
L 3463 178 
Q 3153 47 2828 -22 
Q 2503 -91 2169 -91 
Q 1331 -91 842 396 
Q 353 884 353 1716 
Q 353 2575 817 3079 
Q 1281 3584 2069 3584 
Q 2775 3584 3186 3129 
Q 3597 2675 3597 1894 
z
M 3022 2063 
Q 3016 2534 2758 2815 
Q 2500 3097 2075 3097 
Q 1594 3097 1305 2825 
Q 1016 2553 972 2059 
L 3022 2063 
z
" transform="scale(0.015625)"/>
      <path id="DejaVuSans-1d" d="M 750 794 
L 1409 794 
L 1409 0 
L 750 0 
L 750 794 
z
M 750 3309 
L 1409 3309 
L 1409 2516 
L 750 2516 
L 750 3309 
z
" transform="scale(0.015625)"/>
      <path id="DejaVuSans-18" d="M 691 4666 
L 3169 4666 
L 3169 4134 
L 1269 4134 
L 1269 2991 
Q 1406 3038 1543 3061 
Q 1681 3084 1819 3084 
Q 2600 3084 3056 2656 
Q 3513 2228 3513 1497 
Q 3513 744 3044 326 
Q 2575 -91 1722 -91 
Q 1428 -91 1123 -41 
Q 819 9 494 109 
L 494 744 
Q 775 591 1075 516 
Q 1375 441 1709 441 
Q 2250 441 2565 725 
Q 2881 1009 2881 1497 
Q 2881 1984 2565 2268 
Q 2250 2553 1709 2553 
Q 1456 2553 1204 2497 
Q 953 2441 691 2322 
L 691 4666 
z
" transform="scale(0.015625)"/>
      <path id="DejaVuSans-53" d="M 1159 525 
L 1159 -1331 
L 581 -1331 
L 581 3500 
L 1159 3500 
L 1159 2969 
Q 1341 3281 1617 3432 
Q 1894 3584 2278 3584 
Q 2916 3584 3314 3078 
Q 3713 2572 3713 1747 
Q 3713 922 3314 415 
Q 2916 -91 2278 -91 
Q 1894 -91 1617 61 
Q 1341 213 1159 525 
z
M 3116 1747 
Q 3116 2381 2855 2742 
Q 2594 3103 2138 3103 
Q 1681 3103 1420 2742 
Q 1159 2381 1159 1747 
Q 1159 1113 1420 752 
Q 1681 391 2138 391 
Q 2594 391 2855 752 
Q 3116 1113 3116 1747 
z
" transform="scale(0.015625)"/>
      <path id="DejaVuSans-4c" d="M 603 3500 
L 1178 3500 
L 1178 0 
L 603 0 
L 603 3500 
z
M 603 4863 
L 1178 4863 
L 1178 4134 
L 603 4134 
L 603 4863 
z
" transform="scale(0.015625)"/>
      <path id="DejaVuSans-4f" d="M 603 4863 
L 1178 4863 
L 1178 0 
L 603 0 
L 603 4863 
z
" transform="scale(0.015625)"/>
      <path id="DejaVuSans-51" d="M 3513 2113 
L 3513 0 
L 2938 0 
L 2938 2094 
Q 2938 2591 2744 2837 
Q 2550 3084 2163 3084 
Q 1697 3084 1428 2787 
Q 1159 2491 1159 1978 
L 1159 0 
L 581 0 
L 581 3500 
L 1159 3500 
L 1159 2956 
Q 1366 3272 1645 3428 
Q 1925 3584 2291 3584 
Q 2894 3584 3203 3211 
Q 3513 2838 3513 2113 
z
" transform="scale(0.015625)"/>
     </defs>
     <use xlink:href="#DejaVuSans-26"/>
     <use xlink:href="#DejaVuSans-52" transform="translate(69.828125 0)"/>
     <use xlink:href="#DejaVuSans-45" transform="translate(131.015625 0)"/>
     <use xlink:href="#DejaVuSans-5a" transform="translate(194.5 0)"/>
     <use xlink:href="#DejaVuSans-48" transform="translate(276.28125 0)"/>
     <use xlink:href="#DejaVuSans-45" transform="translate(337.8125 0)"/>
     <use xlink:href="#DejaVuSans-1d" transform="translate(401.296875 0)"/>
     <use xlink:href="#DejaVuSans-3" transform="translate(434.984375 0)"/>
     <use xlink:href="#DejaVuSans-55" transform="translate(466.765625 0)"/>
     <use xlink:href="#DejaVuSans-3" transform="translate(507.875 0)"/>
     <use xlink:href="#DejaVuSans-20" transform="translate(539.65625 0)"/>
     <use xlink:href="#DejaVuSans-3" transform="translate(623.453125 0)"/>
     <use xlink:href="#DejaVuSans-15" transform="translate(655.234375 0)"/>
     <use xlink:href="#DejaVuSans-11" transform="translate(718.859375 0)"/>
     <use xlink:href="#DejaVuSans-18" transform="translate(750.640625 0)"/>
     <use xlink:href="#DejaVuSans-3" transform="translate(814.265625 0)"/>
     <use xlink:href="#DejaVuSans-56" transform="translate(846.046875 0)"/>
     <use xlink:href="#DejaVuSans-53" transform="translate(898.140625 0)"/>
     <use xlink:href="#DejaVuSans-4c" transform="translate(961.625 0)"/>
     <use xlink:href="#DejaVuSans-55" transform="translate(989.40625 0)"/>
     <use xlink:href="#DejaVuSans-44" transform="translate(1030.515625 0)"/>
     <use xlink:href="#DejaVuSans-4f" transform="translate(1091.796875 0)"/>
     <use xlink:href="#DejaVuSans-56" transform="translate(1119.578125 0)"/>
     <use xlink:href="#DejaVuSans-3" transform="translate(1171.671875 0)"/>
     <use xlink:href="#DejaVuSans-4c" transform="translate(1203.453125 0)"/>
     <use xlink:href="#DejaVuSans-51" transform="translate(1231.234375 0)"/>
     <use xlink:href="#DejaVuSans-57" transform="translate(1294.609375 0)"/>
     <use xlink:href="#DejaVuSans-52" transform="translate(1333.8125 0)"/>
     <use xlink:href="#DejaVuSans-3" transform="translate(1395 0)"/>
     <use xlink:href="#DejaVuSans-5b" transform="translate(1426.78125 0)"/>
     <use xlink:href="#DejaVuSans-d" transform="translate(1485.96875 0)"/>
     <use xlink:href="#DejaVuSans-3" transform="translate(1535.96875 0)"/>
     <use xlink:href="#DejaVuSans-20" transform="translate(1567.75 0)"/>
     <use xlink:href="#DejaVuSans-3" transform="translate(1651.546875 0)"/>
     <use xlink:href="#DejaVuSans-13" transform="translate(1683.328125 0)"/>
     <use xlink:href="#DejaVuSans-11" transform="translate(1746.953125 0)"/>
     <use xlink:href="#DejaVuSans-19" transform="translate(1778.734375 0)"/>
    </g>
   </g>
   <g id="legend_1">
    <g id="line2d_72">
     <path d="M 51.753125 32.691953 
L 60.253125 32.691953 
L 68.753125 32.691953 
" style="fill: none; stroke: #2b5b84; stroke-width: 1.8; stroke-linecap: square"/>
    </g>
    <g id="text_18">
     <!-- f(x) = 2.5·x·(1−x) -->
     <g transform="translate(75.553125 35.666953) scale(0.085 -0.085)">
      <defs>
       <path id="DejaVuSans-49" d="M 2375 4863 
L 2375 4384 
L 1825 4384 
Q 1516 4384 1395 4259 
Q 1275 4134 1275 3809 
L 1275 3500 
L 2222 3500 
L 2222 3053 
L 1275 3053 
L 1275 0 
L 697 0 
L 697 3053 
L 147 3053 
L 147 3500 
L 697 3500 
L 697 3744 
Q 697 4328 969 4595 
Q 1241 4863 1831 4863 
L 2375 4863 
z
" transform="scale(0.015625)"/>
       <path id="DejaVuSans-b" d="M 1984 4856 
Q 1566 4138 1362 3434 
Q 1159 2731 1159 2009 
Q 1159 1288 1364 580 
Q 1569 -128 1984 -844 
L 1484 -844 
Q 1016 -109 783 600 
Q 550 1309 550 2009 
Q 550 2706 781 3412 
Q 1013 4119 1484 4856 
L 1984 4856 
z
" transform="scale(0.015625)"/>
       <path id="DejaVuSans-c" d="M 513 4856 
L 1013 4856 
Q 1481 4119 1714 3412 
Q 1947 2706 1947 2009 
Q 1947 1309 1714 600 
Q 1481 -109 1013 -844 
L 513 -844 
Q 928 -128 1133 580 
Q 1338 1288 1338 2009 
Q 1338 2731 1133 3434 
Q 928 4138 513 4856 
z
" transform="scale(0.015625)"/>
       <path id="DejaVuSans-79" d="M 684 2619 
L 1344 2619 
L 1344 1825 
L 684 1825 
L 684 2619 
z
" transform="scale(0.015625)"/>
       <path id="DejaVuSans-c9c" d="M 678 2272 
L 4684 2272 
L 4684 1741 
L 678 1741 
L 678 2272 
z
" transform="scale(0.015625)"/>
      </defs>
      <use xlink:href="#DejaVuSans-49"/>
      <use xlink:href="#DejaVuSans-b" transform="translate(35.203125 0)"/>
      <use xlink:href="#DejaVuSans-5b" transform="translate(74.21875 0)"/>
      <use xlink:href="#DejaVuSans-c" transform="translate(133.40625 0)"/>
      <use xlink:href="#DejaVuSans-3" transform="translate(172.421875 0)"/>
      <use xlink:href="#DejaVuSans-20" transform="translate(204.203125 0)"/>
      <use xlink:href="#DejaVuSans-3" transform="translate(288 0)"/>
      <use xlink:href="#DejaVuSans-15" transform="translate(319.78125 0)"/>
      <use xlink:href="#DejaVuSans-11" transform="translate(383.40625 0)"/>
      <use xlink:href="#DejaVuSans-18" transform="translate(415.1875 0)"/>
      <use xlink:href="#DejaVuSans-79" transform="translate(478.8125 0)"/>
      <use xlink:href="#DejaVuSans-5b" transform="translate(510.59375 0)"/>
      <use xlink:href="#DejaVuSans-79" transform="translate(569.78125 0)"/>
      <use xlink:href="#DejaVuSans-b" transform="translate(601.5625 0)"/>
      <use xlink:href="#DejaVuSans-14" transform="translate(640.578125 0)"/>
      <use xlink:href="#DejaVuSans-c9c" transform="translate(704.203125 0)"/>
      <use xlink:href="#DejaVuSans-5b" transform="translate(788 0)"/>
      <use xlink:href="#DejaVuSans-c" transform="translate(847.1875 0)"/>
     </g>
    </g>
    <g id="line2d_73">
     <path d="M 51.753125 45.442617 
L 60.253125 45.442617 
L 68.753125 45.442617 
" style="fill: none; stroke-dasharray: 3.7,1.6; stroke-dashoffset: 0; stroke: #1a1a1a"/>
    </g>
    <g id="text_19">
     <!-- y = x -->
     <g transform="translate(75.553125 48.417617) scale(0.085 -0.085)">
      <defs>
       <path id="DejaVuSans-5c" d="M 2059 -325 
Q 1816 -950 1584 -1140 
Q 1353 -1331 966 -1331 
L 506 -1331 
L 506 -850 
L 844 -850 
Q 1081 -850 1212 -737 
Q 1344 -625 1503 -206 
L 1606 56 
L 191 3500 
L 800 3500 
L 1894 763 
L 2988 3500 
L 3597 3500 
L 2059 -325 
z
" transform="scale(0.015625)"/>
      </defs>
      <use xlink:href="#DejaVuSans-5c"/>
      <use xlink:href="#DejaVuSans-3" transform="translate(59.1875 0)"/>
      <use xlink:href="#DejaVuSans-20" transform="translate(90.96875 0)"/>
      <use xlink:href="#DejaVuSans-3" transform="translate(174.765625 0)"/>
      <use xlink:href="#DejaVuSans-5b" transform="translate(206.546875 0)"/>
     </g>
    </g>
   </g>
  </g>
 </g>
 <defs>
  <clipPath id="pd94b142df2">
   <rect x="44.103125" y="21.558281" width="293.042578" height="293.042578"/>
  </clipPath>
 </defs>
</svg>
