<?xml version="1.0" encoding="utf-8" standalone="no"?>
<!DOCTYPE svg PUBLIC "-//W3C//DTD SVG 1.1//EN"
  "http://www.w3.org/Graphics/SVG/1.1/DTD/svg11.dtd">
<svg xmlns:xlink="http://www.w3.org/1999/xlink" width="392.582812pt" height="294.878437pt" viewBox="0 0 392.582812 294.878437" xmlns="http://www.w3.org/2000/svg" version="1.1">
 <metadata>
  <rdf:RDF xmlns:dc="http://purl.org/dc/elements/1.1/" xmlns:cc="http://creativecommons.org/ns#" xmlns:rdf="http://www.w3.org/1999/02/22-rdf-syntax-ns#">
   <cc:Work>
    <dc:type rdf:resource="http://purl.org/dc/dcmitype/StillImage"/>
    <dc:date>2026-06-20T15:04:20.656884</dc:date>
    <dc:format>image/svg+xml</dc:format>
    <dc:creator>
     <cc:Agent>
      <dc:title>Matplotlib v3.11.0, https://matplotlib.org/</dc:title>
     </cc:Agent>
    </dc:creator>
   </cc:Work>
  </rdf:RDF>
 </metadata>
 <defs>
  <style type="text/css">*{stroke-linejoin: round; stroke-linecap: butt}</style>
 </defs>
 <g id="figure_1">
  <g id="patch_1">
   <path d="M 0 294.878437 
L 392.582812 294.878437 
L 392.582812 0 
L 0 0 
z
" style="fill: #fdfcf9"/>
  </g>
  <g id="axes_1">
   <g id="line2d_1">
    <path d="M 134.671747 32.929347 
L 257.911065 32.929347 
" clip-path="url(#p9870f7cf05)" style="fill: none; stroke: #16324f; stroke-width: 1.1; stroke-linecap: square"/>
   </g>
   <g id="line2d_2">
    <path d="M 134.671747 84.68986 
L 175.75152 84.68986 
L 196.291406 120.265987 
L 216.831293 84.68986 
L 257.911065 84.68986 
" clip-path="url(#p9870f7cf05)" style="fill: none; stroke: #16324f; stroke-width: 1.1; stroke-linecap: square"/>
   </g>
   <g id="line2d_3">
    <path d="M 134.671747 136.450374 
L 148.365005 136.450374 
L 155.211633 148.309083 
L 162.058262 136.450374 
L 175.75152 136.450374 
L 182.598149 148.309083 
L 175.75152 160.167792 
L 189.444777 160.167792 
L 196.291406 172.026501 
L 203.138035 160.167792 
L 216.831293 160.167792 
L 209.984664 148.309083 
L 216.831293 136.450374 
L 230.52455 136.450374 
L 237.371179 148.309083 
L 244.217808 136.450374 
L 257.911065 136.450374 
" clip-path="url(#p9870f7cf05)" style="fill: none; stroke: #16324f; stroke-width: 1.1; stroke-linecap: square"/>
   </g>
   <g id="line2d_4">
    <path d="M 134.671747 188.210888 
L 139.236166 188.210888 
L 141.518376 192.163791 
L 143.800585 188.210888 
L 148.365005 188.210888 
L 150.647214 192.163791 
L 148.365005 196.116694 
L 152.929424 196.116694 
L 155.211633 200.069597 
L 157.493843 196.116694 
L 162.058262 196.116694 
L 159.776053 192.163791 
L 162.058262 188.210888 
L 166.622681 188.210888 
L 168.904891 192.163791 
L 171.187101 188.210888 
L 175.75152 188.210888 
L 178.033729 192.163791 
L 175.75152 196.116694 
L 180.315939 196.116694 
L 182.598149 200.069597 
L 180.315939 204.0225 
L 175.75152 204.0225 
L 178.033729 207.975403 
L 175.75152 211.928306 
L 180.315939 211.928306 
L 182.598149 215.881209 
L 184.880358 211.928306 
L 189.444777 211.928306 
L 191.726987 215.881209 
L 189.444777 219.834112 
L 194.009197 219.834112 
L 196.291406 223.787015 
L 198.573616 219.834112 
L 203.138035 219.834112 
L 200.855825 215.881209 
L 203.138035 211.928306 
L 207.702454 211.928306 
L 209.984664 215.881209 
L 212.266873 211.928306 
L 216.831293 211.928306 
L 214.549083 207.975403 
L 216.831293 204.0225 
L 212.266873 204.0225 
L 209.984664 200.069597 
L 212.266873 196.116694 
L 216.831293 196.116694 
L 214.549083 192.163791 
L 216.831293 188.210888 
L 221.395712 188.210888 
L 223.677921 192.163791 
L 225.960131 188.210888 
L 230.52455 188.210888 
L 232.80676 192.163791 
L 230.52455 196.116694 
L 235.088969 196.116694 
L 237.371179 200.069597 
L 239.653389 196.116694 
L 244.217808 196.116694 
L 241.935598 192.163791 
L 244.217808 188.210888 
L 248.782227 188.210888 
L 251.064437 192.163791 
L 253.346646 188.210888 
L 257.911065 188.210888 
" clip-path="url(#p9870f7cf05)" style="fill: none; stroke: #16324f; stroke-width: 1.1; stroke-linecap: square"/>
   </g>
   <g id="line2d_5">
    <path d="M 134.671747 239.971402 
L 136.19322 239.971402 
L 136.953957 241.289036 
L 137.714693 239.971402 
L 139.236166 239.971402 
L 139.996903 241.289036 
L 139.236166 242.60667 
L 140.757639 242.60667 
L 141.518376 243.924305 
L 142.279112 242.60667 
L 143.800585 242.60667 
L 143.039849 241.289036 
L 143.800585 239.971402 
L 145.322058 239.971402 
L 146.082795 241.289036 
L 146.843532 239.971402 
L 148.365005 239.971402 
L 149.125741 241.289036 
L 148.365005 242.60667 
L 149.886478 242.60667 
L 150.647214 243.924305 
L 149.886478 245.241939 
L 148.365005 245.241939 
L 149.125741 246.559573 
L 148.365005 247.877208 
L 149.886478 247.877208 
L 150.647214 249.194842 
L 151.407951 247.877208 
L 152.929424 247.877208 
L 153.69016 249.194842 
L 152.929424 250.512476 
L 154.450897 250.512476 
L 155.211633 251.830111 
L 155.97237 250.512476 
L 157.493843 250.512476 
L 156.733107 249.194842 
L 157.493843 247.877208 
L 159.015316 247.877208 
L 159.776053 249.194842 
L 160.536789 247.877208 
L 162.058262 247.877208 
L 161.297526 246.559573 
L 162.058262 245.241939 
L 160.536789 245.241939 
L 159.776053 243.924305 
L 160.536789 242.60667 
L 162.058262 242.60667 
L 161.297526 241.289036 
L 162.058262 239.971402 
L 163.579735 239.971402 
L 164.340472 241.289036 
L 165.101208 239.971402 
L 166.622681 239.971402 
L 167.383418 241.289036 
L 166.622681 242.60667 
L 168.144155 242.60667 
L 168.904891 243.924305 
L 169.665628 242.60667 
L 171.187101 242.60667 
L 170.426364 241.289036 
L 171.187101 239.971402 
L 172.708574 239.971402 
L 173.46931 241.289036 
L 174.230047 239.971402 
L 175.75152 239.971402 
L 176.512256 241.289036 
L 175.75152 242.60667 
L 177.272993 242.60667 
L 178.033729 243.924305 
L 177.272993 245.241939 
L 175.75152 245.241939 
L 176.512256 246.559573 
L 175.75152 247.877208 
L 177.272993 247.877208 
L 178.033729 249.194842 
L 178.794466 247.877208 
L 180.315939 247.877208 
L 181.076676 249.194842 
L 180.315939 250.512476 
L 181.837412 250.512476 
L 182.598149 251.830111 
L 181.837412 253.147745 
L 180.315939 253.147745 
L 181.076676 254.465379 
L 180.315939 255.783013 
L 178.794466 255.783013 
L 178.033729 254.465379 
L 177.272993 255.783013 
L 175.75152 255.783013 
L 176.512256 257.100648 
L 175.75152 258.418282 
L 177.272993 258.418282 
L 178.033729 259.735916 
L 177.272993 261.053551 
L 175.75152 261.053551 
L 176.512256 262.371185 
L 175.75152 263.688819 
L 177.272993 263.688819 
L 178.033729 265.006454 
L 178.794466 263.688819 
L 180.315939 263.688819 
L 181.076676 265.006454 
L 180.315939 266.324088 
L 181.837412 266.324088 
L 182.598149 267.641722 
L 183.358885 266.324088 
L 184.880358 266.324088 
L 184.119622 265.006454 
L 184.880358 263.688819 
L 186.401831 263.688819 
L 187.162568 265.006454 
L 187.923304 263.688819 
L 189.444777 263.688819 
L 190.205514 265.006454 
L 189.444777 266.324088 
L 190.966251 266.324088 
L 191.726987 267.641722 
L 190.966251 268.959357 
L 189.444777 268.959357 
L 190.205514 270.276991 
L 189.444777 271.594625 
L 190.966251 271.594625 
L 191.726987 272.91226 
L 192.487724 271.594625 
L 194.009197 271.594625 
L 194.769933 272.91226 
L 194.009197 274.229894 
L 195.53067 274.229894 
L 196.291406 275.547528 
L 197.052143 274.229894 
L 198.573616 274.229894 
L 197.812879 272.91226 
L 198.573616 271.594625 
L 200.095089 271.594625 
L 200.855825 272.91226 
L 201.616562 271.594625 
L 203.138035 271.594625 
L 202.377299 270.276991 
L 203.138035 268.959357 
L 201.616562 268.959357 
L 200.855825 267.641722 
L 201.616562 266.324088 
L 203.138035 266.324088 
L 202.377299 265.006454 
L 203.138035 263.688819 
L 204.659508 263.688819 
L 205.420245 265.006454 
L 206.180981 263.688819 
L 207.702454 263.688819 
L 208.463191 265.006454 
L 207.702454 266.324088 
L 209.223927 266.324088 
L 209.984664 267.641722 
L 210.7454 266.324088 
L 212.266873 266.324088 
L 211.506137 265.006454 
L 212.266873 263.688819 
L 213.788347 263.688819 
L 214.549083 265.006454 
L 215.30982 263.688819 
L 216.831293 263.688819 
L 216.070556 262.371185 
L 216.831293 261.053551 
L 215.30982 261.053551 
L 214.549083 259.735916 
L 215.30982 258.418282 
L 216.831293 258.418282 
L 216.070556 257.100648 
L 216.831293 255.783013 
L 215.30982 255.783013 
L 214.549083 254.465379 
L 213.788347 255.783013 
L 212.266873 255.783013 
L 211.506137 254.465379 
L 212.266873 253.147745 
L 210.7454 253.147745 
L 209.984664 251.830111 
L 210.7454 250.512476 
L 212.266873 250.512476 
L 211.506137 249.194842 
L 212.266873 247.877208 
L 213.788347 247.877208 
L 214.549083 249.194842 
L 215.30982 247.877208 
L 216.831293 247.877208 
L 216.070556 246.559573 
L 216.831293 245.241939 
L 215.30982 245.241939 
L 214.549083 243.924305 
L 215.30982 242.60667 
L 216.831293 242.60667 
L 216.070556 241.289036 
L 216.831293 239.971402 
L 218.352766 239.971402 
L 219.113502 241.289036 
L 219.874239 239.971402 
L 221.395712 239.971402 
L 222.156448 241.289036 
L 221.395712 242.60667 
L 222.917185 242.60667 
L 223.677921 243.924305 
L 224.438658 242.60667 
L 225.960131 242.60667 
L 225.199395 241.289036 
L 225.960131 239.971402 
L 227.481604 239.971402 
L 228.242341 241.289036 
L 229.003077 239.971402 
L 230.52455 239.971402 
L 231.285287 241.289036 
L 230.52455 242.60667 
L 232.046023 242.60667 
L 232.80676 243.924305 
L 232.046023 245.241939 
L 230.52455 245.241939 
L 231.285287 246.559573 
L 230.52455 247.877208 
L 232.046023 247.877208 
L 232.80676 249.194842 
L 233.567496 247.877208 
L 235.088969 247.877208 
L 235.849706 249.194842 
L 235.088969 250.512476 
L 236.610443 250.512476 
L 237.371179 251.830111 
L 238.131916 250.512476 
L 239.653389 250.512476 
L 238.892652 249.194842 
L 239.653389 247.877208 
L 241.174862 247.877208 
L 241.935598 249.194842 
L 242.696335 247.877208 
L 244.217808 247.877208 
L 243.457071 246.559573 
L 244.217808 245.241939 
L 242.696335 245.241939 
L 241.935598 243.924305 
L 242.696335 242.60667 
L 244.217808 242.60667 
L 243.457071 241.289036 
L 244.217808 239.971402 
L 245.739281 239.971402 
L 246.500017 241.289036 
L 247.260754 239.971402 
L 248.782227 239.971402 
L 249.542964 241.289036 
L 248.782227 242.60667 
L 250.3037 242.60667 
L 251.064437 243.924305 
L 251.825173 242.60667 
L 253.346646 242.60667 
L 252.58591 241.289036 
L 253.346646 239.971402 
L 254.868119 239.971402 
L 255.628856 241.289036 
L 256.389592 239.971402 
L 257.911065 239.971402 
L 257.911065 239.971402 
" clip-path="url(#p9870f7cf05)" style="fill: none; stroke: #16324f; stroke-width: 1.1; stroke-linecap: square"/>
   </g>
   <g id="text_1">
    <!-- gen 0 -->
    <g style="fill: #16324f" transform="translate(102.968062 30.767237) scale(0.09 -0.09)">
     <defs>
      <path id="DejaVuSans-4a" d="M 2906 1791 
Q 2906 2416 2648 2759 
Q 2391 3103 1925 3103 
Q 1463 3103 1205 2759 
Q 947 2416 947 1791 
Q 947 1169 1205 825 
Q 1463 481 1925 481 
Q 2391 481 2648 825 
Q 2906 1169 2906 1791 
z
M 3481 434 
Q 3481 -459 3084 -895 
Q 2688 -1331 1869 -1331 
Q 1566 -1331 1297 -1286 
Q 1028 -1241 775 -1147 
L 775 -588 
Q 1028 -725 1275 -790 
Q 1522 -856 1778 -856 
Q 2344 -856 2625 -561 
Q 2906 -266 2906 331 
L 2906 616 
Q 2728 306 2450 153 
Q 2172 0 1784 0 
Q 1141 0 747 490 
Q 353 981 353 1791 
Q 353 2603 747 3093 
Q 1141 3584 1784 3584 
Q 2172 3584 2450 3431 
Q 2728 3278 2906 2969 
L 2906 3500 
L 3481 3500 
L 3481 434 
z
" transform="scale(0.015625)"/>
      <path id="DejaVuSans-48" d="M 3597 1894 
L 3597 1613 
L 953 1613 
Q 991 1019 1311 708 
Q 1631 397 2203 397 
Q 2534 397 2845 478 
Q 3156 559 3463 722 
L 3463 178 
Q 3153 47 2828 -22 
Q 2503 -91 2169 -91 
Q 1331 -91 842 396 
Q 353 884 353 1716 
Q 353 2575 817 3079 
Q 1281 3584 2069 3584 
Q 2775 3584 3186 3129 
Q 3597 2675 3597 1894 
z
M 3022 2063 
Q 3016 2534 2758 2815 
Q 2500 3097 2075 3097 
Q 1594 3097 1305 2825 
Q 1016 2553 972 2059 
L 3022 2063 
z
" transform="scale(0.015625)"/>
      <path id="DejaVuSans-51" d="M 3513 2113 
L 3513 0 
L 2938 0 
L 2938 2094 
Q 2938 2591 2744 2837 
Q 2550 3084 2163 3084 
Q 1697 3084 1428 2787 
Q 1159 2491 1159 1978 
L 1159 0 
L 581 0 
L 581 3500 
L 1159 3500 
L 1159 2956 
Q 1366 3272 1645 3428 
Q 1925 3584 2291 3584 
Q 2894 3584 3203 3211 
Q 3513 2838 3513 2113 
z
" transform="scale(0.015625)"/>
      <path id="DejaVuSans-3" transform="scale(0.015625)"/>
      <path id="DejaVuSans-13" d="M 2034 4250 
Q 1547 4250 1301 3770 
Q 1056 3291 1056 2328 
Q 1056 1369 1301 889 
Q 1547 409 2034 409 
Q 2525 409 2770 889 
Q 3016 1369 3016 2328 
Q 3016 3291 2770 3770 
Q 2525 4250 2034 4250 
z
M 2034 4750 
Q 2819 4750 3233 4129 
Q 3647 3509 3647 2328 
Q 3647 1150 3233 529 
Q 2819 -91 2034 -91 
Q 1250 -91 836 529 
Q 422 1150 422 2328 
Q 422 3509 836 4129 
Q 1250 4750 2034 4750 
z
" transform="scale(0.015625)"/>
     </defs>
     <use xlink:href="#DejaVuSans-4a"/>
     <use xlink:href="#DejaVuSans-48" transform="translate(63.484375 0)"/>
     <use xlink:href="#DejaVuSans-51" transform="translate(125.015625 0)"/>
     <use xlink:href="#DejaVuSans-3" transform="translate(188.390625 0)"/>
     <use xlink:href="#DejaVuSans-13" transform="translate(220.171875 0)"/>
    </g>
   </g>
   <g id="text_2">
    <!-- gen 1 -->
    <g style="fill: #16324f" transform="translate(102.968062 82.527751) scale(0.09 -0.09)">
     <defs>
      <path id="DejaVuSans-14" d="M 794 531 
L 1825 531 
L 1825 4091 
L 703 3866 
L 703 4441 
L 1819 4666 
L 2450 4666 
L 2450 531 
L 3481 531 
L 3481 0 
L 794 0 
L 794 531 
z
" transform="scale(0.015625)"/>
     </defs>
     <use xlink:href="#DejaVuSans-4a"/>
     <use xlink:href="#DejaVuSans-48" transform="translate(63.484375 0)"/>
     <use xlink:href="#DejaVuSans-51" transform="translate(125.015625 0)"/>
     <use xlink:href="#DejaVuSans-3" transform="translate(188.390625 0)"/>
     <use xlink:href="#DejaVuSans-14" transform="translate(220.171875 0)"/>
    </g>
   </g>
   <g id="text_3">
    <!-- gen 2 -->
    <g style="fill: #16324f" transform="translate(102.968062 134.288265) scale(0.09 -0.09)">
     <defs>
      <path id="DejaVuSans-15" d="M 1228 531 
L 3431 531 
L 3431 0 
L 469 0 
L 469 531 
Q 828 903 1448 1529 
Q 2069 2156 2228 2338 
Q 2531 2678 2651 2914 
Q 2772 3150 2772 3378 
Q 2772 3750 2511 3984 
Q 2250 4219 1831 4219 
Q 1534 4219 1204 4116 
Q 875 4013 500 3803 
L 500 4441 
Q 881 4594 1212 4672 
Q 1544 4750 1819 4750 
Q 2544 4750 2975 4387 
Q 3406 4025 3406 3419 
Q 3406 3131 3298 2873 
Q 3191 2616 2906 2266 
Q 2828 2175 2409 1742 
Q 1991 1309 1228 531 
z
" transform="scale(0.015625)"/>
     </defs>
     <use xlink:href="#DejaVuSans-4a"/>
     <use xlink:href="#DejaVuSans-48" transform="translate(63.484375 0)"/>
     <use xlink:href="#DejaVuSans-51" transform="translate(125.015625 0)"/>
     <use xlink:href="#DejaVuSans-3" transform="translate(188.390625 0)"/>
     <use xlink:href="#DejaVuSans-15" transform="translate(220.171875 0)"/>
    </g>
   </g>
   <g id="text_4">
    <!-- gen 3 -->
    <g style="fill: #16324f" transform="translate(102.968062 186.048778) scale(0.09 -0.09)">
     <defs>
      <path id="DejaVuSans-16" d="M 2597 2516 
Q 3050 2419 3304 2112 
Q 3559 1806 3559 1356 
Q 3559 666 3084 287 
Q 2609 -91 1734 -91 
Q 1441 -91 1130 -33 
Q 819 25 488 141 
L 488 750 
Q 750 597 1062 519 
Q 1375 441 1716 441 
Q 2309 441 2620 675 
Q 2931 909 2931 1356 
Q 2931 1769 2642 2001 
Q 2353 2234 1838 2234 
L 1294 2234 
L 1294 2753 
L 1863 2753 
Q 2328 2753 2575 2939 
Q 2822 3125 2822 3475 
Q 2822 3834 2567 4026 
Q 2313 4219 1838 4219 
Q 1578 4219 1281 4162 
Q 984 4106 628 3988 
L 628 4550 
Q 988 4650 1302 4700 
Q 1616 4750 1894 4750 
Q 2613 4750 3031 4423 
Q 3450 4097 3450 3541 
Q 3450 3153 3228 2886 
Q 3006 2619 2597 2516 
z
" transform="scale(0.015625)"/>
     </defs>
     <use xlink:href="#DejaVuSans-4a"/>
     <use xlink:href="#DejaVuSans-48" transform="translate(63.484375 0)"/>
     <use xlink:href="#DejaVuSans-51" transform="translate(125.015625 0)"/>
     <use xlink:href="#DejaVuSans-3" transform="translate(188.390625 0)"/>
     <use xlink:href="#DejaVuSans-16" transform="translate(220.171875 0)"/>
    </g>
   </g>
   <g id="text_5">
    <!-- gen 4 -->
    <g style="fill: #16324f" transform="translate(102.968062 237.809292) scale(0.09 -0.09)">
     <defs>
      <path id="DejaVuSans-17" d="M 2419 4116 
L 825 1625 
L 2419 1625 
L 2419 4116 
z
M 2253 4666 
L 3047 4666 
L 3047 1625 
L 3713 1625 
L 3713 1100 
L 3047 1100 
L 3047 0 
L 2419 0 
L 2419 1100 
L 313 1100 
L 313 1709 
L 2253 4666 
z
" transform="scale(0.015625)"/>
     </defs>
     <use xlink:href="#DejaVuSans-4a"/>
     <use xlink:href="#DejaVuSans-48" transform="translate(63.484375 0)"/>
     <use xlink:href="#DejaVuSans-51" transform="translate(125.015625 0)"/>
     <use xlink:href="#DejaVuSans-3" transform="translate(188.390625 0)"/>
     <use xlink:href="#DejaVuSans-17" transform="translate(220.171875 0)"/>
    </g>
   </g>
   <g id="text_6">
    <!-- Koch curve: each step replaces a segment by 4 of 1/3 length  (length ×4/3) -->
    <g style="fill: #16324f" transform="translate(7.2 14.798437) scale(0.1 -0.1)">
     <defs>
      <path id="DejaVuSans-2e" d="M 628 4666 
L 1259 4666 
L 1259 2694 
L 3353 4666 
L 4166 4666 
L 1850 2491 
L 4331 0 
L 3500 0 
L 1259 2247 
L 1259 0 
L 628 0 
L 628 4666 
z
" transform="scale(0.015625)"/>
      <path id="DejaVuSans-52" d="M 1959 3097 
Q 1497 3097 1228 2736 
Q 959 2375 959 1747 
Q 959 1119 1226 758 
Q 1494 397 1959 397 
Q 2419 397 2687 759 
Q 2956 1122 2956 1747 
Q 2956 2369 2687 2733 
Q 2419 3097 1959 3097 
z
M 1959 3584 
Q 2709 3584 3137 3096 
Q 3566 2609 3566 1747 
Q 3566 888 3137 398 
Q 2709 -91 1959 -91 
Q 1206 -91 779 398 
Q 353 888 353 1747 
Q 353 2609 779 3096 
Q 1206 3584 1959 3584 
z
" transform="scale(0.015625)"/>
      <path id="DejaVuSans-46" d="M 3122 3366 
L 3122 2828 
Q 2878 2963 2633 3030 
Q 2388 3097 2138 3097 
Q 1578 3097 1268 2742 
Q 959 2388 959 1747 
Q 959 1106 1268 751 
Q 1578 397 2138 397 
Q 2388 397 2633 464 
Q 2878 531 3122 666 
L 3122 134 
Q 2881 22 2623 -34 
Q 2366 -91 2075 -91 
Q 1284 -91 818 406 
Q 353 903 353 1747 
Q 353 2603 823 3093 
Q 1294 3584 2113 3584 
Q 2378 3584 2631 3529 
Q 2884 3475 3122 3366 
z
" transform="scale(0.015625)"/>
      <path id="DejaVuSans-4b" d="M 3513 2113 
L 3513 0 
L 2938 0 
L 2938 2094 
Q 2938 2591 2744 2837 
Q 2550 3084 2163 3084 
Q 1697 3084 1428 2787 
Q 1159 2491 1159 1978 
L 1159 0 
L 581 0 
L 581 4863 
L 1159 4863 
L 1159 2956 
Q 1366 3272 1645 3428 
Q 1925 3584 2291 3584 
Q 2894 3584 3203 3211 
Q 3513 2838 3513 2113 
z
" transform="scale(0.015625)"/>
      <path id="DejaVuSans-58" d="M 544 1381 
L 544 3500 
L 1119 3500 
L 1119 1403 
Q 1119 906 1312 657 
Q 1506 409 1894 409 
Q 2359 409 2629 706 
Q 2900 1003 2900 1516 
L 2900 3500 
L 3475 3500 
L 3475 0 
L 2900 0 
L 2900 538 
Q 2691 219 2414 64 
Q 2138 -91 1772 -91 
Q 1169 -91 856 284 
Q 544 659 544 1381 
z
M 1991 3584 
L 1991 3584 
z
" transform="scale(0.015625)"/>
      <path id="DejaVuSans-55" d="M 2631 2963 
Q 2534 3019 2420 3045 
Q 2306 3072 2169 3072 
Q 1681 3072 1420 2755 
Q 1159 2438 1159 1844 
L 1159 0 
L 581 0 
L 581 3500 
L 1159 3500 
L 1159 2956 
Q 1341 3275 1631 3429 
Q 1922 3584 2338 3584 
Q 2397 3584 2469 3576 
Q 2541 3569 2628 3553 
L 2631 2963 
z
" transform="scale(0.015625)"/>
      <path id="DejaVuSans-59" d="M 191 3500 
L 800 3500 
L 1894 563 
L 2988 3500 
L 3597 3500 
L 2284 0 
L 1503 0 
L 191 3500 
z
" transform="scale(0.015625)"/>
      <path id="DejaVuSans-1d" d="M 750 794 
L 1409 794 
L 1409 0 
L 750 0 
L 750 794 
z
M 750 3309 
L 1409 3309 
L 1409 2516 
L 750 2516 
L 750 3309 
z
" transform="scale(0.015625)"/>
      <path id="DejaVuSans-44" d="M 2194 1759 
Q 1497 1759 1228 1600 
Q 959 1441 959 1056 
Q 959 750 1161 570 
Q 1363 391 1709 391 
Q 2188 391 2477 730 
Q 2766 1069 2766 1631 
L 2766 1759 
L 2194 1759 
z
M 3341 1997 
L 3341 0 
L 2766 0 
L 2766 531 
Q 2569 213 2275 61 
Q 1981 -91 1556 -91 
Q 1019 -91 701 211 
Q 384 513 384 1019 
Q 384 1609 779 1909 
Q 1175 2209 1959 2209 
L 2766 2209 
L 2766 2266 
Q 2766 2663 2505 2880 
Q 2244 3097 1772 3097 
Q 1472 3097 1187 3025 
Q 903 2953 641 2809 
L 641 3341 
Q 956 3463 1253 3523 
Q 1550 3584 1831 3584 
Q 2591 3584 2966 3190 
Q 3341 2797 3341 1997 
z
" transform="scale(0.015625)"/>
      <path id="DejaVuSans-56" d="M 2834 3397 
L 2834 2853 
Q 2591 2978 2328 3040 
Q 2066 3103 1784 3103 
Q 1356 3103 1142 2972 
Q 928 2841 928 2578 
Q 928 2378 1081 2264 
Q 1234 2150 1697 2047 
L 1894 2003 
Q 2506 1872 2764 1633 
Q 3022 1394 3022 966 
Q 3022 478 2636 193 
Q 2250 -91 1575 -91 
Q 1294 -91 989 -36 
Q 684 19 347 128 
L 347 722 
Q 666 556 975 473 
Q 1284 391 1588 391 
Q 1994 391 2212 530 
Q 2431 669 2431 922 
Q 2431 1156 2273 1281 
Q 2116 1406 1581 1522 
L 1381 1569 
Q 847 1681 609 1914 
Q 372 2147 372 2553 
Q 372 3047 722 3315 
Q 1072 3584 1716 3584 
Q 2034 3584 2315 3537 
Q 2597 3491 2834 3397 
z
" transform="scale(0.015625)"/>
      <path id="DejaVuSans-57" d="M 1172 4494 
L 1172 3500 
L 2356 3500 
L 2356 3053 
L 1172 3053 
L 1172 1153 
Q 1172 725 1289 603 
Q 1406 481 1766 481 
L 2356 481 
L 2356 0 
L 1766 0 
Q 1100 0 847 248 
Q 594 497 594 1153 
L 594 3053 
L 172 3053 
L 172 3500 
L 594 3500 
L 594 4494 
L 1172 4494 
z
" transform="scale(0.015625)"/>
      <path id="DejaVuSans-53" d="M 1159 525 
L 1159 -1331 
L 581 -1331 
L 581 3500 
L 1159 3500 
L 1159 2969 
Q 1341 3281 1617 3432 
Q 1894 3584 2278 3584 
Q 2916 3584 3314 3078 
Q 3713 2572 3713 1747 
Q 3713 922 3314 415 
Q 2916 -91 2278 -91 
Q 1894 -91 1617 61 
Q 1341 213 1159 525 
z
M 3116 1747 
Q 3116 2381 2855 2742 
Q 2594 3103 2138 3103 
Q 1681 3103 1420 2742 
Q 1159 2381 1159 1747 
Q 1159 1113 1420 752 
Q 1681 391 2138 391 
Q 2594 391 2855 752 
Q 3116 1113 3116 1747 
z
" transform="scale(0.015625)"/>
      <path id="DejaVuSans-4f" d="M 603 4863 
L 1178 4863 
L 1178 0 
L 603 0 
L 603 4863 
z
" transform="scale(0.015625)"/>
      <path id="DejaVuSans-50" d="M 3328 2828 
Q 3544 3216 3844 3400 
Q 4144 3584 4550 3584 
Q 5097 3584 5394 3201 
Q 5691 2819 5691 2113 
L 5691 0 
L 5113 0 
L 5113 2094 
Q 5113 2597 4934 2840 
Q 4756 3084 4391 3084 
Q 3944 3084 3684 2787 
Q 3425 2491 3425 1978 
L 3425 0 
L 2847 0 
L 2847 2094 
Q 2847 2600 2669 2842 
Q 2491 3084 2119 3084 
Q 1678 3084 1418 2786 
Q 1159 2488 1159 1978 
L 1159 0 
L 581 0 
L 581 3500 
L 1159 3500 
L 1159 2956 
Q 1356 3278 1631 3431 
Q 1906 3584 2284 3584 
Q 2666 3584 2933 3390 
Q 3200 3197 3328 2828 
z
" transform="scale(0.015625)"/>
      <path id="DejaVuSans-45" d="M 3116 1747 
Q 3116 2381 2855 2742 
Q 2594 3103 2138 3103 
Q 1681 3103 1420 2742 
Q 1159 2381 1159 1747 
Q 1159 1113 1420 752 
Q 1681 391 2138 391 
Q 2594 391 2855 752 
Q 3116 1113 3116 1747 
z
M 1159 2969 
Q 1341 3281 1617 3432 
Q 1894 3584 2278 3584 
Q 2916 3584 3314 3078 
Q 3713 2572 3713 1747 
Q 3713 922 3314 415 
Q 2916 -91 2278 -91 
Q 1894 -91 1617 61 
Q 1341 213 1159 525 
L 1159 0 
L 581 0 
L 581 4863 
L 1159 4863 
L 1159 2969 
z
" transform="scale(0.015625)"/>
      <path id="DejaVuSans-5c" d="M 2059 -325 
Q 1816 -950 1584 -1140 
Q 1353 -1331 966 -1331 
L 506 -1331 
L 506 -850 
L 844 -850 
Q 1081 -850 1212 -737 
Q 1344 -625 1503 -206 
L 1606 56 
L 191 3500 
L 800 3500 
L 1894 763 
L 2988 3500 
L 3597 3500 
L 2059 -325 
z
" transform="scale(0.015625)"/>
      <path id="DejaVuSans-49" d="M 2375 4863 
L 2375 4384 
L 1825 4384 
Q 1516 4384 1395 4259 
Q 1275 4134 1275 3809 
L 1275 3500 
L 2222 3500 
L 2222 3053 
L 1275 3053 
L 1275 0 
L 697 0 
L 697 3053 
L 147 3053 
L 147 3500 
L 697 3500 
L 697 3744 
Q 697 4328 969 4595 
Q 1241 4863 1831 4863 
L 2375 4863 
z
" transform="scale(0.015625)"/>
      <path id="DejaVuSans-12" d="M 1625 4666 
L 2156 4666 
L 531 -594 
L 0 -594 
L 1625 4666 
z
" transform="scale(0.015625)"/>
      <path id="DejaVuSans-b" d="M 1984 4856 
Q 1566 4138 1362 3434 
Q 1159 2731 1159 2009 
Q 1159 1288 1364 580 
Q 1569 -128 1984 -844 
L 1484 -844 
Q 1016 -109 783 600 
Q 550 1309 550 2009 
Q 550 2706 781 3412 
Q 1013 4119 1484 4856 
L 1984 4856 
z
" transform="scale(0.015625)"/>
      <path id="DejaVuSans-99" d="M 4488 3438 
L 3059 2003 
L 4488 575 
L 4116 197 
L 2681 1631 
L 1247 197 
L 878 575 
L 2303 2003 
L 878 3438 
L 1247 3816 
L 2681 2381 
L 4116 3816 
L 4488 3438 
z
" transform="scale(0.015625)"/>
      <path id="DejaVuSans-c" d="M 513 4856 
L 1013 4856 
Q 1481 4119 1714 3412 
Q 1947 2706 1947 2009 
Q 1947 1309 1714 600 
Q 1481 -109 1013 -844 
L 513 -844 
Q 928 -128 1133 580 
Q 1338 1288 1338 2009 
Q 1338 2731 1133 3434 
Q 928 4138 513 4856 
z
" transform="scale(0.015625)"/>
     </defs>
     <use xlink:href="#DejaVuSans-2e"/>
     <use xlink:href="#DejaVuSans-52" transform="translate(60.59375 0)"/>
     <use xlink:href="#DejaVuSans-46" transform="translate(121.78125 0)"/>
     <use xlink:href="#DejaVuSans-4b" transform="translate(176.765625 0)"/>
     <use xlink:href="#DejaVuSans-3" transform="translate(240.140625 0)"/>
     <use xlink:href="#DejaVuSans-46" transform="translate(271.921875 0)"/>
     <use xlink:href="#DejaVuSans-58" transform="translate(326.90625 0)"/>
     <use xlink:href="#DejaVuSans-55" transform="translate(390.28125 0)"/>
     <use xlink:href="#DejaVuSans-59" transform="translate(431.390625 0)"/>
     <use xlink:href="#DejaVuSans-48" transform="translate(490.578125 0)"/>
     <use xlink:href="#DejaVuSans-1d" transform="translate(552.109375 0)"/>
     <use xlink:href="#DejaVuSans-3" transform="translate(585.796875 0)"/>
     <use xlink:href="#DejaVuSans-48" transform="translate(617.578125 0)"/>
     <use xlink:href="#DejaVuSans-44" transform="translate(679.109375 0)"/>
     <use xlink:href="#DejaVuSans-46" transform="translate(740.390625 0)"/>
     <use xlink:href="#DejaVuSans-4b" transform="translate(795.375 0)"/>
     <use xlink:href="#DejaVuSans-3" transform="translate(858.75 0)"/>
     <use xlink:href="#DejaVuSans-56" transform="translate(890.53125 0)"/>
     <use xlink:href="#DejaVuSans-57" transform="translate(942.625 0)"/>
     <use xlink:href="#DejaVuSans-48" transform="translate(981.828125 0)"/>
     <use xlink:href="#DejaVuSans-53" transform="translate(1043.359375 0)"/>
     <use xlink:href="#DejaVuSans-3" transform="translate(1106.84375 0)"/>
     <use xlink:href="#DejaVuSans-55" transform="translate(1138.625 0)"/>
     <use xlink:href="#DejaVuSans-48" transform="translate(1177.53125 0)"/>
     <use xlink:href="#DejaVuSans-53" transform="translate(1239.0625 0)"/>
     <use xlink:href="#DejaVuSans-4f" transform="translate(1302.546875 0)"/>
     <use xlink:href="#DejaVuSans-44" transform="translate(1330.328125 0)"/>
     <use xlink:href="#DejaVuSans-46" transform="translate(1391.609375 0)"/>
     <use xlink:href="#DejaVuSans-48" transform="translate(1446.59375 0)"/>
     <use xlink:href="#DejaVuSans-56" transform="translate(1508.125 0)"/>
     <use xlink:href="#DejaVuSans-3" transform="translate(1560.21875 0)"/>
     <use xlink:href="#DejaVuSans-44" transform="translate(1592 0)"/>
     <use xlink:href="#DejaVuSans-3" transform="translate(1653.28125 0)"/>
     <use xlink:href="#DejaVuSans-56" transform="translate(1685.0625 0)"/>
     <use xlink:href="#DejaVuSans-48" transform="translate(1737.15625 0)"/>
     <use xlink:href="#DejaVuSans-4a" transform="translate(1798.6875 0)"/>
     <use xlink:href="#DejaVuSans-50" transform="translate(1862.171875 0)"/>
     <use xlink:href="#DejaVuSans-48" transform="translate(1959.578125 0)"/>
     <use xlink:href="#DejaVuSans-51" transform="translate(2021.109375 0)"/>
     <use xlink:href="#DejaVuSans-57" transform="translate(2084.484375 0)"/>
     <use xlink:href="#DejaVuSans-3" transform="translate(2123.6875 0)"/>
     <use xlink:href="#DejaVuSans-45" transform="translate(2155.46875 0)"/>
     <use xlink:href="#DejaVuSans-5c" transform="translate(2218.953125 0)"/>
     <use xlink:href="#DejaVuSans-3" transform="translate(2278.140625 0)"/>
     <use xlink:href="#DejaVuSans-17" transform="translate(2309.921875 0)"/>
     <use xlink:href="#DejaVuSans-3" transform="translate(2373.546875 0)"/>
     <use xlink:href="#DejaVuSans-52" transform="translate(2405.328125 0)"/>
     <use xlink:href="#DejaVuSans-49" transform="translate(2466.515625 0)"/>
     <use xlink:href="#DejaVuSans-3" transform="translate(2501.71875 0)"/>
     <use xlink:href="#DejaVuSans-14" transform="translate(2533.5 0)"/>
     <use xlink:href="#DejaVuSans-12" transform="translate(2597.125 0)"/>
     <use xlink:href="#DejaVuSans-16" transform="translate(2630.8125 0)"/>
     <use xlink:href="#DejaVuSans-3" transform="translate(2694.4375 0)"/>
     <use xlink:href="#DejaVuSans-4f" transform="translate(2726.21875 0)"/>
     <use xlink:href="#DejaVuSans-48" transform="translate(2754 0)"/>
     <use xlink:href="#DejaVuSans-51" transform="translate(2815.53125 0)"/>
     <use xlink:href="#DejaVuSans-4a" transform="translate(2878.90625 0)"/>
     <use xlink:href="#DejaVuSans-57" transform="translate(2942.390625 0)"/>
     <use xlink:href="#DejaVuSans-4b" transform="translate(2981.59375 0)"/>
     <use xlink:href="#DejaVuSans-3" transform="translate(3044.96875 0)"/>
     <use xlink:href="#DejaVuSans-3" transform="translate(3076.75 0)"/>
     <use xlink:href="#DejaVuSans-b" transform="translate(3108.53125 0)"/>
     <use xlink:href="#DejaVuSans-4f" transform="translate(3147.546875 0)"/>
     <use xlink:href="#DejaVuSans-48" transform="translate(3175.328125 0)"/>
     <use xlink:href="#DejaVuSans-51" transform="translate(3236.859375 0)"/>
     <use xlink:href="#DejaVuSans-4a" transform="translate(3300.234375 0)"/>
     <use xlink:href="#DejaVuSans-57" transform="translate(3363.71875 0)"/>
     <use xlink:href="#DejaVuSans-4b" transform="translate(3402.921875 0)"/>
     <use xlink:href="#DejaVuSans-3" transform="translate(3466.296875 0)"/>
     <use xlink:href="#DejaVuSans-99" transform="translate(3498.078125 0)"/>
     <use xlink:href="#DejaVuSans-17" transform="translate(3581.875 0)"/>
     <use xlink:href="#DejaVuSans-12" transform="translate(3645.5 0)"/>
     <use xlink:href="#DejaVuSans-16" transform="translate(3679.1875 0)"/>
     <use xlink:href="#DejaVuSans-c" transform="translate(3742.8125 0)"/>
    </g>
   </g>
  </g>
 </g>
 <defs>
  <clipPath id="p9870f7cf05">
   <rect x="128.509781" y="20.798437" width="135.56325" height="266.88"/>
  </clipPath>
 </defs>
</svg>
