<svg xmlns="http://www.w3.org/2000/svg" viewBox="0 0 680 440" role="img" aria-labelledby="title desc">
<title id="title">正方形添邊</title>
<desc id="desc">淡色 25 顆保留原正方形；下排和右排新增 11 顆。虛線圈標示只應計算一次的共用角落。</desc>
<rect width="680" height="440" fill="white"/>
<text x="290" y="35" font-size="25" text-anchor="middle" font-family="Noto Sans CJK TC, PingFang TC, Microsoft JhengHei, sans-serif">5 × 5 → 6 × 6</text><circle cx="120" cy="78" r="13" fill="black" fill-opacity="0.18"/><circle cx="168" cy="78" r="13" fill="black" fill-opacity="0.18"/><circle cx="216" cy="78" r="13" fill="black" fill-opacity="0.18"/><circle cx="264" cy="78" r="13" fill="black" fill-opacity="0.18"/><circle cx="312" cy="78" r="13" fill="black" fill-opacity="0.18"/><circle cx="360" cy="78" r="13" fill="black" fill-opacity="0.88"/><circle cx="120" cy="126" r="13" fill="black" fill-opacity="0.18"/><circle cx="168" cy="126" r="13" fill="black" fill-opacity="0.18"/><circle cx="216" cy="126" r="13" fill="black" fill-opacity="0.18"/><circle cx="264" cy="126" r="13" fill="black" fill-opacity="0.18"/><circle cx="312" cy="126" r="13" fill="black" fill-opacity="0.18"/><circle cx="360" cy="126" r="13" fill="black" fill-opacity="0.88"/><circle cx="120" cy="174" r="13" fill="black" fill-opacity="0.18"/><circle cx="168" cy="174" r="13" fill="black" fill-opacity="0.18"/><circle cx="216" cy="174" r="13" fill="black" fill-opacity="0.18"/><circle cx="264" cy="174" r="13" fill="black" fill-opacity="0.18"/><circle cx="312" cy="174" r="13" fill="black" fill-opacity="0.18"/><circle cx="360" cy="174" r="13" fill="black" fill-opacity="0.88"/><circle cx="120" cy="222" r="13" fill="black" fill-opacity="0.18"/><circle cx="168" cy="222" r="13" fill="black" fill-opacity="0.18"/><circle cx="216" cy="222" r="13" fill="black" fill-opacity="0.18"/><circle cx="264" cy="222" r="13" fill="black" fill-opacity="0.18"/><circle cx="312" cy="222" r="13" fill="black" fill-opacity="0.18"/><circle cx="360" cy="222" r="13" fill="black" fill-opacity="0.88"/><circle cx="120" cy="270" r="13" fill="black" fill-opacity="0.18"/><circle cx="168" cy="270" r="13" fill="black" fill-opacity="0.18"/><circle cx="216" cy="270" r="13" fill="black" fill-opacity="0.18"/><circle cx="264" cy="270" r="13" fill="black" fill-opacity="0.18"/><circle cx="312" cy="270" r="13" fill="black" fill-opacity="0.18"/><circle cx="360" cy="270" r="13" fill="black" fill-opacity="0.88"/><circle cx="120" cy="318" r="13" fill="black" fill-opacity="0.88"/><circle cx="168" cy="318" r="13" fill="black" fill-opacity="0.88"/><circle cx="216" cy="318" r="13" fill="black" fill-opacity="0.88"/><circle cx="264" cy="318" r="13" fill="black" fill-opacity="0.88"/><circle cx="312" cy="318" r="13" fill="black" fill-opacity="0.88"/><circle cx="360" cy="318" r="13" fill="black" fill-opacity="0.88"/><circle cx="360" cy="318" r="22" fill="none" stroke="black" stroke-width="2" stroke-dasharray="4 3"/><text x="290" y="389" font-size="26" text-anchor="middle" font-family="Noto Sans CJK TC, PingFang TC, Microsoft JhengHei, sans-serif">新增：6 + 6 − 1 = 11</text><text x="495" y="138" font-size="23" text-anchor="middle" font-family="Noto Sans CJK TC, PingFang TC, Microsoft JhengHei, sans-serif">原有 25 顆</text><text x="495" y="220" font-size="23" text-anchor="middle" font-family="Noto Sans CJK TC, PingFang TC, Microsoft JhengHei, sans-serif">新增 11 顆</text><text x="495" y="310" font-size="23" text-anchor="middle" font-family="Noto Sans CJK TC, PingFang TC, Microsoft JhengHei, sans-serif">角落算一次</text>
</svg>
