<?xml version="1.0" encoding="utf-8" standalone="no"?>
<!DOCTYPE svg PUBLIC "-//W3C//DTD SVG 1.1//EN"
  "http://www.w3.org/Graphics/SVG/1.1/DTD/svg11.dtd">
<svg xmlns:xlink="http://www.w3.org/1999/xlink" width="756pt" height="388.8pt" viewBox="0 0 756 388.8" xmlns="http://www.w3.org/2000/svg" version="1.1">
 <metadata>
  <rdf:RDF xmlns:dc="http://purl.org/dc/elements/1.1/" xmlns:cc="http://creativecommons.org/ns#" xmlns:rdf="http://www.w3.org/1999/02/22-rdf-syntax-ns#">
   <cc:Work>
    <dc:type rdf:resource="http://purl.org/dc/dcmitype/StillImage"/>
    <dc:date>2026-07-02T00:35:12.620809</dc:date>
    <dc:format>image/svg+xml</dc:format>
    <dc:creator>
     <cc:Agent>
      <dc:title>Matplotlib v3.11.0, https://matplotlib.org/</dc:title>
     </cc:Agent>
    </dc:creator>
   </cc:Work>
  </rdf:RDF>
 </metadata>
 <defs>
  <style type="text/css">*{stroke-linejoin: round; stroke-linecap: butt}</style>
 </defs>
 <g id="figure_1">
  <g id="patch_1">
   <path d="M 0 388.8 
L 756 388.8 
L 756 0 
L 0 0 
z
" style="fill: #ffffff"/>
  </g>
  <g id="axes_1">
   <g id="patch_2">
    <path d="M 55.563429 223.335111 
L 249.305143 223.335111 
Q 257.698286 223.335111 257.698286 215.665778 
L 257.698286 112.129778 
Q 257.698286 104.460444 249.305143 104.460444 
L 55.563429 104.460444 
Q 47.170286 104.460444 47.170286 112.129778 
L 47.170286 215.665778 
Q 47.170286 223.335111 55.563429 223.335111 
z
" clip-path="url(#pdd5b8d0e19)" style="fill: #c0392b; fill-opacity: 0.094118; stroke: #c0392b; stroke-width: 1.8; stroke-linejoin: miter"/>
   </g>
   <g id="patch_3">
    <path d="M 296.866286 223.335111 
L 490.608 223.335111 
Q 499.001143 223.335111 499.001143 215.665778 
L 499.001143 112.129778 
Q 499.001143 104.460444 490.608 104.460444 
L 296.866286 104.460444 
Q 288.473143 104.460444 288.473143 112.129778 
L 288.473143 215.665778 
Q 288.473143 223.335111 296.866286 223.335111 
z
" clip-path="url(#pdd5b8d0e19)" style="fill: #b7791f; fill-opacity: 0.094118; stroke: #b7791f; stroke-width: 1.8; stroke-linejoin: miter"/>
   </g>
   <g id="patch_4">
    <path d="M 538.169143 223.335111 
L 731.910857 223.335111 
Q 740.304 223.335111 740.304 215.665778 
L 740.304 112.129778 
Q 740.304 104.460444 731.910857 104.460444 
L 538.169143 104.460444 
Q 529.776 104.460444 529.776 112.129778 
L 529.776 215.665778 
Q 529.776 223.335111 538.169143 223.335111 
z
" clip-path="url(#pdd5b8d0e19)" style="fill: #2471a3; fill-opacity: 0.094118; stroke: #2471a3; stroke-width: 1.8; stroke-linejoin: miter"/>
   </g>
   <g id="patch_5">
    <path d="M 255.505058 163.897778 
Q 273.087044 163.897778 288.880175 163.897778 
" clip-path="url(#pdd5b8d0e19)" style="fill: none; stroke: #404040; stroke-width: 1.6; stroke-linecap: round"/>
    <path d="M 280.080175 159.497778 
L 288.880175 163.897778 
L 280.080175 168.297778 
z
" clip-path="url(#pdd5b8d0e19)" style="fill: #404040; stroke: #404040; stroke-width: 1.6; stroke-linecap: round"/>
   </g>
   <g id="patch_6">
    <path d="M 496.807915 163.897778 
Q 514.389901 163.897778 530.183032 163.897778 
" clip-path="url(#pdd5b8d0e19)" style="fill: none; stroke: #404040; stroke-width: 1.6; stroke-linecap: round"/>
    <path d="M 521.383032 159.497778 
L 530.183032 163.897778 
L 521.383032 168.297778 
z
" clip-path="url(#pdd5b8d0e19)" style="fill: #404040; stroke: #404040; stroke-width: 1.6; stroke-linecap: round"/>
   </g>
   <g id="line2d_1">
    <path d="M 152.434286 231.004444 
L 152.434286 240.591111 
L 635.04 240.591111 
L 635.04 231.004444 
" clip-path="url(#pdd5b8d0e19)" style="fill: none; stroke-dasharray: 4.44,1.92; stroke-dashoffset: 0; stroke: #666666; stroke-width: 1.2"/>
   </g>
   <g id="text_1">
    <!-- Step 1 -->
    <g style="fill: #c0392b" transform="translate(131.526747 146.304428) scale(0.115 -0.115)">
     <defs>
      <path id="DejaVuSans-Bold-36" d="M 3834 4519 
L 3834 3531 
Q 3450 3703 3084 3790 
Q 2719 3878 2394 3878 
Q 1963 3878 1756 3759 
Q 1550 3641 1550 3391 
Q 1550 3203 1689 3098 
Q 1828 2994 2194 2919 
L 2706 2816 
Q 3484 2659 3812 2340 
Q 4141 2022 4141 1434 
Q 4141 663 3683 286 
Q 3225 -91 2284 -91 
Q 1841 -91 1394 -6 
Q 947 78 500 244 
L 500 1259 
Q 947 1022 1364 901 
Q 1781 781 2169 781 
Q 2563 781 2772 912 
Q 2981 1044 2981 1288 
Q 2981 1506 2839 1625 
Q 2697 1744 2272 1838 
L 1806 1941 
Q 1106 2091 782 2419 
Q 459 2747 459 3303 
Q 459 4000 909 4375 
Q 1359 4750 2203 4750 
Q 2588 4750 2994 4692 
Q 3400 4634 3834 4519 
z
" transform="scale(0.015625)"/>
      <path id="DejaVuSans-Bold-57" d="M 1759 4494 
L 1759 3500 
L 2913 3500 
L 2913 2700 
L 1759 2700 
L 1759 1216 
Q 1759 972 1856 886 
Q 1953 800 2241 800 
L 2816 800 
L 2816 0 
L 1856 0 
Q 1194 0 917 276 
Q 641 553 641 1216 
L 641 2700 
L 84 2700 
L 84 3500 
L 641 3500 
L 641 4494 
L 1759 4494 
z
" transform="scale(0.015625)"/>
      <path id="DejaVuSans-Bold-48" d="M 4031 1759 
L 4031 1441 
L 1416 1441 
Q 1456 1047 1700 850 
Q 1944 653 2381 653 
Q 2734 653 3104 758 
Q 3475 863 3866 1075 
L 3866 213 
Q 3469 63 3072 -14 
Q 2675 -91 2278 -91 
Q 1328 -91 801 392 
Q 275 875 275 1747 
Q 275 2603 792 3093 
Q 1309 3584 2216 3584 
Q 3041 3584 3536 3087 
Q 4031 2591 4031 1759 
z
M 2881 2131 
Q 2881 2450 2695 2645 
Q 2509 2841 2209 2841 
Q 1884 2841 1681 2658 
Q 1478 2475 1428 2131 
L 2881 2131 
z
" transform="scale(0.015625)"/>
      <path id="DejaVuSans-Bold-53" d="M 1656 506 
L 1656 -1331 
L 538 -1331 
L 538 3500 
L 1656 3500 
L 1656 2988 
Q 1888 3294 2169 3439 
Q 2450 3584 2816 3584 
Q 3463 3584 3878 3070 
Q 4294 2556 4294 1747 
Q 4294 938 3878 423 
Q 3463 -91 2816 -91 
Q 2450 -91 2169 54 
Q 1888 200 1656 506 
z
M 2400 2772 
Q 2041 2772 1848 2508 
Q 1656 2244 1656 1747 
Q 1656 1250 1848 986 
Q 2041 722 2400 722 
Q 2759 722 2948 984 
Q 3138 1247 3138 1747 
Q 3138 2247 2948 2509 
Q 2759 2772 2400 2772 
z
" transform="scale(0.015625)"/>
      <path id="DejaVuSans-Bold-3" transform="scale(0.015625)"/>
      <path id="DejaVuSans-Bold-14" d="M 750 831 
L 1813 831 
L 1813 3847 
L 722 3622 
L 722 4441 
L 1806 4666 
L 2950 4666 
L 2950 831 
L 4013 831 
L 4013 0 
L 750 0 
L 750 831 
z
" transform="scale(0.015625)"/>
     </defs>
     <use xlink:href="#DejaVuSans-Bold-36"/>
     <use xlink:href="#DejaVuSans-Bold-57" transform="translate(72.015625 0)"/>
     <use xlink:href="#DejaVuSans-Bold-48" transform="translate(119.8125 0)"/>
     <use xlink:href="#DejaVuSans-Bold-53" transform="translate(187.640625 0)"/>
     <use xlink:href="#DejaVuSans-Bold-3" transform="translate(259.21875 0)"/>
     <use xlink:href="#DejaVuSans-Bold-14" transform="translate(294.03125 0)"/>
    </g>
    <!-- Confident intuition -->
    <g style="fill: #c0392b" transform="translate(91.408817 160.107572) scale(0.115 -0.115)">
     <defs>
      <path id="DejaVuSans-Bold-26" d="M 4288 256 
Q 3956 84 3597 -3 
Q 3238 -91 2847 -91 
Q 1681 -91 1000 561 
Q 319 1213 319 2328 
Q 319 3447 1000 4098 
Q 1681 4750 2847 4750 
Q 3238 4750 3597 4662 
Q 3956 4575 4288 4403 
L 4288 3438 
Q 3953 3666 3628 3772 
Q 3303 3878 2944 3878 
Q 2300 3878 1931 3465 
Q 1563 3053 1563 2328 
Q 1563 1606 1931 1193 
Q 2300 781 2944 781 
Q 3303 781 3628 887 
Q 3953 994 4288 1222 
L 4288 256 
z
" transform="scale(0.015625)"/>
      <path id="DejaVuSans-Bold-52" d="M 2203 2784 
Q 1831 2784 1636 2517 
Q 1441 2250 1441 1747 
Q 1441 1244 1636 976 
Q 1831 709 2203 709 
Q 2569 709 2762 976 
Q 2956 1244 2956 1747 
Q 2956 2250 2762 2517 
Q 2569 2784 2203 2784 
z
M 2203 3584 
Q 3106 3584 3614 3096 
Q 4122 2609 4122 1747 
Q 4122 884 3614 396 
Q 3106 -91 2203 -91 
Q 1297 -91 786 396 
Q 275 884 275 1747 
Q 275 2609 786 3096 
Q 1297 3584 2203 3584 
z
" transform="scale(0.015625)"/>
      <path id="DejaVuSans-Bold-51" d="M 4056 2131 
L 4056 0 
L 2931 0 
L 2931 347 
L 2931 1631 
Q 2931 2084 2911 2256 
Q 2891 2428 2841 2509 
Q 2775 2619 2662 2680 
Q 2550 2741 2406 2741 
Q 2056 2741 1856 2470 
Q 1656 2200 1656 1722 
L 1656 0 
L 538 0 
L 538 3500 
L 1656 3500 
L 1656 2988 
Q 1909 3294 2193 3439 
Q 2478 3584 2822 3584 
Q 3428 3584 3742 3212 
Q 4056 2841 4056 2131 
z
" transform="scale(0.015625)"/>
      <path id="DejaVuSans-Bold-13ab" d="M 3078 4863 
L 4206 4863 
L 4206 3950 
L 3078 3950 
L 3078 4863 
z
M 2847 4863 
L 2847 4128 
L 2228 4128 
Q 1994 4128 1903 4042 
Q 1813 3956 1813 3744 
L 1813 3500 
L 4206 3500 
L 4206 0 
L 3078 0 
L 3078 2700 
L 1813 2700 
L 1813 0 
L 684 0 
L 684 2700 
L 134 2700 
L 134 3500 
L 684 3500 
L 684 3744 
Q 684 4316 1003 4589 
Q 1322 4863 1991 4863 
L 2847 4863 
z
" transform="scale(0.015625)"/>
      <path id="DejaVuSans-Bold-47" d="M 2919 2988 
L 2919 4863 
L 4044 4863 
L 4044 0 
L 2919 0 
L 2919 506 
Q 2688 197 2409 53 
Q 2131 -91 1766 -91 
Q 1119 -91 703 423 
Q 288 938 288 1747 
Q 288 2556 703 3070 
Q 1119 3584 1766 3584 
Q 2128 3584 2408 3439 
Q 2688 3294 2919 2988 
z
M 2181 722 
Q 2541 722 2730 984 
Q 2919 1247 2919 1747 
Q 2919 2247 2730 2509 
Q 2541 2772 2181 2772 
Q 1825 2772 1636 2509 
Q 1447 2247 1447 1747 
Q 1447 1247 1636 984 
Q 1825 722 2181 722 
z
" transform="scale(0.015625)"/>
      <path id="DejaVuSans-Bold-4c" d="M 538 3500 
L 1656 3500 
L 1656 0 
L 538 0 
L 538 3500 
z
M 538 4863 
L 1656 4863 
L 1656 3950 
L 538 3950 
L 538 4863 
z
" transform="scale(0.015625)"/>
      <path id="DejaVuSans-Bold-58" d="M 500 1363 
L 500 3500 
L 1625 3500 
L 1625 3150 
Q 1625 2866 1622 2436 
Q 1619 2006 1619 1863 
Q 1619 1441 1641 1255 
Q 1663 1069 1716 984 
Q 1784 875 1895 815 
Q 2006 756 2150 756 
Q 2500 756 2700 1025 
Q 2900 1294 2900 1772 
L 2900 3500 
L 4019 3500 
L 4019 0 
L 2900 0 
L 2900 506 
Q 2647 200 2364 54 
Q 2081 -91 1741 -91 
Q 1134 -91 817 281 
Q 500 653 500 1363 
z
" transform="scale(0.015625)"/>
     </defs>
     <use xlink:href="#DejaVuSans-Bold-26"/>
     <use xlink:href="#DejaVuSans-Bold-52" transform="translate(73.390625 0)"/>
     <use xlink:href="#DejaVuSans-Bold-51" transform="translate(142.09375 0)"/>
     <use xlink:href="#DejaVuSans-Bold-13ab" transform="translate(213.28125 0)"/>
     <use xlink:href="#DejaVuSans-Bold-47" transform="translate(287.40625 0)"/>
     <use xlink:href="#DejaVuSans-Bold-48" transform="translate(358.984375 0)"/>
     <use xlink:href="#DejaVuSans-Bold-51" transform="translate(426.8125 0)"/>
     <use xlink:href="#DejaVuSans-Bold-57" transform="translate(498 0)"/>
     <use xlink:href="#DejaVuSans-Bold-3" transform="translate(545.796875 0)"/>
     <use xlink:href="#DejaVuSans-Bold-4c" transform="translate(580.609375 0)"/>
     <use xlink:href="#DejaVuSans-Bold-51" transform="translate(614.890625 0)"/>
     <use xlink:href="#DejaVuSans-Bold-57" transform="translate(686.078125 0)"/>
     <use xlink:href="#DejaVuSans-Bold-58" transform="translate(733.875 0)"/>
     <use xlink:href="#DejaVuSans-Bold-4c" transform="translate(805.0625 0)"/>
     <use xlink:href="#DejaVuSans-Bold-57" transform="translate(839.34375 0)"/>
     <use xlink:href="#DejaVuSans-Bold-4c" transform="translate(887.140625 0)"/>
     <use xlink:href="#DejaVuSans-Bold-52" transform="translate(921.421875 0)"/>
     <use xlink:href="#DejaVuSans-Bold-51" transform="translate(990.125 0)"/>
    </g>
   </g>
   <g id="text_2">
    <!-- "Obviously 1/2" -->
    <g style="fill: #333333" transform="translate(117.446083 184.419473) scale(0.09 -0.09)">
     <defs>
      <path id="DejaVuSans-5" d="M 1147 4666 
L 1147 2931 
L 616 2931 
L 616 4666 
L 1147 4666 
z
M 2328 4666 
L 2328 2931 
L 1797 2931 
L 1797 4666 
L 2328 4666 
z
" transform="scale(0.015625)"/>
      <path id="DejaVuSans-32" d="M 2522 4238 
Q 1834 4238 1429 3725 
Q 1025 3213 1025 2328 
Q 1025 1447 1429 934 
Q 1834 422 2522 422 
Q 3209 422 3611 934 
Q 4013 1447 4013 2328 
Q 4013 3213 3611 3725 
Q 3209 4238 2522 4238 
z
M 2522 4750 
Q 3503 4750 4090 4092 
Q 4678 3434 4678 2328 
Q 4678 1225 4090 567 
Q 3503 -91 2522 -91 
Q 1538 -91 948 565 
Q 359 1222 359 2328 
Q 359 3434 948 4092 
Q 1538 4750 2522 4750 
z
" transform="scale(0.015625)"/>
      <path id="DejaVuSans-45" d="M 3116 1747 
Q 3116 2381 2855 2742 
Q 2594 3103 2138 3103 
Q 1681 3103 1420 2742 
Q 1159 2381 1159 1747 
Q 1159 1113 1420 752 
Q 1681 391 2138 391 
Q 2594 391 2855 752 
Q 3116 1113 3116 1747 
z
M 1159 2969 
Q 1341 3281 1617 3432 
Q 1894 3584 2278 3584 
Q 2916 3584 3314 3078 
Q 3713 2572 3713 1747 
Q 3713 922 3314 415 
Q 2916 -91 2278 -91 
Q 1894 -91 1617 61 
Q 1341 213 1159 525 
L 1159 0 
L 581 0 
L 581 4863 
L 1159 4863 
L 1159 2969 
z
" transform="scale(0.015625)"/>
      <path id="DejaVuSans-59" d="M 191 3500 
L 800 3500 
L 1894 563 
L 2988 3500 
L 3597 3500 
L 2284 0 
L 1503 0 
L 191 3500 
z
" transform="scale(0.015625)"/>
      <path id="DejaVuSans-4c" d="M 603 3500 
L 1178 3500 
L 1178 0 
L 603 0 
L 603 3500 
z
M 603 4863 
L 1178 4863 
L 1178 4134 
L 603 4134 
L 603 4863 
z
" transform="scale(0.015625)"/>
      <path id="DejaVuSans-52" d="M 1959 3097 
Q 1497 3097 1228 2736 
Q 959 2375 959 1747 
Q 959 1119 1226 758 
Q 1494 397 1959 397 
Q 2419 397 2687 759 
Q 2956 1122 2956 1747 
Q 2956 2369 2687 2733 
Q 2419 3097 1959 3097 
z
M 1959 3584 
Q 2709 3584 3137 3096 
Q 3566 2609 3566 1747 
Q 3566 888 3137 398 
Q 2709 -91 1959 -91 
Q 1206 -91 779 398 
Q 353 888 353 1747 
Q 353 2609 779 3096 
Q 1206 3584 1959 3584 
z
" transform="scale(0.015625)"/>
      <path id="DejaVuSans-58" d="M 544 1381 
L 544 3500 
L 1119 3500 
L 1119 1403 
Q 1119 906 1312 657 
Q 1506 409 1894 409 
Q 2359 409 2629 706 
Q 2900 1003 2900 1516 
L 2900 3500 
L 3475 3500 
L 3475 0 
L 2900 0 
L 2900 538 
Q 2691 219 2414 64 
Q 2138 -91 1772 -91 
Q 1169 -91 856 284 
Q 544 659 544 1381 
z
M 1991 3584 
L 1991 3584 
z
" transform="scale(0.015625)"/>
      <path id="DejaVuSans-56" d="M 2834 3397 
L 2834 2853 
Q 2591 2978 2328 3040 
Q 2066 3103 1784 3103 
Q 1356 3103 1142 2972 
Q 928 2841 928 2578 
Q 928 2378 1081 2264 
Q 1234 2150 1697 2047 
L 1894 2003 
Q 2506 1872 2764 1633 
Q 3022 1394 3022 966 
Q 3022 478 2636 193 
Q 2250 -91 1575 -91 
Q 1294 -91 989 -36 
Q 684 19 347 128 
L 347 722 
Q 666 556 975 473 
Q 1284 391 1588 391 
Q 1994 391 2212 530 
Q 2431 669 2431 922 
Q 2431 1156 2273 1281 
Q 2116 1406 1581 1522 
L 1381 1569 
Q 847 1681 609 1914 
Q 372 2147 372 2553 
Q 372 3047 722 3315 
Q 1072 3584 1716 3584 
Q 2034 3584 2315 3537 
Q 2597 3491 2834 3397 
z
" transform="scale(0.015625)"/>
      <path id="DejaVuSans-4f" d="M 603 4863 
L 1178 4863 
L 1178 0 
L 603 0 
L 603 4863 
z
" transform="scale(0.015625)"/>
      <path id="DejaVuSans-5c" d="M 2059 -325 
Q 1816 -950 1584 -1140 
Q 1353 -1331 966 -1331 
L 506 -1331 
L 506 -850 
L 844 -850 
Q 1081 -850 1212 -737 
Q 1344 -625 1503 -206 
L 1606 56 
L 191 3500 
L 800 3500 
L 1894 763 
L 2988 3500 
L 3597 3500 
L 2059 -325 
z
" transform="scale(0.015625)"/>
      <path id="DejaVuSans-3" transform="scale(0.015625)"/>
      <path id="DejaVuSans-14" d="M 794 531 
L 1825 531 
L 1825 4091 
L 703 3866 
L 703 4441 
L 1819 4666 
L 2450 4666 
L 2450 531 
L 3481 531 
L 3481 0 
L 794 0 
L 794 531 
z
" transform="scale(0.015625)"/>
      <path id="DejaVuSans-12" d="M 1625 4666 
L 2156 4666 
L 531 -594 
L 0 -594 
L 1625 4666 
z
" transform="scale(0.015625)"/>
      <path id="DejaVuSans-15" d="M 1228 531 
L 3431 531 
L 3431 0 
L 469 0 
L 469 531 
Q 828 903 1448 1529 
Q 2069 2156 2228 2338 
Q 2531 2678 2651 2914 
Q 2772 3150 2772 3378 
Q 2772 3750 2511 3984 
Q 2250 4219 1831 4219 
Q 1534 4219 1204 4116 
Q 875 4013 500 3803 
L 500 4441 
Q 881 4594 1212 4672 
Q 1544 4750 1819 4750 
Q 2544 4750 2975 4387 
Q 3406 4025 3406 3419 
Q 3406 3131 3298 2873 
Q 3191 2616 2906 2266 
Q 2828 2175 2409 1742 
Q 1991 1309 1228 531 
z
" transform="scale(0.015625)"/>
     </defs>
     <use xlink:href="#DejaVuSans-5"/>
     <use xlink:href="#DejaVuSans-32" transform="translate(46 0)"/>
     <use xlink:href="#DejaVuSans-45" transform="translate(124.71875 0)"/>
     <use xlink:href="#DejaVuSans-59" transform="translate(188.203125 0)"/>
     <use xlink:href="#DejaVuSans-4c" transform="translate(247.390625 0)"/>
     <use xlink:href="#DejaVuSans-52" transform="translate(275.171875 0)"/>
     <use xlink:href="#DejaVuSans-58" transform="translate(336.359375 0)"/>
     <use xlink:href="#DejaVuSans-56" transform="translate(399.734375 0)"/>
     <use xlink:href="#DejaVuSans-4f" transform="translate(451.828125 0)"/>
     <use xlink:href="#DejaVuSans-5c" transform="translate(479.609375 0)"/>
     <use xlink:href="#DejaVuSans-3" transform="translate(538.796875 0)"/>
     <use xlink:href="#DejaVuSans-14" transform="translate(570.578125 0)"/>
     <use xlink:href="#DejaVuSans-12" transform="translate(634.203125 0)"/>
     <use xlink:href="#DejaVuSans-15" transform="translate(667.890625 0)"/>
     <use xlink:href="#DejaVuSans-5" transform="translate(731.515625 0)"/>
    </g>
    <!-- (feels self-evident) -->
    <g style="fill: #333333" transform="translate(110.527333 195.221934) scale(0.09 -0.09)">
     <defs>
      <path id="DejaVuSans-b" d="M 1984 4856 
Q 1566 4138 1362 3434 
Q 1159 2731 1159 2009 
Q 1159 1288 1364 580 
Q 1569 -128 1984 -844 
L 1484 -844 
Q 1016 -109 783 600 
Q 550 1309 550 2009 
Q 550 2706 781 3412 
Q 1013 4119 1484 4856 
L 1984 4856 
z
" transform="scale(0.015625)"/>
      <path id="DejaVuSans-49" d="M 2375 4863 
L 2375 4384 
L 1825 4384 
Q 1516 4384 1395 4259 
Q 1275 4134 1275 3809 
L 1275 3500 
L 2222 3500 
L 2222 3053 
L 1275 3053 
L 1275 0 
L 697 0 
L 697 3053 
L 147 3053 
L 147 3500 
L 697 3500 
L 697 3744 
Q 697 4328 969 4595 
Q 1241 4863 1831 4863 
L 2375 4863 
z
" transform="scale(0.015625)"/>
      <path id="DejaVuSans-48" d="M 3597 1894 
L 3597 1613 
L 953 1613 
Q 991 1019 1311 708 
Q 1631 397 2203 397 
Q 2534 397 2845 478 
Q 3156 559 3463 722 
L 3463 178 
Q 3153 47 2828 -22 
Q 2503 -91 2169 -91 
Q 1331 -91 842 396 
Q 353 884 353 1716 
Q 353 2575 817 3079 
Q 1281 3584 2069 3584 
Q 2775 3584 3186 3129 
Q 3597 2675 3597 1894 
z
M 3022 2063 
Q 3016 2534 2758 2815 
Q 2500 3097 2075 3097 
Q 1594 3097 1305 2825 
Q 1016 2553 972 2059 
L 3022 2063 
z
" transform="scale(0.015625)"/>
      <path id="DejaVuSans-10" d="M 313 2009 
L 1997 2009 
L 1997 1497 
L 313 1497 
L 313 2009 
z
" transform="scale(0.015625)"/>
      <path id="DejaVuSans-47" d="M 2906 2969 
L 2906 4863 
L 3481 4863 
L 3481 0 
L 2906 0 
L 2906 525 
Q 2725 213 2448 61 
Q 2172 -91 1784 -91 
Q 1150 -91 751 415 
Q 353 922 353 1747 
Q 353 2572 751 3078 
Q 1150 3584 1784 3584 
Q 2172 3584 2448 3432 
Q 2725 3281 2906 2969 
z
M 947 1747 
Q 947 1113 1208 752 
Q 1469 391 1925 391 
Q 2381 391 2643 752 
Q 2906 1113 2906 1747 
Q 2906 2381 2643 2742 
Q 2381 3103 1925 3103 
Q 1469 3103 1208 2742 
Q 947 2381 947 1747 
z
" transform="scale(0.015625)"/>
      <path id="DejaVuSans-51" d="M 3513 2113 
L 3513 0 
L 2938 0 
L 2938 2094 
Q 2938 2591 2744 2837 
Q 2550 3084 2163 3084 
Q 1697 3084 1428 2787 
Q 1159 2491 1159 1978 
L 1159 0 
L 581 0 
L 581 3500 
L 1159 3500 
L 1159 2956 
Q 1366 3272 1645 3428 
Q 1925 3584 2291 3584 
Q 2894 3584 3203 3211 
Q 3513 2838 3513 2113 
z
" transform="scale(0.015625)"/>
      <path id="DejaVuSans-57" d="M 1172 4494 
L 1172 3500 
L 2356 3500 
L 2356 3053 
L 1172 3053 
L 1172 1153 
Q 1172 725 1289 603 
Q 1406 481 1766 481 
L 2356 481 
L 2356 0 
L 1766 0 
Q 1100 0 847 248 
Q 594 497 594 1153 
L 594 3053 
L 172 3053 
L 172 3500 
L 594 3500 
L 594 4494 
L 1172 4494 
z
" transform="scale(0.015625)"/>
      <path id="DejaVuSans-c" d="M 513 4856 
L 1013 4856 
Q 1481 4119 1714 3412 
Q 1947 2706 1947 2009 
Q 1947 1309 1714 600 
Q 1481 -109 1013 -844 
L 513 -844 
Q 928 -128 1133 580 
Q 1338 1288 1338 2009 
Q 1338 2731 1133 3434 
Q 928 4138 513 4856 
z
" transform="scale(0.015625)"/>
     </defs>
     <use xlink:href="#DejaVuSans-b"/>
     <use xlink:href="#DejaVuSans-49" transform="translate(39.015625 0)"/>
     <use xlink:href="#DejaVuSans-48" transform="translate(74.21875 0)"/>
     <use xlink:href="#DejaVuSans-48" transform="translate(135.75 0)"/>
     <use xlink:href="#DejaVuSans-4f" transform="translate(197.28125 0)"/>
     <use xlink:href="#DejaVuSans-56" transform="translate(225.0625 0)"/>
     <use xlink:href="#DejaVuSans-3" transform="translate(277.15625 0)"/>
     <use xlink:href="#DejaVuSans-56" transform="translate(308.9375 0)"/>
     <use xlink:href="#DejaVuSans-48" transform="translate(361.03125 0)"/>
     <use xlink:href="#DejaVuSans-4f" transform="translate(422.5625 0)"/>
     <use xlink:href="#DejaVuSans-49" transform="translate(450.34375 0)"/>
     <use xlink:href="#DejaVuSans-10" transform="translate(480.078125 0)"/>
     <use xlink:href="#DejaVuSans-48" transform="translate(516.15625 0)"/>
     <use xlink:href="#DejaVuSans-59" transform="translate(577.6875 0)"/>
     <use xlink:href="#DejaVuSans-4c" transform="translate(636.875 0)"/>
     <use xlink:href="#DejaVuSans-47" transform="translate(664.65625 0)"/>
     <use xlink:href="#DejaVuSans-48" transform="translate(728.140625 0)"/>
     <use xlink:href="#DejaVuSans-51" transform="translate(789.671875 0)"/>
     <use xlink:href="#DejaVuSans-57" transform="translate(853.046875 0)"/>
     <use xlink:href="#DejaVuSans-c" transform="translate(892.25 0)"/>
    </g>
   </g>
   <g id="text_3">
    <!-- Step 2 -->
    <g style="fill: #b7791f" transform="translate(372.829604 146.304428) scale(0.115 -0.115)">
     <defs>
      <path id="DejaVuSans-Bold-15" d="M 1844 884 
L 3897 884 
L 3897 0 
L 506 0 
L 506 884 
L 2209 2388 
Q 2438 2594 2547 2791 
Q 2656 2988 2656 3200 
Q 2656 3528 2436 3728 
Q 2216 3928 1850 3928 
Q 1569 3928 1234 3808 
Q 900 3688 519 3450 
L 519 4475 
Q 925 4609 1322 4679 
Q 1719 4750 2100 4750 
Q 2938 4750 3402 4381 
Q 3866 4013 3866 3353 
Q 3866 2972 3669 2642 
Q 3472 2313 2841 1759 
L 1844 884 
z
" transform="scale(0.015625)"/>
     </defs>
     <use xlink:href="#DejaVuSans-Bold-36"/>
     <use xlink:href="#DejaVuSans-Bold-57" transform="translate(72.015625 0)"/>
     <use xlink:href="#DejaVuSans-Bold-48" transform="translate(119.8125 0)"/>
     <use xlink:href="#DejaVuSans-Bold-53" transform="translate(187.640625 0)"/>
     <use xlink:href="#DejaVuSans-Bold-3" transform="translate(259.21875 0)"/>
     <use xlink:href="#DejaVuSans-Bold-15" transform="translate(294.03125 0)"/>
    </g>
    <!-- Unspoken assumption -->
    <g style="fill: #b7791f" transform="translate(322.133471 160.107572) scale(0.115 -0.115)">
     <defs>
      <path id="DejaVuSans-Bold-38" d="M 588 4666 
L 1791 4666 
L 1791 1869 
Q 1791 1291 1980 1042 
Q 2169 794 2597 794 
Q 3028 794 3217 1042 
Q 3406 1291 3406 1869 
L 3406 4666 
L 4609 4666 
L 4609 1869 
Q 4609 878 4112 393 
Q 3616 -91 2597 -91 
Q 1581 -91 1084 393 
Q 588 878 588 1869 
L 588 4666 
z
" transform="scale(0.015625)"/>
      <path id="DejaVuSans-Bold-56" d="M 3272 3391 
L 3272 2541 
Q 2913 2691 2578 2766 
Q 2244 2841 1947 2841 
Q 1628 2841 1473 2761 
Q 1319 2681 1319 2516 
Q 1319 2381 1436 2309 
Q 1553 2238 1856 2203 
L 2053 2175 
Q 2913 2066 3209 1816 
Q 3506 1566 3506 1031 
Q 3506 472 3093 190 
Q 2681 -91 1863 -91 
Q 1516 -91 1145 -36 
Q 775 19 384 128 
L 384 978 
Q 719 816 1070 734 
Q 1422 653 1784 653 
Q 2113 653 2278 743 
Q 2444 834 2444 1013 
Q 2444 1163 2330 1236 
Q 2216 1309 1875 1350 
L 1678 1375 
Q 931 1469 631 1722 
Q 331 1975 331 2491 
Q 331 3047 712 3315 
Q 1094 3584 1881 3584 
Q 2191 3584 2531 3537 
Q 2872 3491 3272 3391 
z
" transform="scale(0.015625)"/>
      <path id="DejaVuSans-Bold-4e" d="M 538 4863 
L 1656 4863 
L 1656 2216 
L 2944 3500 
L 4244 3500 
L 2534 1894 
L 4378 0 
L 3022 0 
L 1656 1459 
L 1656 0 
L 538 0 
L 538 4863 
z
" transform="scale(0.015625)"/>
      <path id="DejaVuSans-Bold-44" d="M 2106 1575 
Q 1756 1575 1579 1456 
Q 1403 1338 1403 1106 
Q 1403 894 1545 773 
Q 1688 653 1941 653 
Q 2256 653 2472 879 
Q 2688 1106 2688 1447 
L 2688 1575 
L 2106 1575 
z
M 3816 1997 
L 3816 0 
L 2688 0 
L 2688 519 
Q 2463 200 2181 54 
Q 1900 -91 1497 -91 
Q 953 -91 614 226 
Q 275 544 275 1050 
Q 275 1666 698 1953 
Q 1122 2241 2028 2241 
L 2688 2241 
L 2688 2328 
Q 2688 2594 2478 2717 
Q 2269 2841 1825 2841 
Q 1466 2841 1156 2769 
Q 847 2697 581 2553 
L 581 3406 
Q 941 3494 1303 3539 
Q 1666 3584 2028 3584 
Q 2975 3584 3395 3211 
Q 3816 2838 3816 1997 
z
" transform="scale(0.015625)"/>
      <path id="DejaVuSans-Bold-50" d="M 3781 2919 
Q 3994 3244 4286 3414 
Q 4578 3584 4928 3584 
Q 5531 3584 5847 3212 
Q 6163 2841 6163 2131 
L 6163 0 
L 5038 0 
L 5038 1825 
Q 5041 1866 5042 1909 
Q 5044 1953 5044 2034 
Q 5044 2406 4934 2573 
Q 4825 2741 4581 2741 
Q 4263 2741 4089 2478 
Q 3916 2216 3909 1719 
L 3909 0 
L 2784 0 
L 2784 1825 
Q 2784 2406 2684 2573 
Q 2584 2741 2328 2741 
Q 2006 2741 1831 2477 
Q 1656 2213 1656 1722 
L 1656 0 
L 531 0 
L 531 3500 
L 1656 3500 
L 1656 2988 
Q 1863 3284 2130 3434 
Q 2397 3584 2719 3584 
Q 3081 3584 3359 3409 
Q 3638 3234 3781 2919 
z
" transform="scale(0.015625)"/>
     </defs>
     <use xlink:href="#DejaVuSans-Bold-38"/>
     <use xlink:href="#DejaVuSans-Bold-51" transform="translate(81.203125 0)"/>
     <use xlink:href="#DejaVuSans-Bold-56" transform="translate(152.390625 0)"/>
     <use xlink:href="#DejaVuSans-Bold-53" transform="translate(211.90625 0)"/>
     <use xlink:href="#DejaVuSans-Bold-52" transform="translate(283.484375 0)"/>
     <use xlink:href="#DejaVuSans-Bold-4e" transform="translate(352.1875 0)"/>
     <use xlink:href="#DejaVuSans-Bold-48" transform="translate(416 0)"/>
     <use xlink:href="#DejaVuSans-Bold-51" transform="translate(483.828125 0)"/>
     <use xlink:href="#DejaVuSans-Bold-3" transform="translate(555.015625 0)"/>
     <use xlink:href="#DejaVuSans-Bold-44" transform="translate(589.828125 0)"/>
     <use xlink:href="#DejaVuSans-Bold-56" transform="translate(657.3125 0)"/>
     <use xlink:href="#DejaVuSans-Bold-56" transform="translate(716.828125 0)"/>
     <use xlink:href="#DejaVuSans-Bold-58" transform="translate(776.34375 0)"/>
     <use xlink:href="#DejaVuSans-Bold-50" transform="translate(847.53125 0)"/>
     <use xlink:href="#DejaVuSans-Bold-53" transform="translate(951.734375 0)"/>
     <use xlink:href="#DejaVuSans-Bold-57" transform="translate(1023.3125 0)"/>
     <use xlink:href="#DejaVuSans-Bold-4c" transform="translate(1071.109375 0)"/>
     <use xlink:href="#DejaVuSans-Bold-52" transform="translate(1105.390625 0)"/>
     <use xlink:href="#DejaVuSans-Bold-51" transform="translate(1174.09375 0)"/>
    </g>
   </g>
   <g id="text_4">
    <!-- Name the smuggled -->
    <g style="fill: #333333" transform="translate(348.046674 184.419473) scale(0.09 -0.09)">
     <defs>
      <path id="DejaVuSans-31" d="M 628 4666 
L 1478 4666 
L 3547 763 
L 3547 4666 
L 4159 4666 
L 4159 0 
L 3309 0 
L 1241 3903 
L 1241 0 
L 628 0 
L 628 4666 
z
" transform="scale(0.015625)"/>
      <path id="DejaVuSans-44" d="M 2194 1759 
Q 1497 1759 1228 1600 
Q 959 1441 959 1056 
Q 959 750 1161 570 
Q 1363 391 1709 391 
Q 2188 391 2477 730 
Q 2766 1069 2766 1631 
L 2766 1759 
L 2194 1759 
z
M 3341 1997 
L 3341 0 
L 2766 0 
L 2766 531 
Q 2569 213 2275 61 
Q 1981 -91 1556 -91 
Q 1019 -91 701 211 
Q 384 513 384 1019 
Q 384 1609 779 1909 
Q 1175 2209 1959 2209 
L 2766 2209 
L 2766 2266 
Q 2766 2663 2505 2880 
Q 2244 3097 1772 3097 
Q 1472 3097 1187 3025 
Q 903 2953 641 2809 
L 641 3341 
Q 956 3463 1253 3523 
Q 1550 3584 1831 3584 
Q 2591 3584 2966 3190 
Q 3341 2797 3341 1997 
z
" transform="scale(0.015625)"/>
      <path id="DejaVuSans-50" d="M 3328 2828 
Q 3544 3216 3844 3400 
Q 4144 3584 4550 3584 
Q 5097 3584 5394 3201 
Q 5691 2819 5691 2113 
L 5691 0 
L 5113 0 
L 5113 2094 
Q 5113 2597 4934 2840 
Q 4756 3084 4391 3084 
Q 3944 3084 3684 2787 
Q 3425 2491 3425 1978 
L 3425 0 
L 2847 0 
L 2847 2094 
Q 2847 2600 2669 2842 
Q 2491 3084 2119 3084 
Q 1678 3084 1418 2786 
Q 1159 2488 1159 1978 
L 1159 0 
L 581 0 
L 581 3500 
L 1159 3500 
L 1159 2956 
Q 1356 3278 1631 3431 
Q 1906 3584 2284 3584 
Q 2666 3584 2933 3390 
Q 3200 3197 3328 2828 
z
" transform="scale(0.015625)"/>
      <path id="DejaVuSans-4b" d="M 3513 2113 
L 3513 0 
L 2938 0 
L 2938 2094 
Q 2938 2591 2744 2837 
Q 2550 3084 2163 3084 
Q 1697 3084 1428 2787 
Q 1159 2491 1159 1978 
L 1159 0 
L 581 0 
L 581 4863 
L 1159 4863 
L 1159 2956 
Q 1366 3272 1645 3428 
Q 1925 3584 2291 3584 
Q 2894 3584 3203 3211 
Q 3513 2838 3513 2113 
z
" transform="scale(0.015625)"/>
      <path id="DejaVuSans-4a" d="M 2906 1791 
Q 2906 2416 2648 2759 
Q 2391 3103 1925 3103 
Q 1463 3103 1205 2759 
Q 947 2416 947 1791 
Q 947 1169 1205 825 
Q 1463 481 1925 481 
Q 2391 481 2648 825 
Q 2906 1169 2906 1791 
z
M 3481 434 
Q 3481 -459 3084 -895 
Q 2688 -1331 1869 -1331 
Q 1566 -1331 1297 -1286 
Q 1028 -1241 775 -1147 
L 775 -588 
Q 1028 -725 1275 -790 
Q 1522 -856 1778 -856 
Q 2344 -856 2625 -561 
Q 2906 -266 2906 331 
L 2906 616 
Q 2728 306 2450 153 
Q 2172 0 1784 0 
Q 1141 0 747 490 
Q 353 981 353 1791 
Q 353 2603 747 3093 
Q 1141 3584 1784 3584 
Q 2172 3584 2450 3431 
Q 2728 3278 2906 2969 
L 2906 3500 
L 3481 3500 
L 3481 434 
z
" transform="scale(0.015625)"/>
     </defs>
     <use xlink:href="#DejaVuSans-31"/>
     <use xlink:href="#DejaVuSans-44" transform="translate(74.8125 0)"/>
     <use xlink:href="#DejaVuSans-50" transform="translate(136.09375 0)"/>
     <use xlink:href="#DejaVuSans-48" transform="translate(233.5 0)"/>
     <use xlink:href="#DejaVuSans-3" transform="translate(295.03125 0)"/>
     <use xlink:href="#DejaVuSans-57" transform="translate(326.8125 0)"/>
     <use xlink:href="#DejaVuSans-4b" transform="translate(366.015625 0)"/>
     <use xlink:href="#DejaVuSans-48" transform="translate(429.390625 0)"/>
     <use xlink:href="#DejaVuSans-3" transform="translate(490.921875 0)"/>
     <use xlink:href="#DejaVuSans-56" transform="translate(522.703125 0)"/>
     <use xlink:href="#DejaVuSans-50" transform="translate(574.796875 0)"/>
     <use xlink:href="#DejaVuSans-58" transform="translate(672.203125 0)"/>
     <use xlink:href="#DejaVuSans-4a" transform="translate(735.578125 0)"/>
     <use xlink:href="#DejaVuSans-4a" transform="translate(799.0625 0)"/>
     <use xlink:href="#DejaVuSans-4f" transform="translate(862.546875 0)"/>
     <use xlink:href="#DejaVuSans-48" transform="translate(890.328125 0)"/>
     <use xlink:href="#DejaVuSans-47" transform="translate(951.859375 0)"/>
    </g>
    <!-- premise out loud -->
    <g style="fill: #333333" transform="translate(355.672065 195.221934) scale(0.09 -0.09)">
     <defs>
      <path id="DejaVuSans-53" d="M 1159 525 
L 1159 -1331 
L 581 -1331 
L 581 3500 
L 1159 3500 
L 1159 2969 
Q 1341 3281 1617 3432 
Q 1894 3584 2278 3584 
Q 2916 3584 3314 3078 
Q 3713 2572 3713 1747 
Q 3713 922 3314 415 
Q 2916 -91 2278 -91 
Q 1894 -91 1617 61 
Q 1341 213 1159 525 
z
M 3116 1747 
Q 3116 2381 2855 2742 
Q 2594 3103 2138 3103 
Q 1681 3103 1420 2742 
Q 1159 2381 1159 1747 
Q 1159 1113 1420 752 
Q 1681 391 2138 391 
Q 2594 391 2855 752 
Q 3116 1113 3116 1747 
z
" transform="scale(0.015625)"/>
      <path id="DejaVuSans-55" d="M 2631 2963 
Q 2534 3019 2420 3045 
Q 2306 3072 2169 3072 
Q 1681 3072 1420 2755 
Q 1159 2438 1159 1844 
L 1159 0 
L 581 0 
L 581 3500 
L 1159 3500 
L 1159 2956 
Q 1341 3275 1631 3429 
Q 1922 3584 2338 3584 
Q 2397 3584 2469 3576 
Q 2541 3569 2628 3553 
L 2631 2963 
z
" transform="scale(0.015625)"/>
     </defs>
     <use xlink:href="#DejaVuSans-53"/>
     <use xlink:href="#DejaVuSans-55" transform="translate(63.484375 0)"/>
     <use xlink:href="#DejaVuSans-48" transform="translate(102.390625 0)"/>
     <use xlink:href="#DejaVuSans-50" transform="translate(163.921875 0)"/>
     <use xlink:href="#DejaVuSans-4c" transform="translate(261.328125 0)"/>
     <use xlink:href="#DejaVuSans-56" transform="translate(289.109375 0)"/>
     <use xlink:href="#DejaVuSans-48" transform="translate(341.203125 0)"/>
     <use xlink:href="#DejaVuSans-3" transform="translate(402.734375 0)"/>
     <use xlink:href="#DejaVuSans-52" transform="translate(434.515625 0)"/>
     <use xlink:href="#DejaVuSans-58" transform="translate(495.703125 0)"/>
     <use xlink:href="#DejaVuSans-57" transform="translate(559.078125 0)"/>
     <use xlink:href="#DejaVuSans-3" transform="translate(598.28125 0)"/>
     <use xlink:href="#DejaVuSans-4f" transform="translate(630.0625 0)"/>
     <use xlink:href="#DejaVuSans-52" transform="translate(657.84375 0)"/>
     <use xlink:href="#DejaVuSans-58" transform="translate(719.03125 0)"/>
     <use xlink:href="#DejaVuSans-47" transform="translate(782.40625 0)"/>
    </g>
   </g>
   <g id="text_5">
    <!-- Step 3 -->
    <g style="fill: #2471a3" transform="translate(614.132461 146.304428) scale(0.115 -0.115)">
     <defs>
      <path id="DejaVuSans-Bold-16" d="M 2981 2516 
Q 3453 2394 3698 2092 
Q 3944 1791 3944 1325 
Q 3944 631 3412 270 
Q 2881 -91 1863 -91 
Q 1503 -91 1142 -33 
Q 781 25 428 141 
L 428 1069 
Q 766 900 1098 814 
Q 1431 728 1753 728 
Q 2231 728 2486 893 
Q 2741 1059 2741 1369 
Q 2741 1688 2480 1852 
Q 2219 2016 1709 2016 
L 1228 2016 
L 1228 2791 
L 1734 2791 
Q 2188 2791 2409 2933 
Q 2631 3075 2631 3366 
Q 2631 3634 2415 3781 
Q 2200 3928 1806 3928 
Q 1516 3928 1219 3862 
Q 922 3797 628 3669 
L 628 4550 
Q 984 4650 1334 4700 
Q 1684 4750 2022 4750 
Q 2931 4750 3382 4451 
Q 3834 4153 3834 3553 
Q 3834 3144 3618 2883 
Q 3403 2622 2981 2516 
z
" transform="scale(0.015625)"/>
     </defs>
     <use xlink:href="#DejaVuSans-Bold-36"/>
     <use xlink:href="#DejaVuSans-Bold-57" transform="translate(72.015625 0)"/>
     <use xlink:href="#DejaVuSans-Bold-48" transform="translate(119.8125 0)"/>
     <use xlink:href="#DejaVuSans-Bold-53" transform="translate(187.640625 0)"/>
     <use xlink:href="#DejaVuSans-Bold-3" transform="translate(259.21875 0)"/>
     <use xlink:href="#DejaVuSans-Bold-16" transform="translate(294.03125 0)"/>
    </g>
    <!-- Rigorous rebuild -->
    <g style="fill: #2471a3" transform="translate(581.269414 160.107572) scale(0.115 -0.115)">
     <defs>
      <path id="DejaVuSans-Bold-35" d="M 2297 2597 
Q 2675 2597 2839 2737 
Q 3003 2878 3003 3200 
Q 3003 3519 2839 3656 
Q 2675 3794 2297 3794 
L 1791 3794 
L 1791 2597 
L 2297 2597 
z
M 1791 1766 
L 1791 0 
L 588 0 
L 588 4666 
L 2425 4666 
Q 3347 4666 3776 4356 
Q 4206 4047 4206 3378 
Q 4206 2916 3982 2619 
Q 3759 2322 3309 2181 
Q 3556 2125 3751 1926 
Q 3947 1728 4147 1325 
L 4800 0 
L 3519 0 
L 2950 1159 
Q 2778 1509 2601 1637 
Q 2425 1766 2131 1766 
L 1791 1766 
z
" transform="scale(0.015625)"/>
      <path id="DejaVuSans-Bold-4a" d="M 2919 594 
Q 2688 288 2409 144 
Q 2131 0 1766 0 
Q 1125 0 706 504 
Q 288 1009 288 1791 
Q 288 2575 706 3076 
Q 1125 3578 1766 3578 
Q 2131 3578 2409 3434 
Q 2688 3291 2919 2981 
L 2919 3500 
L 4044 3500 
L 4044 353 
Q 4044 -491 3511 -936 
Q 2978 -1381 1966 -1381 
Q 1638 -1381 1331 -1331 
Q 1025 -1281 716 -1178 
L 716 -306 
Q 1009 -475 1290 -558 
Q 1572 -641 1856 -641 
Q 2406 -641 2662 -400 
Q 2919 -159 2919 353 
L 2919 594 
z
M 2181 2772 
Q 1834 2772 1640 2515 
Q 1447 2259 1447 1791 
Q 1447 1309 1634 1061 
Q 1822 813 2181 813 
Q 2531 813 2725 1069 
Q 2919 1325 2919 1791 
Q 2919 2259 2725 2515 
Q 2531 2772 2181 2772 
z
" transform="scale(0.015625)"/>
      <path id="DejaVuSans-Bold-55" d="M 3138 2547 
Q 2991 2616 2845 2648 
Q 2700 2681 2553 2681 
Q 2122 2681 1889 2404 
Q 1656 2128 1656 1613 
L 1656 0 
L 538 0 
L 538 3500 
L 1656 3500 
L 1656 2925 
Q 1872 3269 2151 3426 
Q 2431 3584 2822 3584 
Q 2878 3584 2943 3579 
Q 3009 3575 3134 3559 
L 3138 2547 
z
" transform="scale(0.015625)"/>
      <path id="DejaVuSans-Bold-45" d="M 2400 722 
Q 2759 722 2948 984 
Q 3138 1247 3138 1747 
Q 3138 2247 2948 2509 
Q 2759 2772 2400 2772 
Q 2041 2772 1848 2508 
Q 1656 2244 1656 1747 
Q 1656 1250 1848 986 
Q 2041 722 2400 722 
z
M 1656 2988 
Q 1888 3294 2169 3439 
Q 2450 3584 2816 3584 
Q 3463 3584 3878 3070 
Q 4294 2556 4294 1747 
Q 4294 938 3878 423 
Q 3463 -91 2816 -91 
Q 2450 -91 2169 54 
Q 1888 200 1656 506 
L 1656 0 
L 538 0 
L 538 4863 
L 1656 4863 
L 1656 2988 
z
" transform="scale(0.015625)"/>
      <path id="DejaVuSans-Bold-4f" d="M 538 4863 
L 1656 4863 
L 1656 0 
L 538 0 
L 538 4863 
z
" transform="scale(0.015625)"/>
     </defs>
     <use xlink:href="#DejaVuSans-Bold-35"/>
     <use xlink:href="#DejaVuSans-Bold-4c" transform="translate(77 0)"/>
     <use xlink:href="#DejaVuSans-Bold-4a" transform="translate(111.28125 0)"/>
     <use xlink:href="#DejaVuSans-Bold-52" transform="translate(182.859375 0)"/>
     <use xlink:href="#DejaVuSans-Bold-55" transform="translate(251.5625 0)"/>
     <use xlink:href="#DejaVuSans-Bold-52" transform="translate(300.875 0)"/>
     <use xlink:href="#DejaVuSans-Bold-58" transform="translate(369.578125 0)"/>
     <use xlink:href="#DejaVuSans-Bold-56" transform="translate(440.765625 0)"/>
     <use xlink:href="#DejaVuSans-Bold-3" transform="translate(500.28125 0)"/>
     <use xlink:href="#DejaVuSans-Bold-55" transform="translate(535.09375 0)"/>
     <use xlink:href="#DejaVuSans-Bold-48" transform="translate(584.40625 0)"/>
     <use xlink:href="#DejaVuSans-Bold-45" transform="translate(652.234375 0)"/>
     <use xlink:href="#DejaVuSans-Bold-58" transform="translate(723.8125 0)"/>
     <use xlink:href="#DejaVuSans-Bold-4c" transform="translate(795 0)"/>
     <use xlink:href="#DejaVuSans-Bold-4f" transform="translate(829.28125 0)"/>
     <use xlink:href="#DejaVuSans-Bold-47" transform="translate(863.5625 0)"/>
    </g>
   </g>
   <g id="text_6">
    <!-- Recompute under the -->
    <g style="fill: #333333" transform="translate(586.06875 184.419473) scale(0.09 -0.09)">
     <defs>
      <path id="DejaVuSans-35" d="M 2841 2188 
Q 3044 2119 3236 1894 
Q 3428 1669 3622 1275 
L 4263 0 
L 3584 0 
L 2988 1197 
Q 2756 1666 2539 1819 
Q 2322 1972 1947 1972 
L 1259 1972 
L 1259 0 
L 628 0 
L 628 4666 
L 2053 4666 
Q 2853 4666 3247 4331 
Q 3641 3997 3641 3322 
Q 3641 2881 3436 2590 
Q 3231 2300 2841 2188 
z
M 1259 4147 
L 1259 2491 
L 2053 2491 
Q 2509 2491 2742 2702 
Q 2975 2913 2975 3322 
Q 2975 3731 2742 3939 
Q 2509 4147 2053 4147 
L 1259 4147 
z
" transform="scale(0.015625)"/>
      <path id="DejaVuSans-46" d="M 3122 3366 
L 3122 2828 
Q 2878 2963 2633 3030 
Q 2388 3097 2138 3097 
Q 1578 3097 1268 2742 
Q 959 2388 959 1747 
Q 959 1106 1268 751 
Q 1578 397 2138 397 
Q 2388 397 2633 464 
Q 2878 531 3122 666 
L 3122 134 
Q 2881 22 2623 -34 
Q 2366 -91 2075 -91 
Q 1284 -91 818 406 
Q 353 903 353 1747 
Q 353 2603 823 3093 
Q 1294 3584 2113 3584 
Q 2378 3584 2631 3529 
Q 2884 3475 3122 3366 
z
" transform="scale(0.015625)"/>
     </defs>
     <use xlink:href="#DejaVuSans-35"/>
     <use xlink:href="#DejaVuSans-48" transform="translate(65 0)"/>
     <use xlink:href="#DejaVuSans-46" transform="translate(126.53125 0)"/>
     <use xlink:href="#DejaVuSans-52" transform="translate(181.515625 0)"/>
     <use xlink:href="#DejaVuSans-50" transform="translate(242.703125 0)"/>
     <use xlink:href="#DejaVuSans-53" transform="translate(340.109375 0)"/>
     <use xlink:href="#DejaVuSans-58" transform="translate(403.59375 0)"/>
     <use xlink:href="#DejaVuSans-57" transform="translate(466.96875 0)"/>
     <use xlink:href="#DejaVuSans-48" transform="translate(506.171875 0)"/>
     <use xlink:href="#DejaVuSans-3" transform="translate(567.703125 0)"/>
     <use xlink:href="#DejaVuSans-58" transform="translate(599.484375 0)"/>
     <use xlink:href="#DejaVuSans-51" transform="translate(662.859375 0)"/>
     <use xlink:href="#DejaVuSans-47" transform="translate(726.234375 0)"/>
     <use xlink:href="#DejaVuSans-48" transform="translate(789.71875 0)"/>
     <use xlink:href="#DejaVuSans-55" transform="translate(851.25 0)"/>
     <use xlink:href="#DejaVuSans-3" transform="translate(892.359375 0)"/>
     <use xlink:href="#DejaVuSans-57" transform="translate(924.140625 0)"/>
     <use xlink:href="#DejaVuSans-4b" transform="translate(963.34375 0)"/>
     <use xlink:href="#DejaVuSans-48" transform="translate(1026.71875 0)"/>
    </g>
    <!-- corrected premise -->
    <g style="fill: #333333" transform="translate(594.104063 195.221934) scale(0.09 -0.09)">
     <use xlink:href="#DejaVuSans-46"/>
     <use xlink:href="#DejaVuSans-52" transform="translate(54.984375 0)"/>
     <use xlink:href="#DejaVuSans-55" transform="translate(116.171875 0)"/>
     <use xlink:href="#DejaVuSans-55" transform="translate(155.53125 0)"/>
     <use xlink:href="#DejaVuSans-48" transform="translate(194.4375 0)"/>
     <use xlink:href="#DejaVuSans-46" transform="translate(255.96875 0)"/>
     <use xlink:href="#DejaVuSans-57" transform="translate(310.953125 0)"/>
     <use xlink:href="#DejaVuSans-48" transform="translate(350.15625 0)"/>
     <use xlink:href="#DejaVuSans-47" transform="translate(411.6875 0)"/>
     <use xlink:href="#DejaVuSans-3" transform="translate(475.171875 0)"/>
     <use xlink:href="#DejaVuSans-53" transform="translate(506.953125 0)"/>
     <use xlink:href="#DejaVuSans-55" transform="translate(570.4375 0)"/>
     <use xlink:href="#DejaVuSans-48" transform="translate(609.34375 0)"/>
     <use xlink:href="#DejaVuSans-50" transform="translate(670.875 0)"/>
     <use xlink:href="#DejaVuSans-4c" transform="translate(768.28125 0)"/>
     <use xlink:href="#DejaVuSans-56" transform="translate(796.0625 0)"/>
     <use xlink:href="#DejaVuSans-48" transform="translate(848.15625 0)"/>
    </g>
   </g>
   <g id="text_7">
    <!-- look for the gap -->
    <g style="fill: #4c4c4c" transform="translate(239.371925 146.002667) scale(0.085 -0.085)">
     <defs>
      <path id="DejaVuSans-Oblique-4f" d="M 1172 4863 
L 1747 4863 
L 800 0 
L 225 0 
L 1172 4863 
z
" transform="scale(0.015625)"/>
      <path id="DejaVuSans-Oblique-52" d="M 1625 -91 
Q 1009 -91 651 289 
Q 294 669 294 1325 
Q 294 1706 417 2101 
Q 541 2497 738 2766 
Q 1047 3184 1428 3384 
Q 1809 3584 2291 3584 
Q 2888 3584 3255 3212 
Q 3622 2841 3622 2241 
Q 3622 1825 3500 1412 
Q 3378 1000 3181 728 
Q 2875 309 2494 109 
Q 2113 -91 1625 -91 
z
M 891 1344 
Q 891 869 1089 633 
Q 1288 397 1691 397 
Q 2269 397 2648 901 
Q 3028 1406 3028 2181 
Q 3028 2634 2825 2865 
Q 2622 3097 2228 3097 
Q 1903 3097 1650 2945 
Q 1397 2794 1197 2484 
Q 1050 2253 970 1956 
Q 891 1659 891 1344 
z
" transform="scale(0.015625)"/>
      <path id="DejaVuSans-Oblique-4e" d="M 1172 4863 
L 1747 4863 
L 1197 2028 
L 3169 3500 
L 3916 3500 
L 1716 1825 
L 3322 0 
L 2625 0 
L 1131 1709 
L 800 0 
L 225 0 
L 1172 4863 
z
" transform="scale(0.015625)"/>
      <path id="DejaVuSans-Oblique-3" transform="scale(0.015625)"/>
      <path id="DejaVuSans-Oblique-49" d="M 3059 4863 
L 2969 4384 
L 2419 4384 
Q 2106 4384 1964 4261 
Q 1822 4138 1753 3809 
L 1691 3500 
L 2638 3500 
L 2553 3053 
L 1606 3053 
L 1013 0 
L 434 0 
L 1031 3053 
L 481 3053 
L 563 3500 
L 1113 3500 
L 1159 3744 
Q 1278 4363 1576 4613 
Q 1875 4863 2516 4863 
L 3059 4863 
z
" transform="scale(0.015625)"/>
      <path id="DejaVuSans-Oblique-55" d="M 2853 2969 
Q 2766 3016 2653 3041 
Q 2541 3066 2413 3066 
Q 1953 3066 1609 2717 
Q 1266 2369 1153 1784 
L 800 0 
L 225 0 
L 909 3500 
L 1484 3500 
L 1375 2956 
Q 1603 3259 1920 3421 
Q 2238 3584 2597 3584 
Q 2691 3584 2781 3573 
Q 2872 3563 2963 3538 
L 2853 2969 
z
" transform="scale(0.015625)"/>
      <path id="DejaVuSans-Oblique-57" d="M 2706 3500 
L 2619 3053 
L 1472 3053 
L 1100 1153 
Q 1081 1047 1072 975 
Q 1063 903 1063 863 
Q 1063 663 1183 572 
Q 1303 481 1569 481 
L 2150 481 
L 2053 0 
L 1503 0 
Q 991 0 739 200 
Q 488 400 488 806 
Q 488 878 497 964 
Q 506 1050 525 1153 
L 897 3053 
L 409 3053 
L 500 3500 
L 978 3500 
L 1172 4494 
L 1747 4494 
L 1556 3500 
L 2706 3500 
z
" transform="scale(0.015625)"/>
      <path id="DejaVuSans-Oblique-4b" d="M 3566 2113 
L 3156 0 
L 2578 0 
L 2988 2091 
Q 3016 2238 3031 2350 
Q 3047 2463 3047 2528 
Q 3047 2791 2881 2937 
Q 2716 3084 2419 3084 
Q 1956 3084 1617 2771 
Q 1278 2459 1178 1941 
L 800 0 
L 225 0 
L 1172 4863 
L 1747 4863 
L 1375 2950 
Q 1594 3244 1934 3414 
Q 2275 3584 2650 3584 
Q 3113 3584 3367 3334 
Q 3622 3084 3622 2631 
Q 3622 2519 3608 2391 
Q 3594 2263 3566 2113 
z
" transform="scale(0.015625)"/>
      <path id="DejaVuSans-Oblique-48" d="M 3078 2063 
Q 3088 2113 3092 2166 
Q 3097 2219 3097 2272 
Q 3097 2653 2873 2875 
Q 2650 3097 2266 3097 
Q 1838 3097 1509 2826 
Q 1181 2556 1013 2059 
L 3078 2063 
z
M 3578 1613 
L 903 1613 
Q 884 1494 878 1425 
Q 872 1356 872 1306 
Q 872 872 1139 634 
Q 1406 397 1894 397 
Q 2269 397 2603 481 
Q 2938 566 3225 728 
L 3116 159 
Q 2806 34 2476 -28 
Q 2147 -91 1806 -91 
Q 1078 -91 686 257 
Q 294 606 294 1247 
Q 294 1794 489 2264 
Q 684 2734 1063 3103 
Q 1306 3334 1642 3459 
Q 1978 3584 2356 3584 
Q 2950 3584 3301 3228 
Q 3653 2872 3653 2272 
Q 3653 2128 3634 1964 
Q 3616 1800 3578 1613 
z
" transform="scale(0.015625)"/>
      <path id="DejaVuSans-Oblique-4a" d="M 3816 3500 
L 3219 434 
Q 3047 -456 2561 -893 
Q 2075 -1331 1253 -1331 
Q 950 -1331 690 -1286 
Q 431 -1241 206 -1147 
L 313 -588 
Q 525 -725 762 -790 
Q 1000 -856 1269 -856 
Q 1816 -856 2167 -557 
Q 2519 -259 2631 300 
L 2681 563 
Q 2441 288 2122 144 
Q 1803 0 1434 0 
Q 903 0 598 351 
Q 294 703 294 1319 
Q 294 1803 478 2267 
Q 663 2731 997 3091 
Q 1219 3328 1514 3456 
Q 1809 3584 2131 3584 
Q 2484 3584 2746 3420 
Q 3009 3256 3138 2956 
L 3238 3500 
L 3816 3500 
z
M 2950 2216 
Q 2950 2641 2750 2872 
Q 2550 3103 2181 3103 
Q 1953 3103 1747 3012 
Q 1541 2922 1394 2759 
Q 1156 2491 1023 2127 
Q 891 1763 891 1375 
Q 891 944 1092 712 
Q 1294 481 1672 481 
Q 2219 481 2584 976 
Q 2950 1472 2950 2216 
z
" transform="scale(0.015625)"/>
      <path id="DejaVuSans-Oblique-44" d="M 3438 1997 
L 3047 0 
L 2472 0 
L 2578 531 
Q 2325 219 2001 64 
Q 1678 -91 1281 -91 
Q 834 -91 548 182 
Q 263 456 263 884 
Q 263 1497 752 1853 
Q 1241 2209 2100 2209 
L 2900 2209 
L 2931 2363 
Q 2938 2388 2941 2417 
Q 2944 2447 2944 2509 
Q 2944 2788 2717 2942 
Q 2491 3097 2081 3097 
Q 1800 3097 1504 3025 
Q 1209 2953 897 2809 
L 997 3341 
Q 1322 3463 1633 3523 
Q 1944 3584 2234 3584 
Q 2853 3584 3176 3315 
Q 3500 3047 3500 2534 
Q 3500 2431 3484 2292 
Q 3469 2153 3438 1997 
z
M 2816 1759 
L 2241 1759 
Q 1534 1759 1195 1570 
Q 856 1381 856 984 
Q 856 709 1029 553 
Q 1203 397 1509 397 
Q 1978 397 2328 733 
Q 2678 1069 2791 1631 
L 2816 1759 
z
" transform="scale(0.015625)"/>
      <path id="DejaVuSans-Oblique-53" d="M 3175 2156 
Q 3175 2616 2975 2859 
Q 2775 3103 2400 3103 
Q 2144 3103 1911 2972 
Q 1678 2841 1497 2591 
Q 1319 2344 1212 1994 
Q 1106 1644 1106 1300 
Q 1106 863 1306 627 
Q 1506 391 1875 391 
Q 2147 391 2380 519 
Q 2613 647 2778 891 
Q 2956 1147 3065 1494 
Q 3175 1841 3175 2156 
z
M 1394 2969 
Q 1625 3272 1939 3428 
Q 2253 3584 2638 3584 
Q 3175 3584 3472 3232 
Q 3769 2881 3769 2247 
Q 3769 1728 3584 1258 
Q 3400 788 3053 416 
Q 2822 169 2531 39 
Q 2241 -91 1919 -91 
Q 1547 -91 1294 64 
Q 1041 219 916 525 
L 556 -1331 
L -19 -1331 
L 922 3500 
L 1497 3500 
L 1394 2969 
z
" transform="scale(0.015625)"/>
     </defs>
     <use xlink:href="#DejaVuSans-Oblique-4f"/>
     <use xlink:href="#DejaVuSans-Oblique-52" transform="translate(27.78125 0)"/>
     <use xlink:href="#DejaVuSans-Oblique-52" transform="translate(88.96875 0)"/>
     <use xlink:href="#DejaVuSans-Oblique-4e" transform="translate(150.15625 0)"/>
     <use xlink:href="#DejaVuSans-Oblique-3" transform="translate(208.0625 0)"/>
     <use xlink:href="#DejaVuSans-Oblique-49" transform="translate(239.84375 0)"/>
     <use xlink:href="#DejaVuSans-Oblique-52" transform="translate(275.046875 0)"/>
     <use xlink:href="#DejaVuSans-Oblique-55" transform="translate(336.234375 0)"/>
     <use xlink:href="#DejaVuSans-Oblique-3" transform="translate(377.34375 0)"/>
     <use xlink:href="#DejaVuSans-Oblique-57" transform="translate(409.125 0)"/>
     <use xlink:href="#DejaVuSans-Oblique-4b" transform="translate(448.328125 0)"/>
     <use xlink:href="#DejaVuSans-Oblique-48" transform="translate(511.703125 0)"/>
     <use xlink:href="#DejaVuSans-Oblique-3" transform="translate(573.234375 0)"/>
     <use xlink:href="#DejaVuSans-Oblique-4a" transform="translate(605.015625 0)"/>
     <use xlink:href="#DejaVuSans-Oblique-44" transform="translate(668.5 0)"/>
     <use xlink:href="#DejaVuSans-Oblique-53" transform="translate(729.78125 0)"/>
    </g>
   </g>
   <g id="text_8">
    <!-- fix the premise -->
    <g style="fill: #4c4c4c" transform="translate(482.24197 146.002667) scale(0.085 -0.085)">
     <defs>
      <path id="DejaVuSans-Oblique-127c" d="M 3525 4863 
L 4103 4863 
L 3963 4134 
L 3384 4134 
L 3525 4863 
z
M 3059 4863 
L 2969 4384 
L 2419 4384 
Q 2106 4384 1964 4261 
Q 1822 4138 1753 3809 
L 1691 3500 
L 3841 3500 
L 3156 0 
L 2578 0 
L 3188 3056 
L 1606 3056 
L 1013 0 
L 434 0 
L 1031 3053 
L 481 3053 
L 563 3500 
L 1113 3500 
L 1159 3744 
Q 1278 4363 1575 4613 
Q 1875 4863 2516 4863 
L 3059 4863 
z
" transform="scale(0.015625)"/>
      <path id="DejaVuSans-Oblique-5b" d="M 3841 3500 
L 2234 1784 
L 3219 0 
L 2559 0 
L 1819 1388 
L 531 0 
L -166 0 
L 1556 1844 
L 641 3500 
L 1300 3500 
L 1972 2234 
L 3144 3500 
L 3841 3500 
z
" transform="scale(0.015625)"/>
      <path id="DejaVuSans-Oblique-50" d="M 5747 2113 
L 5338 0 
L 4763 0 
L 5166 2094 
Q 5191 2228 5203 2325 
Q 5216 2422 5216 2491 
Q 5216 2772 5059 2928 
Q 4903 3084 4622 3084 
Q 4203 3084 3875 2770 
Q 3547 2456 3450 1953 
L 3066 0 
L 2491 0 
L 2900 2094 
Q 2925 2209 2937 2307 
Q 2950 2406 2950 2484 
Q 2950 2769 2794 2926 
Q 2638 3084 2363 3084 
Q 1938 3084 1609 2770 
Q 1281 2456 1184 1953 
L 800 0 
L 225 0 
L 909 3500 
L 1484 3500 
L 1375 2956 
Q 1609 3263 1923 3423 
Q 2238 3584 2597 3584 
Q 2978 3584 3223 3384 
Q 3469 3184 3519 2828 
Q 3781 3197 4126 3390 
Q 4472 3584 4856 3584 
Q 5306 3584 5551 3325 
Q 5797 3066 5797 2591 
Q 5797 2488 5784 2364 
Q 5772 2241 5747 2113 
z
" transform="scale(0.015625)"/>
      <path id="DejaVuSans-Oblique-4c" d="M 1172 4863 
L 1747 4863 
L 1606 4134 
L 1031 4134 
L 1172 4863 
z
M 909 3500 
L 1484 3500 
L 800 0 
L 225 0 
L 909 3500 
z
" transform="scale(0.015625)"/>
      <path id="DejaVuSans-Oblique-56" d="M 3200 3397 
L 3091 2853 
Q 2863 2978 2609 3040 
Q 2356 3103 2088 3103 
Q 1634 3103 1373 2948 
Q 1113 2794 1113 2528 
Q 1113 2219 1719 2053 
Q 1766 2041 1788 2034 
L 1972 1978 
Q 2547 1819 2739 1644 
Q 2931 1469 2931 1166 
Q 2931 609 2489 259 
Q 2047 -91 1331 -91 
Q 1053 -91 747 -37 
Q 441 16 72 128 
L 184 722 
Q 500 559 806 475 
Q 1113 391 1394 391 
Q 1816 391 2080 572 
Q 2344 753 2344 1031 
Q 2344 1331 1650 1516 
L 1591 1531 
L 1394 1581 
Q 956 1697 753 1886 
Q 550 2075 550 2369 
Q 550 2928 970 3256 
Q 1391 3584 2113 3584 
Q 2397 3584 2667 3537 
Q 2938 3491 3200 3397 
z
" transform="scale(0.015625)"/>
     </defs>
     <use xlink:href="#DejaVuSans-Oblique-127c"/>
     <use xlink:href="#DejaVuSans-Oblique-5b" transform="translate(64.59375 0)"/>
     <use xlink:href="#DejaVuSans-Oblique-3" transform="translate(123.78125 0)"/>
     <use xlink:href="#DejaVuSans-Oblique-57" transform="translate(155.5625 0)"/>
     <use xlink:href="#DejaVuSans-Oblique-4b" transform="translate(194.765625 0)"/>
     <use xlink:href="#DejaVuSans-Oblique-48" transform="translate(258.140625 0)"/>
     <use xlink:href="#DejaVuSans-Oblique-3" transform="translate(319.671875 0)"/>
     <use xlink:href="#DejaVuSans-Oblique-53" transform="translate(351.453125 0)"/>
     <use xlink:href="#DejaVuSans-Oblique-55" transform="translate(414.9375 0)"/>
     <use xlink:href="#DejaVuSans-Oblique-48" transform="translate(456.046875 0)"/>
     <use xlink:href="#DejaVuSans-Oblique-50" transform="translate(517.578125 0)"/>
     <use xlink:href="#DejaVuSans-Oblique-4c" transform="translate(614.984375 0)"/>
     <use xlink:href="#DejaVuSans-Oblique-56" transform="translate(642.765625 0)"/>
     <use xlink:href="#DejaVuSans-Oblique-48" transform="translate(694.859375 0)"/>
    </g>
   </g>
   <g id="text_9">
    <!-- the paradox = the distance intuition never saw -->
    <g style="fill: #404040" transform="translate(275.681674 262.96) scale(0.1 -0.1)">
     <defs>
      <path id="DejaVuSans-5b" d="M 3513 3500 
L 2247 1797 
L 3578 0 
L 2900 0 
L 1881 1375 
L 863 0 
L 184 0 
L 1544 1831 
L 300 3500 
L 978 3500 
L 1906 2253 
L 2834 3500 
L 3513 3500 
z
" transform="scale(0.015625)"/>
      <path id="DejaVuSans-20" d="M 678 2906 
L 4684 2906 
L 4684 2381 
L 678 2381 
L 678 2906 
z
M 678 1631 
L 4684 1631 
L 4684 1100 
L 678 1100 
L 678 1631 
z
" transform="scale(0.015625)"/>
      <path id="DejaVuSans-5a" d="M 269 3500 
L 844 3500 
L 1563 769 
L 2278 3500 
L 2956 3500 
L 3675 769 
L 4391 3500 
L 4966 3500 
L 4050 0 
L 3372 0 
L 2619 2869 
L 1863 0 
L 1184 0 
L 269 3500 
z
" transform="scale(0.015625)"/>
     </defs>
     <use xlink:href="#DejaVuSans-57"/>
     <use xlink:href="#DejaVuSans-4b" transform="translate(39.203125 0)"/>
     <use xlink:href="#DejaVuSans-48" transform="translate(102.578125 0)"/>
     <use xlink:href="#DejaVuSans-3" transform="translate(164.109375 0)"/>
     <use xlink:href="#DejaVuSans-53" transform="translate(195.890625 0)"/>
     <use xlink:href="#DejaVuSans-44" transform="translate(259.375 0)"/>
     <use xlink:href="#DejaVuSans-55" transform="translate(320.65625 0)"/>
     <use xlink:href="#DejaVuSans-44" transform="translate(361.765625 0)"/>
     <use xlink:href="#DejaVuSans-47" transform="translate(423.046875 0)"/>
     <use xlink:href="#DejaVuSans-52" transform="translate(486.53125 0)"/>
     <use xlink:href="#DejaVuSans-5b" transform="translate(544.640625 0)"/>
     <use xlink:href="#DejaVuSans-3" transform="translate(603.828125 0)"/>
     <use xlink:href="#DejaVuSans-20" transform="translate(635.609375 0)"/>
     <use xlink:href="#DejaVuSans-3" transform="translate(719.40625 0)"/>
     <use xlink:href="#DejaVuSans-57" transform="translate(751.1875 0)"/>
     <use xlink:href="#DejaVuSans-4b" transform="translate(790.390625 0)"/>
     <use xlink:href="#DejaVuSans-48" transform="translate(853.765625 0)"/>
     <use xlink:href="#DejaVuSans-3" transform="translate(915.296875 0)"/>
     <use xlink:href="#DejaVuSans-47" transform="translate(947.078125 0)"/>
     <use xlink:href="#DejaVuSans-4c" transform="translate(1010.5625 0)"/>
     <use xlink:href="#DejaVuSans-56" transform="translate(1038.34375 0)"/>
     <use xlink:href="#DejaVuSans-57" transform="translate(1090.4375 0)"/>
     <use xlink:href="#DejaVuSans-44" transform="translate(1129.640625 0)"/>
     <use xlink:href="#DejaVuSans-51" transform="translate(1190.921875 0)"/>
     <use xlink:href="#DejaVuSans-46" transform="translate(1254.296875 0)"/>
     <use xlink:href="#DejaVuSans-48" transform="translate(1309.28125 0)"/>
     <use xlink:href="#DejaVuSans-3" transform="translate(1370.8125 0)"/>
     <use xlink:href="#DejaVuSans-4c" transform="translate(1402.59375 0)"/>
     <use xlink:href="#DejaVuSans-51" transform="translate(1430.375 0)"/>
     <use xlink:href="#DejaVuSans-57" transform="translate(1493.75 0)"/>
     <use xlink:href="#DejaVuSans-58" transform="translate(1532.953125 0)"/>
     <use xlink:href="#DejaVuSans-4c" transform="translate(1596.328125 0)"/>
     <use xlink:href="#DejaVuSans-57" transform="translate(1624.109375 0)"/>
     <use xlink:href="#DejaVuSans-4c" transform="translate(1663.3125 0)"/>
     <use xlink:href="#DejaVuSans-52" transform="translate(1691.09375 0)"/>
     <use xlink:href="#DejaVuSans-51" transform="translate(1752.28125 0)"/>
     <use xlink:href="#DejaVuSans-3" transform="translate(1815.65625 0)"/>
     <use xlink:href="#DejaVuSans-51" transform="translate(1847.4375 0)"/>
     <use xlink:href="#DejaVuSans-48" transform="translate(1910.8125 0)"/>
     <use xlink:href="#DejaVuSans-59" transform="translate(1972.34375 0)"/>
     <use xlink:href="#DejaVuSans-48" transform="translate(2031.53125 0)"/>
     <use xlink:href="#DejaVuSans-55" transform="translate(2093.0625 0)"/>
     <use xlink:href="#DejaVuSans-3" transform="translate(2134.171875 0)"/>
     <use xlink:href="#DejaVuSans-56" transform="translate(2165.953125 0)"/>
     <use xlink:href="#DejaVuSans-44" transform="translate(2218.046875 0)"/>
     <use xlink:href="#DejaVuSans-5a" transform="translate(2279.328125 0)"/>
    </g>
   </g>
   <g id="text_10">
    <!-- Anatomy of a paradox: three steps, one hidden premise -->
    <g transform="translate(195.987813 20.88) scale(0.13 -0.13)">
     <defs>
      <path id="DejaVuSans-24" d="M 2188 4044 
L 1331 1722 
L 3047 1722 
L 2188 4044 
z
M 1831 4666 
L 2547 4666 
L 4325 0 
L 3669 0 
L 3244 1197 
L 1141 1197 
L 716 0 
L 50 0 
L 1831 4666 
z
" transform="scale(0.015625)"/>
      <path id="DejaVuSans-1d" d="M 750 794 
L 1409 794 
L 1409 0 
L 750 0 
L 750 794 
z
M 750 3309 
L 1409 3309 
L 1409 2516 
L 750 2516 
L 750 3309 
z
" transform="scale(0.015625)"/>
      <path id="DejaVuSans-f" d="M 750 794 
L 1409 794 
L 1409 256 
L 897 -744 
L 494 -744 
L 750 256 
L 750 794 
z
" transform="scale(0.015625)"/>
     </defs>
     <use xlink:href="#DejaVuSans-24"/>
     <use xlink:href="#DejaVuSans-51" transform="translate(68.40625 0)"/>
     <use xlink:href="#DejaVuSans-44" transform="translate(131.78125 0)"/>
     <use xlink:href="#DejaVuSans-57" transform="translate(193.0625 0)"/>
     <use xlink:href="#DejaVuSans-52" transform="translate(232.265625 0)"/>
     <use xlink:href="#DejaVuSans-50" transform="translate(293.453125 0)"/>
     <use xlink:href="#DejaVuSans-5c" transform="translate(390.859375 0)"/>
     <use xlink:href="#DejaVuSans-3" transform="translate(450.046875 0)"/>
     <use xlink:href="#DejaVuSans-52" transform="translate(481.828125 0)"/>
     <use xlink:href="#DejaVuSans-49" transform="translate(543.015625 0)"/>
     <use xlink:href="#DejaVuSans-3" transform="translate(578.21875 0)"/>
     <use xlink:href="#DejaVuSans-44" transform="translate(610 0)"/>
     <use xlink:href="#DejaVuSans-3" transform="translate(671.28125 0)"/>
     <use xlink:href="#DejaVuSans-53" transform="translate(703.0625 0)"/>
     <use xlink:href="#DejaVuSans-44" transform="translate(766.546875 0)"/>
     <use xlink:href="#DejaVuSans-55" transform="translate(827.828125 0)"/>
     <use xlink:href="#DejaVuSans-44" transform="translate(868.9375 0)"/>
     <use xlink:href="#DejaVuSans-47" transform="translate(930.21875 0)"/>
     <use xlink:href="#DejaVuSans-52" transform="translate(993.703125 0)"/>
     <use xlink:href="#DejaVuSans-5b" transform="translate(1051.8125 0)"/>
     <use xlink:href="#DejaVuSans-1d" transform="translate(1111 0)"/>
     <use xlink:href="#DejaVuSans-3" transform="translate(1144.6875 0)"/>
     <use xlink:href="#DejaVuSans-57" transform="translate(1176.46875 0)"/>
     <use xlink:href="#DejaVuSans-4b" transform="translate(1215.671875 0)"/>
     <use xlink:href="#DejaVuSans-55" transform="translate(1279.046875 0)"/>
     <use xlink:href="#DejaVuSans-48" transform="translate(1317.953125 0)"/>
     <use xlink:href="#DejaVuSans-48" transform="translate(1379.484375 0)"/>
     <use xlink:href="#DejaVuSans-3" transform="translate(1441.015625 0)"/>
     <use xlink:href="#DejaVuSans-56" transform="translate(1472.796875 0)"/>
     <use xlink:href="#DejaVuSans-57" transform="translate(1524.890625 0)"/>
     <use xlink:href="#DejaVuSans-48" transform="translate(1564.09375 0)"/>
     <use xlink:href="#DejaVuSans-53" transform="translate(1625.625 0)"/>
     <use xlink:href="#DejaVuSans-56" transform="translate(1689.109375 0)"/>
     <use xlink:href="#DejaVuSans-f" transform="translate(1741.203125 0)"/>
     <use xlink:href="#DejaVuSans-3" transform="translate(1772.984375 0)"/>
     <use xlink:href="#DejaVuSans-52" transform="translate(1804.765625 0)"/>
     <use xlink:href="#DejaVuSans-51" transform="translate(1865.953125 0)"/>
     <use xlink:href="#DejaVuSans-48" transform="translate(1929.328125 0)"/>
     <use xlink:href="#DejaVuSans-3" transform="translate(1990.859375 0)"/>
     <use xlink:href="#DejaVuSans-4b" transform="translate(2022.640625 0)"/>
     <use xlink:href="#DejaVuSans-4c" transform="translate(2086.015625 0)"/>
     <use xlink:href="#DejaVuSans-47" transform="translate(2113.796875 0)"/>
     <use xlink:href="#DejaVuSans-47" transform="translate(2177.28125 0)"/>
     <use xlink:href="#DejaVuSans-48" transform="translate(2240.765625 0)"/>
     <use xlink:href="#DejaVuSans-51" transform="translate(2302.296875 0)"/>
     <use xlink:href="#DejaVuSans-3" transform="translate(2365.671875 0)"/>
     <use xlink:href="#DejaVuSans-53" transform="translate(2397.453125 0)"/>
     <use xlink:href="#DejaVuSans-55" transform="translate(2460.9375 0)"/>
     <use xlink:href="#DejaVuSans-48" transform="translate(2499.84375 0)"/>
     <use xlink:href="#DejaVuSans-50" transform="translate(2561.375 0)"/>
     <use xlink:href="#DejaVuSans-4c" transform="translate(2658.78125 0)"/>
     <use xlink:href="#DejaVuSans-56" transform="translate(2686.5625 0)"/>
     <use xlink:href="#DejaVuSans-48" transform="translate(2738.65625 0)"/>
    </g>
   </g>
  </g>
 </g>
 <defs>
  <clipPath id="pdd5b8d0e19">
   <rect x="10.8" y="32.88" width="734.4" height="345.12"/>
  </clipPath>
 </defs>
</svg>
