<?xml version="1.0" encoding="utf-8" standalone="no"?>
<!DOCTYPE svg PUBLIC "-//W3C//DTD SVG 1.1//EN"
  "http://www.w3.org/Graphics/SVG/1.1/DTD/svg11.dtd">
<svg xmlns:xlink="http://www.w3.org/1999/xlink" width="558.332308pt" height="366.997969pt" viewBox="0 0 558.332308 366.997969" xmlns="http://www.w3.org/2000/svg" version="1.1">
 <metadata>
  <rdf:RDF xmlns:dc="http://purl.org/dc/elements/1.1/" xmlns:cc="http://creativecommons.org/ns#" xmlns:rdf="http://www.w3.org/1999/02/22-rdf-syntax-ns#">
   <cc:Work>
    <dc:type rdf:resource="http://purl.org/dc/dcmitype/StillImage"/>
    <dc:date>2026-07-02T00:35:16.473951</dc:date>
    <dc:format>image/svg+xml</dc:format>
    <dc:creator>
     <cc:Agent>
      <dc:title>Matplotlib v3.11.0, https://matplotlib.org/</dc:title>
     </cc:Agent>
    </dc:creator>
   </cc:Work>
  </rdf:RDF>
 </metadata>
 <defs>
  <style type="text/css">*{stroke-linejoin: round; stroke-linecap: butt}</style>
 </defs>
 <g id="figure_1">
  <g id="patch_1">
   <path d="M 0 366.997969 
L 558.332308 366.997969 
L 558.332308 0 
L 0 0 
z
" style="fill: #ffffff"/>
  </g>
  <g id="axes_1">
   <g id="patch_2">
    <path d="M 161.086128 156.844745 
Q 279.16503 226.678066 395.126788 158.098155 
" clip-path="url(#p4263a063a1)" style="fill: none; stroke: #1a3a6b; stroke-width: 2.2; stroke-linecap: round"/>
    <path d="M 385.312478 158.790475 
L 395.126788 158.098155 
L 389.792057 166.364996 
z
" clip-path="url(#p4263a063a1)" style="fill: #1a3a6b; stroke: #1a3a6b; stroke-width: 2.2; stroke-linecap: round"/>
   </g>
   <g id="patch_3">
    <path d="M 397.24618 238.981962 
Q 279.167278 169.148641 163.20552 237.728551 
" clip-path="url(#p4263a063a1)" style="fill: none; stroke: #8a1f1f; stroke-width: 2.2; stroke-linecap: round"/>
    <path d="M 173.01983 237.036232 
L 163.20552 237.728551 
L 168.54025 229.461711 
z
" clip-path="url(#p4263a063a1)" style="fill: #8a1f1f; stroke: #8a1f1f; stroke-width: 2.2; stroke-linecap: round"/>
   </g>
   <g id="patch_4">
    <path d="M 110.806154 259.429507 
C 127.120429 259.429507 142.768709 252.947777 154.304643 241.411843 
C 165.840578 229.875909 172.322308 214.227628 172.322308 197.913353 
C 172.322308 181.599079 165.840578 165.950798 154.304643 154.414864 
C 142.768709 142.87893 127.120429 136.3972 110.806154 136.3972 
C 94.491879 136.3972 78.843599 142.87893 67.307664 154.414864 
C 55.77173 165.950798 49.29 181.599079 49.29 197.913353 
C 49.29 214.227628 55.77173 229.875909 67.307664 241.411843 
C 78.843599 252.947777 94.491879 259.429507 110.806154 259.429507 
z
" clip-path="url(#p4263a063a1)" style="fill: #dbe4f0; stroke: #1a3a6b; stroke-width: 2; stroke-linejoin: miter"/>
   </g>
   <g id="patch_5">
    <path d="M 447.526154 259.429507 
C 463.840429 259.429507 479.488709 252.947777 491.024643 241.411843 
C 502.560578 229.875909 509.042308 214.227628 509.042308 197.913353 
C 509.042308 181.599079 502.560578 165.950798 491.024643 154.414864 
C 479.488709 142.87893 463.840429 136.3972 447.526154 136.3972 
C 431.211879 136.3972 415.563599 142.87893 404.027664 154.414864 
C 392.49173 165.950798 386.01 181.599079 386.01 197.913353 
C 386.01 214.227628 392.49173 229.875909 404.027664 241.411843 
C 415.563599 252.947777 431.211879 259.429507 447.526154 259.429507 
z
" clip-path="url(#p4263a063a1)" style="fill: #f0dbdb; stroke: #8a1f1f; stroke-width: 2; stroke-linejoin: miter"/>
   </g>
   <g id="text_1">
    <!-- P(E | H)  - -  measured by the expert -->
    <g style="fill: #1a3a6b" transform="translate(181.305685 77.866499) scale(0.11 -0.11)">
     <defs>
      <path id="DejaVuSans-33" d="M 1259 4147 
L 1259 2394 
L 2053 2394 
Q 2494 2394 2734 2622 
Q 2975 2850 2975 3272 
Q 2975 3691 2734 3919 
Q 2494 4147 2053 4147 
L 1259 4147 
z
M 628 4666 
L 2053 4666 
Q 2838 4666 3239 4311 
Q 3641 3956 3641 3272 
Q 3641 2581 3239 2228 
Q 2838 1875 2053 1875 
L 1259 1875 
L 1259 0 
L 628 0 
L 628 4666 
z
" transform="scale(0.015625)"/>
      <path id="DejaVuSans-b" d="M 1984 4856 
Q 1566 4138 1362 3434 
Q 1159 2731 1159 2009 
Q 1159 1288 1364 580 
Q 1569 -128 1984 -844 
L 1484 -844 
Q 1016 -109 783 600 
Q 550 1309 550 2009 
Q 550 2706 781 3412 
Q 1013 4119 1484 4856 
L 1984 4856 
z
" transform="scale(0.015625)"/>
      <path id="DejaVuSans-28" d="M 628 4666 
L 3578 4666 
L 3578 4134 
L 1259 4134 
L 1259 2753 
L 3481 2753 
L 3481 2222 
L 1259 2222 
L 1259 531 
L 3634 531 
L 3634 0 
L 628 0 
L 628 4666 
z
" transform="scale(0.015625)"/>
      <path id="DejaVuSans-3" transform="scale(0.015625)"/>
      <path id="DejaVuSans-5f" d="M 1344 4891 
L 1344 -1509 
L 813 -1509 
L 813 4891 
L 1344 4891 
z
" transform="scale(0.015625)"/>
      <path id="DejaVuSans-2b" d="M 628 4666 
L 1259 4666 
L 1259 2753 
L 3553 2753 
L 3553 4666 
L 4184 4666 
L 4184 0 
L 3553 0 
L 3553 2222 
L 1259 2222 
L 1259 0 
L 628 0 
L 628 4666 
z
" transform="scale(0.015625)"/>
      <path id="DejaVuSans-c" d="M 513 4856 
L 1013 4856 
Q 1481 4119 1714 3412 
Q 1947 2706 1947 2009 
Q 1947 1309 1714 600 
Q 1481 -109 1013 -844 
L 513 -844 
Q 928 -128 1133 580 
Q 1338 1288 1338 2009 
Q 1338 2731 1133 3434 
Q 928 4138 513 4856 
z
" transform="scale(0.015625)"/>
      <path id="DejaVuSans-10" d="M 313 2009 
L 1997 2009 
L 1997 1497 
L 313 1497 
L 313 2009 
z
" transform="scale(0.015625)"/>
      <path id="DejaVuSans-50" d="M 3328 2828 
Q 3544 3216 3844 3400 
Q 4144 3584 4550 3584 
Q 5097 3584 5394 3201 
Q 5691 2819 5691 2113 
L 5691 0 
L 5113 0 
L 5113 2094 
Q 5113 2597 4934 2840 
Q 4756 3084 4391 3084 
Q 3944 3084 3684 2787 
Q 3425 2491 3425 1978 
L 3425 0 
L 2847 0 
L 2847 2094 
Q 2847 2600 2669 2842 
Q 2491 3084 2119 3084 
Q 1678 3084 1418 2786 
Q 1159 2488 1159 1978 
L 1159 0 
L 581 0 
L 581 3500 
L 1159 3500 
L 1159 2956 
Q 1356 3278 1631 3431 
Q 1906 3584 2284 3584 
Q 2666 3584 2933 3390 
Q 3200 3197 3328 2828 
z
" transform="scale(0.015625)"/>
      <path id="DejaVuSans-48" d="M 3597 1894 
L 3597 1613 
L 953 1613 
Q 991 1019 1311 708 
Q 1631 397 2203 397 
Q 2534 397 2845 478 
Q 3156 559 3463 722 
L 3463 178 
Q 3153 47 2828 -22 
Q 2503 -91 2169 -91 
Q 1331 -91 842 396 
Q 353 884 353 1716 
Q 353 2575 817 3079 
Q 1281 3584 2069 3584 
Q 2775 3584 3186 3129 
Q 3597 2675 3597 1894 
z
M 3022 2063 
Q 3016 2534 2758 2815 
Q 2500 3097 2075 3097 
Q 1594 3097 1305 2825 
Q 1016 2553 972 2059 
L 3022 2063 
z
" transform="scale(0.015625)"/>
      <path id="DejaVuSans-44" d="M 2194 1759 
Q 1497 1759 1228 1600 
Q 959 1441 959 1056 
Q 959 750 1161 570 
Q 1363 391 1709 391 
Q 2188 391 2477 730 
Q 2766 1069 2766 1631 
L 2766 1759 
L 2194 1759 
z
M 3341 1997 
L 3341 0 
L 2766 0 
L 2766 531 
Q 2569 213 2275 61 
Q 1981 -91 1556 -91 
Q 1019 -91 701 211 
Q 384 513 384 1019 
Q 384 1609 779 1909 
Q 1175 2209 1959 2209 
L 2766 2209 
L 2766 2266 
Q 2766 2663 2505 2880 
Q 2244 3097 1772 3097 
Q 1472 3097 1187 3025 
Q 903 2953 641 2809 
L 641 3341 
Q 956 3463 1253 3523 
Q 1550 3584 1831 3584 
Q 2591 3584 2966 3190 
Q 3341 2797 3341 1997 
z
" transform="scale(0.015625)"/>
      <path id="DejaVuSans-56" d="M 2834 3397 
L 2834 2853 
Q 2591 2978 2328 3040 
Q 2066 3103 1784 3103 
Q 1356 3103 1142 2972 
Q 928 2841 928 2578 
Q 928 2378 1081 2264 
Q 1234 2150 1697 2047 
L 1894 2003 
Q 2506 1872 2764 1633 
Q 3022 1394 3022 966 
Q 3022 478 2636 193 
Q 2250 -91 1575 -91 
Q 1294 -91 989 -36 
Q 684 19 347 128 
L 347 722 
Q 666 556 975 473 
Q 1284 391 1588 391 
Q 1994 391 2212 530 
Q 2431 669 2431 922 
Q 2431 1156 2273 1281 
Q 2116 1406 1581 1522 
L 1381 1569 
Q 847 1681 609 1914 
Q 372 2147 372 2553 
Q 372 3047 722 3315 
Q 1072 3584 1716 3584 
Q 2034 3584 2315 3537 
Q 2597 3491 2834 3397 
z
" transform="scale(0.015625)"/>
      <path id="DejaVuSans-58" d="M 544 1381 
L 544 3500 
L 1119 3500 
L 1119 1403 
Q 1119 906 1312 657 
Q 1506 409 1894 409 
Q 2359 409 2629 706 
Q 2900 1003 2900 1516 
L 2900 3500 
L 3475 3500 
L 3475 0 
L 2900 0 
L 2900 538 
Q 2691 219 2414 64 
Q 2138 -91 1772 -91 
Q 1169 -91 856 284 
Q 544 659 544 1381 
z
M 1991 3584 
L 1991 3584 
z
" transform="scale(0.015625)"/>
      <path id="DejaVuSans-55" d="M 2631 2963 
Q 2534 3019 2420 3045 
Q 2306 3072 2169 3072 
Q 1681 3072 1420 2755 
Q 1159 2438 1159 1844 
L 1159 0 
L 581 0 
L 581 3500 
L 1159 3500 
L 1159 2956 
Q 1341 3275 1631 3429 
Q 1922 3584 2338 3584 
Q 2397 3584 2469 3576 
Q 2541 3569 2628 3553 
L 2631 2963 
z
" transform="scale(0.015625)"/>
      <path id="DejaVuSans-47" d="M 2906 2969 
L 2906 4863 
L 3481 4863 
L 3481 0 
L 2906 0 
L 2906 525 
Q 2725 213 2448 61 
Q 2172 -91 1784 -91 
Q 1150 -91 751 415 
Q 353 922 353 1747 
Q 353 2572 751 3078 
Q 1150 3584 1784 3584 
Q 2172 3584 2448 3432 
Q 2725 3281 2906 2969 
z
M 947 1747 
Q 947 1113 1208 752 
Q 1469 391 1925 391 
Q 2381 391 2643 752 
Q 2906 1113 2906 1747 
Q 2906 2381 2643 2742 
Q 2381 3103 1925 3103 
Q 1469 3103 1208 2742 
Q 947 2381 947 1747 
z
" transform="scale(0.015625)"/>
      <path id="DejaVuSans-45" d="M 3116 1747 
Q 3116 2381 2855 2742 
Q 2594 3103 2138 3103 
Q 1681 3103 1420 2742 
Q 1159 2381 1159 1747 
Q 1159 1113 1420 752 
Q 1681 391 2138 391 
Q 2594 391 2855 752 
Q 3116 1113 3116 1747 
z
M 1159 2969 
Q 1341 3281 1617 3432 
Q 1894 3584 2278 3584 
Q 2916 3584 3314 3078 
Q 3713 2572 3713 1747 
Q 3713 922 3314 415 
Q 2916 -91 2278 -91 
Q 1894 -91 1617 61 
Q 1341 213 1159 525 
L 1159 0 
L 581 0 
L 581 4863 
L 1159 4863 
L 1159 2969 
z
" transform="scale(0.015625)"/>
      <path id="DejaVuSans-5c" d="M 2059 -325 
Q 1816 -950 1584 -1140 
Q 1353 -1331 966 -1331 
L 506 -1331 
L 506 -850 
L 844 -850 
Q 1081 -850 1212 -737 
Q 1344 -625 1503 -206 
L 1606 56 
L 191 3500 
L 800 3500 
L 1894 763 
L 2988 3500 
L 3597 3500 
L 2059 -325 
z
" transform="scale(0.015625)"/>
      <path id="DejaVuSans-57" d="M 1172 4494 
L 1172 3500 
L 2356 3500 
L 2356 3053 
L 1172 3053 
L 1172 1153 
Q 1172 725 1289 603 
Q 1406 481 1766 481 
L 2356 481 
L 2356 0 
L 1766 0 
Q 1100 0 847 248 
Q 594 497 594 1153 
L 594 3053 
L 172 3053 
L 172 3500 
L 594 3500 
L 594 4494 
L 1172 4494 
z
" transform="scale(0.015625)"/>
      <path id="DejaVuSans-4b" d="M 3513 2113 
L 3513 0 
L 2938 0 
L 2938 2094 
Q 2938 2591 2744 2837 
Q 2550 3084 2163 3084 
Q 1697 3084 1428 2787 
Q 1159 2491 1159 1978 
L 1159 0 
L 581 0 
L 581 4863 
L 1159 4863 
L 1159 2956 
Q 1366 3272 1645 3428 
Q 1925 3584 2291 3584 
Q 2894 3584 3203 3211 
Q 3513 2838 3513 2113 
z
" transform="scale(0.015625)"/>
      <path id="DejaVuSans-5b" d="M 3513 3500 
L 2247 1797 
L 3578 0 
L 2900 0 
L 1881 1375 
L 863 0 
L 184 0 
L 1544 1831 
L 300 3500 
L 978 3500 
L 1906 2253 
L 2834 3500 
L 3513 3500 
z
" transform="scale(0.015625)"/>
      <path id="DejaVuSans-53" d="M 1159 525 
L 1159 -1331 
L 581 -1331 
L 581 3500 
L 1159 3500 
L 1159 2969 
Q 1341 3281 1617 3432 
Q 1894 3584 2278 3584 
Q 2916 3584 3314 3078 
Q 3713 2572 3713 1747 
Q 3713 922 3314 415 
Q 2916 -91 2278 -91 
Q 1894 -91 1617 61 
Q 1341 213 1159 525 
z
M 3116 1747 
Q 3116 2381 2855 2742 
Q 2594 3103 2138 3103 
Q 1681 3103 1420 2742 
Q 1159 2381 1159 1747 
Q 1159 1113 1420 752 
Q 1681 391 2138 391 
Q 2594 391 2855 752 
Q 3116 1113 3116 1747 
z
" transform="scale(0.015625)"/>
     </defs>
     <use xlink:href="#DejaVuSans-33"/>
     <use xlink:href="#DejaVuSans-b" transform="translate(60.296875 0)"/>
     <use xlink:href="#DejaVuSans-28" transform="translate(99.3125 0)"/>
     <use xlink:href="#DejaVuSans-3" transform="translate(162.5 0)"/>
     <use xlink:href="#DejaVuSans-5f" transform="translate(194.28125 0)"/>
     <use xlink:href="#DejaVuSans-3" transform="translate(227.96875 0)"/>
     <use xlink:href="#DejaVuSans-2b" transform="translate(259.75 0)"/>
     <use xlink:href="#DejaVuSans-c" transform="translate(334.953125 0)"/>
     <use xlink:href="#DejaVuSans-3" transform="translate(373.96875 0)"/>
     <use xlink:href="#DejaVuSans-3" transform="translate(405.75 0)"/>
     <use xlink:href="#DejaVuSans-10" transform="translate(437.53125 0)"/>
     <use xlink:href="#DejaVuSans-10" transform="translate(473.609375 0)"/>
     <use xlink:href="#DejaVuSans-3" transform="translate(509.6875 0)"/>
     <use xlink:href="#DejaVuSans-3" transform="translate(541.46875 0)"/>
     <use xlink:href="#DejaVuSans-50" transform="translate(573.25 0)"/>
     <use xlink:href="#DejaVuSans-48" transform="translate(670.65625 0)"/>
     <use xlink:href="#DejaVuSans-44" transform="translate(732.1875 0)"/>
     <use xlink:href="#DejaVuSans-56" transform="translate(793.46875 0)"/>
     <use xlink:href="#DejaVuSans-58" transform="translate(845.5625 0)"/>
     <use xlink:href="#DejaVuSans-55" transform="translate(908.9375 0)"/>
     <use xlink:href="#DejaVuSans-48" transform="translate(947.84375 0)"/>
     <use xlink:href="#DejaVuSans-47" transform="translate(1009.375 0)"/>
     <use xlink:href="#DejaVuSans-3" transform="translate(1072.859375 0)"/>
     <use xlink:href="#DejaVuSans-45" transform="translate(1104.640625 0)"/>
     <use xlink:href="#DejaVuSans-5c" transform="translate(1168.125 0)"/>
     <use xlink:href="#DejaVuSans-3" transform="translate(1227.3125 0)"/>
     <use xlink:href="#DejaVuSans-57" transform="translate(1259.09375 0)"/>
     <use xlink:href="#DejaVuSans-4b" transform="translate(1298.296875 0)"/>
     <use xlink:href="#DejaVuSans-48" transform="translate(1361.671875 0)"/>
     <use xlink:href="#DejaVuSans-3" transform="translate(1423.203125 0)"/>
     <use xlink:href="#DejaVuSans-48" transform="translate(1454.984375 0)"/>
     <use xlink:href="#DejaVuSans-5b" transform="translate(1514.765625 0)"/>
     <use xlink:href="#DejaVuSans-53" transform="translate(1573.953125 0)"/>
     <use xlink:href="#DejaVuSans-48" transform="translate(1637.4375 0)"/>
     <use xlink:href="#DejaVuSans-55" transform="translate(1698.96875 0)"/>
     <use xlink:href="#DejaVuSans-57" transform="translate(1740.078125 0)"/>
    </g>
    <!-- e.g. 1 in 73,000,000 -->
    <g style="fill: #1a3a6b" transform="translate(223.546544 91.069507) scale(0.11 -0.11)">
     <defs>
      <path id="DejaVuSans-11" d="M 684 794 
L 1344 794 
L 1344 0 
L 684 0 
L 684 794 
z
" transform="scale(0.015625)"/>
      <path id="DejaVuSans-4a" d="M 2906 1791 
Q 2906 2416 2648 2759 
Q 2391 3103 1925 3103 
Q 1463 3103 1205 2759 
Q 947 2416 947 1791 
Q 947 1169 1205 825 
Q 1463 481 1925 481 
Q 2391 481 2648 825 
Q 2906 1169 2906 1791 
z
M 3481 434 
Q 3481 -459 3084 -895 
Q 2688 -1331 1869 -1331 
Q 1566 -1331 1297 -1286 
Q 1028 -1241 775 -1147 
L 775 -588 
Q 1028 -725 1275 -790 
Q 1522 -856 1778 -856 
Q 2344 -856 2625 -561 
Q 2906 -266 2906 331 
L 2906 616 
Q 2728 306 2450 153 
Q 2172 0 1784 0 
Q 1141 0 747 490 
Q 353 981 353 1791 
Q 353 2603 747 3093 
Q 1141 3584 1784 3584 
Q 2172 3584 2450 3431 
Q 2728 3278 2906 2969 
L 2906 3500 
L 3481 3500 
L 3481 434 
z
" transform="scale(0.015625)"/>
      <path id="DejaVuSans-14" d="M 794 531 
L 1825 531 
L 1825 4091 
L 703 3866 
L 703 4441 
L 1819 4666 
L 2450 4666 
L 2450 531 
L 3481 531 
L 3481 0 
L 794 0 
L 794 531 
z
" transform="scale(0.015625)"/>
      <path id="DejaVuSans-4c" d="M 603 3500 
L 1178 3500 
L 1178 0 
L 603 0 
L 603 3500 
z
M 603 4863 
L 1178 4863 
L 1178 4134 
L 603 4134 
L 603 4863 
z
" transform="scale(0.015625)"/>
      <path id="DejaVuSans-51" d="M 3513 2113 
L 3513 0 
L 2938 0 
L 2938 2094 
Q 2938 2591 2744 2837 
Q 2550 3084 2163 3084 
Q 1697 3084 1428 2787 
Q 1159 2491 1159 1978 
L 1159 0 
L 581 0 
L 581 3500 
L 1159 3500 
L 1159 2956 
Q 1366 3272 1645 3428 
Q 1925 3584 2291 3584 
Q 2894 3584 3203 3211 
Q 3513 2838 3513 2113 
z
" transform="scale(0.015625)"/>
      <path id="DejaVuSans-1a" d="M 525 4666 
L 3525 4666 
L 3525 4397 
L 1831 0 
L 1172 0 
L 2766 4134 
L 525 4134 
L 525 4666 
z
" transform="scale(0.015625)"/>
      <path id="DejaVuSans-16" d="M 2597 2516 
Q 3050 2419 3304 2112 
Q 3559 1806 3559 1356 
Q 3559 666 3084 287 
Q 2609 -91 1734 -91 
Q 1441 -91 1130 -33 
Q 819 25 488 141 
L 488 750 
Q 750 597 1062 519 
Q 1375 441 1716 441 
Q 2309 441 2620 675 
Q 2931 909 2931 1356 
Q 2931 1769 2642 2001 
Q 2353 2234 1838 2234 
L 1294 2234 
L 1294 2753 
L 1863 2753 
Q 2328 2753 2575 2939 
Q 2822 3125 2822 3475 
Q 2822 3834 2567 4026 
Q 2313 4219 1838 4219 
Q 1578 4219 1281 4162 
Q 984 4106 628 3988 
L 628 4550 
Q 988 4650 1302 4700 
Q 1616 4750 1894 4750 
Q 2613 4750 3031 4423 
Q 3450 4097 3450 3541 
Q 3450 3153 3228 2886 
Q 3006 2619 2597 2516 
z
" transform="scale(0.015625)"/>
      <path id="DejaVuSans-f" d="M 750 794 
L 1409 794 
L 1409 256 
L 897 -744 
L 494 -744 
L 750 256 
L 750 794 
z
" transform="scale(0.015625)"/>
      <path id="DejaVuSans-13" d="M 2034 4250 
Q 1547 4250 1301 3770 
Q 1056 3291 1056 2328 
Q 1056 1369 1301 889 
Q 1547 409 2034 409 
Q 2525 409 2770 889 
Q 3016 1369 3016 2328 
Q 3016 3291 2770 3770 
Q 2525 4250 2034 4250 
z
M 2034 4750 
Q 2819 4750 3233 4129 
Q 3647 3509 3647 2328 
Q 3647 1150 3233 529 
Q 2819 -91 2034 -91 
Q 1250 -91 836 529 
Q 422 1150 422 2328 
Q 422 3509 836 4129 
Q 1250 4750 2034 4750 
z
" transform="scale(0.015625)"/>
     </defs>
     <use xlink:href="#DejaVuSans-48"/>
     <use xlink:href="#DejaVuSans-11" transform="translate(61.53125 0)"/>
     <use xlink:href="#DejaVuSans-4a" transform="translate(93.3125 0)"/>
     <use xlink:href="#DejaVuSans-11" transform="translate(156.796875 0)"/>
     <use xlink:href="#DejaVuSans-3" transform="translate(188.578125 0)"/>
     <use xlink:href="#DejaVuSans-14" transform="translate(220.359375 0)"/>
     <use xlink:href="#DejaVuSans-3" transform="translate(283.984375 0)"/>
     <use xlink:href="#DejaVuSans-4c" transform="translate(315.765625 0)"/>
     <use xlink:href="#DejaVuSans-51" transform="translate(343.546875 0)"/>
     <use xlink:href="#DejaVuSans-3" transform="translate(406.921875 0)"/>
     <use xlink:href="#DejaVuSans-1a" transform="translate(438.703125 0)"/>
     <use xlink:href="#DejaVuSans-16" transform="translate(502.328125 0)"/>
     <use xlink:href="#DejaVuSans-f" transform="translate(565.953125 0)"/>
     <use xlink:href="#DejaVuSans-13" transform="translate(597.734375 0)"/>
     <use xlink:href="#DejaVuSans-13" transform="translate(661.359375 0)"/>
     <use xlink:href="#DejaVuSans-13" transform="translate(724.984375 0)"/>
     <use xlink:href="#DejaVuSans-f" transform="translate(788.609375 0)"/>
     <use xlink:href="#DejaVuSans-13" transform="translate(820.390625 0)"/>
     <use xlink:href="#DejaVuSans-13" transform="translate(884.015625 0)"/>
     <use xlink:href="#DejaVuSans-13" transform="translate(947.640625 0)"/>
    </g>
   </g>
   <g id="text_2">
    <!-- P(H | E)  - -  wanted by the court -->
    <g style="fill: #8a1f1f" transform="translate(191.942169 298.029576) scale(0.11 -0.11)">
     <defs>
      <path id="DejaVuSans-5a" d="M 269 3500 
L 844 3500 
L 1563 769 
L 2278 3500 
L 2956 3500 
L 3675 769 
L 4391 3500 
L 4966 3500 
L 4050 0 
L 3372 0 
L 2619 2869 
L 1863 0 
L 1184 0 
L 269 3500 
z
" transform="scale(0.015625)"/>
      <path id="DejaVuSans-46" d="M 3122 3366 
L 3122 2828 
Q 2878 2963 2633 3030 
Q 2388 3097 2138 3097 
Q 1578 3097 1268 2742 
Q 959 2388 959 1747 
Q 959 1106 1268 751 
Q 1578 397 2138 397 
Q 2388 397 2633 464 
Q 2878 531 3122 666 
L 3122 134 
Q 2881 22 2623 -34 
Q 2366 -91 2075 -91 
Q 1284 -91 818 406 
Q 353 903 353 1747 
Q 353 2603 823 3093 
Q 1294 3584 2113 3584 
Q 2378 3584 2631 3529 
Q 2884 3475 3122 3366 
z
" transform="scale(0.015625)"/>
      <path id="DejaVuSans-52" d="M 1959 3097 
Q 1497 3097 1228 2736 
Q 959 2375 959 1747 
Q 959 1119 1226 758 
Q 1494 397 1959 397 
Q 2419 397 2687 759 
Q 2956 1122 2956 1747 
Q 2956 2369 2687 2733 
Q 2419 3097 1959 3097 
z
M 1959 3584 
Q 2709 3584 3137 3096 
Q 3566 2609 3566 1747 
Q 3566 888 3137 398 
Q 2709 -91 1959 -91 
Q 1206 -91 779 398 
Q 353 888 353 1747 
Q 353 2609 779 3096 
Q 1206 3584 1959 3584 
z
" transform="scale(0.015625)"/>
     </defs>
     <use xlink:href="#DejaVuSans-33"/>
     <use xlink:href="#DejaVuSans-b" transform="translate(60.296875 0)"/>
     <use xlink:href="#DejaVuSans-2b" transform="translate(99.3125 0)"/>
     <use xlink:href="#DejaVuSans-3" transform="translate(174.515625 0)"/>
     <use xlink:href="#DejaVuSans-5f" transform="translate(206.296875 0)"/>
     <use xlink:href="#DejaVuSans-3" transform="translate(239.984375 0)"/>
     <use xlink:href="#DejaVuSans-28" transform="translate(271.765625 0)"/>
     <use xlink:href="#DejaVuSans-c" transform="translate(334.953125 0)"/>
     <use xlink:href="#DejaVuSans-3" transform="translate(373.96875 0)"/>
     <use xlink:href="#DejaVuSans-3" transform="translate(405.75 0)"/>
     <use xlink:href="#DejaVuSans-10" transform="translate(437.53125 0)"/>
     <use xlink:href="#DejaVuSans-10" transform="translate(473.609375 0)"/>
     <use xlink:href="#DejaVuSans-3" transform="translate(509.6875 0)"/>
     <use xlink:href="#DejaVuSans-3" transform="translate(541.46875 0)"/>
     <use xlink:href="#DejaVuSans-5a" transform="translate(573.25 0)"/>
     <use xlink:href="#DejaVuSans-44" transform="translate(655.03125 0)"/>
     <use xlink:href="#DejaVuSans-51" transform="translate(716.3125 0)"/>
     <use xlink:href="#DejaVuSans-57" transform="translate(779.6875 0)"/>
     <use xlink:href="#DejaVuSans-48" transform="translate(818.890625 0)"/>
     <use xlink:href="#DejaVuSans-47" transform="translate(880.421875 0)"/>
     <use xlink:href="#DejaVuSans-3" transform="translate(943.90625 0)"/>
     <use xlink:href="#DejaVuSans-45" transform="translate(975.6875 0)"/>
     <use xlink:href="#DejaVuSans-5c" transform="translate(1039.171875 0)"/>
     <use xlink:href="#DejaVuSans-3" transform="translate(1098.359375 0)"/>
     <use xlink:href="#DejaVuSans-57" transform="translate(1130.140625 0)"/>
     <use xlink:href="#DejaVuSans-4b" transform="translate(1169.34375 0)"/>
     <use xlink:href="#DejaVuSans-48" transform="translate(1232.71875 0)"/>
     <use xlink:href="#DejaVuSans-3" transform="translate(1294.25 0)"/>
     <use xlink:href="#DejaVuSans-46" transform="translate(1326.03125 0)"/>
     <use xlink:href="#DejaVuSans-52" transform="translate(1381.015625 0)"/>
     <use xlink:href="#DejaVuSans-58" transform="translate(1442.203125 0)"/>
     <use xlink:href="#DejaVuSans-55" transform="translate(1505.578125 0)"/>
     <use xlink:href="#DejaVuSans-57" transform="translate(1546.6875 0)"/>
    </g>
    <!-- needs a prior P(H), rarely stated aloud -->
    <g style="fill: #8a1f1f" transform="translate(173.694201 311.232584) scale(0.11 -0.11)">
     <defs>
      <path id="DejaVuSans-4f" d="M 603 4863 
L 1178 4863 
L 1178 0 
L 603 0 
L 603 4863 
z
" transform="scale(0.015625)"/>
     </defs>
     <use xlink:href="#DejaVuSans-51"/>
     <use xlink:href="#DejaVuSans-48" transform="translate(63.375 0)"/>
     <use xlink:href="#DejaVuSans-48" transform="translate(124.90625 0)"/>
     <use xlink:href="#DejaVuSans-47" transform="translate(186.4375 0)"/>
     <use xlink:href="#DejaVuSans-56" transform="translate(249.921875 0)"/>
     <use xlink:href="#DejaVuSans-3" transform="translate(302.015625 0)"/>
     <use xlink:href="#DejaVuSans-44" transform="translate(333.796875 0)"/>
     <use xlink:href="#DejaVuSans-3" transform="translate(395.078125 0)"/>
     <use xlink:href="#DejaVuSans-53" transform="translate(426.859375 0)"/>
     <use xlink:href="#DejaVuSans-55" transform="translate(490.34375 0)"/>
     <use xlink:href="#DejaVuSans-4c" transform="translate(531.453125 0)"/>
     <use xlink:href="#DejaVuSans-52" transform="translate(559.234375 0)"/>
     <use xlink:href="#DejaVuSans-55" transform="translate(620.421875 0)"/>
     <use xlink:href="#DejaVuSans-3" transform="translate(661.53125 0)"/>
     <use xlink:href="#DejaVuSans-33" transform="translate(693.3125 0)"/>
     <use xlink:href="#DejaVuSans-b" transform="translate(753.609375 0)"/>
     <use xlink:href="#DejaVuSans-2b" transform="translate(792.625 0)"/>
     <use xlink:href="#DejaVuSans-c" transform="translate(867.828125 0)"/>
     <use xlink:href="#DejaVuSans-f" transform="translate(906.84375 0)"/>
     <use xlink:href="#DejaVuSans-3" transform="translate(938.625 0)"/>
     <use xlink:href="#DejaVuSans-55" transform="translate(970.40625 0)"/>
     <use xlink:href="#DejaVuSans-44" transform="translate(1011.515625 0)"/>
     <use xlink:href="#DejaVuSans-55" transform="translate(1072.796875 0)"/>
     <use xlink:href="#DejaVuSans-48" transform="translate(1111.703125 0)"/>
     <use xlink:href="#DejaVuSans-4f" transform="translate(1173.234375 0)"/>
     <use xlink:href="#DejaVuSans-5c" transform="translate(1201.015625 0)"/>
     <use xlink:href="#DejaVuSans-3" transform="translate(1260.203125 0)"/>
     <use xlink:href="#DejaVuSans-56" transform="translate(1291.984375 0)"/>
     <use xlink:href="#DejaVuSans-57" transform="translate(1344.078125 0)"/>
     <use xlink:href="#DejaVuSans-44" transform="translate(1383.28125 0)"/>
     <use xlink:href="#DejaVuSans-57" transform="translate(1444.5625 0)"/>
     <use xlink:href="#DejaVuSans-48" transform="translate(1483.765625 0)"/>
     <use xlink:href="#DejaVuSans-47" transform="translate(1545.296875 0)"/>
     <use xlink:href="#DejaVuSans-3" transform="translate(1608.78125 0)"/>
     <use xlink:href="#DejaVuSans-44" transform="translate(1640.5625 0)"/>
     <use xlink:href="#DejaVuSans-4f" transform="translate(1701.84375 0)"/>
     <use xlink:href="#DejaVuSans-52" transform="translate(1729.625 0)"/>
     <use xlink:href="#DejaVuSans-58" transform="translate(1790.8125 0)"/>
     <use xlink:href="#DejaVuSans-47" transform="translate(1854.1875 0)"/>
    </g>
   </g>
   <g id="text_3">
    <!-- NOT -->
    <g style="fill: #333333" transform="translate(266.289591 193.8289) scale(0.12 -0.12)">
     <defs>
      <path id="DejaVuSans-Oblique-31" d="M 1081 4666 
L 1931 4666 
L 3219 666 
L 4000 4666 
L 4616 4666 
L 3706 0 
L 2853 0 
L 1569 4025 
L 788 0 
L 172 0 
L 1081 4666 
z
" transform="scale(0.015625)"/>
      <path id="DejaVuSans-Oblique-32" d="M 2919 4238 
Q 2400 4238 2003 3986 
Q 1606 3734 1313 3219 
Q 1125 2891 1026 2522 
Q 928 2153 928 1778 
Q 928 1128 1239 775 
Q 1550 422 2119 422 
Q 2631 422 3032 676 
Q 3434 931 3719 1434 
Q 3909 1772 4009 2142 
Q 4109 2513 4109 2881 
Q 4109 3528 3796 3883 
Q 3484 4238 2919 4238 
z
M 2100 -91 
Q 1241 -91 748 418 
Q 256 928 256 1813 
Q 256 2319 448 2847 
Q 641 3375 978 3788 
Q 1375 4272 1862 4511 
Q 2350 4750 2938 4750 
Q 3794 4750 4287 4245 
Q 4781 3741 4781 2869 
Q 4781 2331 4593 1812 
Q 4406 1294 4056 872 
Q 3656 384 3173 146 
Q 2691 -91 2100 -91 
z
" transform="scale(0.015625)"/>
      <path id="DejaVuSans-Oblique-37" d="M 378 4666 
L 4325 4666 
L 4225 4134 
L 2559 4134 
L 1759 0 
L 1125 0 
L 1925 4134 
L 275 4134 
L 378 4666 
z
" transform="scale(0.015625)"/>
     </defs>
     <use xlink:href="#DejaVuSans-Oblique-31"/>
     <use xlink:href="#DejaVuSans-Oblique-32" transform="translate(74.8125 0)"/>
     <use xlink:href="#DejaVuSans-Oblique-37" transform="translate(153.53125 0)"/>
    </g>
    <!-- equal -->
    <g style="fill: #333333" transform="translate(262.518966 208.232181) scale(0.12 -0.12)">
     <defs>
      <path id="DejaVuSans-Oblique-48" d="M 3078 2063 
Q 3088 2113 3092 2166 
Q 3097 2219 3097 2272 
Q 3097 2653 2873 2875 
Q 2650 3097 2266 3097 
Q 1838 3097 1509 2826 
Q 1181 2556 1013 2059 
L 3078 2063 
z
M 3578 1613 
L 903 1613 
Q 884 1494 878 1425 
Q 872 1356 872 1306 
Q 872 872 1139 634 
Q 1406 397 1894 397 
Q 2269 397 2603 481 
Q 2938 566 3225 728 
L 3116 159 
Q 2806 34 2476 -28 
Q 2147 -91 1806 -91 
Q 1078 -91 686 257 
Q 294 606 294 1247 
Q 294 1794 489 2264 
Q 684 2734 1063 3103 
Q 1306 3334 1642 3459 
Q 1978 3584 2356 3584 
Q 2950 3584 3301 3228 
Q 3653 2872 3653 2272 
Q 3653 2128 3634 1964 
Q 3616 1800 3578 1613 
z
" transform="scale(0.015625)"/>
      <path id="DejaVuSans-Oblique-54" d="M 2669 525 
Q 2438 222 2123 65 
Q 1809 -91 1428 -91 
Q 897 -91 595 267 
Q 294 625 294 1253 
Q 294 1759 480 2231 
Q 666 2703 1013 3078 
Q 1238 3322 1530 3453 
Q 1822 3584 2144 3584 
Q 2531 3584 2781 3431 
Q 3031 3278 3144 2969 
L 3244 3494 
L 3822 3494 
L 2888 -1319 
L 2309 -1319 
L 2669 525 
z
M 891 1338 
Q 891 875 1084 633 
Q 1278 391 1644 391 
Q 2188 391 2572 911 
Q 2956 1431 2956 2175 
Q 2956 2625 2757 2864 
Q 2559 3103 2188 3103 
Q 1916 3103 1684 2976 
Q 1453 2850 1281 2606 
Q 1100 2350 995 2006 
Q 891 1663 891 1338 
z
" transform="scale(0.015625)"/>
      <path id="DejaVuSans-Oblique-58" d="M 428 1388 
L 838 3500 
L 1416 3500 
L 1006 1409 
Q 975 1256 961 1147 
Q 947 1038 947 966 
Q 947 700 1109 554 
Q 1272 409 1569 409 
Q 2031 409 2368 721 
Q 2706 1034 2809 1563 
L 3194 3500 
L 3769 3500 
L 3091 0 
L 2516 0 
L 2631 550 
Q 2388 244 2052 76 
Q 1716 -91 1338 -91 
Q 878 -91 622 161 
Q 366 413 366 863 
Q 366 956 381 1097 
Q 397 1238 428 1388 
z
" transform="scale(0.015625)"/>
      <path id="DejaVuSans-Oblique-44" d="M 3438 1997 
L 3047 0 
L 2472 0 
L 2578 531 
Q 2325 219 2001 64 
Q 1678 -91 1281 -91 
Q 834 -91 548 182 
Q 263 456 263 884 
Q 263 1497 752 1853 
Q 1241 2209 2100 2209 
L 2900 2209 
L 2931 2363 
Q 2938 2388 2941 2417 
Q 2944 2447 2944 2509 
Q 2944 2788 2717 2942 
Q 2491 3097 2081 3097 
Q 1800 3097 1504 3025 
Q 1209 2953 897 2809 
L 997 3341 
Q 1322 3463 1633 3523 
Q 1944 3584 2234 3584 
Q 2853 3584 3176 3315 
Q 3500 3047 3500 2534 
Q 3500 2431 3484 2292 
Q 3469 2153 3438 1997 
z
M 2816 1759 
L 2241 1759 
Q 1534 1759 1195 1570 
Q 856 1381 856 984 
Q 856 709 1029 553 
Q 1203 397 1509 397 
Q 1978 397 2328 733 
Q 2678 1069 2791 1631 
L 2816 1759 
z
" transform="scale(0.015625)"/>
      <path id="DejaVuSans-Oblique-4f" d="M 1172 4863 
L 1747 4863 
L 800 0 
L 225 0 
L 1172 4863 
z
" transform="scale(0.015625)"/>
     </defs>
     <use xlink:href="#DejaVuSans-Oblique-48"/>
     <use xlink:href="#DejaVuSans-Oblique-54" transform="translate(61.53125 0)"/>
     <use xlink:href="#DejaVuSans-Oblique-58" transform="translate(125.015625 0)"/>
     <use xlink:href="#DejaVuSans-Oblique-44" transform="translate(188.390625 0)"/>
     <use xlink:href="#DejaVuSans-Oblique-4f" transform="translate(249.671875 0)"/>
    </g>
   </g>
   <g id="text_4">
    <!-- Two directions of the same conditional probability -->
    <g transform="translate(117.555841 17.077969) scale(0.13 -0.13)">
     <defs>
      <path id="DejaVuSans-37" d="M -19 4666 
L 3928 4666 
L 3928 4134 
L 2272 4134 
L 2272 0 
L 1638 0 
L 1638 4134 
L -19 4134 
L -19 4666 
z
" transform="scale(0.015625)"/>
      <path id="DejaVuSans-49" d="M 2375 4863 
L 2375 4384 
L 1825 4384 
Q 1516 4384 1395 4259 
Q 1275 4134 1275 3809 
L 1275 3500 
L 2222 3500 
L 2222 3053 
L 1275 3053 
L 1275 0 
L 697 0 
L 697 3053 
L 147 3053 
L 147 3500 
L 697 3500 
L 697 3744 
Q 697 4328 969 4595 
Q 1241 4863 1831 4863 
L 2375 4863 
z
" transform="scale(0.015625)"/>
     </defs>
     <use xlink:href="#DejaVuSans-37"/>
     <use xlink:href="#DejaVuSans-5a" transform="translate(44.53125 0)"/>
     <use xlink:href="#DejaVuSans-52" transform="translate(126.3125 0)"/>
     <use xlink:href="#DejaVuSans-3" transform="translate(187.5 0)"/>
     <use xlink:href="#DejaVuSans-47" transform="translate(219.28125 0)"/>
     <use xlink:href="#DejaVuSans-4c" transform="translate(282.765625 0)"/>
     <use xlink:href="#DejaVuSans-55" transform="translate(310.546875 0)"/>
     <use xlink:href="#DejaVuSans-48" transform="translate(349.453125 0)"/>
     <use xlink:href="#DejaVuSans-46" transform="translate(410.984375 0)"/>
     <use xlink:href="#DejaVuSans-57" transform="translate(465.96875 0)"/>
     <use xlink:href="#DejaVuSans-4c" transform="translate(505.171875 0)"/>
     <use xlink:href="#DejaVuSans-52" transform="translate(532.953125 0)"/>
     <use xlink:href="#DejaVuSans-51" transform="translate(594.140625 0)"/>
     <use xlink:href="#DejaVuSans-56" transform="translate(657.515625 0)"/>
     <use xlink:href="#DejaVuSans-3" transform="translate(709.609375 0)"/>
     <use xlink:href="#DejaVuSans-52" transform="translate(741.390625 0)"/>
     <use xlink:href="#DejaVuSans-49" transform="translate(802.578125 0)"/>
     <use xlink:href="#DejaVuSans-3" transform="translate(837.78125 0)"/>
     <use xlink:href="#DejaVuSans-57" transform="translate(869.5625 0)"/>
     <use xlink:href="#DejaVuSans-4b" transform="translate(908.765625 0)"/>
     <use xlink:href="#DejaVuSans-48" transform="translate(972.140625 0)"/>
     <use xlink:href="#DejaVuSans-3" transform="translate(1033.671875 0)"/>
     <use xlink:href="#DejaVuSans-56" transform="translate(1065.453125 0)"/>
     <use xlink:href="#DejaVuSans-44" transform="translate(1117.546875 0)"/>
     <use xlink:href="#DejaVuSans-50" transform="translate(1178.828125 0)"/>
     <use xlink:href="#DejaVuSans-48" transform="translate(1276.234375 0)"/>
     <use xlink:href="#DejaVuSans-3" transform="translate(1337.765625 0)"/>
     <use xlink:href="#DejaVuSans-46" transform="translate(1369.546875 0)"/>
     <use xlink:href="#DejaVuSans-52" transform="translate(1424.53125 0)"/>
     <use xlink:href="#DejaVuSans-51" transform="translate(1485.71875 0)"/>
     <use xlink:href="#DejaVuSans-47" transform="translate(1549.09375 0)"/>
     <use xlink:href="#DejaVuSans-4c" transform="translate(1612.578125 0)"/>
     <use xlink:href="#DejaVuSans-57" transform="translate(1640.359375 0)"/>
     <use xlink:href="#DejaVuSans-4c" transform="translate(1679.5625 0)"/>
     <use xlink:href="#DejaVuSans-52" transform="translate(1707.34375 0)"/>
     <use xlink:href="#DejaVuSans-51" transform="translate(1768.53125 0)"/>
     <use xlink:href="#DejaVuSans-44" transform="translate(1831.90625 0)"/>
     <use xlink:href="#DejaVuSans-4f" transform="translate(1893.1875 0)"/>
     <use xlink:href="#DejaVuSans-3" transform="translate(1920.96875 0)"/>
     <use xlink:href="#DejaVuSans-53" transform="translate(1952.75 0)"/>
     <use xlink:href="#DejaVuSans-55" transform="translate(2016.234375 0)"/>
     <use xlink:href="#DejaVuSans-52" transform="translate(2055.140625 0)"/>
     <use xlink:href="#DejaVuSans-45" transform="translate(2116.328125 0)"/>
     <use xlink:href="#DejaVuSans-44" transform="translate(2179.8125 0)"/>
     <use xlink:href="#DejaVuSans-45" transform="translate(2241.09375 0)"/>
     <use xlink:href="#DejaVuSans-4c" transform="translate(2304.578125 0)"/>
     <use xlink:href="#DejaVuSans-4f" transform="translate(2332.359375 0)"/>
     <use xlink:href="#DejaVuSans-4c" transform="translate(2360.140625 0)"/>
     <use xlink:href="#DejaVuSans-57" transform="translate(2387.921875 0)"/>
     <use xlink:href="#DejaVuSans-5c" transform="translate(2427.125 0)"/>
    </g>
   </g>
   <g id="text_5">
    <!-- H -->
    <g transform="translate(105.366466 193.488529) scale(0.13 -0.13)">
     <defs>
      <path id="DejaVuSans-Bold-2b" d="M 588 4666 
L 1791 4666 
L 1791 2888 
L 3566 2888 
L 3566 4666 
L 4769 4666 
L 4769 0 
L 3566 0 
L 3566 1978 
L 1791 1978 
L 1791 0 
L 588 0 
L 588 4666 
z
" transform="scale(0.015625)"/>
     </defs>
     <use xlink:href="#DejaVuSans-Bold-2b"/>
    </g>
    <!-- innocent -->
    <g transform="translate(78.861701 209.092084) scale(0.13 -0.13)">
     <defs>
      <path id="DejaVuSans-Bold-4c" d="M 538 3500 
L 1656 3500 
L 1656 0 
L 538 0 
L 538 3500 
z
M 538 4863 
L 1656 4863 
L 1656 3950 
L 538 3950 
L 538 4863 
z
" transform="scale(0.015625)"/>
      <path id="DejaVuSans-Bold-51" d="M 4056 2131 
L 4056 0 
L 2931 0 
L 2931 347 
L 2931 1631 
Q 2931 2084 2911 2256 
Q 2891 2428 2841 2509 
Q 2775 2619 2662 2680 
Q 2550 2741 2406 2741 
Q 2056 2741 1856 2470 
Q 1656 2200 1656 1722 
L 1656 0 
L 538 0 
L 538 3500 
L 1656 3500 
L 1656 2988 
Q 1909 3294 2193 3439 
Q 2478 3584 2822 3584 
Q 3428 3584 3742 3212 
Q 4056 2841 4056 2131 
z
" transform="scale(0.015625)"/>
      <path id="DejaVuSans-Bold-52" d="M 2203 2784 
Q 1831 2784 1636 2517 
Q 1441 2250 1441 1747 
Q 1441 1244 1636 976 
Q 1831 709 2203 709 
Q 2569 709 2762 976 
Q 2956 1244 2956 1747 
Q 2956 2250 2762 2517 
Q 2569 2784 2203 2784 
z
M 2203 3584 
Q 3106 3584 3614 3096 
Q 4122 2609 4122 1747 
Q 4122 884 3614 396 
Q 3106 -91 2203 -91 
Q 1297 -91 786 396 
Q 275 884 275 1747 
Q 275 2609 786 3096 
Q 1297 3584 2203 3584 
z
" transform="scale(0.015625)"/>
      <path id="DejaVuSans-Bold-46" d="M 3366 3391 
L 3366 2478 
Q 3138 2634 2908 2709 
Q 2678 2784 2431 2784 
Q 1963 2784 1702 2511 
Q 1441 2238 1441 1747 
Q 1441 1256 1702 982 
Q 1963 709 2431 709 
Q 2694 709 2930 787 
Q 3166 866 3366 1019 
L 3366 103 
Q 3103 6 2833 -42 
Q 2563 -91 2291 -91 
Q 1344 -91 809 395 
Q 275 881 275 1747 
Q 275 2613 809 3098 
Q 1344 3584 2291 3584 
Q 2566 3584 2833 3536 
Q 3100 3488 3366 3391 
z
" transform="scale(0.015625)"/>
      <path id="DejaVuSans-Bold-48" d="M 4031 1759 
L 4031 1441 
L 1416 1441 
Q 1456 1047 1700 850 
Q 1944 653 2381 653 
Q 2734 653 3104 758 
Q 3475 863 3866 1075 
L 3866 213 
Q 3469 63 3072 -14 
Q 2675 -91 2278 -91 
Q 1328 -91 801 392 
Q 275 875 275 1747 
Q 275 2603 792 3093 
Q 1309 3584 2216 3584 
Q 3041 3584 3536 3087 
Q 4031 2591 4031 1759 
z
M 2881 2131 
Q 2881 2450 2695 2645 
Q 2509 2841 2209 2841 
Q 1884 2841 1681 2658 
Q 1478 2475 1428 2131 
L 2881 2131 
z
" transform="scale(0.015625)"/>
      <path id="DejaVuSans-Bold-57" d="M 1759 4494 
L 1759 3500 
L 2913 3500 
L 2913 2700 
L 1759 2700 
L 1759 1216 
Q 1759 972 1856 886 
Q 1953 800 2241 800 
L 2816 800 
L 2816 0 
L 1856 0 
Q 1194 0 917 276 
Q 641 553 641 1216 
L 641 2700 
L 84 2700 
L 84 3500 
L 641 3500 
L 641 4494 
L 1759 4494 
z
" transform="scale(0.015625)"/>
     </defs>
     <use xlink:href="#DejaVuSans-Bold-4c"/>
     <use xlink:href="#DejaVuSans-Bold-51" transform="translate(34.28125 0)"/>
     <use xlink:href="#DejaVuSans-Bold-51" transform="translate(105.46875 0)"/>
     <use xlink:href="#DejaVuSans-Bold-52" transform="translate(176.65625 0)"/>
     <use xlink:href="#DejaVuSans-Bold-46" transform="translate(245.359375 0)"/>
     <use xlink:href="#DejaVuSans-Bold-48" transform="translate(304.640625 0)"/>
     <use xlink:href="#DejaVuSans-Bold-51" transform="translate(372.46875 0)"/>
     <use xlink:href="#DejaVuSans-Bold-57" transform="translate(443.65625 0)"/>
    </g>
   </g>
   <g id="text_6">
    <!-- E -->
    <g transform="translate(443.085841 193.488529) scale(0.13 -0.13)">
     <defs>
      <path id="DejaVuSans-Bold-28" d="M 588 4666 
L 3834 4666 
L 3834 3756 
L 1791 3756 
L 1791 2888 
L 3713 2888 
L 3713 1978 
L 1791 1978 
L 1791 909 
L 3903 909 
L 3903 0 
L 588 0 
L 588 4666 
z
" transform="scale(0.015625)"/>
     </defs>
     <use xlink:href="#DejaVuSans-Bold-28"/>
    </g>
    <!-- the evidence -->
    <g transform="translate(400.295529 209.092084) scale(0.13 -0.13)">
     <defs>
      <path id="DejaVuSans-Bold-4b" d="M 4056 2131 
L 4056 0 
L 2931 0 
L 2931 347 
L 2931 1625 
Q 2931 2084 2911 2256 
Q 2891 2428 2841 2509 
Q 2775 2619 2662 2680 
Q 2550 2741 2406 2741 
Q 2056 2741 1856 2470 
Q 1656 2200 1656 1722 
L 1656 0 
L 538 0 
L 538 4863 
L 1656 4863 
L 1656 2988 
Q 1909 3294 2193 3439 
Q 2478 3584 2822 3584 
Q 3428 3584 3742 3212 
Q 4056 2841 4056 2131 
z
" transform="scale(0.015625)"/>
      <path id="DejaVuSans-Bold-3" transform="scale(0.015625)"/>
      <path id="DejaVuSans-Bold-59" d="M 97 3500 
L 1216 3500 
L 2088 1081 
L 2956 3500 
L 4078 3500 
L 2700 0 
L 1472 0 
L 97 3500 
z
" transform="scale(0.015625)"/>
      <path id="DejaVuSans-Bold-47" d="M 2919 2988 
L 2919 4863 
L 4044 4863 
L 4044 0 
L 2919 0 
L 2919 506 
Q 2688 197 2409 53 
Q 2131 -91 1766 -91 
Q 1119 -91 703 423 
Q 288 938 288 1747 
Q 288 2556 703 3070 
Q 1119 3584 1766 3584 
Q 2128 3584 2408 3439 
Q 2688 3294 2919 2988 
z
M 2181 722 
Q 2541 722 2730 984 
Q 2919 1247 2919 1747 
Q 2919 2247 2730 2509 
Q 2541 2772 2181 2772 
Q 1825 2772 1636 2509 
Q 1447 2247 1447 1747 
Q 1447 1247 1636 984 
Q 1825 722 2181 722 
z
" transform="scale(0.015625)"/>
     </defs>
     <use xlink:href="#DejaVuSans-Bold-57"/>
     <use xlink:href="#DejaVuSans-Bold-4b" transform="translate(47.796875 0)"/>
     <use xlink:href="#DejaVuSans-Bold-48" transform="translate(118.984375 0)"/>
     <use xlink:href="#DejaVuSans-Bold-3" transform="translate(186.8125 0)"/>
     <use xlink:href="#DejaVuSans-Bold-48" transform="translate(221.625 0)"/>
     <use xlink:href="#DejaVuSans-Bold-59" transform="translate(289.453125 0)"/>
     <use xlink:href="#DejaVuSans-Bold-4c" transform="translate(354.640625 0)"/>
     <use xlink:href="#DejaVuSans-Bold-47" transform="translate(388.921875 0)"/>
     <use xlink:href="#DejaVuSans-Bold-48" transform="translate(460.5 0)"/>
     <use xlink:href="#DejaVuSans-Bold-51" transform="translate(528.328125 0)"/>
     <use xlink:href="#DejaVuSans-Bold-46" transform="translate(599.515625 0)"/>
     <use xlink:href="#DejaVuSans-Bold-48" transform="translate(658.796875 0)"/>
    </g>
   </g>
  </g>
 </g>
 <defs>
  <clipPath id="p4263a063a1">
   <rect x="7.2" y="23.077969" width="543.932308" height="336.72"/>
  </clipPath>
 </defs>
</svg>
