<?xml version="1.0" encoding="utf-8" standalone="no"?>
<!DOCTYPE svg PUBLIC "-//W3C//DTD SVG 1.1//EN"
  "http://www.w3.org/Graphics/SVG/1.1/DTD/svg11.dtd">
<svg xmlns:xlink="http://www.w3.org/1999/xlink" width="576pt" height="360pt" viewBox="0 0 576 360" xmlns="http://www.w3.org/2000/svg" version="1.1">
 <metadata>
  <rdf:RDF xmlns:dc="http://purl.org/dc/elements/1.1/" xmlns:cc="http://creativecommons.org/ns#" xmlns:rdf="http://www.w3.org/1999/02/22-rdf-syntax-ns#">
   <cc:Work>
    <dc:type rdf:resource="http://purl.org/dc/dcmitype/StillImage"/>
    <dc:date>2026-07-02T00:35:17.645810</dc:date>
    <dc:format>image/svg+xml</dc:format>
    <dc:creator>
     <cc:Agent>
      <dc:title>Matplotlib v3.11.0, https://matplotlib.org/</dc:title>
     </cc:Agent>
    </dc:creator>
   </cc:Work>
  </rdf:RDF>
 </metadata>
 <defs>
  <style type="text/css">*{stroke-linejoin: round; stroke-linecap: butt}</style>
 </defs>
 <g id="figure_1">
  <g id="patch_1">
   <path d="M 0 360 
L 576 360 
L 576 0 
L 0 0 
z
" style="fill: #ffffff"/>
  </g>
  <g id="axes_1">
   <g id="patch_2">
    <path d="M 47.962344 317.877656 
L 565.2 317.877656 
L 565.2 26.16 
L 47.962344 26.16 
z
" style="fill: #ffffff"/>
   </g>
   <g id="matplotlib.axis_1">
    <g id="xtick_1">
     <g id="line2d_1">
      <defs>
       <path id="me3b6e22985" d="M 0 0 
L 0 3.5 
" style="stroke: #000000; stroke-width: 0.8"/>
      </defs>
      <g>
       <use xlink:href="#me3b6e22985" x="71.473146" y="317.877656" style="stroke: #000000; stroke-width: 0.8"/>
      </g>
     </g>
     <g id="text_1">
      <!-- 0 -->
      <g transform="translate(68.291896 332.475312) scale(0.1 -0.1)">
       <defs>
        <path id="DejaVuSans-13" d="M 2034 4250 
Q 1547 4250 1301 3770 
Q 1056 3291 1056 2328 
Q 1056 1369 1301 889 
Q 1547 409 2034 409 
Q 2525 409 2770 889 
Q 3016 1369 3016 2328 
Q 3016 3291 2770 3770 
Q 2525 4250 2034 4250 
z
M 2034 4750 
Q 2819 4750 3233 4129 
Q 3647 3509 3647 2328 
Q 3647 1150 3233 529 
Q 2819 -91 2034 -91 
Q 1250 -91 836 529 
Q 422 1150 422 2328 
Q 422 3509 836 4129 
Q 1250 4750 2034 4750 
z
" transform="scale(0.015625)"/>
       </defs>
       <use xlink:href="#DejaVuSans-13"/>
      </g>
     </g>
    </g>
    <g id="xtick_2">
     <g id="line2d_2">
      <g>
       <use xlink:href="#me3b6e22985" x="165.516357" y="317.877656" style="stroke: #000000; stroke-width: 0.8"/>
      </g>
     </g>
     <g id="text_2">
      <!-- 20 -->
      <g transform="translate(159.153857 332.475312) scale(0.1 -0.1)">
       <defs>
        <path id="DejaVuSans-15" d="M 1228 531 
L 3431 531 
L 3431 0 
L 469 0 
L 469 531 
Q 828 903 1448 1529 
Q 2069 2156 2228 2338 
Q 2531 2678 2651 2914 
Q 2772 3150 2772 3378 
Q 2772 3750 2511 3984 
Q 2250 4219 1831 4219 
Q 1534 4219 1204 4116 
Q 875 4013 500 3803 
L 500 4441 
Q 881 4594 1212 4672 
Q 1544 4750 1819 4750 
Q 2544 4750 2975 4387 
Q 3406 4025 3406 3419 
Q 3406 3131 3298 2873 
Q 3191 2616 2906 2266 
Q 2828 2175 2409 1742 
Q 1991 1309 1228 531 
z
" transform="scale(0.015625)"/>
       </defs>
       <use xlink:href="#DejaVuSans-15"/>
       <use xlink:href="#DejaVuSans-13" transform="translate(63.625 0)"/>
      </g>
     </g>
    </g>
    <g id="xtick_3">
     <g id="line2d_3">
      <g>
       <use xlink:href="#me3b6e22985" x="259.559567" y="317.877656" style="stroke: #000000; stroke-width: 0.8"/>
      </g>
     </g>
     <g id="text_3">
      <!-- 40 -->
      <g transform="translate(253.197067 332.475312) scale(0.1 -0.1)">
       <defs>
        <path id="DejaVuSans-17" d="M 2419 4116 
L 825 1625 
L 2419 1625 
L 2419 4116 
z
M 2253 4666 
L 3047 4666 
L 3047 1625 
L 3713 1625 
L 3713 1100 
L 3047 1100 
L 3047 0 
L 2419 0 
L 2419 1100 
L 313 1100 
L 313 1709 
L 2253 4666 
z
" transform="scale(0.015625)"/>
       </defs>
       <use xlink:href="#DejaVuSans-17"/>
       <use xlink:href="#DejaVuSans-13" transform="translate(63.625 0)"/>
      </g>
     </g>
    </g>
    <g id="xtick_4">
     <g id="line2d_4">
      <g>
       <use xlink:href="#me3b6e22985" x="353.602777" y="317.877656" style="stroke: #000000; stroke-width: 0.8"/>
      </g>
     </g>
     <g id="text_4">
      <!-- 60 -->
      <g transform="translate(347.240277 332.475312) scale(0.1 -0.1)">
       <defs>
        <path id="DejaVuSans-19" d="M 2113 2584 
Q 1688 2584 1439 2293 
Q 1191 2003 1191 1497 
Q 1191 994 1439 701 
Q 1688 409 2113 409 
Q 2538 409 2786 701 
Q 3034 994 3034 1497 
Q 3034 2003 2786 2293 
Q 2538 2584 2113 2584 
z
M 3366 4563 
L 3366 3988 
Q 3128 4100 2886 4159 
Q 2644 4219 2406 4219 
Q 1781 4219 1451 3797 
Q 1122 3375 1075 2522 
Q 1259 2794 1537 2939 
Q 1816 3084 2150 3084 
Q 2853 3084 3261 2657 
Q 3669 2231 3669 1497 
Q 3669 778 3244 343 
Q 2819 -91 2113 -91 
Q 1303 -91 875 529 
Q 447 1150 447 2328 
Q 447 3434 972 4092 
Q 1497 4750 2381 4750 
Q 2619 4750 2861 4703 
Q 3103 4656 3366 4563 
z
" transform="scale(0.015625)"/>
       </defs>
       <use xlink:href="#DejaVuSans-19"/>
       <use xlink:href="#DejaVuSans-13" transform="translate(63.625 0)"/>
      </g>
     </g>
    </g>
    <g id="xtick_5">
     <g id="line2d_5">
      <g>
       <use xlink:href="#me3b6e22985" x="447.645987" y="317.877656" style="stroke: #000000; stroke-width: 0.8"/>
      </g>
     </g>
     <g id="text_5">
      <!-- 80 -->
      <g transform="translate(441.283487 332.475312) scale(0.1 -0.1)">
       <defs>
        <path id="DejaVuSans-1b" d="M 2034 2216 
Q 1584 2216 1326 1975 
Q 1069 1734 1069 1313 
Q 1069 891 1326 650 
Q 1584 409 2034 409 
Q 2484 409 2743 651 
Q 3003 894 3003 1313 
Q 3003 1734 2745 1975 
Q 2488 2216 2034 2216 
z
M 1403 2484 
Q 997 2584 770 2862 
Q 544 3141 544 3541 
Q 544 4100 942 4425 
Q 1341 4750 2034 4750 
Q 2731 4750 3128 4425 
Q 3525 4100 3525 3541 
Q 3525 3141 3298 2862 
Q 3072 2584 2669 2484 
Q 3125 2378 3379 2068 
Q 3634 1759 3634 1313 
Q 3634 634 3220 271 
Q 2806 -91 2034 -91 
Q 1263 -91 848 271 
Q 434 634 434 1313 
Q 434 1759 690 2068 
Q 947 2378 1403 2484 
z
M 1172 3481 
Q 1172 3119 1398 2916 
Q 1625 2713 2034 2713 
Q 2441 2713 2670 2916 
Q 2900 3119 2900 3481 
Q 2900 3844 2670 4047 
Q 2441 4250 2034 4250 
Q 1625 4250 1398 4047 
Q 1172 3844 1172 3481 
z
" transform="scale(0.015625)"/>
       </defs>
       <use xlink:href="#DejaVuSans-1b"/>
       <use xlink:href="#DejaVuSans-13" transform="translate(63.625 0)"/>
      </g>
     </g>
    </g>
    <g id="xtick_6">
     <g id="line2d_6">
      <g>
       <use xlink:href="#me3b6e22985" x="541.689197" y="317.877656" style="stroke: #000000; stroke-width: 0.8"/>
      </g>
     </g>
     <g id="text_6">
      <!-- 100 -->
      <g transform="translate(532.145447 332.475312) scale(0.1 -0.1)">
       <defs>
        <path id="DejaVuSans-14" d="M 794 531 
L 1825 531 
L 1825 4091 
L 703 3866 
L 703 4441 
L 1819 4666 
L 2450 4666 
L 2450 531 
L 3481 531 
L 3481 0 
L 794 0 
L 794 531 
z
" transform="scale(0.015625)"/>
       </defs>
       <use xlink:href="#DejaVuSans-14"/>
       <use xlink:href="#DejaVuSans-13" transform="translate(63.625 0)"/>
       <use xlink:href="#DejaVuSans-13" transform="translate(127.25 0)"/>
      </g>
     </g>
    </g>
    <g id="text_7">
     <!-- starting capital i (pot N = 100) -->
     <g transform="translate(229.921797 346.476094) scale(0.1 -0.1)">
      <defs>
       <path id="DejaVuSans-56" d="M 2834 3397 
L 2834 2853 
Q 2591 2978 2328 3040 
Q 2066 3103 1784 3103 
Q 1356 3103 1142 2972 
Q 928 2841 928 2578 
Q 928 2378 1081 2264 
Q 1234 2150 1697 2047 
L 1894 2003 
Q 2506 1872 2764 1633 
Q 3022 1394 3022 966 
Q 3022 478 2636 193 
Q 2250 -91 1575 -91 
Q 1294 -91 989 -36 
Q 684 19 347 128 
L 347 722 
Q 666 556 975 473 
Q 1284 391 1588 391 
Q 1994 391 2212 530 
Q 2431 669 2431 922 
Q 2431 1156 2273 1281 
Q 2116 1406 1581 1522 
L 1381 1569 
Q 847 1681 609 1914 
Q 372 2147 372 2553 
Q 372 3047 722 3315 
Q 1072 3584 1716 3584 
Q 2034 3584 2315 3537 
Q 2597 3491 2834 3397 
z
" transform="scale(0.015625)"/>
       <path id="DejaVuSans-57" d="M 1172 4494 
L 1172 3500 
L 2356 3500 
L 2356 3053 
L 1172 3053 
L 1172 1153 
Q 1172 725 1289 603 
Q 1406 481 1766 481 
L 2356 481 
L 2356 0 
L 1766 0 
Q 1100 0 847 248 
Q 594 497 594 1153 
L 594 3053 
L 172 3053 
L 172 3500 
L 594 3500 
L 594 4494 
L 1172 4494 
z
" transform="scale(0.015625)"/>
       <path id="DejaVuSans-44" d="M 2194 1759 
Q 1497 1759 1228 1600 
Q 959 1441 959 1056 
Q 959 750 1161 570 
Q 1363 391 1709 391 
Q 2188 391 2477 730 
Q 2766 1069 2766 1631 
L 2766 1759 
L 2194 1759 
z
M 3341 1997 
L 3341 0 
L 2766 0 
L 2766 531 
Q 2569 213 2275 61 
Q 1981 -91 1556 -91 
Q 1019 -91 701 211 
Q 384 513 384 1019 
Q 384 1609 779 1909 
Q 1175 2209 1959 2209 
L 2766 2209 
L 2766 2266 
Q 2766 2663 2505 2880 
Q 2244 3097 1772 3097 
Q 1472 3097 1187 3025 
Q 903 2953 641 2809 
L 641 3341 
Q 956 3463 1253 3523 
Q 1550 3584 1831 3584 
Q 2591 3584 2966 3190 
Q 3341 2797 3341 1997 
z
" transform="scale(0.015625)"/>
       <path id="DejaVuSans-55" d="M 2631 2963 
Q 2534 3019 2420 3045 
Q 2306 3072 2169 3072 
Q 1681 3072 1420 2755 
Q 1159 2438 1159 1844 
L 1159 0 
L 581 0 
L 581 3500 
L 1159 3500 
L 1159 2956 
Q 1341 3275 1631 3429 
Q 1922 3584 2338 3584 
Q 2397 3584 2469 3576 
Q 2541 3569 2628 3553 
L 2631 2963 
z
" transform="scale(0.015625)"/>
       <path id="DejaVuSans-4c" d="M 603 3500 
L 1178 3500 
L 1178 0 
L 603 0 
L 603 3500 
z
M 603 4863 
L 1178 4863 
L 1178 4134 
L 603 4134 
L 603 4863 
z
" transform="scale(0.015625)"/>
       <path id="DejaVuSans-51" d="M 3513 2113 
L 3513 0 
L 2938 0 
L 2938 2094 
Q 2938 2591 2744 2837 
Q 2550 3084 2163 3084 
Q 1697 3084 1428 2787 
Q 1159 2491 1159 1978 
L 1159 0 
L 581 0 
L 581 3500 
L 1159 3500 
L 1159 2956 
Q 1366 3272 1645 3428 
Q 1925 3584 2291 3584 
Q 2894 3584 3203 3211 
Q 3513 2838 3513 2113 
z
" transform="scale(0.015625)"/>
       <path id="DejaVuSans-4a" d="M 2906 1791 
Q 2906 2416 2648 2759 
Q 2391 3103 1925 3103 
Q 1463 3103 1205 2759 
Q 947 2416 947 1791 
Q 947 1169 1205 825 
Q 1463 481 1925 481 
Q 2391 481 2648 825 
Q 2906 1169 2906 1791 
z
M 3481 434 
Q 3481 -459 3084 -895 
Q 2688 -1331 1869 -1331 
Q 1566 -1331 1297 -1286 
Q 1028 -1241 775 -1147 
L 775 -588 
Q 1028 -725 1275 -790 
Q 1522 -856 1778 -856 
Q 2344 -856 2625 -561 
Q 2906 -266 2906 331 
L 2906 616 
Q 2728 306 2450 153 
Q 2172 0 1784 0 
Q 1141 0 747 490 
Q 353 981 353 1791 
Q 353 2603 747 3093 
Q 1141 3584 1784 3584 
Q 2172 3584 2450 3431 
Q 2728 3278 2906 2969 
L 2906 3500 
L 3481 3500 
L 3481 434 
z
" transform="scale(0.015625)"/>
       <path id="DejaVuSans-3" transform="scale(0.015625)"/>
       <path id="DejaVuSans-46" d="M 3122 3366 
L 3122 2828 
Q 2878 2963 2633 3030 
Q 2388 3097 2138 3097 
Q 1578 3097 1268 2742 
Q 959 2388 959 1747 
Q 959 1106 1268 751 
Q 1578 397 2138 397 
Q 2388 397 2633 464 
Q 2878 531 3122 666 
L 3122 134 
Q 2881 22 2623 -34 
Q 2366 -91 2075 -91 
Q 1284 -91 818 406 
Q 353 903 353 1747 
Q 353 2603 823 3093 
Q 1294 3584 2113 3584 
Q 2378 3584 2631 3529 
Q 2884 3475 3122 3366 
z
" transform="scale(0.015625)"/>
       <path id="DejaVuSans-53" d="M 1159 525 
L 1159 -1331 
L 581 -1331 
L 581 3500 
L 1159 3500 
L 1159 2969 
Q 1341 3281 1617 3432 
Q 1894 3584 2278 3584 
Q 2916 3584 3314 3078 
Q 3713 2572 3713 1747 
Q 3713 922 3314 415 
Q 2916 -91 2278 -91 
Q 1894 -91 1617 61 
Q 1341 213 1159 525 
z
M 3116 1747 
Q 3116 2381 2855 2742 
Q 2594 3103 2138 3103 
Q 1681 3103 1420 2742 
Q 1159 2381 1159 1747 
Q 1159 1113 1420 752 
Q 1681 391 2138 391 
Q 2594 391 2855 752 
Q 3116 1113 3116 1747 
z
" transform="scale(0.015625)"/>
       <path id="DejaVuSans-4f" d="M 603 4863 
L 1178 4863 
L 1178 0 
L 603 0 
L 603 4863 
z
" transform="scale(0.015625)"/>
       <path id="DejaVuSans-b" d="M 1984 4856 
Q 1566 4138 1362 3434 
Q 1159 2731 1159 2009 
Q 1159 1288 1364 580 
Q 1569 -128 1984 -844 
L 1484 -844 
Q 1016 -109 783 600 
Q 550 1309 550 2009 
Q 550 2706 781 3412 
Q 1013 4119 1484 4856 
L 1984 4856 
z
" transform="scale(0.015625)"/>
       <path id="DejaVuSans-52" d="M 1959 3097 
Q 1497 3097 1228 2736 
Q 959 2375 959 1747 
Q 959 1119 1226 758 
Q 1494 397 1959 397 
Q 2419 397 2687 759 
Q 2956 1122 2956 1747 
Q 2956 2369 2687 2733 
Q 2419 3097 1959 3097 
z
M 1959 3584 
Q 2709 3584 3137 3096 
Q 3566 2609 3566 1747 
Q 3566 888 3137 398 
Q 2709 -91 1959 -91 
Q 1206 -91 779 398 
Q 353 888 353 1747 
Q 353 2609 779 3096 
Q 1206 3584 1959 3584 
z
" transform="scale(0.015625)"/>
       <path id="DejaVuSans-31" d="M 628 4666 
L 1478 4666 
L 3547 763 
L 3547 4666 
L 4159 4666 
L 4159 0 
L 3309 0 
L 1241 3903 
L 1241 0 
L 628 0 
L 628 4666 
z
" transform="scale(0.015625)"/>
       <path id="DejaVuSans-20" d="M 678 2906 
L 4684 2906 
L 4684 2381 
L 678 2381 
L 678 2906 
z
M 678 1631 
L 4684 1631 
L 4684 1100 
L 678 1100 
L 678 1631 
z
" transform="scale(0.015625)"/>
       <path id="DejaVuSans-c" d="M 513 4856 
L 1013 4856 
Q 1481 4119 1714 3412 
Q 1947 2706 1947 2009 
Q 1947 1309 1714 600 
Q 1481 -109 1013 -844 
L 513 -844 
Q 928 -128 1133 580 
Q 1338 1288 1338 2009 
Q 1338 2731 1133 3434 
Q 928 4138 513 4856 
z
" transform="scale(0.015625)"/>
      </defs>
      <use xlink:href="#DejaVuSans-56"/>
      <use xlink:href="#DejaVuSans-57" transform="translate(52.09375 0)"/>
      <use xlink:href="#DejaVuSans-44" transform="translate(91.296875 0)"/>
      <use xlink:href="#DejaVuSans-55" transform="translate(152.578125 0)"/>
      <use xlink:href="#DejaVuSans-57" transform="translate(193.6875 0)"/>
      <use xlink:href="#DejaVuSans-4c" transform="translate(232.890625 0)"/>
      <use xlink:href="#DejaVuSans-51" transform="translate(260.671875 0)"/>
      <use xlink:href="#DejaVuSans-4a" transform="translate(324.046875 0)"/>
      <use xlink:href="#DejaVuSans-3" transform="translate(387.53125 0)"/>
      <use xlink:href="#DejaVuSans-46" transform="translate(419.3125 0)"/>
      <use xlink:href="#DejaVuSans-44" transform="translate(474.296875 0)"/>
      <use xlink:href="#DejaVuSans-53" transform="translate(535.578125 0)"/>
      <use xlink:href="#DejaVuSans-4c" transform="translate(599.0625 0)"/>
      <use xlink:href="#DejaVuSans-57" transform="translate(626.84375 0)"/>
      <use xlink:href="#DejaVuSans-44" transform="translate(666.046875 0)"/>
      <use xlink:href="#DejaVuSans-4f" transform="translate(727.328125 0)"/>
      <use xlink:href="#DejaVuSans-3" transform="translate(755.109375 0)"/>
      <use xlink:href="#DejaVuSans-4c" transform="translate(786.890625 0)"/>
      <use xlink:href="#DejaVuSans-3" transform="translate(814.671875 0)"/>
      <use xlink:href="#DejaVuSans-b" transform="translate(846.453125 0)"/>
      <use xlink:href="#DejaVuSans-53" transform="translate(885.46875 0)"/>
      <use xlink:href="#DejaVuSans-52" transform="translate(948.953125 0)"/>
      <use xlink:href="#DejaVuSans-57" transform="translate(1010.140625 0)"/>
      <use xlink:href="#DejaVuSans-3" transform="translate(1049.34375 0)"/>
      <use xlink:href="#DejaVuSans-31" transform="translate(1081.125 0)"/>
      <use xlink:href="#DejaVuSans-3" transform="translate(1155.9375 0)"/>
      <use xlink:href="#DejaVuSans-20" transform="translate(1187.71875 0)"/>
      <use xlink:href="#DejaVuSans-3" transform="translate(1271.515625 0)"/>
      <use xlink:href="#DejaVuSans-14" transform="translate(1303.296875 0)"/>
      <use xlink:href="#DejaVuSans-13" transform="translate(1366.921875 0)"/>
      <use xlink:href="#DejaVuSans-13" transform="translate(1430.546875 0)"/>
      <use xlink:href="#DejaVuSans-c" transform="translate(1494.171875 0)"/>
     </g>
    </g>
   </g>
   <g id="matplotlib.axis_2">
    <g id="ytick_1">
     <g id="line2d_7">
      <defs>
       <path id="m404ba87491" d="M 0 0 
L -3.5 0 
" style="stroke: #000000; stroke-width: 0.8"/>
      </defs>
      <g>
       <use xlink:href="#m404ba87491" x="47.962344" y="309.774388" style="stroke: #000000; stroke-width: 0.8"/>
      </g>
     </g>
     <g id="text_8">
      <!-- 0.0 -->
      <g transform="translate(25.059219 313.573216) scale(0.1 -0.1)">
       <defs>
        <path id="DejaVuSans-11" d="M 684 794 
L 1344 794 
L 1344 0 
L 684 0 
L 684 794 
z
" transform="scale(0.015625)"/>
       </defs>
       <use xlink:href="#DejaVuSans-13"/>
       <use xlink:href="#DejaVuSans-11" transform="translate(63.625 0)"/>
       <use xlink:href="#DejaVuSans-13" transform="translate(95.40625 0)"/>
      </g>
     </g>
    </g>
    <g id="ytick_2">
     <g id="line2d_8">
      <g>
       <use xlink:href="#m404ba87491" x="47.962344" y="255.7526" style="stroke: #000000; stroke-width: 0.8"/>
      </g>
     </g>
     <g id="text_9">
      <!-- 0.2 -->
      <g transform="translate(25.059219 259.551428) scale(0.1 -0.1)">
       <use xlink:href="#DejaVuSans-13"/>
       <use xlink:href="#DejaVuSans-11" transform="translate(63.625 0)"/>
       <use xlink:href="#DejaVuSans-15" transform="translate(95.40625 0)"/>
      </g>
     </g>
    </g>
    <g id="ytick_3">
     <g id="line2d_9">
      <g>
       <use xlink:href="#m404ba87491" x="47.962344" y="201.730812" style="stroke: #000000; stroke-width: 0.8"/>
      </g>
     </g>
     <g id="text_10">
      <!-- 0.4 -->
      <g transform="translate(25.059219 205.52964) scale(0.1 -0.1)">
       <use xlink:href="#DejaVuSans-13"/>
       <use xlink:href="#DejaVuSans-11" transform="translate(63.625 0)"/>
       <use xlink:href="#DejaVuSans-17" transform="translate(95.40625 0)"/>
      </g>
     </g>
    </g>
    <g id="ytick_4">
     <g id="line2d_10">
      <g>
       <use xlink:href="#m404ba87491" x="47.962344" y="147.709023" style="stroke: #000000; stroke-width: 0.8"/>
      </g>
     </g>
     <g id="text_11">
      <!-- 0.6 -->
      <g transform="translate(25.059219 151.507852) scale(0.1 -0.1)">
       <use xlink:href="#DejaVuSans-13"/>
       <use xlink:href="#DejaVuSans-11" transform="translate(63.625 0)"/>
       <use xlink:href="#DejaVuSans-19" transform="translate(95.40625 0)"/>
      </g>
     </g>
    </g>
    <g id="ytick_5">
     <g id="line2d_11">
      <g>
       <use xlink:href="#m404ba87491" x="47.962344" y="93.687235" style="stroke: #000000; stroke-width: 0.8"/>
      </g>
     </g>
     <g id="text_12">
      <!-- 0.8 -->
      <g transform="translate(25.059219 97.486063) scale(0.1 -0.1)">
       <use xlink:href="#DejaVuSans-13"/>
       <use xlink:href="#DejaVuSans-11" transform="translate(63.625 0)"/>
       <use xlink:href="#DejaVuSans-1b" transform="translate(95.40625 0)"/>
      </g>
     </g>
    </g>
    <g id="ytick_6">
     <g id="line2d_12">
      <g>
       <use xlink:href="#m404ba87491" x="47.962344" y="39.665447" style="stroke: #000000; stroke-width: 0.8"/>
      </g>
     </g>
     <g id="text_13">
      <!-- 1.0 -->
      <g transform="translate(25.059219 43.464275) scale(0.1 -0.1)">
       <use xlink:href="#DejaVuSans-14"/>
       <use xlink:href="#DejaVuSans-11" transform="translate(63.625 0)"/>
       <use xlink:href="#DejaVuSans-13" transform="translate(95.40625 0)"/>
      </g>
     </g>
    </g>
    <g id="text_14">
     <!-- ruin probability -->
     <g transform="translate(18.656875 210.068047) rotate(-90) scale(0.1 -0.1)">
      <defs>
       <path id="DejaVuSans-58" d="M 544 1381 
L 544 3500 
L 1119 3500 
L 1119 1403 
Q 1119 906 1312 657 
Q 1506 409 1894 409 
Q 2359 409 2629 706 
Q 2900 1003 2900 1516 
L 2900 3500 
L 3475 3500 
L 3475 0 
L 2900 0 
L 2900 538 
Q 2691 219 2414 64 
Q 2138 -91 1772 -91 
Q 1169 -91 856 284 
Q 544 659 544 1381 
z
M 1991 3584 
L 1991 3584 
z
" transform="scale(0.015625)"/>
       <path id="DejaVuSans-45" d="M 3116 1747 
Q 3116 2381 2855 2742 
Q 2594 3103 2138 3103 
Q 1681 3103 1420 2742 
Q 1159 2381 1159 1747 
Q 1159 1113 1420 752 
Q 1681 391 2138 391 
Q 2594 391 2855 752 
Q 3116 1113 3116 1747 
z
M 1159 2969 
Q 1341 3281 1617 3432 
Q 1894 3584 2278 3584 
Q 2916 3584 3314 3078 
Q 3713 2572 3713 1747 
Q 3713 922 3314 415 
Q 2916 -91 2278 -91 
Q 1894 -91 1617 61 
Q 1341 213 1159 525 
L 1159 0 
L 581 0 
L 581 4863 
L 1159 4863 
L 1159 2969 
z
" transform="scale(0.015625)"/>
       <path id="DejaVuSans-5c" d="M 2059 -325 
Q 1816 -950 1584 -1140 
Q 1353 -1331 966 -1331 
L 506 -1331 
L 506 -850 
L 844 -850 
Q 1081 -850 1212 -737 
Q 1344 -625 1503 -206 
L 1606 56 
L 191 3500 
L 800 3500 
L 1894 763 
L 2988 3500 
L 3597 3500 
L 2059 -325 
z
" transform="scale(0.015625)"/>
      </defs>
      <use xlink:href="#DejaVuSans-55"/>
      <use xlink:href="#DejaVuSans-58" transform="translate(41.109375 0)"/>
      <use xlink:href="#DejaVuSans-4c" transform="translate(104.484375 0)"/>
      <use xlink:href="#DejaVuSans-51" transform="translate(132.265625 0)"/>
      <use xlink:href="#DejaVuSans-3" transform="translate(195.640625 0)"/>
      <use xlink:href="#DejaVuSans-53" transform="translate(227.421875 0)"/>
      <use xlink:href="#DejaVuSans-55" transform="translate(290.90625 0)"/>
      <use xlink:href="#DejaVuSans-52" transform="translate(329.8125 0)"/>
      <use xlink:href="#DejaVuSans-45" transform="translate(391 0)"/>
      <use xlink:href="#DejaVuSans-44" transform="translate(454.484375 0)"/>
      <use xlink:href="#DejaVuSans-45" transform="translate(515.765625 0)"/>
      <use xlink:href="#DejaVuSans-4c" transform="translate(579.25 0)"/>
      <use xlink:href="#DejaVuSans-4f" transform="translate(607.03125 0)"/>
      <use xlink:href="#DejaVuSans-4c" transform="translate(634.8125 0)"/>
      <use xlink:href="#DejaVuSans-57" transform="translate(662.59375 0)"/>
      <use xlink:href="#DejaVuSans-5c" transform="translate(701.796875 0)"/>
     </g>
    </g>
   </g>
   <g id="line2d_13">
    <path d="M 71.473146 39.665447 
L 76.175307 42.366536 
L 80.877467 45.067626 
L 85.579628 47.768715 
L 90.281788 50.469805 
L 94.983949 53.170894 
L 99.686109 55.871984 
L 104.38827 58.573073 
L 109.09043 61.274162 
L 113.792591 63.975252 
L 118.494751 66.676341 
L 123.196912 69.377431 
L 127.899072 72.07852 
L 132.601233 74.779609 
L 137.303393 77.480699 
L 142.005554 80.181788 
L 146.707714 82.882878 
L 151.409875 85.583967 
L 156.112036 88.285056 
L 160.814196 90.986146 
L 165.516357 93.687235 
L 170.218517 96.388325 
L 174.920678 99.089414 
L 179.622838 101.790503 
L 184.324999 104.491593 
L 189.027159 107.192682 
L 193.72932 109.893772 
L 198.43148 112.594861 
L 203.133641 115.295951 
L 207.835801 117.99704 
L 212.537962 120.698129 
L 217.240122 123.399219 
L 221.942283 126.100308 
L 226.644443 128.801398 
L 231.346604 131.502487 
L 236.048764 134.203576 
L 240.750925 136.904666 
L 245.453085 139.605755 
L 250.155246 142.306845 
L 254.857406 145.007934 
L 259.559567 147.709023 
L 264.261727 150.410113 
L 268.963888 153.111202 
L 273.666048 155.812292 
L 278.368209 158.513381 
L 283.070369 161.21447 
L 287.77253 163.91556 
L 292.47469 166.616649 
L 297.176851 169.317739 
L 301.879011 172.018828 
L 306.581172 174.719918 
L 311.283332 177.421007 
L 315.985493 180.122096 
L 320.687653 182.823186 
L 325.389814 185.524275 
L 330.091974 188.225365 
L 334.794135 190.926454 
L 339.496295 193.627543 
L 344.198456 196.328633 
L 348.900616 199.029722 
L 353.602777 201.730812 
L 358.304937 204.431901 
L 363.007098 207.13299 
L 367.709259 209.83408 
L 372.411419 212.535169 
L 377.11358 215.236259 
L 381.81574 217.937348 
L 386.517901 220.638438 
L 391.220061 223.339527 
L 395.922222 226.040616 
L 400.624382 228.741706 
L 405.326543 231.442795 
L 410.028703 234.143885 
L 414.730864 236.844974 
L 419.433024 239.546063 
L 424.135185 242.247153 
L 428.837345 244.948242 
L 433.539506 247.649332 
L 438.241666 250.350421 
L 442.943827 253.05151 
L 447.645987 255.7526 
L 452.348148 258.453689 
L 457.050308 261.154779 
L 461.752469 263.855868 
L 466.454629 266.556957 
L 471.15679 269.258047 
L 475.85895 271.959136 
L 480.561111 274.660226 
L 485.263271 277.361315 
L 489.965432 280.062405 
L 494.667592 282.763494 
L 499.369753 285.464583 
L 504.071913 288.165673 
L 508.774074 290.866762 
L 513.476234 293.567852 
L 518.178395 296.268941 
L 522.880555 298.97003 
L 527.582716 301.67112 
L 532.284876 304.372209 
L 536.987037 307.073299 
L 541.689197 309.774388 
" clip-path="url(#p05962675e2)" style="fill: none; stroke: #2b6cb0; stroke-width: 2.2; stroke-linecap: square"/>
   </g>
   <g id="line2d_14">
    <path d="M 71.473146 39.665447 
L 76.175307 39.666244 
L 80.877467 39.66713 
L 85.579628 39.668114 
L 90.281788 39.669208 
L 94.983949 39.670423 
L 99.686109 39.671773 
L 104.38827 39.673273 
L 109.09043 39.67494 
L 113.792591 39.676791 
L 118.494751 39.678849 
L 123.196912 39.681135 
L 127.899072 39.683676 
L 132.601233 39.686498 
L 137.303393 39.689635 
L 142.005554 39.693119 
L 146.707714 39.696991 
L 151.409875 39.701293 
L 156.112036 39.706073 
L 160.814196 39.711385 
L 165.516357 39.717286 
L 170.218517 39.723843 
L 174.920678 39.731129 
L 179.622838 39.739224 
L 184.324999 39.748218 
L 189.027159 39.758212 
L 193.72932 39.769317 
L 198.43148 39.781655 
L 203.133641 39.795364 
L 207.835801 39.810597 
L 212.537962 39.827521 
L 217.240122 39.846327 
L 221.942283 39.867222 
L 226.644443 39.890438 
L 231.346604 39.916235 
L 236.048764 39.944897 
L 240.750925 39.976744 
L 245.453085 40.01213 
L 250.155246 40.051448 
L 254.857406 40.095134 
L 259.559567 40.143674 
L 264.261727 40.197607 
L 268.963888 40.257533 
L 273.666048 40.324118 
L 278.368209 40.398101 
L 283.070369 40.480304 
L 287.77253 40.571641 
L 292.47469 40.673126 
L 297.176851 40.785888 
L 301.879011 40.911178 
L 306.581172 41.05039 
L 311.283332 41.20507 
L 315.985493 41.376936 
L 320.687653 41.567899 
L 325.389814 41.78008 
L 330.091974 42.015836 
L 334.794135 42.277788 
L 339.496295 42.568845 
L 344.198456 42.892242 
L 348.900616 43.251572 
L 353.602777 43.650827 
L 358.304937 44.094444 
L 363.007098 44.587352 
L 367.709259 45.135028 
L 372.411419 45.743556 
L 377.11358 46.419699 
L 381.81574 47.170968 
L 386.517901 48.005712 
L 391.220061 48.933206 
L 395.922222 49.963754 
L 400.624382 51.108807 
L 405.326543 52.381089 
L 410.028703 53.794735 
L 414.730864 55.365453 
L 419.433024 57.110696 
L 424.135185 59.049854 
L 428.837345 61.204474 
L 433.539506 63.598497 
L 438.241666 66.258521 
L 442.943827 69.214105 
L 447.645987 72.498086 
L 452.348148 76.146954 
L 457.050308 80.201252 
L 461.752469 84.706028 
L 466.454629 89.711334 
L 471.15679 95.272785 
L 475.85895 101.452176 
L 480.561111 108.318165 
L 485.263271 115.947042 
L 489.965432 124.423572 
L 494.667592 133.841938 
L 499.369753 144.30679 
L 504.071913 155.934403 
L 508.774074 168.853973 
L 513.476234 183.209051 
L 518.178395 199.159138 
L 522.880555 216.881456 
L 527.582716 236.572921 
L 532.284876 258.452326 
L 536.987037 282.762776 
L 541.689197 309.774388 
" clip-path="url(#p05962675e2)" style="fill: none; stroke: #c0392b; stroke-width: 2.2; stroke-linecap: square"/>
   </g>
   <g id="patch_3">
    <path d="M 47.962344 317.877656 
L 47.962344 26.16 
" style="fill: none; stroke: #000000; stroke-width: 0.8; stroke-linejoin: miter; stroke-linecap: square"/>
   </g>
   <g id="patch_4">
    <path d="M 565.2 317.877656 
L 565.2 26.16 
" style="fill: none; stroke: #000000; stroke-width: 0.8; stroke-linejoin: miter; stroke-linecap: square"/>
   </g>
   <g id="patch_5">
    <path d="M 47.962344 317.877656 
L 565.2 317.877656 
" style="fill: none; stroke: #000000; stroke-width: 0.8; stroke-linejoin: miter; stroke-linecap: square"/>
   </g>
   <g id="patch_6">
    <path d="M 47.962344 26.16 
L 565.2 26.16 
" style="fill: none; stroke: #000000; stroke-width: 0.8; stroke-linejoin: miter; stroke-linecap: square"/>
   </g>
   <g id="text_15">
    <!-- Ruin probability vs starting capital: fair vs house-edge game -->
    <g transform="translate(125.160859 20.16) scale(0.12 -0.12)">
     <defs>
      <path id="DejaVuSans-35" d="M 2841 2188 
Q 3044 2119 3236 1894 
Q 3428 1669 3622 1275 
L 4263 0 
L 3584 0 
L 2988 1197 
Q 2756 1666 2539 1819 
Q 2322 1972 1947 1972 
L 1259 1972 
L 1259 0 
L 628 0 
L 628 4666 
L 2053 4666 
Q 2853 4666 3247 4331 
Q 3641 3997 3641 3322 
Q 3641 2881 3436 2590 
Q 3231 2300 2841 2188 
z
M 1259 4147 
L 1259 2491 
L 2053 2491 
Q 2509 2491 2742 2702 
Q 2975 2913 2975 3322 
Q 2975 3731 2742 3939 
Q 2509 4147 2053 4147 
L 1259 4147 
z
" transform="scale(0.015625)"/>
      <path id="DejaVuSans-59" d="M 191 3500 
L 800 3500 
L 1894 563 
L 2988 3500 
L 3597 3500 
L 2284 0 
L 1503 0 
L 191 3500 
z
" transform="scale(0.015625)"/>
      <path id="DejaVuSans-1d" d="M 750 794 
L 1409 794 
L 1409 0 
L 750 0 
L 750 794 
z
M 750 3309 
L 1409 3309 
L 1409 2516 
L 750 2516 
L 750 3309 
z
" transform="scale(0.015625)"/>
      <path id="DejaVuSans-49" d="M 2375 4863 
L 2375 4384 
L 1825 4384 
Q 1516 4384 1395 4259 
Q 1275 4134 1275 3809 
L 1275 3500 
L 2222 3500 
L 2222 3053 
L 1275 3053 
L 1275 0 
L 697 0 
L 697 3053 
L 147 3053 
L 147 3500 
L 697 3500 
L 697 3744 
Q 697 4328 969 4595 
Q 1241 4863 1831 4863 
L 2375 4863 
z
" transform="scale(0.015625)"/>
      <path id="DejaVuSans-4b" d="M 3513 2113 
L 3513 0 
L 2938 0 
L 2938 2094 
Q 2938 2591 2744 2837 
Q 2550 3084 2163 3084 
Q 1697 3084 1428 2787 
Q 1159 2491 1159 1978 
L 1159 0 
L 581 0 
L 581 4863 
L 1159 4863 
L 1159 2956 
Q 1366 3272 1645 3428 
Q 1925 3584 2291 3584 
Q 2894 3584 3203 3211 
Q 3513 2838 3513 2113 
z
" transform="scale(0.015625)"/>
      <path id="DejaVuSans-48" d="M 3597 1894 
L 3597 1613 
L 953 1613 
Q 991 1019 1311 708 
Q 1631 397 2203 397 
Q 2534 397 2845 478 
Q 3156 559 3463 722 
L 3463 178 
Q 3153 47 2828 -22 
Q 2503 -91 2169 -91 
Q 1331 -91 842 396 
Q 353 884 353 1716 
Q 353 2575 817 3079 
Q 1281 3584 2069 3584 
Q 2775 3584 3186 3129 
Q 3597 2675 3597 1894 
z
M 3022 2063 
Q 3016 2534 2758 2815 
Q 2500 3097 2075 3097 
Q 1594 3097 1305 2825 
Q 1016 2553 972 2059 
L 3022 2063 
z
" transform="scale(0.015625)"/>
      <path id="DejaVuSans-10" d="M 313 2009 
L 1997 2009 
L 1997 1497 
L 313 1497 
L 313 2009 
z
" transform="scale(0.015625)"/>
      <path id="DejaVuSans-47" d="M 2906 2969 
L 2906 4863 
L 3481 4863 
L 3481 0 
L 2906 0 
L 2906 525 
Q 2725 213 2448 61 
Q 2172 -91 1784 -91 
Q 1150 -91 751 415 
Q 353 922 353 1747 
Q 353 2572 751 3078 
Q 1150 3584 1784 3584 
Q 2172 3584 2448 3432 
Q 2725 3281 2906 2969 
z
M 947 1747 
Q 947 1113 1208 752 
Q 1469 391 1925 391 
Q 2381 391 2643 752 
Q 2906 1113 2906 1747 
Q 2906 2381 2643 2742 
Q 2381 3103 1925 3103 
Q 1469 3103 1208 2742 
Q 947 2381 947 1747 
z
" transform="scale(0.015625)"/>
      <path id="DejaVuSans-50" d="M 3328 2828 
Q 3544 3216 3844 3400 
Q 4144 3584 4550 3584 
Q 5097 3584 5394 3201 
Q 5691 2819 5691 2113 
L 5691 0 
L 5113 0 
L 5113 2094 
Q 5113 2597 4934 2840 
Q 4756 3084 4391 3084 
Q 3944 3084 3684 2787 
Q 3425 2491 3425 1978 
L 3425 0 
L 2847 0 
L 2847 2094 
Q 2847 2600 2669 2842 
Q 2491 3084 2119 3084 
Q 1678 3084 1418 2786 
Q 1159 2488 1159 1978 
L 1159 0 
L 581 0 
L 581 3500 
L 1159 3500 
L 1159 2956 
Q 1356 3278 1631 3431 
Q 1906 3584 2284 3584 
Q 2666 3584 2933 3390 
Q 3200 3197 3328 2828 
z
" transform="scale(0.015625)"/>
     </defs>
     <use xlink:href="#DejaVuSans-35"/>
     <use xlink:href="#DejaVuSans-58" transform="translate(65 0)"/>
     <use xlink:href="#DejaVuSans-4c" transform="translate(128.375 0)"/>
     <use xlink:href="#DejaVuSans-51" transform="translate(156.15625 0)"/>
     <use xlink:href="#DejaVuSans-3" transform="translate(219.53125 0)"/>
     <use xlink:href="#DejaVuSans-53" transform="translate(251.3125 0)"/>
     <use xlink:href="#DejaVuSans-55" transform="translate(314.796875 0)"/>
     <use xlink:href="#DejaVuSans-52" transform="translate(353.703125 0)"/>
     <use xlink:href="#DejaVuSans-45" transform="translate(414.890625 0)"/>
     <use xlink:href="#DejaVuSans-44" transform="translate(478.375 0)"/>
     <use xlink:href="#DejaVuSans-45" transform="translate(539.65625 0)"/>
     <use xlink:href="#DejaVuSans-4c" transform="translate(603.140625 0)"/>
     <use xlink:href="#DejaVuSans-4f" transform="translate(630.921875 0)"/>
     <use xlink:href="#DejaVuSans-4c" transform="translate(658.703125 0)"/>
     <use xlink:href="#DejaVuSans-57" transform="translate(686.484375 0)"/>
     <use xlink:href="#DejaVuSans-5c" transform="translate(725.6875 0)"/>
     <use xlink:href="#DejaVuSans-3" transform="translate(784.875 0)"/>
     <use xlink:href="#DejaVuSans-59" transform="translate(816.65625 0)"/>
     <use xlink:href="#DejaVuSans-56" transform="translate(875.84375 0)"/>
     <use xlink:href="#DejaVuSans-3" transform="translate(927.9375 0)"/>
     <use xlink:href="#DejaVuSans-56" transform="translate(959.71875 0)"/>
     <use xlink:href="#DejaVuSans-57" transform="translate(1011.8125 0)"/>
     <use xlink:href="#DejaVuSans-44" transform="translate(1051.015625 0)"/>
     <use xlink:href="#DejaVuSans-55" transform="translate(1112.296875 0)"/>
     <use xlink:href="#DejaVuSans-57" transform="translate(1153.40625 0)"/>
     <use xlink:href="#DejaVuSans-4c" transform="translate(1192.609375 0)"/>
     <use xlink:href="#DejaVuSans-51" transform="translate(1220.390625 0)"/>
     <use xlink:href="#DejaVuSans-4a" transform="translate(1283.765625 0)"/>
     <use xlink:href="#DejaVuSans-3" transform="translate(1347.25 0)"/>
     <use xlink:href="#DejaVuSans-46" transform="translate(1379.03125 0)"/>
     <use xlink:href="#DejaVuSans-44" transform="translate(1434.015625 0)"/>
     <use xlink:href="#DejaVuSans-53" transform="translate(1495.296875 0)"/>
     <use xlink:href="#DejaVuSans-4c" transform="translate(1558.78125 0)"/>
     <use xlink:href="#DejaVuSans-57" transform="translate(1586.5625 0)"/>
     <use xlink:href="#DejaVuSans-44" transform="translate(1625.765625 0)"/>
     <use xlink:href="#DejaVuSans-4f" transform="translate(1687.046875 0)"/>
     <use xlink:href="#DejaVuSans-1d" transform="translate(1714.828125 0)"/>
     <use xlink:href="#DejaVuSans-3" transform="translate(1748.515625 0)"/>
     <use xlink:href="#DejaVuSans-49" transform="translate(1780.296875 0)"/>
     <use xlink:href="#DejaVuSans-44" transform="translate(1815.5 0)"/>
     <use xlink:href="#DejaVuSans-4c" transform="translate(1876.78125 0)"/>
     <use xlink:href="#DejaVuSans-55" transform="translate(1904.5625 0)"/>
     <use xlink:href="#DejaVuSans-3" transform="translate(1945.671875 0)"/>
     <use xlink:href="#DejaVuSans-59" transform="translate(1977.453125 0)"/>
     <use xlink:href="#DejaVuSans-56" transform="translate(2036.640625 0)"/>
     <use xlink:href="#DejaVuSans-3" transform="translate(2088.734375 0)"/>
     <use xlink:href="#DejaVuSans-4b" transform="translate(2120.515625 0)"/>
     <use xlink:href="#DejaVuSans-52" transform="translate(2183.890625 0)"/>
     <use xlink:href="#DejaVuSans-58" transform="translate(2245.078125 0)"/>
     <use xlink:href="#DejaVuSans-56" transform="translate(2308.453125 0)"/>
     <use xlink:href="#DejaVuSans-48" transform="translate(2360.546875 0)"/>
     <use xlink:href="#DejaVuSans-10" transform="translate(2422.078125 0)"/>
     <use xlink:href="#DejaVuSans-48" transform="translate(2458.15625 0)"/>
     <use xlink:href="#DejaVuSans-47" transform="translate(2519.6875 0)"/>
     <use xlink:href="#DejaVuSans-4a" transform="translate(2583.171875 0)"/>
     <use xlink:href="#DejaVuSans-48" transform="translate(2646.65625 0)"/>
     <use xlink:href="#DejaVuSans-3" transform="translate(2708.1875 0)"/>
     <use xlink:href="#DejaVuSans-4a" transform="translate(2739.96875 0)"/>
     <use xlink:href="#DejaVuSans-44" transform="translate(2803.453125 0)"/>
     <use xlink:href="#DejaVuSans-50" transform="translate(2864.734375 0)"/>
     <use xlink:href="#DejaVuSans-48" transform="translate(2962.140625 0)"/>
    </g>
   </g>
   <g id="legend_1">
    <g id="patch_7">
     <path d="M 54.262344 186.869531 
L 299.249375 186.869531 
Q 301.049375 186.869531 301.049375 185.069531 
L 301.049375 158.968125 
Q 301.049375 157.168125 299.249375 157.168125 
L 54.262344 157.168125 
Q 52.462344 157.168125 52.462344 158.968125 
L 52.462344 185.069531 
Q 52.462344 186.869531 54.262344 186.869531 
z
" style="fill: #ffffff; opacity: 0.8; stroke: #cccccc; stroke-linejoin: miter"/>
    </g>
    <g id="line2d_15">
     <path d="M 56.062344 164.456719 
L 65.062344 164.456719 
L 74.062344 164.456719 
" style="fill: none; stroke: #2b6cb0; stroke-width: 2.2; stroke-linecap: square"/>
    </g>
    <g id="text_16">
     <!-- fair game, p = q = 1/2 (straight line) -->
     <g transform="translate(81.262344 167.606719) scale(0.09 -0.09)">
      <defs>
       <path id="DejaVuSans-f" d="M 750 794 
L 1409 794 
L 1409 256 
L 897 -744 
L 494 -744 
L 750 256 
L 750 794 
z
" transform="scale(0.015625)"/>
       <path id="DejaVuSans-54" d="M 947 1747 
Q 947 1113 1208 752 
Q 1469 391 1925 391 
Q 2381 391 2643 752 
Q 2906 1113 2906 1747 
Q 2906 2381 2643 2742 
Q 2381 3103 1925 3103 
Q 1469 3103 1208 2742 
Q 947 2381 947 1747 
z
M 2906 525 
Q 2725 213 2448 61 
Q 2172 -91 1784 -91 
Q 1150 -91 751 415 
Q 353 922 353 1747 
Q 353 2572 751 3078 
Q 1150 3584 1784 3584 
Q 2172 3584 2448 3432 
Q 2725 3281 2906 2969 
L 2906 3500 
L 3481 3500 
L 3481 -1331 
L 2906 -1331 
L 2906 525 
z
" transform="scale(0.015625)"/>
       <path id="DejaVuSans-12" d="M 1625 4666 
L 2156 4666 
L 531 -594 
L 0 -594 
L 1625 4666 
z
" transform="scale(0.015625)"/>
      </defs>
      <use xlink:href="#DejaVuSans-49"/>
      <use xlink:href="#DejaVuSans-44" transform="translate(35.203125 0)"/>
      <use xlink:href="#DejaVuSans-4c" transform="translate(96.484375 0)"/>
      <use xlink:href="#DejaVuSans-55" transform="translate(124.265625 0)"/>
      <use xlink:href="#DejaVuSans-3" transform="translate(165.375 0)"/>
      <use xlink:href="#DejaVuSans-4a" transform="translate(197.15625 0)"/>
      <use xlink:href="#DejaVuSans-44" transform="translate(260.640625 0)"/>
      <use xlink:href="#DejaVuSans-50" transform="translate(321.921875 0)"/>
      <use xlink:href="#DejaVuSans-48" transform="translate(419.328125 0)"/>
      <use xlink:href="#DejaVuSans-f" transform="translate(480.859375 0)"/>
      <use xlink:href="#DejaVuSans-3" transform="translate(512.640625 0)"/>
      <use xlink:href="#DejaVuSans-53" transform="translate(544.421875 0)"/>
      <use xlink:href="#DejaVuSans-3" transform="translate(607.90625 0)"/>
      <use xlink:href="#DejaVuSans-20" transform="translate(639.6875 0)"/>
      <use xlink:href="#DejaVuSans-3" transform="translate(723.484375 0)"/>
      <use xlink:href="#DejaVuSans-54" transform="translate(755.265625 0)"/>
      <use xlink:href="#DejaVuSans-3" transform="translate(818.75 0)"/>
      <use xlink:href="#DejaVuSans-20" transform="translate(850.53125 0)"/>
      <use xlink:href="#DejaVuSans-3" transform="translate(934.328125 0)"/>
      <use xlink:href="#DejaVuSans-14" transform="translate(966.109375 0)"/>
      <use xlink:href="#DejaVuSans-12" transform="translate(1029.734375 0)"/>
      <use xlink:href="#DejaVuSans-15" transform="translate(1063.421875 0)"/>
      <use xlink:href="#DejaVuSans-3" transform="translate(1127.046875 0)"/>
      <use xlink:href="#DejaVuSans-b" transform="translate(1158.828125 0)"/>
      <use xlink:href="#DejaVuSans-56" transform="translate(1197.84375 0)"/>
      <use xlink:href="#DejaVuSans-57" transform="translate(1249.9375 0)"/>
      <use xlink:href="#DejaVuSans-55" transform="translate(1289.140625 0)"/>
      <use xlink:href="#DejaVuSans-44" transform="translate(1330.25 0)"/>
      <use xlink:href="#DejaVuSans-4c" transform="translate(1391.53125 0)"/>
      <use xlink:href="#DejaVuSans-4a" transform="translate(1419.3125 0)"/>
      <use xlink:href="#DejaVuSans-4b" transform="translate(1482.796875 0)"/>
      <use xlink:href="#DejaVuSans-57" transform="translate(1546.171875 0)"/>
      <use xlink:href="#DejaVuSans-3" transform="translate(1585.375 0)"/>
      <use xlink:href="#DejaVuSans-4f" transform="translate(1617.15625 0)"/>
      <use xlink:href="#DejaVuSans-4c" transform="translate(1644.9375 0)"/>
      <use xlink:href="#DejaVuSans-51" transform="translate(1672.71875 0)"/>
      <use xlink:href="#DejaVuSans-48" transform="translate(1736.09375 0)"/>
      <use xlink:href="#DejaVuSans-c" transform="translate(1797.625 0)"/>
     </g>
    </g>
    <g id="line2d_16">
     <path d="M 56.062344 177.957422 
L 65.062344 177.957422 
L 74.062344 177.957422 
" style="fill: none; stroke: #c0392b; stroke-width: 2.2; stroke-linecap: square"/>
    </g>
    <g id="text_17">
     <!-- American roulette, p = 18/38 (curves back to 1) -->
     <g transform="translate(81.262344 181.107422) scale(0.09 -0.09)">
      <defs>
       <path id="DejaVuSans-24" d="M 2188 4044 
L 1331 1722 
L 3047 1722 
L 2188 4044 
z
M 1831 4666 
L 2547 4666 
L 4325 0 
L 3669 0 
L 3244 1197 
L 1141 1197 
L 716 0 
L 50 0 
L 1831 4666 
z
" transform="scale(0.015625)"/>
       <path id="DejaVuSans-16" d="M 2597 2516 
Q 3050 2419 3304 2112 
Q 3559 1806 3559 1356 
Q 3559 666 3084 287 
Q 2609 -91 1734 -91 
Q 1441 -91 1130 -33 
Q 819 25 488 141 
L 488 750 
Q 750 597 1062 519 
Q 1375 441 1716 441 
Q 2309 441 2620 675 
Q 2931 909 2931 1356 
Q 2931 1769 2642 2001 
Q 2353 2234 1838 2234 
L 1294 2234 
L 1294 2753 
L 1863 2753 
Q 2328 2753 2575 2939 
Q 2822 3125 2822 3475 
Q 2822 3834 2567 4026 
Q 2313 4219 1838 4219 
Q 1578 4219 1281 4162 
Q 984 4106 628 3988 
L 628 4550 
Q 988 4650 1302 4700 
Q 1616 4750 1894 4750 
Q 2613 4750 3031 4423 
Q 3450 4097 3450 3541 
Q 3450 3153 3228 2886 
Q 3006 2619 2597 2516 
z
" transform="scale(0.015625)"/>
       <path id="DejaVuSans-4e" d="M 581 4863 
L 1159 4863 
L 1159 1991 
L 2875 3500 
L 3609 3500 
L 1753 1863 
L 3688 0 
L 2938 0 
L 1159 1709 
L 1159 0 
L 581 0 
L 581 4863 
z
" transform="scale(0.015625)"/>
      </defs>
      <use xlink:href="#DejaVuSans-24"/>
      <use xlink:href="#DejaVuSans-50" transform="translate(68.40625 0)"/>
      <use xlink:href="#DejaVuSans-48" transform="translate(165.8125 0)"/>
      <use xlink:href="#DejaVuSans-55" transform="translate(227.34375 0)"/>
      <use xlink:href="#DejaVuSans-4c" transform="translate(268.453125 0)"/>
      <use xlink:href="#DejaVuSans-46" transform="translate(296.234375 0)"/>
      <use xlink:href="#DejaVuSans-44" transform="translate(351.21875 0)"/>
      <use xlink:href="#DejaVuSans-51" transform="translate(412.5 0)"/>
      <use xlink:href="#DejaVuSans-3" transform="translate(475.875 0)"/>
      <use xlink:href="#DejaVuSans-55" transform="translate(507.65625 0)"/>
      <use xlink:href="#DejaVuSans-52" transform="translate(546.5625 0)"/>
      <use xlink:href="#DejaVuSans-58" transform="translate(607.75 0)"/>
      <use xlink:href="#DejaVuSans-4f" transform="translate(671.125 0)"/>
      <use xlink:href="#DejaVuSans-48" transform="translate(698.90625 0)"/>
      <use xlink:href="#DejaVuSans-57" transform="translate(760.4375 0)"/>
      <use xlink:href="#DejaVuSans-57" transform="translate(799.640625 0)"/>
      <use xlink:href="#DejaVuSans-48" transform="translate(838.84375 0)"/>
      <use xlink:href="#DejaVuSans-f" transform="translate(900.375 0)"/>
      <use xlink:href="#DejaVuSans-3" transform="translate(932.15625 0)"/>
      <use xlink:href="#DejaVuSans-53" transform="translate(963.9375 0)"/>
      <use xlink:href="#DejaVuSans-3" transform="translate(1027.421875 0)"/>
      <use xlink:href="#DejaVuSans-20" transform="translate(1059.203125 0)"/>
      <use xlink:href="#DejaVuSans-3" transform="translate(1143 0)"/>
      <use xlink:href="#DejaVuSans-14" transform="translate(1174.78125 0)"/>
      <use xlink:href="#DejaVuSans-1b" transform="translate(1238.40625 0)"/>
      <use xlink:href="#DejaVuSans-12" transform="translate(1302.03125 0)"/>
      <use xlink:href="#DejaVuSans-16" transform="translate(1335.71875 0)"/>
      <use xlink:href="#DejaVuSans-1b" transform="translate(1399.34375 0)"/>
      <use xlink:href="#DejaVuSans-3" transform="translate(1462.96875 0)"/>
      <use xlink:href="#DejaVuSans-b" transform="translate(1494.75 0)"/>
      <use xlink:href="#DejaVuSans-46" transform="translate(1533.765625 0)"/>
      <use xlink:href="#DejaVuSans-58" transform="translate(1588.75 0)"/>
      <use xlink:href="#DejaVuSans-55" transform="translate(1652.125 0)"/>
      <use xlink:href="#DejaVuSans-59" transform="translate(1693.234375 0)"/>
      <use xlink:href="#DejaVuSans-48" transform="translate(1752.421875 0)"/>
      <use xlink:href="#DejaVuSans-56" transform="translate(1813.953125 0)"/>
      <use xlink:href="#DejaVuSans-3" transform="translate(1866.046875 0)"/>
      <use xlink:href="#DejaVuSans-45" transform="translate(1897.828125 0)"/>
      <use xlink:href="#DejaVuSans-44" transform="translate(1961.3125 0)"/>
      <use xlink:href="#DejaVuSans-46" transform="translate(2022.59375 0)"/>
      <use xlink:href="#DejaVuSans-4e" transform="translate(2077.578125 0)"/>
      <use xlink:href="#DejaVuSans-3" transform="translate(2135.484375 0)"/>
      <use xlink:href="#DejaVuSans-57" transform="translate(2167.265625 0)"/>
      <use xlink:href="#DejaVuSans-52" transform="translate(2206.46875 0)"/>
      <use xlink:href="#DejaVuSans-3" transform="translate(2267.65625 0)"/>
      <use xlink:href="#DejaVuSans-14" transform="translate(2299.4375 0)"/>
      <use xlink:href="#DejaVuSans-c" transform="translate(2363.0625 0)"/>
     </g>
    </g>
   </g>
  </g>
 </g>
 <defs>
  <clipPath id="p05962675e2">
   <rect x="47.962344" y="26.16" width="517.237656" height="291.717656"/>
  </clipPath>
 </defs>
</svg>
