<?xml version="1.0" encoding="utf-8" standalone="no"?>
<!DOCTYPE svg PUBLIC "-//W3C//DTD SVG 1.1//EN"
  "http://www.w3.org/Graphics/SVG/1.1/DTD/svg11.dtd">
<svg xmlns:xlink="http://www.w3.org/1999/xlink" width="612pt" height="374.4pt" viewBox="0 0 612 374.4" xmlns="http://www.w3.org/2000/svg" version="1.1">
 <metadata>
  <rdf:RDF xmlns:dc="http://purl.org/dc/elements/1.1/" xmlns:cc="http://creativecommons.org/ns#" xmlns:rdf="http://www.w3.org/1999/02/22-rdf-syntax-ns#">
   <cc:Work>
    <dc:type rdf:resource="http://purl.org/dc/dcmitype/StillImage"/>
    <dc:date>2026-07-02T00:35:17.244475</dc:date>
    <dc:format>image/svg+xml</dc:format>
    <dc:creator>
     <cc:Agent>
      <dc:title>Matplotlib v3.11.0, https://matplotlib.org/</dc:title>
     </cc:Agent>
    </dc:creator>
   </cc:Work>
  </rdf:RDF>
 </metadata>
 <defs>
  <style type="text/css">*{stroke-linejoin: round; stroke-linecap: butt}</style>
 </defs>
 <g id="figure_1">
  <g id="patch_1">
   <path d="M 0 374.4 
L 612 374.4 
L 612 0 
L 0 0 
z
" style="fill: #ffffff"/>
  </g>
  <g id="axes_1">
   <g id="patch_2">
    <path d="M 54.442344 332.277656 
L 601.2 332.277656 
L 601.2 26.16 
L 54.442344 26.16 
z
" style="fill: #ffffff"/>
   </g>
   <g id="matplotlib.axis_1">
    <g id="xtick_1">
     <g id="line2d_1">
      <defs>
       <path id="ma1761e8f26" d="M 0 0 
L 0 3.5 
" style="stroke: #000000; stroke-width: 0.8"/>
      </defs>
      <g>
       <use xlink:href="#ma1761e8f26" x="54.442344" y="332.277656" style="stroke: #000000; stroke-width: 0.8"/>
      </g>
     </g>
     <g id="text_1">
      <!-- 0 -->
      <g transform="translate(51.261094 346.875313) scale(0.1 -0.1)">
       <defs>
        <path id="DejaVuSans-13" d="M 2034 4250 
Q 1547 4250 1301 3770 
Q 1056 3291 1056 2328 
Q 1056 1369 1301 889 
Q 1547 409 2034 409 
Q 2525 409 2770 889 
Q 3016 1369 3016 2328 
Q 3016 3291 2770 3770 
Q 2525 4250 2034 4250 
z
M 2034 4750 
Q 2819 4750 3233 4129 
Q 3647 3509 3647 2328 
Q 3647 1150 3233 529 
Q 2819 -91 2034 -91 
Q 1250 -91 836 529 
Q 422 1150 422 2328 
Q 422 3509 836 4129 
Q 1250 4750 2034 4750 
z
" transform="scale(0.015625)"/>
       </defs>
       <use xlink:href="#DejaVuSans-13"/>
      </g>
     </g>
    </g>
    <g id="xtick_2">
     <g id="line2d_2">
      <g>
       <use xlink:href="#ma1761e8f26" x="116.573896" y="332.277656" style="stroke: #000000; stroke-width: 0.8"/>
      </g>
     </g>
     <g id="text_2">
      <!-- 25 -->
      <g transform="translate(110.211396 346.875313) scale(0.1 -0.1)">
       <defs>
        <path id="DejaVuSans-15" d="M 1228 531 
L 3431 531 
L 3431 0 
L 469 0 
L 469 531 
Q 828 903 1448 1529 
Q 2069 2156 2228 2338 
Q 2531 2678 2651 2914 
Q 2772 3150 2772 3378 
Q 2772 3750 2511 3984 
Q 2250 4219 1831 4219 
Q 1534 4219 1204 4116 
Q 875 4013 500 3803 
L 500 4441 
Q 881 4594 1212 4672 
Q 1544 4750 1819 4750 
Q 2544 4750 2975 4387 
Q 3406 4025 3406 3419 
Q 3406 3131 3298 2873 
Q 3191 2616 2906 2266 
Q 2828 2175 2409 1742 
Q 1991 1309 1228 531 
z
" transform="scale(0.015625)"/>
        <path id="DejaVuSans-18" d="M 691 4666 
L 3169 4666 
L 3169 4134 
L 1269 4134 
L 1269 2991 
Q 1406 3038 1543 3061 
Q 1681 3084 1819 3084 
Q 2600 3084 3056 2656 
Q 3513 2228 3513 1497 
Q 3513 744 3044 326 
Q 2575 -91 1722 -91 
Q 1428 -91 1123 -41 
Q 819 9 494 109 
L 494 744 
Q 775 591 1075 516 
Q 1375 441 1709 441 
Q 2250 441 2565 725 
Q 2881 1009 2881 1497 
Q 2881 1984 2565 2268 
Q 2250 2553 1709 2553 
Q 1456 2553 1204 2497 
Q 953 2441 691 2322 
L 691 4666 
z
" transform="scale(0.015625)"/>
       </defs>
       <use xlink:href="#DejaVuSans-15"/>
       <use xlink:href="#DejaVuSans-18" transform="translate(63.625 0)"/>
      </g>
     </g>
    </g>
    <g id="xtick_3">
     <g id="line2d_3">
      <g>
       <use xlink:href="#ma1761e8f26" x="178.705447" y="332.277656" style="stroke: #000000; stroke-width: 0.8"/>
      </g>
     </g>
     <g id="text_3">
      <!-- 50 -->
      <g transform="translate(172.342947 346.875313) scale(0.1 -0.1)">
       <use xlink:href="#DejaVuSans-18"/>
       <use xlink:href="#DejaVuSans-13" transform="translate(63.625 0)"/>
      </g>
     </g>
    </g>
    <g id="xtick_4">
     <g id="line2d_4">
      <g>
       <use xlink:href="#ma1761e8f26" x="240.836999" y="332.277656" style="stroke: #000000; stroke-width: 0.8"/>
      </g>
     </g>
     <g id="text_4">
      <!-- 75 -->
      <g transform="translate(234.474499 346.875313) scale(0.1 -0.1)">
       <defs>
        <path id="DejaVuSans-1a" d="M 525 4666 
L 3525 4666 
L 3525 4397 
L 1831 0 
L 1172 0 
L 2766 4134 
L 525 4134 
L 525 4666 
z
" transform="scale(0.015625)"/>
       </defs>
       <use xlink:href="#DejaVuSans-1a"/>
       <use xlink:href="#DejaVuSans-18" transform="translate(63.625 0)"/>
      </g>
     </g>
    </g>
    <g id="xtick_5">
     <g id="line2d_5">
      <g>
       <use xlink:href="#ma1761e8f26" x="302.968551" y="332.277656" style="stroke: #000000; stroke-width: 0.8"/>
      </g>
     </g>
     <g id="text_5">
      <!-- 100 -->
      <g transform="translate(293.424801 346.875313) scale(0.1 -0.1)">
       <defs>
        <path id="DejaVuSans-14" d="M 794 531 
L 1825 531 
L 1825 4091 
L 703 3866 
L 703 4441 
L 1819 4666 
L 2450 4666 
L 2450 531 
L 3481 531 
L 3481 0 
L 794 0 
L 794 531 
z
" transform="scale(0.015625)"/>
       </defs>
       <use xlink:href="#DejaVuSans-14"/>
       <use xlink:href="#DejaVuSans-13" transform="translate(63.625 0)"/>
       <use xlink:href="#DejaVuSans-13" transform="translate(127.25 0)"/>
      </g>
     </g>
    </g>
    <g id="xtick_6">
     <g id="line2d_6">
      <g>
       <use xlink:href="#ma1761e8f26" x="365.100103" y="332.277656" style="stroke: #000000; stroke-width: 0.8"/>
      </g>
     </g>
     <g id="text_6">
      <!-- 125 -->
      <g transform="translate(355.556353 346.875313) scale(0.1 -0.1)">
       <use xlink:href="#DejaVuSans-14"/>
       <use xlink:href="#DejaVuSans-15" transform="translate(63.625 0)"/>
       <use xlink:href="#DejaVuSans-18" transform="translate(127.25 0)"/>
      </g>
     </g>
    </g>
    <g id="xtick_7">
     <g id="line2d_7">
      <g>
       <use xlink:href="#ma1761e8f26" x="427.231655" y="332.277656" style="stroke: #000000; stroke-width: 0.8"/>
      </g>
     </g>
     <g id="text_7">
      <!-- 150 -->
      <g transform="translate(417.687905 346.875313) scale(0.1 -0.1)">
       <use xlink:href="#DejaVuSans-14"/>
       <use xlink:href="#DejaVuSans-18" transform="translate(63.625 0)"/>
       <use xlink:href="#DejaVuSans-13" transform="translate(127.25 0)"/>
      </g>
     </g>
    </g>
    <g id="xtick_8">
     <g id="line2d_8">
      <g>
       <use xlink:href="#ma1761e8f26" x="489.363207" y="332.277656" style="stroke: #000000; stroke-width: 0.8"/>
      </g>
     </g>
     <g id="text_8">
      <!-- 175 -->
      <g transform="translate(479.819457 346.875313) scale(0.1 -0.1)">
       <use xlink:href="#DejaVuSans-14"/>
       <use xlink:href="#DejaVuSans-1a" transform="translate(63.625 0)"/>
       <use xlink:href="#DejaVuSans-18" transform="translate(127.25 0)"/>
      </g>
     </g>
    </g>
    <g id="xtick_9">
     <g id="line2d_9">
      <g>
       <use xlink:href="#ma1761e8f26" x="551.494759" y="332.277656" style="stroke: #000000; stroke-width: 0.8"/>
      </g>
     </g>
     <g id="text_9">
      <!-- 200 -->
      <g transform="translate(541.951009 346.875313) scale(0.1 -0.1)">
       <use xlink:href="#DejaVuSans-15"/>
       <use xlink:href="#DejaVuSans-13" transform="translate(63.625 0)"/>
       <use xlink:href="#DejaVuSans-13" transform="translate(127.25 0)"/>
      </g>
     </g>
    </g>
    <g id="text_10">
     <!-- number of fair bets played (step) -->
     <g transform="translate(244.903203 360.876094) scale(0.1 -0.1)">
      <defs>
       <path id="DejaVuSans-51" d="M 3513 2113 
L 3513 0 
L 2938 0 
L 2938 2094 
Q 2938 2591 2744 2837 
Q 2550 3084 2163 3084 
Q 1697 3084 1428 2787 
Q 1159 2491 1159 1978 
L 1159 0 
L 581 0 
L 581 3500 
L 1159 3500 
L 1159 2956 
Q 1366 3272 1645 3428 
Q 1925 3584 2291 3584 
Q 2894 3584 3203 3211 
Q 3513 2838 3513 2113 
z
" transform="scale(0.015625)"/>
       <path id="DejaVuSans-58" d="M 544 1381 
L 544 3500 
L 1119 3500 
L 1119 1403 
Q 1119 906 1312 657 
Q 1506 409 1894 409 
Q 2359 409 2629 706 
Q 2900 1003 2900 1516 
L 2900 3500 
L 3475 3500 
L 3475 0 
L 2900 0 
L 2900 538 
Q 2691 219 2414 64 
Q 2138 -91 1772 -91 
Q 1169 -91 856 284 
Q 544 659 544 1381 
z
M 1991 3584 
L 1991 3584 
z
" transform="scale(0.015625)"/>
       <path id="DejaVuSans-50" d="M 3328 2828 
Q 3544 3216 3844 3400 
Q 4144 3584 4550 3584 
Q 5097 3584 5394 3201 
Q 5691 2819 5691 2113 
L 5691 0 
L 5113 0 
L 5113 2094 
Q 5113 2597 4934 2840 
Q 4756 3084 4391 3084 
Q 3944 3084 3684 2787 
Q 3425 2491 3425 1978 
L 3425 0 
L 2847 0 
L 2847 2094 
Q 2847 2600 2669 2842 
Q 2491 3084 2119 3084 
Q 1678 3084 1418 2786 
Q 1159 2488 1159 1978 
L 1159 0 
L 581 0 
L 581 3500 
L 1159 3500 
L 1159 2956 
Q 1356 3278 1631 3431 
Q 1906 3584 2284 3584 
Q 2666 3584 2933 3390 
Q 3200 3197 3328 2828 
z
" transform="scale(0.015625)"/>
       <path id="DejaVuSans-45" d="M 3116 1747 
Q 3116 2381 2855 2742 
Q 2594 3103 2138 3103 
Q 1681 3103 1420 2742 
Q 1159 2381 1159 1747 
Q 1159 1113 1420 752 
Q 1681 391 2138 391 
Q 2594 391 2855 752 
Q 3116 1113 3116 1747 
z
M 1159 2969 
Q 1341 3281 1617 3432 
Q 1894 3584 2278 3584 
Q 2916 3584 3314 3078 
Q 3713 2572 3713 1747 
Q 3713 922 3314 415 
Q 2916 -91 2278 -91 
Q 1894 -91 1617 61 
Q 1341 213 1159 525 
L 1159 0 
L 581 0 
L 581 4863 
L 1159 4863 
L 1159 2969 
z
" transform="scale(0.015625)"/>
       <path id="DejaVuSans-48" d="M 3597 1894 
L 3597 1613 
L 953 1613 
Q 991 1019 1311 708 
Q 1631 397 2203 397 
Q 2534 397 2845 478 
Q 3156 559 3463 722 
L 3463 178 
Q 3153 47 2828 -22 
Q 2503 -91 2169 -91 
Q 1331 -91 842 396 
Q 353 884 353 1716 
Q 353 2575 817 3079 
Q 1281 3584 2069 3584 
Q 2775 3584 3186 3129 
Q 3597 2675 3597 1894 
z
M 3022 2063 
Q 3016 2534 2758 2815 
Q 2500 3097 2075 3097 
Q 1594 3097 1305 2825 
Q 1016 2553 972 2059 
L 3022 2063 
z
" transform="scale(0.015625)"/>
       <path id="DejaVuSans-55" d="M 2631 2963 
Q 2534 3019 2420 3045 
Q 2306 3072 2169 3072 
Q 1681 3072 1420 2755 
Q 1159 2438 1159 1844 
L 1159 0 
L 581 0 
L 581 3500 
L 1159 3500 
L 1159 2956 
Q 1341 3275 1631 3429 
Q 1922 3584 2338 3584 
Q 2397 3584 2469 3576 
Q 2541 3569 2628 3553 
L 2631 2963 
z
" transform="scale(0.015625)"/>
       <path id="DejaVuSans-3" transform="scale(0.015625)"/>
       <path id="DejaVuSans-52" d="M 1959 3097 
Q 1497 3097 1228 2736 
Q 959 2375 959 1747 
Q 959 1119 1226 758 
Q 1494 397 1959 397 
Q 2419 397 2687 759 
Q 2956 1122 2956 1747 
Q 2956 2369 2687 2733 
Q 2419 3097 1959 3097 
z
M 1959 3584 
Q 2709 3584 3137 3096 
Q 3566 2609 3566 1747 
Q 3566 888 3137 398 
Q 2709 -91 1959 -91 
Q 1206 -91 779 398 
Q 353 888 353 1747 
Q 353 2609 779 3096 
Q 1206 3584 1959 3584 
z
" transform="scale(0.015625)"/>
       <path id="DejaVuSans-49" d="M 2375 4863 
L 2375 4384 
L 1825 4384 
Q 1516 4384 1395 4259 
Q 1275 4134 1275 3809 
L 1275 3500 
L 2222 3500 
L 2222 3053 
L 1275 3053 
L 1275 0 
L 697 0 
L 697 3053 
L 147 3053 
L 147 3500 
L 697 3500 
L 697 3744 
Q 697 4328 969 4595 
Q 1241 4863 1831 4863 
L 2375 4863 
z
" transform="scale(0.015625)"/>
       <path id="DejaVuSans-44" d="M 2194 1759 
Q 1497 1759 1228 1600 
Q 959 1441 959 1056 
Q 959 750 1161 570 
Q 1363 391 1709 391 
Q 2188 391 2477 730 
Q 2766 1069 2766 1631 
L 2766 1759 
L 2194 1759 
z
M 3341 1997 
L 3341 0 
L 2766 0 
L 2766 531 
Q 2569 213 2275 61 
Q 1981 -91 1556 -91 
Q 1019 -91 701 211 
Q 384 513 384 1019 
Q 384 1609 779 1909 
Q 1175 2209 1959 2209 
L 2766 2209 
L 2766 2266 
Q 2766 2663 2505 2880 
Q 2244 3097 1772 3097 
Q 1472 3097 1187 3025 
Q 903 2953 641 2809 
L 641 3341 
Q 956 3463 1253 3523 
Q 1550 3584 1831 3584 
Q 2591 3584 2966 3190 
Q 3341 2797 3341 1997 
z
" transform="scale(0.015625)"/>
       <path id="DejaVuSans-4c" d="M 603 3500 
L 1178 3500 
L 1178 0 
L 603 0 
L 603 3500 
z
M 603 4863 
L 1178 4863 
L 1178 4134 
L 603 4134 
L 603 4863 
z
" transform="scale(0.015625)"/>
       <path id="DejaVuSans-57" d="M 1172 4494 
L 1172 3500 
L 2356 3500 
L 2356 3053 
L 1172 3053 
L 1172 1153 
Q 1172 725 1289 603 
Q 1406 481 1766 481 
L 2356 481 
L 2356 0 
L 1766 0 
Q 1100 0 847 248 
Q 594 497 594 1153 
L 594 3053 
L 172 3053 
L 172 3500 
L 594 3500 
L 594 4494 
L 1172 4494 
z
" transform="scale(0.015625)"/>
       <path id="DejaVuSans-56" d="M 2834 3397 
L 2834 2853 
Q 2591 2978 2328 3040 
Q 2066 3103 1784 3103 
Q 1356 3103 1142 2972 
Q 928 2841 928 2578 
Q 928 2378 1081 2264 
Q 1234 2150 1697 2047 
L 1894 2003 
Q 2506 1872 2764 1633 
Q 3022 1394 3022 966 
Q 3022 478 2636 193 
Q 2250 -91 1575 -91 
Q 1294 -91 989 -36 
Q 684 19 347 128 
L 347 722 
Q 666 556 975 473 
Q 1284 391 1588 391 
Q 1994 391 2212 530 
Q 2431 669 2431 922 
Q 2431 1156 2273 1281 
Q 2116 1406 1581 1522 
L 1381 1569 
Q 847 1681 609 1914 
Q 372 2147 372 2553 
Q 372 3047 722 3315 
Q 1072 3584 1716 3584 
Q 2034 3584 2315 3537 
Q 2597 3491 2834 3397 
z
" transform="scale(0.015625)"/>
       <path id="DejaVuSans-53" d="M 1159 525 
L 1159 -1331 
L 581 -1331 
L 581 3500 
L 1159 3500 
L 1159 2969 
Q 1341 3281 1617 3432 
Q 1894 3584 2278 3584 
Q 2916 3584 3314 3078 
Q 3713 2572 3713 1747 
Q 3713 922 3314 415 
Q 2916 -91 2278 -91 
Q 1894 -91 1617 61 
Q 1341 213 1159 525 
z
M 3116 1747 
Q 3116 2381 2855 2742 
Q 2594 3103 2138 3103 
Q 1681 3103 1420 2742 
Q 1159 2381 1159 1747 
Q 1159 1113 1420 752 
Q 1681 391 2138 391 
Q 2594 391 2855 752 
Q 3116 1113 3116 1747 
z
" transform="scale(0.015625)"/>
       <path id="DejaVuSans-4f" d="M 603 4863 
L 1178 4863 
L 1178 0 
L 603 0 
L 603 4863 
z
" transform="scale(0.015625)"/>
       <path id="DejaVuSans-5c" d="M 2059 -325 
Q 1816 -950 1584 -1140 
Q 1353 -1331 966 -1331 
L 506 -1331 
L 506 -850 
L 844 -850 
Q 1081 -850 1212 -737 
Q 1344 -625 1503 -206 
L 1606 56 
L 191 3500 
L 800 3500 
L 1894 763 
L 2988 3500 
L 3597 3500 
L 2059 -325 
z
" transform="scale(0.015625)"/>
       <path id="DejaVuSans-47" d="M 2906 2969 
L 2906 4863 
L 3481 4863 
L 3481 0 
L 2906 0 
L 2906 525 
Q 2725 213 2448 61 
Q 2172 -91 1784 -91 
Q 1150 -91 751 415 
Q 353 922 353 1747 
Q 353 2572 751 3078 
Q 1150 3584 1784 3584 
Q 2172 3584 2448 3432 
Q 2725 3281 2906 2969 
z
M 947 1747 
Q 947 1113 1208 752 
Q 1469 391 1925 391 
Q 2381 391 2643 752 
Q 2906 1113 2906 1747 
Q 2906 2381 2643 2742 
Q 2381 3103 1925 3103 
Q 1469 3103 1208 2742 
Q 947 2381 947 1747 
z
" transform="scale(0.015625)"/>
       <path id="DejaVuSans-b" d="M 1984 4856 
Q 1566 4138 1362 3434 
Q 1159 2731 1159 2009 
Q 1159 1288 1364 580 
Q 1569 -128 1984 -844 
L 1484 -844 
Q 1016 -109 783 600 
Q 550 1309 550 2009 
Q 550 2706 781 3412 
Q 1013 4119 1484 4856 
L 1984 4856 
z
" transform="scale(0.015625)"/>
       <path id="DejaVuSans-c" d="M 513 4856 
L 1013 4856 
Q 1481 4119 1714 3412 
Q 1947 2706 1947 2009 
Q 1947 1309 1714 600 
Q 1481 -109 1013 -844 
L 513 -844 
Q 928 -128 1133 580 
Q 1338 1288 1338 2009 
Q 1338 2731 1133 3434 
Q 928 4138 513 4856 
z
" transform="scale(0.015625)"/>
      </defs>
      <use xlink:href="#DejaVuSans-51"/>
      <use xlink:href="#DejaVuSans-58" transform="translate(63.375 0)"/>
      <use xlink:href="#DejaVuSans-50" transform="translate(126.75 0)"/>
      <use xlink:href="#DejaVuSans-45" transform="translate(224.15625 0)"/>
      <use xlink:href="#DejaVuSans-48" transform="translate(287.640625 0)"/>
      <use xlink:href="#DejaVuSans-55" transform="translate(349.171875 0)"/>
      <use xlink:href="#DejaVuSans-3" transform="translate(390.28125 0)"/>
      <use xlink:href="#DejaVuSans-52" transform="translate(422.0625 0)"/>
      <use xlink:href="#DejaVuSans-49" transform="translate(483.25 0)"/>
      <use xlink:href="#DejaVuSans-3" transform="translate(518.453125 0)"/>
      <use xlink:href="#DejaVuSans-49" transform="translate(550.234375 0)"/>
      <use xlink:href="#DejaVuSans-44" transform="translate(585.4375 0)"/>
      <use xlink:href="#DejaVuSans-4c" transform="translate(646.71875 0)"/>
      <use xlink:href="#DejaVuSans-55" transform="translate(674.5 0)"/>
      <use xlink:href="#DejaVuSans-3" transform="translate(715.609375 0)"/>
      <use xlink:href="#DejaVuSans-45" transform="translate(747.390625 0)"/>
      <use xlink:href="#DejaVuSans-48" transform="translate(810.875 0)"/>
      <use xlink:href="#DejaVuSans-57" transform="translate(872.40625 0)"/>
      <use xlink:href="#DejaVuSans-56" transform="translate(911.609375 0)"/>
      <use xlink:href="#DejaVuSans-3" transform="translate(963.703125 0)"/>
      <use xlink:href="#DejaVuSans-53" transform="translate(995.484375 0)"/>
      <use xlink:href="#DejaVuSans-4f" transform="translate(1058.96875 0)"/>
      <use xlink:href="#DejaVuSans-44" transform="translate(1086.75 0)"/>
      <use xlink:href="#DejaVuSans-5c" transform="translate(1148.03125 0)"/>
      <use xlink:href="#DejaVuSans-48" transform="translate(1207.21875 0)"/>
      <use xlink:href="#DejaVuSans-47" transform="translate(1268.75 0)"/>
      <use xlink:href="#DejaVuSans-3" transform="translate(1332.234375 0)"/>
      <use xlink:href="#DejaVuSans-b" transform="translate(1364.015625 0)"/>
      <use xlink:href="#DejaVuSans-56" transform="translate(1403.03125 0)"/>
      <use xlink:href="#DejaVuSans-57" transform="translate(1455.125 0)"/>
      <use xlink:href="#DejaVuSans-48" transform="translate(1494.328125 0)"/>
      <use xlink:href="#DejaVuSans-53" transform="translate(1555.859375 0)"/>
      <use xlink:href="#DejaVuSans-c" transform="translate(1619.34375 0)"/>
     </g>
    </g>
   </g>
   <g id="matplotlib.axis_2">
    <g id="ytick_1">
     <g id="line2d_10">
      <defs>
       <path id="m523fcb33ba" d="M 0 0 
L -3.5 0 
" style="stroke: #000000; stroke-width: 0.8"/>
      </defs>
      <g>
       <use xlink:href="#m523fcb33ba" x="54.442344" y="318.363217" style="stroke: #000000; stroke-width: 0.8"/>
      </g>
     </g>
     <g id="text_11">
      <!-- 0.0 -->
      <g transform="translate(31.539219 322.162045) scale(0.1 -0.1)">
       <defs>
        <path id="DejaVuSans-11" d="M 684 794 
L 1344 794 
L 1344 0 
L 684 0 
L 684 794 
z
" transform="scale(0.015625)"/>
       </defs>
       <use xlink:href="#DejaVuSans-13"/>
       <use xlink:href="#DejaVuSans-11" transform="translate(63.625 0)"/>
       <use xlink:href="#DejaVuSans-13" transform="translate(95.40625 0)"/>
      </g>
     </g>
    </g>
    <g id="ytick_2">
     <g id="line2d_11">
      <g>
       <use xlink:href="#m523fcb33ba" x="54.442344" y="283.57712" style="stroke: #000000; stroke-width: 0.8"/>
      </g>
     </g>
     <g id="text_12">
      <!-- 2.5 -->
      <g transform="translate(31.539219 287.375948) scale(0.1 -0.1)">
       <use xlink:href="#DejaVuSans-15"/>
       <use xlink:href="#DejaVuSans-11" transform="translate(63.625 0)"/>
       <use xlink:href="#DejaVuSans-18" transform="translate(95.40625 0)"/>
      </g>
     </g>
    </g>
    <g id="ytick_3">
     <g id="line2d_12">
      <g>
       <use xlink:href="#m523fcb33ba" x="54.442344" y="248.791023" style="stroke: #000000; stroke-width: 0.8"/>
      </g>
     </g>
     <g id="text_13">
      <!-- 5.0 -->
      <g transform="translate(31.539219 252.589851) scale(0.1 -0.1)">
       <use xlink:href="#DejaVuSans-18"/>
       <use xlink:href="#DejaVuSans-11" transform="translate(63.625 0)"/>
       <use xlink:href="#DejaVuSans-13" transform="translate(95.40625 0)"/>
      </g>
     </g>
    </g>
    <g id="ytick_4">
     <g id="line2d_13">
      <g>
       <use xlink:href="#m523fcb33ba" x="54.442344" y="214.004925" style="stroke: #000000; stroke-width: 0.8"/>
      </g>
     </g>
     <g id="text_14">
      <!-- 7.5 -->
      <g transform="translate(31.539219 217.803754) scale(0.1 -0.1)">
       <use xlink:href="#DejaVuSans-1a"/>
       <use xlink:href="#DejaVuSans-11" transform="translate(63.625 0)"/>
       <use xlink:href="#DejaVuSans-18" transform="translate(95.40625 0)"/>
      </g>
     </g>
    </g>
    <g id="ytick_5">
     <g id="line2d_14">
      <g>
       <use xlink:href="#m523fcb33ba" x="54.442344" y="179.218828" style="stroke: #000000; stroke-width: 0.8"/>
      </g>
     </g>
     <g id="text_15">
      <!-- 10.0 -->
      <g transform="translate(25.176719 183.017656) scale(0.1 -0.1)">
       <use xlink:href="#DejaVuSans-14"/>
       <use xlink:href="#DejaVuSans-13" transform="translate(63.625 0)"/>
       <use xlink:href="#DejaVuSans-11" transform="translate(127.25 0)"/>
       <use xlink:href="#DejaVuSans-13" transform="translate(159.03125 0)"/>
      </g>
     </g>
    </g>
    <g id="ytick_6">
     <g id="line2d_15">
      <g>
       <use xlink:href="#m523fcb33ba" x="54.442344" y="144.432731" style="stroke: #000000; stroke-width: 0.8"/>
      </g>
     </g>
     <g id="text_16">
      <!-- 12.5 -->
      <g transform="translate(25.176719 148.231559) scale(0.1 -0.1)">
       <use xlink:href="#DejaVuSans-14"/>
       <use xlink:href="#DejaVuSans-15" transform="translate(63.625 0)"/>
       <use xlink:href="#DejaVuSans-11" transform="translate(127.25 0)"/>
       <use xlink:href="#DejaVuSans-18" transform="translate(159.03125 0)"/>
      </g>
     </g>
    </g>
    <g id="ytick_7">
     <g id="line2d_16">
      <g>
       <use xlink:href="#m523fcb33ba" x="54.442344" y="109.646634" style="stroke: #000000; stroke-width: 0.8"/>
      </g>
     </g>
     <g id="text_17">
      <!-- 15.0 -->
      <g transform="translate(25.176719 113.445462) scale(0.1 -0.1)">
       <use xlink:href="#DejaVuSans-14"/>
       <use xlink:href="#DejaVuSans-18" transform="translate(63.625 0)"/>
       <use xlink:href="#DejaVuSans-11" transform="translate(127.25 0)"/>
       <use xlink:href="#DejaVuSans-13" transform="translate(159.03125 0)"/>
      </g>
     </g>
    </g>
    <g id="ytick_8">
     <g id="line2d_17">
      <g>
       <use xlink:href="#m523fcb33ba" x="54.442344" y="74.860536" style="stroke: #000000; stroke-width: 0.8"/>
      </g>
     </g>
     <g id="text_18">
      <!-- 17.5 -->
      <g transform="translate(25.176719 78.659364) scale(0.1 -0.1)">
       <use xlink:href="#DejaVuSans-14"/>
       <use xlink:href="#DejaVuSans-1a" transform="translate(63.625 0)"/>
       <use xlink:href="#DejaVuSans-11" transform="translate(127.25 0)"/>
       <use xlink:href="#DejaVuSans-18" transform="translate(159.03125 0)"/>
      </g>
     </g>
    </g>
    <g id="ytick_9">
     <g id="line2d_18">
      <g>
       <use xlink:href="#m523fcb33ba" x="54.442344" y="40.074439" style="stroke: #000000; stroke-width: 0.8"/>
      </g>
     </g>
     <g id="text_19">
      <!-- 20.0 -->
      <g transform="translate(25.176719 43.873267) scale(0.1 -0.1)">
       <use xlink:href="#DejaVuSans-15"/>
       <use xlink:href="#DejaVuSans-13" transform="translate(63.625 0)"/>
       <use xlink:href="#DejaVuSans-11" transform="translate(127.25 0)"/>
       <use xlink:href="#DejaVuSans-13" transform="translate(159.03125 0)"/>
      </g>
     </g>
    </g>
    <g id="text_20">
     <!-- gambler's capital -->
     <g transform="translate(18.774375 222.380547) rotate(-90) scale(0.1 -0.1)">
      <defs>
       <path id="DejaVuSans-4a" d="M 2906 1791 
Q 2906 2416 2648 2759 
Q 2391 3103 1925 3103 
Q 1463 3103 1205 2759 
Q 947 2416 947 1791 
Q 947 1169 1205 825 
Q 1463 481 1925 481 
Q 2391 481 2648 825 
Q 2906 1169 2906 1791 
z
M 3481 434 
Q 3481 -459 3084 -895 
Q 2688 -1331 1869 -1331 
Q 1566 -1331 1297 -1286 
Q 1028 -1241 775 -1147 
L 775 -588 
Q 1028 -725 1275 -790 
Q 1522 -856 1778 -856 
Q 2344 -856 2625 -561 
Q 2906 -266 2906 331 
L 2906 616 
Q 2728 306 2450 153 
Q 2172 0 1784 0 
Q 1141 0 747 490 
Q 353 981 353 1791 
Q 353 2603 747 3093 
Q 1141 3584 1784 3584 
Q 2172 3584 2450 3431 
Q 2728 3278 2906 2969 
L 2906 3500 
L 3481 3500 
L 3481 434 
z
" transform="scale(0.015625)"/>
       <path id="DejaVuSans-a" d="M 1147 4666 
L 1147 2931 
L 616 2931 
L 616 4666 
L 1147 4666 
z
" transform="scale(0.015625)"/>
       <path id="DejaVuSans-46" d="M 3122 3366 
L 3122 2828 
Q 2878 2963 2633 3030 
Q 2388 3097 2138 3097 
Q 1578 3097 1268 2742 
Q 959 2388 959 1747 
Q 959 1106 1268 751 
Q 1578 397 2138 397 
Q 2388 397 2633 464 
Q 2878 531 3122 666 
L 3122 134 
Q 2881 22 2623 -34 
Q 2366 -91 2075 -91 
Q 1284 -91 818 406 
Q 353 903 353 1747 
Q 353 2603 823 3093 
Q 1294 3584 2113 3584 
Q 2378 3584 2631 3529 
Q 2884 3475 3122 3366 
z
" transform="scale(0.015625)"/>
      </defs>
      <use xlink:href="#DejaVuSans-4a"/>
      <use xlink:href="#DejaVuSans-44" transform="translate(63.484375 0)"/>
      <use xlink:href="#DejaVuSans-50" transform="translate(124.765625 0)"/>
      <use xlink:href="#DejaVuSans-45" transform="translate(222.171875 0)"/>
      <use xlink:href="#DejaVuSans-4f" transform="translate(285.65625 0)"/>
      <use xlink:href="#DejaVuSans-48" transform="translate(313.4375 0)"/>
      <use xlink:href="#DejaVuSans-55" transform="translate(374.96875 0)"/>
      <use xlink:href="#DejaVuSans-a" transform="translate(416.078125 0)"/>
      <use xlink:href="#DejaVuSans-56" transform="translate(443.5625 0)"/>
      <use xlink:href="#DejaVuSans-3" transform="translate(495.65625 0)"/>
      <use xlink:href="#DejaVuSans-46" transform="translate(527.4375 0)"/>
      <use xlink:href="#DejaVuSans-44" transform="translate(582.421875 0)"/>
      <use xlink:href="#DejaVuSans-53" transform="translate(643.703125 0)"/>
      <use xlink:href="#DejaVuSans-4c" transform="translate(707.1875 0)"/>
      <use xlink:href="#DejaVuSans-57" transform="translate(734.96875 0)"/>
      <use xlink:href="#DejaVuSans-44" transform="translate(774.171875 0)"/>
      <use xlink:href="#DejaVuSans-4f" transform="translate(835.453125 0)"/>
     </g>
    </g>
   </g>
   <g id="line2d_19">
    <path d="M 54.442344 179.218828 
L 56.927606 165.304389 
L 59.412868 151.38995 
L 61.89813 165.304389 
L 64.383392 151.38995 
L 66.868654 165.304389 
L 69.353916 151.38995 
L 71.839178 137.475511 
L 74.32444 151.38995 
L 76.809702 137.475511 
L 79.294964 123.561072 
L 81.780227 109.646634 
L 84.265489 95.732195 
L 86.750751 81.817756 
L 89.236013 95.732195 
L 91.721275 81.817756 
L 94.206537 67.903317 
L 96.691799 81.817756 
L 99.177061 95.732195 
L 101.662323 109.646634 
L 104.147585 95.732195 
L 106.632847 109.646634 
L 109.118109 95.732195 
L 111.603371 109.646634 
L 114.088634 95.732195 
L 116.573896 81.817756 
L 119.059158 67.903317 
L 121.54442 53.988878 
L 124.029682 67.903317 
L 126.514944 53.988878 
L 129.000206 67.903317 
L 131.485468 81.817756 
L 133.97073 67.903317 
L 136.455992 81.817756 
L 138.941254 67.903317 
L 141.426516 53.988878 
L 143.911778 40.074439 
" clip-path="url(#pd747356ee3)" style="fill: none; stroke: #1f77b4; stroke-opacity: 0.85; stroke-width: 1.4; stroke-linecap: square"/>
   </g>
   <g id="line2d_20">
    <path d="M 54.442344 179.218828 
L 56.927606 193.133267 
L 59.412868 179.218828 
L 61.89813 165.304389 
L 64.383392 179.218828 
L 66.868654 165.304389 
L 69.353916 151.38995 
L 71.839178 165.304389 
L 74.32444 179.218828 
L 76.809702 165.304389 
L 79.294964 179.218828 
L 81.780227 193.133267 
L 84.265489 207.047706 
L 86.750751 220.962145 
L 89.236013 207.047706 
L 91.721275 220.962145 
L 94.206537 207.047706 
L 96.691799 193.133267 
L 99.177061 207.047706 
L 101.662323 193.133267 
L 104.147585 179.218828 
L 106.632847 165.304389 
L 109.118109 179.218828 
L 111.603371 193.133267 
L 114.088634 207.047706 
L 116.573896 220.962145 
L 119.059158 207.047706 
L 121.54442 220.962145 
L 124.029682 234.876584 
L 126.514944 248.791023 
L 129.000206 234.876584 
L 131.485468 248.791023 
L 133.97073 262.705462 
L 136.455992 248.791023 
L 138.941254 262.705462 
L 141.426516 248.791023 
L 143.911778 262.705462 
L 146.39704 276.619901 
L 148.882303 290.534339 
L 151.367565 304.448778 
L 153.852827 290.534339 
L 156.338089 276.619901 
L 158.823351 290.534339 
L 161.308613 276.619901 
L 163.793875 262.705462 
L 166.279137 248.791023 
L 168.764399 234.876584 
L 171.249661 220.962145 
L 173.734923 234.876584 
L 176.220185 220.962145 
L 178.705447 207.047706 
L 181.19071 193.133267 
L 183.675972 207.047706 
L 186.161234 193.133267 
L 188.646496 179.218828 
L 191.131758 193.133267 
L 193.61702 207.047706 
L 196.102282 220.962145 
L 198.587544 234.876584 
L 201.072806 220.962145 
L 203.558068 207.047706 
L 206.04333 193.133267 
L 208.528592 207.047706 
L 211.013854 220.962145 
L 213.499116 207.047706 
L 215.984379 193.133267 
L 218.469641 179.218828 
L 220.954903 165.304389 
L 223.440165 151.38995 
L 225.925427 165.304389 
L 228.410689 151.38995 
L 230.895951 137.475511 
L 233.381213 123.561072 
L 235.866475 109.646634 
L 238.351737 123.561072 
L 240.836999 137.475511 
L 243.322261 151.38995 
L 245.807523 165.304389 
L 248.292786 179.218828 
L 250.778048 193.133267 
L 253.26331 179.218828 
L 255.748572 193.133267 
L 258.233834 207.047706 
L 260.719096 220.962145 
L 263.204358 234.876584 
L 265.68962 220.962145 
L 268.174882 207.047706 
L 270.660144 193.133267 
L 273.145406 207.047706 
L 275.630668 193.133267 
L 278.11593 179.218828 
L 280.601192 165.304389 
L 283.086455 151.38995 
L 285.571717 137.475511 
L 288.056979 123.561072 
L 290.542241 109.646634 
L 293.027503 95.732195 
L 295.512765 81.817756 
L 297.998027 67.903317 
L 300.483289 53.988878 
L 302.968551 67.903317 
L 305.453813 81.817756 
L 307.939075 67.903317 
L 310.424337 53.988878 
L 312.909599 40.074439 
" clip-path="url(#pd747356ee3)" style="fill: none; stroke: #ff7f0e; stroke-opacity: 0.85; stroke-width: 1.4; stroke-linecap: square"/>
   </g>
   <g id="line2d_21">
    <path d="M 54.442344 179.218828 
L 59.412868 151.38995 
L 64.383392 179.218828 
L 79.294964 95.732195 
L 81.780227 109.646634 
L 86.750751 81.817756 
L 91.721275 109.646634 
L 94.206537 95.732195 
L 96.691799 109.646634 
L 99.177061 95.732195 
L 109.118109 151.38995 
L 116.573896 109.646634 
L 124.029682 151.38995 
L 129.000206 123.561072 
L 143.911778 207.047706 
L 146.39704 193.133267 
L 148.882303 207.047706 
L 161.308613 137.475511 
L 166.279137 165.304389 
L 168.764399 151.38995 
L 176.220185 193.133267 
L 188.646496 123.561072 
L 196.102282 165.304389 
L 198.587544 151.38995 
L 203.558068 179.218828 
L 206.04333 165.304389 
L 215.984379 220.962145 
L 220.954903 193.133267 
L 223.440165 207.047706 
L 225.925427 193.133267 
L 230.895951 220.962145 
L 235.866475 193.133267 
L 240.836999 220.962145 
L 248.292786 179.218828 
L 253.26331 207.047706 
L 255.748572 193.133267 
L 263.204358 234.876584 
L 265.68962 220.962145 
L 268.174882 234.876584 
L 273.145406 207.047706 
L 283.086455 262.705462 
L 285.571717 248.791023 
L 290.542241 276.619901 
L 300.483289 220.962145 
L 302.968551 234.876584 
L 310.424337 193.133267 
L 312.909599 207.047706 
L 317.880124 179.218828 
L 322.850648 207.047706 
L 325.33591 193.133267 
L 335.276958 248.791023 
L 345.218006 193.133267 
L 347.703268 207.047706 
L 352.673793 179.218828 
L 357.644317 207.047706 
L 360.129579 193.133267 
L 367.585365 234.876584 
L 370.070627 220.962145 
L 372.555889 234.876584 
L 377.526413 207.047706 
L 389.952724 276.619901 
L 392.437986 262.705462 
L 402.379034 318.363217 
L 402.379034 318.363217 
" clip-path="url(#pd747356ee3)" style="fill: none; stroke: #2ca02c; stroke-opacity: 0.85; stroke-width: 1.4; stroke-linecap: square"/>
   </g>
   <g id="line2d_22">
    <path d="M 54.442344 179.218828 
L 56.927606 165.304389 
L 59.412868 179.218828 
L 61.89813 165.304389 
L 64.383392 179.218828 
L 66.868654 193.133267 
L 69.353916 207.047706 
L 71.839178 220.962145 
L 74.32444 207.047706 
L 76.809702 220.962145 
L 79.294964 234.876584 
L 81.780227 248.791023 
L 84.265489 234.876584 
L 86.750751 220.962145 
L 89.236013 207.047706 
L 91.721275 193.133267 
L 94.206537 179.218828 
L 96.691799 165.304389 
L 99.177061 179.218828 
L 101.662323 193.133267 
L 104.147585 207.047706 
L 106.632847 193.133267 
L 109.118109 207.047706 
L 111.603371 220.962145 
L 114.088634 207.047706 
L 116.573896 220.962145 
L 119.059158 234.876584 
L 121.54442 220.962145 
L 124.029682 234.876584 
L 126.514944 220.962145 
L 129.000206 207.047706 
L 131.485468 220.962145 
L 133.97073 234.876584 
L 136.455992 220.962145 
L 138.941254 207.047706 
L 141.426516 220.962145 
L 143.911778 207.047706 
L 146.39704 193.133267 
L 148.882303 179.218828 
L 151.367565 193.133267 
L 153.852827 179.218828 
L 156.338089 193.133267 
L 158.823351 179.218828 
L 161.308613 165.304389 
L 163.793875 151.38995 
L 166.279137 165.304389 
L 168.764399 179.218828 
L 171.249661 165.304389 
L 173.734923 179.218828 
L 176.220185 193.133267 
L 178.705447 207.047706 
L 181.19071 193.133267 
L 183.675972 179.218828 
L 186.161234 165.304389 
L 188.646496 179.218828 
L 191.131758 165.304389 
L 193.61702 151.38995 
L 196.102282 137.475511 
L 198.587544 151.38995 
L 201.072806 165.304389 
L 203.558068 151.38995 
L 206.04333 137.475511 
L 208.528592 151.38995 
L 211.013854 165.304389 
L 213.499116 179.218828 
L 215.984379 165.304389 
L 218.469641 151.38995 
L 220.954903 165.304389 
L 223.440165 151.38995 
L 225.925427 137.475511 
L 228.410689 151.38995 
L 230.895951 165.304389 
L 233.381213 179.218828 
L 235.866475 165.304389 
L 238.351737 179.218828 
L 240.836999 165.304389 
L 243.322261 179.218828 
L 245.807523 165.304389 
L 248.292786 151.38995 
L 250.778048 165.304389 
L 253.26331 179.218828 
L 255.748572 165.304389 
L 258.233834 151.38995 
L 260.719096 165.304389 
L 263.204358 151.38995 
L 265.68962 137.475511 
L 268.174882 123.561072 
L 270.660144 109.646634 
L 273.145406 95.732195 
L 275.630668 81.817756 
L 278.11593 67.903317 
L 280.601192 81.817756 
L 283.086455 67.903317 
L 285.571717 81.817756 
L 288.056979 67.903317 
L 290.542241 53.988878 
L 293.027503 40.074439 
" clip-path="url(#pd747356ee3)" style="fill: none; stroke: #d62728; stroke-opacity: 0.85; stroke-width: 1.4; stroke-linecap: square"/>
   </g>
   <g id="line2d_23">
    <path d="M 54.442344 179.218828 
L 56.927606 165.304389 
L 59.412868 151.38995 
L 61.89813 165.304389 
L 64.383392 179.218828 
L 66.868654 165.304389 
L 69.353916 151.38995 
L 71.839178 165.304389 
L 74.32444 151.38995 
L 76.809702 165.304389 
L 79.294964 151.38995 
L 81.780227 137.475511 
L 84.265489 151.38995 
L 86.750751 137.475511 
L 89.236013 151.38995 
L 91.721275 165.304389 
L 94.206537 179.218828 
L 96.691799 165.304389 
L 99.177061 179.218828 
L 101.662323 193.133267 
L 104.147585 207.047706 
L 106.632847 193.133267 
L 109.118109 179.218828 
L 111.603371 165.304389 
L 114.088634 151.38995 
L 116.573896 137.475511 
L 119.059158 151.38995 
L 121.54442 137.475511 
L 124.029682 123.561072 
L 126.514944 109.646634 
L 129.000206 123.561072 
L 131.485468 137.475511 
L 133.97073 151.38995 
L 136.455992 137.475511 
L 138.941254 123.561072 
L 141.426516 109.646634 
L 143.911778 95.732195 
L 146.39704 81.817756 
L 148.882303 67.903317 
L 151.367565 53.988878 
L 153.852827 67.903317 
L 156.338089 81.817756 
L 158.823351 95.732195 
L 161.308613 81.817756 
L 163.793875 95.732195 
L 166.279137 81.817756 
L 168.764399 67.903317 
L 171.249661 53.988878 
L 173.734923 40.074439 
" clip-path="url(#pd747356ee3)" style="fill: none; stroke: #9467bd; stroke-opacity: 0.85; stroke-width: 1.4; stroke-linecap: square"/>
   </g>
   <g id="line2d_24">
    <path d="M 54.442344 179.218828 
L 56.927606 165.304389 
L 59.412868 179.218828 
L 61.89813 165.304389 
L 64.383392 179.218828 
L 66.868654 165.304389 
L 69.353916 151.38995 
L 71.839178 137.475511 
L 74.32444 123.561072 
L 76.809702 109.646634 
L 79.294964 95.732195 
L 81.780227 81.817756 
L 84.265489 67.903317 
L 86.750751 81.817756 
L 89.236013 95.732195 
L 91.721275 109.646634 
L 94.206537 123.561072 
L 96.691799 137.475511 
L 99.177061 151.38995 
L 101.662323 137.475511 
L 104.147585 123.561072 
L 106.632847 137.475511 
L 109.118109 123.561072 
L 111.603371 137.475511 
L 114.088634 151.38995 
L 116.573896 137.475511 
L 119.059158 151.38995 
L 121.54442 165.304389 
L 124.029682 179.218828 
L 126.514944 193.133267 
L 129.000206 207.047706 
L 131.485468 193.133267 
L 133.97073 207.047706 
L 136.455992 220.962145 
L 138.941254 234.876584 
L 141.426516 248.791023 
L 143.911778 262.705462 
L 146.39704 276.619901 
L 148.882303 290.534339 
L 151.367565 304.448778 
L 153.852827 318.363217 
" clip-path="url(#pd747356ee3)" style="fill: none; stroke: #8c564b; stroke-opacity: 0.85; stroke-width: 1.4; stroke-linecap: square"/>
   </g>
   <g id="line2d_25">
    <path d="M 54.442344 318.363217 
L 601.2 318.363217 
" clip-path="url(#pd747356ee3)" style="fill: none; stroke: #333333; stroke-width: 2; stroke-linecap: square"/>
   </g>
   <g id="line2d_26">
    <path d="M 54.442344 40.074439 
L 601.2 40.074439 
" clip-path="url(#pd747356ee3)" style="fill: none; stroke: #333333; stroke-width: 2; stroke-linecap: square"/>
   </g>
   <g id="line2d_27">
    <path d="M 54.442344 179.218828 
L 601.2 179.218828 
" clip-path="url(#pd747356ee3)" style="fill: none; stroke-dasharray: 2.96,1.28; stroke-dashoffset: 0; stroke: #999999; stroke-width: 0.8"/>
   </g>
   <g id="patch_3">
    <path d="M 54.442344 332.277656 
L 54.442344 26.16 
" style="fill: none; stroke: #000000; stroke-width: 0.8; stroke-linejoin: miter; stroke-linecap: square"/>
   </g>
   <g id="patch_4">
    <path d="M 601.2 332.277656 
L 601.2 26.16 
" style="fill: none; stroke: #000000; stroke-width: 0.8; stroke-linejoin: miter; stroke-linecap: square"/>
   </g>
   <g id="patch_5">
    <path d="M 54.442344 332.277656 
L 601.2 332.277656 
" style="fill: none; stroke: #000000; stroke-width: 0.8; stroke-linejoin: miter; stroke-linecap: square"/>
   </g>
   <g id="patch_6">
    <path d="M 54.442344 26.16 
L 601.2 26.16 
" style="fill: none; stroke: #000000; stroke-width: 0.8; stroke-linejoin: miter; stroke-linecap: square"/>
   </g>
   <g id="PathCollection_1">
    <defs>
     <path id="m8e640d9008" d="M 0 2.645751 
C 0.701661 2.645751 1.374679 2.366978 1.870829 1.870829 
C 2.366978 1.374679 2.645751 0.701661 2.645751 0 
C 2.645751 -0.701661 2.366978 -1.374679 1.870829 -1.870829 
C 1.374679 -2.366978 0.701661 -2.645751 0 -2.645751 
C -0.701661 -2.645751 -1.374679 -2.366978 -1.870829 -1.870829 
C -2.366978 -1.374679 -2.645751 -0.701661 -2.645751 0 
C -2.645751 0.701661 -2.366978 1.374679 -1.870829 1.870829 
C -1.374679 2.366978 -0.701661 2.645751 0 2.645751 
z
" style="stroke: #1f77b4"/>
    </defs>
    <g clip-path="url(#pd747356ee3)">
     <use xlink:href="#m8e640d9008" x="143.911778" y="40.074439" style="fill: #1f77b4; stroke: #1f77b4"/>
    </g>
   </g>
   <g id="PathCollection_2">
    <defs>
     <path id="m0a5411e9e8" d="M 0 2.645751 
C 0.701661 2.645751 1.374679 2.366978 1.870829 1.870829 
C 2.366978 1.374679 2.645751 0.701661 2.645751 0 
C 2.645751 -0.701661 2.366978 -1.374679 1.870829 -1.870829 
C 1.374679 -2.366978 0.701661 -2.645751 0 -2.645751 
C -0.701661 -2.645751 -1.374679 -2.366978 -1.870829 -1.870829 
C -2.366978 -1.374679 -2.645751 -0.701661 -2.645751 0 
C -2.645751 0.701661 -2.366978 1.374679 -1.870829 1.870829 
C -1.374679 2.366978 -0.701661 2.645751 0 2.645751 
z
" style="stroke: #ff7f0e"/>
    </defs>
    <g clip-path="url(#pd747356ee3)">
     <use xlink:href="#m0a5411e9e8" x="312.909599" y="40.074439" style="fill: #ff7f0e; stroke: #ff7f0e"/>
    </g>
   </g>
   <g id="PathCollection_3">
    <defs>
     <path id="m22f45e6f7b" d="M 0 2.645751 
C 0.701661 2.645751 1.374679 2.366978 1.870829 1.870829 
C 2.366978 1.374679 2.645751 0.701661 2.645751 0 
C 2.645751 -0.701661 2.366978 -1.374679 1.870829 -1.870829 
C 1.374679 -2.366978 0.701661 -2.645751 0 -2.645751 
C -0.701661 -2.645751 -1.374679 -2.366978 -1.870829 -1.870829 
C -2.366978 -1.374679 -2.645751 -0.701661 -2.645751 0 
C -2.645751 0.701661 -2.366978 1.374679 -1.870829 1.870829 
C -1.374679 2.366978 -0.701661 2.645751 0 2.645751 
z
" style="stroke: #2ca02c"/>
    </defs>
    <g clip-path="url(#pd747356ee3)">
     <use xlink:href="#m22f45e6f7b" x="402.379034" y="318.363217" style="fill: #2ca02c; stroke: #2ca02c"/>
    </g>
   </g>
   <g id="PathCollection_4">
    <defs>
     <path id="m52941da95a" d="M 0 2.645751 
C 0.701661 2.645751 1.374679 2.366978 1.870829 1.870829 
C 2.366978 1.374679 2.645751 0.701661 2.645751 0 
C 2.645751 -0.701661 2.366978 -1.374679 1.870829 -1.870829 
C 1.374679 -2.366978 0.701661 -2.645751 0 -2.645751 
C -0.701661 -2.645751 -1.374679 -2.366978 -1.870829 -1.870829 
C -2.366978 -1.374679 -2.645751 -0.701661 -2.645751 0 
C -2.645751 0.701661 -2.366978 1.374679 -1.870829 1.870829 
C -1.374679 2.366978 -0.701661 2.645751 0 2.645751 
z
" style="stroke: #d62728"/>
    </defs>
    <g clip-path="url(#pd747356ee3)">
     <use xlink:href="#m52941da95a" x="293.027503" y="40.074439" style="fill: #d62728; stroke: #d62728"/>
    </g>
   </g>
   <g id="PathCollection_5">
    <defs>
     <path id="mccdd335d7e" d="M 0 2.645751 
C 0.701661 2.645751 1.374679 2.366978 1.870829 1.870829 
C 2.366978 1.374679 2.645751 0.701661 2.645751 0 
C 2.645751 -0.701661 2.366978 -1.374679 1.870829 -1.870829 
C 1.374679 -2.366978 0.701661 -2.645751 0 -2.645751 
C -0.701661 -2.645751 -1.374679 -2.366978 -1.870829 -1.870829 
C -2.366978 -1.374679 -2.645751 -0.701661 -2.645751 0 
C -2.645751 0.701661 -2.366978 1.374679 -1.870829 1.870829 
C -1.374679 2.366978 -0.701661 2.645751 0 2.645751 
z
" style="stroke: #9467bd"/>
    </defs>
    <g clip-path="url(#pd747356ee3)">
     <use xlink:href="#mccdd335d7e" x="173.734923" y="40.074439" style="fill: #9467bd; stroke: #9467bd"/>
    </g>
   </g>
   <g id="PathCollection_6">
    <defs>
     <path id="m200f8facaa" d="M 0 2.645751 
C 0.701661 2.645751 1.374679 2.366978 1.870829 1.870829 
C 2.366978 1.374679 2.645751 0.701661 2.645751 0 
C 2.645751 -0.701661 2.366978 -1.374679 1.870829 -1.870829 
C 1.374679 -2.366978 0.701661 -2.645751 0 -2.645751 
C -0.701661 -2.645751 -1.374679 -2.366978 -1.870829 -1.870829 
C -2.366978 -1.374679 -2.645751 -0.701661 -2.645751 0 
C -2.645751 0.701661 -2.366978 1.374679 -1.870829 1.870829 
C -1.374679 2.366978 -0.701661 2.645751 0 2.645751 
z
" style="stroke: #8c564b"/>
    </defs>
    <g clip-path="url(#pd747356ee3)">
     <use xlink:href="#m200f8facaa" x="153.852827" y="318.363217" style="fill: #8c564b; stroke: #8c564b"/>
    </g>
   </g>
   <g id="text_21">
    <!-- ruin (capital = 0) -->
    <g style="fill: #333333" transform="translate(74.32444 310.014554) scale(0.08 -0.08)">
     <defs>
      <path id="DejaVuSans-20" d="M 678 2906 
L 4684 2906 
L 4684 2381 
L 678 2381 
L 678 2906 
z
M 678 1631 
L 4684 1631 
L 4684 1100 
L 678 1100 
L 678 1631 
z
" transform="scale(0.015625)"/>
     </defs>
     <use xlink:href="#DejaVuSans-55"/>
     <use xlink:href="#DejaVuSans-58" transform="translate(41.109375 0)"/>
     <use xlink:href="#DejaVuSans-4c" transform="translate(104.484375 0)"/>
     <use xlink:href="#DejaVuSans-51" transform="translate(132.265625 0)"/>
     <use xlink:href="#DejaVuSans-3" transform="translate(195.640625 0)"/>
     <use xlink:href="#DejaVuSans-b" transform="translate(227.421875 0)"/>
     <use xlink:href="#DejaVuSans-46" transform="translate(266.4375 0)"/>
     <use xlink:href="#DejaVuSans-44" transform="translate(321.421875 0)"/>
     <use xlink:href="#DejaVuSans-53" transform="translate(382.703125 0)"/>
     <use xlink:href="#DejaVuSans-4c" transform="translate(446.1875 0)"/>
     <use xlink:href="#DejaVuSans-57" transform="translate(473.96875 0)"/>
     <use xlink:href="#DejaVuSans-44" transform="translate(513.171875 0)"/>
     <use xlink:href="#DejaVuSans-4f" transform="translate(574.453125 0)"/>
     <use xlink:href="#DejaVuSans-3" transform="translate(602.234375 0)"/>
     <use xlink:href="#DejaVuSans-20" transform="translate(634.015625 0)"/>
     <use xlink:href="#DejaVuSans-3" transform="translate(717.8125 0)"/>
     <use xlink:href="#DejaVuSans-13" transform="translate(749.59375 0)"/>
     <use xlink:href="#DejaVuSans-c" transform="translate(813.21875 0)"/>
    </g>
   </g>
   <g id="text_22">
    <!-- target (capital = 20) -->
    <g style="fill: #333333" transform="translate(74.32444 58.16321) scale(0.08 -0.08)">
     <use xlink:href="#DejaVuSans-57"/>
     <use xlink:href="#DejaVuSans-44" transform="translate(39.203125 0)"/>
     <use xlink:href="#DejaVuSans-55" transform="translate(100.484375 0)"/>
     <use xlink:href="#DejaVuSans-4a" transform="translate(139.84375 0)"/>
     <use xlink:href="#DejaVuSans-48" transform="translate(203.328125 0)"/>
     <use xlink:href="#DejaVuSans-57" transform="translate(264.859375 0)"/>
     <use xlink:href="#DejaVuSans-3" transform="translate(304.0625 0)"/>
     <use xlink:href="#DejaVuSans-b" transform="translate(335.84375 0)"/>
     <use xlink:href="#DejaVuSans-46" transform="translate(374.859375 0)"/>
     <use xlink:href="#DejaVuSans-44" transform="translate(429.84375 0)"/>
     <use xlink:href="#DejaVuSans-53" transform="translate(491.125 0)"/>
     <use xlink:href="#DejaVuSans-4c" transform="translate(554.609375 0)"/>
     <use xlink:href="#DejaVuSans-57" transform="translate(582.390625 0)"/>
     <use xlink:href="#DejaVuSans-44" transform="translate(621.59375 0)"/>
     <use xlink:href="#DejaVuSans-4f" transform="translate(682.875 0)"/>
     <use xlink:href="#DejaVuSans-3" transform="translate(710.65625 0)"/>
     <use xlink:href="#DejaVuSans-20" transform="translate(742.4375 0)"/>
     <use xlink:href="#DejaVuSans-3" transform="translate(826.234375 0)"/>
     <use xlink:href="#DejaVuSans-15" transform="translate(858.015625 0)"/>
     <use xlink:href="#DejaVuSans-13" transform="translate(921.640625 0)"/>
     <use xlink:href="#DejaVuSans-c" transform="translate(985.265625 0)"/>
    </g>
   </g>
   <g id="text_23">
    <!-- 6 independent fair walks from capital = 10, pot = 20 -->
    <g transform="translate(169.057422 20.16) scale(0.12 -0.12)">
     <defs>
      <path id="DejaVuSans-19" d="M 2113 2584 
Q 1688 2584 1439 2293 
Q 1191 2003 1191 1497 
Q 1191 994 1439 701 
Q 1688 409 2113 409 
Q 2538 409 2786 701 
Q 3034 994 3034 1497 
Q 3034 2003 2786 2293 
Q 2538 2584 2113 2584 
z
M 3366 4563 
L 3366 3988 
Q 3128 4100 2886 4159 
Q 2644 4219 2406 4219 
Q 1781 4219 1451 3797 
Q 1122 3375 1075 2522 
Q 1259 2794 1537 2939 
Q 1816 3084 2150 3084 
Q 2853 3084 3261 2657 
Q 3669 2231 3669 1497 
Q 3669 778 3244 343 
Q 2819 -91 2113 -91 
Q 1303 -91 875 529 
Q 447 1150 447 2328 
Q 447 3434 972 4092 
Q 1497 4750 2381 4750 
Q 2619 4750 2861 4703 
Q 3103 4656 3366 4563 
z
" transform="scale(0.015625)"/>
      <path id="DejaVuSans-5a" d="M 269 3500 
L 844 3500 
L 1563 769 
L 2278 3500 
L 2956 3500 
L 3675 769 
L 4391 3500 
L 4966 3500 
L 4050 0 
L 3372 0 
L 2619 2869 
L 1863 0 
L 1184 0 
L 269 3500 
z
" transform="scale(0.015625)"/>
      <path id="DejaVuSans-4e" d="M 581 4863 
L 1159 4863 
L 1159 1991 
L 2875 3500 
L 3609 3500 
L 1753 1863 
L 3688 0 
L 2938 0 
L 1159 1709 
L 1159 0 
L 581 0 
L 581 4863 
z
" transform="scale(0.015625)"/>
      <path id="DejaVuSans-f" d="M 750 794 
L 1409 794 
L 1409 256 
L 897 -744 
L 494 -744 
L 750 256 
L 750 794 
z
" transform="scale(0.015625)"/>
     </defs>
     <use xlink:href="#DejaVuSans-19"/>
     <use xlink:href="#DejaVuSans-3" transform="translate(63.625 0)"/>
     <use xlink:href="#DejaVuSans-4c" transform="translate(95.40625 0)"/>
     <use xlink:href="#DejaVuSans-51" transform="translate(123.1875 0)"/>
     <use xlink:href="#DejaVuSans-47" transform="translate(186.5625 0)"/>
     <use xlink:href="#DejaVuSans-48" transform="translate(250.046875 0)"/>
     <use xlink:href="#DejaVuSans-53" transform="translate(311.578125 0)"/>
     <use xlink:href="#DejaVuSans-48" transform="translate(375.0625 0)"/>
     <use xlink:href="#DejaVuSans-51" transform="translate(436.59375 0)"/>
     <use xlink:href="#DejaVuSans-47" transform="translate(499.96875 0)"/>
     <use xlink:href="#DejaVuSans-48" transform="translate(563.453125 0)"/>
     <use xlink:href="#DejaVuSans-51" transform="translate(624.984375 0)"/>
     <use xlink:href="#DejaVuSans-57" transform="translate(688.359375 0)"/>
     <use xlink:href="#DejaVuSans-3" transform="translate(727.5625 0)"/>
     <use xlink:href="#DejaVuSans-49" transform="translate(759.34375 0)"/>
     <use xlink:href="#DejaVuSans-44" transform="translate(794.546875 0)"/>
     <use xlink:href="#DejaVuSans-4c" transform="translate(855.828125 0)"/>
     <use xlink:href="#DejaVuSans-55" transform="translate(883.609375 0)"/>
     <use xlink:href="#DejaVuSans-3" transform="translate(924.71875 0)"/>
     <use xlink:href="#DejaVuSans-5a" transform="translate(956.5 0)"/>
     <use xlink:href="#DejaVuSans-44" transform="translate(1038.28125 0)"/>
     <use xlink:href="#DejaVuSans-4f" transform="translate(1099.5625 0)"/>
     <use xlink:href="#DejaVuSans-4e" transform="translate(1127.34375 0)"/>
     <use xlink:href="#DejaVuSans-56" transform="translate(1185.25 0)"/>
     <use xlink:href="#DejaVuSans-3" transform="translate(1237.34375 0)"/>
     <use xlink:href="#DejaVuSans-49" transform="translate(1269.125 0)"/>
     <use xlink:href="#DejaVuSans-55" transform="translate(1304.328125 0)"/>
     <use xlink:href="#DejaVuSans-52" transform="translate(1343.234375 0)"/>
     <use xlink:href="#DejaVuSans-50" transform="translate(1404.421875 0)"/>
     <use xlink:href="#DejaVuSans-3" transform="translate(1501.828125 0)"/>
     <use xlink:href="#DejaVuSans-46" transform="translate(1533.609375 0)"/>
     <use xlink:href="#DejaVuSans-44" transform="translate(1588.59375 0)"/>
     <use xlink:href="#DejaVuSans-53" transform="translate(1649.875 0)"/>
     <use xlink:href="#DejaVuSans-4c" transform="translate(1713.359375 0)"/>
     <use xlink:href="#DejaVuSans-57" transform="translate(1741.140625 0)"/>
     <use xlink:href="#DejaVuSans-44" transform="translate(1780.34375 0)"/>
     <use xlink:href="#DejaVuSans-4f" transform="translate(1841.625 0)"/>
     <use xlink:href="#DejaVuSans-3" transform="translate(1869.40625 0)"/>
     <use xlink:href="#DejaVuSans-20" transform="translate(1901.1875 0)"/>
     <use xlink:href="#DejaVuSans-3" transform="translate(1984.984375 0)"/>
     <use xlink:href="#DejaVuSans-14" transform="translate(2016.765625 0)"/>
     <use xlink:href="#DejaVuSans-13" transform="translate(2080.390625 0)"/>
     <use xlink:href="#DejaVuSans-f" transform="translate(2144.015625 0)"/>
     <use xlink:href="#DejaVuSans-3" transform="translate(2175.796875 0)"/>
     <use xlink:href="#DejaVuSans-53" transform="translate(2207.578125 0)"/>
     <use xlink:href="#DejaVuSans-52" transform="translate(2271.0625 0)"/>
     <use xlink:href="#DejaVuSans-57" transform="translate(2332.25 0)"/>
     <use xlink:href="#DejaVuSans-3" transform="translate(2371.453125 0)"/>
     <use xlink:href="#DejaVuSans-20" transform="translate(2403.234375 0)"/>
     <use xlink:href="#DejaVuSans-3" transform="translate(2487.03125 0)"/>
     <use xlink:href="#DejaVuSans-15" transform="translate(2518.8125 0)"/>
     <use xlink:href="#DejaVuSans-13" transform="translate(2582.4375 0)"/>
    </g>
   </g>
  </g>
 </g>
 <defs>
  <clipPath id="pd747356ee3">
   <rect x="54.442344" y="26.16" width="546.757656" height="306.117656"/>
  </clipPath>
 </defs>
</svg>
