<?xml version="1.0" encoding="utf-8" standalone="no"?>
<!DOCTYPE svg PUBLIC "-//W3C//DTD SVG 1.1//EN"
  "http://www.w3.org/Graphics/SVG/1.1/DTD/svg11.dtd">
<svg xmlns:xlink="http://www.w3.org/1999/xlink" width="669.043438pt" height="294.394687pt" viewBox="0 0 669.043438 294.394687" xmlns="http://www.w3.org/2000/svg" version="1.1">
 <metadata>
  <rdf:RDF xmlns:dc="http://purl.org/dc/elements/1.1/" xmlns:cc="http://creativecommons.org/ns#" xmlns:rdf="http://www.w3.org/1999/02/22-rdf-syntax-ns#">
   <cc:Work>
    <dc:type rdf:resource="http://purl.org/dc/dcmitype/StillImage"/>
    <dc:date>2026-07-02T00:35:59.451195</dc:date>
    <dc:format>image/svg+xml</dc:format>
    <dc:creator>
     <cc:Agent>
      <dc:title>Matplotlib v3.11.0, https://matplotlib.org/</dc:title>
     </cc:Agent>
    </dc:creator>
   </cc:Work>
  </rdf:RDF>
 </metadata>
 <defs>
  <style type="text/css">*{stroke-linejoin: round; stroke-linecap: butt}</style>
 </defs>
 <g id="figure_1">
  <g id="patch_1">
   <path d="M 0 294.394687 
L 669.043438 294.394687 
L 669.043438 0 
L 0 0 
z
" style="fill: #ffffff"/>
  </g>
  <g id="axes_1">
   <g id="patch_2">
    <path d="M 40.925781 256.193906 
L 332.083438 256.193906 
L 332.083438 37.922578 
L 40.925781 37.922578 
z
" style="fill: #ffffff"/>
   </g>
   <g id="matplotlib.axis_1">
    <g id="xtick_1">
     <g id="line2d_1">
      <path d="M 41.555993 256.193906 
L 41.555993 37.922578 
" clip-path="url(#p4f7783a01d)" style="fill: none; stroke: #b0b0b0; stroke-opacity: 0.3; stroke-width: 0.8; stroke-linecap: square"/>
     </g>
     <g id="line2d_2">
      <defs>
       <path id="m8803e542d3" d="M 0 0 
L 0 3.5 
" style="stroke: #000000; stroke-width: 0.8"/>
      </defs>
      <g>
       <use xlink:href="#m8803e542d3" x="41.555993" y="256.193906" style="stroke: #000000; stroke-width: 0.8"/>
      </g>
     </g>
     <g id="text_1">
      <!-- 0 -->
      <g transform="translate(38.374743 270.791562) scale(0.1 -0.1)">
       <defs>
        <path id="DejaVuSans-13" d="M 2034 4250 
Q 1547 4250 1301 3770 
Q 1056 3291 1056 2328 
Q 1056 1369 1301 889 
Q 1547 409 2034 409 
Q 2525 409 2770 889 
Q 3016 1369 3016 2328 
Q 3016 3291 2770 3770 
Q 2525 4250 2034 4250 
z
M 2034 4750 
Q 2819 4750 3233 4129 
Q 3647 3509 3647 2328 
Q 3647 1150 3233 529 
Q 2819 -91 2034 -91 
Q 1250 -91 836 529 
Q 422 1150 422 2328 
Q 422 3509 836 4129 
Q 1250 4750 2034 4750 
z
" transform="scale(0.015625)"/>
       </defs>
       <use xlink:href="#DejaVuSans-13"/>
      </g>
     </g>
    </g>
    <g id="xtick_2">
     <g id="line2d_3">
      <path d="M 104.57713 256.193906 
L 104.57713 37.922578 
" clip-path="url(#p4f7783a01d)" style="fill: none; stroke: #b0b0b0; stroke-opacity: 0.3; stroke-width: 0.8; stroke-linecap: square"/>
     </g>
     <g id="line2d_4">
      <g>
       <use xlink:href="#m8803e542d3" x="104.57713" y="256.193906" style="stroke: #000000; stroke-width: 0.8"/>
      </g>
     </g>
     <g id="text_2">
      <!-- 5 -->
      <g transform="translate(101.39588 270.791562) scale(0.1 -0.1)">
       <defs>
        <path id="DejaVuSans-18" d="M 691 4666 
L 3169 4666 
L 3169 4134 
L 1269 4134 
L 1269 2991 
Q 1406 3038 1543 3061 
Q 1681 3084 1819 3084 
Q 2600 3084 3056 2656 
Q 3513 2228 3513 1497 
Q 3513 744 3044 326 
Q 2575 -91 1722 -91 
Q 1428 -91 1123 -41 
Q 819 9 494 109 
L 494 744 
Q 775 591 1075 516 
Q 1375 441 1709 441 
Q 2250 441 2565 725 
Q 2881 1009 2881 1497 
Q 2881 1984 2565 2268 
Q 2250 2553 1709 2553 
Q 1456 2553 1204 2497 
Q 953 2441 691 2322 
L 691 4666 
z
" transform="scale(0.015625)"/>
       </defs>
       <use xlink:href="#DejaVuSans-18"/>
      </g>
     </g>
    </g>
    <g id="xtick_3">
     <g id="line2d_5">
      <path d="M 167.598268 256.193906 
L 167.598268 37.922578 
" clip-path="url(#p4f7783a01d)" style="fill: none; stroke: #b0b0b0; stroke-opacity: 0.3; stroke-width: 0.8; stroke-linecap: square"/>
     </g>
     <g id="line2d_6">
      <g>
       <use xlink:href="#m8803e542d3" x="167.598268" y="256.193906" style="stroke: #000000; stroke-width: 0.8"/>
      </g>
     </g>
     <g id="text_3">
      <!-- 10 -->
      <g transform="translate(161.235768 270.791562) scale(0.1 -0.1)">
       <defs>
        <path id="DejaVuSans-14" d="M 794 531 
L 1825 531 
L 1825 4091 
L 703 3866 
L 703 4441 
L 1819 4666 
L 2450 4666 
L 2450 531 
L 3481 531 
L 3481 0 
L 794 0 
L 794 531 
z
" transform="scale(0.015625)"/>
       </defs>
       <use xlink:href="#DejaVuSans-14"/>
       <use xlink:href="#DejaVuSans-13" transform="translate(63.625 0)"/>
      </g>
     </g>
    </g>
    <g id="xtick_4">
     <g id="line2d_7">
      <path d="M 230.619406 256.193906 
L 230.619406 37.922578 
" clip-path="url(#p4f7783a01d)" style="fill: none; stroke: #b0b0b0; stroke-opacity: 0.3; stroke-width: 0.8; stroke-linecap: square"/>
     </g>
     <g id="line2d_8">
      <g>
       <use xlink:href="#m8803e542d3" x="230.619406" y="256.193906" style="stroke: #000000; stroke-width: 0.8"/>
      </g>
     </g>
     <g id="text_4">
      <!-- 15 -->
      <g transform="translate(224.256906 270.791562) scale(0.1 -0.1)">
       <use xlink:href="#DejaVuSans-14"/>
       <use xlink:href="#DejaVuSans-18" transform="translate(63.625 0)"/>
      </g>
     </g>
    </g>
    <g id="xtick_5">
     <g id="line2d_9">
      <path d="M 293.640543 256.193906 
L 293.640543 37.922578 
" clip-path="url(#p4f7783a01d)" style="fill: none; stroke: #b0b0b0; stroke-opacity: 0.3; stroke-width: 0.8; stroke-linecap: square"/>
     </g>
     <g id="line2d_10">
      <g>
       <use xlink:href="#m8803e542d3" x="293.640543" y="256.193906" style="stroke: #000000; stroke-width: 0.8"/>
      </g>
     </g>
     <g id="text_5">
      <!-- 20 -->
      <g transform="translate(287.278043 270.791562) scale(0.1 -0.1)">
       <defs>
        <path id="DejaVuSans-15" d="M 1228 531 
L 3431 531 
L 3431 0 
L 469 0 
L 469 531 
Q 828 903 1448 1529 
Q 2069 2156 2228 2338 
Q 2531 2678 2651 2914 
Q 2772 3150 2772 3378 
Q 2772 3750 2511 3984 
Q 2250 4219 1831 4219 
Q 1534 4219 1204 4116 
Q 875 4013 500 3803 
L 500 4441 
Q 881 4594 1212 4672 
Q 1544 4750 1819 4750 
Q 2544 4750 2975 4387 
Q 3406 4025 3406 3419 
Q 3406 3131 3298 2873 
Q 3191 2616 2906 2266 
Q 2828 2175 2409 1742 
Q 1991 1309 1228 531 
z
" transform="scale(0.015625)"/>
       </defs>
       <use xlink:href="#DejaVuSans-15"/>
       <use xlink:href="#DejaVuSans-13" transform="translate(63.625 0)"/>
      </g>
     </g>
    </g>
    <g id="text_6">
     <!-- terms included (N) -->
     <g transform="translate(139.914766 284.792344) scale(0.1 -0.1)">
      <defs>
       <path id="DejaVuSans-57" d="M 1172 4494 
L 1172 3500 
L 2356 3500 
L 2356 3053 
L 1172 3053 
L 1172 1153 
Q 1172 725 1289 603 
Q 1406 481 1766 481 
L 2356 481 
L 2356 0 
L 1766 0 
Q 1100 0 847 248 
Q 594 497 594 1153 
L 594 3053 
L 172 3053 
L 172 3500 
L 594 3500 
L 594 4494 
L 1172 4494 
z
" transform="scale(0.015625)"/>
       <path id="DejaVuSans-48" d="M 3597 1894 
L 3597 1613 
L 953 1613 
Q 991 1019 1311 708 
Q 1631 397 2203 397 
Q 2534 397 2845 478 
Q 3156 559 3463 722 
L 3463 178 
Q 3153 47 2828 -22 
Q 2503 -91 2169 -91 
Q 1331 -91 842 396 
Q 353 884 353 1716 
Q 353 2575 817 3079 
Q 1281 3584 2069 3584 
Q 2775 3584 3186 3129 
Q 3597 2675 3597 1894 
z
M 3022 2063 
Q 3016 2534 2758 2815 
Q 2500 3097 2075 3097 
Q 1594 3097 1305 2825 
Q 1016 2553 972 2059 
L 3022 2063 
z
" transform="scale(0.015625)"/>
       <path id="DejaVuSans-55" d="M 2631 2963 
Q 2534 3019 2420 3045 
Q 2306 3072 2169 3072 
Q 1681 3072 1420 2755 
Q 1159 2438 1159 1844 
L 1159 0 
L 581 0 
L 581 3500 
L 1159 3500 
L 1159 2956 
Q 1341 3275 1631 3429 
Q 1922 3584 2338 3584 
Q 2397 3584 2469 3576 
Q 2541 3569 2628 3553 
L 2631 2963 
z
" transform="scale(0.015625)"/>
       <path id="DejaVuSans-50" d="M 3328 2828 
Q 3544 3216 3844 3400 
Q 4144 3584 4550 3584 
Q 5097 3584 5394 3201 
Q 5691 2819 5691 2113 
L 5691 0 
L 5113 0 
L 5113 2094 
Q 5113 2597 4934 2840 
Q 4756 3084 4391 3084 
Q 3944 3084 3684 2787 
Q 3425 2491 3425 1978 
L 3425 0 
L 2847 0 
L 2847 2094 
Q 2847 2600 2669 2842 
Q 2491 3084 2119 3084 
Q 1678 3084 1418 2786 
Q 1159 2488 1159 1978 
L 1159 0 
L 581 0 
L 581 3500 
L 1159 3500 
L 1159 2956 
Q 1356 3278 1631 3431 
Q 1906 3584 2284 3584 
Q 2666 3584 2933 3390 
Q 3200 3197 3328 2828 
z
" transform="scale(0.015625)"/>
       <path id="DejaVuSans-56" d="M 2834 3397 
L 2834 2853 
Q 2591 2978 2328 3040 
Q 2066 3103 1784 3103 
Q 1356 3103 1142 2972 
Q 928 2841 928 2578 
Q 928 2378 1081 2264 
Q 1234 2150 1697 2047 
L 1894 2003 
Q 2506 1872 2764 1633 
Q 3022 1394 3022 966 
Q 3022 478 2636 193 
Q 2250 -91 1575 -91 
Q 1294 -91 989 -36 
Q 684 19 347 128 
L 347 722 
Q 666 556 975 473 
Q 1284 391 1588 391 
Q 1994 391 2212 530 
Q 2431 669 2431 922 
Q 2431 1156 2273 1281 
Q 2116 1406 1581 1522 
L 1381 1569 
Q 847 1681 609 1914 
Q 372 2147 372 2553 
Q 372 3047 722 3315 
Q 1072 3584 1716 3584 
Q 2034 3584 2315 3537 
Q 2597 3491 2834 3397 
z
" transform="scale(0.015625)"/>
       <path id="DejaVuSans-3" transform="scale(0.015625)"/>
       <path id="DejaVuSans-4c" d="M 603 3500 
L 1178 3500 
L 1178 0 
L 603 0 
L 603 3500 
z
M 603 4863 
L 1178 4863 
L 1178 4134 
L 603 4134 
L 603 4863 
z
" transform="scale(0.015625)"/>
       <path id="DejaVuSans-51" d="M 3513 2113 
L 3513 0 
L 2938 0 
L 2938 2094 
Q 2938 2591 2744 2837 
Q 2550 3084 2163 3084 
Q 1697 3084 1428 2787 
Q 1159 2491 1159 1978 
L 1159 0 
L 581 0 
L 581 3500 
L 1159 3500 
L 1159 2956 
Q 1366 3272 1645 3428 
Q 1925 3584 2291 3584 
Q 2894 3584 3203 3211 
Q 3513 2838 3513 2113 
z
" transform="scale(0.015625)"/>
       <path id="DejaVuSans-46" d="M 3122 3366 
L 3122 2828 
Q 2878 2963 2633 3030 
Q 2388 3097 2138 3097 
Q 1578 3097 1268 2742 
Q 959 2388 959 1747 
Q 959 1106 1268 751 
Q 1578 397 2138 397 
Q 2388 397 2633 464 
Q 2878 531 3122 666 
L 3122 134 
Q 2881 22 2623 -34 
Q 2366 -91 2075 -91 
Q 1284 -91 818 406 
Q 353 903 353 1747 
Q 353 2603 823 3093 
Q 1294 3584 2113 3584 
Q 2378 3584 2631 3529 
Q 2884 3475 3122 3366 
z
" transform="scale(0.015625)"/>
       <path id="DejaVuSans-4f" d="M 603 4863 
L 1178 4863 
L 1178 0 
L 603 0 
L 603 4863 
z
" transform="scale(0.015625)"/>
       <path id="DejaVuSans-58" d="M 544 1381 
L 544 3500 
L 1119 3500 
L 1119 1403 
Q 1119 906 1312 657 
Q 1506 409 1894 409 
Q 2359 409 2629 706 
Q 2900 1003 2900 1516 
L 2900 3500 
L 3475 3500 
L 3475 0 
L 2900 0 
L 2900 538 
Q 2691 219 2414 64 
Q 2138 -91 1772 -91 
Q 1169 -91 856 284 
Q 544 659 544 1381 
z
M 1991 3584 
L 1991 3584 
z
" transform="scale(0.015625)"/>
       <path id="DejaVuSans-47" d="M 2906 2969 
L 2906 4863 
L 3481 4863 
L 3481 0 
L 2906 0 
L 2906 525 
Q 2725 213 2448 61 
Q 2172 -91 1784 -91 
Q 1150 -91 751 415 
Q 353 922 353 1747 
Q 353 2572 751 3078 
Q 1150 3584 1784 3584 
Q 2172 3584 2448 3432 
Q 2725 3281 2906 2969 
z
M 947 1747 
Q 947 1113 1208 752 
Q 1469 391 1925 391 
Q 2381 391 2643 752 
Q 2906 1113 2906 1747 
Q 2906 2381 2643 2742 
Q 2381 3103 1925 3103 
Q 1469 3103 1208 2742 
Q 947 2381 947 1747 
z
" transform="scale(0.015625)"/>
       <path id="DejaVuSans-b" d="M 1984 4856 
Q 1566 4138 1362 3434 
Q 1159 2731 1159 2009 
Q 1159 1288 1364 580 
Q 1569 -128 1984 -844 
L 1484 -844 
Q 1016 -109 783 600 
Q 550 1309 550 2009 
Q 550 2706 781 3412 
Q 1013 4119 1484 4856 
L 1984 4856 
z
" transform="scale(0.015625)"/>
       <path id="DejaVuSans-31" d="M 628 4666 
L 1478 4666 
L 3547 763 
L 3547 4666 
L 4159 4666 
L 4159 0 
L 3309 0 
L 1241 3903 
L 1241 0 
L 628 0 
L 628 4666 
z
" transform="scale(0.015625)"/>
       <path id="DejaVuSans-c" d="M 513 4856 
L 1013 4856 
Q 1481 4119 1714 3412 
Q 1947 2706 1947 2009 
Q 1947 1309 1714 600 
Q 1481 -109 1013 -844 
L 513 -844 
Q 928 -128 1133 580 
Q 1338 1288 1338 2009 
Q 1338 2731 1133 3434 
Q 928 4138 513 4856 
z
" transform="scale(0.015625)"/>
      </defs>
      <use xlink:href="#DejaVuSans-57"/>
      <use xlink:href="#DejaVuSans-48" transform="translate(39.203125 0)"/>
      <use xlink:href="#DejaVuSans-55" transform="translate(100.734375 0)"/>
      <use xlink:href="#DejaVuSans-50" transform="translate(140.09375 0)"/>
      <use xlink:href="#DejaVuSans-56" transform="translate(237.5 0)"/>
      <use xlink:href="#DejaVuSans-3" transform="translate(289.59375 0)"/>
      <use xlink:href="#DejaVuSans-4c" transform="translate(321.375 0)"/>
      <use xlink:href="#DejaVuSans-51" transform="translate(349.15625 0)"/>
      <use xlink:href="#DejaVuSans-46" transform="translate(412.53125 0)"/>
      <use xlink:href="#DejaVuSans-4f" transform="translate(467.515625 0)"/>
      <use xlink:href="#DejaVuSans-58" transform="translate(495.296875 0)"/>
      <use xlink:href="#DejaVuSans-47" transform="translate(558.671875 0)"/>
      <use xlink:href="#DejaVuSans-48" transform="translate(622.15625 0)"/>
      <use xlink:href="#DejaVuSans-47" transform="translate(683.6875 0)"/>
      <use xlink:href="#DejaVuSans-3" transform="translate(747.171875 0)"/>
      <use xlink:href="#DejaVuSans-b" transform="translate(778.953125 0)"/>
      <use xlink:href="#DejaVuSans-31" transform="translate(817.96875 0)"/>
      <use xlink:href="#DejaVuSans-c" transform="translate(892.78125 0)"/>
     </g>
    </g>
   </g>
   <g id="matplotlib.axis_2">
    <g id="ytick_1">
     <g id="line2d_11">
      <path d="M 40.925781 255.721457 
L 332.083438 255.721457 
" clip-path="url(#p4f7783a01d)" style="fill: none; stroke: #b0b0b0; stroke-opacity: 0.3; stroke-width: 0.8; stroke-linecap: square"/>
     </g>
     <g id="line2d_12">
      <defs>
       <path id="mf17a299632" d="M 0 0 
L -3.5 0 
" style="stroke: #000000; stroke-width: 0.8"/>
      </defs>
      <g>
       <use xlink:href="#mf17a299632" x="40.925781" y="255.721457" style="stroke: #000000; stroke-width: 0.8"/>
      </g>
     </g>
     <g id="text_7">
      <!-- 0 -->
      <g transform="translate(27.563281 259.520286) scale(0.1 -0.1)">
       <use xlink:href="#DejaVuSans-13"/>
      </g>
     </g>
    </g>
    <g id="ytick_2">
     <g id="line2d_13">
      <path d="M 40.925781 208.476581 
L 332.083438 208.476581 
" clip-path="url(#p4f7783a01d)" style="fill: none; stroke: #b0b0b0; stroke-opacity: 0.3; stroke-width: 0.8; stroke-linecap: square"/>
     </g>
     <g id="line2d_14">
      <g>
       <use xlink:href="#mf17a299632" x="40.925781" y="208.476581" style="stroke: #000000; stroke-width: 0.8"/>
      </g>
     </g>
     <g id="text_8">
      <!-- 5 -->
      <g transform="translate(27.563281 212.275409) scale(0.1 -0.1)">
       <use xlink:href="#DejaVuSans-18"/>
      </g>
     </g>
    </g>
    <g id="ytick_3">
     <g id="line2d_15">
      <path d="M 40.925781 161.231705 
L 332.083438 161.231705 
" clip-path="url(#p4f7783a01d)" style="fill: none; stroke: #b0b0b0; stroke-opacity: 0.3; stroke-width: 0.8; stroke-linecap: square"/>
     </g>
     <g id="line2d_16">
      <g>
       <use xlink:href="#mf17a299632" x="40.925781" y="161.231705" style="stroke: #000000; stroke-width: 0.8"/>
      </g>
     </g>
     <g id="text_9">
      <!-- 10 -->
      <g transform="translate(21.200781 165.030533) scale(0.1 -0.1)">
       <use xlink:href="#DejaVuSans-14"/>
       <use xlink:href="#DejaVuSans-13" transform="translate(63.625 0)"/>
      </g>
     </g>
    </g>
    <g id="ytick_4">
     <g id="line2d_17">
      <path d="M 40.925781 113.986829 
L 332.083438 113.986829 
" clip-path="url(#p4f7783a01d)" style="fill: none; stroke: #b0b0b0; stroke-opacity: 0.3; stroke-width: 0.8; stroke-linecap: square"/>
     </g>
     <g id="line2d_18">
      <g>
       <use xlink:href="#mf17a299632" x="40.925781" y="113.986829" style="stroke: #000000; stroke-width: 0.8"/>
      </g>
     </g>
     <g id="text_10">
      <!-- 15 -->
      <g transform="translate(21.200781 117.785657) scale(0.1 -0.1)">
       <use xlink:href="#DejaVuSans-14"/>
       <use xlink:href="#DejaVuSans-18" transform="translate(63.625 0)"/>
      </g>
     </g>
    </g>
    <g id="ytick_5">
     <g id="line2d_19">
      <path d="M 40.925781 66.741953 
L 332.083438 66.741953 
" clip-path="url(#p4f7783a01d)" style="fill: none; stroke: #b0b0b0; stroke-opacity: 0.3; stroke-width: 0.8; stroke-linecap: square"/>
     </g>
     <g id="line2d_20">
      <g>
       <use xlink:href="#mf17a299632" x="40.925781" y="66.741953" style="stroke: #000000; stroke-width: 0.8"/>
      </g>
     </g>
     <g id="text_11">
      <!-- 20 -->
      <g transform="translate(21.200781 70.540781) scale(0.1 -0.1)">
       <use xlink:href="#DejaVuSans-15"/>
       <use xlink:href="#DejaVuSans-13" transform="translate(63.625 0)"/>
      </g>
     </g>
    </g>
    <g id="text_12">
     <!-- ducats -->
     <g transform="translate(14.798437 163.779336) rotate(-90) scale(0.1 -0.1)">
      <defs>
       <path id="DejaVuSans-44" d="M 2194 1759 
Q 1497 1759 1228 1600 
Q 959 1441 959 1056 
Q 959 750 1161 570 
Q 1363 391 1709 391 
Q 2188 391 2477 730 
Q 2766 1069 2766 1631 
L 2766 1759 
L 2194 1759 
z
M 3341 1997 
L 3341 0 
L 2766 0 
L 2766 531 
Q 2569 213 2275 61 
Q 1981 -91 1556 -91 
Q 1019 -91 701 211 
Q 384 513 384 1019 
Q 384 1609 779 1909 
Q 1175 2209 1959 2209 
L 2766 2209 
L 2766 2266 
Q 2766 2663 2505 2880 
Q 2244 3097 1772 3097 
Q 1472 3097 1187 3025 
Q 903 2953 641 2809 
L 641 3341 
Q 956 3463 1253 3523 
Q 1550 3584 1831 3584 
Q 2591 3584 2966 3190 
Q 3341 2797 3341 1997 
z
" transform="scale(0.015625)"/>
      </defs>
      <use xlink:href="#DejaVuSans-47"/>
      <use xlink:href="#DejaVuSans-58" transform="translate(63.484375 0)"/>
      <use xlink:href="#DejaVuSans-46" transform="translate(126.859375 0)"/>
      <use xlink:href="#DejaVuSans-44" transform="translate(181.84375 0)"/>
      <use xlink:href="#DejaVuSans-57" transform="translate(243.125 0)"/>
      <use xlink:href="#DejaVuSans-56" transform="translate(282.328125 0)"/>
     </g>
    </g>
   </g>
   <g id="line2d_21">
    <path d="M 54.16022 246.272482 
L 66.764448 236.823507 
L 79.368675 227.374532 
L 91.972903 217.925557 
L 104.57713 208.476581 
L 117.181358 199.027606 
L 129.785585 189.578631 
L 142.389813 180.129656 
L 154.994041 170.68068 
L 167.598268 161.231705 
L 180.202496 151.78273 
L 192.806723 142.333755 
L 205.410951 132.884779 
L 218.015178 123.435804 
L 230.619406 113.986829 
L 243.223633 104.537854 
L 255.827861 95.088878 
L 268.432088 85.639903 
L 281.036316 76.190928 
L 293.640543 66.741953 
L 306.244771 57.292977 
L 318.848999 47.844002 
" clip-path="url(#p4f7783a01d)" style="fill: none; stroke: #b71c1c; stroke-width: 1.5; stroke-linecap: square"/>
    <defs>
     <path id="m56ca504e75" d="M 0 1.5 
C 0.397805 1.5 0.77937 1.341951 1.06066 1.06066 
C 1.341951 0.77937 1.5 0.397805 1.5 0 
C 1.5 -0.397805 1.341951 -0.77937 1.06066 -1.06066 
C 0.77937 -1.341951 0.397805 -1.5 0 -1.5 
C -0.397805 -1.5 -0.77937 -1.341951 -1.06066 -1.06066 
C -1.341951 -0.77937 -1.5 -0.397805 -1.5 0 
C -1.5 0.397805 -1.341951 0.77937 -1.06066 1.06066 
C -0.77937 1.341951 -0.397805 1.5 0 1.5 
z
" style="stroke: #b71c1c"/>
    </defs>
    <g clip-path="url(#p4f7783a01d)">
     <use xlink:href="#m56ca504e75" x="54.16022" y="246.272482" style="fill: #b71c1c; stroke: #b71c1c"/>
     <use xlink:href="#m56ca504e75" x="66.764448" y="236.823507" style="fill: #b71c1c; stroke: #b71c1c"/>
     <use xlink:href="#m56ca504e75" x="79.368675" y="227.374532" style="fill: #b71c1c; stroke: #b71c1c"/>
     <use xlink:href="#m56ca504e75" x="91.972903" y="217.925557" style="fill: #b71c1c; stroke: #b71c1c"/>
     <use xlink:href="#m56ca504e75" x="104.57713" y="208.476581" style="fill: #b71c1c; stroke: #b71c1c"/>
     <use xlink:href="#m56ca504e75" x="117.181358" y="199.027606" style="fill: #b71c1c; stroke: #b71c1c"/>
     <use xlink:href="#m56ca504e75" x="129.785585" y="189.578631" style="fill: #b71c1c; stroke: #b71c1c"/>
     <use xlink:href="#m56ca504e75" x="142.389813" y="180.129656" style="fill: #b71c1c; stroke: #b71c1c"/>
     <use xlink:href="#m56ca504e75" x="154.994041" y="170.68068" style="fill: #b71c1c; stroke: #b71c1c"/>
     <use xlink:href="#m56ca504e75" x="167.598268" y="161.231705" style="fill: #b71c1c; stroke: #b71c1c"/>
     <use xlink:href="#m56ca504e75" x="180.202496" y="151.78273" style="fill: #b71c1c; stroke: #b71c1c"/>
     <use xlink:href="#m56ca504e75" x="192.806723" y="142.333755" style="fill: #b71c1c; stroke: #b71c1c"/>
     <use xlink:href="#m56ca504e75" x="205.410951" y="132.884779" style="fill: #b71c1c; stroke: #b71c1c"/>
     <use xlink:href="#m56ca504e75" x="218.015178" y="123.435804" style="fill: #b71c1c; stroke: #b71c1c"/>
     <use xlink:href="#m56ca504e75" x="230.619406" y="113.986829" style="fill: #b71c1c; stroke: #b71c1c"/>
     <use xlink:href="#m56ca504e75" x="243.223633" y="104.537854" style="fill: #b71c1c; stroke: #b71c1c"/>
     <use xlink:href="#m56ca504e75" x="255.827861" y="95.088878" style="fill: #b71c1c; stroke: #b71c1c"/>
     <use xlink:href="#m56ca504e75" x="268.432088" y="85.639903" style="fill: #b71c1c; stroke: #b71c1c"/>
     <use xlink:href="#m56ca504e75" x="281.036316" y="76.190928" style="fill: #b71c1c; stroke: #b71c1c"/>
     <use xlink:href="#m56ca504e75" x="293.640543" y="66.741953" style="fill: #b71c1c; stroke: #b71c1c"/>
     <use xlink:href="#m56ca504e75" x="306.244771" y="57.292977" style="fill: #b71c1c; stroke: #b71c1c"/>
     <use xlink:href="#m56ca504e75" x="318.848999" y="47.844002" style="fill: #b71c1c; stroke: #b71c1c"/>
    </g>
   </g>
   <g id="patch_3">
    <path d="M 40.925781 256.193906 
L 40.925781 37.922578 
" style="fill: none; stroke: #000000; stroke-width: 0.8; stroke-linejoin: miter; stroke-linecap: square"/>
   </g>
   <g id="patch_4">
    <path d="M 332.083438 256.193906 
L 332.083438 37.922578 
" style="fill: none; stroke: #000000; stroke-width: 0.8; stroke-linejoin: miter; stroke-linecap: square"/>
   </g>
   <g id="patch_5">
    <path d="M 40.925781 256.193906 
L 332.083438 256.193906 
" style="fill: none; stroke: #000000; stroke-width: 0.8; stroke-linejoin: miter; stroke-linecap: square"/>
   </g>
   <g id="patch_6">
    <path d="M 40.925781 37.922578 
L 332.083438 37.922578 
" style="fill: none; stroke: #000000; stroke-width: 0.8; stroke-linejoin: miter; stroke-linecap: square"/>
   </g>
   <g id="text_13">
    <!-- Expected payout, partial sum S_N = N -->
    <g transform="translate(71.395547 17.519297) scale(0.12 -0.12)">
     <defs>
      <path id="DejaVuSans-28" d="M 628 4666 
L 3578 4666 
L 3578 4134 
L 1259 4134 
L 1259 2753 
L 3481 2753 
L 3481 2222 
L 1259 2222 
L 1259 531 
L 3634 531 
L 3634 0 
L 628 0 
L 628 4666 
z
" transform="scale(0.015625)"/>
      <path id="DejaVuSans-5b" d="M 3513 3500 
L 2247 1797 
L 3578 0 
L 2900 0 
L 1881 1375 
L 863 0 
L 184 0 
L 1544 1831 
L 300 3500 
L 978 3500 
L 1906 2253 
L 2834 3500 
L 3513 3500 
z
" transform="scale(0.015625)"/>
      <path id="DejaVuSans-53" d="M 1159 525 
L 1159 -1331 
L 581 -1331 
L 581 3500 
L 1159 3500 
L 1159 2969 
Q 1341 3281 1617 3432 
Q 1894 3584 2278 3584 
Q 2916 3584 3314 3078 
Q 3713 2572 3713 1747 
Q 3713 922 3314 415 
Q 2916 -91 2278 -91 
Q 1894 -91 1617 61 
Q 1341 213 1159 525 
z
M 3116 1747 
Q 3116 2381 2855 2742 
Q 2594 3103 2138 3103 
Q 1681 3103 1420 2742 
Q 1159 2381 1159 1747 
Q 1159 1113 1420 752 
Q 1681 391 2138 391 
Q 2594 391 2855 752 
Q 3116 1113 3116 1747 
z
" transform="scale(0.015625)"/>
      <path id="DejaVuSans-5c" d="M 2059 -325 
Q 1816 -950 1584 -1140 
Q 1353 -1331 966 -1331 
L 506 -1331 
L 506 -850 
L 844 -850 
Q 1081 -850 1212 -737 
Q 1344 -625 1503 -206 
L 1606 56 
L 191 3500 
L 800 3500 
L 1894 763 
L 2988 3500 
L 3597 3500 
L 2059 -325 
z
" transform="scale(0.015625)"/>
      <path id="DejaVuSans-52" d="M 1959 3097 
Q 1497 3097 1228 2736 
Q 959 2375 959 1747 
Q 959 1119 1226 758 
Q 1494 397 1959 397 
Q 2419 397 2687 759 
Q 2956 1122 2956 1747 
Q 2956 2369 2687 2733 
Q 2419 3097 1959 3097 
z
M 1959 3584 
Q 2709 3584 3137 3096 
Q 3566 2609 3566 1747 
Q 3566 888 3137 398 
Q 2709 -91 1959 -91 
Q 1206 -91 779 398 
Q 353 888 353 1747 
Q 353 2609 779 3096 
Q 1206 3584 1959 3584 
z
" transform="scale(0.015625)"/>
      <path id="DejaVuSans-f" d="M 750 794 
L 1409 794 
L 1409 256 
L 897 -744 
L 494 -744 
L 750 256 
L 750 794 
z
" transform="scale(0.015625)"/>
      <path id="DejaVuSans-36" d="M 3425 4513 
L 3425 3897 
Q 3066 4069 2747 4153 
Q 2428 4238 2131 4238 
Q 1616 4238 1336 4038 
Q 1056 3838 1056 3469 
Q 1056 3159 1242 3001 
Q 1428 2844 1947 2747 
L 2328 2669 
Q 3034 2534 3370 2195 
Q 3706 1856 3706 1288 
Q 3706 609 3251 259 
Q 2797 -91 1919 -91 
Q 1588 -91 1214 -16 
Q 841 59 441 206 
L 441 856 
Q 825 641 1194 531 
Q 1563 422 1919 422 
Q 2459 422 2753 634 
Q 3047 847 3047 1241 
Q 3047 1584 2836 1778 
Q 2625 1972 2144 2069 
L 1759 2144 
Q 1053 2284 737 2584 
Q 422 2884 422 3419 
Q 422 4038 858 4394 
Q 1294 4750 2059 4750 
Q 2388 4750 2728 4690 
Q 3069 4631 3425 4513 
z
" transform="scale(0.015625)"/>
      <path id="DejaVuSans-42" d="M 3263 -1063 
L 3263 -1509 
L -63 -1509 
L -63 -1063 
L 3263 -1063 
z
" transform="scale(0.015625)"/>
      <path id="DejaVuSans-20" d="M 678 2906 
L 4684 2906 
L 4684 2381 
L 678 2381 
L 678 2906 
z
M 678 1631 
L 4684 1631 
L 4684 1100 
L 678 1100 
L 678 1631 
z
" transform="scale(0.015625)"/>
     </defs>
     <use xlink:href="#DejaVuSans-28"/>
     <use xlink:href="#DejaVuSans-5b" transform="translate(63.1875 0)"/>
     <use xlink:href="#DejaVuSans-53" transform="translate(122.375 0)"/>
     <use xlink:href="#DejaVuSans-48" transform="translate(185.859375 0)"/>
     <use xlink:href="#DejaVuSans-46" transform="translate(247.390625 0)"/>
     <use xlink:href="#DejaVuSans-57" transform="translate(302.375 0)"/>
     <use xlink:href="#DejaVuSans-48" transform="translate(341.578125 0)"/>
     <use xlink:href="#DejaVuSans-47" transform="translate(403.109375 0)"/>
     <use xlink:href="#DejaVuSans-3" transform="translate(466.59375 0)"/>
     <use xlink:href="#DejaVuSans-53" transform="translate(498.375 0)"/>
     <use xlink:href="#DejaVuSans-44" transform="translate(561.859375 0)"/>
     <use xlink:href="#DejaVuSans-5c" transform="translate(623.140625 0)"/>
     <use xlink:href="#DejaVuSans-52" transform="translate(682.328125 0)"/>
     <use xlink:href="#DejaVuSans-58" transform="translate(743.515625 0)"/>
     <use xlink:href="#DejaVuSans-57" transform="translate(806.890625 0)"/>
     <use xlink:href="#DejaVuSans-f" transform="translate(846.09375 0)"/>
     <use xlink:href="#DejaVuSans-3" transform="translate(877.875 0)"/>
     <use xlink:href="#DejaVuSans-53" transform="translate(909.65625 0)"/>
     <use xlink:href="#DejaVuSans-44" transform="translate(973.140625 0)"/>
     <use xlink:href="#DejaVuSans-55" transform="translate(1034.421875 0)"/>
     <use xlink:href="#DejaVuSans-57" transform="translate(1075.53125 0)"/>
     <use xlink:href="#DejaVuSans-4c" transform="translate(1114.734375 0)"/>
     <use xlink:href="#DejaVuSans-44" transform="translate(1142.515625 0)"/>
     <use xlink:href="#DejaVuSans-4f" transform="translate(1203.796875 0)"/>
     <use xlink:href="#DejaVuSans-3" transform="translate(1231.578125 0)"/>
     <use xlink:href="#DejaVuSans-56" transform="translate(1263.359375 0)"/>
     <use xlink:href="#DejaVuSans-58" transform="translate(1315.453125 0)"/>
     <use xlink:href="#DejaVuSans-50" transform="translate(1378.828125 0)"/>
     <use xlink:href="#DejaVuSans-3" transform="translate(1476.234375 0)"/>
     <use xlink:href="#DejaVuSans-36" transform="translate(1508.015625 0)"/>
     <use xlink:href="#DejaVuSans-42" transform="translate(1571.5 0)"/>
     <use xlink:href="#DejaVuSans-31" transform="translate(1621.5 0)"/>
     <use xlink:href="#DejaVuSans-3" transform="translate(1696.3125 0)"/>
     <use xlink:href="#DejaVuSans-20" transform="translate(1728.09375 0)"/>
     <use xlink:href="#DejaVuSans-3" transform="translate(1811.890625 0)"/>
     <use xlink:href="#DejaVuSans-31" transform="translate(1843.671875 0)"/>
    </g>
    <!-- (no ceiling, ever) -->
    <g transform="translate(135.623672 31.922578) scale(0.12 -0.12)">
     <defs>
      <path id="DejaVuSans-4a" d="M 2906 1791 
Q 2906 2416 2648 2759 
Q 2391 3103 1925 3103 
Q 1463 3103 1205 2759 
Q 947 2416 947 1791 
Q 947 1169 1205 825 
Q 1463 481 1925 481 
Q 2391 481 2648 825 
Q 2906 1169 2906 1791 
z
M 3481 434 
Q 3481 -459 3084 -895 
Q 2688 -1331 1869 -1331 
Q 1566 -1331 1297 -1286 
Q 1028 -1241 775 -1147 
L 775 -588 
Q 1028 -725 1275 -790 
Q 1522 -856 1778 -856 
Q 2344 -856 2625 -561 
Q 2906 -266 2906 331 
L 2906 616 
Q 2728 306 2450 153 
Q 2172 0 1784 0 
Q 1141 0 747 490 
Q 353 981 353 1791 
Q 353 2603 747 3093 
Q 1141 3584 1784 3584 
Q 2172 3584 2450 3431 
Q 2728 3278 2906 2969 
L 2906 3500 
L 3481 3500 
L 3481 434 
z
" transform="scale(0.015625)"/>
      <path id="DejaVuSans-59" d="M 191 3500 
L 800 3500 
L 1894 563 
L 2988 3500 
L 3597 3500 
L 2284 0 
L 1503 0 
L 191 3500 
z
" transform="scale(0.015625)"/>
     </defs>
     <use xlink:href="#DejaVuSans-b"/>
     <use xlink:href="#DejaVuSans-51" transform="translate(39.015625 0)"/>
     <use xlink:href="#DejaVuSans-52" transform="translate(102.390625 0)"/>
     <use xlink:href="#DejaVuSans-3" transform="translate(163.578125 0)"/>
     <use xlink:href="#DejaVuSans-46" transform="translate(195.359375 0)"/>
     <use xlink:href="#DejaVuSans-48" transform="translate(250.34375 0)"/>
     <use xlink:href="#DejaVuSans-4c" transform="translate(311.875 0)"/>
     <use xlink:href="#DejaVuSans-4f" transform="translate(339.65625 0)"/>
     <use xlink:href="#DejaVuSans-4c" transform="translate(367.4375 0)"/>
     <use xlink:href="#DejaVuSans-51" transform="translate(395.21875 0)"/>
     <use xlink:href="#DejaVuSans-4a" transform="translate(458.59375 0)"/>
     <use xlink:href="#DejaVuSans-f" transform="translate(522.078125 0)"/>
     <use xlink:href="#DejaVuSans-3" transform="translate(553.859375 0)"/>
     <use xlink:href="#DejaVuSans-48" transform="translate(585.640625 0)"/>
     <use xlink:href="#DejaVuSans-59" transform="translate(647.171875 0)"/>
     <use xlink:href="#DejaVuSans-48" transform="translate(706.359375 0)"/>
     <use xlink:href="#DejaVuSans-55" transform="translate(767.890625 0)"/>
     <use xlink:href="#DejaVuSans-c" transform="translate(809 0)"/>
    </g>
   </g>
  </g>
  <g id="axes_2">
   <g id="patch_7">
    <path d="M 370.685781 256.193906 
L 661.843438 256.193906 
L 661.843438 37.922578 
L 370.685781 37.922578 
z
" style="fill: #ffffff"/>
   </g>
   <g id="matplotlib.axis_3">
    <g id="xtick_6">
     <g id="line2d_22">
      <path d="M 371.315993 256.193906 
L 371.315993 37.922578 
" clip-path="url(#p132590f942)" style="fill: none; stroke: #b0b0b0; stroke-opacity: 0.3; stroke-width: 0.8; stroke-linecap: square"/>
     </g>
     <g id="line2d_23">
      <g>
       <use xlink:href="#m8803e542d3" x="371.315993" y="256.193906" style="stroke: #000000; stroke-width: 0.8"/>
      </g>
     </g>
     <g id="text_14">
      <!-- 0 -->
      <g transform="translate(368.134743 270.791562) scale(0.1 -0.1)">
       <use xlink:href="#DejaVuSans-13"/>
      </g>
     </g>
    </g>
    <g id="xtick_7">
     <g id="line2d_24">
      <path d="M 434.33713 256.193906 
L 434.33713 37.922578 
" clip-path="url(#p132590f942)" style="fill: none; stroke: #b0b0b0; stroke-opacity: 0.3; stroke-width: 0.8; stroke-linecap: square"/>
     </g>
     <g id="line2d_25">
      <g>
       <use xlink:href="#m8803e542d3" x="434.33713" y="256.193906" style="stroke: #000000; stroke-width: 0.8"/>
      </g>
     </g>
     <g id="text_15">
      <!-- 5 -->
      <g transform="translate(431.15588 270.791562) scale(0.1 -0.1)">
       <use xlink:href="#DejaVuSans-18"/>
      </g>
     </g>
    </g>
    <g id="xtick_8">
     <g id="line2d_26">
      <path d="M 497.358268 256.193906 
L 497.358268 37.922578 
" clip-path="url(#p132590f942)" style="fill: none; stroke: #b0b0b0; stroke-opacity: 0.3; stroke-width: 0.8; stroke-linecap: square"/>
     </g>
     <g id="line2d_27">
      <g>
       <use xlink:href="#m8803e542d3" x="497.358268" y="256.193906" style="stroke: #000000; stroke-width: 0.8"/>
      </g>
     </g>
     <g id="text_16">
      <!-- 10 -->
      <g transform="translate(490.995768 270.791562) scale(0.1 -0.1)">
       <use xlink:href="#DejaVuSans-14"/>
       <use xlink:href="#DejaVuSans-13" transform="translate(63.625 0)"/>
      </g>
     </g>
    </g>
    <g id="xtick_9">
     <g id="line2d_28">
      <path d="M 560.379406 256.193906 
L 560.379406 37.922578 
" clip-path="url(#p132590f942)" style="fill: none; stroke: #b0b0b0; stroke-opacity: 0.3; stroke-width: 0.8; stroke-linecap: square"/>
     </g>
     <g id="line2d_29">
      <g>
       <use xlink:href="#m8803e542d3" x="560.379406" y="256.193906" style="stroke: #000000; stroke-width: 0.8"/>
      </g>
     </g>
     <g id="text_17">
      <!-- 15 -->
      <g transform="translate(554.016906 270.791562) scale(0.1 -0.1)">
       <use xlink:href="#DejaVuSans-14"/>
       <use xlink:href="#DejaVuSans-18" transform="translate(63.625 0)"/>
      </g>
     </g>
    </g>
    <g id="xtick_10">
     <g id="line2d_30">
      <path d="M 623.400543 256.193906 
L 623.400543 37.922578 
" clip-path="url(#p132590f942)" style="fill: none; stroke: #b0b0b0; stroke-opacity: 0.3; stroke-width: 0.8; stroke-linecap: square"/>
     </g>
     <g id="line2d_31">
      <g>
       <use xlink:href="#m8803e542d3" x="623.400543" y="256.193906" style="stroke: #000000; stroke-width: 0.8"/>
      </g>
     </g>
     <g id="text_18">
      <!-- 20 -->
      <g transform="translate(617.038043 270.791562) scale(0.1 -0.1)">
       <use xlink:href="#DejaVuSans-15"/>
       <use xlink:href="#DejaVuSans-13" transform="translate(63.625 0)"/>
      </g>
     </g>
    </g>
    <g id="text_19">
     <!-- terms included (N) -->
     <g transform="translate(469.674766 284.792344) scale(0.1 -0.1)">
      <use xlink:href="#DejaVuSans-57"/>
      <use xlink:href="#DejaVuSans-48" transform="translate(39.203125 0)"/>
      <use xlink:href="#DejaVuSans-55" transform="translate(100.734375 0)"/>
      <use xlink:href="#DejaVuSans-50" transform="translate(140.09375 0)"/>
      <use xlink:href="#DejaVuSans-56" transform="translate(237.5 0)"/>
      <use xlink:href="#DejaVuSans-3" transform="translate(289.59375 0)"/>
      <use xlink:href="#DejaVuSans-4c" transform="translate(321.375 0)"/>
      <use xlink:href="#DejaVuSans-51" transform="translate(349.15625 0)"/>
      <use xlink:href="#DejaVuSans-46" transform="translate(412.53125 0)"/>
      <use xlink:href="#DejaVuSans-4f" transform="translate(467.515625 0)"/>
      <use xlink:href="#DejaVuSans-58" transform="translate(495.296875 0)"/>
      <use xlink:href="#DejaVuSans-47" transform="translate(558.671875 0)"/>
      <use xlink:href="#DejaVuSans-48" transform="translate(622.15625 0)"/>
      <use xlink:href="#DejaVuSans-47" transform="translate(683.6875 0)"/>
      <use xlink:href="#DejaVuSans-3" transform="translate(747.171875 0)"/>
      <use xlink:href="#DejaVuSans-b" transform="translate(778.953125 0)"/>
      <use xlink:href="#DejaVuSans-31" transform="translate(817.96875 0)"/>
      <use xlink:href="#DejaVuSans-c" transform="translate(892.78125 0)"/>
     </g>
    </g>
   </g>
   <g id="matplotlib.axis_4">
    <g id="ytick_6">
     <g id="line2d_32">
      <path d="M 370.685781 256.193906 
L 661.843438 256.193906 
" clip-path="url(#p132590f942)" style="fill: none; stroke: #b0b0b0; stroke-opacity: 0.3; stroke-width: 0.8; stroke-linecap: square"/>
     </g>
     <g id="line2d_33">
      <g>
       <use xlink:href="#mf17a299632" x="370.685781" y="256.193906" style="stroke: #000000; stroke-width: 0.8"/>
      </g>
     </g>
     <g id="text_20">
      <!-- 0 -->
      <g transform="translate(357.323281 259.992734) scale(0.1 -0.1)">
       <use xlink:href="#DejaVuSans-13"/>
      </g>
     </g>
    </g>
    <g id="ytick_7">
     <g id="line2d_34">
      <path d="M 370.685781 212.539641 
L 661.843438 212.539641 
" clip-path="url(#p132590f942)" style="fill: none; stroke: #b0b0b0; stroke-opacity: 0.3; stroke-width: 0.8; stroke-linecap: square"/>
     </g>
     <g id="line2d_35">
      <g>
       <use xlink:href="#mf17a299632" x="370.685781" y="212.539641" style="stroke: #000000; stroke-width: 0.8"/>
      </g>
     </g>
     <g id="text_21">
      <!-- 1 -->
      <g transform="translate(357.323281 216.338469) scale(0.1 -0.1)">
       <use xlink:href="#DejaVuSans-14"/>
      </g>
     </g>
    </g>
    <g id="ytick_8">
     <g id="line2d_36">
      <path d="M 370.685781 168.885375 
L 661.843438 168.885375 
" clip-path="url(#p132590f942)" style="fill: none; stroke: #b0b0b0; stroke-opacity: 0.3; stroke-width: 0.8; stroke-linecap: square"/>
     </g>
     <g id="line2d_37">
      <g>
       <use xlink:href="#mf17a299632" x="370.685781" y="168.885375" style="stroke: #000000; stroke-width: 0.8"/>
      </g>
     </g>
     <g id="text_22">
      <!-- 2 -->
      <g transform="translate(357.323281 172.684203) scale(0.1 -0.1)">
       <use xlink:href="#DejaVuSans-15"/>
      </g>
     </g>
    </g>
    <g id="ytick_9">
     <g id="line2d_38">
      <path d="M 370.685781 125.231109 
L 661.843438 125.231109 
" clip-path="url(#p132590f942)" style="fill: none; stroke: #b0b0b0; stroke-opacity: 0.3; stroke-width: 0.8; stroke-linecap: square"/>
     </g>
     <g id="line2d_39">
      <g>
       <use xlink:href="#mf17a299632" x="370.685781" y="125.231109" style="stroke: #000000; stroke-width: 0.8"/>
      </g>
     </g>
     <g id="text_23">
      <!-- 3 -->
      <g transform="translate(357.323281 129.029937) scale(0.1 -0.1)">
       <defs>
        <path id="DejaVuSans-16" d="M 2597 2516 
Q 3050 2419 3304 2112 
Q 3559 1806 3559 1356 
Q 3559 666 3084 287 
Q 2609 -91 1734 -91 
Q 1441 -91 1130 -33 
Q 819 25 488 141 
L 488 750 
Q 750 597 1062 519 
Q 1375 441 1716 441 
Q 2309 441 2620 675 
Q 2931 909 2931 1356 
Q 2931 1769 2642 2001 
Q 2353 2234 1838 2234 
L 1294 2234 
L 1294 2753 
L 1863 2753 
Q 2328 2753 2575 2939 
Q 2822 3125 2822 3475 
Q 2822 3834 2567 4026 
Q 2313 4219 1838 4219 
Q 1578 4219 1281 4162 
Q 984 4106 628 3988 
L 628 4550 
Q 988 4650 1302 4700 
Q 1616 4750 1894 4750 
Q 2613 4750 3031 4423 
Q 3450 4097 3450 3541 
Q 3450 3153 3228 2886 
Q 3006 2619 2597 2516 
z
" transform="scale(0.015625)"/>
       </defs>
       <use xlink:href="#DejaVuSans-16"/>
      </g>
     </g>
    </g>
    <g id="ytick_10">
     <g id="line2d_40">
      <path d="M 370.685781 81.576844 
L 661.843438 81.576844 
" clip-path="url(#p132590f942)" style="fill: none; stroke: #b0b0b0; stroke-opacity: 0.3; stroke-width: 0.8; stroke-linecap: square"/>
     </g>
     <g id="line2d_41">
      <g>
       <use xlink:href="#mf17a299632" x="370.685781" y="81.576844" style="stroke: #000000; stroke-width: 0.8"/>
      </g>
     </g>
     <g id="text_24">
      <!-- 4 -->
      <g transform="translate(357.323281 85.375672) scale(0.1 -0.1)">
       <defs>
        <path id="DejaVuSans-17" d="M 2419 4116 
L 825 1625 
L 2419 1625 
L 2419 4116 
z
M 2253 4666 
L 3047 4666 
L 3047 1625 
L 3713 1625 
L 3713 1100 
L 3047 1100 
L 3047 0 
L 2419 0 
L 2419 1100 
L 313 1100 
L 313 1709 
L 2253 4666 
z
" transform="scale(0.015625)"/>
       </defs>
       <use xlink:href="#DejaVuSans-17"/>
      </g>
     </g>
    </g>
    <g id="ytick_11">
     <g id="line2d_42">
      <path d="M 370.685781 37.922578 
L 661.843438 37.922578 
" clip-path="url(#p132590f942)" style="fill: none; stroke: #b0b0b0; stroke-opacity: 0.3; stroke-width: 0.8; stroke-linecap: square"/>
     </g>
     <g id="line2d_43">
      <g>
       <use xlink:href="#mf17a299632" x="370.685781" y="37.922578" style="stroke: #000000; stroke-width: 0.8"/>
      </g>
     </g>
     <g id="text_25">
      <!-- 5 -->
      <g transform="translate(357.323281 41.721406) scale(0.1 -0.1)">
       <use xlink:href="#DejaVuSans-18"/>
      </g>
     </g>
    </g>
    <g id="text_26">
     <!-- ducats (willing-to-pay) -->
     <g transform="translate(350.920938 203.176211) rotate(-90) scale(0.1 -0.1)">
      <defs>
       <path id="DejaVuSans-5a" d="M 269 3500 
L 844 3500 
L 1563 769 
L 2278 3500 
L 2956 3500 
L 3675 769 
L 4391 3500 
L 4966 3500 
L 4050 0 
L 3372 0 
L 2619 2869 
L 1863 0 
L 1184 0 
L 269 3500 
z
" transform="scale(0.015625)"/>
       <path id="DejaVuSans-10" d="M 313 2009 
L 1997 2009 
L 1997 1497 
L 313 1497 
L 313 2009 
z
" transform="scale(0.015625)"/>
      </defs>
      <use xlink:href="#DejaVuSans-47"/>
      <use xlink:href="#DejaVuSans-58" transform="translate(63.484375 0)"/>
      <use xlink:href="#DejaVuSans-46" transform="translate(126.859375 0)"/>
      <use xlink:href="#DejaVuSans-44" transform="translate(181.84375 0)"/>
      <use xlink:href="#DejaVuSans-57" transform="translate(243.125 0)"/>
      <use xlink:href="#DejaVuSans-56" transform="translate(282.328125 0)"/>
      <use xlink:href="#DejaVuSans-3" transform="translate(334.421875 0)"/>
      <use xlink:href="#DejaVuSans-b" transform="translate(366.203125 0)"/>
      <use xlink:href="#DejaVuSans-5a" transform="translate(405.21875 0)"/>
      <use xlink:href="#DejaVuSans-4c" transform="translate(487 0)"/>
      <use xlink:href="#DejaVuSans-4f" transform="translate(514.78125 0)"/>
      <use xlink:href="#DejaVuSans-4f" transform="translate(542.5625 0)"/>
      <use xlink:href="#DejaVuSans-4c" transform="translate(570.34375 0)"/>
      <use xlink:href="#DejaVuSans-51" transform="translate(598.125 0)"/>
      <use xlink:href="#DejaVuSans-4a" transform="translate(661.5 0)"/>
      <use xlink:href="#DejaVuSans-10" transform="translate(724.984375 0)"/>
      <use xlink:href="#DejaVuSans-57" transform="translate(761.0625 0)"/>
      <use xlink:href="#DejaVuSans-52" transform="translate(800.265625 0)"/>
      <use xlink:href="#DejaVuSans-10" transform="translate(863.3125 0)"/>
      <use xlink:href="#DejaVuSans-53" transform="translate(899.390625 0)"/>
      <use xlink:href="#DejaVuSans-44" transform="translate(962.875 0)"/>
      <use xlink:href="#DejaVuSans-5c" transform="translate(1024.15625 0)"/>
      <use xlink:href="#DejaVuSans-c" transform="translate(1083.34375 0)"/>
     </g>
    </g>
   </g>
   <g id="line2d_44">
    <path d="M 383.92022 194.457452 
L 396.524448 168.885375 
L 409.128675 142.968749 
L 421.732903 121.545744 
L 434.33713 106.14378 
L 446.941358 96.069354 
L 459.545585 89.883086 
L 472.149813 86.241353 
L 484.754041 84.157946 
L 497.358268 82.989481 
L 509.962496 82.343447 
L 522.566723 81.990049 
L 535.170951 81.798325 
L 547.775178 81.695002 
L 560.379406 81.639625 
L 572.983633 81.610084 
L 585.587861 81.594388 
L 598.192088 81.586078 
L 610.796316 81.581692 
L 623.400543 81.579383 
L 636.004771 81.578171 
L 648.608999 81.577536 
" clip-path="url(#p132590f942)" style="fill: none; stroke: #1e7d32; stroke-width: 1.5; stroke-linecap: square"/>
    <defs>
     <path id="mf75cca759e" d="M 0 1.5 
C 0.397805 1.5 0.77937 1.341951 1.06066 1.06066 
C 1.341951 0.77937 1.5 0.397805 1.5 0 
C 1.5 -0.397805 1.341951 -0.77937 1.06066 -1.06066 
C 0.77937 -1.341951 0.397805 -1.5 0 -1.5 
C -0.397805 -1.5 -0.77937 -1.341951 -1.06066 -1.06066 
C -1.341951 -0.77937 -1.5 -0.397805 -1.5 0 
C -1.5 0.397805 -1.341951 0.77937 -1.06066 1.06066 
C -0.77937 1.341951 -0.397805 1.5 0 1.5 
z
" style="stroke: #1e7d32"/>
    </defs>
    <g clip-path="url(#p132590f942)">
     <use xlink:href="#mf75cca759e" x="383.92022" y="194.457452" style="fill: #1e7d32; stroke: #1e7d32"/>
     <use xlink:href="#mf75cca759e" x="396.524448" y="168.885375" style="fill: #1e7d32; stroke: #1e7d32"/>
     <use xlink:href="#mf75cca759e" x="409.128675" y="142.968749" style="fill: #1e7d32; stroke: #1e7d32"/>
     <use xlink:href="#mf75cca759e" x="421.732903" y="121.545744" style="fill: #1e7d32; stroke: #1e7d32"/>
     <use xlink:href="#mf75cca759e" x="434.33713" y="106.14378" style="fill: #1e7d32; stroke: #1e7d32"/>
     <use xlink:href="#mf75cca759e" x="446.941358" y="96.069354" style="fill: #1e7d32; stroke: #1e7d32"/>
     <use xlink:href="#mf75cca759e" x="459.545585" y="89.883086" style="fill: #1e7d32; stroke: #1e7d32"/>
     <use xlink:href="#mf75cca759e" x="472.149813" y="86.241353" style="fill: #1e7d32; stroke: #1e7d32"/>
     <use xlink:href="#mf75cca759e" x="484.754041" y="84.157946" style="fill: #1e7d32; stroke: #1e7d32"/>
     <use xlink:href="#mf75cca759e" x="497.358268" y="82.989481" style="fill: #1e7d32; stroke: #1e7d32"/>
     <use xlink:href="#mf75cca759e" x="509.962496" y="82.343447" style="fill: #1e7d32; stroke: #1e7d32"/>
     <use xlink:href="#mf75cca759e" x="522.566723" y="81.990049" style="fill: #1e7d32; stroke: #1e7d32"/>
     <use xlink:href="#mf75cca759e" x="535.170951" y="81.798325" style="fill: #1e7d32; stroke: #1e7d32"/>
     <use xlink:href="#mf75cca759e" x="547.775178" y="81.695002" style="fill: #1e7d32; stroke: #1e7d32"/>
     <use xlink:href="#mf75cca759e" x="560.379406" y="81.639625" style="fill: #1e7d32; stroke: #1e7d32"/>
     <use xlink:href="#mf75cca759e" x="572.983633" y="81.610084" style="fill: #1e7d32; stroke: #1e7d32"/>
     <use xlink:href="#mf75cca759e" x="585.587861" y="81.594388" style="fill: #1e7d32; stroke: #1e7d32"/>
     <use xlink:href="#mf75cca759e" x="598.192088" y="81.586078" style="fill: #1e7d32; stroke: #1e7d32"/>
     <use xlink:href="#mf75cca759e" x="610.796316" y="81.581692" style="fill: #1e7d32; stroke: #1e7d32"/>
     <use xlink:href="#mf75cca759e" x="623.400543" y="81.579383" style="fill: #1e7d32; stroke: #1e7d32"/>
     <use xlink:href="#mf75cca759e" x="636.004771" y="81.578171" style="fill: #1e7d32; stroke: #1e7d32"/>
     <use xlink:href="#mf75cca759e" x="648.608999" y="81.577536" style="fill: #1e7d32; stroke: #1e7d32"/>
    </g>
   </g>
   <g id="line2d_45">
    <path d="M 370.685781 81.576844 
L 661.843438 81.576844 
" clip-path="url(#p132590f942)" style="fill: none; stroke-dasharray: 3.7,1.6; stroke-dashoffset: 0; stroke: #808080"/>
   </g>
   <g id="patch_8">
    <path d="M 370.685781 256.193906 
L 370.685781 37.922578 
" style="fill: none; stroke: #000000; stroke-width: 0.8; stroke-linejoin: miter; stroke-linecap: square"/>
   </g>
   <g id="patch_9">
    <path d="M 661.843438 256.193906 
L 661.843438 37.922578 
" style="fill: none; stroke: #000000; stroke-width: 0.8; stroke-linejoin: miter; stroke-linecap: square"/>
   </g>
   <g id="patch_10">
    <path d="M 370.685781 256.193906 
L 661.843438 256.193906 
" style="fill: none; stroke: #000000; stroke-width: 0.8; stroke-linejoin: miter; stroke-linecap: square"/>
   </g>
   <g id="patch_11">
    <path d="M 370.685781 37.922578 
L 661.843438 37.922578 
" style="fill: none; stroke: #000000; stroke-width: 0.8; stroke-linejoin: miter; stroke-linecap: square"/>
   </g>
   <g id="text_27">
    <!-- limit = 4 ducats -->
    <g style="fill: #808080" transform="translate(509.962496 75.028704) scale(0.09 -0.09)">
     <use xlink:href="#DejaVuSans-4f"/>
     <use xlink:href="#DejaVuSans-4c" transform="translate(27.78125 0)"/>
     <use xlink:href="#DejaVuSans-50" transform="translate(55.5625 0)"/>
     <use xlink:href="#DejaVuSans-4c" transform="translate(152.96875 0)"/>
     <use xlink:href="#DejaVuSans-57" transform="translate(180.75 0)"/>
     <use xlink:href="#DejaVuSans-3" transform="translate(219.953125 0)"/>
     <use xlink:href="#DejaVuSans-20" transform="translate(251.734375 0)"/>
     <use xlink:href="#DejaVuSans-3" transform="translate(335.53125 0)"/>
     <use xlink:href="#DejaVuSans-17" transform="translate(367.3125 0)"/>
     <use xlink:href="#DejaVuSans-3" transform="translate(430.9375 0)"/>
     <use xlink:href="#DejaVuSans-47" transform="translate(462.71875 0)"/>
     <use xlink:href="#DejaVuSans-58" transform="translate(526.203125 0)"/>
     <use xlink:href="#DejaVuSans-46" transform="translate(589.578125 0)"/>
     <use xlink:href="#DejaVuSans-44" transform="translate(644.5625 0)"/>
     <use xlink:href="#DejaVuSans-57" transform="translate(705.84375 0)"/>
     <use xlink:href="#DejaVuSans-56" transform="translate(745.046875 0)"/>
    </g>
   </g>
   <g id="text_28">
    <!-- Same series under log utility -->
    <g transform="translate(430.068047 17.519297) scale(0.12 -0.12)">
     <use xlink:href="#DejaVuSans-36"/>
     <use xlink:href="#DejaVuSans-44" transform="translate(63.484375 0)"/>
     <use xlink:href="#DejaVuSans-50" transform="translate(124.765625 0)"/>
     <use xlink:href="#DejaVuSans-48" transform="translate(222.171875 0)"/>
     <use xlink:href="#DejaVuSans-3" transform="translate(283.703125 0)"/>
     <use xlink:href="#DejaVuSans-56" transform="translate(315.484375 0)"/>
     <use xlink:href="#DejaVuSans-48" transform="translate(367.578125 0)"/>
     <use xlink:href="#DejaVuSans-55" transform="translate(429.109375 0)"/>
     <use xlink:href="#DejaVuSans-4c" transform="translate(470.21875 0)"/>
     <use xlink:href="#DejaVuSans-48" transform="translate(498 0)"/>
     <use xlink:href="#DejaVuSans-56" transform="translate(559.53125 0)"/>
     <use xlink:href="#DejaVuSans-3" transform="translate(611.625 0)"/>
     <use xlink:href="#DejaVuSans-58" transform="translate(643.40625 0)"/>
     <use xlink:href="#DejaVuSans-51" transform="translate(706.78125 0)"/>
     <use xlink:href="#DejaVuSans-47" transform="translate(770.15625 0)"/>
     <use xlink:href="#DejaVuSans-48" transform="translate(833.640625 0)"/>
     <use xlink:href="#DejaVuSans-55" transform="translate(895.171875 0)"/>
     <use xlink:href="#DejaVuSans-3" transform="translate(936.28125 0)"/>
     <use xlink:href="#DejaVuSans-4f" transform="translate(968.0625 0)"/>
     <use xlink:href="#DejaVuSans-52" transform="translate(995.84375 0)"/>
     <use xlink:href="#DejaVuSans-4a" transform="translate(1057.03125 0)"/>
     <use xlink:href="#DejaVuSans-3" transform="translate(1120.515625 0)"/>
     <use xlink:href="#DejaVuSans-58" transform="translate(1152.296875 0)"/>
     <use xlink:href="#DejaVuSans-57" transform="translate(1215.671875 0)"/>
     <use xlink:href="#DejaVuSans-4c" transform="translate(1254.875 0)"/>
     <use xlink:href="#DejaVuSans-4f" transform="translate(1282.65625 0)"/>
     <use xlink:href="#DejaVuSans-4c" transform="translate(1310.4375 0)"/>
     <use xlink:href="#DejaVuSans-57" transform="translate(1338.21875 0)"/>
     <use xlink:href="#DejaVuSans-5c" transform="translate(1377.421875 0)"/>
    </g>
    <!-- certainty-equivalent price saturates -->
    <g transform="translate(408.616172 31.922578) scale(0.12 -0.12)">
     <defs>
      <path id="DejaVuSans-54" d="M 947 1747 
Q 947 1113 1208 752 
Q 1469 391 1925 391 
Q 2381 391 2643 752 
Q 2906 1113 2906 1747 
Q 2906 2381 2643 2742 
Q 2381 3103 1925 3103 
Q 1469 3103 1208 2742 
Q 947 2381 947 1747 
z
M 2906 525 
Q 2725 213 2448 61 
Q 2172 -91 1784 -91 
Q 1150 -91 751 415 
Q 353 922 353 1747 
Q 353 2572 751 3078 
Q 1150 3584 1784 3584 
Q 2172 3584 2448 3432 
Q 2725 3281 2906 2969 
L 2906 3500 
L 3481 3500 
L 3481 -1331 
L 2906 -1331 
L 2906 525 
z
" transform="scale(0.015625)"/>
     </defs>
     <use xlink:href="#DejaVuSans-46"/>
     <use xlink:href="#DejaVuSans-48" transform="translate(54.984375 0)"/>
     <use xlink:href="#DejaVuSans-55" transform="translate(116.515625 0)"/>
     <use xlink:href="#DejaVuSans-57" transform="translate(157.625 0)"/>
     <use xlink:href="#DejaVuSans-44" transform="translate(196.828125 0)"/>
     <use xlink:href="#DejaVuSans-4c" transform="translate(258.109375 0)"/>
     <use xlink:href="#DejaVuSans-51" transform="translate(285.890625 0)"/>
     <use xlink:href="#DejaVuSans-57" transform="translate(349.265625 0)"/>
     <use xlink:href="#DejaVuSans-5c" transform="translate(388.46875 0)"/>
     <use xlink:href="#DejaVuSans-10" transform="translate(445.90625 0)"/>
     <use xlink:href="#DejaVuSans-48" transform="translate(481.984375 0)"/>
     <use xlink:href="#DejaVuSans-54" transform="translate(543.515625 0)"/>
     <use xlink:href="#DejaVuSans-58" transform="translate(607 0)"/>
     <use xlink:href="#DejaVuSans-4c" transform="translate(670.375 0)"/>
     <use xlink:href="#DejaVuSans-59" transform="translate(698.15625 0)"/>
     <use xlink:href="#DejaVuSans-44" transform="translate(757.34375 0)"/>
     <use xlink:href="#DejaVuSans-4f" transform="translate(818.625 0)"/>
     <use xlink:href="#DejaVuSans-48" transform="translate(846.40625 0)"/>
     <use xlink:href="#DejaVuSans-51" transform="translate(907.9375 0)"/>
     <use xlink:href="#DejaVuSans-57" transform="translate(971.3125 0)"/>
     <use xlink:href="#DejaVuSans-3" transform="translate(1010.515625 0)"/>
     <use xlink:href="#DejaVuSans-53" transform="translate(1042.296875 0)"/>
     <use xlink:href="#DejaVuSans-55" transform="translate(1105.78125 0)"/>
     <use xlink:href="#DejaVuSans-4c" transform="translate(1146.890625 0)"/>
     <use xlink:href="#DejaVuSans-46" transform="translate(1174.671875 0)"/>
     <use xlink:href="#DejaVuSans-48" transform="translate(1229.65625 0)"/>
     <use xlink:href="#DejaVuSans-3" transform="translate(1291.1875 0)"/>
     <use xlink:href="#DejaVuSans-56" transform="translate(1322.96875 0)"/>
     <use xlink:href="#DejaVuSans-44" transform="translate(1375.0625 0)"/>
     <use xlink:href="#DejaVuSans-57" transform="translate(1436.34375 0)"/>
     <use xlink:href="#DejaVuSans-58" transform="translate(1475.546875 0)"/>
     <use xlink:href="#DejaVuSans-55" transform="translate(1538.921875 0)"/>
     <use xlink:href="#DejaVuSans-44" transform="translate(1580.03125 0)"/>
     <use xlink:href="#DejaVuSans-57" transform="translate(1641.3125 0)"/>
     <use xlink:href="#DejaVuSans-48" transform="translate(1680.515625 0)"/>
     <use xlink:href="#DejaVuSans-56" transform="translate(1742.046875 0)"/>
    </g>
   </g>
  </g>
 </g>
 <defs>
  <clipPath id="p4f7783a01d">
   <rect x="40.925781" y="37.922578" width="291.157656" height="218.271328"/>
  </clipPath>
  <clipPath id="p132590f942">
   <rect x="370.685781" y="37.922578" width="291.157656" height="218.271328"/>
  </clipPath>
 </defs>
</svg>
