<?xml version="1.0" encoding="utf-8" standalone="no"?>
<!DOCTYPE svg PUBLIC "-//W3C//DTD SVG 1.1//EN"
  "http://www.w3.org/Graphics/SVG/1.1/DTD/svg11.dtd">
<svg xmlns:xlink="http://www.w3.org/1999/xlink" width="856.8pt" height="412.848pt" viewBox="0 0 856.8 412.848" xmlns="http://www.w3.org/2000/svg" version="1.1">
 <metadata>
  <rdf:RDF xmlns:dc="http://purl.org/dc/elements/1.1/" xmlns:cc="http://creativecommons.org/ns#" xmlns:rdf="http://www.w3.org/1999/02/22-rdf-syntax-ns#">
   <cc:Work>
    <dc:type rdf:resource="http://purl.org/dc/dcmitype/StillImage"/>
    <dc:date>2026-07-02T00:35:59.852430</dc:date>
    <dc:format>image/svg+xml</dc:format>
    <dc:creator>
     <cc:Agent>
      <dc:title>Matplotlib v3.11.0, https://matplotlib.org/</dc:title>
     </cc:Agent>
    </dc:creator>
   </cc:Work>
  </rdf:RDF>
 </metadata>
 <defs>
  <style type="text/css">*{stroke-linejoin: round; stroke-linecap: butt}</style>
 </defs>
 <g id="figure_1">
  <g id="patch_1">
   <path d="M 0 412.848 
L 856.8 412.848 
L 856.8 0 
L 0 0 
z
" style="fill: #ffffff"/>
  </g>
  <g id="axes_1">
   <g id="line2d_1">
    <path d="M 105.035294 199.773714 
L 264.017647 116.137286 
" clip-path="url(#p4a443dc32a)" style="fill: none; stroke: #c0392b; stroke-width: 1.3; stroke-linecap: square"/>
   </g>
   <g id="line2d_2">
    <path d="M 105.035294 199.773714 
L 264.017647 283.410143 
" clip-path="url(#p4a443dc32a)" style="fill: none; stroke: #c0392b; stroke-width: 1.3; stroke-linecap: square"/>
   </g>
   <g id="text_1">
    <g id="patch_2">
     <path d="M 68.567716 207.153714 
L 141.502872 207.153714 
Q 144.382872 207.153714 144.382872 204.273714 
L 144.382872 195.273714 
Q 144.382872 192.393714 141.502872 192.393714 
L 68.567716 192.393714 
Q 65.687716 192.393714 65.687716 195.273714 
L 65.687716 204.273714 
Q 65.687716 207.153714 68.567716 207.153714 
z
" style="fill: #eef2f6; stroke: #595959; stroke-linejoin: miter"/>
    </g>
    <!-- You see Y = 800 -->
    <g transform="translate(68.567716 202.111605) scale(0.09 -0.09)">
     <defs>
      <path id="DejaVuSans-3c" d="M -13 4666 
L 666 4666 
L 1959 2747 
L 3244 4666 
L 3922 4666 
L 2272 2222 
L 2272 0 
L 1638 0 
L 1638 2222 
L -13 4666 
z
" transform="scale(0.015625)"/>
      <path id="DejaVuSans-52" d="M 1959 3097 
Q 1497 3097 1228 2736 
Q 959 2375 959 1747 
Q 959 1119 1226 758 
Q 1494 397 1959 397 
Q 2419 397 2687 759 
Q 2956 1122 2956 1747 
Q 2956 2369 2687 2733 
Q 2419 3097 1959 3097 
z
M 1959 3584 
Q 2709 3584 3137 3096 
Q 3566 2609 3566 1747 
Q 3566 888 3137 398 
Q 2709 -91 1959 -91 
Q 1206 -91 779 398 
Q 353 888 353 1747 
Q 353 2609 779 3096 
Q 1206 3584 1959 3584 
z
" transform="scale(0.015625)"/>
      <path id="DejaVuSans-58" d="M 544 1381 
L 544 3500 
L 1119 3500 
L 1119 1403 
Q 1119 906 1312 657 
Q 1506 409 1894 409 
Q 2359 409 2629 706 
Q 2900 1003 2900 1516 
L 2900 3500 
L 3475 3500 
L 3475 0 
L 2900 0 
L 2900 538 
Q 2691 219 2414 64 
Q 2138 -91 1772 -91 
Q 1169 -91 856 284 
Q 544 659 544 1381 
z
M 1991 3584 
L 1991 3584 
z
" transform="scale(0.015625)"/>
      <path id="DejaVuSans-3" transform="scale(0.015625)"/>
      <path id="DejaVuSans-56" d="M 2834 3397 
L 2834 2853 
Q 2591 2978 2328 3040 
Q 2066 3103 1784 3103 
Q 1356 3103 1142 2972 
Q 928 2841 928 2578 
Q 928 2378 1081 2264 
Q 1234 2150 1697 2047 
L 1894 2003 
Q 2506 1872 2764 1633 
Q 3022 1394 3022 966 
Q 3022 478 2636 193 
Q 2250 -91 1575 -91 
Q 1294 -91 989 -36 
Q 684 19 347 128 
L 347 722 
Q 666 556 975 473 
Q 1284 391 1588 391 
Q 1994 391 2212 530 
Q 2431 669 2431 922 
Q 2431 1156 2273 1281 
Q 2116 1406 1581 1522 
L 1381 1569 
Q 847 1681 609 1914 
Q 372 2147 372 2553 
Q 372 3047 722 3315 
Q 1072 3584 1716 3584 
Q 2034 3584 2315 3537 
Q 2597 3491 2834 3397 
z
" transform="scale(0.015625)"/>
      <path id="DejaVuSans-48" d="M 3597 1894 
L 3597 1613 
L 953 1613 
Q 991 1019 1311 708 
Q 1631 397 2203 397 
Q 2534 397 2845 478 
Q 3156 559 3463 722 
L 3463 178 
Q 3153 47 2828 -22 
Q 2503 -91 2169 -91 
Q 1331 -91 842 396 
Q 353 884 353 1716 
Q 353 2575 817 3079 
Q 1281 3584 2069 3584 
Q 2775 3584 3186 3129 
Q 3597 2675 3597 1894 
z
M 3022 2063 
Q 3016 2534 2758 2815 
Q 2500 3097 2075 3097 
Q 1594 3097 1305 2825 
Q 1016 2553 972 2059 
L 3022 2063 
z
" transform="scale(0.015625)"/>
      <path id="DejaVuSans-20" d="M 678 2906 
L 4684 2906 
L 4684 2381 
L 678 2381 
L 678 2906 
z
M 678 1631 
L 4684 1631 
L 4684 1100 
L 678 1100 
L 678 1631 
z
" transform="scale(0.015625)"/>
      <path id="DejaVuSans-1b" d="M 2034 2216 
Q 1584 2216 1326 1975 
Q 1069 1734 1069 1313 
Q 1069 891 1326 650 
Q 1584 409 2034 409 
Q 2484 409 2743 651 
Q 3003 894 3003 1313 
Q 3003 1734 2745 1975 
Q 2488 2216 2034 2216 
z
M 1403 2484 
Q 997 2584 770 2862 
Q 544 3141 544 3541 
Q 544 4100 942 4425 
Q 1341 4750 2034 4750 
Q 2731 4750 3128 4425 
Q 3525 4100 3525 3541 
Q 3525 3141 3298 2862 
Q 3072 2584 2669 2484 
Q 3125 2378 3379 2068 
Q 3634 1759 3634 1313 
Q 3634 634 3220 271 
Q 2806 -91 2034 -91 
Q 1263 -91 848 271 
Q 434 634 434 1313 
Q 434 1759 690 2068 
Q 947 2378 1403 2484 
z
M 1172 3481 
Q 1172 3119 1398 2916 
Q 1625 2713 2034 2713 
Q 2441 2713 2670 2916 
Q 2900 3119 2900 3481 
Q 2900 3844 2670 4047 
Q 2441 4250 2034 4250 
Q 1625 4250 1398 4047 
Q 1172 3844 1172 3481 
z
" transform="scale(0.015625)"/>
      <path id="DejaVuSans-13" d="M 2034 4250 
Q 1547 4250 1301 3770 
Q 1056 3291 1056 2328 
Q 1056 1369 1301 889 
Q 1547 409 2034 409 
Q 2525 409 2770 889 
Q 3016 1369 3016 2328 
Q 3016 3291 2770 3770 
Q 2525 4250 2034 4250 
z
M 2034 4750 
Q 2819 4750 3233 4129 
Q 3647 3509 3647 2328 
Q 3647 1150 3233 529 
Q 2819 -91 2034 -91 
Q 1250 -91 836 529 
Q 422 1150 422 2328 
Q 422 3509 836 4129 
Q 1250 4750 2034 4750 
z
" transform="scale(0.015625)"/>
     </defs>
     <use xlink:href="#DejaVuSans-3c"/>
     <use xlink:href="#DejaVuSans-52" transform="translate(47.796875 0)"/>
     <use xlink:href="#DejaVuSans-58" transform="translate(108.984375 0)"/>
     <use xlink:href="#DejaVuSans-3" transform="translate(172.359375 0)"/>
     <use xlink:href="#DejaVuSans-56" transform="translate(204.140625 0)"/>
     <use xlink:href="#DejaVuSans-48" transform="translate(256.234375 0)"/>
     <use xlink:href="#DejaVuSans-48" transform="translate(317.765625 0)"/>
     <use xlink:href="#DejaVuSans-3" transform="translate(379.296875 0)"/>
     <use xlink:href="#DejaVuSans-3c" transform="translate(411.078125 0)"/>
     <use xlink:href="#DejaVuSans-3" transform="translate(472.15625 0)"/>
     <use xlink:href="#DejaVuSans-20" transform="translate(503.9375 0)"/>
     <use xlink:href="#DejaVuSans-3" transform="translate(587.734375 0)"/>
     <use xlink:href="#DejaVuSans-1b" transform="translate(619.515625 0)"/>
     <use xlink:href="#DejaVuSans-13" transform="translate(683.140625 0)"/>
     <use xlink:href="#DejaVuSans-13" transform="translate(746.765625 0)"/>
    </g>
   </g>
   <g id="text_2">
    <!-- assumed 1/2 -->
    <g style="fill: #c0392b" transform="translate(158.767096 147.661786) scale(0.08 -0.08)">
     <defs>
      <path id="DejaVuSans-44" d="M 2194 1759 
Q 1497 1759 1228 1600 
Q 959 1441 959 1056 
Q 959 750 1161 570 
Q 1363 391 1709 391 
Q 2188 391 2477 730 
Q 2766 1069 2766 1631 
L 2766 1759 
L 2194 1759 
z
M 3341 1997 
L 3341 0 
L 2766 0 
L 2766 531 
Q 2569 213 2275 61 
Q 1981 -91 1556 -91 
Q 1019 -91 701 211 
Q 384 513 384 1019 
Q 384 1609 779 1909 
Q 1175 2209 1959 2209 
L 2766 2209 
L 2766 2266 
Q 2766 2663 2505 2880 
Q 2244 3097 1772 3097 
Q 1472 3097 1187 3025 
Q 903 2953 641 2809 
L 641 3341 
Q 956 3463 1253 3523 
Q 1550 3584 1831 3584 
Q 2591 3584 2966 3190 
Q 3341 2797 3341 1997 
z
" transform="scale(0.015625)"/>
      <path id="DejaVuSans-50" d="M 3328 2828 
Q 3544 3216 3844 3400 
Q 4144 3584 4550 3584 
Q 5097 3584 5394 3201 
Q 5691 2819 5691 2113 
L 5691 0 
L 5113 0 
L 5113 2094 
Q 5113 2597 4934 2840 
Q 4756 3084 4391 3084 
Q 3944 3084 3684 2787 
Q 3425 2491 3425 1978 
L 3425 0 
L 2847 0 
L 2847 2094 
Q 2847 2600 2669 2842 
Q 2491 3084 2119 3084 
Q 1678 3084 1418 2786 
Q 1159 2488 1159 1978 
L 1159 0 
L 581 0 
L 581 3500 
L 1159 3500 
L 1159 2956 
Q 1356 3278 1631 3431 
Q 1906 3584 2284 3584 
Q 2666 3584 2933 3390 
Q 3200 3197 3328 2828 
z
" transform="scale(0.015625)"/>
      <path id="DejaVuSans-47" d="M 2906 2969 
L 2906 4863 
L 3481 4863 
L 3481 0 
L 2906 0 
L 2906 525 
Q 2725 213 2448 61 
Q 2172 -91 1784 -91 
Q 1150 -91 751 415 
Q 353 922 353 1747 
Q 353 2572 751 3078 
Q 1150 3584 1784 3584 
Q 2172 3584 2448 3432 
Q 2725 3281 2906 2969 
z
M 947 1747 
Q 947 1113 1208 752 
Q 1469 391 1925 391 
Q 2381 391 2643 752 
Q 2906 1113 2906 1747 
Q 2906 2381 2643 2742 
Q 2381 3103 1925 3103 
Q 1469 3103 1208 2742 
Q 947 2381 947 1747 
z
" transform="scale(0.015625)"/>
      <path id="DejaVuSans-14" d="M 794 531 
L 1825 531 
L 1825 4091 
L 703 3866 
L 703 4441 
L 1819 4666 
L 2450 4666 
L 2450 531 
L 3481 531 
L 3481 0 
L 794 0 
L 794 531 
z
" transform="scale(0.015625)"/>
      <path id="DejaVuSans-12" d="M 1625 4666 
L 2156 4666 
L 531 -594 
L 0 -594 
L 1625 4666 
z
" transform="scale(0.015625)"/>
      <path id="DejaVuSans-15" d="M 1228 531 
L 3431 531 
L 3431 0 
L 469 0 
L 469 531 
Q 828 903 1448 1529 
Q 2069 2156 2228 2338 
Q 2531 2678 2651 2914 
Q 2772 3150 2772 3378 
Q 2772 3750 2511 3984 
Q 2250 4219 1831 4219 
Q 1534 4219 1204 4116 
Q 875 4013 500 3803 
L 500 4441 
Q 881 4594 1212 4672 
Q 1544 4750 1819 4750 
Q 2544 4750 2975 4387 
Q 3406 4025 3406 3419 
Q 3406 3131 3298 2873 
Q 3191 2616 2906 2266 
Q 2828 2175 2409 1742 
Q 1991 1309 1228 531 
z
" transform="scale(0.015625)"/>
     </defs>
     <use xlink:href="#DejaVuSans-44"/>
     <use xlink:href="#DejaVuSans-56" transform="translate(61.28125 0)"/>
     <use xlink:href="#DejaVuSans-56" transform="translate(113.375 0)"/>
     <use xlink:href="#DejaVuSans-58" transform="translate(165.46875 0)"/>
     <use xlink:href="#DejaVuSans-50" transform="translate(228.84375 0)"/>
     <use xlink:href="#DejaVuSans-48" transform="translate(326.25 0)"/>
     <use xlink:href="#DejaVuSans-47" transform="translate(387.78125 0)"/>
     <use xlink:href="#DejaVuSans-3" transform="translate(451.265625 0)"/>
     <use xlink:href="#DejaVuSans-14" transform="translate(483.046875 0)"/>
     <use xlink:href="#DejaVuSans-12" transform="translate(546.671875 0)"/>
     <use xlink:href="#DejaVuSans-15" transform="translate(580.359375 0)"/>
    </g>
   </g>
   <g id="text_3">
    <g id="patch_3">
     <path d="M 227.036788 129.819747 
L 300.998506 129.819747 
Q 303.878506 129.819747 303.878506 126.939747 
L 303.878506 105.334825 
Q 303.878506 102.454825 300.998506 102.454825 
L 227.036788 102.454825 
Q 224.156788 102.454825 224.156788 105.334825 
L 224.156788 126.939747 
Q 224.156788 129.819747 227.036788 129.819747 
z
" style="fill: #f6dada; stroke: #595959; stroke-linejoin: miter"/>
    </g>
    <!-- other = 1600 -->
    <g transform="translate(233.945694 113.074297) scale(0.09 -0.09)">
     <defs>
      <path id="DejaVuSans-57" d="M 1172 4494 
L 1172 3500 
L 2356 3500 
L 2356 3053 
L 1172 3053 
L 1172 1153 
Q 1172 725 1289 603 
Q 1406 481 1766 481 
L 2356 481 
L 2356 0 
L 1766 0 
Q 1100 0 847 248 
Q 594 497 594 1153 
L 594 3053 
L 172 3053 
L 172 3500 
L 594 3500 
L 594 4494 
L 1172 4494 
z
" transform="scale(0.015625)"/>
      <path id="DejaVuSans-4b" d="M 3513 2113 
L 3513 0 
L 2938 0 
L 2938 2094 
Q 2938 2591 2744 2837 
Q 2550 3084 2163 3084 
Q 1697 3084 1428 2787 
Q 1159 2491 1159 1978 
L 1159 0 
L 581 0 
L 581 4863 
L 1159 4863 
L 1159 2956 
Q 1366 3272 1645 3428 
Q 1925 3584 2291 3584 
Q 2894 3584 3203 3211 
Q 3513 2838 3513 2113 
z
" transform="scale(0.015625)"/>
      <path id="DejaVuSans-55" d="M 2631 2963 
Q 2534 3019 2420 3045 
Q 2306 3072 2169 3072 
Q 1681 3072 1420 2755 
Q 1159 2438 1159 1844 
L 1159 0 
L 581 0 
L 581 3500 
L 1159 3500 
L 1159 2956 
Q 1341 3275 1631 3429 
Q 1922 3584 2338 3584 
Q 2397 3584 2469 3576 
Q 2541 3569 2628 3553 
L 2631 2963 
z
" transform="scale(0.015625)"/>
      <path id="DejaVuSans-19" d="M 2113 2584 
Q 1688 2584 1439 2293 
Q 1191 2003 1191 1497 
Q 1191 994 1439 701 
Q 1688 409 2113 409 
Q 2538 409 2786 701 
Q 3034 994 3034 1497 
Q 3034 2003 2786 2293 
Q 2538 2584 2113 2584 
z
M 3366 4563 
L 3366 3988 
Q 3128 4100 2886 4159 
Q 2644 4219 2406 4219 
Q 1781 4219 1451 3797 
Q 1122 3375 1075 2522 
Q 1259 2794 1537 2939 
Q 1816 3084 2150 3084 
Q 2853 3084 3261 2657 
Q 3669 2231 3669 1497 
Q 3669 778 3244 343 
Q 2819 -91 2113 -91 
Q 1303 -91 875 529 
Q 447 1150 447 2328 
Q 447 3434 972 4092 
Q 1497 4750 2381 4750 
Q 2619 4750 2861 4703 
Q 3103 4656 3366 4563 
z
" transform="scale(0.015625)"/>
     </defs>
     <use xlink:href="#DejaVuSans-52"/>
     <use xlink:href="#DejaVuSans-57" transform="translate(61.1875 0)"/>
     <use xlink:href="#DejaVuSans-4b" transform="translate(100.390625 0)"/>
     <use xlink:href="#DejaVuSans-48" transform="translate(163.765625 0)"/>
     <use xlink:href="#DejaVuSans-55" transform="translate(225.296875 0)"/>
     <use xlink:href="#DejaVuSans-3" transform="translate(266.40625 0)"/>
     <use xlink:href="#DejaVuSans-20" transform="translate(298.1875 0)"/>
     <use xlink:href="#DejaVuSans-3" transform="translate(381.984375 0)"/>
     <use xlink:href="#DejaVuSans-14" transform="translate(413.765625 0)"/>
     <use xlink:href="#DejaVuSans-19" transform="translate(477.390625 0)"/>
     <use xlink:href="#DejaVuSans-13" transform="translate(541.015625 0)"/>
     <use xlink:href="#DejaVuSans-13" transform="translate(604.640625 0)"/>
    </g>
    <!-- (does not exist!) -->
    <g transform="translate(227.036788 123.876758) scale(0.09 -0.09)">
     <defs>
      <path id="DejaVuSans-b" d="M 1984 4856 
Q 1566 4138 1362 3434 
Q 1159 2731 1159 2009 
Q 1159 1288 1364 580 
Q 1569 -128 1984 -844 
L 1484 -844 
Q 1016 -109 783 600 
Q 550 1309 550 2009 
Q 550 2706 781 3412 
Q 1013 4119 1484 4856 
L 1984 4856 
z
" transform="scale(0.015625)"/>
      <path id="DejaVuSans-51" d="M 3513 2113 
L 3513 0 
L 2938 0 
L 2938 2094 
Q 2938 2591 2744 2837 
Q 2550 3084 2163 3084 
Q 1697 3084 1428 2787 
Q 1159 2491 1159 1978 
L 1159 0 
L 581 0 
L 581 3500 
L 1159 3500 
L 1159 2956 
Q 1366 3272 1645 3428 
Q 1925 3584 2291 3584 
Q 2894 3584 3203 3211 
Q 3513 2838 3513 2113 
z
" transform="scale(0.015625)"/>
      <path id="DejaVuSans-5b" d="M 3513 3500 
L 2247 1797 
L 3578 0 
L 2900 0 
L 1881 1375 
L 863 0 
L 184 0 
L 1544 1831 
L 300 3500 
L 978 3500 
L 1906 2253 
L 2834 3500 
L 3513 3500 
z
" transform="scale(0.015625)"/>
      <path id="DejaVuSans-4c" d="M 603 3500 
L 1178 3500 
L 1178 0 
L 603 0 
L 603 3500 
z
M 603 4863 
L 1178 4863 
L 1178 4134 
L 603 4134 
L 603 4863 
z
" transform="scale(0.015625)"/>
      <path id="DejaVuSans-4" d="M 966 794 
L 1600 794 
L 1600 0 
L 966 0 
L 966 794 
z
M 966 4666 
L 1600 4666 
L 1600 2619 
L 1538 1503 
L 1031 1503 
L 966 2619 
L 966 4666 
z
" transform="scale(0.015625)"/>
      <path id="DejaVuSans-c" d="M 513 4856 
L 1013 4856 
Q 1481 4119 1714 3412 
Q 1947 2706 1947 2009 
Q 1947 1309 1714 600 
Q 1481 -109 1013 -844 
L 513 -844 
Q 928 -128 1133 580 
Q 1338 1288 1338 2009 
Q 1338 2731 1133 3434 
Q 928 4138 513 4856 
z
" transform="scale(0.015625)"/>
     </defs>
     <use xlink:href="#DejaVuSans-b"/>
     <use xlink:href="#DejaVuSans-47" transform="translate(39.015625 0)"/>
     <use xlink:href="#DejaVuSans-52" transform="translate(102.5 0)"/>
     <use xlink:href="#DejaVuSans-48" transform="translate(163.6875 0)"/>
     <use xlink:href="#DejaVuSans-56" transform="translate(225.21875 0)"/>
     <use xlink:href="#DejaVuSans-3" transform="translate(277.3125 0)"/>
     <use xlink:href="#DejaVuSans-51" transform="translate(309.09375 0)"/>
     <use xlink:href="#DejaVuSans-52" transform="translate(372.46875 0)"/>
     <use xlink:href="#DejaVuSans-57" transform="translate(433.65625 0)"/>
     <use xlink:href="#DejaVuSans-3" transform="translate(472.859375 0)"/>
     <use xlink:href="#DejaVuSans-48" transform="translate(504.640625 0)"/>
     <use xlink:href="#DejaVuSans-5b" transform="translate(564.421875 0)"/>
     <use xlink:href="#DejaVuSans-4c" transform="translate(623.609375 0)"/>
     <use xlink:href="#DejaVuSans-56" transform="translate(651.390625 0)"/>
     <use xlink:href="#DejaVuSans-57" transform="translate(703.484375 0)"/>
     <use xlink:href="#DejaVuSans-4" transform="translate(742.6875 0)"/>
     <use xlink:href="#DejaVuSans-c" transform="translate(782.78125 0)"/>
    </g>
   </g>
   <g id="text_4">
    <!-- assumed 1/2 -->
    <g style="fill: #c0392b" transform="translate(158.767096 231.298214) scale(0.08 -0.08)">
     <use xlink:href="#DejaVuSans-44"/>
     <use xlink:href="#DejaVuSans-56" transform="translate(61.28125 0)"/>
     <use xlink:href="#DejaVuSans-56" transform="translate(113.375 0)"/>
     <use xlink:href="#DejaVuSans-58" transform="translate(165.46875 0)"/>
     <use xlink:href="#DejaVuSans-50" transform="translate(228.84375 0)"/>
     <use xlink:href="#DejaVuSans-48" transform="translate(326.25 0)"/>
     <use xlink:href="#DejaVuSans-47" transform="translate(387.78125 0)"/>
     <use xlink:href="#DejaVuSans-3" transform="translate(451.265625 0)"/>
     <use xlink:href="#DejaVuSans-14" transform="translate(483.046875 0)"/>
     <use xlink:href="#DejaVuSans-12" transform="translate(546.671875 0)"/>
     <use xlink:href="#DejaVuSans-15" transform="translate(580.359375 0)"/>
    </g>
   </g>
   <g id="text_5">
    <g id="patch_4">
     <path d="M 236.808819 290.790494 
L 291.226475 290.790494 
Q 294.106475 290.790494 294.106475 287.910494 
L 294.106475 278.909791 
Q 294.106475 276.029791 291.226475 276.029791 
L 236.808819 276.029791 
Q 233.928819 276.029791 233.928819 278.909791 
L 233.928819 287.910494 
Q 233.928819 290.790494 236.808819 290.790494 
z
" style="fill: #f6dada; stroke: #595959; stroke-linejoin: miter"/>
    </g>
    <!-- other = 400 -->
    <g transform="translate(236.808819 285.748385) scale(0.09 -0.09)">
     <defs>
      <path id="DejaVuSans-17" d="M 2419 4116 
L 825 1625 
L 2419 1625 
L 2419 4116 
z
M 2253 4666 
L 3047 4666 
L 3047 1625 
L 3713 1625 
L 3713 1100 
L 3047 1100 
L 3047 0 
L 2419 0 
L 2419 1100 
L 313 1100 
L 313 1709 
L 2253 4666 
z
" transform="scale(0.015625)"/>
     </defs>
     <use xlink:href="#DejaVuSans-52"/>
     <use xlink:href="#DejaVuSans-57" transform="translate(61.1875 0)"/>
     <use xlink:href="#DejaVuSans-4b" transform="translate(100.390625 0)"/>
     <use xlink:href="#DejaVuSans-48" transform="translate(163.765625 0)"/>
     <use xlink:href="#DejaVuSans-55" transform="translate(225.296875 0)"/>
     <use xlink:href="#DejaVuSans-3" transform="translate(266.40625 0)"/>
     <use xlink:href="#DejaVuSans-20" transform="translate(298.1875 0)"/>
     <use xlink:href="#DejaVuSans-3" transform="translate(381.984375 0)"/>
     <use xlink:href="#DejaVuSans-17" transform="translate(413.765625 0)"/>
     <use xlink:href="#DejaVuSans-13" transform="translate(477.390625 0)"/>
     <use xlink:href="#DejaVuSans-13" transform="translate(541.015625 0)"/>
    </g>
   </g>
   <g id="text_6">
    <!-- naive formula: E[other] = 1.25 x 800 = 1000 -->
    <g style="fill: #c0392b" transform="translate(87.814096 350.290648) scale(0.086 -0.086)">
     <defs>
      <path id="DejaVuSans-59" d="M 191 3500 
L 800 3500 
L 1894 563 
L 2988 3500 
L 3597 3500 
L 2284 0 
L 1503 0 
L 191 3500 
z
" transform="scale(0.015625)"/>
      <path id="DejaVuSans-49" d="M 2375 4863 
L 2375 4384 
L 1825 4384 
Q 1516 4384 1395 4259 
Q 1275 4134 1275 3809 
L 1275 3500 
L 2222 3500 
L 2222 3053 
L 1275 3053 
L 1275 0 
L 697 0 
L 697 3053 
L 147 3053 
L 147 3500 
L 697 3500 
L 697 3744 
Q 697 4328 969 4595 
Q 1241 4863 1831 4863 
L 2375 4863 
z
" transform="scale(0.015625)"/>
      <path id="DejaVuSans-4f" d="M 603 4863 
L 1178 4863 
L 1178 0 
L 603 0 
L 603 4863 
z
" transform="scale(0.015625)"/>
      <path id="DejaVuSans-1d" d="M 750 794 
L 1409 794 
L 1409 0 
L 750 0 
L 750 794 
z
M 750 3309 
L 1409 3309 
L 1409 2516 
L 750 2516 
L 750 3309 
z
" transform="scale(0.015625)"/>
      <path id="DejaVuSans-28" d="M 628 4666 
L 3578 4666 
L 3578 4134 
L 1259 4134 
L 1259 2753 
L 3481 2753 
L 3481 2222 
L 1259 2222 
L 1259 531 
L 3634 531 
L 3634 0 
L 628 0 
L 628 4666 
z
" transform="scale(0.015625)"/>
      <path id="DejaVuSans-3e" d="M 550 4863 
L 1875 4863 
L 1875 4416 
L 1125 4416 
L 1125 -397 
L 1875 -397 
L 1875 -844 
L 550 -844 
L 550 4863 
z
" transform="scale(0.015625)"/>
      <path id="DejaVuSans-40" d="M 1947 4863 
L 1947 -844 
L 622 -844 
L 622 -397 
L 1369 -397 
L 1369 4416 
L 622 4416 
L 622 4863 
L 1947 4863 
z
" transform="scale(0.015625)"/>
      <path id="DejaVuSans-11" d="M 684 794 
L 1344 794 
L 1344 0 
L 684 0 
L 684 794 
z
" transform="scale(0.015625)"/>
      <path id="DejaVuSans-18" d="M 691 4666 
L 3169 4666 
L 3169 4134 
L 1269 4134 
L 1269 2991 
Q 1406 3038 1543 3061 
Q 1681 3084 1819 3084 
Q 2600 3084 3056 2656 
Q 3513 2228 3513 1497 
Q 3513 744 3044 326 
Q 2575 -91 1722 -91 
Q 1428 -91 1123 -41 
Q 819 9 494 109 
L 494 744 
Q 775 591 1075 516 
Q 1375 441 1709 441 
Q 2250 441 2565 725 
Q 2881 1009 2881 1497 
Q 2881 1984 2565 2268 
Q 2250 2553 1709 2553 
Q 1456 2553 1204 2497 
Q 953 2441 691 2322 
L 691 4666 
z
" transform="scale(0.015625)"/>
     </defs>
     <use xlink:href="#DejaVuSans-51"/>
     <use xlink:href="#DejaVuSans-44" transform="translate(63.375 0)"/>
     <use xlink:href="#DejaVuSans-4c" transform="translate(124.65625 0)"/>
     <use xlink:href="#DejaVuSans-59" transform="translate(152.4375 0)"/>
     <use xlink:href="#DejaVuSans-48" transform="translate(211.625 0)"/>
     <use xlink:href="#DejaVuSans-3" transform="translate(273.15625 0)"/>
     <use xlink:href="#DejaVuSans-49" transform="translate(304.9375 0)"/>
     <use xlink:href="#DejaVuSans-52" transform="translate(340.140625 0)"/>
     <use xlink:href="#DejaVuSans-55" transform="translate(401.328125 0)"/>
     <use xlink:href="#DejaVuSans-50" transform="translate(440.6875 0)"/>
     <use xlink:href="#DejaVuSans-58" transform="translate(538.09375 0)"/>
     <use xlink:href="#DejaVuSans-4f" transform="translate(601.46875 0)"/>
     <use xlink:href="#DejaVuSans-44" transform="translate(629.25 0)"/>
     <use xlink:href="#DejaVuSans-1d" transform="translate(690.53125 0)"/>
     <use xlink:href="#DejaVuSans-3" transform="translate(724.21875 0)"/>
     <use xlink:href="#DejaVuSans-28" transform="translate(756 0)"/>
     <use xlink:href="#DejaVuSans-3e" transform="translate(819.1875 0)"/>
     <use xlink:href="#DejaVuSans-52" transform="translate(858.203125 0)"/>
     <use xlink:href="#DejaVuSans-57" transform="translate(919.390625 0)"/>
     <use xlink:href="#DejaVuSans-4b" transform="translate(958.59375 0)"/>
     <use xlink:href="#DejaVuSans-48" transform="translate(1021.96875 0)"/>
     <use xlink:href="#DejaVuSans-55" transform="translate(1083.5 0)"/>
     <use xlink:href="#DejaVuSans-40" transform="translate(1124.609375 0)"/>
     <use xlink:href="#DejaVuSans-3" transform="translate(1163.625 0)"/>
     <use xlink:href="#DejaVuSans-20" transform="translate(1195.40625 0)"/>
     <use xlink:href="#DejaVuSans-3" transform="translate(1279.203125 0)"/>
     <use xlink:href="#DejaVuSans-14" transform="translate(1310.984375 0)"/>
     <use xlink:href="#DejaVuSans-11" transform="translate(1374.609375 0)"/>
     <use xlink:href="#DejaVuSans-15" transform="translate(1406.390625 0)"/>
     <use xlink:href="#DejaVuSans-18" transform="translate(1470.015625 0)"/>
     <use xlink:href="#DejaVuSans-3" transform="translate(1533.640625 0)"/>
     <use xlink:href="#DejaVuSans-5b" transform="translate(1565.421875 0)"/>
     <use xlink:href="#DejaVuSans-3" transform="translate(1624.609375 0)"/>
     <use xlink:href="#DejaVuSans-1b" transform="translate(1656.390625 0)"/>
     <use xlink:href="#DejaVuSans-13" transform="translate(1720.015625 0)"/>
     <use xlink:href="#DejaVuSans-13" transform="translate(1783.640625 0)"/>
     <use xlink:href="#DejaVuSans-3" transform="translate(1847.265625 0)"/>
     <use xlink:href="#DejaVuSans-20" transform="translate(1879.046875 0)"/>
     <use xlink:href="#DejaVuSans-3" transform="translate(1962.84375 0)"/>
     <use xlink:href="#DejaVuSans-14" transform="translate(1994.625 0)"/>
     <use xlink:href="#DejaVuSans-13" transform="translate(2058.25 0)"/>
     <use xlink:href="#DejaVuSans-13" transform="translate(2121.875 0)"/>
     <use xlink:href="#DejaVuSans-13" transform="translate(2185.5 0)"/>
    </g>
    <!-- (claims a +200 gain) -->
    <g style="fill: #c0392b" transform="translate(139.523611 360.613) scale(0.086 -0.086)">
     <defs>
      <path id="DejaVuSans-46" d="M 3122 3366 
L 3122 2828 
Q 2878 2963 2633 3030 
Q 2388 3097 2138 3097 
Q 1578 3097 1268 2742 
Q 959 2388 959 1747 
Q 959 1106 1268 751 
Q 1578 397 2138 397 
Q 2388 397 2633 464 
Q 2878 531 3122 666 
L 3122 134 
Q 2881 22 2623 -34 
Q 2366 -91 2075 -91 
Q 1284 -91 818 406 
Q 353 903 353 1747 
Q 353 2603 823 3093 
Q 1294 3584 2113 3584 
Q 2378 3584 2631 3529 
Q 2884 3475 3122 3366 
z
" transform="scale(0.015625)"/>
      <path id="DejaVuSans-e" d="M 2944 4013 
L 2944 2272 
L 4684 2272 
L 4684 1741 
L 2944 1741 
L 2944 0 
L 2419 0 
L 2419 1741 
L 678 1741 
L 678 2272 
L 2419 2272 
L 2419 4013 
L 2944 4013 
z
" transform="scale(0.015625)"/>
      <path id="DejaVuSans-4a" d="M 2906 1791 
Q 2906 2416 2648 2759 
Q 2391 3103 1925 3103 
Q 1463 3103 1205 2759 
Q 947 2416 947 1791 
Q 947 1169 1205 825 
Q 1463 481 1925 481 
Q 2391 481 2648 825 
Q 2906 1169 2906 1791 
z
M 3481 434 
Q 3481 -459 3084 -895 
Q 2688 -1331 1869 -1331 
Q 1566 -1331 1297 -1286 
Q 1028 -1241 775 -1147 
L 775 -588 
Q 1028 -725 1275 -790 
Q 1522 -856 1778 -856 
Q 2344 -856 2625 -561 
Q 2906 -266 2906 331 
L 2906 616 
Q 2728 306 2450 153 
Q 2172 0 1784 0 
Q 1141 0 747 490 
Q 353 981 353 1791 
Q 353 2603 747 3093 
Q 1141 3584 1784 3584 
Q 2172 3584 2450 3431 
Q 2728 3278 2906 2969 
L 2906 3500 
L 3481 3500 
L 3481 434 
z
" transform="scale(0.015625)"/>
     </defs>
     <use xlink:href="#DejaVuSans-b"/>
     <use xlink:href="#DejaVuSans-46" transform="translate(39.015625 0)"/>
     <use xlink:href="#DejaVuSans-4f" transform="translate(94 0)"/>
     <use xlink:href="#DejaVuSans-44" transform="translate(121.78125 0)"/>
     <use xlink:href="#DejaVuSans-4c" transform="translate(183.0625 0)"/>
     <use xlink:href="#DejaVuSans-50" transform="translate(210.84375 0)"/>
     <use xlink:href="#DejaVuSans-56" transform="translate(308.25 0)"/>
     <use xlink:href="#DejaVuSans-3" transform="translate(360.34375 0)"/>
     <use xlink:href="#DejaVuSans-44" transform="translate(392.125 0)"/>
     <use xlink:href="#DejaVuSans-3" transform="translate(453.40625 0)"/>
     <use xlink:href="#DejaVuSans-e" transform="translate(485.1875 0)"/>
     <use xlink:href="#DejaVuSans-15" transform="translate(568.984375 0)"/>
     <use xlink:href="#DejaVuSans-13" transform="translate(632.609375 0)"/>
     <use xlink:href="#DejaVuSans-13" transform="translate(696.234375 0)"/>
     <use xlink:href="#DejaVuSans-3" transform="translate(759.859375 0)"/>
     <use xlink:href="#DejaVuSans-4a" transform="translate(791.640625 0)"/>
     <use xlink:href="#DejaVuSans-44" transform="translate(855.125 0)"/>
     <use xlink:href="#DejaVuSans-4c" transform="translate(916.40625 0)"/>
     <use xlink:href="#DejaVuSans-51" transform="translate(944.1875 0)"/>
     <use xlink:href="#DejaVuSans-c" transform="translate(1007.5625 0)"/>
    </g>
   </g>
   <g id="text_7">
    <!-- config 1: naive tree (same shape for every Y) -->
    <g transform="translate(101.842969 39.368) scale(0.1 -0.1)">
     <defs>
      <path id="DejaVuSans-13af" d="M 3431 3500 
L 3431 0 
L 2853 0 
L 2853 3053 
L 1275 3053 
L 1275 0 
L 697 0 
L 697 3053 
L 147 3053 
L 147 3500 
L 697 3500 
L 697 3744 
Q 697 4316 967 4589 
Q 1238 4863 1797 4863 
L 2375 4863 
L 2375 4384 
L 1825 4384 
Q 1516 4384 1395 4259 
Q 1275 4134 1275 3809 
L 1275 3500 
L 3431 3500 
z
M 2853 4856 
L 3431 4856 
L 3431 4128 
L 2853 4128 
L 2853 4856 
z
" transform="scale(0.015625)"/>
      <path id="DejaVuSans-53" d="M 1159 525 
L 1159 -1331 
L 581 -1331 
L 581 3500 
L 1159 3500 
L 1159 2969 
Q 1341 3281 1617 3432 
Q 1894 3584 2278 3584 
Q 2916 3584 3314 3078 
Q 3713 2572 3713 1747 
Q 3713 922 3314 415 
Q 2916 -91 2278 -91 
Q 1894 -91 1617 61 
Q 1341 213 1159 525 
z
M 3116 1747 
Q 3116 2381 2855 2742 
Q 2594 3103 2138 3103 
Q 1681 3103 1420 2742 
Q 1159 2381 1159 1747 
Q 1159 1113 1420 752 
Q 1681 391 2138 391 
Q 2594 391 2855 752 
Q 3116 1113 3116 1747 
z
" transform="scale(0.015625)"/>
      <path id="DejaVuSans-5c" d="M 2059 -325 
Q 1816 -950 1584 -1140 
Q 1353 -1331 966 -1331 
L 506 -1331 
L 506 -850 
L 844 -850 
Q 1081 -850 1212 -737 
Q 1344 -625 1503 -206 
L 1606 56 
L 191 3500 
L 800 3500 
L 1894 763 
L 2988 3500 
L 3597 3500 
L 2059 -325 
z
" transform="scale(0.015625)"/>
     </defs>
     <use xlink:href="#DejaVuSans-46"/>
     <use xlink:href="#DejaVuSans-52" transform="translate(54.984375 0)"/>
     <use xlink:href="#DejaVuSans-51" transform="translate(116.171875 0)"/>
     <use xlink:href="#DejaVuSans-13af" transform="translate(179.546875 0)"/>
     <use xlink:href="#DejaVuSans-4a" transform="translate(242.53125 0)"/>
     <use xlink:href="#DejaVuSans-3" transform="translate(306.015625 0)"/>
     <use xlink:href="#DejaVuSans-14" transform="translate(337.796875 0)"/>
     <use xlink:href="#DejaVuSans-1d" transform="translate(401.421875 0)"/>
     <use xlink:href="#DejaVuSans-3" transform="translate(435.109375 0)"/>
     <use xlink:href="#DejaVuSans-51" transform="translate(466.890625 0)"/>
     <use xlink:href="#DejaVuSans-44" transform="translate(530.265625 0)"/>
     <use xlink:href="#DejaVuSans-4c" transform="translate(591.546875 0)"/>
     <use xlink:href="#DejaVuSans-59" transform="translate(619.328125 0)"/>
     <use xlink:href="#DejaVuSans-48" transform="translate(678.515625 0)"/>
     <use xlink:href="#DejaVuSans-3" transform="translate(740.046875 0)"/>
     <use xlink:href="#DejaVuSans-57" transform="translate(771.828125 0)"/>
     <use xlink:href="#DejaVuSans-55" transform="translate(811.03125 0)"/>
     <use xlink:href="#DejaVuSans-48" transform="translate(849.9375 0)"/>
     <use xlink:href="#DejaVuSans-48" transform="translate(911.46875 0)"/>
     <use xlink:href="#DejaVuSans-3" transform="translate(973 0)"/>
     <use xlink:href="#DejaVuSans-b" transform="translate(1004.78125 0)"/>
     <use xlink:href="#DejaVuSans-56" transform="translate(1043.796875 0)"/>
     <use xlink:href="#DejaVuSans-44" transform="translate(1095.890625 0)"/>
     <use xlink:href="#DejaVuSans-50" transform="translate(1157.171875 0)"/>
     <use xlink:href="#DejaVuSans-48" transform="translate(1254.578125 0)"/>
     <use xlink:href="#DejaVuSans-3" transform="translate(1316.109375 0)"/>
     <use xlink:href="#DejaVuSans-56" transform="translate(1347.890625 0)"/>
     <use xlink:href="#DejaVuSans-4b" transform="translate(1399.984375 0)"/>
     <use xlink:href="#DejaVuSans-44" transform="translate(1463.359375 0)"/>
     <use xlink:href="#DejaVuSans-53" transform="translate(1524.640625 0)"/>
     <use xlink:href="#DejaVuSans-48" transform="translate(1588.125 0)"/>
     <use xlink:href="#DejaVuSans-3" transform="translate(1649.65625 0)"/>
     <use xlink:href="#DejaVuSans-49" transform="translate(1681.4375 0)"/>
     <use xlink:href="#DejaVuSans-52" transform="translate(1716.640625 0)"/>
     <use xlink:href="#DejaVuSans-55" transform="translate(1777.828125 0)"/>
     <use xlink:href="#DejaVuSans-3" transform="translate(1818.9375 0)"/>
     <use xlink:href="#DejaVuSans-48" transform="translate(1850.71875 0)"/>
     <use xlink:href="#DejaVuSans-59" transform="translate(1912.25 0)"/>
     <use xlink:href="#DejaVuSans-48" transform="translate(1971.4375 0)"/>
     <use xlink:href="#DejaVuSans-55" transform="translate(2032.96875 0)"/>
     <use xlink:href="#DejaVuSans-5c" transform="translate(2074.078125 0)"/>
     <use xlink:href="#DejaVuSans-3" transform="translate(2133.265625 0)"/>
     <use xlink:href="#DejaVuSans-3c" transform="translate(2165.046875 0)"/>
     <use xlink:href="#DejaVuSans-c" transform="translate(2226.125 0)"/>
    </g>
   </g>
  </g>
  <g id="axes_2">
   <g id="line2d_3">
    <path d="M 531.635294 199.773714 
L 702.847059 199.773714 
" clip-path="url(#p9cc1178af6)" style="fill: none; stroke: #2b6cb0; stroke-width: 1.3; stroke-linecap: square"/>
   </g>
   <g id="text_8">
    <g id="patch_5">
     <path d="M 495.167716 207.153714 
L 568.102872 207.153714 
Q 570.982872 207.153714 570.982872 204.273714 
L 570.982872 195.273714 
Q 570.982872 192.393714 568.102872 192.393714 
L 495.167716 192.393714 
Q 492.287716 192.393714 492.287716 195.273714 
L 492.287716 204.273714 
Q 492.287716 207.153714 495.167716 207.153714 
z
" style="fill: #eef2f6; stroke: #595959; stroke-linejoin: miter"/>
    </g>
    <!-- You see Y = 800 -->
    <g transform="translate(495.167716 202.111605) scale(0.09 -0.09)">
     <use xlink:href="#DejaVuSans-3c"/>
     <use xlink:href="#DejaVuSans-52" transform="translate(47.796875 0)"/>
     <use xlink:href="#DejaVuSans-58" transform="translate(108.984375 0)"/>
     <use xlink:href="#DejaVuSans-3" transform="translate(172.359375 0)"/>
     <use xlink:href="#DejaVuSans-56" transform="translate(204.140625 0)"/>
     <use xlink:href="#DejaVuSans-48" transform="translate(256.234375 0)"/>
     <use xlink:href="#DejaVuSans-48" transform="translate(317.765625 0)"/>
     <use xlink:href="#DejaVuSans-3" transform="translate(379.296875 0)"/>
     <use xlink:href="#DejaVuSans-3c" transform="translate(411.078125 0)"/>
     <use xlink:href="#DejaVuSans-3" transform="translate(472.15625 0)"/>
     <use xlink:href="#DejaVuSans-20" transform="translate(503.9375 0)"/>
     <use xlink:href="#DejaVuSans-3" transform="translate(587.734375 0)"/>
     <use xlink:href="#DejaVuSans-1b" transform="translate(619.515625 0)"/>
     <use xlink:href="#DejaVuSans-13" transform="translate(683.140625 0)"/>
     <use xlink:href="#DejaVuSans-13" transform="translate(746.765625 0)"/>
    </g>
   </g>
   <g id="text_9">
    <!-- posterior = 1 -->
    <g style="fill: #2b6cb0" transform="translate(590.854301 179.877812) scale(0.08 -0.08)">
     <use xlink:href="#DejaVuSans-53"/>
     <use xlink:href="#DejaVuSans-52" transform="translate(63.484375 0)"/>
     <use xlink:href="#DejaVuSans-56" transform="translate(124.671875 0)"/>
     <use xlink:href="#DejaVuSans-57" transform="translate(176.765625 0)"/>
     <use xlink:href="#DejaVuSans-48" transform="translate(215.96875 0)"/>
     <use xlink:href="#DejaVuSans-55" transform="translate(277.5 0)"/>
     <use xlink:href="#DejaVuSans-4c" transform="translate(318.609375 0)"/>
     <use xlink:href="#DejaVuSans-52" transform="translate(346.390625 0)"/>
     <use xlink:href="#DejaVuSans-55" transform="translate(407.578125 0)"/>
     <use xlink:href="#DejaVuSans-3" transform="translate(448.6875 0)"/>
     <use xlink:href="#DejaVuSans-20" transform="translate(480.46875 0)"/>
     <use xlink:href="#DejaVuSans-3" transform="translate(564.265625 0)"/>
     <use xlink:href="#DejaVuSans-14" transform="translate(596.046875 0)"/>
    </g>
    <!-- (only tier a=400 fits) -->
    <g style="fill: #2b6cb0" transform="translate(575.450551 189.48) scale(0.08 -0.08)">
     <use xlink:href="#DejaVuSans-b"/>
     <use xlink:href="#DejaVuSans-52" transform="translate(39.015625 0)"/>
     <use xlink:href="#DejaVuSans-51" transform="translate(100.203125 0)"/>
     <use xlink:href="#DejaVuSans-4f" transform="translate(163.578125 0)"/>
     <use xlink:href="#DejaVuSans-5c" transform="translate(191.359375 0)"/>
     <use xlink:href="#DejaVuSans-3" transform="translate(250.546875 0)"/>
     <use xlink:href="#DejaVuSans-57" transform="translate(282.328125 0)"/>
     <use xlink:href="#DejaVuSans-4c" transform="translate(321.53125 0)"/>
     <use xlink:href="#DejaVuSans-48" transform="translate(349.3125 0)"/>
     <use xlink:href="#DejaVuSans-55" transform="translate(410.84375 0)"/>
     <use xlink:href="#DejaVuSans-3" transform="translate(451.953125 0)"/>
     <use xlink:href="#DejaVuSans-44" transform="translate(483.734375 0)"/>
     <use xlink:href="#DejaVuSans-20" transform="translate(545.015625 0)"/>
     <use xlink:href="#DejaVuSans-17" transform="translate(628.8125 0)"/>
     <use xlink:href="#DejaVuSans-13" transform="translate(692.4375 0)"/>
     <use xlink:href="#DejaVuSans-13" transform="translate(756.0625 0)"/>
     <use xlink:href="#DejaVuSans-3" transform="translate(819.6875 0)"/>
     <use xlink:href="#DejaVuSans-13af" transform="translate(851.46875 0)"/>
     <use xlink:href="#DejaVuSans-57" transform="translate(914.453125 0)"/>
     <use xlink:href="#DejaVuSans-56" transform="translate(953.65625 0)"/>
     <use xlink:href="#DejaVuSans-c" transform="translate(1005.75 0)"/>
    </g>
   </g>
   <g id="text_10">
    <g id="patch_6">
     <path d="M 675.638231 213.456175 
L 730.055887 213.456175 
Q 732.935887 213.456175 732.935887 210.576175 
L 732.935887 188.971253 
Q 732.935887 186.091253 730.055887 186.091253 
L 675.638231 186.091253 
Q 672.758231 186.091253 672.758231 188.971253 
L 672.758231 210.576175 
Q 672.758231 213.456175 675.638231 213.456175 
z
" style="fill: #dbf6df; stroke: #595959; stroke-linejoin: miter"/>
    </g>
    <!-- other = 400 -->
    <g transform="translate(675.638231 196.710726) scale(0.09 -0.09)">
     <use xlink:href="#DejaVuSans-52"/>
     <use xlink:href="#DejaVuSans-57" transform="translate(61.1875 0)"/>
     <use xlink:href="#DejaVuSans-4b" transform="translate(100.390625 0)"/>
     <use xlink:href="#DejaVuSans-48" transform="translate(163.765625 0)"/>
     <use xlink:href="#DejaVuSans-55" transform="translate(225.296875 0)"/>
     <use xlink:href="#DejaVuSans-3" transform="translate(266.40625 0)"/>
     <use xlink:href="#DejaVuSans-20" transform="translate(298.1875 0)"/>
     <use xlink:href="#DejaVuSans-3" transform="translate(381.984375 0)"/>
     <use xlink:href="#DejaVuSans-17" transform="translate(413.765625 0)"/>
     <use xlink:href="#DejaVuSans-13" transform="translate(477.390625 0)"/>
     <use xlink:href="#DejaVuSans-13" transform="translate(541.015625 0)"/>
    </g>
    <!-- (certain) -->
    <g transform="translate(683.618699 207.513187) scale(0.09 -0.09)">
     <use xlink:href="#DejaVuSans-b"/>
     <use xlink:href="#DejaVuSans-46" transform="translate(39.015625 0)"/>
     <use xlink:href="#DejaVuSans-48" transform="translate(94 0)"/>
     <use xlink:href="#DejaVuSans-55" transform="translate(155.53125 0)"/>
     <use xlink:href="#DejaVuSans-57" transform="translate(196.640625 0)"/>
     <use xlink:href="#DejaVuSans-44" transform="translate(235.84375 0)"/>
     <use xlink:href="#DejaVuSans-4c" transform="translate(297.125 0)"/>
     <use xlink:href="#DejaVuSans-51" transform="translate(324.90625 0)"/>
     <use xlink:href="#DejaVuSans-c" transform="translate(388.28125 0)"/>
    </g>
   </g>
   <g id="text_11">
    <!-- true E[other] = 400  -&gt;  gain = -400 -->
    <g style="fill: #2b6cb0" transform="translate(538.977145 292.388506) scale(0.086 -0.086)">
     <defs>
      <path id="DejaVuSans-10" d="M 313 2009 
L 1997 2009 
L 1997 1497 
L 313 1497 
L 313 2009 
z
" transform="scale(0.015625)"/>
      <path id="DejaVuSans-21" d="M 678 3150 
L 678 3719 
L 4684 2266 
L 4684 1747 
L 678 294 
L 678 863 
L 3897 2003 
L 678 3150 
z
" transform="scale(0.015625)"/>
     </defs>
     <use xlink:href="#DejaVuSans-57"/>
     <use xlink:href="#DejaVuSans-55" transform="translate(39.203125 0)"/>
     <use xlink:href="#DejaVuSans-58" transform="translate(80.3125 0)"/>
     <use xlink:href="#DejaVuSans-48" transform="translate(143.6875 0)"/>
     <use xlink:href="#DejaVuSans-3" transform="translate(205.21875 0)"/>
     <use xlink:href="#DejaVuSans-28" transform="translate(237 0)"/>
     <use xlink:href="#DejaVuSans-3e" transform="translate(300.1875 0)"/>
     <use xlink:href="#DejaVuSans-52" transform="translate(339.203125 0)"/>
     <use xlink:href="#DejaVuSans-57" transform="translate(400.390625 0)"/>
     <use xlink:href="#DejaVuSans-4b" transform="translate(439.59375 0)"/>
     <use xlink:href="#DejaVuSans-48" transform="translate(502.96875 0)"/>
     <use xlink:href="#DejaVuSans-55" transform="translate(564.5 0)"/>
     <use xlink:href="#DejaVuSans-40" transform="translate(605.609375 0)"/>
     <use xlink:href="#DejaVuSans-3" transform="translate(644.625 0)"/>
     <use xlink:href="#DejaVuSans-20" transform="translate(676.40625 0)"/>
     <use xlink:href="#DejaVuSans-3" transform="translate(760.203125 0)"/>
     <use xlink:href="#DejaVuSans-17" transform="translate(791.984375 0)"/>
     <use xlink:href="#DejaVuSans-13" transform="translate(855.609375 0)"/>
     <use xlink:href="#DejaVuSans-13" transform="translate(919.234375 0)"/>
     <use xlink:href="#DejaVuSans-3" transform="translate(982.859375 0)"/>
     <use xlink:href="#DejaVuSans-3" transform="translate(1014.640625 0)"/>
     <use xlink:href="#DejaVuSans-10" transform="translate(1046.421875 0)"/>
     <use xlink:href="#DejaVuSans-21" transform="translate(1082.5 0)"/>
     <use xlink:href="#DejaVuSans-3" transform="translate(1166.296875 0)"/>
     <use xlink:href="#DejaVuSans-3" transform="translate(1198.078125 0)"/>
     <use xlink:href="#DejaVuSans-4a" transform="translate(1229.859375 0)"/>
     <use xlink:href="#DejaVuSans-44" transform="translate(1293.34375 0)"/>
     <use xlink:href="#DejaVuSans-4c" transform="translate(1354.625 0)"/>
     <use xlink:href="#DejaVuSans-51" transform="translate(1382.40625 0)"/>
     <use xlink:href="#DejaVuSans-3" transform="translate(1445.78125 0)"/>
     <use xlink:href="#DejaVuSans-20" transform="translate(1477.5625 0)"/>
     <use xlink:href="#DejaVuSans-3" transform="translate(1561.359375 0)"/>
     <use xlink:href="#DejaVuSans-10" transform="translate(1593.140625 0)"/>
     <use xlink:href="#DejaVuSans-17" transform="translate(1629.21875 0)"/>
     <use xlink:href="#DejaVuSans-13" transform="translate(1692.84375 0)"/>
     <use xlink:href="#DejaVuSans-13" transform="translate(1756.46875 0)"/>
    </g>
    <!-- (the top of the ladder has no room above it) -->
    <g style="fill: #2b6cb0" transform="translate(522.431551 302.710857) scale(0.086 -0.086)">
     <defs>
      <path id="DejaVuSans-45" d="M 3116 1747 
Q 3116 2381 2855 2742 
Q 2594 3103 2138 3103 
Q 1681 3103 1420 2742 
Q 1159 2381 1159 1747 
Q 1159 1113 1420 752 
Q 1681 391 2138 391 
Q 2594 391 2855 752 
Q 3116 1113 3116 1747 
z
M 1159 2969 
Q 1341 3281 1617 3432 
Q 1894 3584 2278 3584 
Q 2916 3584 3314 3078 
Q 3713 2572 3713 1747 
Q 3713 922 3314 415 
Q 2916 -91 2278 -91 
Q 1894 -91 1617 61 
Q 1341 213 1159 525 
L 1159 0 
L 581 0 
L 581 4863 
L 1159 4863 
L 1159 2969 
z
" transform="scale(0.015625)"/>
     </defs>
     <use xlink:href="#DejaVuSans-b"/>
     <use xlink:href="#DejaVuSans-57" transform="translate(39.015625 0)"/>
     <use xlink:href="#DejaVuSans-4b" transform="translate(78.21875 0)"/>
     <use xlink:href="#DejaVuSans-48" transform="translate(141.59375 0)"/>
     <use xlink:href="#DejaVuSans-3" transform="translate(203.125 0)"/>
     <use xlink:href="#DejaVuSans-57" transform="translate(234.90625 0)"/>
     <use xlink:href="#DejaVuSans-52" transform="translate(274.109375 0)"/>
     <use xlink:href="#DejaVuSans-53" transform="translate(335.296875 0)"/>
     <use xlink:href="#DejaVuSans-3" transform="translate(398.78125 0)"/>
     <use xlink:href="#DejaVuSans-52" transform="translate(430.5625 0)"/>
     <use xlink:href="#DejaVuSans-49" transform="translate(491.75 0)"/>
     <use xlink:href="#DejaVuSans-3" transform="translate(526.953125 0)"/>
     <use xlink:href="#DejaVuSans-57" transform="translate(558.734375 0)"/>
     <use xlink:href="#DejaVuSans-4b" transform="translate(597.9375 0)"/>
     <use xlink:href="#DejaVuSans-48" transform="translate(661.3125 0)"/>
     <use xlink:href="#DejaVuSans-3" transform="translate(722.84375 0)"/>
     <use xlink:href="#DejaVuSans-4f" transform="translate(754.625 0)"/>
     <use xlink:href="#DejaVuSans-44" transform="translate(782.40625 0)"/>
     <use xlink:href="#DejaVuSans-47" transform="translate(843.6875 0)"/>
     <use xlink:href="#DejaVuSans-47" transform="translate(907.171875 0)"/>
     <use xlink:href="#DejaVuSans-48" transform="translate(970.65625 0)"/>
     <use xlink:href="#DejaVuSans-55" transform="translate(1032.1875 0)"/>
     <use xlink:href="#DejaVuSans-3" transform="translate(1073.296875 0)"/>
     <use xlink:href="#DejaVuSans-4b" transform="translate(1105.078125 0)"/>
     <use xlink:href="#DejaVuSans-44" transform="translate(1168.453125 0)"/>
     <use xlink:href="#DejaVuSans-56" transform="translate(1229.734375 0)"/>
     <use xlink:href="#DejaVuSans-3" transform="translate(1281.828125 0)"/>
     <use xlink:href="#DejaVuSans-51" transform="translate(1313.609375 0)"/>
     <use xlink:href="#DejaVuSans-52" transform="translate(1376.984375 0)"/>
     <use xlink:href="#DejaVuSans-3" transform="translate(1438.171875 0)"/>
     <use xlink:href="#DejaVuSans-55" transform="translate(1469.953125 0)"/>
     <use xlink:href="#DejaVuSans-52" transform="translate(1508.859375 0)"/>
     <use xlink:href="#DejaVuSans-52" transform="translate(1570.046875 0)"/>
     <use xlink:href="#DejaVuSans-50" transform="translate(1631.234375 0)"/>
     <use xlink:href="#DejaVuSans-3" transform="translate(1728.640625 0)"/>
     <use xlink:href="#DejaVuSans-44" transform="translate(1760.421875 0)"/>
     <use xlink:href="#DejaVuSans-45" transform="translate(1821.703125 0)"/>
     <use xlink:href="#DejaVuSans-52" transform="translate(1885.1875 0)"/>
     <use xlink:href="#DejaVuSans-59" transform="translate(1946.375 0)"/>
     <use xlink:href="#DejaVuSans-48" transform="translate(2005.5625 0)"/>
     <use xlink:href="#DejaVuSans-3" transform="translate(2067.09375 0)"/>
     <use xlink:href="#DejaVuSans-4c" transform="translate(2098.875 0)"/>
     <use xlink:href="#DejaVuSans-57" transform="translate(2126.65625 0)"/>
     <use xlink:href="#DejaVuSans-c" transform="translate(2165.859375 0)"/>
    </g>
   </g>
   <g id="text_12">
    <!-- config 2: real tree at the edge of prior {100,200,400} -->
    <g transform="translate(507.242188 39.368) scale(0.1 -0.1)">
     <defs>
      <path id="DejaVuSans-5e" d="M 3272 -594 
L 3272 -1044 
L 3078 -1044 
Q 2300 -1044 2036 -812 
Q 1772 -581 1772 109 
L 1772 856 
Q 1772 1328 1603 1509 
Q 1434 1691 991 1691 
L 800 1691 
L 800 2138 
L 991 2138 
Q 1438 2138 1605 2317 
Q 1772 2497 1772 2963 
L 1772 3713 
Q 1772 4403 2036 4633 
Q 2300 4863 3078 4863 
L 3272 4863 
L 3272 4416 
L 3059 4416 
Q 2619 4416 2484 4278 
Q 2350 4141 2350 3700 
L 2350 2925 
Q 2350 2434 2208 2212 
Q 2066 1991 1722 1913 
Q 2069 1828 2209 1606 
Q 2350 1384 2350 897 
L 2350 122 
Q 2350 -319 2484 -456 
Q 2619 -594 3059 -594 
L 3272 -594 
z
" transform="scale(0.015625)"/>
      <path id="DejaVuSans-f" d="M 750 794 
L 1409 794 
L 1409 256 
L 897 -744 
L 494 -744 
L 750 256 
L 750 794 
z
" transform="scale(0.015625)"/>
      <path id="DejaVuSans-60" d="M 800 -594 
L 1019 -594 
Q 1456 -594 1589 -459 
Q 1722 -325 1722 122 
L 1722 897 
Q 1722 1384 1862 1606 
Q 2003 1828 2350 1913 
Q 2003 1991 1862 2212 
Q 1722 2434 1722 2925 
L 1722 3700 
Q 1722 4144 1589 4280 
Q 1456 4416 1019 4416 
L 800 4416 
L 800 4863 
L 997 4863 
Q 1775 4863 2036 4633 
Q 2297 4403 2297 3713 
L 2297 2963 
Q 2297 2497 2465 2317 
Q 2634 2138 3078 2138 
L 3272 2138 
L 3272 1691 
L 3078 1691 
Q 2634 1691 2465 1509 
Q 2297 1328 2297 856 
L 2297 109 
Q 2297 -581 2036 -812 
Q 1775 -1044 997 -1044 
L 800 -1044 
L 800 -594 
z
" transform="scale(0.015625)"/>
     </defs>
     <use xlink:href="#DejaVuSans-46"/>
     <use xlink:href="#DejaVuSans-52" transform="translate(54.984375 0)"/>
     <use xlink:href="#DejaVuSans-51" transform="translate(116.171875 0)"/>
     <use xlink:href="#DejaVuSans-13af" transform="translate(179.546875 0)"/>
     <use xlink:href="#DejaVuSans-4a" transform="translate(242.53125 0)"/>
     <use xlink:href="#DejaVuSans-3" transform="translate(306.015625 0)"/>
     <use xlink:href="#DejaVuSans-15" transform="translate(337.796875 0)"/>
     <use xlink:href="#DejaVuSans-1d" transform="translate(401.421875 0)"/>
     <use xlink:href="#DejaVuSans-3" transform="translate(435.109375 0)"/>
     <use xlink:href="#DejaVuSans-55" transform="translate(466.890625 0)"/>
     <use xlink:href="#DejaVuSans-48" transform="translate(505.796875 0)"/>
     <use xlink:href="#DejaVuSans-44" transform="translate(567.328125 0)"/>
     <use xlink:href="#DejaVuSans-4f" transform="translate(628.609375 0)"/>
     <use xlink:href="#DejaVuSans-3" transform="translate(656.390625 0)"/>
     <use xlink:href="#DejaVuSans-57" transform="translate(688.171875 0)"/>
     <use xlink:href="#DejaVuSans-55" transform="translate(727.375 0)"/>
     <use xlink:href="#DejaVuSans-48" transform="translate(766.28125 0)"/>
     <use xlink:href="#DejaVuSans-48" transform="translate(827.8125 0)"/>
     <use xlink:href="#DejaVuSans-3" transform="translate(889.34375 0)"/>
     <use xlink:href="#DejaVuSans-44" transform="translate(921.125 0)"/>
     <use xlink:href="#DejaVuSans-57" transform="translate(982.40625 0)"/>
     <use xlink:href="#DejaVuSans-3" transform="translate(1021.609375 0)"/>
     <use xlink:href="#DejaVuSans-57" transform="translate(1053.390625 0)"/>
     <use xlink:href="#DejaVuSans-4b" transform="translate(1092.59375 0)"/>
     <use xlink:href="#DejaVuSans-48" transform="translate(1155.96875 0)"/>
     <use xlink:href="#DejaVuSans-3" transform="translate(1217.5 0)"/>
     <use xlink:href="#DejaVuSans-48" transform="translate(1249.28125 0)"/>
     <use xlink:href="#DejaVuSans-47" transform="translate(1310.8125 0)"/>
     <use xlink:href="#DejaVuSans-4a" transform="translate(1374.296875 0)"/>
     <use xlink:href="#DejaVuSans-48" transform="translate(1437.78125 0)"/>
     <use xlink:href="#DejaVuSans-3" transform="translate(1499.3125 0)"/>
     <use xlink:href="#DejaVuSans-52" transform="translate(1531.09375 0)"/>
     <use xlink:href="#DejaVuSans-49" transform="translate(1592.28125 0)"/>
     <use xlink:href="#DejaVuSans-3" transform="translate(1627.484375 0)"/>
     <use xlink:href="#DejaVuSans-53" transform="translate(1659.265625 0)"/>
     <use xlink:href="#DejaVuSans-55" transform="translate(1722.75 0)"/>
     <use xlink:href="#DejaVuSans-4c" transform="translate(1763.859375 0)"/>
     <use xlink:href="#DejaVuSans-52" transform="translate(1791.640625 0)"/>
     <use xlink:href="#DejaVuSans-55" transform="translate(1852.828125 0)"/>
     <use xlink:href="#DejaVuSans-3" transform="translate(1893.9375 0)"/>
     <use xlink:href="#DejaVuSans-5e" transform="translate(1925.71875 0)"/>
     <use xlink:href="#DejaVuSans-14" transform="translate(1989.34375 0)"/>
     <use xlink:href="#DejaVuSans-13" transform="translate(2052.96875 0)"/>
     <use xlink:href="#DejaVuSans-13" transform="translate(2116.59375 0)"/>
     <use xlink:href="#DejaVuSans-f" transform="translate(2180.21875 0)"/>
     <use xlink:href="#DejaVuSans-15" transform="translate(2212 0)"/>
     <use xlink:href="#DejaVuSans-13" transform="translate(2275.625 0)"/>
     <use xlink:href="#DejaVuSans-13" transform="translate(2339.25 0)"/>
     <use xlink:href="#DejaVuSans-f" transform="translate(2402.875 0)"/>
     <use xlink:href="#DejaVuSans-17" transform="translate(2434.65625 0)"/>
     <use xlink:href="#DejaVuSans-13" transform="translate(2498.28125 0)"/>
     <use xlink:href="#DejaVuSans-13" transform="translate(2561.90625 0)"/>
     <use xlink:href="#DejaVuSans-60" transform="translate(2625.53125 0)"/>
    </g>
   </g>
  </g>
  <g id="text_13">
   <!-- Two envelopes: a tree assumed to always fork vs. a tree that runs out of room -->
   <g transform="translate(213.355156 15.558281) scale(0.11 -0.11)">
    <defs>
     <path id="DejaVuSans-37" d="M -19 4666 
L 3928 4666 
L 3928 4134 
L 2272 4134 
L 2272 0 
L 1638 0 
L 1638 4134 
L -19 4134 
L -19 4666 
z
" transform="scale(0.015625)"/>
     <path id="DejaVuSans-5a" d="M 269 3500 
L 844 3500 
L 1563 769 
L 2278 3500 
L 2956 3500 
L 3675 769 
L 4391 3500 
L 4966 3500 
L 4050 0 
L 3372 0 
L 2619 2869 
L 1863 0 
L 1184 0 
L 269 3500 
z
" transform="scale(0.015625)"/>
     <path id="DejaVuSans-4e" d="M 581 4863 
L 1159 4863 
L 1159 1991 
L 2875 3500 
L 3609 3500 
L 1753 1863 
L 3688 0 
L 2938 0 
L 1159 1709 
L 1159 0 
L 581 0 
L 581 4863 
z
" transform="scale(0.015625)"/>
    </defs>
    <use xlink:href="#DejaVuSans-37"/>
    <use xlink:href="#DejaVuSans-5a" transform="translate(44.53125 0)"/>
    <use xlink:href="#DejaVuSans-52" transform="translate(126.3125 0)"/>
    <use xlink:href="#DejaVuSans-3" transform="translate(187.5 0)"/>
    <use xlink:href="#DejaVuSans-48" transform="translate(219.28125 0)"/>
    <use xlink:href="#DejaVuSans-51" transform="translate(280.8125 0)"/>
    <use xlink:href="#DejaVuSans-59" transform="translate(344.1875 0)"/>
    <use xlink:href="#DejaVuSans-48" transform="translate(403.375 0)"/>
    <use xlink:href="#DejaVuSans-4f" transform="translate(464.90625 0)"/>
    <use xlink:href="#DejaVuSans-52" transform="translate(492.6875 0)"/>
    <use xlink:href="#DejaVuSans-53" transform="translate(553.875 0)"/>
    <use xlink:href="#DejaVuSans-48" transform="translate(617.359375 0)"/>
    <use xlink:href="#DejaVuSans-56" transform="translate(678.890625 0)"/>
    <use xlink:href="#DejaVuSans-1d" transform="translate(730.984375 0)"/>
    <use xlink:href="#DejaVuSans-3" transform="translate(764.671875 0)"/>
    <use xlink:href="#DejaVuSans-44" transform="translate(796.453125 0)"/>
    <use xlink:href="#DejaVuSans-3" transform="translate(857.734375 0)"/>
    <use xlink:href="#DejaVuSans-57" transform="translate(889.515625 0)"/>
    <use xlink:href="#DejaVuSans-55" transform="translate(928.71875 0)"/>
    <use xlink:href="#DejaVuSans-48" transform="translate(967.625 0)"/>
    <use xlink:href="#DejaVuSans-48" transform="translate(1029.15625 0)"/>
    <use xlink:href="#DejaVuSans-3" transform="translate(1090.6875 0)"/>
    <use xlink:href="#DejaVuSans-44" transform="translate(1122.46875 0)"/>
    <use xlink:href="#DejaVuSans-56" transform="translate(1183.75 0)"/>
    <use xlink:href="#DejaVuSans-56" transform="translate(1235.84375 0)"/>
    <use xlink:href="#DejaVuSans-58" transform="translate(1287.9375 0)"/>
    <use xlink:href="#DejaVuSans-50" transform="translate(1351.3125 0)"/>
    <use xlink:href="#DejaVuSans-48" transform="translate(1448.71875 0)"/>
    <use xlink:href="#DejaVuSans-47" transform="translate(1510.25 0)"/>
    <use xlink:href="#DejaVuSans-3" transform="translate(1573.734375 0)"/>
    <use xlink:href="#DejaVuSans-57" transform="translate(1605.515625 0)"/>
    <use xlink:href="#DejaVuSans-52" transform="translate(1644.71875 0)"/>
    <use xlink:href="#DejaVuSans-3" transform="translate(1705.90625 0)"/>
    <use xlink:href="#DejaVuSans-44" transform="translate(1737.6875 0)"/>
    <use xlink:href="#DejaVuSans-4f" transform="translate(1798.96875 0)"/>
    <use xlink:href="#DejaVuSans-5a" transform="translate(1826.75 0)"/>
    <use xlink:href="#DejaVuSans-44" transform="translate(1908.53125 0)"/>
    <use xlink:href="#DejaVuSans-5c" transform="translate(1969.8125 0)"/>
    <use xlink:href="#DejaVuSans-56" transform="translate(2029 0)"/>
    <use xlink:href="#DejaVuSans-3" transform="translate(2081.09375 0)"/>
    <use xlink:href="#DejaVuSans-49" transform="translate(2112.875 0)"/>
    <use xlink:href="#DejaVuSans-52" transform="translate(2148.078125 0)"/>
    <use xlink:href="#DejaVuSans-55" transform="translate(2209.265625 0)"/>
    <use xlink:href="#DejaVuSans-4e" transform="translate(2250.375 0)"/>
    <use xlink:href="#DejaVuSans-3" transform="translate(2308.28125 0)"/>
    <use xlink:href="#DejaVuSans-59" transform="translate(2340.0625 0)"/>
    <use xlink:href="#DejaVuSans-56" transform="translate(2399.25 0)"/>
    <use xlink:href="#DejaVuSans-11" transform="translate(2451.34375 0)"/>
    <use xlink:href="#DejaVuSans-3" transform="translate(2483.125 0)"/>
    <use xlink:href="#DejaVuSans-44" transform="translate(2514.90625 0)"/>
    <use xlink:href="#DejaVuSans-3" transform="translate(2576.1875 0)"/>
    <use xlink:href="#DejaVuSans-57" transform="translate(2607.96875 0)"/>
    <use xlink:href="#DejaVuSans-55" transform="translate(2647.171875 0)"/>
    <use xlink:href="#DejaVuSans-48" transform="translate(2686.078125 0)"/>
    <use xlink:href="#DejaVuSans-48" transform="translate(2747.609375 0)"/>
    <use xlink:href="#DejaVuSans-3" transform="translate(2809.140625 0)"/>
    <use xlink:href="#DejaVuSans-57" transform="translate(2840.921875 0)"/>
    <use xlink:href="#DejaVuSans-4b" transform="translate(2880.125 0)"/>
    <use xlink:href="#DejaVuSans-44" transform="translate(2943.5 0)"/>
    <use xlink:href="#DejaVuSans-57" transform="translate(3004.78125 0)"/>
    <use xlink:href="#DejaVuSans-3" transform="translate(3043.984375 0)"/>
    <use xlink:href="#DejaVuSans-55" transform="translate(3075.765625 0)"/>
    <use xlink:href="#DejaVuSans-58" transform="translate(3116.875 0)"/>
    <use xlink:href="#DejaVuSans-51" transform="translate(3180.25 0)"/>
    <use xlink:href="#DejaVuSans-56" transform="translate(3243.625 0)"/>
    <use xlink:href="#DejaVuSans-3" transform="translate(3295.71875 0)"/>
    <use xlink:href="#DejaVuSans-52" transform="translate(3327.5 0)"/>
    <use xlink:href="#DejaVuSans-58" transform="translate(3388.6875 0)"/>
    <use xlink:href="#DejaVuSans-57" transform="translate(3452.0625 0)"/>
    <use xlink:href="#DejaVuSans-3" transform="translate(3491.265625 0)"/>
    <use xlink:href="#DejaVuSans-52" transform="translate(3523.046875 0)"/>
    <use xlink:href="#DejaVuSans-49" transform="translate(3584.234375 0)"/>
    <use xlink:href="#DejaVuSans-3" transform="translate(3619.4375 0)"/>
    <use xlink:href="#DejaVuSans-55" transform="translate(3651.21875 0)"/>
    <use xlink:href="#DejaVuSans-52" transform="translate(3690.125 0)"/>
    <use xlink:href="#DejaVuSans-52" transform="translate(3751.3125 0)"/>
    <use xlink:href="#DejaVuSans-50" transform="translate(3812.5 0)"/>
   </g>
  </g>
 </g>
 <defs>
  <clipPath id="p4a443dc32a">
   <rect x="7.2" y="45.368" width="415.8" height="360.28"/>
  </clipPath>
  <clipPath id="p9cc1178af6">
   <rect x="433.8" y="45.368" width="415.8" height="360.28"/>
  </clipPath>
 </defs>
</svg>
