<?xml version="1.0" encoding="utf-8" standalone="no"?>
<!DOCTYPE svg PUBLIC "-//W3C//DTD SVG 1.1//EN"
  "http://www.w3.org/Graphics/SVG/1.1/DTD/svg11.dtd">
<svg xmlns:xlink="http://www.w3.org/1999/xlink" width="518.4pt" height="662.4pt" viewBox="0 0 518.4 662.4" xmlns="http://www.w3.org/2000/svg" version="1.1">
 <metadata>
  <rdf:RDF xmlns:dc="http://purl.org/dc/elements/1.1/" xmlns:cc="http://creativecommons.org/ns#" xmlns:rdf="http://www.w3.org/1999/02/22-rdf-syntax-ns#">
   <cc:Work>
    <dc:type rdf:resource="http://purl.org/dc/dcmitype/StillImage"/>
    <dc:date>2026-07-02T00:36:01.072239</dc:date>
    <dc:format>image/svg+xml</dc:format>
    <dc:creator>
     <cc:Agent>
      <dc:title>Matplotlib v3.11.0, https://matplotlib.org/</dc:title>
     </cc:Agent>
    </dc:creator>
   </cc:Work>
  </rdf:RDF>
 </metadata>
 <defs>
  <style type="text/css">*{stroke-linejoin: round; stroke-linecap: butt}</style>
 </defs>
 <g id="figure_1">
  <g id="patch_1">
   <path d="M 0 662.4 
L 518.4 662.4 
L 518.4 0 
L 0 0 
z
" style="fill: #ffffff"/>
  </g>
  <g id="axes_1">
   <g id="line2d_1">
    <path d="M 32.989091 136.519024 
L 485.410909 136.519024 
" clip-path="url(#pcfeda19c03)" style="fill: none; stroke: #000000; stroke-width: 0.8; stroke-linecap: square"/>
   </g>
   <g id="text_1">
    <!-- Child -->
    <g transform="translate(51.085964 -55.151042) scale(0.095 -0.095)">
     <defs>
      <path id="DejaVuSans-Bold-26" d="M 4288 256 
Q 3956 84 3597 -3 
Q 3238 -91 2847 -91 
Q 1681 -91 1000 561 
Q 319 1213 319 2328 
Q 319 3447 1000 4098 
Q 1681 4750 2847 4750 
Q 3238 4750 3597 4662 
Q 3956 4575 4288 4403 
L 4288 3438 
Q 3953 3666 3628 3772 
Q 3303 3878 2944 3878 
Q 2300 3878 1931 3465 
Q 1563 3053 1563 2328 
Q 1563 1606 1931 1193 
Q 2300 781 2944 781 
Q 3303 781 3628 887 
Q 3953 994 4288 1222 
L 4288 256 
z
" transform="scale(0.015625)"/>
      <path id="DejaVuSans-Bold-4b" d="M 4056 2131 
L 4056 0 
L 2931 0 
L 2931 347 
L 2931 1625 
Q 2931 2084 2911 2256 
Q 2891 2428 2841 2509 
Q 2775 2619 2662 2680 
Q 2550 2741 2406 2741 
Q 2056 2741 1856 2470 
Q 1656 2200 1656 1722 
L 1656 0 
L 538 0 
L 538 4863 
L 1656 4863 
L 1656 2988 
Q 1909 3294 2193 3439 
Q 2478 3584 2822 3584 
Q 3428 3584 3742 3212 
Q 4056 2841 4056 2131 
z
" transform="scale(0.015625)"/>
      <path id="DejaVuSans-Bold-4c" d="M 538 3500 
L 1656 3500 
L 1656 0 
L 538 0 
L 538 3500 
z
M 538 4863 
L 1656 4863 
L 1656 3950 
L 538 3950 
L 538 4863 
z
" transform="scale(0.015625)"/>
      <path id="DejaVuSans-Bold-4f" d="M 538 4863 
L 1656 4863 
L 1656 0 
L 538 0 
L 538 4863 
z
" transform="scale(0.015625)"/>
      <path id="DejaVuSans-Bold-47" d="M 2919 2988 
L 2919 4863 
L 4044 4863 
L 4044 0 
L 2919 0 
L 2919 506 
Q 2688 197 2409 53 
Q 2131 -91 1766 -91 
Q 1119 -91 703 423 
Q 288 938 288 1747 
Q 288 2556 703 3070 
Q 1119 3584 1766 3584 
Q 2128 3584 2408 3439 
Q 2688 3294 2919 2988 
z
M 2181 722 
Q 2541 722 2730 984 
Q 2919 1247 2919 1747 
Q 2919 2247 2730 2509 
Q 2541 2772 2181 2772 
Q 1825 2772 1636 2509 
Q 1447 2247 1447 1747 
Q 1447 1247 1636 984 
Q 1825 722 2181 722 
z
" transform="scale(0.015625)"/>
     </defs>
     <use xlink:href="#DejaVuSans-Bold-26"/>
     <use xlink:href="#DejaVuSans-Bold-4b" transform="translate(73.390625 0)"/>
     <use xlink:href="#DejaVuSans-Bold-4c" transform="translate(144.578125 0)"/>
     <use xlink:href="#DejaVuSans-Bold-4f" transform="translate(178.859375 0)"/>
     <use xlink:href="#DejaVuSans-Bold-47" transform="translate(213.140625 0)"/>
    </g>
   </g>
   <g id="text_2">
    <!-- Round 1 -->
    <g transform="translate(146.67341 -55.151042) scale(0.095 -0.095)">
     <defs>
      <path id="DejaVuSans-Bold-35" d="M 2297 2597 
Q 2675 2597 2839 2737 
Q 3003 2878 3003 3200 
Q 3003 3519 2839 3656 
Q 2675 3794 2297 3794 
L 1791 3794 
L 1791 2597 
L 2297 2597 
z
M 1791 1766 
L 1791 0 
L 588 0 
L 588 4666 
L 2425 4666 
Q 3347 4666 3776 4356 
Q 4206 4047 4206 3378 
Q 4206 2916 3982 2619 
Q 3759 2322 3309 2181 
Q 3556 2125 3751 1926 
Q 3947 1728 4147 1325 
L 4800 0 
L 3519 0 
L 2950 1159 
Q 2778 1509 2601 1637 
Q 2425 1766 2131 1766 
L 1791 1766 
z
" transform="scale(0.015625)"/>
      <path id="DejaVuSans-Bold-52" d="M 2203 2784 
Q 1831 2784 1636 2517 
Q 1441 2250 1441 1747 
Q 1441 1244 1636 976 
Q 1831 709 2203 709 
Q 2569 709 2762 976 
Q 2956 1244 2956 1747 
Q 2956 2250 2762 2517 
Q 2569 2784 2203 2784 
z
M 2203 3584 
Q 3106 3584 3614 3096 
Q 4122 2609 4122 1747 
Q 4122 884 3614 396 
Q 3106 -91 2203 -91 
Q 1297 -91 786 396 
Q 275 884 275 1747 
Q 275 2609 786 3096 
Q 1297 3584 2203 3584 
z
" transform="scale(0.015625)"/>
      <path id="DejaVuSans-Bold-58" d="M 500 1363 
L 500 3500 
L 1625 3500 
L 1625 3150 
Q 1625 2866 1622 2436 
Q 1619 2006 1619 1863 
Q 1619 1441 1641 1255 
Q 1663 1069 1716 984 
Q 1784 875 1895 815 
Q 2006 756 2150 756 
Q 2500 756 2700 1025 
Q 2900 1294 2900 1772 
L 2900 3500 
L 4019 3500 
L 4019 0 
L 2900 0 
L 2900 506 
Q 2647 200 2364 54 
Q 2081 -91 1741 -91 
Q 1134 -91 817 281 
Q 500 653 500 1363 
z
" transform="scale(0.015625)"/>
      <path id="DejaVuSans-Bold-51" d="M 4056 2131 
L 4056 0 
L 2931 0 
L 2931 347 
L 2931 1631 
Q 2931 2084 2911 2256 
Q 2891 2428 2841 2509 
Q 2775 2619 2662 2680 
Q 2550 2741 2406 2741 
Q 2056 2741 1856 2470 
Q 1656 2200 1656 1722 
L 1656 0 
L 538 0 
L 538 3500 
L 1656 3500 
L 1656 2988 
Q 1909 3294 2193 3439 
Q 2478 3584 2822 3584 
Q 3428 3584 3742 3212 
Q 4056 2841 4056 2131 
z
" transform="scale(0.015625)"/>
      <path id="DejaVuSans-Bold-3" transform="scale(0.015625)"/>
      <path id="DejaVuSans-Bold-14" d="M 750 831 
L 1813 831 
L 1813 3847 
L 722 3622 
L 722 4441 
L 1806 4666 
L 2950 4666 
L 2950 831 
L 4013 831 
L 4013 0 
L 750 0 
L 750 831 
z
" transform="scale(0.015625)"/>
     </defs>
     <use xlink:href="#DejaVuSans-Bold-35"/>
     <use xlink:href="#DejaVuSans-Bold-52" transform="translate(77 0)"/>
     <use xlink:href="#DejaVuSans-Bold-58" transform="translate(145.703125 0)"/>
     <use xlink:href="#DejaVuSans-Bold-51" transform="translate(216.890625 0)"/>
     <use xlink:href="#DejaVuSans-Bold-47" transform="translate(288.078125 0)"/>
     <use xlink:href="#DejaVuSans-Bold-3" transform="translate(359.65625 0)"/>
     <use xlink:href="#DejaVuSans-Bold-14" transform="translate(394.46875 0)"/>
    </g>
   </g>
   <g id="text_3">
    <!-- Round 2 -->
    <g transform="translate(259.778864 -55.151042) scale(0.095 -0.095)">
     <defs>
      <path id="DejaVuSans-Bold-15" d="M 1844 884 
L 3897 884 
L 3897 0 
L 506 0 
L 506 884 
L 2209 2388 
Q 2438 2594 2547 2791 
Q 2656 2988 2656 3200 
Q 2656 3528 2436 3728 
Q 2216 3928 1850 3928 
Q 1569 3928 1234 3808 
Q 900 3688 519 3450 
L 519 4475 
Q 925 4609 1322 4679 
Q 1719 4750 2100 4750 
Q 2938 4750 3402 4381 
Q 3866 4013 3866 3353 
Q 3866 2972 3669 2642 
Q 3472 2313 2841 1759 
L 1844 884 
z
" transform="scale(0.015625)"/>
     </defs>
     <use xlink:href="#DejaVuSans-Bold-35"/>
     <use xlink:href="#DejaVuSans-Bold-52" transform="translate(77 0)"/>
     <use xlink:href="#DejaVuSans-Bold-58" transform="translate(145.703125 0)"/>
     <use xlink:href="#DejaVuSans-Bold-51" transform="translate(216.890625 0)"/>
     <use xlink:href="#DejaVuSans-Bold-47" transform="translate(288.078125 0)"/>
     <use xlink:href="#DejaVuSans-Bold-3" transform="translate(359.65625 0)"/>
     <use xlink:href="#DejaVuSans-Bold-15" transform="translate(394.46875 0)"/>
    </g>
   </g>
   <g id="text_4">
    <!-- Round 3 -->
    <g transform="translate(372.884319 -55.151042) scale(0.095 -0.095)">
     <defs>
      <path id="DejaVuSans-Bold-16" d="M 2981 2516 
Q 3453 2394 3698 2092 
Q 3944 1791 3944 1325 
Q 3944 631 3412 270 
Q 2881 -91 1863 -91 
Q 1503 -91 1142 -33 
Q 781 25 428 141 
L 428 1069 
Q 766 900 1098 814 
Q 1431 728 1753 728 
Q 2231 728 2486 893 
Q 2741 1059 2741 1369 
Q 2741 1688 2480 1852 
Q 2219 2016 1709 2016 
L 1228 2016 
L 1228 2791 
L 1734 2791 
Q 2188 2791 2409 2933 
Q 2631 3075 2631 3366 
Q 2631 3634 2415 3781 
Q 2200 3928 1806 3928 
Q 1516 3928 1219 3862 
Q 922 3797 628 3669 
L 628 4550 
Q 984 4650 1334 4700 
Q 1684 4750 2022 4750 
Q 2931 4750 3382 4451 
Q 3834 4153 3834 3553 
Q 3834 3144 3618 2883 
Q 3403 2622 2981 2516 
z
" transform="scale(0.015625)"/>
     </defs>
     <use xlink:href="#DejaVuSans-Bold-35"/>
     <use xlink:href="#DejaVuSans-Bold-52" transform="translate(77 0)"/>
     <use xlink:href="#DejaVuSans-Bold-58" transform="translate(145.703125 0)"/>
     <use xlink:href="#DejaVuSans-Bold-51" transform="translate(216.890625 0)"/>
     <use xlink:href="#DejaVuSans-Bold-47" transform="translate(288.078125 0)"/>
     <use xlink:href="#DejaVuSans-Bold-3" transform="translate(359.65625 0)"/>
     <use xlink:href="#DejaVuSans-Bold-16" transform="translate(394.46875 0)"/>
    </g>
   </g>
   <g id="text_5">
    <!-- Child 1 -->
    <g transform="translate(51.085964 490.382291) scale(0.095 -0.095)">
     <defs>
      <path id="DejaVuSans-26" d="M 4122 4306 
L 4122 3641 
Q 3803 3938 3442 4084 
Q 3081 4231 2675 4231 
Q 1875 4231 1450 3742 
Q 1025 3253 1025 2328 
Q 1025 1406 1450 917 
Q 1875 428 2675 428 
Q 3081 428 3442 575 
Q 3803 722 4122 1019 
L 4122 359 
Q 3791 134 3420 21 
Q 3050 -91 2638 -91 
Q 1578 -91 968 557 
Q 359 1206 359 2328 
Q 359 3453 968 4101 
Q 1578 4750 2638 4750 
Q 3056 4750 3426 4639 
Q 3797 4528 4122 4306 
z
" transform="scale(0.015625)"/>
      <path id="DejaVuSans-4b" d="M 3513 2113 
L 3513 0 
L 2938 0 
L 2938 2094 
Q 2938 2591 2744 2837 
Q 2550 3084 2163 3084 
Q 1697 3084 1428 2787 
Q 1159 2491 1159 1978 
L 1159 0 
L 581 0 
L 581 4863 
L 1159 4863 
L 1159 2956 
Q 1366 3272 1645 3428 
Q 1925 3584 2291 3584 
Q 2894 3584 3203 3211 
Q 3513 2838 3513 2113 
z
" transform="scale(0.015625)"/>
      <path id="DejaVuSans-4c" d="M 603 3500 
L 1178 3500 
L 1178 0 
L 603 0 
L 603 3500 
z
M 603 4863 
L 1178 4863 
L 1178 4134 
L 603 4134 
L 603 4863 
z
" transform="scale(0.015625)"/>
      <path id="DejaVuSans-4f" d="M 603 4863 
L 1178 4863 
L 1178 0 
L 603 0 
L 603 4863 
z
" transform="scale(0.015625)"/>
      <path id="DejaVuSans-47" d="M 2906 2969 
L 2906 4863 
L 3481 4863 
L 3481 0 
L 2906 0 
L 2906 525 
Q 2725 213 2448 61 
Q 2172 -91 1784 -91 
Q 1150 -91 751 415 
Q 353 922 353 1747 
Q 353 2572 751 3078 
Q 1150 3584 1784 3584 
Q 2172 3584 2448 3432 
Q 2725 3281 2906 2969 
z
M 947 1747 
Q 947 1113 1208 752 
Q 1469 391 1925 391 
Q 2381 391 2643 752 
Q 2906 1113 2906 1747 
Q 2906 2381 2643 2742 
Q 2381 3103 1925 3103 
Q 1469 3103 1208 2742 
Q 947 2381 947 1747 
z
" transform="scale(0.015625)"/>
      <path id="DejaVuSans-3" transform="scale(0.015625)"/>
      <path id="DejaVuSans-14" d="M 794 531 
L 1825 531 
L 1825 4091 
L 703 3866 
L 703 4441 
L 1819 4666 
L 2450 4666 
L 2450 531 
L 3481 531 
L 3481 0 
L 794 0 
L 794 531 
z
" transform="scale(0.015625)"/>
     </defs>
     <use xlink:href="#DejaVuSans-26"/>
     <use xlink:href="#DejaVuSans-4b" transform="translate(69.828125 0)"/>
     <use xlink:href="#DejaVuSans-4c" transform="translate(133.203125 0)"/>
     <use xlink:href="#DejaVuSans-4f" transform="translate(160.984375 0)"/>
     <use xlink:href="#DejaVuSans-47" transform="translate(188.765625 0)"/>
     <use xlink:href="#DejaVuSans-3" transform="translate(252.25 0)"/>
     <use xlink:href="#DejaVuSans-14" transform="translate(284.03125 0)"/>
    </g>
   </g>
   <g id="text_6">
    <!-- unsure -->
    <g style="fill: #555555" transform="translate(152.439464 490.38192) scale(0.095 -0.095)">
     <defs>
      <path id="DejaVuSans-58" d="M 544 1381 
L 544 3500 
L 1119 3500 
L 1119 1403 
Q 1119 906 1312 657 
Q 1506 409 1894 409 
Q 2359 409 2629 706 
Q 2900 1003 2900 1516 
L 2900 3500 
L 3475 3500 
L 3475 0 
L 2900 0 
L 2900 538 
Q 2691 219 2414 64 
Q 2138 -91 1772 -91 
Q 1169 -91 856 284 
Q 544 659 544 1381 
z
M 1991 3584 
L 1991 3584 
z
" transform="scale(0.015625)"/>
      <path id="DejaVuSans-51" d="M 3513 2113 
L 3513 0 
L 2938 0 
L 2938 2094 
Q 2938 2591 2744 2837 
Q 2550 3084 2163 3084 
Q 1697 3084 1428 2787 
Q 1159 2491 1159 1978 
L 1159 0 
L 581 0 
L 581 3500 
L 1159 3500 
L 1159 2956 
Q 1366 3272 1645 3428 
Q 1925 3584 2291 3584 
Q 2894 3584 3203 3211 
Q 3513 2838 3513 2113 
z
" transform="scale(0.015625)"/>
      <path id="DejaVuSans-56" d="M 2834 3397 
L 2834 2853 
Q 2591 2978 2328 3040 
Q 2066 3103 1784 3103 
Q 1356 3103 1142 2972 
Q 928 2841 928 2578 
Q 928 2378 1081 2264 
Q 1234 2150 1697 2047 
L 1894 2003 
Q 2506 1872 2764 1633 
Q 3022 1394 3022 966 
Q 3022 478 2636 193 
Q 2250 -91 1575 -91 
Q 1294 -91 989 -36 
Q 684 19 347 128 
L 347 722 
Q 666 556 975 473 
Q 1284 391 1588 391 
Q 1994 391 2212 530 
Q 2431 669 2431 922 
Q 2431 1156 2273 1281 
Q 2116 1406 1581 1522 
L 1381 1569 
Q 847 1681 609 1914 
Q 372 2147 372 2553 
Q 372 3047 722 3315 
Q 1072 3584 1716 3584 
Q 2034 3584 2315 3537 
Q 2597 3491 2834 3397 
z
" transform="scale(0.015625)"/>
      <path id="DejaVuSans-55" d="M 2631 2963 
Q 2534 3019 2420 3045 
Q 2306 3072 2169 3072 
Q 1681 3072 1420 2755 
Q 1159 2438 1159 1844 
L 1159 0 
L 581 0 
L 581 3500 
L 1159 3500 
L 1159 2956 
Q 1341 3275 1631 3429 
Q 1922 3584 2338 3584 
Q 2397 3584 2469 3576 
Q 2541 3569 2628 3553 
L 2631 2963 
z
" transform="scale(0.015625)"/>
      <path id="DejaVuSans-48" d="M 3597 1894 
L 3597 1613 
L 953 1613 
Q 991 1019 1311 708 
Q 1631 397 2203 397 
Q 2534 397 2845 478 
Q 3156 559 3463 722 
L 3463 178 
Q 3153 47 2828 -22 
Q 2503 -91 2169 -91 
Q 1331 -91 842 396 
Q 353 884 353 1716 
Q 353 2575 817 3079 
Q 1281 3584 2069 3584 
Q 2775 3584 3186 3129 
Q 3597 2675 3597 1894 
z
M 3022 2063 
Q 3016 2534 2758 2815 
Q 2500 3097 2075 3097 
Q 1594 3097 1305 2825 
Q 1016 2553 972 2059 
L 3022 2063 
z
" transform="scale(0.015625)"/>
     </defs>
     <use xlink:href="#DejaVuSans-58"/>
     <use xlink:href="#DejaVuSans-51" transform="translate(63.375 0)"/>
     <use xlink:href="#DejaVuSans-56" transform="translate(126.75 0)"/>
     <use xlink:href="#DejaVuSans-58" transform="translate(178.84375 0)"/>
     <use xlink:href="#DejaVuSans-55" transform="translate(242.21875 0)"/>
     <use xlink:href="#DejaVuSans-48" transform="translate(281.125 0)"/>
    </g>
   </g>
   <g id="text_7">
    <!-- - -->
    <g style="fill: #bbbbbb" transform="translate(280.10738 490.38192) scale(0.095 -0.095)">
     <defs>
      <path id="DejaVuSans-10" d="M 313 2009 
L 1997 2009 
L 1997 1497 
L 313 1497 
L 313 2009 
z
" transform="scale(0.015625)"/>
     </defs>
     <use xlink:href="#DejaVuSans-10"/>
    </g>
   </g>
   <g id="text_8">
    <!-- - -->
    <g style="fill: #bbbbbb" transform="translate(393.212835 490.38192) scale(0.095 -0.095)">
     <use xlink:href="#DejaVuSans-10"/>
    </g>
   </g>
   <g id="text_9">
    <!-- Child 2 -->
    <g transform="translate(51.085964 905.667435) scale(0.095 -0.095)">
     <defs>
      <path id="DejaVuSans-15" d="M 1228 531 
L 3431 531 
L 3431 0 
L 469 0 
L 469 531 
Q 828 903 1448 1529 
Q 2069 2156 2228 2338 
Q 2531 2678 2651 2914 
Q 2772 3150 2772 3378 
Q 2772 3750 2511 3984 
Q 2250 4219 1831 4219 
Q 1534 4219 1204 4116 
Q 875 4013 500 3803 
L 500 4441 
Q 881 4594 1212 4672 
Q 1544 4750 1819 4750 
Q 2544 4750 2975 4387 
Q 3406 4025 3406 3419 
Q 3406 3131 3298 2873 
Q 3191 2616 2906 2266 
Q 2828 2175 2409 1742 
Q 1991 1309 1228 531 
z
" transform="scale(0.015625)"/>
     </defs>
     <use xlink:href="#DejaVuSans-26"/>
     <use xlink:href="#DejaVuSans-4b" transform="translate(69.828125 0)"/>
     <use xlink:href="#DejaVuSans-4c" transform="translate(133.203125 0)"/>
     <use xlink:href="#DejaVuSans-4f" transform="translate(160.984375 0)"/>
     <use xlink:href="#DejaVuSans-47" transform="translate(188.765625 0)"/>
     <use xlink:href="#DejaVuSans-3" transform="translate(252.25 0)"/>
     <use xlink:href="#DejaVuSans-15" transform="translate(284.03125 0)"/>
    </g>
   </g>
   <g id="text_10">
    <!-- unsure -->
    <g style="fill: #555555" transform="translate(152.439464 905.667064) scale(0.095 -0.095)">
     <use xlink:href="#DejaVuSans-58"/>
     <use xlink:href="#DejaVuSans-51" transform="translate(63.375 0)"/>
     <use xlink:href="#DejaVuSans-56" transform="translate(126.75 0)"/>
     <use xlink:href="#DejaVuSans-58" transform="translate(178.84375 0)"/>
     <use xlink:href="#DejaVuSans-55" transform="translate(242.21875 0)"/>
     <use xlink:href="#DejaVuSans-48" transform="translate(281.125 0)"/>
    </g>
   </g>
   <g id="text_11">
    <!-- - -->
    <g style="fill: #bbbbbb" transform="translate(280.10738 905.667064) scale(0.095 -0.095)">
     <use xlink:href="#DejaVuSans-10"/>
    </g>
   </g>
   <g id="text_12">
    <!-- - -->
    <g style="fill: #bbbbbb" transform="translate(393.212835 905.667064) scale(0.095 -0.095)">
     <use xlink:href="#DejaVuSans-10"/>
    </g>
   </g>
   <g id="text_13">
    <!-- Child 3 -->
    <g transform="translate(51.085964 1320.952579) scale(0.095 -0.095)">
     <defs>
      <path id="DejaVuSans-16" d="M 2597 2516 
Q 3050 2419 3304 2112 
Q 3559 1806 3559 1356 
Q 3559 666 3084 287 
Q 2609 -91 1734 -91 
Q 1441 -91 1130 -33 
Q 819 25 488 141 
L 488 750 
Q 750 597 1062 519 
Q 1375 441 1716 441 
Q 2309 441 2620 675 
Q 2931 909 2931 1356 
Q 2931 1769 2642 2001 
Q 2353 2234 1838 2234 
L 1294 2234 
L 1294 2753 
L 1863 2753 
Q 2328 2753 2575 2939 
Q 2822 3125 2822 3475 
Q 2822 3834 2567 4026 
Q 2313 4219 1838 4219 
Q 1578 4219 1281 4162 
Q 984 4106 628 3988 
L 628 4550 
Q 988 4650 1302 4700 
Q 1616 4750 1894 4750 
Q 2613 4750 3031 4423 
Q 3450 4097 3450 3541 
Q 3450 3153 3228 2886 
Q 3006 2619 2597 2516 
z
" transform="scale(0.015625)"/>
     </defs>
     <use xlink:href="#DejaVuSans-26"/>
     <use xlink:href="#DejaVuSans-4b" transform="translate(69.828125 0)"/>
     <use xlink:href="#DejaVuSans-4c" transform="translate(133.203125 0)"/>
     <use xlink:href="#DejaVuSans-4f" transform="translate(160.984375 0)"/>
     <use xlink:href="#DejaVuSans-47" transform="translate(188.765625 0)"/>
     <use xlink:href="#DejaVuSans-3" transform="translate(252.25 0)"/>
     <use xlink:href="#DejaVuSans-16" transform="translate(284.03125 0)"/>
    </g>
   </g>
   <g id="text_14">
    <!-- MUDDY! -->
    <g style="fill: #b3261e" transform="translate(146.985129 1320.952208) scale(0.095 -0.095)">
     <defs>
      <path id="DejaVuSans-Bold-30" d="M 588 4666 
L 2119 4666 
L 3181 2169 
L 4250 4666 
L 5778 4666 
L 5778 0 
L 4641 0 
L 4641 3413 
L 3566 897 
L 2803 897 
L 1728 3413 
L 1728 0 
L 588 0 
L 588 4666 
z
" transform="scale(0.015625)"/>
      <path id="DejaVuSans-Bold-38" d="M 588 4666 
L 1791 4666 
L 1791 1869 
Q 1791 1291 1980 1042 
Q 2169 794 2597 794 
Q 3028 794 3217 1042 
Q 3406 1291 3406 1869 
L 3406 4666 
L 4609 4666 
L 4609 1869 
Q 4609 878 4112 393 
Q 3616 -91 2597 -91 
Q 1581 -91 1084 393 
Q 588 878 588 1869 
L 588 4666 
z
" transform="scale(0.015625)"/>
      <path id="DejaVuSans-Bold-27" d="M 1791 3756 
L 1791 909 
L 2222 909 
Q 2959 909 3348 1275 
Q 3738 1641 3738 2338 
Q 3738 3031 3350 3393 
Q 2963 3756 2222 3756 
L 1791 3756 
z
M 588 4666 
L 1856 4666 
Q 2919 4666 3439 4514 
Q 3959 4363 4331 4000 
Q 4659 3684 4818 3271 
Q 4978 2859 4978 2338 
Q 4978 1809 4818 1395 
Q 4659 981 4331 666 
Q 3956 303 3431 151 
Q 2906 0 1856 0 
L 588 0 
L 588 4666 
z
" transform="scale(0.015625)"/>
      <path id="DejaVuSans-Bold-3c" d="M -63 4666 
L 1253 4666 
L 2316 3003 
L 3378 4666 
L 4697 4666 
L 2919 1966 
L 2919 0 
L 1716 0 
L 1716 1966 
L -63 4666 
z
" transform="scale(0.015625)"/>
      <path id="DejaVuSans-Bold-4" d="M 897 4666 
L 2022 4666 
L 2022 2875 
L 1863 1569 
L 1056 1569 
L 897 2875 
L 897 4666 
z
M 897 1113 
L 2022 1113 
L 2022 0 
L 897 0 
L 897 1113 
z
" transform="scale(0.015625)"/>
     </defs>
     <use xlink:href="#DejaVuSans-Bold-30"/>
     <use xlink:href="#DejaVuSans-Bold-38" transform="translate(99.515625 0)"/>
     <use xlink:href="#DejaVuSans-Bold-27" transform="translate(180.71875 0)"/>
     <use xlink:href="#DejaVuSans-Bold-27" transform="translate(263.734375 0)"/>
     <use xlink:href="#DejaVuSans-Bold-3c" transform="translate(339.46875 0)"/>
     <use xlink:href="#DejaVuSans-Bold-4" transform="translate(411.875 0)"/>
    </g>
   </g>
   <g id="text_15">
    <!-- - -->
    <g style="fill: #bbbbbb" transform="translate(280.10738 1320.952208) scale(0.095 -0.095)">
     <use xlink:href="#DejaVuSans-10"/>
    </g>
   </g>
   <g id="text_16">
    <!-- - -->
    <g style="fill: #bbbbbb" transform="translate(393.212835 1320.952208) scale(0.095 -0.095)">
     <use xlink:href="#DejaVuSans-10"/>
    </g>
   </g>
   <g id="text_17">
    <!-- True muddy count m=1 - - Muddy: Child 3 only -->
    <g transform="translate(10.368 60.24) scale(0.11 -0.11)">
     <defs>
      <path id="DejaVuSans-37" d="M -19 4666 
L 3928 4666 
L 3928 4134 
L 2272 4134 
L 2272 0 
L 1638 0 
L 1638 4134 
L -19 4134 
L -19 4666 
z
" transform="scale(0.015625)"/>
      <path id="DejaVuSans-50" d="M 3328 2828 
Q 3544 3216 3844 3400 
Q 4144 3584 4550 3584 
Q 5097 3584 5394 3201 
Q 5691 2819 5691 2113 
L 5691 0 
L 5113 0 
L 5113 2094 
Q 5113 2597 4934 2840 
Q 4756 3084 4391 3084 
Q 3944 3084 3684 2787 
Q 3425 2491 3425 1978 
L 3425 0 
L 2847 0 
L 2847 2094 
Q 2847 2600 2669 2842 
Q 2491 3084 2119 3084 
Q 1678 3084 1418 2786 
Q 1159 2488 1159 1978 
L 1159 0 
L 581 0 
L 581 3500 
L 1159 3500 
L 1159 2956 
Q 1356 3278 1631 3431 
Q 1906 3584 2284 3584 
Q 2666 3584 2933 3390 
Q 3200 3197 3328 2828 
z
" transform="scale(0.015625)"/>
      <path id="DejaVuSans-5c" d="M 2059 -325 
Q 1816 -950 1584 -1140 
Q 1353 -1331 966 -1331 
L 506 -1331 
L 506 -850 
L 844 -850 
Q 1081 -850 1212 -737 
Q 1344 -625 1503 -206 
L 1606 56 
L 191 3500 
L 800 3500 
L 1894 763 
L 2988 3500 
L 3597 3500 
L 2059 -325 
z
" transform="scale(0.015625)"/>
      <path id="DejaVuSans-46" d="M 3122 3366 
L 3122 2828 
Q 2878 2963 2633 3030 
Q 2388 3097 2138 3097 
Q 1578 3097 1268 2742 
Q 959 2388 959 1747 
Q 959 1106 1268 751 
Q 1578 397 2138 397 
Q 2388 397 2633 464 
Q 2878 531 3122 666 
L 3122 134 
Q 2881 22 2623 -34 
Q 2366 -91 2075 -91 
Q 1284 -91 818 406 
Q 353 903 353 1747 
Q 353 2603 823 3093 
Q 1294 3584 2113 3584 
Q 2378 3584 2631 3529 
Q 2884 3475 3122 3366 
z
" transform="scale(0.015625)"/>
      <path id="DejaVuSans-52" d="M 1959 3097 
Q 1497 3097 1228 2736 
Q 959 2375 959 1747 
Q 959 1119 1226 758 
Q 1494 397 1959 397 
Q 2419 397 2687 759 
Q 2956 1122 2956 1747 
Q 2956 2369 2687 2733 
Q 2419 3097 1959 3097 
z
M 1959 3584 
Q 2709 3584 3137 3096 
Q 3566 2609 3566 1747 
Q 3566 888 3137 398 
Q 2709 -91 1959 -91 
Q 1206 -91 779 398 
Q 353 888 353 1747 
Q 353 2609 779 3096 
Q 1206 3584 1959 3584 
z
" transform="scale(0.015625)"/>
      <path id="DejaVuSans-57" d="M 1172 4494 
L 1172 3500 
L 2356 3500 
L 2356 3053 
L 1172 3053 
L 1172 1153 
Q 1172 725 1289 603 
Q 1406 481 1766 481 
L 2356 481 
L 2356 0 
L 1766 0 
Q 1100 0 847 248 
Q 594 497 594 1153 
L 594 3053 
L 172 3053 
L 172 3500 
L 594 3500 
L 594 4494 
L 1172 4494 
z
" transform="scale(0.015625)"/>
      <path id="DejaVuSans-20" d="M 678 2906 
L 4684 2906 
L 4684 2381 
L 678 2381 
L 678 2906 
z
M 678 1631 
L 4684 1631 
L 4684 1100 
L 678 1100 
L 678 1631 
z
" transform="scale(0.015625)"/>
      <path id="DejaVuSans-30" d="M 628 4666 
L 1569 4666 
L 2759 1491 
L 3956 4666 
L 4897 4666 
L 4897 0 
L 4281 0 
L 4281 4097 
L 3078 897 
L 2444 897 
L 1241 4097 
L 1241 0 
L 628 0 
L 628 4666 
z
" transform="scale(0.015625)"/>
      <path id="DejaVuSans-1d" d="M 750 794 
L 1409 794 
L 1409 0 
L 750 0 
L 750 794 
z
M 750 3309 
L 1409 3309 
L 1409 2516 
L 750 2516 
L 750 3309 
z
" transform="scale(0.015625)"/>
     </defs>
     <use xlink:href="#DejaVuSans-37"/>
     <use xlink:href="#DejaVuSans-55" transform="translate(46.375 0)"/>
     <use xlink:href="#DejaVuSans-58" transform="translate(87.484375 0)"/>
     <use xlink:href="#DejaVuSans-48" transform="translate(150.859375 0)"/>
     <use xlink:href="#DejaVuSans-3" transform="translate(212.390625 0)"/>
     <use xlink:href="#DejaVuSans-50" transform="translate(244.171875 0)"/>
     <use xlink:href="#DejaVuSans-58" transform="translate(341.578125 0)"/>
     <use xlink:href="#DejaVuSans-47" transform="translate(404.953125 0)"/>
     <use xlink:href="#DejaVuSans-47" transform="translate(468.4375 0)"/>
     <use xlink:href="#DejaVuSans-5c" transform="translate(531.921875 0)"/>
     <use xlink:href="#DejaVuSans-3" transform="translate(591.109375 0)"/>
     <use xlink:href="#DejaVuSans-46" transform="translate(622.890625 0)"/>
     <use xlink:href="#DejaVuSans-52" transform="translate(677.875 0)"/>
     <use xlink:href="#DejaVuSans-58" transform="translate(739.0625 0)"/>
     <use xlink:href="#DejaVuSans-51" transform="translate(802.4375 0)"/>
     <use xlink:href="#DejaVuSans-57" transform="translate(865.8125 0)"/>
     <use xlink:href="#DejaVuSans-3" transform="translate(905.015625 0)"/>
     <use xlink:href="#DejaVuSans-50" transform="translate(936.796875 0)"/>
     <use xlink:href="#DejaVuSans-20" transform="translate(1034.203125 0)"/>
     <use xlink:href="#DejaVuSans-14" transform="translate(1118 0)"/>
     <use xlink:href="#DejaVuSans-3" transform="translate(1181.625 0)"/>
     <use xlink:href="#DejaVuSans-10" transform="translate(1213.40625 0)"/>
     <use xlink:href="#DejaVuSans-10" transform="translate(1249.484375 0)"/>
     <use xlink:href="#DejaVuSans-3" transform="translate(1285.5625 0)"/>
     <use xlink:href="#DejaVuSans-30" transform="translate(1317.34375 0)"/>
     <use xlink:href="#DejaVuSans-58" transform="translate(1403.625 0)"/>
     <use xlink:href="#DejaVuSans-47" transform="translate(1467 0)"/>
     <use xlink:href="#DejaVuSans-47" transform="translate(1530.484375 0)"/>
     <use xlink:href="#DejaVuSans-5c" transform="translate(1593.96875 0)"/>
     <use xlink:href="#DejaVuSans-1d" transform="translate(1645.875 0)"/>
     <use xlink:href="#DejaVuSans-3" transform="translate(1679.5625 0)"/>
     <use xlink:href="#DejaVuSans-26" transform="translate(1711.34375 0)"/>
     <use xlink:href="#DejaVuSans-4b" transform="translate(1781.171875 0)"/>
     <use xlink:href="#DejaVuSans-4c" transform="translate(1844.546875 0)"/>
     <use xlink:href="#DejaVuSans-4f" transform="translate(1872.328125 0)"/>
     <use xlink:href="#DejaVuSans-47" transform="translate(1900.109375 0)"/>
     <use xlink:href="#DejaVuSans-3" transform="translate(1963.59375 0)"/>
     <use xlink:href="#DejaVuSans-16" transform="translate(1995.375 0)"/>
     <use xlink:href="#DejaVuSans-3" transform="translate(2059 0)"/>
     <use xlink:href="#DejaVuSans-52" transform="translate(2090.78125 0)"/>
     <use xlink:href="#DejaVuSans-51" transform="translate(2151.96875 0)"/>
     <use xlink:href="#DejaVuSans-4f" transform="translate(2215.34375 0)"/>
     <use xlink:href="#DejaVuSans-5c" transform="translate(2243.125 0)"/>
    </g>
   </g>
  </g>
  <g id="axes_2">
   <g id="line2d_2">
    <path d="M 32.989091 354.384 
L 485.410909 354.384 
" clip-path="url(#p151ee8aff5)" style="fill: none; stroke: #000000; stroke-width: 0.8; stroke-linecap: square"/>
   </g>
   <g id="text_18">
    <!-- Child -->
    <g transform="translate(51.085964 162.713933) scale(0.095 -0.095)">
     <use xlink:href="#DejaVuSans-Bold-26"/>
     <use xlink:href="#DejaVuSans-Bold-4b" transform="translate(73.390625 0)"/>
     <use xlink:href="#DejaVuSans-Bold-4c" transform="translate(144.578125 0)"/>
     <use xlink:href="#DejaVuSans-Bold-4f" transform="translate(178.859375 0)"/>
     <use xlink:href="#DejaVuSans-Bold-47" transform="translate(213.140625 0)"/>
    </g>
   </g>
   <g id="text_19">
    <!-- Round 1 -->
    <g transform="translate(146.67341 162.713933) scale(0.095 -0.095)">
     <use xlink:href="#DejaVuSans-Bold-35"/>
     <use xlink:href="#DejaVuSans-Bold-52" transform="translate(77 0)"/>
     <use xlink:href="#DejaVuSans-Bold-58" transform="translate(145.703125 0)"/>
     <use xlink:href="#DejaVuSans-Bold-51" transform="translate(216.890625 0)"/>
     <use xlink:href="#DejaVuSans-Bold-47" transform="translate(288.078125 0)"/>
     <use xlink:href="#DejaVuSans-Bold-3" transform="translate(359.65625 0)"/>
     <use xlink:href="#DejaVuSans-Bold-14" transform="translate(394.46875 0)"/>
    </g>
   </g>
   <g id="text_20">
    <!-- Round 2 -->
    <g transform="translate(259.778864 162.713933) scale(0.095 -0.095)">
     <use xlink:href="#DejaVuSans-Bold-35"/>
     <use xlink:href="#DejaVuSans-Bold-52" transform="translate(77 0)"/>
     <use xlink:href="#DejaVuSans-Bold-58" transform="translate(145.703125 0)"/>
     <use xlink:href="#DejaVuSans-Bold-51" transform="translate(216.890625 0)"/>
     <use xlink:href="#DejaVuSans-Bold-47" transform="translate(288.078125 0)"/>
     <use xlink:href="#DejaVuSans-Bold-3" transform="translate(359.65625 0)"/>
     <use xlink:href="#DejaVuSans-Bold-15" transform="translate(394.46875 0)"/>
    </g>
   </g>
   <g id="text_21">
    <!-- Round 3 -->
    <g transform="translate(372.884319 162.713933) scale(0.095 -0.095)">
     <use xlink:href="#DejaVuSans-Bold-35"/>
     <use xlink:href="#DejaVuSans-Bold-52" transform="translate(77 0)"/>
     <use xlink:href="#DejaVuSans-Bold-58" transform="translate(145.703125 0)"/>
     <use xlink:href="#DejaVuSans-Bold-51" transform="translate(216.890625 0)"/>
     <use xlink:href="#DejaVuSans-Bold-47" transform="translate(288.078125 0)"/>
     <use xlink:href="#DejaVuSans-Bold-3" transform="translate(359.65625 0)"/>
     <use xlink:href="#DejaVuSans-Bold-16" transform="translate(394.46875 0)"/>
    </g>
   </g>
   <g id="text_22">
    <!-- Child 1 -->
    <g transform="translate(51.085964 708.247266) scale(0.095 -0.095)">
     <use xlink:href="#DejaVuSans-26"/>
     <use xlink:href="#DejaVuSans-4b" transform="translate(69.828125 0)"/>
     <use xlink:href="#DejaVuSans-4c" transform="translate(133.203125 0)"/>
     <use xlink:href="#DejaVuSans-4f" transform="translate(160.984375 0)"/>
     <use xlink:href="#DejaVuSans-47" transform="translate(188.765625 0)"/>
     <use xlink:href="#DejaVuSans-3" transform="translate(252.25 0)"/>
     <use xlink:href="#DejaVuSans-14" transform="translate(284.03125 0)"/>
    </g>
   </g>
   <g id="text_23">
    <!-- unsure -->
    <g style="fill: #555555" transform="translate(152.439464 708.246895) scale(0.095 -0.095)">
     <use xlink:href="#DejaVuSans-58"/>
     <use xlink:href="#DejaVuSans-51" transform="translate(63.375 0)"/>
     <use xlink:href="#DejaVuSans-56" transform="translate(126.75 0)"/>
     <use xlink:href="#DejaVuSans-58" transform="translate(178.84375 0)"/>
     <use xlink:href="#DejaVuSans-55" transform="translate(242.21875 0)"/>
     <use xlink:href="#DejaVuSans-48" transform="translate(281.125 0)"/>
    </g>
   </g>
   <g id="text_24">
    <!-- unsure -->
    <g style="fill: #555555" transform="translate(265.544919 708.246895) scale(0.095 -0.095)">
     <use xlink:href="#DejaVuSans-58"/>
     <use xlink:href="#DejaVuSans-51" transform="translate(63.375 0)"/>
     <use xlink:href="#DejaVuSans-56" transform="translate(126.75 0)"/>
     <use xlink:href="#DejaVuSans-58" transform="translate(178.84375 0)"/>
     <use xlink:href="#DejaVuSans-55" transform="translate(242.21875 0)"/>
     <use xlink:href="#DejaVuSans-48" transform="translate(281.125 0)"/>
    </g>
   </g>
   <g id="text_25">
    <!-- - -->
    <g style="fill: #bbbbbb" transform="translate(393.212835 708.246895) scale(0.095 -0.095)">
     <use xlink:href="#DejaVuSans-10"/>
    </g>
   </g>
   <g id="text_26">
    <!-- Child 2 -->
    <g transform="translate(51.085964 1123.532411) scale(0.095 -0.095)">
     <use xlink:href="#DejaVuSans-26"/>
     <use xlink:href="#DejaVuSans-4b" transform="translate(69.828125 0)"/>
     <use xlink:href="#DejaVuSans-4c" transform="translate(133.203125 0)"/>
     <use xlink:href="#DejaVuSans-4f" transform="translate(160.984375 0)"/>
     <use xlink:href="#DejaVuSans-47" transform="translate(188.765625 0)"/>
     <use xlink:href="#DejaVuSans-3" transform="translate(252.25 0)"/>
     <use xlink:href="#DejaVuSans-15" transform="translate(284.03125 0)"/>
    </g>
   </g>
   <g id="text_27">
    <!-- unsure -->
    <g style="fill: #555555" transform="translate(152.439464 1123.53204) scale(0.095 -0.095)">
     <use xlink:href="#DejaVuSans-58"/>
     <use xlink:href="#DejaVuSans-51" transform="translate(63.375 0)"/>
     <use xlink:href="#DejaVuSans-56" transform="translate(126.75 0)"/>
     <use xlink:href="#DejaVuSans-58" transform="translate(178.84375 0)"/>
     <use xlink:href="#DejaVuSans-55" transform="translate(242.21875 0)"/>
     <use xlink:href="#DejaVuSans-48" transform="translate(281.125 0)"/>
    </g>
   </g>
   <g id="text_28">
    <!-- MUDDY! -->
    <g style="fill: #b3261e" transform="translate(260.090583 1123.53204) scale(0.095 -0.095)">
     <use xlink:href="#DejaVuSans-Bold-30"/>
     <use xlink:href="#DejaVuSans-Bold-38" transform="translate(99.515625 0)"/>
     <use xlink:href="#DejaVuSans-Bold-27" transform="translate(180.71875 0)"/>
     <use xlink:href="#DejaVuSans-Bold-27" transform="translate(263.734375 0)"/>
     <use xlink:href="#DejaVuSans-Bold-3c" transform="translate(339.46875 0)"/>
     <use xlink:href="#DejaVuSans-Bold-4" transform="translate(411.875 0)"/>
    </g>
   </g>
   <g id="text_29">
    <!-- - -->
    <g style="fill: #bbbbbb" transform="translate(393.212835 1123.53204) scale(0.095 -0.095)">
     <use xlink:href="#DejaVuSans-10"/>
    </g>
   </g>
   <g id="text_30">
    <!-- Child 3 -->
    <g transform="translate(51.085964 1538.817555) scale(0.095 -0.095)">
     <use xlink:href="#DejaVuSans-26"/>
     <use xlink:href="#DejaVuSans-4b" transform="translate(69.828125 0)"/>
     <use xlink:href="#DejaVuSans-4c" transform="translate(133.203125 0)"/>
     <use xlink:href="#DejaVuSans-4f" transform="translate(160.984375 0)"/>
     <use xlink:href="#DejaVuSans-47" transform="translate(188.765625 0)"/>
     <use xlink:href="#DejaVuSans-3" transform="translate(252.25 0)"/>
     <use xlink:href="#DejaVuSans-16" transform="translate(284.03125 0)"/>
    </g>
   </g>
   <g id="text_31">
    <!-- unsure -->
    <g style="fill: #555555" transform="translate(152.439464 1538.817184) scale(0.095 -0.095)">
     <use xlink:href="#DejaVuSans-58"/>
     <use xlink:href="#DejaVuSans-51" transform="translate(63.375 0)"/>
     <use xlink:href="#DejaVuSans-56" transform="translate(126.75 0)"/>
     <use xlink:href="#DejaVuSans-58" transform="translate(178.84375 0)"/>
     <use xlink:href="#DejaVuSans-55" transform="translate(242.21875 0)"/>
     <use xlink:href="#DejaVuSans-48" transform="translate(281.125 0)"/>
    </g>
   </g>
   <g id="text_32">
    <!-- MUDDY! -->
    <g style="fill: #b3261e" transform="translate(260.090583 1538.817184) scale(0.095 -0.095)">
     <use xlink:href="#DejaVuSans-Bold-30"/>
     <use xlink:href="#DejaVuSans-Bold-38" transform="translate(99.515625 0)"/>
     <use xlink:href="#DejaVuSans-Bold-27" transform="translate(180.71875 0)"/>
     <use xlink:href="#DejaVuSans-Bold-27" transform="translate(263.734375 0)"/>
     <use xlink:href="#DejaVuSans-Bold-3c" transform="translate(339.46875 0)"/>
     <use xlink:href="#DejaVuSans-Bold-4" transform="translate(411.875 0)"/>
    </g>
   </g>
   <g id="text_33">
    <!-- - -->
    <g style="fill: #bbbbbb" transform="translate(393.212835 1538.817184) scale(0.095 -0.095)">
     <use xlink:href="#DejaVuSans-10"/>
    </g>
   </g>
   <g id="text_34">
    <!-- True muddy count m=2 - - Muddy: Child 2, Child 3 -->
    <g transform="translate(10.368 278.104976) scale(0.11 -0.11)">
     <defs>
      <path id="DejaVuSans-f" d="M 750 794 
L 1409 794 
L 1409 256 
L 897 -744 
L 494 -744 
L 750 256 
L 750 794 
z
" transform="scale(0.015625)"/>
     </defs>
     <use xlink:href="#DejaVuSans-37"/>
     <use xlink:href="#DejaVuSans-55" transform="translate(46.375 0)"/>
     <use xlink:href="#DejaVuSans-58" transform="translate(87.484375 0)"/>
     <use xlink:href="#DejaVuSans-48" transform="translate(150.859375 0)"/>
     <use xlink:href="#DejaVuSans-3" transform="translate(212.390625 0)"/>
     <use xlink:href="#DejaVuSans-50" transform="translate(244.171875 0)"/>
     <use xlink:href="#DejaVuSans-58" transform="translate(341.578125 0)"/>
     <use xlink:href="#DejaVuSans-47" transform="translate(404.953125 0)"/>
     <use xlink:href="#DejaVuSans-47" transform="translate(468.4375 0)"/>
     <use xlink:href="#DejaVuSans-5c" transform="translate(531.921875 0)"/>
     <use xlink:href="#DejaVuSans-3" transform="translate(591.109375 0)"/>
     <use xlink:href="#DejaVuSans-46" transform="translate(622.890625 0)"/>
     <use xlink:href="#DejaVuSans-52" transform="translate(677.875 0)"/>
     <use xlink:href="#DejaVuSans-58" transform="translate(739.0625 0)"/>
     <use xlink:href="#DejaVuSans-51" transform="translate(802.4375 0)"/>
     <use xlink:href="#DejaVuSans-57" transform="translate(865.8125 0)"/>
     <use xlink:href="#DejaVuSans-3" transform="translate(905.015625 0)"/>
     <use xlink:href="#DejaVuSans-50" transform="translate(936.796875 0)"/>
     <use xlink:href="#DejaVuSans-20" transform="translate(1034.203125 0)"/>
     <use xlink:href="#DejaVuSans-15" transform="translate(1118 0)"/>
     <use xlink:href="#DejaVuSans-3" transform="translate(1181.625 0)"/>
     <use xlink:href="#DejaVuSans-10" transform="translate(1213.40625 0)"/>
     <use xlink:href="#DejaVuSans-10" transform="translate(1249.484375 0)"/>
     <use xlink:href="#DejaVuSans-3" transform="translate(1285.5625 0)"/>
     <use xlink:href="#DejaVuSans-30" transform="translate(1317.34375 0)"/>
     <use xlink:href="#DejaVuSans-58" transform="translate(1403.625 0)"/>
     <use xlink:href="#DejaVuSans-47" transform="translate(1467 0)"/>
     <use xlink:href="#DejaVuSans-47" transform="translate(1530.484375 0)"/>
     <use xlink:href="#DejaVuSans-5c" transform="translate(1593.96875 0)"/>
     <use xlink:href="#DejaVuSans-1d" transform="translate(1645.875 0)"/>
     <use xlink:href="#DejaVuSans-3" transform="translate(1679.5625 0)"/>
     <use xlink:href="#DejaVuSans-26" transform="translate(1711.34375 0)"/>
     <use xlink:href="#DejaVuSans-4b" transform="translate(1781.171875 0)"/>
     <use xlink:href="#DejaVuSans-4c" transform="translate(1844.546875 0)"/>
     <use xlink:href="#DejaVuSans-4f" transform="translate(1872.328125 0)"/>
     <use xlink:href="#DejaVuSans-47" transform="translate(1900.109375 0)"/>
     <use xlink:href="#DejaVuSans-3" transform="translate(1963.59375 0)"/>
     <use xlink:href="#DejaVuSans-15" transform="translate(1995.375 0)"/>
     <use xlink:href="#DejaVuSans-f" transform="translate(2059 0)"/>
     <use xlink:href="#DejaVuSans-3" transform="translate(2090.78125 0)"/>
     <use xlink:href="#DejaVuSans-26" transform="translate(2122.5625 0)"/>
     <use xlink:href="#DejaVuSans-4b" transform="translate(2192.390625 0)"/>
     <use xlink:href="#DejaVuSans-4c" transform="translate(2255.765625 0)"/>
     <use xlink:href="#DejaVuSans-4f" transform="translate(2283.546875 0)"/>
     <use xlink:href="#DejaVuSans-47" transform="translate(2311.328125 0)"/>
     <use xlink:href="#DejaVuSans-3" transform="translate(2374.8125 0)"/>
     <use xlink:href="#DejaVuSans-16" transform="translate(2406.59375 0)"/>
    </g>
   </g>
  </g>
  <g id="axes_3">
   <g id="line2d_3">
    <path d="M 32.989091 572.248976 
L 485.410909 572.248976 
" clip-path="url(#p8e2473ad5d)" style="fill: none; stroke: #000000; stroke-width: 0.8; stroke-linecap: square"/>
   </g>
   <g id="text_35">
    <!-- Child -->
    <g transform="translate(51.085964 380.578909) scale(0.095 -0.095)">
     <use xlink:href="#DejaVuSans-Bold-26"/>
     <use xlink:href="#DejaVuSans-Bold-4b" transform="translate(73.390625 0)"/>
     <use xlink:href="#DejaVuSans-Bold-4c" transform="translate(144.578125 0)"/>
     <use xlink:href="#DejaVuSans-Bold-4f" transform="translate(178.859375 0)"/>
     <use xlink:href="#DejaVuSans-Bold-47" transform="translate(213.140625 0)"/>
    </g>
   </g>
   <g id="text_36">
    <!-- Round 1 -->
    <g transform="translate(146.67341 380.578909) scale(0.095 -0.095)">
     <use xlink:href="#DejaVuSans-Bold-35"/>
     <use xlink:href="#DejaVuSans-Bold-52" transform="translate(77 0)"/>
     <use xlink:href="#DejaVuSans-Bold-58" transform="translate(145.703125 0)"/>
     <use xlink:href="#DejaVuSans-Bold-51" transform="translate(216.890625 0)"/>
     <use xlink:href="#DejaVuSans-Bold-47" transform="translate(288.078125 0)"/>
     <use xlink:href="#DejaVuSans-Bold-3" transform="translate(359.65625 0)"/>
     <use xlink:href="#DejaVuSans-Bold-14" transform="translate(394.46875 0)"/>
    </g>
   </g>
   <g id="text_37">
    <!-- Round 2 -->
    <g transform="translate(259.778864 380.578909) scale(0.095 -0.095)">
     <use xlink:href="#DejaVuSans-Bold-35"/>
     <use xlink:href="#DejaVuSans-Bold-52" transform="translate(77 0)"/>
     <use xlink:href="#DejaVuSans-Bold-58" transform="translate(145.703125 0)"/>
     <use xlink:href="#DejaVuSans-Bold-51" transform="translate(216.890625 0)"/>
     <use xlink:href="#DejaVuSans-Bold-47" transform="translate(288.078125 0)"/>
     <use xlink:href="#DejaVuSans-Bold-3" transform="translate(359.65625 0)"/>
     <use xlink:href="#DejaVuSans-Bold-15" transform="translate(394.46875 0)"/>
    </g>
   </g>
   <g id="text_38">
    <!-- Round 3 -->
    <g transform="translate(372.884319 380.578909) scale(0.095 -0.095)">
     <use xlink:href="#DejaVuSans-Bold-35"/>
     <use xlink:href="#DejaVuSans-Bold-52" transform="translate(77 0)"/>
     <use xlink:href="#DejaVuSans-Bold-58" transform="translate(145.703125 0)"/>
     <use xlink:href="#DejaVuSans-Bold-51" transform="translate(216.890625 0)"/>
     <use xlink:href="#DejaVuSans-Bold-47" transform="translate(288.078125 0)"/>
     <use xlink:href="#DejaVuSans-Bold-3" transform="translate(359.65625 0)"/>
     <use xlink:href="#DejaVuSans-Bold-16" transform="translate(394.46875 0)"/>
    </g>
   </g>
   <g id="text_39">
    <!-- Child 1 -->
    <g transform="translate(51.085964 926.112242) scale(0.095 -0.095)">
     <use xlink:href="#DejaVuSans-26"/>
     <use xlink:href="#DejaVuSans-4b" transform="translate(69.828125 0)"/>
     <use xlink:href="#DejaVuSans-4c" transform="translate(133.203125 0)"/>
     <use xlink:href="#DejaVuSans-4f" transform="translate(160.984375 0)"/>
     <use xlink:href="#DejaVuSans-47" transform="translate(188.765625 0)"/>
     <use xlink:href="#DejaVuSans-3" transform="translate(252.25 0)"/>
     <use xlink:href="#DejaVuSans-14" transform="translate(284.03125 0)"/>
    </g>
   </g>
   <g id="text_40">
    <!-- unsure -->
    <g style="fill: #555555" transform="translate(152.439464 926.111871) scale(0.095 -0.095)">
     <use xlink:href="#DejaVuSans-58"/>
     <use xlink:href="#DejaVuSans-51" transform="translate(63.375 0)"/>
     <use xlink:href="#DejaVuSans-56" transform="translate(126.75 0)"/>
     <use xlink:href="#DejaVuSans-58" transform="translate(178.84375 0)"/>
     <use xlink:href="#DejaVuSans-55" transform="translate(242.21875 0)"/>
     <use xlink:href="#DejaVuSans-48" transform="translate(281.125 0)"/>
    </g>
   </g>
   <g id="text_41">
    <!-- unsure -->
    <g style="fill: #555555" transform="translate(265.544919 926.111871) scale(0.095 -0.095)">
     <use xlink:href="#DejaVuSans-58"/>
     <use xlink:href="#DejaVuSans-51" transform="translate(63.375 0)"/>
     <use xlink:href="#DejaVuSans-56" transform="translate(126.75 0)"/>
     <use xlink:href="#DejaVuSans-58" transform="translate(178.84375 0)"/>
     <use xlink:href="#DejaVuSans-55" transform="translate(242.21875 0)"/>
     <use xlink:href="#DejaVuSans-48" transform="translate(281.125 0)"/>
    </g>
   </g>
   <g id="text_42">
    <!-- MUDDY! -->
    <g style="fill: #b3261e" transform="translate(373.196038 926.111871) scale(0.095 -0.095)">
     <use xlink:href="#DejaVuSans-Bold-30"/>
     <use xlink:href="#DejaVuSans-Bold-38" transform="translate(99.515625 0)"/>
     <use xlink:href="#DejaVuSans-Bold-27" transform="translate(180.71875 0)"/>
     <use xlink:href="#DejaVuSans-Bold-27" transform="translate(263.734375 0)"/>
     <use xlink:href="#DejaVuSans-Bold-3c" transform="translate(339.46875 0)"/>
     <use xlink:href="#DejaVuSans-Bold-4" transform="translate(411.875 0)"/>
    </g>
   </g>
   <g id="text_43">
    <!-- Child 2 -->
    <g transform="translate(51.085964 1341.397386) scale(0.095 -0.095)">
     <use xlink:href="#DejaVuSans-26"/>
     <use xlink:href="#DejaVuSans-4b" transform="translate(69.828125 0)"/>
     <use xlink:href="#DejaVuSans-4c" transform="translate(133.203125 0)"/>
     <use xlink:href="#DejaVuSans-4f" transform="translate(160.984375 0)"/>
     <use xlink:href="#DejaVuSans-47" transform="translate(188.765625 0)"/>
     <use xlink:href="#DejaVuSans-3" transform="translate(252.25 0)"/>
     <use xlink:href="#DejaVuSans-15" transform="translate(284.03125 0)"/>
    </g>
   </g>
   <g id="text_44">
    <!-- unsure -->
    <g style="fill: #555555" transform="translate(152.439464 1341.397015) scale(0.095 -0.095)">
     <use xlink:href="#DejaVuSans-58"/>
     <use xlink:href="#DejaVuSans-51" transform="translate(63.375 0)"/>
     <use xlink:href="#DejaVuSans-56" transform="translate(126.75 0)"/>
     <use xlink:href="#DejaVuSans-58" transform="translate(178.84375 0)"/>
     <use xlink:href="#DejaVuSans-55" transform="translate(242.21875 0)"/>
     <use xlink:href="#DejaVuSans-48" transform="translate(281.125 0)"/>
    </g>
   </g>
   <g id="text_45">
    <!-- unsure -->
    <g style="fill: #555555" transform="translate(265.544919 1341.397015) scale(0.095 -0.095)">
     <use xlink:href="#DejaVuSans-58"/>
     <use xlink:href="#DejaVuSans-51" transform="translate(63.375 0)"/>
     <use xlink:href="#DejaVuSans-56" transform="translate(126.75 0)"/>
     <use xlink:href="#DejaVuSans-58" transform="translate(178.84375 0)"/>
     <use xlink:href="#DejaVuSans-55" transform="translate(242.21875 0)"/>
     <use xlink:href="#DejaVuSans-48" transform="translate(281.125 0)"/>
    </g>
   </g>
   <g id="text_46">
    <!-- MUDDY! -->
    <g style="fill: #b3261e" transform="translate(373.196038 1341.397015) scale(0.095 -0.095)">
     <use xlink:href="#DejaVuSans-Bold-30"/>
     <use xlink:href="#DejaVuSans-Bold-38" transform="translate(99.515625 0)"/>
     <use xlink:href="#DejaVuSans-Bold-27" transform="translate(180.71875 0)"/>
     <use xlink:href="#DejaVuSans-Bold-27" transform="translate(263.734375 0)"/>
     <use xlink:href="#DejaVuSans-Bold-3c" transform="translate(339.46875 0)"/>
     <use xlink:href="#DejaVuSans-Bold-4" transform="translate(411.875 0)"/>
    </g>
   </g>
   <g id="text_47">
    <!-- Child 3 -->
    <g transform="translate(51.085964 1756.68253) scale(0.095 -0.095)">
     <use xlink:href="#DejaVuSans-26"/>
     <use xlink:href="#DejaVuSans-4b" transform="translate(69.828125 0)"/>
     <use xlink:href="#DejaVuSans-4c" transform="translate(133.203125 0)"/>
     <use xlink:href="#DejaVuSans-4f" transform="translate(160.984375 0)"/>
     <use xlink:href="#DejaVuSans-47" transform="translate(188.765625 0)"/>
     <use xlink:href="#DejaVuSans-3" transform="translate(252.25 0)"/>
     <use xlink:href="#DejaVuSans-16" transform="translate(284.03125 0)"/>
    </g>
   </g>
   <g id="text_48">
    <!-- unsure -->
    <g style="fill: #555555" transform="translate(152.439464 1756.682159) scale(0.095 -0.095)">
     <use xlink:href="#DejaVuSans-58"/>
     <use xlink:href="#DejaVuSans-51" transform="translate(63.375 0)"/>
     <use xlink:href="#DejaVuSans-56" transform="translate(126.75 0)"/>
     <use xlink:href="#DejaVuSans-58" transform="translate(178.84375 0)"/>
     <use xlink:href="#DejaVuSans-55" transform="translate(242.21875 0)"/>
     <use xlink:href="#DejaVuSans-48" transform="translate(281.125 0)"/>
    </g>
   </g>
   <g id="text_49">
    <!-- unsure -->
    <g style="fill: #555555" transform="translate(265.544919 1756.682159) scale(0.095 -0.095)">
     <use xlink:href="#DejaVuSans-58"/>
     <use xlink:href="#DejaVuSans-51" transform="translate(63.375 0)"/>
     <use xlink:href="#DejaVuSans-56" transform="translate(126.75 0)"/>
     <use xlink:href="#DejaVuSans-58" transform="translate(178.84375 0)"/>
     <use xlink:href="#DejaVuSans-55" transform="translate(242.21875 0)"/>
     <use xlink:href="#DejaVuSans-48" transform="translate(281.125 0)"/>
    </g>
   </g>
   <g id="text_50">
    <!-- MUDDY! -->
    <g style="fill: #b3261e" transform="translate(373.196038 1756.682159) scale(0.095 -0.095)">
     <use xlink:href="#DejaVuSans-Bold-30"/>
     <use xlink:href="#DejaVuSans-Bold-38" transform="translate(99.515625 0)"/>
     <use xlink:href="#DejaVuSans-Bold-27" transform="translate(180.71875 0)"/>
     <use xlink:href="#DejaVuSans-Bold-27" transform="translate(263.734375 0)"/>
     <use xlink:href="#DejaVuSans-Bold-3c" transform="translate(339.46875 0)"/>
     <use xlink:href="#DejaVuSans-Bold-4" transform="translate(411.875 0)"/>
    </g>
   </g>
   <g id="text_51">
    <!-- True muddy count m=3 - - Muddy: Child 1, Child 2, Child 3 -->
    <g transform="translate(10.368 495.969951) scale(0.11 -0.11)">
     <use xlink:href="#DejaVuSans-37"/>
     <use xlink:href="#DejaVuSans-55" transform="translate(46.375 0)"/>
     <use xlink:href="#DejaVuSans-58" transform="translate(87.484375 0)"/>
     <use xlink:href="#DejaVuSans-48" transform="translate(150.859375 0)"/>
     <use xlink:href="#DejaVuSans-3" transform="translate(212.390625 0)"/>
     <use xlink:href="#DejaVuSans-50" transform="translate(244.171875 0)"/>
     <use xlink:href="#DejaVuSans-58" transform="translate(341.578125 0)"/>
     <use xlink:href="#DejaVuSans-47" transform="translate(404.953125 0)"/>
     <use xlink:href="#DejaVuSans-47" transform="translate(468.4375 0)"/>
     <use xlink:href="#DejaVuSans-5c" transform="translate(531.921875 0)"/>
     <use xlink:href="#DejaVuSans-3" transform="translate(591.109375 0)"/>
     <use xlink:href="#DejaVuSans-46" transform="translate(622.890625 0)"/>
     <use xlink:href="#DejaVuSans-52" transform="translate(677.875 0)"/>
     <use xlink:href="#DejaVuSans-58" transform="translate(739.0625 0)"/>
     <use xlink:href="#DejaVuSans-51" transform="translate(802.4375 0)"/>
     <use xlink:href="#DejaVuSans-57" transform="translate(865.8125 0)"/>
     <use xlink:href="#DejaVuSans-3" transform="translate(905.015625 0)"/>
     <use xlink:href="#DejaVuSans-50" transform="translate(936.796875 0)"/>
     <use xlink:href="#DejaVuSans-20" transform="translate(1034.203125 0)"/>
     <use xlink:href="#DejaVuSans-16" transform="translate(1118 0)"/>
     <use xlink:href="#DejaVuSans-3" transform="translate(1181.625 0)"/>
     <use xlink:href="#DejaVuSans-10" transform="translate(1213.40625 0)"/>
     <use xlink:href="#DejaVuSans-10" transform="translate(1249.484375 0)"/>
     <use xlink:href="#DejaVuSans-3" transform="translate(1285.5625 0)"/>
     <use xlink:href="#DejaVuSans-30" transform="translate(1317.34375 0)"/>
     <use xlink:href="#DejaVuSans-58" transform="translate(1403.625 0)"/>
     <use xlink:href="#DejaVuSans-47" transform="translate(1467 0)"/>
     <use xlink:href="#DejaVuSans-47" transform="translate(1530.484375 0)"/>
     <use xlink:href="#DejaVuSans-5c" transform="translate(1593.96875 0)"/>
     <use xlink:href="#DejaVuSans-1d" transform="translate(1645.875 0)"/>
     <use xlink:href="#DejaVuSans-3" transform="translate(1679.5625 0)"/>
     <use xlink:href="#DejaVuSans-26" transform="translate(1711.34375 0)"/>
     <use xlink:href="#DejaVuSans-4b" transform="translate(1781.171875 0)"/>
     <use xlink:href="#DejaVuSans-4c" transform="translate(1844.546875 0)"/>
     <use xlink:href="#DejaVuSans-4f" transform="translate(1872.328125 0)"/>
     <use xlink:href="#DejaVuSans-47" transform="translate(1900.109375 0)"/>
     <use xlink:href="#DejaVuSans-3" transform="translate(1963.59375 0)"/>
     <use xlink:href="#DejaVuSans-14" transform="translate(1995.375 0)"/>
     <use xlink:href="#DejaVuSans-f" transform="translate(2059 0)"/>
     <use xlink:href="#DejaVuSans-3" transform="translate(2090.78125 0)"/>
     <use xlink:href="#DejaVuSans-26" transform="translate(2122.5625 0)"/>
     <use xlink:href="#DejaVuSans-4b" transform="translate(2192.390625 0)"/>
     <use xlink:href="#DejaVuSans-4c" transform="translate(2255.765625 0)"/>
     <use xlink:href="#DejaVuSans-4f" transform="translate(2283.546875 0)"/>
     <use xlink:href="#DejaVuSans-47" transform="translate(2311.328125 0)"/>
     <use xlink:href="#DejaVuSans-3" transform="translate(2374.8125 0)"/>
     <use xlink:href="#DejaVuSans-15" transform="translate(2406.59375 0)"/>
     <use xlink:href="#DejaVuSans-f" transform="translate(2470.21875 0)"/>
     <use xlink:href="#DejaVuSans-3" transform="translate(2502 0)"/>
     <use xlink:href="#DejaVuSans-26" transform="translate(2533.78125 0)"/>
     <use xlink:href="#DejaVuSans-4b" transform="translate(2603.609375 0)"/>
     <use xlink:href="#DejaVuSans-4c" transform="translate(2666.984375 0)"/>
     <use xlink:href="#DejaVuSans-4f" transform="translate(2694.765625 0)"/>
     <use xlink:href="#DejaVuSans-47" transform="translate(2722.546875 0)"/>
     <use xlink:href="#DejaVuSans-3" transform="translate(2786.03125 0)"/>
     <use xlink:href="#DejaVuSans-16" transform="translate(2817.8125 0)"/>
    </g>
   </g>
  </g>
  <g id="text_52">
   <!-- Muddy Children, n=3: who knows they're muddy, round by round -->
   <g transform="translate(62.9925 22.366125) scale(0.12 -0.12)">
    <defs>
     <path id="DejaVuSans-5a" d="M 269 3500 
L 844 3500 
L 1563 769 
L 2278 3500 
L 2956 3500 
L 3675 769 
L 4391 3500 
L 4966 3500 
L 4050 0 
L 3372 0 
L 2619 2869 
L 1863 0 
L 1184 0 
L 269 3500 
z
" transform="scale(0.015625)"/>
     <path id="DejaVuSans-4e" d="M 581 4863 
L 1159 4863 
L 1159 1991 
L 2875 3500 
L 3609 3500 
L 1753 1863 
L 3688 0 
L 2938 0 
L 1159 1709 
L 1159 0 
L 581 0 
L 581 4863 
z
" transform="scale(0.015625)"/>
     <path id="DejaVuSans-a" d="M 1147 4666 
L 1147 2931 
L 616 2931 
L 616 4666 
L 1147 4666 
z
" transform="scale(0.015625)"/>
     <path id="DejaVuSans-45" d="M 3116 1747 
Q 3116 2381 2855 2742 
Q 2594 3103 2138 3103 
Q 1681 3103 1420 2742 
Q 1159 2381 1159 1747 
Q 1159 1113 1420 752 
Q 1681 391 2138 391 
Q 2594 391 2855 752 
Q 3116 1113 3116 1747 
z
M 1159 2969 
Q 1341 3281 1617 3432 
Q 1894 3584 2278 3584 
Q 2916 3584 3314 3078 
Q 3713 2572 3713 1747 
Q 3713 922 3314 415 
Q 2916 -91 2278 -91 
Q 1894 -91 1617 61 
Q 1341 213 1159 525 
L 1159 0 
L 581 0 
L 581 4863 
L 1159 4863 
L 1159 2969 
z
" transform="scale(0.015625)"/>
    </defs>
    <use xlink:href="#DejaVuSans-30"/>
    <use xlink:href="#DejaVuSans-58" transform="translate(86.28125 0)"/>
    <use xlink:href="#DejaVuSans-47" transform="translate(149.65625 0)"/>
    <use xlink:href="#DejaVuSans-47" transform="translate(213.140625 0)"/>
    <use xlink:href="#DejaVuSans-5c" transform="translate(276.625 0)"/>
    <use xlink:href="#DejaVuSans-3" transform="translate(335.8125 0)"/>
    <use xlink:href="#DejaVuSans-26" transform="translate(367.59375 0)"/>
    <use xlink:href="#DejaVuSans-4b" transform="translate(437.421875 0)"/>
    <use xlink:href="#DejaVuSans-4c" transform="translate(500.796875 0)"/>
    <use xlink:href="#DejaVuSans-4f" transform="translate(528.578125 0)"/>
    <use xlink:href="#DejaVuSans-47" transform="translate(556.359375 0)"/>
    <use xlink:href="#DejaVuSans-55" transform="translate(619.84375 0)"/>
    <use xlink:href="#DejaVuSans-48" transform="translate(658.75 0)"/>
    <use xlink:href="#DejaVuSans-51" transform="translate(720.28125 0)"/>
    <use xlink:href="#DejaVuSans-f" transform="translate(783.65625 0)"/>
    <use xlink:href="#DejaVuSans-3" transform="translate(815.4375 0)"/>
    <use xlink:href="#DejaVuSans-51" transform="translate(847.21875 0)"/>
    <use xlink:href="#DejaVuSans-20" transform="translate(910.59375 0)"/>
    <use xlink:href="#DejaVuSans-16" transform="translate(994.390625 0)"/>
    <use xlink:href="#DejaVuSans-1d" transform="translate(1058.015625 0)"/>
    <use xlink:href="#DejaVuSans-3" transform="translate(1091.703125 0)"/>
    <use xlink:href="#DejaVuSans-5a" transform="translate(1123.484375 0)"/>
    <use xlink:href="#DejaVuSans-4b" transform="translate(1205.265625 0)"/>
    <use xlink:href="#DejaVuSans-52" transform="translate(1268.640625 0)"/>
    <use xlink:href="#DejaVuSans-3" transform="translate(1329.828125 0)"/>
    <use xlink:href="#DejaVuSans-4e" transform="translate(1361.609375 0)"/>
    <use xlink:href="#DejaVuSans-51" transform="translate(1419.515625 0)"/>
    <use xlink:href="#DejaVuSans-52" transform="translate(1482.890625 0)"/>
    <use xlink:href="#DejaVuSans-5a" transform="translate(1544.078125 0)"/>
    <use xlink:href="#DejaVuSans-56" transform="translate(1625.859375 0)"/>
    <use xlink:href="#DejaVuSans-3" transform="translate(1677.953125 0)"/>
    <use xlink:href="#DejaVuSans-57" transform="translate(1709.734375 0)"/>
    <use xlink:href="#DejaVuSans-4b" transform="translate(1748.9375 0)"/>
    <use xlink:href="#DejaVuSans-48" transform="translate(1812.3125 0)"/>
    <use xlink:href="#DejaVuSans-5c" transform="translate(1873.84375 0)"/>
    <use xlink:href="#DejaVuSans-a" transform="translate(1933.03125 0)"/>
    <use xlink:href="#DejaVuSans-55" transform="translate(1960.515625 0)"/>
    <use xlink:href="#DejaVuSans-48" transform="translate(1999.421875 0)"/>
    <use xlink:href="#DejaVuSans-3" transform="translate(2060.953125 0)"/>
    <use xlink:href="#DejaVuSans-50" transform="translate(2092.734375 0)"/>
    <use xlink:href="#DejaVuSans-58" transform="translate(2190.140625 0)"/>
    <use xlink:href="#DejaVuSans-47" transform="translate(2253.515625 0)"/>
    <use xlink:href="#DejaVuSans-47" transform="translate(2317 0)"/>
    <use xlink:href="#DejaVuSans-5c" transform="translate(2380.484375 0)"/>
    <use xlink:href="#DejaVuSans-f" transform="translate(2439.671875 0)"/>
    <use xlink:href="#DejaVuSans-3" transform="translate(2471.453125 0)"/>
    <use xlink:href="#DejaVuSans-55" transform="translate(2503.234375 0)"/>
    <use xlink:href="#DejaVuSans-52" transform="translate(2542.140625 0)"/>
    <use xlink:href="#DejaVuSans-58" transform="translate(2603.328125 0)"/>
    <use xlink:href="#DejaVuSans-51" transform="translate(2666.703125 0)"/>
    <use xlink:href="#DejaVuSans-47" transform="translate(2730.078125 0)"/>
    <use xlink:href="#DejaVuSans-3" transform="translate(2793.5625 0)"/>
    <use xlink:href="#DejaVuSans-45" transform="translate(2825.34375 0)"/>
    <use xlink:href="#DejaVuSans-5c" transform="translate(2888.828125 0)"/>
    <use xlink:href="#DejaVuSans-3" transform="translate(2948.015625 0)"/>
    <use xlink:href="#DejaVuSans-55" transform="translate(2979.796875 0)"/>
    <use xlink:href="#DejaVuSans-52" transform="translate(3018.703125 0)"/>
    <use xlink:href="#DejaVuSans-58" transform="translate(3079.890625 0)"/>
    <use xlink:href="#DejaVuSans-51" transform="translate(3143.265625 0)"/>
    <use xlink:href="#DejaVuSans-47" transform="translate(3206.640625 0)"/>
   </g>
  </g>
 </g>
 <defs>
  <clipPath id="pcfeda19c03">
   <rect x="10.368" y="66.24" width="497.664" height="140.558049"/>
  </clipPath>
  <clipPath id="p151ee8aff5">
   <rect x="10.368" y="284.104976" width="497.664" height="140.558049"/>
  </clipPath>
  <clipPath id="p8e2473ad5d">
   <rect x="10.368" y="501.969951" width="497.664" height="140.558049"/>
  </clipPath>
 </defs>
</svg>
