<?xml version="1.0" encoding="utf-8" standalone="no"?>
<!DOCTYPE svg PUBLIC "-//W3C//DTD SVG 1.1//EN"
  "http://www.w3.org/Graphics/SVG/1.1/DTD/svg11.dtd">
<svg xmlns:xlink="http://www.w3.org/1999/xlink" width="684pt" height="547.2pt" viewBox="0 0 684 547.2" xmlns="http://www.w3.org/2000/svg" version="1.1">
 <metadata>
  <rdf:RDF xmlns:dc="http://purl.org/dc/elements/1.1/" xmlns:cc="http://creativecommons.org/ns#" xmlns:rdf="http://www.w3.org/1999/02/22-rdf-syntax-ns#">
   <cc:Work>
    <dc:type rdf:resource="http://purl.org/dc/dcmitype/StillImage"/>
    <dc:date>2026-07-02T00:36:02.050504</dc:date>
    <dc:format>image/svg+xml</dc:format>
    <dc:creator>
     <cc:Agent>
      <dc:title>Matplotlib v3.11.0, https://matplotlib.org/</dc:title>
     </cc:Agent>
    </dc:creator>
   </cc:Work>
  </rdf:RDF>
 </metadata>
 <defs>
  <style type="text/css">*{stroke-linejoin: round; stroke-linecap: butt}</style>
 </defs>
 <g id="figure_1">
  <g id="patch_1">
   <path d="M 0 547.2 
L 684 547.2 
L 684 0 
L 0 0 
z
" style="fill: #ffffff"/>
  </g>
  <g id="axes_1">
   <g id="patch_2">
    <path d="M 153.670588 477.762943 
L 627.741176 477.762943 
L 627.741176 436.021309 
L 153.670588 436.021309 
z
" clip-path="url(#p1b42532282)" style="fill: #c0392b; fill-opacity: 0.101961; stroke: #c0392b; stroke-width: 1.6; stroke-linejoin: miter"/>
   </g>
   <g id="text_1">
    <!-- General A -->
    <g transform="translate(181.746475 51.898894) scale(0.11 -0.11)">
     <defs>
      <path id="DejaVuSans-Bold-2a" d="M 4781 347 
Q 4331 128 3847 18 
Q 3363 -91 2847 -91 
Q 1681 -91 1000 561 
Q 319 1213 319 2328 
Q 319 3456 1012 4103 
Q 1706 4750 2913 4750 
Q 3378 4750 3804 4662 
Q 4231 4575 4609 4403 
L 4609 3438 
Q 4219 3659 3833 3768 
Q 3447 3878 3059 3878 
Q 2341 3878 1952 3476 
Q 1563 3075 1563 2328 
Q 1563 1588 1938 1184 
Q 2313 781 3003 781 
Q 3191 781 3352 804 
Q 3513 828 3641 878 
L 3641 1784 
L 2906 1784 
L 2906 2591 
L 4781 2591 
L 4781 347 
z
" transform="scale(0.015625)"/>
      <path id="DejaVuSans-Bold-48" d="M 4031 1759 
L 4031 1441 
L 1416 1441 
Q 1456 1047 1700 850 
Q 1944 653 2381 653 
Q 2734 653 3104 758 
Q 3475 863 3866 1075 
L 3866 213 
Q 3469 63 3072 -14 
Q 2675 -91 2278 -91 
Q 1328 -91 801 392 
Q 275 875 275 1747 
Q 275 2603 792 3093 
Q 1309 3584 2216 3584 
Q 3041 3584 3536 3087 
Q 4031 2591 4031 1759 
z
M 2881 2131 
Q 2881 2450 2695 2645 
Q 2509 2841 2209 2841 
Q 1884 2841 1681 2658 
Q 1478 2475 1428 2131 
L 2881 2131 
z
" transform="scale(0.015625)"/>
      <path id="DejaVuSans-Bold-51" d="M 4056 2131 
L 4056 0 
L 2931 0 
L 2931 347 
L 2931 1631 
Q 2931 2084 2911 2256 
Q 2891 2428 2841 2509 
Q 2775 2619 2662 2680 
Q 2550 2741 2406 2741 
Q 2056 2741 1856 2470 
Q 1656 2200 1656 1722 
L 1656 0 
L 538 0 
L 538 3500 
L 1656 3500 
L 1656 2988 
Q 1909 3294 2193 3439 
Q 2478 3584 2822 3584 
Q 3428 3584 3742 3212 
Q 4056 2841 4056 2131 
z
" transform="scale(0.015625)"/>
      <path id="DejaVuSans-Bold-55" d="M 3138 2547 
Q 2991 2616 2845 2648 
Q 2700 2681 2553 2681 
Q 2122 2681 1889 2404 
Q 1656 2128 1656 1613 
L 1656 0 
L 538 0 
L 538 3500 
L 1656 3500 
L 1656 2925 
Q 1872 3269 2151 3426 
Q 2431 3584 2822 3584 
Q 2878 3584 2943 3579 
Q 3009 3575 3134 3559 
L 3138 2547 
z
" transform="scale(0.015625)"/>
      <path id="DejaVuSans-Bold-44" d="M 2106 1575 
Q 1756 1575 1579 1456 
Q 1403 1338 1403 1106 
Q 1403 894 1545 773 
Q 1688 653 1941 653 
Q 2256 653 2472 879 
Q 2688 1106 2688 1447 
L 2688 1575 
L 2106 1575 
z
M 3816 1997 
L 3816 0 
L 2688 0 
L 2688 519 
Q 2463 200 2181 54 
Q 1900 -91 1497 -91 
Q 953 -91 614 226 
Q 275 544 275 1050 
Q 275 1666 698 1953 
Q 1122 2241 2028 2241 
L 2688 2241 
L 2688 2328 
Q 2688 2594 2478 2717 
Q 2269 2841 1825 2841 
Q 1466 2841 1156 2769 
Q 847 2697 581 2553 
L 581 3406 
Q 941 3494 1303 3539 
Q 1666 3584 2028 3584 
Q 2975 3584 3395 3211 
Q 3816 2838 3816 1997 
z
" transform="scale(0.015625)"/>
      <path id="DejaVuSans-Bold-4f" d="M 538 4863 
L 1656 4863 
L 1656 0 
L 538 0 
L 538 4863 
z
" transform="scale(0.015625)"/>
      <path id="DejaVuSans-Bold-3" transform="scale(0.015625)"/>
      <path id="DejaVuSans-Bold-24" d="M 3419 850 
L 1538 850 
L 1241 0 
L 31 0 
L 1759 4666 
L 3194 4666 
L 4922 0 
L 3713 0 
L 3419 850 
z
M 1838 1716 
L 3116 1716 
L 2478 3572 
L 1838 1716 
z
" transform="scale(0.015625)"/>
     </defs>
     <use xlink:href="#DejaVuSans-Bold-2a"/>
     <use xlink:href="#DejaVuSans-Bold-48" transform="translate(82.078125 0)"/>
     <use xlink:href="#DejaVuSans-Bold-51" transform="translate(149.90625 0)"/>
     <use xlink:href="#DejaVuSans-Bold-48" transform="translate(221.09375 0)"/>
     <use xlink:href="#DejaVuSans-Bold-55" transform="translate(288.921875 0)"/>
     <use xlink:href="#DejaVuSans-Bold-44" transform="translate(338.234375 0)"/>
     <use xlink:href="#DejaVuSans-Bold-4f" transform="translate(405.71875 0)"/>
     <use xlink:href="#DejaVuSans-Bold-3" transform="translate(440 0)"/>
     <use xlink:href="#DejaVuSans-Bold-24" transform="translate(474.8125 0)"/>
    </g>
   </g>
   <g id="text_2">
    <!-- General B -->
    <g transform="translate(538.987399 51.898894) scale(0.11 -0.11)">
     <defs>
      <path id="DejaVuSans-Bold-25" d="M 2456 2859 
Q 2741 2859 2887 2984 
Q 3034 3109 3034 3353 
Q 3034 3594 2887 3720 
Q 2741 3847 2456 3847 
L 1791 3847 
L 1791 2859 
L 2456 2859 
z
M 2497 819 
Q 2859 819 3042 972 
Q 3225 1125 3225 1434 
Q 3225 1738 3044 1889 
Q 2863 2041 2497 2041 
L 1791 2041 
L 1791 819 
L 2497 819 
z
M 3616 2497 
Q 4003 2384 4215 2081 
Q 4428 1778 4428 1338 
Q 4428 663 3972 331 
Q 3516 0 2584 0 
L 588 0 
L 588 4666 
L 2394 4666 
Q 3366 4666 3802 4372 
Q 4238 4078 4238 3431 
Q 4238 3091 4078 2852 
Q 3919 2613 3616 2497 
z
" transform="scale(0.015625)"/>
     </defs>
     <use xlink:href="#DejaVuSans-Bold-2a"/>
     <use xlink:href="#DejaVuSans-Bold-48" transform="translate(82.078125 0)"/>
     <use xlink:href="#DejaVuSans-Bold-51" transform="translate(149.90625 0)"/>
     <use xlink:href="#DejaVuSans-Bold-48" transform="translate(221.09375 0)"/>
     <use xlink:href="#DejaVuSans-Bold-55" transform="translate(288.921875 0)"/>
     <use xlink:href="#DejaVuSans-Bold-44" transform="translate(338.234375 0)"/>
     <use xlink:href="#DejaVuSans-Bold-4f" transform="translate(405.71875 0)"/>
     <use xlink:href="#DejaVuSans-Bold-3" transform="translate(440 0)"/>
     <use xlink:href="#DejaVuSans-Bold-25" transform="translate(474.8125 0)"/>
    </g>
   </g>
   <g id="text_3">
    <!-- k=3 -->
    <g transform="translate(27.035294 132.299608) scale(0.13 -0.13)">
     <defs>
      <path id="DejaVuSans-Bold-4e" d="M 538 4863 
L 1656 4863 
L 1656 2216 
L 2944 3500 
L 4244 3500 
L 2534 1894 
L 4378 0 
L 3022 0 
L 1656 1459 
L 1656 0 
L 538 0 
L 538 4863 
z
" transform="scale(0.015625)"/>
      <path id="DejaVuSans-Bold-20" d="M 678 3084 
L 4684 3084 
L 4684 2350 
L 678 2350 
L 678 3084 
z
M 678 1663 
L 4684 1663 
L 4684 922 
L 678 922 
L 678 1663 
z
" transform="scale(0.015625)"/>
      <path id="DejaVuSans-Bold-16" d="M 2981 2516 
Q 3453 2394 3698 2092 
Q 3944 1791 3944 1325 
Q 3944 631 3412 270 
Q 2881 -91 1863 -91 
Q 1503 -91 1142 -33 
Q 781 25 428 141 
L 428 1069 
Q 766 900 1098 814 
Q 1431 728 1753 728 
Q 2231 728 2486 893 
Q 2741 1059 2741 1369 
Q 2741 1688 2480 1852 
Q 2219 2016 1709 2016 
L 1228 2016 
L 1228 2791 
L 1734 2791 
Q 2188 2791 2409 2933 
Q 2631 3075 2631 3366 
Q 2631 3634 2415 3781 
Q 2200 3928 1806 3928 
Q 1516 3928 1219 3862 
Q 922 3797 628 3669 
L 628 4550 
Q 984 4650 1334 4700 
Q 1684 4750 2022 4750 
Q 2931 4750 3382 4451 
Q 3834 4153 3834 3553 
Q 3834 3144 3618 2883 
Q 3403 2622 2981 2516 
z
" transform="scale(0.015625)"/>
     </defs>
     <use xlink:href="#DejaVuSans-Bold-4e"/>
     <use xlink:href="#DejaVuSans-Bold-20" transform="translate(66.5 0)"/>
     <use xlink:href="#DejaVuSans-Bold-16" transform="translate(150.296875 0)"/>
    </g>
   </g>
   <g id="patch_3">
    <path d="M 214.119643 128.922147 
Q 271.649602 128.922147 327.390706 128.922147 
" style="fill: none; stroke: #4c4c4c; stroke-width: 1.6; stroke-linecap: round"/>
    <path d="M 321.390706 125.922147 
L 327.390706 128.922147 
L 321.390706 131.922147 
z
" style="fill: #4c4c4c; stroke: #4c4c4c; stroke-width: 1.6; stroke-linecap: round"/>
   </g>
   <g id="patch_4">
    <path d="M 448.233298 128.922147 
Q 390.70334 128.922147 334.962236 128.922147 
" style="fill: none; stroke: #4c4c4c; stroke-width: 1.6; stroke-linecap: round"/>
    <path d="M 340.962236 131.922147 
L 334.962236 128.922147 
L 340.962236 125.922147 
z
" style="fill: #4c4c4c; stroke: #4c4c4c; stroke-width: 1.6; stroke-linecap: round"/>
   </g>
   <g id="patch_5">
    <path d="M 452.23729 128.922147 
Q 509.767249 128.922147 565.508353 128.922147 
" style="fill: none; stroke-dasharray: 5.92,2.56; stroke-dashoffset: 0; stroke: #c0392b; stroke-width: 1.6; stroke-linecap: round"/>
    <path d="M 559.508353 125.922147 
L 565.508353 128.922147 
L 559.508353 131.922147 
z
" style="fill: #c0392b; stroke-dasharray: 5.92,2.56; stroke-dashoffset: 0; stroke: #c0392b; stroke-width: 1.6; stroke-linecap: round"/>
   </g>
   <g id="text_4">
    <!-- last msg -->
    <g style="fill: #c0392b" transform="translate(582.282353 126.199491) scale(0.08 -0.08)">
     <defs>
      <path id="DejaVuSans-4f" d="M 603 4863 
L 1178 4863 
L 1178 0 
L 603 0 
L 603 4863 
z
" transform="scale(0.015625)"/>
      <path id="DejaVuSans-44" d="M 2194 1759 
Q 1497 1759 1228 1600 
Q 959 1441 959 1056 
Q 959 750 1161 570 
Q 1363 391 1709 391 
Q 2188 391 2477 730 
Q 2766 1069 2766 1631 
L 2766 1759 
L 2194 1759 
z
M 3341 1997 
L 3341 0 
L 2766 0 
L 2766 531 
Q 2569 213 2275 61 
Q 1981 -91 1556 -91 
Q 1019 -91 701 211 
Q 384 513 384 1019 
Q 384 1609 779 1909 
Q 1175 2209 1959 2209 
L 2766 2209 
L 2766 2266 
Q 2766 2663 2505 2880 
Q 2244 3097 1772 3097 
Q 1472 3097 1187 3025 
Q 903 2953 641 2809 
L 641 3341 
Q 956 3463 1253 3523 
Q 1550 3584 1831 3584 
Q 2591 3584 2966 3190 
Q 3341 2797 3341 1997 
z
" transform="scale(0.015625)"/>
      <path id="DejaVuSans-56" d="M 2834 3397 
L 2834 2853 
Q 2591 2978 2328 3040 
Q 2066 3103 1784 3103 
Q 1356 3103 1142 2972 
Q 928 2841 928 2578 
Q 928 2378 1081 2264 
Q 1234 2150 1697 2047 
L 1894 2003 
Q 2506 1872 2764 1633 
Q 3022 1394 3022 966 
Q 3022 478 2636 193 
Q 2250 -91 1575 -91 
Q 1294 -91 989 -36 
Q 684 19 347 128 
L 347 722 
Q 666 556 975 473 
Q 1284 391 1588 391 
Q 1994 391 2212 530 
Q 2431 669 2431 922 
Q 2431 1156 2273 1281 
Q 2116 1406 1581 1522 
L 1381 1569 
Q 847 1681 609 1914 
Q 372 2147 372 2553 
Q 372 3047 722 3315 
Q 1072 3584 1716 3584 
Q 2034 3584 2315 3537 
Q 2597 3491 2834 3397 
z
" transform="scale(0.015625)"/>
      <path id="DejaVuSans-57" d="M 1172 4494 
L 1172 3500 
L 2356 3500 
L 2356 3053 
L 1172 3053 
L 1172 1153 
Q 1172 725 1289 603 
Q 1406 481 1766 481 
L 2356 481 
L 2356 0 
L 1766 0 
Q 1100 0 847 248 
Q 594 497 594 1153 
L 594 3053 
L 172 3053 
L 172 3500 
L 594 3500 
L 594 4494 
L 1172 4494 
z
" transform="scale(0.015625)"/>
      <path id="DejaVuSans-3" transform="scale(0.015625)"/>
      <path id="DejaVuSans-50" d="M 3328 2828 
Q 3544 3216 3844 3400 
Q 4144 3584 4550 3584 
Q 5097 3584 5394 3201 
Q 5691 2819 5691 2113 
L 5691 0 
L 5113 0 
L 5113 2094 
Q 5113 2597 4934 2840 
Q 4756 3084 4391 3084 
Q 3944 3084 3684 2787 
Q 3425 2491 3425 1978 
L 3425 0 
L 2847 0 
L 2847 2094 
Q 2847 2600 2669 2842 
Q 2491 3084 2119 3084 
Q 1678 3084 1418 2786 
Q 1159 2488 1159 1978 
L 1159 0 
L 581 0 
L 581 3500 
L 1159 3500 
L 1159 2956 
Q 1356 3278 1631 3431 
Q 1906 3584 2284 3584 
Q 2666 3584 2933 3390 
Q 3200 3197 3328 2828 
z
" transform="scale(0.015625)"/>
      <path id="DejaVuSans-4a" d="M 2906 1791 
Q 2906 2416 2648 2759 
Q 2391 3103 1925 3103 
Q 1463 3103 1205 2759 
Q 947 2416 947 1791 
Q 947 1169 1205 825 
Q 1463 481 1925 481 
Q 2391 481 2648 825 
Q 2906 1169 2906 1791 
z
M 3481 434 
Q 3481 -459 3084 -895 
Q 2688 -1331 1869 -1331 
Q 1566 -1331 1297 -1286 
Q 1028 -1241 775 -1147 
L 775 -588 
Q 1028 -725 1275 -790 
Q 1522 -856 1778 -856 
Q 2344 -856 2625 -561 
Q 2906 -266 2906 331 
L 2906 616 
Q 2728 306 2450 153 
Q 2172 0 1784 0 
Q 1141 0 747 490 
Q 353 981 353 1791 
Q 353 2603 747 3093 
Q 1141 3584 1784 3584 
Q 2172 3584 2450 3431 
Q 2728 3278 2906 2969 
L 2906 3500 
L 3481 3500 
L 3481 434 
z
" transform="scale(0.015625)"/>
     </defs>
     <use xlink:href="#DejaVuSans-4f"/>
     <use xlink:href="#DejaVuSans-44" transform="translate(27.78125 0)"/>
     <use xlink:href="#DejaVuSans-56" transform="translate(89.0625 0)"/>
     <use xlink:href="#DejaVuSans-57" transform="translate(141.15625 0)"/>
     <use xlink:href="#DejaVuSans-3" transform="translate(180.359375 0)"/>
     <use xlink:href="#DejaVuSans-50" transform="translate(212.140625 0)"/>
     <use xlink:href="#DejaVuSans-56" transform="translate(309.546875 0)"/>
     <use xlink:href="#DejaVuSans-4a" transform="translate(361.640625 0)"/>
    </g>
    <!-- may be lost -->
    <g style="fill: #c0392b" transform="translate(582.282353 135.801678) scale(0.08 -0.08)">
     <defs>
      <path id="DejaVuSans-5c" d="M 2059 -325 
Q 1816 -950 1584 -1140 
Q 1353 -1331 966 -1331 
L 506 -1331 
L 506 -850 
L 844 -850 
Q 1081 -850 1212 -737 
Q 1344 -625 1503 -206 
L 1606 56 
L 191 3500 
L 800 3500 
L 1894 763 
L 2988 3500 
L 3597 3500 
L 2059 -325 
z
" transform="scale(0.015625)"/>
      <path id="DejaVuSans-45" d="M 3116 1747 
Q 3116 2381 2855 2742 
Q 2594 3103 2138 3103 
Q 1681 3103 1420 2742 
Q 1159 2381 1159 1747 
Q 1159 1113 1420 752 
Q 1681 391 2138 391 
Q 2594 391 2855 752 
Q 3116 1113 3116 1747 
z
M 1159 2969 
Q 1341 3281 1617 3432 
Q 1894 3584 2278 3584 
Q 2916 3584 3314 3078 
Q 3713 2572 3713 1747 
Q 3713 922 3314 415 
Q 2916 -91 2278 -91 
Q 1894 -91 1617 61 
Q 1341 213 1159 525 
L 1159 0 
L 581 0 
L 581 4863 
L 1159 4863 
L 1159 2969 
z
" transform="scale(0.015625)"/>
      <path id="DejaVuSans-48" d="M 3597 1894 
L 3597 1613 
L 953 1613 
Q 991 1019 1311 708 
Q 1631 397 2203 397 
Q 2534 397 2845 478 
Q 3156 559 3463 722 
L 3463 178 
Q 3153 47 2828 -22 
Q 2503 -91 2169 -91 
Q 1331 -91 842 396 
Q 353 884 353 1716 
Q 353 2575 817 3079 
Q 1281 3584 2069 3584 
Q 2775 3584 3186 3129 
Q 3597 2675 3597 1894 
z
M 3022 2063 
Q 3016 2534 2758 2815 
Q 2500 3097 2075 3097 
Q 1594 3097 1305 2825 
Q 1016 2553 972 2059 
L 3022 2063 
z
" transform="scale(0.015625)"/>
      <path id="DejaVuSans-52" d="M 1959 3097 
Q 1497 3097 1228 2736 
Q 959 2375 959 1747 
Q 959 1119 1226 758 
Q 1494 397 1959 397 
Q 2419 397 2687 759 
Q 2956 1122 2956 1747 
Q 2956 2369 2687 2733 
Q 2419 3097 1959 3097 
z
M 1959 3584 
Q 2709 3584 3137 3096 
Q 3566 2609 3566 1747 
Q 3566 888 3137 398 
Q 2709 -91 1959 -91 
Q 1206 -91 779 398 
Q 353 888 353 1747 
Q 353 2609 779 3096 
Q 1206 3584 1959 3584 
z
" transform="scale(0.015625)"/>
     </defs>
     <use xlink:href="#DejaVuSans-50"/>
     <use xlink:href="#DejaVuSans-44" transform="translate(97.40625 0)"/>
     <use xlink:href="#DejaVuSans-5c" transform="translate(158.6875 0)"/>
     <use xlink:href="#DejaVuSans-3" transform="translate(217.875 0)"/>
     <use xlink:href="#DejaVuSans-45" transform="translate(249.65625 0)"/>
     <use xlink:href="#DejaVuSans-48" transform="translate(313.140625 0)"/>
     <use xlink:href="#DejaVuSans-3" transform="translate(374.671875 0)"/>
     <use xlink:href="#DejaVuSans-4f" transform="translate(406.453125 0)"/>
     <use xlink:href="#DejaVuSans-52" transform="translate(434.234375 0)"/>
     <use xlink:href="#DejaVuSans-56" transform="translate(495.421875 0)"/>
     <use xlink:href="#DejaVuSans-57" transform="translate(547.515625 0)"/>
    </g>
   </g>
   <g id="patch_6">
    <path d="M 182.894118 150.797094 
Q 182.894118 179.855988 182.894118 207.349634 
" style="fill: none; stroke: #595959; stroke-width: 1.4; stroke-linecap: round"/>
    <path d="M 184.894118 203.349634 
L 182.894118 207.349634 
L 180.894118 203.349634 
z
" style="fill: #595959; stroke: #595959; stroke-width: 1.4; stroke-linecap: round"/>
   </g>
   <g id="text_5">
    <!-- drop it - - -->
    <g style="fill: #4c4c4c" transform="translate(141.780051 176.718388) scale(0.073 -0.073)">
     <defs>
      <path id="DejaVuSans-47" d="M 2906 2969 
L 2906 4863 
L 3481 4863 
L 3481 0 
L 2906 0 
L 2906 525 
Q 2725 213 2448 61 
Q 2172 -91 1784 -91 
Q 1150 -91 751 415 
Q 353 922 353 1747 
Q 353 2572 751 3078 
Q 1150 3584 1784 3584 
Q 2172 3584 2448 3432 
Q 2725 3281 2906 2969 
z
M 947 1747 
Q 947 1113 1208 752 
Q 1469 391 1925 391 
Q 2381 391 2643 752 
Q 2906 1113 2906 1747 
Q 2906 2381 2643 2742 
Q 2381 3103 1925 3103 
Q 1469 3103 1208 2742 
Q 947 2381 947 1747 
z
" transform="scale(0.015625)"/>
      <path id="DejaVuSans-55" d="M 2631 2963 
Q 2534 3019 2420 3045 
Q 2306 3072 2169 3072 
Q 1681 3072 1420 2755 
Q 1159 2438 1159 1844 
L 1159 0 
L 581 0 
L 581 3500 
L 1159 3500 
L 1159 2956 
Q 1341 3275 1631 3429 
Q 1922 3584 2338 3584 
Q 2397 3584 2469 3576 
Q 2541 3569 2628 3553 
L 2631 2963 
z
" transform="scale(0.015625)"/>
      <path id="DejaVuSans-53" d="M 1159 525 
L 1159 -1331 
L 581 -1331 
L 581 3500 
L 1159 3500 
L 1159 2969 
Q 1341 3281 1617 3432 
Q 1894 3584 2278 3584 
Q 2916 3584 3314 3078 
Q 3713 2572 3713 1747 
Q 3713 922 3314 415 
Q 2916 -91 2278 -91 
Q 1894 -91 1617 61 
Q 1341 213 1159 525 
z
M 3116 1747 
Q 3116 2381 2855 2742 
Q 2594 3103 2138 3103 
Q 1681 3103 1420 2742 
Q 1159 2381 1159 1747 
Q 1159 1113 1420 752 
Q 1681 391 2138 391 
Q 2594 391 2855 752 
Q 3116 1113 3116 1747 
z
" transform="scale(0.015625)"/>
      <path id="DejaVuSans-4c" d="M 603 3500 
L 1178 3500 
L 1178 0 
L 603 0 
L 603 3500 
z
M 603 4863 
L 1178 4863 
L 1178 4134 
L 603 4134 
L 603 4863 
z
" transform="scale(0.015625)"/>
      <path id="DejaVuSans-10" d="M 313 2009 
L 1997 2009 
L 1997 1497 
L 313 1497 
L 313 2009 
z
" transform="scale(0.015625)"/>
     </defs>
     <use xlink:href="#DejaVuSans-47"/>
     <use xlink:href="#DejaVuSans-55" transform="translate(63.484375 0)"/>
     <use xlink:href="#DejaVuSans-52" transform="translate(102.390625 0)"/>
     <use xlink:href="#DejaVuSans-53" transform="translate(163.578125 0)"/>
     <use xlink:href="#DejaVuSans-3" transform="translate(227.0625 0)"/>
     <use xlink:href="#DejaVuSans-4c" transform="translate(258.84375 0)"/>
     <use xlink:href="#DejaVuSans-57" transform="translate(286.625 0)"/>
     <use xlink:href="#DejaVuSans-3" transform="translate(325.828125 0)"/>
     <use xlink:href="#DejaVuSans-10" transform="translate(357.609375 0)"/>
     <use xlink:href="#DejaVuSans-10" transform="translate(393.6875 0)"/>
    </g>
    <!-- sender can't -->
    <g style="fill: #4c4c4c" transform="translate(127.802832 185.480384) scale(0.073 -0.073)">
     <defs>
      <path id="DejaVuSans-51" d="M 3513 2113 
L 3513 0 
L 2938 0 
L 2938 2094 
Q 2938 2591 2744 2837 
Q 2550 3084 2163 3084 
Q 1697 3084 1428 2787 
Q 1159 2491 1159 1978 
L 1159 0 
L 581 0 
L 581 3500 
L 1159 3500 
L 1159 2956 
Q 1366 3272 1645 3428 
Q 1925 3584 2291 3584 
Q 2894 3584 3203 3211 
Q 3513 2838 3513 2113 
z
" transform="scale(0.015625)"/>
      <path id="DejaVuSans-46" d="M 3122 3366 
L 3122 2828 
Q 2878 2963 2633 3030 
Q 2388 3097 2138 3097 
Q 1578 3097 1268 2742 
Q 959 2388 959 1747 
Q 959 1106 1268 751 
Q 1578 397 2138 397 
Q 2388 397 2633 464 
Q 2878 531 3122 666 
L 3122 134 
Q 2881 22 2623 -34 
Q 2366 -91 2075 -91 
Q 1284 -91 818 406 
Q 353 903 353 1747 
Q 353 2603 823 3093 
Q 1294 3584 2113 3584 
Q 2378 3584 2631 3529 
Q 2884 3475 3122 3366 
z
" transform="scale(0.015625)"/>
      <path id="DejaVuSans-a" d="M 1147 4666 
L 1147 2931 
L 616 2931 
L 616 4666 
L 1147 4666 
z
" transform="scale(0.015625)"/>
     </defs>
     <use xlink:href="#DejaVuSans-56"/>
     <use xlink:href="#DejaVuSans-48" transform="translate(52.09375 0)"/>
     <use xlink:href="#DejaVuSans-51" transform="translate(113.625 0)"/>
     <use xlink:href="#DejaVuSans-47" transform="translate(177 0)"/>
     <use xlink:href="#DejaVuSans-48" transform="translate(240.484375 0)"/>
     <use xlink:href="#DejaVuSans-55" transform="translate(302.015625 0)"/>
     <use xlink:href="#DejaVuSans-3" transform="translate(343.125 0)"/>
     <use xlink:href="#DejaVuSans-46" transform="translate(374.90625 0)"/>
     <use xlink:href="#DejaVuSans-44" transform="translate(429.890625 0)"/>
     <use xlink:href="#DejaVuSans-51" transform="translate(491.171875 0)"/>
     <use xlink:href="#DejaVuSans-a" transform="translate(554.546875 0)"/>
     <use xlink:href="#DejaVuSans-57" transform="translate(582.03125 0)"/>
    </g>
    <!-- confirm delivery -->
    <g style="fill: #4c4c4c" transform="translate(113.827894 194.24238) scale(0.073 -0.073)">
     <defs>
      <path id="DejaVuSans-13af" d="M 3431 3500 
L 3431 0 
L 2853 0 
L 2853 3053 
L 1275 3053 
L 1275 0 
L 697 0 
L 697 3053 
L 147 3053 
L 147 3500 
L 697 3500 
L 697 3744 
Q 697 4316 967 4589 
Q 1238 4863 1797 4863 
L 2375 4863 
L 2375 4384 
L 1825 4384 
Q 1516 4384 1395 4259 
Q 1275 4134 1275 3809 
L 1275 3500 
L 3431 3500 
z
M 2853 4856 
L 3431 4856 
L 3431 4128 
L 2853 4128 
L 2853 4856 
z
" transform="scale(0.015625)"/>
      <path id="DejaVuSans-59" d="M 191 3500 
L 800 3500 
L 1894 563 
L 2988 3500 
L 3597 3500 
L 2284 0 
L 1503 0 
L 191 3500 
z
" transform="scale(0.015625)"/>
     </defs>
     <use xlink:href="#DejaVuSans-46"/>
     <use xlink:href="#DejaVuSans-52" transform="translate(54.984375 0)"/>
     <use xlink:href="#DejaVuSans-51" transform="translate(116.171875 0)"/>
     <use xlink:href="#DejaVuSans-13af" transform="translate(179.546875 0)"/>
     <use xlink:href="#DejaVuSans-55" transform="translate(242.53125 0)"/>
     <use xlink:href="#DejaVuSans-50" transform="translate(281.890625 0)"/>
     <use xlink:href="#DejaVuSans-3" transform="translate(379.296875 0)"/>
     <use xlink:href="#DejaVuSans-47" transform="translate(411.078125 0)"/>
     <use xlink:href="#DejaVuSans-48" transform="translate(474.5625 0)"/>
     <use xlink:href="#DejaVuSans-4f" transform="translate(536.09375 0)"/>
     <use xlink:href="#DejaVuSans-4c" transform="translate(563.875 0)"/>
     <use xlink:href="#DejaVuSans-59" transform="translate(591.65625 0)"/>
     <use xlink:href="#DejaVuSans-48" transform="translate(650.84375 0)"/>
     <use xlink:href="#DejaVuSans-55" transform="translate(712.375 0)"/>
     <use xlink:href="#DejaVuSans-5c" transform="translate(753.484375 0)"/>
    </g>
   </g>
   <g id="text_6">
    <!-- k=2 -->
    <g transform="translate(27.035294 241.622934) scale(0.13 -0.13)">
     <defs>
      <path id="DejaVuSans-Bold-15" d="M 1844 884 
L 3897 884 
L 3897 0 
L 506 0 
L 506 884 
L 2209 2388 
Q 2438 2594 2547 2791 
Q 2656 2988 2656 3200 
Q 2656 3528 2436 3728 
Q 2216 3928 1850 3928 
Q 1569 3928 1234 3808 
Q 900 3688 519 3450 
L 519 4475 
Q 925 4609 1322 4679 
Q 1719 4750 2100 4750 
Q 2938 4750 3402 4381 
Q 3866 4013 3866 3353 
Q 3866 2972 3669 2642 
Q 3472 2313 2841 1759 
L 1844 884 
z
" transform="scale(0.015625)"/>
     </defs>
     <use xlink:href="#DejaVuSans-Bold-4e"/>
     <use xlink:href="#DejaVuSans-Bold-20" transform="translate(66.5 0)"/>
     <use xlink:href="#DejaVuSans-Bold-15" transform="translate(150.296875 0)"/>
    </g>
   </g>
   <g id="patch_7">
    <path d="M 214.115102 238.245473 
Q 301.409462 238.245473 386.914969 238.245473 
" style="fill: none; stroke: #4c4c4c; stroke-width: 1.6; stroke-linecap: round"/>
    <path d="M 380.914969 235.245473 
L 386.914969 238.245473 
L 380.914969 241.245473 
z
" style="fill: #4c4c4c; stroke: #4c4c4c; stroke-width: 1.6; stroke-linecap: round"/>
   </g>
   <g id="patch_8">
    <path d="M 567.296663 238.245473 
Q 480.002302 238.245473 394.496796 238.245473 
" style="fill: none; stroke-dasharray: 5.92,2.56; stroke-dashoffset: 0; stroke: #c0392b; stroke-width: 1.6; stroke-linecap: round"/>
    <path d="M 400.496796 241.245473 
L 394.496796 238.245473 
L 400.496796 235.245473 
z
" style="fill: #c0392b; stroke-dasharray: 5.92,2.56; stroke-dashoffset: 0; stroke: #c0392b; stroke-width: 1.6; stroke-linecap: round"/>
   </g>
   <g id="text_7">
    <!-- last msg -->
    <g style="fill: #c0392b" transform="translate(582.282353 235.522817) scale(0.08 -0.08)">
     <use xlink:href="#DejaVuSans-4f"/>
     <use xlink:href="#DejaVuSans-44" transform="translate(27.78125 0)"/>
     <use xlink:href="#DejaVuSans-56" transform="translate(89.0625 0)"/>
     <use xlink:href="#DejaVuSans-57" transform="translate(141.15625 0)"/>
     <use xlink:href="#DejaVuSans-3" transform="translate(180.359375 0)"/>
     <use xlink:href="#DejaVuSans-50" transform="translate(212.140625 0)"/>
     <use xlink:href="#DejaVuSans-56" transform="translate(309.546875 0)"/>
     <use xlink:href="#DejaVuSans-4a" transform="translate(361.640625 0)"/>
    </g>
    <!-- may be lost -->
    <g style="fill: #c0392b" transform="translate(582.282353 245.125005) scale(0.08 -0.08)">
     <use xlink:href="#DejaVuSans-50"/>
     <use xlink:href="#DejaVuSans-44" transform="translate(97.40625 0)"/>
     <use xlink:href="#DejaVuSans-5c" transform="translate(158.6875 0)"/>
     <use xlink:href="#DejaVuSans-3" transform="translate(217.875 0)"/>
     <use xlink:href="#DejaVuSans-45" transform="translate(249.65625 0)"/>
     <use xlink:href="#DejaVuSans-48" transform="translate(313.140625 0)"/>
     <use xlink:href="#DejaVuSans-3" transform="translate(374.671875 0)"/>
     <use xlink:href="#DejaVuSans-4f" transform="translate(406.453125 0)"/>
     <use xlink:href="#DejaVuSans-52" transform="translate(434.234375 0)"/>
     <use xlink:href="#DejaVuSans-56" transform="translate(495.421875 0)"/>
     <use xlink:href="#DejaVuSans-57" transform="translate(547.515625 0)"/>
    </g>
   </g>
   <g id="patch_9">
    <path d="M 182.894118 260.12042 
Q 182.894118 289.179314 182.894118 316.672961 
" style="fill: none; stroke: #595959; stroke-width: 1.4; stroke-linecap: round"/>
    <path d="M 184.894118 312.672961 
L 182.894118 316.672961 
L 180.894118 312.672961 
z
" style="fill: #595959; stroke: #595959; stroke-width: 1.4; stroke-linecap: round"/>
   </g>
   <g id="text_8">
    <!-- drop it - - -->
    <g style="fill: #4c4c4c" transform="translate(141.780051 286.041715) scale(0.073 -0.073)">
     <use xlink:href="#DejaVuSans-47"/>
     <use xlink:href="#DejaVuSans-55" transform="translate(63.484375 0)"/>
     <use xlink:href="#DejaVuSans-52" transform="translate(102.390625 0)"/>
     <use xlink:href="#DejaVuSans-53" transform="translate(163.578125 0)"/>
     <use xlink:href="#DejaVuSans-3" transform="translate(227.0625 0)"/>
     <use xlink:href="#DejaVuSans-4c" transform="translate(258.84375 0)"/>
     <use xlink:href="#DejaVuSans-57" transform="translate(286.625 0)"/>
     <use xlink:href="#DejaVuSans-3" transform="translate(325.828125 0)"/>
     <use xlink:href="#DejaVuSans-10" transform="translate(357.609375 0)"/>
     <use xlink:href="#DejaVuSans-10" transform="translate(393.6875 0)"/>
    </g>
    <!-- sender can't -->
    <g style="fill: #4c4c4c" transform="translate(127.802832 294.803711) scale(0.073 -0.073)">
     <use xlink:href="#DejaVuSans-56"/>
     <use xlink:href="#DejaVuSans-48" transform="translate(52.09375 0)"/>
     <use xlink:href="#DejaVuSans-51" transform="translate(113.625 0)"/>
     <use xlink:href="#DejaVuSans-47" transform="translate(177 0)"/>
     <use xlink:href="#DejaVuSans-48" transform="translate(240.484375 0)"/>
     <use xlink:href="#DejaVuSans-55" transform="translate(302.015625 0)"/>
     <use xlink:href="#DejaVuSans-3" transform="translate(343.125 0)"/>
     <use xlink:href="#DejaVuSans-46" transform="translate(374.90625 0)"/>
     <use xlink:href="#DejaVuSans-44" transform="translate(429.890625 0)"/>
     <use xlink:href="#DejaVuSans-51" transform="translate(491.171875 0)"/>
     <use xlink:href="#DejaVuSans-a" transform="translate(554.546875 0)"/>
     <use xlink:href="#DejaVuSans-57" transform="translate(582.03125 0)"/>
    </g>
    <!-- confirm delivery -->
    <g style="fill: #4c4c4c" transform="translate(113.827894 303.565707) scale(0.073 -0.073)">
     <use xlink:href="#DejaVuSans-46"/>
     <use xlink:href="#DejaVuSans-52" transform="translate(54.984375 0)"/>
     <use xlink:href="#DejaVuSans-51" transform="translate(116.171875 0)"/>
     <use xlink:href="#DejaVuSans-13af" transform="translate(179.546875 0)"/>
     <use xlink:href="#DejaVuSans-55" transform="translate(242.53125 0)"/>
     <use xlink:href="#DejaVuSans-50" transform="translate(281.890625 0)"/>
     <use xlink:href="#DejaVuSans-3" transform="translate(379.296875 0)"/>
     <use xlink:href="#DejaVuSans-47" transform="translate(411.078125 0)"/>
     <use xlink:href="#DejaVuSans-48" transform="translate(474.5625 0)"/>
     <use xlink:href="#DejaVuSans-4f" transform="translate(536.09375 0)"/>
     <use xlink:href="#DejaVuSans-4c" transform="translate(563.875 0)"/>
     <use xlink:href="#DejaVuSans-59" transform="translate(591.65625 0)"/>
     <use xlink:href="#DejaVuSans-48" transform="translate(650.84375 0)"/>
     <use xlink:href="#DejaVuSans-55" transform="translate(712.375 0)"/>
     <use xlink:href="#DejaVuSans-5c" transform="translate(753.484375 0)"/>
    </g>
   </g>
   <g id="text_9">
    <!-- k=1 -->
    <g transform="translate(27.035294 350.946261) scale(0.13 -0.13)">
     <defs>
      <path id="DejaVuSans-Bold-14" d="M 750 831 
L 1813 831 
L 1813 3847 
L 722 3622 
L 722 4441 
L 1806 4666 
L 2950 4666 
L 2950 831 
L 4013 831 
L 4013 0 
L 750 0 
L 750 831 
z
" transform="scale(0.015625)"/>
     </defs>
     <use xlink:href="#DejaVuSans-Bold-4e"/>
     <use xlink:href="#DejaVuSans-Bold-20" transform="translate(66.5 0)"/>
     <use xlink:href="#DejaVuSans-Bold-14" transform="translate(150.296875 0)"/>
    </g>
   </g>
   <g id="patch_10">
    <path d="M 214.115102 347.5688 
Q 390.703338 347.5688 565.50272 347.5688 
" style="fill: none; stroke-dasharray: 5.92,2.56; stroke-dashoffset: 0; stroke: #c0392b; stroke-width: 1.6; stroke-linecap: round"/>
    <path d="M 559.50272 344.5688 
L 565.50272 347.5688 
L 559.50272 350.5688 
z
" style="fill: #c0392b; stroke-dasharray: 5.92,2.56; stroke-dashoffset: 0; stroke: #c0392b; stroke-width: 1.6; stroke-linecap: round"/>
   </g>
   <g id="text_10">
    <!-- last msg -->
    <g style="fill: #c0392b" transform="translate(582.282353 344.846144) scale(0.08 -0.08)">
     <use xlink:href="#DejaVuSans-4f"/>
     <use xlink:href="#DejaVuSans-44" transform="translate(27.78125 0)"/>
     <use xlink:href="#DejaVuSans-56" transform="translate(89.0625 0)"/>
     <use xlink:href="#DejaVuSans-57" transform="translate(141.15625 0)"/>
     <use xlink:href="#DejaVuSans-3" transform="translate(180.359375 0)"/>
     <use xlink:href="#DejaVuSans-50" transform="translate(212.140625 0)"/>
     <use xlink:href="#DejaVuSans-56" transform="translate(309.546875 0)"/>
     <use xlink:href="#DejaVuSans-4a" transform="translate(361.640625 0)"/>
    </g>
    <!-- may be lost -->
    <g style="fill: #c0392b" transform="translate(582.282353 354.448331) scale(0.08 -0.08)">
     <use xlink:href="#DejaVuSans-50"/>
     <use xlink:href="#DejaVuSans-44" transform="translate(97.40625 0)"/>
     <use xlink:href="#DejaVuSans-5c" transform="translate(158.6875 0)"/>
     <use xlink:href="#DejaVuSans-3" transform="translate(217.875 0)"/>
     <use xlink:href="#DejaVuSans-45" transform="translate(249.65625 0)"/>
     <use xlink:href="#DejaVuSans-48" transform="translate(313.140625 0)"/>
     <use xlink:href="#DejaVuSans-3" transform="translate(374.671875 0)"/>
     <use xlink:href="#DejaVuSans-4f" transform="translate(406.453125 0)"/>
     <use xlink:href="#DejaVuSans-52" transform="translate(434.234375 0)"/>
     <use xlink:href="#DejaVuSans-56" transform="translate(495.421875 0)"/>
     <use xlink:href="#DejaVuSans-57" transform="translate(547.515625 0)"/>
    </g>
   </g>
   <g id="patch_11">
    <path d="M 182.894118 369.443747 
Q 182.894118 398.502641 182.894118 425.996287 
" style="fill: none; stroke: #595959; stroke-width: 1.4; stroke-linecap: round"/>
    <path d="M 184.894118 421.996287 
L 182.894118 425.996287 
L 180.894118 421.996287 
z
" style="fill: #595959; stroke: #595959; stroke-width: 1.4; stroke-linecap: round"/>
   </g>
   <g id="text_11">
    <!-- drop it - - -->
    <g style="fill: #4c4c4c" transform="translate(141.780051 395.365041) scale(0.073 -0.073)">
     <use xlink:href="#DejaVuSans-47"/>
     <use xlink:href="#DejaVuSans-55" transform="translate(63.484375 0)"/>
     <use xlink:href="#DejaVuSans-52" transform="translate(102.390625 0)"/>
     <use xlink:href="#DejaVuSans-53" transform="translate(163.578125 0)"/>
     <use xlink:href="#DejaVuSans-3" transform="translate(227.0625 0)"/>
     <use xlink:href="#DejaVuSans-4c" transform="translate(258.84375 0)"/>
     <use xlink:href="#DejaVuSans-57" transform="translate(286.625 0)"/>
     <use xlink:href="#DejaVuSans-3" transform="translate(325.828125 0)"/>
     <use xlink:href="#DejaVuSans-10" transform="translate(357.609375 0)"/>
     <use xlink:href="#DejaVuSans-10" transform="translate(393.6875 0)"/>
    </g>
    <!-- sender can't -->
    <g style="fill: #4c4c4c" transform="translate(127.802832 404.127037) scale(0.073 -0.073)">
     <use xlink:href="#DejaVuSans-56"/>
     <use xlink:href="#DejaVuSans-48" transform="translate(52.09375 0)"/>
     <use xlink:href="#DejaVuSans-51" transform="translate(113.625 0)"/>
     <use xlink:href="#DejaVuSans-47" transform="translate(177 0)"/>
     <use xlink:href="#DejaVuSans-48" transform="translate(240.484375 0)"/>
     <use xlink:href="#DejaVuSans-55" transform="translate(302.015625 0)"/>
     <use xlink:href="#DejaVuSans-3" transform="translate(343.125 0)"/>
     <use xlink:href="#DejaVuSans-46" transform="translate(374.90625 0)"/>
     <use xlink:href="#DejaVuSans-44" transform="translate(429.890625 0)"/>
     <use xlink:href="#DejaVuSans-51" transform="translate(491.171875 0)"/>
     <use xlink:href="#DejaVuSans-a" transform="translate(554.546875 0)"/>
     <use xlink:href="#DejaVuSans-57" transform="translate(582.03125 0)"/>
    </g>
    <!-- confirm delivery -->
    <g style="fill: #4c4c4c" transform="translate(113.827894 412.889033) scale(0.073 -0.073)">
     <use xlink:href="#DejaVuSans-46"/>
     <use xlink:href="#DejaVuSans-52" transform="translate(54.984375 0)"/>
     <use xlink:href="#DejaVuSans-51" transform="translate(116.171875 0)"/>
     <use xlink:href="#DejaVuSans-13af" transform="translate(179.546875 0)"/>
     <use xlink:href="#DejaVuSans-55" transform="translate(242.53125 0)"/>
     <use xlink:href="#DejaVuSans-50" transform="translate(281.890625 0)"/>
     <use xlink:href="#DejaVuSans-3" transform="translate(379.296875 0)"/>
     <use xlink:href="#DejaVuSans-47" transform="translate(411.078125 0)"/>
     <use xlink:href="#DejaVuSans-48" transform="translate(474.5625 0)"/>
     <use xlink:href="#DejaVuSans-4f" transform="translate(536.09375 0)"/>
     <use xlink:href="#DejaVuSans-4c" transform="translate(563.875 0)"/>
     <use xlink:href="#DejaVuSans-59" transform="translate(591.65625 0)"/>
     <use xlink:href="#DejaVuSans-48" transform="translate(650.84375 0)"/>
     <use xlink:href="#DejaVuSans-55" transform="translate(712.375 0)"/>
     <use xlink:href="#DejaVuSans-5c" transform="translate(753.484375 0)"/>
    </g>
   </g>
   <g id="text_12">
    <!-- k=0 -->
    <g transform="translate(27.035294 460.269587) scale(0.13 -0.13)">
     <defs>
      <path id="DejaVuSans-Bold-13" d="M 2944 2338 
Q 2944 3213 2780 3570 
Q 2616 3928 2228 3928 
Q 1841 3928 1675 3570 
Q 1509 3213 1509 2338 
Q 1509 1453 1675 1090 
Q 1841 728 2228 728 
Q 2613 728 2778 1090 
Q 2944 1453 2944 2338 
z
M 4147 2328 
Q 4147 1169 3647 539 
Q 3147 -91 2228 -91 
Q 1306 -91 806 539 
Q 306 1169 306 2328 
Q 306 3491 806 4120 
Q 1306 4750 2228 4750 
Q 3147 4750 3647 4120 
Q 4147 3491 4147 2328 
z
" transform="scale(0.015625)"/>
     </defs>
     <use xlink:href="#DejaVuSans-Bold-4e"/>
     <use xlink:href="#DejaVuSans-Bold-20" transform="translate(66.5 0)"/>
     <use xlink:href="#DejaVuSans-Bold-13" transform="translate(150.296875 0)"/>
    </g>
   </g>
   <g id="text_13">
    <!-- 0 messages - - still must guarantee a -->
    <g style="fill: #c0392b" transform="translate(305.510617 453.727038) scale(0.093 -0.093)">
     <defs>
      <path id="DejaVuSans-13" d="M 2034 4250 
Q 1547 4250 1301 3770 
Q 1056 3291 1056 2328 
Q 1056 1369 1301 889 
Q 1547 409 2034 409 
Q 2525 409 2770 889 
Q 3016 1369 3016 2328 
Q 3016 3291 2770 3770 
Q 2525 4250 2034 4250 
z
M 2034 4750 
Q 2819 4750 3233 4129 
Q 3647 3509 3647 2328 
Q 3647 1150 3233 529 
Q 2819 -91 2034 -91 
Q 1250 -91 836 529 
Q 422 1150 422 2328 
Q 422 3509 836 4129 
Q 1250 4750 2034 4750 
z
" transform="scale(0.015625)"/>
      <path id="DejaVuSans-58" d="M 544 1381 
L 544 3500 
L 1119 3500 
L 1119 1403 
Q 1119 906 1312 657 
Q 1506 409 1894 409 
Q 2359 409 2629 706 
Q 2900 1003 2900 1516 
L 2900 3500 
L 3475 3500 
L 3475 0 
L 2900 0 
L 2900 538 
Q 2691 219 2414 64 
Q 2138 -91 1772 -91 
Q 1169 -91 856 284 
Q 544 659 544 1381 
z
M 1991 3584 
L 1991 3584 
z
" transform="scale(0.015625)"/>
     </defs>
     <use xlink:href="#DejaVuSans-13"/>
     <use xlink:href="#DejaVuSans-3" transform="translate(63.625 0)"/>
     <use xlink:href="#DejaVuSans-50" transform="translate(95.40625 0)"/>
     <use xlink:href="#DejaVuSans-48" transform="translate(192.8125 0)"/>
     <use xlink:href="#DejaVuSans-56" transform="translate(254.34375 0)"/>
     <use xlink:href="#DejaVuSans-56" transform="translate(306.4375 0)"/>
     <use xlink:href="#DejaVuSans-44" transform="translate(358.53125 0)"/>
     <use xlink:href="#DejaVuSans-4a" transform="translate(419.8125 0)"/>
     <use xlink:href="#DejaVuSans-48" transform="translate(483.296875 0)"/>
     <use xlink:href="#DejaVuSans-56" transform="translate(544.828125 0)"/>
     <use xlink:href="#DejaVuSans-3" transform="translate(596.921875 0)"/>
     <use xlink:href="#DejaVuSans-10" transform="translate(628.703125 0)"/>
     <use xlink:href="#DejaVuSans-10" transform="translate(664.78125 0)"/>
     <use xlink:href="#DejaVuSans-3" transform="translate(700.859375 0)"/>
     <use xlink:href="#DejaVuSans-56" transform="translate(732.640625 0)"/>
     <use xlink:href="#DejaVuSans-57" transform="translate(784.734375 0)"/>
     <use xlink:href="#DejaVuSans-4c" transform="translate(823.9375 0)"/>
     <use xlink:href="#DejaVuSans-4f" transform="translate(851.71875 0)"/>
     <use xlink:href="#DejaVuSans-4f" transform="translate(879.5 0)"/>
     <use xlink:href="#DejaVuSans-3" transform="translate(907.28125 0)"/>
     <use xlink:href="#DejaVuSans-50" transform="translate(939.0625 0)"/>
     <use xlink:href="#DejaVuSans-58" transform="translate(1036.46875 0)"/>
     <use xlink:href="#DejaVuSans-56" transform="translate(1099.84375 0)"/>
     <use xlink:href="#DejaVuSans-57" transform="translate(1151.9375 0)"/>
     <use xlink:href="#DejaVuSans-3" transform="translate(1191.140625 0)"/>
     <use xlink:href="#DejaVuSans-4a" transform="translate(1222.921875 0)"/>
     <use xlink:href="#DejaVuSans-58" transform="translate(1286.40625 0)"/>
     <use xlink:href="#DejaVuSans-44" transform="translate(1349.78125 0)"/>
     <use xlink:href="#DejaVuSans-55" transform="translate(1411.0625 0)"/>
     <use xlink:href="#DejaVuSans-44" transform="translate(1452.171875 0)"/>
     <use xlink:href="#DejaVuSans-51" transform="translate(1513.453125 0)"/>
     <use xlink:href="#DejaVuSans-57" transform="translate(1576.828125 0)"/>
     <use xlink:href="#DejaVuSans-48" transform="translate(1616.03125 0)"/>
     <use xlink:href="#DejaVuSans-48" transform="translate(1677.5625 0)"/>
     <use xlink:href="#DejaVuSans-3" transform="translate(1739.09375 0)"/>
     <use xlink:href="#DejaVuSans-44" transform="translate(1770.875 0)"/>
    </g>
    <!-- simultaneous attack: contradiction -->
    <g style="fill: #c0392b" transform="translate(309.771179 464.889581) scale(0.093 -0.093)">
     <defs>
      <path id="DejaVuSans-4e" d="M 581 4863 
L 1159 4863 
L 1159 1991 
L 2875 3500 
L 3609 3500 
L 1753 1863 
L 3688 0 
L 2938 0 
L 1159 1709 
L 1159 0 
L 581 0 
L 581 4863 
z
" transform="scale(0.015625)"/>
      <path id="DejaVuSans-1d" d="M 750 794 
L 1409 794 
L 1409 0 
L 750 0 
L 750 794 
z
M 750 3309 
L 1409 3309 
L 1409 2516 
L 750 2516 
L 750 3309 
z
" transform="scale(0.015625)"/>
     </defs>
     <use xlink:href="#DejaVuSans-56"/>
     <use xlink:href="#DejaVuSans-4c" transform="translate(52.09375 0)"/>
     <use xlink:href="#DejaVuSans-50" transform="translate(79.875 0)"/>
     <use xlink:href="#DejaVuSans-58" transform="translate(177.28125 0)"/>
     <use xlink:href="#DejaVuSans-4f" transform="translate(240.65625 0)"/>
     <use xlink:href="#DejaVuSans-57" transform="translate(268.4375 0)"/>
     <use xlink:href="#DejaVuSans-44" transform="translate(307.640625 0)"/>
     <use xlink:href="#DejaVuSans-51" transform="translate(368.921875 0)"/>
     <use xlink:href="#DejaVuSans-48" transform="translate(432.296875 0)"/>
     <use xlink:href="#DejaVuSans-52" transform="translate(493.828125 0)"/>
     <use xlink:href="#DejaVuSans-58" transform="translate(555.015625 0)"/>
     <use xlink:href="#DejaVuSans-56" transform="translate(618.390625 0)"/>
     <use xlink:href="#DejaVuSans-3" transform="translate(670.484375 0)"/>
     <use xlink:href="#DejaVuSans-44" transform="translate(702.265625 0)"/>
     <use xlink:href="#DejaVuSans-57" transform="translate(763.546875 0)"/>
     <use xlink:href="#DejaVuSans-57" transform="translate(802.75 0)"/>
     <use xlink:href="#DejaVuSans-44" transform="translate(841.953125 0)"/>
     <use xlink:href="#DejaVuSans-46" transform="translate(903.234375 0)"/>
     <use xlink:href="#DejaVuSans-4e" transform="translate(958.21875 0)"/>
     <use xlink:href="#DejaVuSans-1d" transform="translate(1016.125 0)"/>
     <use xlink:href="#DejaVuSans-3" transform="translate(1049.8125 0)"/>
     <use xlink:href="#DejaVuSans-46" transform="translate(1081.59375 0)"/>
     <use xlink:href="#DejaVuSans-52" transform="translate(1136.578125 0)"/>
     <use xlink:href="#DejaVuSans-51" transform="translate(1197.765625 0)"/>
     <use xlink:href="#DejaVuSans-57" transform="translate(1261.140625 0)"/>
     <use xlink:href="#DejaVuSans-55" transform="translate(1300.34375 0)"/>
     <use xlink:href="#DejaVuSans-44" transform="translate(1341.453125 0)"/>
     <use xlink:href="#DejaVuSans-47" transform="translate(1402.734375 0)"/>
     <use xlink:href="#DejaVuSans-4c" transform="translate(1466.21875 0)"/>
     <use xlink:href="#DejaVuSans-46" transform="translate(1494 0)"/>
     <use xlink:href="#DejaVuSans-57" transform="translate(1548.984375 0)"/>
     <use xlink:href="#DejaVuSans-4c" transform="translate(1588.1875 0)"/>
     <use xlink:href="#DejaVuSans-52" transform="translate(1615.96875 0)"/>
     <use xlink:href="#DejaVuSans-51" transform="translate(1677.15625 0)"/>
    </g>
   </g>
   <g id="text_14">
    <!-- Two Generals: the last message is always removable, down to zero - - a contradiction -->
    <g transform="translate(98.287148 19.537305) scale(0.115 -0.115)">
     <defs>
      <path id="DejaVuSans-37" d="M -19 4666 
L 3928 4666 
L 3928 4134 
L 2272 4134 
L 2272 0 
L 1638 0 
L 1638 4134 
L -19 4134 
L -19 4666 
z
" transform="scale(0.015625)"/>
      <path id="DejaVuSans-5a" d="M 269 3500 
L 844 3500 
L 1563 769 
L 2278 3500 
L 2956 3500 
L 3675 769 
L 4391 3500 
L 4966 3500 
L 4050 0 
L 3372 0 
L 2619 2869 
L 1863 0 
L 1184 0 
L 269 3500 
z
" transform="scale(0.015625)"/>
      <path id="DejaVuSans-2a" d="M 3809 666 
L 3809 1919 
L 2778 1919 
L 2778 2438 
L 4434 2438 
L 4434 434 
Q 4069 175 3628 42 
Q 3188 -91 2688 -91 
Q 1594 -91 976 548 
Q 359 1188 359 2328 
Q 359 3472 976 4111 
Q 1594 4750 2688 4750 
Q 3144 4750 3555 4637 
Q 3966 4525 4313 4306 
L 4313 3634 
Q 3963 3931 3569 4081 
Q 3175 4231 2741 4231 
Q 1884 4231 1454 3753 
Q 1025 3275 1025 2328 
Q 1025 1384 1454 906 
Q 1884 428 2741 428 
Q 3075 428 3337 486 
Q 3600 544 3809 666 
z
" transform="scale(0.015625)"/>
      <path id="DejaVuSans-4b" d="M 3513 2113 
L 3513 0 
L 2938 0 
L 2938 2094 
Q 2938 2591 2744 2837 
Q 2550 3084 2163 3084 
Q 1697 3084 1428 2787 
Q 1159 2491 1159 1978 
L 1159 0 
L 581 0 
L 581 4863 
L 1159 4863 
L 1159 2956 
Q 1366 3272 1645 3428 
Q 1925 3584 2291 3584 
Q 2894 3584 3203 3211 
Q 3513 2838 3513 2113 
z
" transform="scale(0.015625)"/>
      <path id="DejaVuSans-f" d="M 750 794 
L 1409 794 
L 1409 256 
L 897 -744 
L 494 -744 
L 750 256 
L 750 794 
z
" transform="scale(0.015625)"/>
      <path id="DejaVuSans-5d" d="M 353 3500 
L 3084 3500 
L 3084 2975 
L 922 459 
L 3084 459 
L 3084 0 
L 275 0 
L 275 525 
L 2438 3041 
L 353 3041 
L 353 3500 
z
" transform="scale(0.015625)"/>
     </defs>
     <use xlink:href="#DejaVuSans-37"/>
     <use xlink:href="#DejaVuSans-5a" transform="translate(44.53125 0)"/>
     <use xlink:href="#DejaVuSans-52" transform="translate(126.3125 0)"/>
     <use xlink:href="#DejaVuSans-3" transform="translate(187.5 0)"/>
     <use xlink:href="#DejaVuSans-2a" transform="translate(219.28125 0)"/>
     <use xlink:href="#DejaVuSans-48" transform="translate(296.765625 0)"/>
     <use xlink:href="#DejaVuSans-51" transform="translate(358.296875 0)"/>
     <use xlink:href="#DejaVuSans-48" transform="translate(421.671875 0)"/>
     <use xlink:href="#DejaVuSans-55" transform="translate(483.203125 0)"/>
     <use xlink:href="#DejaVuSans-44" transform="translate(524.3125 0)"/>
     <use xlink:href="#DejaVuSans-4f" transform="translate(585.59375 0)"/>
     <use xlink:href="#DejaVuSans-56" transform="translate(613.375 0)"/>
     <use xlink:href="#DejaVuSans-1d" transform="translate(665.46875 0)"/>
     <use xlink:href="#DejaVuSans-3" transform="translate(699.15625 0)"/>
     <use xlink:href="#DejaVuSans-57" transform="translate(730.9375 0)"/>
     <use xlink:href="#DejaVuSans-4b" transform="translate(770.140625 0)"/>
     <use xlink:href="#DejaVuSans-48" transform="translate(833.515625 0)"/>
     <use xlink:href="#DejaVuSans-3" transform="translate(895.046875 0)"/>
     <use xlink:href="#DejaVuSans-4f" transform="translate(926.828125 0)"/>
     <use xlink:href="#DejaVuSans-44" transform="translate(954.609375 0)"/>
     <use xlink:href="#DejaVuSans-56" transform="translate(1015.890625 0)"/>
     <use xlink:href="#DejaVuSans-57" transform="translate(1067.984375 0)"/>
     <use xlink:href="#DejaVuSans-3" transform="translate(1107.1875 0)"/>
     <use xlink:href="#DejaVuSans-50" transform="translate(1138.96875 0)"/>
     <use xlink:href="#DejaVuSans-48" transform="translate(1236.375 0)"/>
     <use xlink:href="#DejaVuSans-56" transform="translate(1297.90625 0)"/>
     <use xlink:href="#DejaVuSans-56" transform="translate(1350 0)"/>
     <use xlink:href="#DejaVuSans-44" transform="translate(1402.09375 0)"/>
     <use xlink:href="#DejaVuSans-4a" transform="translate(1463.375 0)"/>
     <use xlink:href="#DejaVuSans-48" transform="translate(1526.859375 0)"/>
     <use xlink:href="#DejaVuSans-3" transform="translate(1588.390625 0)"/>
     <use xlink:href="#DejaVuSans-4c" transform="translate(1620.171875 0)"/>
     <use xlink:href="#DejaVuSans-56" transform="translate(1647.953125 0)"/>
     <use xlink:href="#DejaVuSans-3" transform="translate(1700.046875 0)"/>
     <use xlink:href="#DejaVuSans-44" transform="translate(1731.828125 0)"/>
     <use xlink:href="#DejaVuSans-4f" transform="translate(1793.109375 0)"/>
     <use xlink:href="#DejaVuSans-5a" transform="translate(1820.890625 0)"/>
     <use xlink:href="#DejaVuSans-44" transform="translate(1902.671875 0)"/>
     <use xlink:href="#DejaVuSans-5c" transform="translate(1963.953125 0)"/>
     <use xlink:href="#DejaVuSans-56" transform="translate(2023.140625 0)"/>
     <use xlink:href="#DejaVuSans-3" transform="translate(2075.234375 0)"/>
     <use xlink:href="#DejaVuSans-55" transform="translate(2107.015625 0)"/>
     <use xlink:href="#DejaVuSans-48" transform="translate(2145.921875 0)"/>
     <use xlink:href="#DejaVuSans-50" transform="translate(2207.453125 0)"/>
     <use xlink:href="#DejaVuSans-52" transform="translate(2304.859375 0)"/>
     <use xlink:href="#DejaVuSans-59" transform="translate(2366.046875 0)"/>
     <use xlink:href="#DejaVuSans-44" transform="translate(2425.234375 0)"/>
     <use xlink:href="#DejaVuSans-45" transform="translate(2486.515625 0)"/>
     <use xlink:href="#DejaVuSans-4f" transform="translate(2550 0)"/>
     <use xlink:href="#DejaVuSans-48" transform="translate(2577.78125 0)"/>
     <use xlink:href="#DejaVuSans-f" transform="translate(2639.3125 0)"/>
     <use xlink:href="#DejaVuSans-3" transform="translate(2671.09375 0)"/>
     <use xlink:href="#DejaVuSans-47" transform="translate(2702.875 0)"/>
     <use xlink:href="#DejaVuSans-52" transform="translate(2766.359375 0)"/>
     <use xlink:href="#DejaVuSans-5a" transform="translate(2827.546875 0)"/>
     <use xlink:href="#DejaVuSans-51" transform="translate(2909.328125 0)"/>
     <use xlink:href="#DejaVuSans-3" transform="translate(2972.703125 0)"/>
     <use xlink:href="#DejaVuSans-57" transform="translate(3004.484375 0)"/>
     <use xlink:href="#DejaVuSans-52" transform="translate(3043.6875 0)"/>
     <use xlink:href="#DejaVuSans-3" transform="translate(3104.875 0)"/>
     <use xlink:href="#DejaVuSans-5d" transform="translate(3136.65625 0)"/>
     <use xlink:href="#DejaVuSans-48" transform="translate(3189.140625 0)"/>
     <use xlink:href="#DejaVuSans-55" transform="translate(3250.671875 0)"/>
     <use xlink:href="#DejaVuSans-52" transform="translate(3289.578125 0)"/>
     <use xlink:href="#DejaVuSans-3" transform="translate(3350.765625 0)"/>
     <use xlink:href="#DejaVuSans-10" transform="translate(3382.546875 0)"/>
     <use xlink:href="#DejaVuSans-10" transform="translate(3418.625 0)"/>
     <use xlink:href="#DejaVuSans-3" transform="translate(3454.703125 0)"/>
     <use xlink:href="#DejaVuSans-44" transform="translate(3486.484375 0)"/>
     <use xlink:href="#DejaVuSans-3" transform="translate(3547.765625 0)"/>
     <use xlink:href="#DejaVuSans-46" transform="translate(3579.546875 0)"/>
     <use xlink:href="#DejaVuSans-52" transform="translate(3634.53125 0)"/>
     <use xlink:href="#DejaVuSans-51" transform="translate(3695.71875 0)"/>
     <use xlink:href="#DejaVuSans-57" transform="translate(3759.09375 0)"/>
     <use xlink:href="#DejaVuSans-55" transform="translate(3798.296875 0)"/>
     <use xlink:href="#DejaVuSans-44" transform="translate(3839.40625 0)"/>
     <use xlink:href="#DejaVuSans-47" transform="translate(3900.6875 0)"/>
     <use xlink:href="#DejaVuSans-4c" transform="translate(3964.171875 0)"/>
     <use xlink:href="#DejaVuSans-46" transform="translate(3991.953125 0)"/>
     <use xlink:href="#DejaVuSans-57" transform="translate(4046.9375 0)"/>
     <use xlink:href="#DejaVuSans-4c" transform="translate(4086.140625 0)"/>
     <use xlink:href="#DejaVuSans-52" transform="translate(4113.921875 0)"/>
     <use xlink:href="#DejaVuSans-51" transform="translate(4175.109375 0)"/>
    </g>
   </g>
  </g>
 </g>
 <defs>
  <clipPath id="p1b42532282">
   <rect x="10.8" y="29.537305" width="662.4" height="506.862695"/>
  </clipPath>
 </defs>
</svg>
