<?xml version="1.0" encoding="utf-8" standalone="no"?>
<!DOCTYPE svg PUBLIC "-//W3C//DTD SVG 1.1//EN"
  "http://www.w3.org/Graphics/SVG/1.1/DTD/svg11.dtd">
<svg xmlns:xlink="http://www.w3.org/1999/xlink" width="453.6pt" height="456.872578pt" viewBox="0 0 453.6 456.872578" xmlns="http://www.w3.org/2000/svg" version="1.1">
 <metadata>
  <rdf:RDF xmlns:dc="http://purl.org/dc/elements/1.1/" xmlns:cc="http://creativecommons.org/ns#" xmlns:rdf="http://www.w3.org/1999/02/22-rdf-syntax-ns#">
   <cc:Work>
    <dc:type rdf:resource="http://purl.org/dc/dcmitype/StillImage"/>
    <dc:date>2026-07-02T00:36:03.097048</dc:date>
    <dc:format>image/svg+xml</dc:format>
    <dc:creator>
     <cc:Agent>
      <dc:title>Matplotlib v3.11.0, https://matplotlib.org/</dc:title>
     </cc:Agent>
    </dc:creator>
   </cc:Work>
  </rdf:RDF>
 </metadata>
 <defs>
  <style type="text/css">*{stroke-linejoin: round; stroke-linecap: butt}</style>
 </defs>
 <g id="figure_1">
  <g id="patch_1">
   <path d="M 0 456.872578 
L 453.6 456.872578 
L 453.6 0 
L 0 0 
z
" style="fill: #ffffff"/>
  </g>
  <g id="axes_1">
   <g id="patch_2">
    <path d="M 207.253739 134.196143 
Q 124.210307 198.336767 110.14143 299.610731 
" clip-path="url(#pb5e34fc704)" style="fill: none; stroke: #000000; stroke-width: 2.4; stroke-linecap: round"/>
    <path d="M 115.710437 291.499864 
L 110.14143 299.610731 
L 106.994141 290.289005 
z
" clip-path="url(#pb5e34fc704)" style="stroke: #000000; stroke-width: 2.4; stroke-linecap: round"/>
   </g>
   <g id="patch_3">
    <path d="M 129.245734 336.074334 
Q 226.800068 375.9246 321.87038 337.088985 
" clip-path="url(#pb5e34fc704)" style="fill: none; stroke: #000000; stroke-width: 2.4; stroke-linecap: round"/>
    <path d="M 312.059962 336.343527 
L 321.87038 337.088985 
L 315.387762 344.490044 
z
" clip-path="url(#pb5e34fc704)" style="stroke: #000000; stroke-width: 2.4; stroke-linecap: round"/>
   </g>
   <g id="patch_4">
    <path d="M 343.827646 302.267497 
Q 329.389228 198.335965 248.469076 135.835741 
" clip-path="url(#pb5e34fc704)" style="fill: none; stroke: #000000; stroke-width: 2.4; stroke-linecap: round"/>
    <path d="M 252.744003 144.697174 
L 248.469076 135.835741 
L 258.123179 137.732659 
z
" clip-path="url(#pb5e34fc704)" style="stroke: #000000; stroke-width: 2.4; stroke-linecap: round"/>
   </g>
   <g id="patch_5">
    <path d="M 226.8 150.467578 
C 234.807808 150.467578 242.488714 147.286042 248.151089 141.623667 
C 253.813464 135.961292 256.995 128.280386 256.995 120.272578 
C 256.995 112.264771 253.813464 104.583864 248.151089 98.921489 
C 242.488714 93.259114 234.807808 90.077578 226.8 90.077578 
C 218.792192 90.077578 211.111286 93.259114 205.448911 98.921489 
C 199.786536 104.583864 196.605 112.264771 196.605 120.272578 
C 196.605 128.280386 199.786536 135.961292 205.448911 141.623667 
C 211.111286 147.286042 218.792192 150.467578 226.8 150.467578 
z
" clip-path="url(#pb5e34fc704)" style="fill: #1565c0; stroke: #000000; stroke-linejoin: miter"/>
   </g>
   <g id="patch_6">
    <path d="M 107.3925 356.342578 
C 115.400308 356.342578 123.081214 353.161042 128.743589 347.498667 
C 134.405964 341.836292 137.5875 334.155386 137.5875 326.147578 
C 137.5875 318.139771 134.405964 310.458864 128.743589 304.796489 
C 123.081214 299.134114 115.400308 295.952578 107.3925 295.952578 
C 99.384692 295.952578 91.703786 299.134114 86.041411 304.796489 
C 80.379036 310.458864 77.1975 318.139771 77.1975 326.147578 
C 77.1975 334.155386 80.379036 341.836292 86.041411 347.498667 
C 91.703786 353.161042 99.384692 356.342578 107.3925 356.342578 
z
" clip-path="url(#pb5e34fc704)" style="fill: #2e7d32; stroke: #000000; stroke-linejoin: miter"/>
   </g>
   <g id="patch_7">
    <path d="M 346.2075 356.342578 
C 354.215308 356.342578 361.896214 353.161042 367.558589 347.498667 
C 373.220964 341.836292 376.4025 334.155386 376.4025 326.147578 
C 376.4025 318.139771 373.220964 310.458864 367.558589 304.796489 
C 361.896214 299.134114 354.215308 295.952578 346.2075 295.952578 
C 338.199692 295.952578 330.518786 299.134114 324.856411 304.796489 
C 319.194036 310.458864 316.0125 318.139771 316.0125 326.147578 
C 316.0125 334.155386 319.194036 341.836292 324.856411 347.498667 
C 330.518786 353.161042 338.199692 356.342578 346.2075 356.342578 
z
" clip-path="url(#pb5e34fc704)" style="fill: #c62828; stroke: #000000; stroke-linejoin: miter"/>
   </g>
   <g id="text_1">
    <!-- A beats B -->
    <g transform="translate(183.554337 243.219823) scale(0.1 -0.1)">
     <defs>
      <path id="DejaVuSans-24" d="M 2188 4044 
L 1331 1722 
L 3047 1722 
L 2188 4044 
z
M 1831 4666 
L 2547 4666 
L 4325 0 
L 3669 0 
L 3244 1197 
L 1141 1197 
L 716 0 
L 50 0 
L 1831 4666 
z
" transform="scale(0.015625)"/>
      <path id="DejaVuSans-3" transform="scale(0.015625)"/>
      <path id="DejaVuSans-45" d="M 3116 1747 
Q 3116 2381 2855 2742 
Q 2594 3103 2138 3103 
Q 1681 3103 1420 2742 
Q 1159 2381 1159 1747 
Q 1159 1113 1420 752 
Q 1681 391 2138 391 
Q 2594 391 2855 752 
Q 3116 1113 3116 1747 
z
M 1159 2969 
Q 1341 3281 1617 3432 
Q 1894 3584 2278 3584 
Q 2916 3584 3314 3078 
Q 3713 2572 3713 1747 
Q 3713 922 3314 415 
Q 2916 -91 2278 -91 
Q 1894 -91 1617 61 
Q 1341 213 1159 525 
L 1159 0 
L 581 0 
L 581 4863 
L 1159 4863 
L 1159 2969 
z
" transform="scale(0.015625)"/>
      <path id="DejaVuSans-48" d="M 3597 1894 
L 3597 1613 
L 953 1613 
Q 991 1019 1311 708 
Q 1631 397 2203 397 
Q 2534 397 2845 478 
Q 3156 559 3463 722 
L 3463 178 
Q 3153 47 2828 -22 
Q 2503 -91 2169 -91 
Q 1331 -91 842 396 
Q 353 884 353 1716 
Q 353 2575 817 3079 
Q 1281 3584 2069 3584 
Q 2775 3584 3186 3129 
Q 3597 2675 3597 1894 
z
M 3022 2063 
Q 3016 2534 2758 2815 
Q 2500 3097 2075 3097 
Q 1594 3097 1305 2825 
Q 1016 2553 972 2059 
L 3022 2063 
z
" transform="scale(0.015625)"/>
      <path id="DejaVuSans-44" d="M 2194 1759 
Q 1497 1759 1228 1600 
Q 959 1441 959 1056 
Q 959 750 1161 570 
Q 1363 391 1709 391 
Q 2188 391 2477 730 
Q 2766 1069 2766 1631 
L 2766 1759 
L 2194 1759 
z
M 3341 1997 
L 3341 0 
L 2766 0 
L 2766 531 
Q 2569 213 2275 61 
Q 1981 -91 1556 -91 
Q 1019 -91 701 211 
Q 384 513 384 1019 
Q 384 1609 779 1909 
Q 1175 2209 1959 2209 
L 2766 2209 
L 2766 2266 
Q 2766 2663 2505 2880 
Q 2244 3097 1772 3097 
Q 1472 3097 1187 3025 
Q 903 2953 641 2809 
L 641 3341 
Q 956 3463 1253 3523 
Q 1550 3584 1831 3584 
Q 2591 3584 2966 3190 
Q 3341 2797 3341 1997 
z
" transform="scale(0.015625)"/>
      <path id="DejaVuSans-57" d="M 1172 4494 
L 1172 3500 
L 2356 3500 
L 2356 3053 
L 1172 3053 
L 1172 1153 
Q 1172 725 1289 603 
Q 1406 481 1766 481 
L 2356 481 
L 2356 0 
L 1766 0 
Q 1100 0 847 248 
Q 594 497 594 1153 
L 594 3053 
L 172 3053 
L 172 3500 
L 594 3500 
L 594 4494 
L 1172 4494 
z
" transform="scale(0.015625)"/>
      <path id="DejaVuSans-56" d="M 2834 3397 
L 2834 2853 
Q 2591 2978 2328 3040 
Q 2066 3103 1784 3103 
Q 1356 3103 1142 2972 
Q 928 2841 928 2578 
Q 928 2378 1081 2264 
Q 1234 2150 1697 2047 
L 1894 2003 
Q 2506 1872 2764 1633 
Q 3022 1394 3022 966 
Q 3022 478 2636 193 
Q 2250 -91 1575 -91 
Q 1294 -91 989 -36 
Q 684 19 347 128 
L 347 722 
Q 666 556 975 473 
Q 1284 391 1588 391 
Q 1994 391 2212 530 
Q 2431 669 2431 922 
Q 2431 1156 2273 1281 
Q 2116 1406 1581 1522 
L 1381 1569 
Q 847 1681 609 1914 
Q 372 2147 372 2553 
Q 372 3047 722 3315 
Q 1072 3584 1716 3584 
Q 2034 3584 2315 3537 
Q 2597 3491 2834 3397 
z
" transform="scale(0.015625)"/>
      <path id="DejaVuSans-25" d="M 1259 2228 
L 1259 519 
L 2272 519 
Q 2781 519 3026 730 
Q 3272 941 3272 1375 
Q 3272 1813 3026 2020 
Q 2781 2228 2272 2228 
L 1259 2228 
z
M 1259 4147 
L 1259 2741 
L 2194 2741 
Q 2656 2741 2882 2914 
Q 3109 3088 3109 3444 
Q 3109 3797 2882 3972 
Q 2656 4147 2194 4147 
L 1259 4147 
z
M 628 4666 
L 2241 4666 
Q 2963 4666 3353 4366 
Q 3744 4066 3744 3513 
Q 3744 3084 3544 2831 
Q 3344 2578 2956 2516 
Q 3422 2416 3680 2098 
Q 3938 1781 3938 1306 
Q 3938 681 3513 340 
Q 3088 0 2303 0 
L 628 0 
L 628 4666 
z
" transform="scale(0.015625)"/>
     </defs>
     <use xlink:href="#DejaVuSans-24"/>
     <use xlink:href="#DejaVuSans-3" transform="translate(68.40625 0)"/>
     <use xlink:href="#DejaVuSans-45" transform="translate(100.1875 0)"/>
     <use xlink:href="#DejaVuSans-48" transform="translate(163.671875 0)"/>
     <use xlink:href="#DejaVuSans-44" transform="translate(225.203125 0)"/>
     <use xlink:href="#DejaVuSans-57" transform="translate(286.484375 0)"/>
     <use xlink:href="#DejaVuSans-56" transform="translate(325.6875 0)"/>
     <use xlink:href="#DejaVuSans-3" transform="translate(377.78125 0)"/>
     <use xlink:href="#DejaVuSans-25" transform="translate(409.5625 0)"/>
    </g>
    <!-- (2 : 1 voters) -->
    <g transform="translate(175.03168 255.221776) scale(0.1 -0.1)">
     <defs>
      <path id="DejaVuSans-b" d="M 1984 4856 
Q 1566 4138 1362 3434 
Q 1159 2731 1159 2009 
Q 1159 1288 1364 580 
Q 1569 -128 1984 -844 
L 1484 -844 
Q 1016 -109 783 600 
Q 550 1309 550 2009 
Q 550 2706 781 3412 
Q 1013 4119 1484 4856 
L 1984 4856 
z
" transform="scale(0.015625)"/>
      <path id="DejaVuSans-15" d="M 1228 531 
L 3431 531 
L 3431 0 
L 469 0 
L 469 531 
Q 828 903 1448 1529 
Q 2069 2156 2228 2338 
Q 2531 2678 2651 2914 
Q 2772 3150 2772 3378 
Q 2772 3750 2511 3984 
Q 2250 4219 1831 4219 
Q 1534 4219 1204 4116 
Q 875 4013 500 3803 
L 500 4441 
Q 881 4594 1212 4672 
Q 1544 4750 1819 4750 
Q 2544 4750 2975 4387 
Q 3406 4025 3406 3419 
Q 3406 3131 3298 2873 
Q 3191 2616 2906 2266 
Q 2828 2175 2409 1742 
Q 1991 1309 1228 531 
z
" transform="scale(0.015625)"/>
      <path id="DejaVuSans-1d" d="M 750 794 
L 1409 794 
L 1409 0 
L 750 0 
L 750 794 
z
M 750 3309 
L 1409 3309 
L 1409 2516 
L 750 2516 
L 750 3309 
z
" transform="scale(0.015625)"/>
      <path id="DejaVuSans-14" d="M 794 531 
L 1825 531 
L 1825 4091 
L 703 3866 
L 703 4441 
L 1819 4666 
L 2450 4666 
L 2450 531 
L 3481 531 
L 3481 0 
L 794 0 
L 794 531 
z
" transform="scale(0.015625)"/>
      <path id="DejaVuSans-59" d="M 191 3500 
L 800 3500 
L 1894 563 
L 2988 3500 
L 3597 3500 
L 2284 0 
L 1503 0 
L 191 3500 
z
" transform="scale(0.015625)"/>
      <path id="DejaVuSans-52" d="M 1959 3097 
Q 1497 3097 1228 2736 
Q 959 2375 959 1747 
Q 959 1119 1226 758 
Q 1494 397 1959 397 
Q 2419 397 2687 759 
Q 2956 1122 2956 1747 
Q 2956 2369 2687 2733 
Q 2419 3097 1959 3097 
z
M 1959 3584 
Q 2709 3584 3137 3096 
Q 3566 2609 3566 1747 
Q 3566 888 3137 398 
Q 2709 -91 1959 -91 
Q 1206 -91 779 398 
Q 353 888 353 1747 
Q 353 2609 779 3096 
Q 1206 3584 1959 3584 
z
" transform="scale(0.015625)"/>
      <path id="DejaVuSans-55" d="M 2631 2963 
Q 2534 3019 2420 3045 
Q 2306 3072 2169 3072 
Q 1681 3072 1420 2755 
Q 1159 2438 1159 1844 
L 1159 0 
L 581 0 
L 581 3500 
L 1159 3500 
L 1159 2956 
Q 1341 3275 1631 3429 
Q 1922 3584 2338 3584 
Q 2397 3584 2469 3576 
Q 2541 3569 2628 3553 
L 2631 2963 
z
" transform="scale(0.015625)"/>
      <path id="DejaVuSans-c" d="M 513 4856 
L 1013 4856 
Q 1481 4119 1714 3412 
Q 1947 2706 1947 2009 
Q 1947 1309 1714 600 
Q 1481 -109 1013 -844 
L 513 -844 
Q 928 -128 1133 580 
Q 1338 1288 1338 2009 
Q 1338 2731 1133 3434 
Q 928 4138 513 4856 
z
" transform="scale(0.015625)"/>
     </defs>
     <use xlink:href="#DejaVuSans-b"/>
     <use xlink:href="#DejaVuSans-15" transform="translate(39.015625 0)"/>
     <use xlink:href="#DejaVuSans-3" transform="translate(102.640625 0)"/>
     <use xlink:href="#DejaVuSans-1d" transform="translate(134.421875 0)"/>
     <use xlink:href="#DejaVuSans-3" transform="translate(168.109375 0)"/>
     <use xlink:href="#DejaVuSans-14" transform="translate(199.890625 0)"/>
     <use xlink:href="#DejaVuSans-3" transform="translate(263.515625 0)"/>
     <use xlink:href="#DejaVuSans-59" transform="translate(295.296875 0)"/>
     <use xlink:href="#DejaVuSans-52" transform="translate(354.484375 0)"/>
     <use xlink:href="#DejaVuSans-57" transform="translate(415.671875 0)"/>
     <use xlink:href="#DejaVuSans-48" transform="translate(454.875 0)"/>
     <use xlink:href="#DejaVuSans-55" transform="translate(516.40625 0)"/>
     <use xlink:href="#DejaVuSans-56" transform="translate(557.515625 0)"/>
     <use xlink:href="#DejaVuSans-c" transform="translate(609.609375 0)"/>
    </g>
   </g>
   <g id="text_2">
    <!-- B beats C -->
    <g transform="translate(202.820312 276.079648) scale(0.1 -0.1)">
     <defs>
      <path id="DejaVuSans-26" d="M 4122 4306 
L 4122 3641 
Q 3803 3938 3442 4084 
Q 3081 4231 2675 4231 
Q 1875 4231 1450 3742 
Q 1025 3253 1025 2328 
Q 1025 1406 1450 917 
Q 1875 428 2675 428 
Q 3081 428 3442 575 
Q 3803 722 4122 1019 
L 4122 359 
Q 3791 134 3420 21 
Q 3050 -91 2638 -91 
Q 1578 -91 968 557 
Q 359 1206 359 2328 
Q 359 3453 968 4101 
Q 1578 4750 2638 4750 
Q 3056 4750 3426 4639 
Q 3797 4528 4122 4306 
z
" transform="scale(0.015625)"/>
     </defs>
     <use xlink:href="#DejaVuSans-25"/>
     <use xlink:href="#DejaVuSans-3" transform="translate(68.609375 0)"/>
     <use xlink:href="#DejaVuSans-45" transform="translate(100.390625 0)"/>
     <use xlink:href="#DejaVuSans-48" transform="translate(163.875 0)"/>
     <use xlink:href="#DejaVuSans-44" transform="translate(225.40625 0)"/>
     <use xlink:href="#DejaVuSans-57" transform="translate(286.6875 0)"/>
     <use xlink:href="#DejaVuSans-56" transform="translate(325.890625 0)"/>
     <use xlink:href="#DejaVuSans-3" transform="translate(377.984375 0)"/>
     <use xlink:href="#DejaVuSans-26" transform="translate(409.765625 0)"/>
    </g>
    <!-- (2 : 1 voters) -->
    <g transform="translate(194.36875 288.081602) scale(0.1 -0.1)">
     <use xlink:href="#DejaVuSans-b"/>
     <use xlink:href="#DejaVuSans-15" transform="translate(39.015625 0)"/>
     <use xlink:href="#DejaVuSans-3" transform="translate(102.640625 0)"/>
     <use xlink:href="#DejaVuSans-1d" transform="translate(134.421875 0)"/>
     <use xlink:href="#DejaVuSans-3" transform="translate(168.109375 0)"/>
     <use xlink:href="#DejaVuSans-14" transform="translate(199.890625 0)"/>
     <use xlink:href="#DejaVuSans-3" transform="translate(263.515625 0)"/>
     <use xlink:href="#DejaVuSans-59" transform="translate(295.296875 0)"/>
     <use xlink:href="#DejaVuSans-52" transform="translate(354.484375 0)"/>
     <use xlink:href="#DejaVuSans-57" transform="translate(415.671875 0)"/>
     <use xlink:href="#DejaVuSans-48" transform="translate(454.875 0)"/>
     <use xlink:href="#DejaVuSans-55" transform="translate(516.40625 0)"/>
     <use xlink:href="#DejaVuSans-56" transform="translate(557.515625 0)"/>
     <use xlink:href="#DejaVuSans-c" transform="translate(609.609375 0)"/>
    </g>
   </g>
   <g id="text_3">
    <!-- C beats A -->
    <g transform="translate(222.167538 243.219823) scale(0.1 -0.1)">
     <use xlink:href="#DejaVuSans-26"/>
     <use xlink:href="#DejaVuSans-3" transform="translate(69.828125 0)"/>
     <use xlink:href="#DejaVuSans-45" transform="translate(101.609375 0)"/>
     <use xlink:href="#DejaVuSans-48" transform="translate(165.09375 0)"/>
     <use xlink:href="#DejaVuSans-44" transform="translate(226.625 0)"/>
     <use xlink:href="#DejaVuSans-57" transform="translate(287.90625 0)"/>
     <use xlink:href="#DejaVuSans-56" transform="translate(327.109375 0)"/>
     <use xlink:href="#DejaVuSans-3" transform="translate(379.203125 0)"/>
     <use xlink:href="#DejaVuSans-24" transform="translate(410.984375 0)"/>
    </g>
    <!-- (2 : 1 voters) -->
    <g transform="translate(213.70582 255.221776) scale(0.1 -0.1)">
     <use xlink:href="#DejaVuSans-b"/>
     <use xlink:href="#DejaVuSans-15" transform="translate(39.015625 0)"/>
     <use xlink:href="#DejaVuSans-3" transform="translate(102.640625 0)"/>
     <use xlink:href="#DejaVuSans-1d" transform="translate(134.421875 0)"/>
     <use xlink:href="#DejaVuSans-3" transform="translate(168.109375 0)"/>
     <use xlink:href="#DejaVuSans-14" transform="translate(199.890625 0)"/>
     <use xlink:href="#DejaVuSans-3" transform="translate(263.515625 0)"/>
     <use xlink:href="#DejaVuSans-59" transform="translate(295.296875 0)"/>
     <use xlink:href="#DejaVuSans-52" transform="translate(354.484375 0)"/>
     <use xlink:href="#DejaVuSans-57" transform="translate(415.671875 0)"/>
     <use xlink:href="#DejaVuSans-48" transform="translate(454.875 0)"/>
     <use xlink:href="#DejaVuSans-55" transform="translate(516.40625 0)"/>
     <use xlink:href="#DejaVuSans-56" transform="translate(557.515625 0)"/>
     <use xlink:href="#DejaVuSans-c" transform="translate(609.609375 0)"/>
    </g>
   </g>
   <g id="text_4">
    <!-- Condorcet paradox: the majority-rule cycle -->
    <g transform="translate(97.915312 17.519297) scale(0.12 -0.12)">
     <defs>
      <path id="DejaVuSans-51" d="M 3513 2113 
L 3513 0 
L 2938 0 
L 2938 2094 
Q 2938 2591 2744 2837 
Q 2550 3084 2163 3084 
Q 1697 3084 1428 2787 
Q 1159 2491 1159 1978 
L 1159 0 
L 581 0 
L 581 3500 
L 1159 3500 
L 1159 2956 
Q 1366 3272 1645 3428 
Q 1925 3584 2291 3584 
Q 2894 3584 3203 3211 
Q 3513 2838 3513 2113 
z
" transform="scale(0.015625)"/>
      <path id="DejaVuSans-47" d="M 2906 2969 
L 2906 4863 
L 3481 4863 
L 3481 0 
L 2906 0 
L 2906 525 
Q 2725 213 2448 61 
Q 2172 -91 1784 -91 
Q 1150 -91 751 415 
Q 353 922 353 1747 
Q 353 2572 751 3078 
Q 1150 3584 1784 3584 
Q 2172 3584 2448 3432 
Q 2725 3281 2906 2969 
z
M 947 1747 
Q 947 1113 1208 752 
Q 1469 391 1925 391 
Q 2381 391 2643 752 
Q 2906 1113 2906 1747 
Q 2906 2381 2643 2742 
Q 2381 3103 1925 3103 
Q 1469 3103 1208 2742 
Q 947 2381 947 1747 
z
" transform="scale(0.015625)"/>
      <path id="DejaVuSans-46" d="M 3122 3366 
L 3122 2828 
Q 2878 2963 2633 3030 
Q 2388 3097 2138 3097 
Q 1578 3097 1268 2742 
Q 959 2388 959 1747 
Q 959 1106 1268 751 
Q 1578 397 2138 397 
Q 2388 397 2633 464 
Q 2878 531 3122 666 
L 3122 134 
Q 2881 22 2623 -34 
Q 2366 -91 2075 -91 
Q 1284 -91 818 406 
Q 353 903 353 1747 
Q 353 2603 823 3093 
Q 1294 3584 2113 3584 
Q 2378 3584 2631 3529 
Q 2884 3475 3122 3366 
z
" transform="scale(0.015625)"/>
      <path id="DejaVuSans-53" d="M 1159 525 
L 1159 -1331 
L 581 -1331 
L 581 3500 
L 1159 3500 
L 1159 2969 
Q 1341 3281 1617 3432 
Q 1894 3584 2278 3584 
Q 2916 3584 3314 3078 
Q 3713 2572 3713 1747 
Q 3713 922 3314 415 
Q 2916 -91 2278 -91 
Q 1894 -91 1617 61 
Q 1341 213 1159 525 
z
M 3116 1747 
Q 3116 2381 2855 2742 
Q 2594 3103 2138 3103 
Q 1681 3103 1420 2742 
Q 1159 2381 1159 1747 
Q 1159 1113 1420 752 
Q 1681 391 2138 391 
Q 2594 391 2855 752 
Q 3116 1113 3116 1747 
z
" transform="scale(0.015625)"/>
      <path id="DejaVuSans-5b" d="M 3513 3500 
L 2247 1797 
L 3578 0 
L 2900 0 
L 1881 1375 
L 863 0 
L 184 0 
L 1544 1831 
L 300 3500 
L 978 3500 
L 1906 2253 
L 2834 3500 
L 3513 3500 
z
" transform="scale(0.015625)"/>
      <path id="DejaVuSans-4b" d="M 3513 2113 
L 3513 0 
L 2938 0 
L 2938 2094 
Q 2938 2591 2744 2837 
Q 2550 3084 2163 3084 
Q 1697 3084 1428 2787 
Q 1159 2491 1159 1978 
L 1159 0 
L 581 0 
L 581 4863 
L 1159 4863 
L 1159 2956 
Q 1366 3272 1645 3428 
Q 1925 3584 2291 3584 
Q 2894 3584 3203 3211 
Q 3513 2838 3513 2113 
z
" transform="scale(0.015625)"/>
      <path id="DejaVuSans-50" d="M 3328 2828 
Q 3544 3216 3844 3400 
Q 4144 3584 4550 3584 
Q 5097 3584 5394 3201 
Q 5691 2819 5691 2113 
L 5691 0 
L 5113 0 
L 5113 2094 
Q 5113 2597 4934 2840 
Q 4756 3084 4391 3084 
Q 3944 3084 3684 2787 
Q 3425 2491 3425 1978 
L 3425 0 
L 2847 0 
L 2847 2094 
Q 2847 2600 2669 2842 
Q 2491 3084 2119 3084 
Q 1678 3084 1418 2786 
Q 1159 2488 1159 1978 
L 1159 0 
L 581 0 
L 581 3500 
L 1159 3500 
L 1159 2956 
Q 1356 3278 1631 3431 
Q 1906 3584 2284 3584 
Q 2666 3584 2933 3390 
Q 3200 3197 3328 2828 
z
" transform="scale(0.015625)"/>
      <path id="DejaVuSans-4d" d="M 603 3500 
L 1178 3500 
L 1178 -63 
Q 1178 -731 923 -1031 
Q 669 -1331 103 -1331 
L -116 -1331 
L -116 -844 
L 38 -844 
Q 366 -844 484 -692 
Q 603 -541 603 -63 
L 603 3500 
z
M 603 4863 
L 1178 4863 
L 1178 4134 
L 603 4134 
L 603 4863 
z
" transform="scale(0.015625)"/>
      <path id="DejaVuSans-4c" d="M 603 3500 
L 1178 3500 
L 1178 0 
L 603 0 
L 603 3500 
z
M 603 4863 
L 1178 4863 
L 1178 4134 
L 603 4134 
L 603 4863 
z
" transform="scale(0.015625)"/>
      <path id="DejaVuSans-5c" d="M 2059 -325 
Q 1816 -950 1584 -1140 
Q 1353 -1331 966 -1331 
L 506 -1331 
L 506 -850 
L 844 -850 
Q 1081 -850 1212 -737 
Q 1344 -625 1503 -206 
L 1606 56 
L 191 3500 
L 800 3500 
L 1894 763 
L 2988 3500 
L 3597 3500 
L 2059 -325 
z
" transform="scale(0.015625)"/>
      <path id="DejaVuSans-10" d="M 313 2009 
L 1997 2009 
L 1997 1497 
L 313 1497 
L 313 2009 
z
" transform="scale(0.015625)"/>
      <path id="DejaVuSans-58" d="M 544 1381 
L 544 3500 
L 1119 3500 
L 1119 1403 
Q 1119 906 1312 657 
Q 1506 409 1894 409 
Q 2359 409 2629 706 
Q 2900 1003 2900 1516 
L 2900 3500 
L 3475 3500 
L 3475 0 
L 2900 0 
L 2900 538 
Q 2691 219 2414 64 
Q 2138 -91 1772 -91 
Q 1169 -91 856 284 
Q 544 659 544 1381 
z
M 1991 3584 
L 1991 3584 
z
" transform="scale(0.015625)"/>
      <path id="DejaVuSans-4f" d="M 603 4863 
L 1178 4863 
L 1178 0 
L 603 0 
L 603 4863 
z
" transform="scale(0.015625)"/>
     </defs>
     <use xlink:href="#DejaVuSans-26"/>
     <use xlink:href="#DejaVuSans-52" transform="translate(69.828125 0)"/>
     <use xlink:href="#DejaVuSans-51" transform="translate(131.015625 0)"/>
     <use xlink:href="#DejaVuSans-47" transform="translate(194.390625 0)"/>
     <use xlink:href="#DejaVuSans-52" transform="translate(257.875 0)"/>
     <use xlink:href="#DejaVuSans-55" transform="translate(319.0625 0)"/>
     <use xlink:href="#DejaVuSans-46" transform="translate(357.96875 0)"/>
     <use xlink:href="#DejaVuSans-48" transform="translate(412.953125 0)"/>
     <use xlink:href="#DejaVuSans-57" transform="translate(474.484375 0)"/>
     <use xlink:href="#DejaVuSans-3" transform="translate(513.6875 0)"/>
     <use xlink:href="#DejaVuSans-53" transform="translate(545.46875 0)"/>
     <use xlink:href="#DejaVuSans-44" transform="translate(608.953125 0)"/>
     <use xlink:href="#DejaVuSans-55" transform="translate(670.234375 0)"/>
     <use xlink:href="#DejaVuSans-44" transform="translate(711.34375 0)"/>
     <use xlink:href="#DejaVuSans-47" transform="translate(772.625 0)"/>
     <use xlink:href="#DejaVuSans-52" transform="translate(836.109375 0)"/>
     <use xlink:href="#DejaVuSans-5b" transform="translate(894.21875 0)"/>
     <use xlink:href="#DejaVuSans-1d" transform="translate(953.40625 0)"/>
     <use xlink:href="#DejaVuSans-3" transform="translate(987.09375 0)"/>
     <use xlink:href="#DejaVuSans-57" transform="translate(1018.875 0)"/>
     <use xlink:href="#DejaVuSans-4b" transform="translate(1058.078125 0)"/>
     <use xlink:href="#DejaVuSans-48" transform="translate(1121.453125 0)"/>
     <use xlink:href="#DejaVuSans-3" transform="translate(1182.984375 0)"/>
     <use xlink:href="#DejaVuSans-50" transform="translate(1214.765625 0)"/>
     <use xlink:href="#DejaVuSans-44" transform="translate(1312.171875 0)"/>
     <use xlink:href="#DejaVuSans-4d" transform="translate(1373.453125 0)"/>
     <use xlink:href="#DejaVuSans-52" transform="translate(1401.234375 0)"/>
     <use xlink:href="#DejaVuSans-55" transform="translate(1462.421875 0)"/>
     <use xlink:href="#DejaVuSans-4c" transform="translate(1503.53125 0)"/>
     <use xlink:href="#DejaVuSans-57" transform="translate(1531.3125 0)"/>
     <use xlink:href="#DejaVuSans-5c" transform="translate(1570.515625 0)"/>
     <use xlink:href="#DejaVuSans-10" transform="translate(1627.953125 0)"/>
     <use xlink:href="#DejaVuSans-55" transform="translate(1664.03125 0)"/>
     <use xlink:href="#DejaVuSans-58" transform="translate(1705.140625 0)"/>
     <use xlink:href="#DejaVuSans-4f" transform="translate(1768.515625 0)"/>
     <use xlink:href="#DejaVuSans-48" transform="translate(1796.296875 0)"/>
     <use xlink:href="#DejaVuSans-3" transform="translate(1857.828125 0)"/>
     <use xlink:href="#DejaVuSans-46" transform="translate(1889.609375 0)"/>
     <use xlink:href="#DejaVuSans-5c" transform="translate(1944.59375 0)"/>
     <use xlink:href="#DejaVuSans-46" transform="translate(2003.78125 0)"/>
     <use xlink:href="#DejaVuSans-4f" transform="translate(2058.765625 0)"/>
     <use xlink:href="#DejaVuSans-48" transform="translate(2086.546875 0)"/>
    </g>
    <!-- A beats B, B beats C, C beats A - - no Condorcet winner -->
    <g transform="translate(62.354062 31.922578) scale(0.12 -0.12)">
     <defs>
      <path id="DejaVuSans-f" d="M 750 794 
L 1409 794 
L 1409 256 
L 897 -744 
L 494 -744 
L 750 256 
L 750 794 
z
" transform="scale(0.015625)"/>
      <path id="DejaVuSans-5a" d="M 269 3500 
L 844 3500 
L 1563 769 
L 2278 3500 
L 2956 3500 
L 3675 769 
L 4391 3500 
L 4966 3500 
L 4050 0 
L 3372 0 
L 2619 2869 
L 1863 0 
L 1184 0 
L 269 3500 
z
" transform="scale(0.015625)"/>
     </defs>
     <use xlink:href="#DejaVuSans-24"/>
     <use xlink:href="#DejaVuSans-3" transform="translate(68.40625 0)"/>
     <use xlink:href="#DejaVuSans-45" transform="translate(100.1875 0)"/>
     <use xlink:href="#DejaVuSans-48" transform="translate(163.671875 0)"/>
     <use xlink:href="#DejaVuSans-44" transform="translate(225.203125 0)"/>
     <use xlink:href="#DejaVuSans-57" transform="translate(286.484375 0)"/>
     <use xlink:href="#DejaVuSans-56" transform="translate(325.6875 0)"/>
     <use xlink:href="#DejaVuSans-3" transform="translate(377.78125 0)"/>
     <use xlink:href="#DejaVuSans-25" transform="translate(409.5625 0)"/>
     <use xlink:href="#DejaVuSans-f" transform="translate(478.171875 0)"/>
     <use xlink:href="#DejaVuSans-3" transform="translate(509.953125 0)"/>
     <use xlink:href="#DejaVuSans-25" transform="translate(541.734375 0)"/>
     <use xlink:href="#DejaVuSans-3" transform="translate(610.34375 0)"/>
     <use xlink:href="#DejaVuSans-45" transform="translate(642.125 0)"/>
     <use xlink:href="#DejaVuSans-48" transform="translate(705.609375 0)"/>
     <use xlink:href="#DejaVuSans-44" transform="translate(767.140625 0)"/>
     <use xlink:href="#DejaVuSans-57" transform="translate(828.421875 0)"/>
     <use xlink:href="#DejaVuSans-56" transform="translate(867.625 0)"/>
     <use xlink:href="#DejaVuSans-3" transform="translate(919.71875 0)"/>
     <use xlink:href="#DejaVuSans-26" transform="translate(951.5 0)"/>
     <use xlink:href="#DejaVuSans-f" transform="translate(1021.328125 0)"/>
     <use xlink:href="#DejaVuSans-3" transform="translate(1053.109375 0)"/>
     <use xlink:href="#DejaVuSans-26" transform="translate(1084.890625 0)"/>
     <use xlink:href="#DejaVuSans-3" transform="translate(1154.71875 0)"/>
     <use xlink:href="#DejaVuSans-45" transform="translate(1186.5 0)"/>
     <use xlink:href="#DejaVuSans-48" transform="translate(1249.984375 0)"/>
     <use xlink:href="#DejaVuSans-44" transform="translate(1311.515625 0)"/>
     <use xlink:href="#DejaVuSans-57" transform="translate(1372.796875 0)"/>
     <use xlink:href="#DejaVuSans-56" transform="translate(1412 0)"/>
     <use xlink:href="#DejaVuSans-3" transform="translate(1464.09375 0)"/>
     <use xlink:href="#DejaVuSans-24" transform="translate(1495.875 0)"/>
     <use xlink:href="#DejaVuSans-3" transform="translate(1564.28125 0)"/>
     <use xlink:href="#DejaVuSans-10" transform="translate(1596.0625 0)"/>
     <use xlink:href="#DejaVuSans-10" transform="translate(1632.140625 0)"/>
     <use xlink:href="#DejaVuSans-3" transform="translate(1668.21875 0)"/>
     <use xlink:href="#DejaVuSans-51" transform="translate(1700 0)"/>
     <use xlink:href="#DejaVuSans-52" transform="translate(1763.375 0)"/>
     <use xlink:href="#DejaVuSans-3" transform="translate(1824.5625 0)"/>
     <use xlink:href="#DejaVuSans-26" transform="translate(1856.34375 0)"/>
     <use xlink:href="#DejaVuSans-52" transform="translate(1926.171875 0)"/>
     <use xlink:href="#DejaVuSans-51" transform="translate(1987.359375 0)"/>
     <use xlink:href="#DejaVuSans-47" transform="translate(2050.734375 0)"/>
     <use xlink:href="#DejaVuSans-52" transform="translate(2114.21875 0)"/>
     <use xlink:href="#DejaVuSans-55" transform="translate(2175.40625 0)"/>
     <use xlink:href="#DejaVuSans-46" transform="translate(2214.3125 0)"/>
     <use xlink:href="#DejaVuSans-48" transform="translate(2269.296875 0)"/>
     <use xlink:href="#DejaVuSans-57" transform="translate(2330.828125 0)"/>
     <use xlink:href="#DejaVuSans-3" transform="translate(2370.03125 0)"/>
     <use xlink:href="#DejaVuSans-5a" transform="translate(2401.8125 0)"/>
     <use xlink:href="#DejaVuSans-4c" transform="translate(2483.59375 0)"/>
     <use xlink:href="#DejaVuSans-51" transform="translate(2511.375 0)"/>
     <use xlink:href="#DejaVuSans-51" transform="translate(2574.75 0)"/>
     <use xlink:href="#DejaVuSans-48" transform="translate(2638.125 0)"/>
     <use xlink:href="#DejaVuSans-55" transform="translate(2699.65625 0)"/>
    </g>
   </g>
   <g id="text_5">
    <!-- A -->
    <g style="fill: #ffffff" transform="translate(219.060937 125.467891) scale(0.2 -0.2)">
     <defs>
      <path id="DejaVuSans-Bold-24" d="M 3419 850 
L 1538 850 
L 1241 0 
L 31 0 
L 1759 4666 
L 3194 4666 
L 4922 0 
L 3713 0 
L 3419 850 
z
M 1838 1716 
L 3116 1716 
L 2478 3572 
L 1838 1716 
z
" transform="scale(0.015625)"/>
     </defs>
     <use xlink:href="#DejaVuSans-Bold-24"/>
    </g>
   </g>
   <g id="text_6">
    <!-- B -->
    <g style="fill: #ffffff" transform="translate(99.770625 331.342891) scale(0.2 -0.2)">
     <defs>
      <path id="DejaVuSans-Bold-25" d="M 2456 2859 
Q 2741 2859 2887 2984 
Q 3034 3109 3034 3353 
Q 3034 3594 2887 3720 
Q 2741 3847 2456 3847 
L 1791 3847 
L 1791 2859 
L 2456 2859 
z
M 2497 819 
Q 2859 819 3042 972 
Q 3225 1125 3225 1434 
Q 3225 1738 3044 1889 
Q 2863 2041 2497 2041 
L 1791 2041 
L 1791 819 
L 2497 819 
z
M 3616 2497 
Q 4003 2384 4215 2081 
Q 4428 1778 4428 1338 
Q 4428 663 3972 331 
Q 3516 0 2584 0 
L 588 0 
L 588 4666 
L 2394 4666 
Q 3366 4666 3802 4372 
Q 4238 4078 4238 3431 
Q 4238 3091 4078 2852 
Q 3919 2613 3616 2497 
z
" transform="scale(0.015625)"/>
     </defs>
     <use xlink:href="#DejaVuSans-Bold-25"/>
    </g>
   </g>
   <g id="text_7">
    <!-- C -->
    <g style="fill: #ffffff" transform="translate(338.868437 331.342891) scale(0.2 -0.2)">
     <defs>
      <path id="DejaVuSans-Bold-26" d="M 4288 256 
Q 3956 84 3597 -3 
Q 3238 -91 2847 -91 
Q 1681 -91 1000 561 
Q 319 1213 319 2328 
Q 319 3447 1000 4098 
Q 1681 4750 2847 4750 
Q 3238 4750 3597 4662 
Q 3956 4575 4288 4403 
L 4288 3438 
Q 3953 3666 3628 3772 
Q 3303 3878 2944 3878 
Q 2300 3878 1931 3465 
Q 1563 3053 1563 2328 
Q 1563 1606 1931 1193 
Q 2300 781 2944 781 
Q 3303 781 3628 887 
Q 3953 994 4288 1222 
L 4288 256 
z
" transform="scale(0.015625)"/>
     </defs>
     <use xlink:href="#DejaVuSans-Bold-26"/>
    </g>
   </g>
  </g>
 </g>
 <defs>
  <clipPath id="pb5e34fc704">
   <rect x="7.2" y="37.922578" width="439.2" height="411.75"/>
  </clipPath>
 </defs>
</svg>
