<?xml version="1.0" encoding="utf-8" standalone="no"?>
<!DOCTYPE svg PUBLIC "-//W3C//DTD SVG 1.1//EN"
  "http://www.w3.org/Graphics/SVG/1.1/DTD/svg11.dtd">
<svg xmlns:xlink="http://www.w3.org/1999/xlink" width="712.8pt" height="264.076649pt" viewBox="0 0 712.8 264.076649" xmlns="http://www.w3.org/2000/svg" version="1.1">
 <metadata>
  <rdf:RDF xmlns:dc="http://purl.org/dc/elements/1.1/" xmlns:cc="http://creativecommons.org/ns#" xmlns:rdf="http://www.w3.org/1999/02/22-rdf-syntax-ns#">
   <cc:Work>
    <dc:type rdf:resource="http://purl.org/dc/dcmitype/StillImage"/>
    <dc:date>2026-07-02T00:36:03.532404</dc:date>
    <dc:format>image/svg+xml</dc:format>
    <dc:creator>
     <cc:Agent>
      <dc:title>Matplotlib v3.11.0, https://matplotlib.org/</dc:title>
     </cc:Agent>
    </dc:creator>
   </cc:Work>
  </rdf:RDF>
 </metadata>
 <defs>
  <style type="text/css">*{stroke-linejoin: round; stroke-linecap: butt}</style>
 </defs>
 <g id="figure_1">
  <g id="patch_1">
   <path d="M 0 264.076649 
L 712.8 264.076649 
L 712.8 0 
L 0 0 
z
" style="fill: #ffffff"/>
  </g>
  <g id="axes_1">
   <g id="patch_2">
    <path d="M 56.314286 159.875935 
C 59.896232 159.875935 63.331954 158.452812 65.864773 155.919993 
C 68.397592 153.387175 69.820714 149.951453 69.820714 146.369506 
C 69.820714 142.787559 68.397592 139.351838 65.864773 136.819019 
C 63.331954 134.2862 59.896232 132.863078 56.314286 132.863078 
C 52.732339 132.863078 49.296617 134.2862 46.763798 136.819019 
C 44.23098 139.351838 42.807857 142.787559 42.807857 146.369506 
C 42.807857 149.951453 44.23098 153.387175 46.763798 155.919993 
C 49.296617 158.452812 52.732339 159.875935 56.314286 159.875935 
z
" clip-path="url(#p223fede693)" style="fill: #eef3fb; stroke: #1f5fa8; stroke-width: 1.6; stroke-linejoin: miter"/>
   </g>
   <g id="patch_3">
    <path d="M 179.1 98.483078 
C 182.681947 98.483078 186.117668 97.059955 188.650487 94.527136 
C 191.183306 91.994317 192.606429 88.558596 192.606429 84.976649 
C 192.606429 81.394702 191.183306 77.958981 188.650487 75.426162 
C 186.117668 72.893343 182.681947 71.47022 179.1 71.47022 
C 175.518053 71.47022 172.082332 72.893343 169.549513 75.426162 
C 167.016694 77.958981 165.593571 81.394702 165.593571 84.976649 
C 165.593571 88.558596 167.016694 91.994317 169.549513 94.527136 
C 172.082332 97.059955 175.518053 98.483078 179.1 98.483078 
z
" clip-path="url(#p223fede693)" style="fill: #eef3fb; stroke: #1f5fa8; stroke-width: 1.6; stroke-linejoin: miter"/>
   </g>
   <g id="patch_4">
    <path d="M 179.1 221.268792 
C 182.681947 221.268792 186.117668 219.845669 188.650487 217.312851 
C 191.183306 214.780032 192.606429 211.34431 192.606429 207.762363 
C 192.606429 204.180417 191.183306 200.744695 188.650487 198.211876 
C 186.117668 195.679057 182.681947 194.255935 179.1 194.255935 
C 175.518053 194.255935 172.082332 195.679057 169.549513 198.211876 
C 167.016694 200.744695 165.593571 204.180417 165.593571 207.762363 
C 165.593571 211.34431 167.016694 214.780032 169.549513 217.312851 
C 172.082332 219.845669 175.518053 221.268792 179.1 221.268792 
z
" clip-path="url(#p223fede693)" style="fill: #eef3fb; stroke: #1f5fa8; stroke-width: 1.6; stroke-linejoin: miter"/>
   </g>
   <g id="patch_5">
    <path d="M 301.885714 159.875935 
C 305.467661 159.875935 308.903383 158.452812 311.436202 155.919993 
C 313.96902 153.387175 315.392143 149.951453 315.392143 146.369506 
C 315.392143 142.787559 313.96902 139.351838 311.436202 136.819019 
C 308.903383 134.2862 305.467661 132.863078 301.885714 132.863078 
C 298.303768 132.863078 294.868046 134.2862 292.335227 136.819019 
C 289.802408 139.351838 288.379286 142.787559 288.379286 146.369506 
C 288.379286 149.951453 289.802408 153.387175 292.335227 155.919993 
C 294.868046 158.452812 298.303768 159.875935 301.885714 159.875935 
z
" clip-path="url(#p223fede693)" style="fill: #eef3fb; stroke: #1f5fa8; stroke-width: 1.6; stroke-linejoin: miter"/>
   </g>
   <g id="patch_6">
    <path d="M 68.833422 140.109938 
Q 117.706001 115.673649 164.878579 92.08736 
" style="fill: none; stroke: #333333; stroke-width: 1.7; stroke-linecap: round"/>
    <path d="M 160.406443 92.08736 
L 164.878579 92.08736 
L 162.195297 95.665068 
" style="fill: none; stroke: #333333; stroke-width: 1.7; stroke-linecap: round"/>
   </g>
   <g id="text_1">
    <!-- cost = x -->
    <g style="fill: #333333" transform="translate(98.041401 113.390851) scale(0.095 -0.095)">
     <defs>
      <path id="DejaVuSans-46" d="M 3122 3366 
L 3122 2828 
Q 2878 2963 2633 3030 
Q 2388 3097 2138 3097 
Q 1578 3097 1268 2742 
Q 959 2388 959 1747 
Q 959 1106 1268 751 
Q 1578 397 2138 397 
Q 2388 397 2633 464 
Q 2878 531 3122 666 
L 3122 134 
Q 2881 22 2623 -34 
Q 2366 -91 2075 -91 
Q 1284 -91 818 406 
Q 353 903 353 1747 
Q 353 2603 823 3093 
Q 1294 3584 2113 3584 
Q 2378 3584 2631 3529 
Q 2884 3475 3122 3366 
z
" transform="scale(0.015625)"/>
      <path id="DejaVuSans-52" d="M 1959 3097 
Q 1497 3097 1228 2736 
Q 959 2375 959 1747 
Q 959 1119 1226 758 
Q 1494 397 1959 397 
Q 2419 397 2687 759 
Q 2956 1122 2956 1747 
Q 2956 2369 2687 2733 
Q 2419 3097 1959 3097 
z
M 1959 3584 
Q 2709 3584 3137 3096 
Q 3566 2609 3566 1747 
Q 3566 888 3137 398 
Q 2709 -91 1959 -91 
Q 1206 -91 779 398 
Q 353 888 353 1747 
Q 353 2609 779 3096 
Q 1206 3584 1959 3584 
z
" transform="scale(0.015625)"/>
      <path id="DejaVuSans-56" d="M 2834 3397 
L 2834 2853 
Q 2591 2978 2328 3040 
Q 2066 3103 1784 3103 
Q 1356 3103 1142 2972 
Q 928 2841 928 2578 
Q 928 2378 1081 2264 
Q 1234 2150 1697 2047 
L 1894 2003 
Q 2506 1872 2764 1633 
Q 3022 1394 3022 966 
Q 3022 478 2636 193 
Q 2250 -91 1575 -91 
Q 1294 -91 989 -36 
Q 684 19 347 128 
L 347 722 
Q 666 556 975 473 
Q 1284 391 1588 391 
Q 1994 391 2212 530 
Q 2431 669 2431 922 
Q 2431 1156 2273 1281 
Q 2116 1406 1581 1522 
L 1381 1569 
Q 847 1681 609 1914 
Q 372 2147 372 2553 
Q 372 3047 722 3315 
Q 1072 3584 1716 3584 
Q 2034 3584 2315 3537 
Q 2597 3491 2834 3397 
z
" transform="scale(0.015625)"/>
      <path id="DejaVuSans-57" d="M 1172 4494 
L 1172 3500 
L 2356 3500 
L 2356 3053 
L 1172 3053 
L 1172 1153 
Q 1172 725 1289 603 
Q 1406 481 1766 481 
L 2356 481 
L 2356 0 
L 1766 0 
Q 1100 0 847 248 
Q 594 497 594 1153 
L 594 3053 
L 172 3053 
L 172 3500 
L 594 3500 
L 594 4494 
L 1172 4494 
z
" transform="scale(0.015625)"/>
      <path id="DejaVuSans-3" transform="scale(0.015625)"/>
      <path id="DejaVuSans-20" d="M 678 2906 
L 4684 2906 
L 4684 2381 
L 678 2381 
L 678 2906 
z
M 678 1631 
L 4684 1631 
L 4684 1100 
L 678 1100 
L 678 1631 
z
" transform="scale(0.015625)"/>
      <path id="DejaVuSans-5b" d="M 3513 3500 
L 2247 1797 
L 3578 0 
L 2900 0 
L 1881 1375 
L 863 0 
L 184 0 
L 1544 1831 
L 300 3500 
L 978 3500 
L 1906 2253 
L 2834 3500 
L 3513 3500 
z
" transform="scale(0.015625)"/>
     </defs>
     <use xlink:href="#DejaVuSans-46"/>
     <use xlink:href="#DejaVuSans-52" transform="translate(54.984375 0)"/>
     <use xlink:href="#DejaVuSans-56" transform="translate(116.171875 0)"/>
     <use xlink:href="#DejaVuSans-57" transform="translate(168.265625 0)"/>
     <use xlink:href="#DejaVuSans-3" transform="translate(207.46875 0)"/>
     <use xlink:href="#DejaVuSans-20" transform="translate(239.25 0)"/>
     <use xlink:href="#DejaVuSans-3" transform="translate(323.046875 0)"/>
     <use xlink:href="#DejaVuSans-5b" transform="translate(354.828125 0)"/>
    </g>
   </g>
   <g id="patch_7">
    <path d="M 68.833422 152.629074 
Q 117.706001 177.065364 164.878579 200.651653 
" style="fill: none; stroke: #333333; stroke-width: 1.7; stroke-linecap: round"/>
    <path d="M 162.195297 197.073944 
L 164.878579 200.651653 
L 160.406443 200.651653 
" style="fill: none; stroke: #333333; stroke-width: 1.7; stroke-linecap: round"/>
   </g>
   <g id="text_2">
    <!-- cost = 1 -->
    <g style="fill: #333333" transform="translate(97.830619 184.283708) scale(0.095 -0.095)">
     <defs>
      <path id="DejaVuSans-14" d="M 794 531 
L 1825 531 
L 1825 4091 
L 703 3866 
L 703 4441 
L 1819 4666 
L 2450 4666 
L 2450 531 
L 3481 531 
L 3481 0 
L 794 0 
L 794 531 
z
" transform="scale(0.015625)"/>
     </defs>
     <use xlink:href="#DejaVuSans-46"/>
     <use xlink:href="#DejaVuSans-52" transform="translate(54.984375 0)"/>
     <use xlink:href="#DejaVuSans-56" transform="translate(116.171875 0)"/>
     <use xlink:href="#DejaVuSans-57" transform="translate(168.265625 0)"/>
     <use xlink:href="#DejaVuSans-3" transform="translate(207.46875 0)"/>
     <use xlink:href="#DejaVuSans-20" transform="translate(239.25 0)"/>
     <use xlink:href="#DejaVuSans-3" transform="translate(323.046875 0)"/>
     <use xlink:href="#DejaVuSans-14" transform="translate(354.828125 0)"/>
    </g>
   </g>
   <g id="patch_8">
    <path d="M 191.619137 91.236217 
Q 240.491715 115.672506 287.664293 139.258795 
" style="fill: none; stroke: #333333; stroke-width: 1.7; stroke-linecap: round"/>
    <path d="M 284.981011 135.681087 
L 287.664293 139.258795 
L 283.192157 139.258795 
" style="fill: none; stroke: #333333; stroke-width: 1.7; stroke-linecap: round"/>
   </g>
   <g id="text_3">
    <!-- cost = 1 -->
    <g style="fill: #333333" transform="translate(220.616334 122.890851) scale(0.095 -0.095)">
     <use xlink:href="#DejaVuSans-46"/>
     <use xlink:href="#DejaVuSans-52" transform="translate(54.984375 0)"/>
     <use xlink:href="#DejaVuSans-56" transform="translate(116.171875 0)"/>
     <use xlink:href="#DejaVuSans-57" transform="translate(168.265625 0)"/>
     <use xlink:href="#DejaVuSans-3" transform="translate(207.46875 0)"/>
     <use xlink:href="#DejaVuSans-20" transform="translate(239.25 0)"/>
     <use xlink:href="#DejaVuSans-3" transform="translate(323.046875 0)"/>
     <use xlink:href="#DejaVuSans-14" transform="translate(354.828125 0)"/>
    </g>
   </g>
   <g id="patch_9">
    <path d="M 191.619137 201.502795 
Q 240.491715 177.066506 287.664293 153.480217 
" style="fill: none; stroke: #333333; stroke-width: 1.7; stroke-linecap: round"/>
    <path d="M 283.192157 153.480217 
L 287.664293 153.480217 
L 284.981011 157.057926 
" style="fill: none; stroke: #333333; stroke-width: 1.7; stroke-linecap: round"/>
   </g>
   <g id="text_4">
    <!-- cost = x -->
    <g style="fill: #333333" transform="translate(220.827115 174.783708) scale(0.095 -0.095)">
     <use xlink:href="#DejaVuSans-46"/>
     <use xlink:href="#DejaVuSans-52" transform="translate(54.984375 0)"/>
     <use xlink:href="#DejaVuSans-56" transform="translate(116.171875 0)"/>
     <use xlink:href="#DejaVuSans-57" transform="translate(168.265625 0)"/>
     <use xlink:href="#DejaVuSans-3" transform="translate(207.46875 0)"/>
     <use xlink:href="#DejaVuSans-20" transform="translate(239.25 0)"/>
     <use xlink:href="#DejaVuSans-3" transform="translate(323.046875 0)"/>
     <use xlink:href="#DejaVuSans-5b" transform="translate(354.828125 0)"/>
    </g>
   </g>
   <g id="text_5">
    <!-- Before: two symmetric routes -->
    <g transform="translate(97.415547 16.659355) scale(0.11 -0.11)">
     <defs>
      <path id="DejaVuSans-25" d="M 1259 2228 
L 1259 519 
L 2272 519 
Q 2781 519 3026 730 
Q 3272 941 3272 1375 
Q 3272 1813 3026 2020 
Q 2781 2228 2272 2228 
L 1259 2228 
z
M 1259 4147 
L 1259 2741 
L 2194 2741 
Q 2656 2741 2882 2914 
Q 3109 3088 3109 3444 
Q 3109 3797 2882 3972 
Q 2656 4147 2194 4147 
L 1259 4147 
z
M 628 4666 
L 2241 4666 
Q 2963 4666 3353 4366 
Q 3744 4066 3744 3513 
Q 3744 3084 3544 2831 
Q 3344 2578 2956 2516 
Q 3422 2416 3680 2098 
Q 3938 1781 3938 1306 
Q 3938 681 3513 340 
Q 3088 0 2303 0 
L 628 0 
L 628 4666 
z
" transform="scale(0.015625)"/>
      <path id="DejaVuSans-48" d="M 3597 1894 
L 3597 1613 
L 953 1613 
Q 991 1019 1311 708 
Q 1631 397 2203 397 
Q 2534 397 2845 478 
Q 3156 559 3463 722 
L 3463 178 
Q 3153 47 2828 -22 
Q 2503 -91 2169 -91 
Q 1331 -91 842 396 
Q 353 884 353 1716 
Q 353 2575 817 3079 
Q 1281 3584 2069 3584 
Q 2775 3584 3186 3129 
Q 3597 2675 3597 1894 
z
M 3022 2063 
Q 3016 2534 2758 2815 
Q 2500 3097 2075 3097 
Q 1594 3097 1305 2825 
Q 1016 2553 972 2059 
L 3022 2063 
z
" transform="scale(0.015625)"/>
      <path id="DejaVuSans-49" d="M 2375 4863 
L 2375 4384 
L 1825 4384 
Q 1516 4384 1395 4259 
Q 1275 4134 1275 3809 
L 1275 3500 
L 2222 3500 
L 2222 3053 
L 1275 3053 
L 1275 0 
L 697 0 
L 697 3053 
L 147 3053 
L 147 3500 
L 697 3500 
L 697 3744 
Q 697 4328 969 4595 
Q 1241 4863 1831 4863 
L 2375 4863 
z
" transform="scale(0.015625)"/>
      <path id="DejaVuSans-55" d="M 2631 2963 
Q 2534 3019 2420 3045 
Q 2306 3072 2169 3072 
Q 1681 3072 1420 2755 
Q 1159 2438 1159 1844 
L 1159 0 
L 581 0 
L 581 3500 
L 1159 3500 
L 1159 2956 
Q 1341 3275 1631 3429 
Q 1922 3584 2338 3584 
Q 2397 3584 2469 3576 
Q 2541 3569 2628 3553 
L 2631 2963 
z
" transform="scale(0.015625)"/>
      <path id="DejaVuSans-1d" d="M 750 794 
L 1409 794 
L 1409 0 
L 750 0 
L 750 794 
z
M 750 3309 
L 1409 3309 
L 1409 2516 
L 750 2516 
L 750 3309 
z
" transform="scale(0.015625)"/>
      <path id="DejaVuSans-5a" d="M 269 3500 
L 844 3500 
L 1563 769 
L 2278 3500 
L 2956 3500 
L 3675 769 
L 4391 3500 
L 4966 3500 
L 4050 0 
L 3372 0 
L 2619 2869 
L 1863 0 
L 1184 0 
L 269 3500 
z
" transform="scale(0.015625)"/>
      <path id="DejaVuSans-5c" d="M 2059 -325 
Q 1816 -950 1584 -1140 
Q 1353 -1331 966 -1331 
L 506 -1331 
L 506 -850 
L 844 -850 
Q 1081 -850 1212 -737 
Q 1344 -625 1503 -206 
L 1606 56 
L 191 3500 
L 800 3500 
L 1894 763 
L 2988 3500 
L 3597 3500 
L 2059 -325 
z
" transform="scale(0.015625)"/>
      <path id="DejaVuSans-50" d="M 3328 2828 
Q 3544 3216 3844 3400 
Q 4144 3584 4550 3584 
Q 5097 3584 5394 3201 
Q 5691 2819 5691 2113 
L 5691 0 
L 5113 0 
L 5113 2094 
Q 5113 2597 4934 2840 
Q 4756 3084 4391 3084 
Q 3944 3084 3684 2787 
Q 3425 2491 3425 1978 
L 3425 0 
L 2847 0 
L 2847 2094 
Q 2847 2600 2669 2842 
Q 2491 3084 2119 3084 
Q 1678 3084 1418 2786 
Q 1159 2488 1159 1978 
L 1159 0 
L 581 0 
L 581 3500 
L 1159 3500 
L 1159 2956 
Q 1356 3278 1631 3431 
Q 1906 3584 2284 3584 
Q 2666 3584 2933 3390 
Q 3200 3197 3328 2828 
z
" transform="scale(0.015625)"/>
      <path id="DejaVuSans-4c" d="M 603 3500 
L 1178 3500 
L 1178 0 
L 603 0 
L 603 3500 
z
M 603 4863 
L 1178 4863 
L 1178 4134 
L 603 4134 
L 603 4863 
z
" transform="scale(0.015625)"/>
      <path id="DejaVuSans-58" d="M 544 1381 
L 544 3500 
L 1119 3500 
L 1119 1403 
Q 1119 906 1312 657 
Q 1506 409 1894 409 
Q 2359 409 2629 706 
Q 2900 1003 2900 1516 
L 2900 3500 
L 3475 3500 
L 3475 0 
L 2900 0 
L 2900 538 
Q 2691 219 2414 64 
Q 2138 -91 1772 -91 
Q 1169 -91 856 284 
Q 544 659 544 1381 
z
M 1991 3584 
L 1991 3584 
z
" transform="scale(0.015625)"/>
     </defs>
     <use xlink:href="#DejaVuSans-25"/>
     <use xlink:href="#DejaVuSans-48" transform="translate(68.609375 0)"/>
     <use xlink:href="#DejaVuSans-49" transform="translate(130.140625 0)"/>
     <use xlink:href="#DejaVuSans-52" transform="translate(165.34375 0)"/>
     <use xlink:href="#DejaVuSans-55" transform="translate(226.53125 0)"/>
     <use xlink:href="#DejaVuSans-48" transform="translate(265.4375 0)"/>
     <use xlink:href="#DejaVuSans-1d" transform="translate(326.96875 0)"/>
     <use xlink:href="#DejaVuSans-3" transform="translate(360.65625 0)"/>
     <use xlink:href="#DejaVuSans-57" transform="translate(392.4375 0)"/>
     <use xlink:href="#DejaVuSans-5a" transform="translate(431.640625 0)"/>
     <use xlink:href="#DejaVuSans-52" transform="translate(513.421875 0)"/>
     <use xlink:href="#DejaVuSans-3" transform="translate(574.609375 0)"/>
     <use xlink:href="#DejaVuSans-56" transform="translate(606.390625 0)"/>
     <use xlink:href="#DejaVuSans-5c" transform="translate(658.484375 0)"/>
     <use xlink:href="#DejaVuSans-50" transform="translate(717.671875 0)"/>
     <use xlink:href="#DejaVuSans-50" transform="translate(815.078125 0)"/>
     <use xlink:href="#DejaVuSans-48" transform="translate(912.484375 0)"/>
     <use xlink:href="#DejaVuSans-57" transform="translate(974.015625 0)"/>
     <use xlink:href="#DejaVuSans-55" transform="translate(1013.21875 0)"/>
     <use xlink:href="#DejaVuSans-4c" transform="translate(1054.328125 0)"/>
     <use xlink:href="#DejaVuSans-46" transform="translate(1082.109375 0)"/>
     <use xlink:href="#DejaVuSans-3" transform="translate(1137.09375 0)"/>
     <use xlink:href="#DejaVuSans-55" transform="translate(1168.875 0)"/>
     <use xlink:href="#DejaVuSans-52" transform="translate(1207.78125 0)"/>
     <use xlink:href="#DejaVuSans-58" transform="translate(1268.96875 0)"/>
     <use xlink:href="#DejaVuSans-57" transform="translate(1332.34375 0)"/>
     <use xlink:href="#DejaVuSans-48" transform="translate(1371.546875 0)"/>
     <use xlink:href="#DejaVuSans-56" transform="translate(1433.078125 0)"/>
    </g>
    <!-- equilibrium travel time = 1.50 -->
    <g transform="translate(95.803359 29.862363) scale(0.11 -0.11)">
     <defs>
      <path id="DejaVuSans-54" d="M 947 1747 
Q 947 1113 1208 752 
Q 1469 391 1925 391 
Q 2381 391 2643 752 
Q 2906 1113 2906 1747 
Q 2906 2381 2643 2742 
Q 2381 3103 1925 3103 
Q 1469 3103 1208 2742 
Q 947 2381 947 1747 
z
M 2906 525 
Q 2725 213 2448 61 
Q 2172 -91 1784 -91 
Q 1150 -91 751 415 
Q 353 922 353 1747 
Q 353 2572 751 3078 
Q 1150 3584 1784 3584 
Q 2172 3584 2448 3432 
Q 2725 3281 2906 2969 
L 2906 3500 
L 3481 3500 
L 3481 -1331 
L 2906 -1331 
L 2906 525 
z
" transform="scale(0.015625)"/>
      <path id="DejaVuSans-4f" d="M 603 4863 
L 1178 4863 
L 1178 0 
L 603 0 
L 603 4863 
z
" transform="scale(0.015625)"/>
      <path id="DejaVuSans-45" d="M 3116 1747 
Q 3116 2381 2855 2742 
Q 2594 3103 2138 3103 
Q 1681 3103 1420 2742 
Q 1159 2381 1159 1747 
Q 1159 1113 1420 752 
Q 1681 391 2138 391 
Q 2594 391 2855 752 
Q 3116 1113 3116 1747 
z
M 1159 2969 
Q 1341 3281 1617 3432 
Q 1894 3584 2278 3584 
Q 2916 3584 3314 3078 
Q 3713 2572 3713 1747 
Q 3713 922 3314 415 
Q 2916 -91 2278 -91 
Q 1894 -91 1617 61 
Q 1341 213 1159 525 
L 1159 0 
L 581 0 
L 581 4863 
L 1159 4863 
L 1159 2969 
z
" transform="scale(0.015625)"/>
      <path id="DejaVuSans-44" d="M 2194 1759 
Q 1497 1759 1228 1600 
Q 959 1441 959 1056 
Q 959 750 1161 570 
Q 1363 391 1709 391 
Q 2188 391 2477 730 
Q 2766 1069 2766 1631 
L 2766 1759 
L 2194 1759 
z
M 3341 1997 
L 3341 0 
L 2766 0 
L 2766 531 
Q 2569 213 2275 61 
Q 1981 -91 1556 -91 
Q 1019 -91 701 211 
Q 384 513 384 1019 
Q 384 1609 779 1909 
Q 1175 2209 1959 2209 
L 2766 2209 
L 2766 2266 
Q 2766 2663 2505 2880 
Q 2244 3097 1772 3097 
Q 1472 3097 1187 3025 
Q 903 2953 641 2809 
L 641 3341 
Q 956 3463 1253 3523 
Q 1550 3584 1831 3584 
Q 2591 3584 2966 3190 
Q 3341 2797 3341 1997 
z
" transform="scale(0.015625)"/>
      <path id="DejaVuSans-59" d="M 191 3500 
L 800 3500 
L 1894 563 
L 2988 3500 
L 3597 3500 
L 2284 0 
L 1503 0 
L 191 3500 
z
" transform="scale(0.015625)"/>
      <path id="DejaVuSans-11" d="M 684 794 
L 1344 794 
L 1344 0 
L 684 0 
L 684 794 
z
" transform="scale(0.015625)"/>
      <path id="DejaVuSans-18" d="M 691 4666 
L 3169 4666 
L 3169 4134 
L 1269 4134 
L 1269 2991 
Q 1406 3038 1543 3061 
Q 1681 3084 1819 3084 
Q 2600 3084 3056 2656 
Q 3513 2228 3513 1497 
Q 3513 744 3044 326 
Q 2575 -91 1722 -91 
Q 1428 -91 1123 -41 
Q 819 9 494 109 
L 494 744 
Q 775 591 1075 516 
Q 1375 441 1709 441 
Q 2250 441 2565 725 
Q 2881 1009 2881 1497 
Q 2881 1984 2565 2268 
Q 2250 2553 1709 2553 
Q 1456 2553 1204 2497 
Q 953 2441 691 2322 
L 691 4666 
z
" transform="scale(0.015625)"/>
      <path id="DejaVuSans-13" d="M 2034 4250 
Q 1547 4250 1301 3770 
Q 1056 3291 1056 2328 
Q 1056 1369 1301 889 
Q 1547 409 2034 409 
Q 2525 409 2770 889 
Q 3016 1369 3016 2328 
Q 3016 3291 2770 3770 
Q 2525 4250 2034 4250 
z
M 2034 4750 
Q 2819 4750 3233 4129 
Q 3647 3509 3647 2328 
Q 3647 1150 3233 529 
Q 2819 -91 2034 -91 
Q 1250 -91 836 529 
Q 422 1150 422 2328 
Q 422 3509 836 4129 
Q 1250 4750 2034 4750 
z
" transform="scale(0.015625)"/>
     </defs>
     <use xlink:href="#DejaVuSans-48"/>
     <use xlink:href="#DejaVuSans-54" transform="translate(61.53125 0)"/>
     <use xlink:href="#DejaVuSans-58" transform="translate(125.015625 0)"/>
     <use xlink:href="#DejaVuSans-4c" transform="translate(188.390625 0)"/>
     <use xlink:href="#DejaVuSans-4f" transform="translate(216.171875 0)"/>
     <use xlink:href="#DejaVuSans-4c" transform="translate(243.953125 0)"/>
     <use xlink:href="#DejaVuSans-45" transform="translate(271.734375 0)"/>
     <use xlink:href="#DejaVuSans-55" transform="translate(335.21875 0)"/>
     <use xlink:href="#DejaVuSans-4c" transform="translate(376.328125 0)"/>
     <use xlink:href="#DejaVuSans-58" transform="translate(404.109375 0)"/>
     <use xlink:href="#DejaVuSans-50" transform="translate(467.484375 0)"/>
     <use xlink:href="#DejaVuSans-3" transform="translate(564.890625 0)"/>
     <use xlink:href="#DejaVuSans-57" transform="translate(596.671875 0)"/>
     <use xlink:href="#DejaVuSans-55" transform="translate(635.875 0)"/>
     <use xlink:href="#DejaVuSans-44" transform="translate(676.984375 0)"/>
     <use xlink:href="#DejaVuSans-59" transform="translate(738.265625 0)"/>
     <use xlink:href="#DejaVuSans-48" transform="translate(797.453125 0)"/>
     <use xlink:href="#DejaVuSans-4f" transform="translate(858.984375 0)"/>
     <use xlink:href="#DejaVuSans-3" transform="translate(886.765625 0)"/>
     <use xlink:href="#DejaVuSans-57" transform="translate(918.546875 0)"/>
     <use xlink:href="#DejaVuSans-4c" transform="translate(957.75 0)"/>
     <use xlink:href="#DejaVuSans-50" transform="translate(985.53125 0)"/>
     <use xlink:href="#DejaVuSans-48" transform="translate(1082.9375 0)"/>
     <use xlink:href="#DejaVuSans-3" transform="translate(1144.46875 0)"/>
     <use xlink:href="#DejaVuSans-20" transform="translate(1176.25 0)"/>
     <use xlink:href="#DejaVuSans-3" transform="translate(1260.046875 0)"/>
     <use xlink:href="#DejaVuSans-14" transform="translate(1291.828125 0)"/>
     <use xlink:href="#DejaVuSans-11" transform="translate(1355.453125 0)"/>
     <use xlink:href="#DejaVuSans-18" transform="translate(1387.234375 0)"/>
     <use xlink:href="#DejaVuSans-13" transform="translate(1450.859375 0)"/>
    </g>
   </g>
   <g id="text_6">
    <!-- S -->
    <g transform="translate(51.63327 149.746459) scale(0.13 -0.13)">
     <defs>
      <path id="DejaVuSans-Bold-36" d="M 3834 4519 
L 3834 3531 
Q 3450 3703 3084 3790 
Q 2719 3878 2394 3878 
Q 1963 3878 1756 3759 
Q 1550 3641 1550 3391 
Q 1550 3203 1689 3098 
Q 1828 2994 2194 2919 
L 2706 2816 
Q 3484 2659 3812 2340 
Q 4141 2022 4141 1434 
Q 4141 663 3683 286 
Q 3225 -91 2284 -91 
Q 1841 -91 1394 -6 
Q 947 78 500 244 
L 500 1259 
Q 947 1022 1364 901 
Q 1781 781 2169 781 
Q 2563 781 2772 912 
Q 2981 1044 2981 1288 
Q 2981 1506 2839 1625 
Q 2697 1744 2272 1838 
L 1806 1941 
Q 1106 2091 782 2419 
Q 459 2747 459 3303 
Q 459 4000 909 4375 
Q 1359 4750 2203 4750 
Q 2588 4750 2994 4692 
Q 3400 4634 3834 4519 
z
" transform="scale(0.015625)"/>
     </defs>
     <use xlink:href="#DejaVuSans-Bold-36"/>
    </g>
   </g>
   <g id="text_7">
    <!-- B -->
    <g transform="translate(174.145781 88.353602) scale(0.13 -0.13)">
     <defs>
      <path id="DejaVuSans-Bold-25" d="M 2456 2859 
Q 2741 2859 2887 2984 
Q 3034 3109 3034 3353 
Q 3034 3594 2887 3720 
Q 2741 3847 2456 3847 
L 1791 3847 
L 1791 2859 
L 2456 2859 
z
M 2497 819 
Q 2859 819 3042 972 
Q 3225 1125 3225 1434 
Q 3225 1738 3044 1889 
Q 2863 2041 2497 2041 
L 1791 2041 
L 1791 819 
L 2497 819 
z
M 3616 2497 
Q 4003 2384 4215 2081 
Q 4428 1778 4428 1338 
Q 4428 663 3972 331 
Q 3516 0 2584 0 
L 588 0 
L 588 4666 
L 2394 4666 
Q 3366 4666 3802 4372 
Q 4238 4078 4238 3431 
Q 4238 3091 4078 2852 
Q 3919 2613 3616 2497 
z
" transform="scale(0.015625)"/>
     </defs>
     <use xlink:href="#DejaVuSans-Bold-25"/>
    </g>
   </g>
   <g id="text_8">
    <!-- C -->
    <g transform="translate(174.329609 211.139316) scale(0.13 -0.13)">
     <defs>
      <path id="DejaVuSans-Bold-26" d="M 4288 256 
Q 3956 84 3597 -3 
Q 3238 -91 2847 -91 
Q 1681 -91 1000 561 
Q 319 1213 319 2328 
Q 319 3447 1000 4098 
Q 1681 4750 2847 4750 
Q 3238 4750 3597 4662 
Q 3956 4575 4288 4403 
L 4288 3438 
Q 3953 3666 3628 3772 
Q 3303 3878 2944 3878 
Q 2300 3878 1931 3465 
Q 1563 3053 1563 2328 
Q 1563 1606 1931 1193 
Q 2300 781 2944 781 
Q 3303 781 3628 887 
Q 3953 994 4288 1222 
L 4288 256 
z
" transform="scale(0.015625)"/>
     </defs>
     <use xlink:href="#DejaVuSans-Bold-26"/>
    </g>
   </g>
   <g id="text_9">
    <!-- E -->
    <g transform="translate(297.445402 149.746459) scale(0.13 -0.13)">
     <defs>
      <path id="DejaVuSans-Bold-28" d="M 588 4666 
L 3834 4666 
L 3834 3756 
L 1791 3756 
L 1791 2888 
L 3713 2888 
L 3713 1978 
L 1791 1978 
L 1791 909 
L 3903 909 
L 3903 0 
L 588 0 
L 588 4666 
z
" transform="scale(0.015625)"/>
     </defs>
     <use xlink:href="#DejaVuSans-Bold-28"/>
    </g>
   </g>
  </g>
  <g id="axes_2">
   <g id="patch_10">
    <path d="M 410.914286 159.875935 
C 414.496232 159.875935 417.931954 158.452812 420.464773 155.919993 
C 422.997592 153.387175 424.420714 149.951453 424.420714 146.369506 
C 424.420714 142.787559 422.997592 139.351838 420.464773 136.819019 
C 417.931954 134.2862 414.496232 132.863078 410.914286 132.863078 
C 407.332339 132.863078 403.896617 134.2862 401.363798 136.819019 
C 398.83098 139.351838 397.407857 142.787559 397.407857 146.369506 
C 397.407857 149.951453 398.83098 153.387175 401.363798 155.919993 
C 403.896617 158.452812 407.332339 159.875935 410.914286 159.875935 
z
" clip-path="url(#pec51761222)" style="fill: #eef3fb; stroke: #1f5fa8; stroke-width: 1.6; stroke-linejoin: miter"/>
   </g>
   <g id="patch_11">
    <path d="M 533.7 98.483078 
C 537.281947 98.483078 540.717668 97.059955 543.250487 94.527136 
C 545.783306 91.994317 547.206429 88.558596 547.206429 84.976649 
C 547.206429 81.394702 545.783306 77.958981 543.250487 75.426162 
C 540.717668 72.893343 537.281947 71.47022 533.7 71.47022 
C 530.118053 71.47022 526.682332 72.893343 524.149513 75.426162 
C 521.616694 77.958981 520.193571 81.394702 520.193571 84.976649 
C 520.193571 88.558596 521.616694 91.994317 524.149513 94.527136 
C 526.682332 97.059955 530.118053 98.483078 533.7 98.483078 
z
" clip-path="url(#pec51761222)" style="fill: #eef3fb; stroke: #1f5fa8; stroke-width: 1.6; stroke-linejoin: miter"/>
   </g>
   <g id="patch_12">
    <path d="M 533.7 221.268792 
C 537.281947 221.268792 540.717668 219.845669 543.250487 217.312851 
C 545.783306 214.780032 547.206429 211.34431 547.206429 207.762363 
C 547.206429 204.180417 545.783306 200.744695 543.250487 198.211876 
C 540.717668 195.679057 537.281947 194.255935 533.7 194.255935 
C 530.118053 194.255935 526.682332 195.679057 524.149513 198.211876 
C 521.616694 200.744695 520.193571 204.180417 520.193571 207.762363 
C 520.193571 211.34431 521.616694 214.780032 524.149513 217.312851 
C 526.682332 219.845669 530.118053 221.268792 533.7 221.268792 
z
" clip-path="url(#pec51761222)" style="fill: #eef3fb; stroke: #1f5fa8; stroke-width: 1.6; stroke-linejoin: miter"/>
   </g>
   <g id="patch_13">
    <path d="M 656.485714 159.875935 
C 660.067661 159.875935 663.503383 158.452812 666.036202 155.919993 
C 668.56902 153.387175 669.992143 149.951453 669.992143 146.369506 
C 669.992143 142.787559 668.56902 139.351838 666.036202 136.819019 
C 663.503383 134.2862 660.067661 132.863078 656.485714 132.863078 
C 652.903768 132.863078 649.468046 134.2862 646.935227 136.819019 
C 644.402408 139.351838 642.979286 142.787559 642.979286 146.369506 
C 642.979286 149.951453 644.402408 153.387175 646.935227 155.919993 
C 649.468046 158.452812 652.903768 159.875935 656.485714 159.875935 
z
" clip-path="url(#pec51761222)" style="fill: #eef3fb; stroke: #1f5fa8; stroke-width: 1.6; stroke-linejoin: miter"/>
   </g>
   <g id="patch_14">
    <path d="M 423.433422 140.109938 
Q 472.306001 115.673649 519.478579 92.08736 
" style="fill: none; stroke: #333333; stroke-width: 1.7; stroke-linecap: round"/>
    <path d="M 515.006443 92.08736 
L 519.478579 92.08736 
L 516.795297 95.665068 
" style="fill: none; stroke: #333333; stroke-width: 1.7; stroke-linecap: round"/>
   </g>
   <g id="text_10">
    <!-- cost = x -->
    <g style="fill: #333333" transform="translate(452.641401 113.390851) scale(0.095 -0.095)">
     <use xlink:href="#DejaVuSans-46"/>
     <use xlink:href="#DejaVuSans-52" transform="translate(54.984375 0)"/>
     <use xlink:href="#DejaVuSans-56" transform="translate(116.171875 0)"/>
     <use xlink:href="#DejaVuSans-57" transform="translate(168.265625 0)"/>
     <use xlink:href="#DejaVuSans-3" transform="translate(207.46875 0)"/>
     <use xlink:href="#DejaVuSans-20" transform="translate(239.25 0)"/>
     <use xlink:href="#DejaVuSans-3" transform="translate(323.046875 0)"/>
     <use xlink:href="#DejaVuSans-5b" transform="translate(354.828125 0)"/>
    </g>
   </g>
   <g id="patch_15">
    <path d="M 423.433422 152.629074 
Q 472.306001 177.065364 519.478579 200.651653 
" style="fill: none; stroke: #333333; stroke-width: 1.7; stroke-linecap: round"/>
    <path d="M 516.795297 197.073944 
L 519.478579 200.651653 
L 515.006443 200.651653 
" style="fill: none; stroke: #333333; stroke-width: 1.7; stroke-linecap: round"/>
   </g>
   <g id="text_11">
    <!-- cost = 1 -->
    <g style="fill: #333333" transform="translate(452.430619 184.283708) scale(0.095 -0.095)">
     <use xlink:href="#DejaVuSans-46"/>
     <use xlink:href="#DejaVuSans-52" transform="translate(54.984375 0)"/>
     <use xlink:href="#DejaVuSans-56" transform="translate(116.171875 0)"/>
     <use xlink:href="#DejaVuSans-57" transform="translate(168.265625 0)"/>
     <use xlink:href="#DejaVuSans-3" transform="translate(207.46875 0)"/>
     <use xlink:href="#DejaVuSans-20" transform="translate(239.25 0)"/>
     <use xlink:href="#DejaVuSans-3" transform="translate(323.046875 0)"/>
     <use xlink:href="#DejaVuSans-14" transform="translate(354.828125 0)"/>
    </g>
   </g>
   <g id="patch_16">
    <path d="M 546.219137 91.236217 
Q 595.091715 115.672506 642.264293 139.258795 
" style="fill: none; stroke: #333333; stroke-width: 1.7; stroke-linecap: round"/>
    <path d="M 639.581011 135.681087 
L 642.264293 139.258795 
L 637.792157 139.258795 
" style="fill: none; stroke: #333333; stroke-width: 1.7; stroke-linecap: round"/>
   </g>
   <g id="text_12">
    <!-- cost = 1 -->
    <g style="fill: #333333" transform="translate(575.216334 122.890851) scale(0.095 -0.095)">
     <use xlink:href="#DejaVuSans-46"/>
     <use xlink:href="#DejaVuSans-52" transform="translate(54.984375 0)"/>
     <use xlink:href="#DejaVuSans-56" transform="translate(116.171875 0)"/>
     <use xlink:href="#DejaVuSans-57" transform="translate(168.265625 0)"/>
     <use xlink:href="#DejaVuSans-3" transform="translate(207.46875 0)"/>
     <use xlink:href="#DejaVuSans-20" transform="translate(239.25 0)"/>
     <use xlink:href="#DejaVuSans-3" transform="translate(323.046875 0)"/>
     <use xlink:href="#DejaVuSans-14" transform="translate(354.828125 0)"/>
    </g>
   </g>
   <g id="patch_17">
    <path d="M 546.219137 201.502795 
Q 595.091715 177.066506 642.264293 153.480217 
" style="fill: none; stroke: #333333; stroke-width: 1.7; stroke-linecap: round"/>
    <path d="M 637.792157 153.480217 
L 642.264293 153.480217 
L 639.581011 157.057926 
" style="fill: none; stroke: #333333; stroke-width: 1.7; stroke-linecap: round"/>
   </g>
   <g id="text_13">
    <!-- cost = x -->
    <g style="fill: #333333" transform="translate(575.427115 174.783708) scale(0.095 -0.095)">
     <use xlink:href="#DejaVuSans-46"/>
     <use xlink:href="#DejaVuSans-52" transform="translate(54.984375 0)"/>
     <use xlink:href="#DejaVuSans-56" transform="translate(116.171875 0)"/>
     <use xlink:href="#DejaVuSans-57" transform="translate(168.265625 0)"/>
     <use xlink:href="#DejaVuSans-3" transform="translate(207.46875 0)"/>
     <use xlink:href="#DejaVuSans-20" transform="translate(239.25 0)"/>
     <use xlink:href="#DejaVuSans-3" transform="translate(323.046875 0)"/>
     <use xlink:href="#DejaVuSans-5b" transform="translate(354.828125 0)"/>
    </g>
   </g>
   <g id="patch_18">
    <path d="M 533.7 98.979646 
Q 533.7 146.371238 533.7 191.862172 
" style="fill: none; stroke-dasharray: 6.29,2.72; stroke-dashoffset: 0; stroke: #c0392b; stroke-width: 1.7; stroke-linecap: round"/>
    <path d="M 535.7 187.862172 
L 533.7 191.862172 
L 531.7 187.862172 
" style="fill: none; stroke-dasharray: 6.29,2.72; stroke-dashoffset: 0; stroke: #c0392b; stroke-width: 1.7; stroke-linecap: round"/>
   </g>
   <g id="text_14">
    <!-- cost = 0 (new) -->
    <g style="fill: #c0392b" transform="translate(518.435441 153.58728) scale(0.095 -0.095)">
     <defs>
      <path id="DejaVuSans-b" d="M 1984 4856 
Q 1566 4138 1362 3434 
Q 1159 2731 1159 2009 
Q 1159 1288 1364 580 
Q 1569 -128 1984 -844 
L 1484 -844 
Q 1016 -109 783 600 
Q 550 1309 550 2009 
Q 550 2706 781 3412 
Q 1013 4119 1484 4856 
L 1984 4856 
z
" transform="scale(0.015625)"/>
      <path id="DejaVuSans-51" d="M 3513 2113 
L 3513 0 
L 2938 0 
L 2938 2094 
Q 2938 2591 2744 2837 
Q 2550 3084 2163 3084 
Q 1697 3084 1428 2787 
Q 1159 2491 1159 1978 
L 1159 0 
L 581 0 
L 581 3500 
L 1159 3500 
L 1159 2956 
Q 1366 3272 1645 3428 
Q 1925 3584 2291 3584 
Q 2894 3584 3203 3211 
Q 3513 2838 3513 2113 
z
" transform="scale(0.015625)"/>
      <path id="DejaVuSans-c" d="M 513 4856 
L 1013 4856 
Q 1481 4119 1714 3412 
Q 1947 2706 1947 2009 
Q 1947 1309 1714 600 
Q 1481 -109 1013 -844 
L 513 -844 
Q 928 -128 1133 580 
Q 1338 1288 1338 2009 
Q 1338 2731 1133 3434 
Q 928 4138 513 4856 
z
" transform="scale(0.015625)"/>
     </defs>
     <use xlink:href="#DejaVuSans-46"/>
     <use xlink:href="#DejaVuSans-52" transform="translate(54.984375 0)"/>
     <use xlink:href="#DejaVuSans-56" transform="translate(116.171875 0)"/>
     <use xlink:href="#DejaVuSans-57" transform="translate(168.265625 0)"/>
     <use xlink:href="#DejaVuSans-3" transform="translate(207.46875 0)"/>
     <use xlink:href="#DejaVuSans-20" transform="translate(239.25 0)"/>
     <use xlink:href="#DejaVuSans-3" transform="translate(323.046875 0)"/>
     <use xlink:href="#DejaVuSans-13" transform="translate(354.828125 0)"/>
     <use xlink:href="#DejaVuSans-3" transform="translate(418.453125 0)"/>
     <use xlink:href="#DejaVuSans-b" transform="translate(450.234375 0)"/>
     <use xlink:href="#DejaVuSans-51" transform="translate(489.25 0)"/>
     <use xlink:href="#DejaVuSans-48" transform="translate(552.625 0)"/>
     <use xlink:href="#DejaVuSans-5a" transform="translate(614.15625 0)"/>
     <use xlink:href="#DejaVuSans-c" transform="translate(695.9375 0)"/>
    </g>
   </g>
   <g id="text_15">
    <!-- After: B-&gt;C shortcut added -->
    <g transform="translate(459.255781 16.659355) scale(0.11 -0.11)">
     <defs>
      <path id="DejaVuSans-24" d="M 2188 4044 
L 1331 1722 
L 3047 1722 
L 2188 4044 
z
M 1831 4666 
L 2547 4666 
L 4325 0 
L 3669 0 
L 3244 1197 
L 1141 1197 
L 716 0 
L 50 0 
L 1831 4666 
z
" transform="scale(0.015625)"/>
      <path id="DejaVuSans-10" d="M 313 2009 
L 1997 2009 
L 1997 1497 
L 313 1497 
L 313 2009 
z
" transform="scale(0.015625)"/>
      <path id="DejaVuSans-21" d="M 678 3150 
L 678 3719 
L 4684 2266 
L 4684 1747 
L 678 294 
L 678 863 
L 3897 2003 
L 678 3150 
z
" transform="scale(0.015625)"/>
      <path id="DejaVuSans-26" d="M 4122 4306 
L 4122 3641 
Q 3803 3938 3442 4084 
Q 3081 4231 2675 4231 
Q 1875 4231 1450 3742 
Q 1025 3253 1025 2328 
Q 1025 1406 1450 917 
Q 1875 428 2675 428 
Q 3081 428 3442 575 
Q 3803 722 4122 1019 
L 4122 359 
Q 3791 134 3420 21 
Q 3050 -91 2638 -91 
Q 1578 -91 968 557 
Q 359 1206 359 2328 
Q 359 3453 968 4101 
Q 1578 4750 2638 4750 
Q 3056 4750 3426 4639 
Q 3797 4528 4122 4306 
z
" transform="scale(0.015625)"/>
      <path id="DejaVuSans-4b" d="M 3513 2113 
L 3513 0 
L 2938 0 
L 2938 2094 
Q 2938 2591 2744 2837 
Q 2550 3084 2163 3084 
Q 1697 3084 1428 2787 
Q 1159 2491 1159 1978 
L 1159 0 
L 581 0 
L 581 4863 
L 1159 4863 
L 1159 2956 
Q 1366 3272 1645 3428 
Q 1925 3584 2291 3584 
Q 2894 3584 3203 3211 
Q 3513 2838 3513 2113 
z
" transform="scale(0.015625)"/>
      <path id="DejaVuSans-47" d="M 2906 2969 
L 2906 4863 
L 3481 4863 
L 3481 0 
L 2906 0 
L 2906 525 
Q 2725 213 2448 61 
Q 2172 -91 1784 -91 
Q 1150 -91 751 415 
Q 353 922 353 1747 
Q 353 2572 751 3078 
Q 1150 3584 1784 3584 
Q 2172 3584 2448 3432 
Q 2725 3281 2906 2969 
z
M 947 1747 
Q 947 1113 1208 752 
Q 1469 391 1925 391 
Q 2381 391 2643 752 
Q 2906 1113 2906 1747 
Q 2906 2381 2643 2742 
Q 2381 3103 1925 3103 
Q 1469 3103 1208 2742 
Q 947 2381 947 1747 
z
" transform="scale(0.015625)"/>
     </defs>
     <use xlink:href="#DejaVuSans-24"/>
     <use xlink:href="#DejaVuSans-49" transform="translate(64.84375 0)"/>
     <use xlink:href="#DejaVuSans-57" transform="translate(98.296875 0)"/>
     <use xlink:href="#DejaVuSans-48" transform="translate(137.5 0)"/>
     <use xlink:href="#DejaVuSans-55" transform="translate(199.03125 0)"/>
     <use xlink:href="#DejaVuSans-1d" transform="translate(238.390625 0)"/>
     <use xlink:href="#DejaVuSans-3" transform="translate(272.078125 0)"/>
     <use xlink:href="#DejaVuSans-25" transform="translate(303.859375 0)"/>
     <use xlink:href="#DejaVuSans-10" transform="translate(372.46875 0)"/>
     <use xlink:href="#DejaVuSans-21" transform="translate(408.546875 0)"/>
     <use xlink:href="#DejaVuSans-26" transform="translate(492.34375 0)"/>
     <use xlink:href="#DejaVuSans-3" transform="translate(562.171875 0)"/>
     <use xlink:href="#DejaVuSans-56" transform="translate(593.953125 0)"/>
     <use xlink:href="#DejaVuSans-4b" transform="translate(646.046875 0)"/>
     <use xlink:href="#DejaVuSans-52" transform="translate(709.421875 0)"/>
     <use xlink:href="#DejaVuSans-55" transform="translate(770.609375 0)"/>
     <use xlink:href="#DejaVuSans-57" transform="translate(811.71875 0)"/>
     <use xlink:href="#DejaVuSans-46" transform="translate(850.921875 0)"/>
     <use xlink:href="#DejaVuSans-58" transform="translate(905.90625 0)"/>
     <use xlink:href="#DejaVuSans-57" transform="translate(969.28125 0)"/>
     <use xlink:href="#DejaVuSans-3" transform="translate(1008.484375 0)"/>
     <use xlink:href="#DejaVuSans-44" transform="translate(1040.265625 0)"/>
     <use xlink:href="#DejaVuSans-47" transform="translate(1101.546875 0)"/>
     <use xlink:href="#DejaVuSans-47" transform="translate(1165.03125 0)"/>
     <use xlink:href="#DejaVuSans-48" transform="translate(1228.515625 0)"/>
     <use xlink:href="#DejaVuSans-47" transform="translate(1290.046875 0)"/>
    </g>
    <!-- equilibrium travel time = 2.00 -->
    <g transform="translate(450.403359 29.862363) scale(0.11 -0.11)">
     <defs>
      <path id="DejaVuSans-15" d="M 1228 531 
L 3431 531 
L 3431 0 
L 469 0 
L 469 531 
Q 828 903 1448 1529 
Q 2069 2156 2228 2338 
Q 2531 2678 2651 2914 
Q 2772 3150 2772 3378 
Q 2772 3750 2511 3984 
Q 2250 4219 1831 4219 
Q 1534 4219 1204 4116 
Q 875 4013 500 3803 
L 500 4441 
Q 881 4594 1212 4672 
Q 1544 4750 1819 4750 
Q 2544 4750 2975 4387 
Q 3406 4025 3406 3419 
Q 3406 3131 3298 2873 
Q 3191 2616 2906 2266 
Q 2828 2175 2409 1742 
Q 1991 1309 1228 531 
z
" transform="scale(0.015625)"/>
     </defs>
     <use xlink:href="#DejaVuSans-48"/>
     <use xlink:href="#DejaVuSans-54" transform="translate(61.53125 0)"/>
     <use xlink:href="#DejaVuSans-58" transform="translate(125.015625 0)"/>
     <use xlink:href="#DejaVuSans-4c" transform="translate(188.390625 0)"/>
     <use xlink:href="#DejaVuSans-4f" transform="translate(216.171875 0)"/>
     <use xlink:href="#DejaVuSans-4c" transform="translate(243.953125 0)"/>
     <use xlink:href="#DejaVuSans-45" transform="translate(271.734375 0)"/>
     <use xlink:href="#DejaVuSans-55" transform="translate(335.21875 0)"/>
     <use xlink:href="#DejaVuSans-4c" transform="translate(376.328125 0)"/>
     <use xlink:href="#DejaVuSans-58" transform="translate(404.109375 0)"/>
     <use xlink:href="#DejaVuSans-50" transform="translate(467.484375 0)"/>
     <use xlink:href="#DejaVuSans-3" transform="translate(564.890625 0)"/>
     <use xlink:href="#DejaVuSans-57" transform="translate(596.671875 0)"/>
     <use xlink:href="#DejaVuSans-55" transform="translate(635.875 0)"/>
     <use xlink:href="#DejaVuSans-44" transform="translate(676.984375 0)"/>
     <use xlink:href="#DejaVuSans-59" transform="translate(738.265625 0)"/>
     <use xlink:href="#DejaVuSans-48" transform="translate(797.453125 0)"/>
     <use xlink:href="#DejaVuSans-4f" transform="translate(858.984375 0)"/>
     <use xlink:href="#DejaVuSans-3" transform="translate(886.765625 0)"/>
     <use xlink:href="#DejaVuSans-57" transform="translate(918.546875 0)"/>
     <use xlink:href="#DejaVuSans-4c" transform="translate(957.75 0)"/>
     <use xlink:href="#DejaVuSans-50" transform="translate(985.53125 0)"/>
     <use xlink:href="#DejaVuSans-48" transform="translate(1082.9375 0)"/>
     <use xlink:href="#DejaVuSans-3" transform="translate(1144.46875 0)"/>
     <use xlink:href="#DejaVuSans-20" transform="translate(1176.25 0)"/>
     <use xlink:href="#DejaVuSans-3" transform="translate(1260.046875 0)"/>
     <use xlink:href="#DejaVuSans-15" transform="translate(1291.828125 0)"/>
     <use xlink:href="#DejaVuSans-11" transform="translate(1355.453125 0)"/>
     <use xlink:href="#DejaVuSans-13" transform="translate(1387.234375 0)"/>
     <use xlink:href="#DejaVuSans-13" transform="translate(1450.859375 0)"/>
    </g>
   </g>
   <g id="text_16">
    <!-- S -->
    <g transform="translate(406.23327 149.746459) scale(0.13 -0.13)">
     <use xlink:href="#DejaVuSans-Bold-36"/>
    </g>
   </g>
   <g id="text_17">
    <!-- B -->
    <g transform="translate(528.745781 88.353602) scale(0.13 -0.13)">
     <use xlink:href="#DejaVuSans-Bold-25"/>
    </g>
   </g>
   <g id="text_18">
    <!-- C -->
    <g transform="translate(528.929609 211.139316) scale(0.13 -0.13)">
     <use xlink:href="#DejaVuSans-Bold-26"/>
    </g>
   </g>
   <g id="text_19">
    <!-- E -->
    <g transform="translate(652.045402 149.746459) scale(0.13 -0.13)">
     <use xlink:href="#DejaVuSans-Bold-28"/>
    </g>
   </g>
  </g>
 </g>
 <defs>
  <clipPath id="p223fede693">
   <rect x="7.2" y="35.862363" width="343.8" height="221.014286"/>
  </clipPath>
  <clipPath id="pec51761222">
   <rect x="361.8" y="35.862363" width="343.8" height="221.014286"/>
  </clipPath>
 </defs>
</svg>
