<?xml version="1.0" encoding="utf-8" standalone="no"?>
<!DOCTYPE svg PUBLIC "-//W3C//DTD SVG 1.1//EN"
  "http://www.w3.org/Graphics/SVG/1.1/DTD/svg11.dtd">
<svg xmlns:xlink="http://www.w3.org/1999/xlink" width="596.053pt" height="372.806958pt" viewBox="0 0 596.053 372.806958" xmlns="http://www.w3.org/2000/svg" version="1.1">
 <metadata>
  <rdf:RDF xmlns:dc="http://purl.org/dc/elements/1.1/" xmlns:cc="http://creativecommons.org/ns#" xmlns:rdf="http://www.w3.org/1999/02/22-rdf-syntax-ns#">
   <cc:Work>
    <dc:type rdf:resource="http://purl.org/dc/dcmitype/StillImage"/>
    <dc:date>2026-07-02T00:36:04.001539</dc:date>
    <dc:format>image/svg+xml</dc:format>
    <dc:creator>
     <cc:Agent>
      <dc:title>Matplotlib v3.11.0, https://matplotlib.org/</dc:title>
     </cc:Agent>
    </dc:creator>
   </cc:Work>
  </rdf:RDF>
 </metadata>
 <defs>
  <style type="text/css">*{stroke-linejoin: round; stroke-linecap: butt}</style>
 </defs>
 <g id="figure_1">
  <g id="patch_1">
   <path d="M 0 372.806958 
L 596.053 372.806958 
L 596.053 0 
L 0 0 
z
" style="fill: #ffffff"/>
  </g>
  <g id="axes_1">
   <g id="patch_2">
    <path d="M 175.233089 184.648247 
L 369.117422 184.648247 
L 369.117422 81.243269 
L 175.233089 81.243269 
z
" clip-path="url(#pe920599839)" style="fill: #f7f7f2; stroke: #000000; stroke-width: 1.6; stroke-linejoin: miter"/>
   </g>
   <g id="patch_3">
    <path d="M 369.117422 184.648247 
L 563.001756 184.648247 
L 563.001756 81.243269 
L 369.117422 81.243269 
z
" clip-path="url(#pe920599839)" style="fill: #f7f7f2; stroke: #000000; stroke-width: 1.6; stroke-linejoin: miter"/>
   </g>
   <g id="patch_4">
    <path d="M 175.233089 288.053224 
L 369.117422 288.053224 
L 369.117422 184.648247 
L 175.233089 184.648247 
z
" clip-path="url(#pe920599839)" style="fill: #f7f7f2; stroke: #000000; stroke-width: 1.6; stroke-linejoin: miter"/>
   </g>
   <g id="patch_5">
    <path d="M 369.117422 288.053224 
L 563.001756 288.053224 
L 563.001756 184.648247 
L 369.117422 184.648247 
z
" clip-path="url(#pe920599839)" style="fill: #f7f7f2; stroke: #000000; stroke-width: 1.6; stroke-linejoin: miter"/>
   </g>
   <g id="patch_6">
    <path d="M 272.175256 92.936503 
Q 272.175256 184.64759 272.175256 273.899002 
" clip-path="url(#pe920599839)" style="fill: none; stroke-dasharray: 8.14,3.52; stroke-dashoffset: 0; stroke: #8a1f1f; stroke-width: 2.2; stroke-linecap: round"/>
    <path d="M 276.175256 265.899002 
L 272.175256 273.899002 
L 268.175256 265.899002 
z
" clip-path="url(#pe920599839)" style="fill: #8a1f1f; stroke-dasharray: 8.14,3.52; stroke-dashoffset: 0; stroke: #8a1f1f; stroke-width: 2.2; stroke-linecap: round"/>
   </g>
   <g id="patch_7">
    <path d="M 466.059589 92.936503 
Q 466.059589 184.64759 466.059589 273.899002 
" clip-path="url(#pe920599839)" style="fill: none; stroke-dasharray: 8.14,3.52; stroke-dashoffset: 0; stroke: #8a1f1f; stroke-width: 2.2; stroke-linecap: round"/>
    <path d="M 470.059589 265.899002 
L 466.059589 273.899002 
L 462.059589 265.899002 
z
" clip-path="url(#pe920599839)" style="fill: #8a1f1f; stroke-dasharray: 8.14,3.52; stroke-dashoffset: 0; stroke: #8a1f1f; stroke-width: 2.2; stroke-linecap: round"/>
   </g>
   <g id="patch_8">
    <path d="M 193.320657 97.93859 
Q 331.362361 136.840373 383.626337 267.753075 
" clip-path="url(#pe920599839)" style="fill: none; stroke: #1a3a6b; stroke-width: 2.2; stroke-linecap: round"/>
    <path d="M 384.375054 258.840196 
L 383.626337 267.753075 
L 376.945263 261.806374 
z
" clip-path="url(#pe920599839)" style="fill: #1a3a6b; stroke: #1a3a6b; stroke-width: 2.2; stroke-linecap: round"/>
   </g>
   <g id="text_1">
    <!-- $1,000,000 -->
    <g transform="translate(224.730724 136.842828) scale(0.15 -0.15)">
     <defs>
      <path id="DejaVuSans-Bold-7" d="M 2484 -941 
L 1978 -941 
L 1975 0 
Q 1584 16 1218 87 
Q 853 159 506 288 
L 506 1106 
Q 866 922 1233 823 
Q 1600 725 1978 713 
L 1978 1684 
L 1875 1703 
Q 1128 1834 814 2115 
Q 500 2397 500 2925 
Q 500 3484 883 3798 
Q 1266 4113 1975 4141 
L 1978 4863 
L 2484 4863 
L 2484 4153 
Q 2797 4128 3109 4075 
Q 3422 4022 3738 3938 
L 3738 3144 
Q 3425 3275 3112 3348 
Q 2800 3422 2484 3438 
L 2484 2541 
L 2584 2522 
Q 3378 2397 3698 2105 
Q 4019 1813 4019 1241 
Q 4019 666 3637 358 
Q 3256 50 2484 6 
L 2484 -941 
z
M 1978 2613 
L 1978 3428 
Q 1756 3416 1623 3308 
Q 1491 3200 1491 3034 
Q 1491 2850 1612 2745 
Q 1734 2641 1978 2613 
z
M 2484 1594 
L 2484 725 
Q 2756 728 2892 831 
Q 3028 934 3028 1141 
Q 3028 1353 2903 1458 
Q 2778 1563 2484 1594 
z
" transform="scale(0.015625)"/>
      <path id="DejaVuSans-Bold-14" d="M 750 831 
L 1813 831 
L 1813 3847 
L 722 3622 
L 722 4441 
L 1806 4666 
L 2950 4666 
L 2950 831 
L 4013 831 
L 4013 0 
L 750 0 
L 750 831 
z
" transform="scale(0.015625)"/>
      <path id="DejaVuSans-Bold-f" d="M 653 1209 
L 1778 1209 
L 1778 256 
L 1006 -909 
L 341 -909 
L 653 256 
L 653 1209 
z
" transform="scale(0.015625)"/>
      <path id="DejaVuSans-Bold-13" d="M 2944 2338 
Q 2944 3213 2780 3570 
Q 2616 3928 2228 3928 
Q 1841 3928 1675 3570 
Q 1509 3213 1509 2338 
Q 1509 1453 1675 1090 
Q 1841 728 2228 728 
Q 2613 728 2778 1090 
Q 2944 1453 2944 2338 
z
M 4147 2328 
Q 4147 1169 3647 539 
Q 3147 -91 2228 -91 
Q 1306 -91 806 539 
Q 306 1169 306 2328 
Q 306 3491 806 4120 
Q 1306 4750 2228 4750 
Q 3147 4750 3647 4120 
Q 4147 3491 4147 2328 
z
" transform="scale(0.015625)"/>
     </defs>
     <use xlink:href="#DejaVuSans-Bold-7"/>
     <use xlink:href="#DejaVuSans-Bold-14" transform="translate(69.578125 0)"/>
     <use xlink:href="#DejaVuSans-Bold-f" transform="translate(139.15625 0)"/>
     <use xlink:href="#DejaVuSans-Bold-13" transform="translate(177.140625 0)"/>
     <use xlink:href="#DejaVuSans-Bold-13" transform="translate(246.71875 0)"/>
     <use xlink:href="#DejaVuSans-Bold-13" transform="translate(316.296875 0)"/>
     <use xlink:href="#DejaVuSans-Bold-f" transform="translate(385.875 0)"/>
     <use xlink:href="#DejaVuSans-Bold-13" transform="translate(423.859375 0)"/>
     <use xlink:href="#DejaVuSans-Bold-13" transform="translate(493.4375 0)"/>
     <use xlink:href="#DejaVuSans-Bold-13" transform="translate(563.015625 0)"/>
    </g>
   </g>
   <g id="text_2">
    <!-- $0 -->
    <g transform="translate(455.62287 136.842828) scale(0.15 -0.15)">
     <use xlink:href="#DejaVuSans-Bold-7"/>
     <use xlink:href="#DejaVuSans-Bold-13" transform="translate(69.578125 0)"/>
    </g>
   </g>
   <g id="text_3">
    <!-- $1,001,000 -->
    <g transform="translate(224.730724 240.247806) scale(0.15 -0.15)">
     <use xlink:href="#DejaVuSans-Bold-7"/>
     <use xlink:href="#DejaVuSans-Bold-14" transform="translate(69.578125 0)"/>
     <use xlink:href="#DejaVuSans-Bold-f" transform="translate(139.15625 0)"/>
     <use xlink:href="#DejaVuSans-Bold-13" transform="translate(177.140625 0)"/>
     <use xlink:href="#DejaVuSans-Bold-13" transform="translate(246.71875 0)"/>
     <use xlink:href="#DejaVuSans-Bold-14" transform="translate(316.296875 0)"/>
     <use xlink:href="#DejaVuSans-Bold-f" transform="translate(385.875 0)"/>
     <use xlink:href="#DejaVuSans-Bold-13" transform="translate(423.859375 0)"/>
     <use xlink:href="#DejaVuSans-Bold-13" transform="translate(493.4375 0)"/>
     <use xlink:href="#DejaVuSans-Bold-13" transform="translate(563.015625 0)"/>
    </g>
   </g>
   <g id="text_4">
    <!-- $1,000 -->
    <g transform="translate(437.118964 240.247806) scale(0.15 -0.15)">
     <use xlink:href="#DejaVuSans-Bold-7"/>
     <use xlink:href="#DejaVuSans-Bold-14" transform="translate(69.578125 0)"/>
     <use xlink:href="#DejaVuSans-Bold-f" transform="translate(139.15625 0)"/>
     <use xlink:href="#DejaVuSans-Bold-13" transform="translate(177.140625 0)"/>
     <use xlink:href="#DejaVuSans-Bold-13" transform="translate(246.71875 0)"/>
     <use xlink:href="#DejaVuSans-Bold-13" transform="translate(316.296875 0)"/>
    </g>
   </g>
   <g id="text_5">
    <!-- You: one-box -->
    <g transform="translate(95.052935 129.202105) scale(0.11 -0.11)">
     <defs>
      <path id="DejaVuSans-3c" d="M -13 4666 
L 666 4666 
L 1959 2747 
L 3244 4666 
L 3922 4666 
L 2272 2222 
L 2272 0 
L 1638 0 
L 1638 2222 
L -13 4666 
z
" transform="scale(0.015625)"/>
      <path id="DejaVuSans-52" d="M 1959 3097 
Q 1497 3097 1228 2736 
Q 959 2375 959 1747 
Q 959 1119 1226 758 
Q 1494 397 1959 397 
Q 2419 397 2687 759 
Q 2956 1122 2956 1747 
Q 2956 2369 2687 2733 
Q 2419 3097 1959 3097 
z
M 1959 3584 
Q 2709 3584 3137 3096 
Q 3566 2609 3566 1747 
Q 3566 888 3137 398 
Q 2709 -91 1959 -91 
Q 1206 -91 779 398 
Q 353 888 353 1747 
Q 353 2609 779 3096 
Q 1206 3584 1959 3584 
z
" transform="scale(0.015625)"/>
      <path id="DejaVuSans-58" d="M 544 1381 
L 544 3500 
L 1119 3500 
L 1119 1403 
Q 1119 906 1312 657 
Q 1506 409 1894 409 
Q 2359 409 2629 706 
Q 2900 1003 2900 1516 
L 2900 3500 
L 3475 3500 
L 3475 0 
L 2900 0 
L 2900 538 
Q 2691 219 2414 64 
Q 2138 -91 1772 -91 
Q 1169 -91 856 284 
Q 544 659 544 1381 
z
M 1991 3584 
L 1991 3584 
z
" transform="scale(0.015625)"/>
      <path id="DejaVuSans-1d" d="M 750 794 
L 1409 794 
L 1409 0 
L 750 0 
L 750 794 
z
M 750 3309 
L 1409 3309 
L 1409 2516 
L 750 2516 
L 750 3309 
z
" transform="scale(0.015625)"/>
      <path id="DejaVuSans-3" transform="scale(0.015625)"/>
      <path id="DejaVuSans-51" d="M 3513 2113 
L 3513 0 
L 2938 0 
L 2938 2094 
Q 2938 2591 2744 2837 
Q 2550 3084 2163 3084 
Q 1697 3084 1428 2787 
Q 1159 2491 1159 1978 
L 1159 0 
L 581 0 
L 581 3500 
L 1159 3500 
L 1159 2956 
Q 1366 3272 1645 3428 
Q 1925 3584 2291 3584 
Q 2894 3584 3203 3211 
Q 3513 2838 3513 2113 
z
" transform="scale(0.015625)"/>
      <path id="DejaVuSans-48" d="M 3597 1894 
L 3597 1613 
L 953 1613 
Q 991 1019 1311 708 
Q 1631 397 2203 397 
Q 2534 397 2845 478 
Q 3156 559 3463 722 
L 3463 178 
Q 3153 47 2828 -22 
Q 2503 -91 2169 -91 
Q 1331 -91 842 396 
Q 353 884 353 1716 
Q 353 2575 817 3079 
Q 1281 3584 2069 3584 
Q 2775 3584 3186 3129 
Q 3597 2675 3597 1894 
z
M 3022 2063 
Q 3016 2534 2758 2815 
Q 2500 3097 2075 3097 
Q 1594 3097 1305 2825 
Q 1016 2553 972 2059 
L 3022 2063 
z
" transform="scale(0.015625)"/>
      <path id="DejaVuSans-10" d="M 313 2009 
L 1997 2009 
L 1997 1497 
L 313 1497 
L 313 2009 
z
" transform="scale(0.015625)"/>
      <path id="DejaVuSans-45" d="M 3116 1747 
Q 3116 2381 2855 2742 
Q 2594 3103 2138 3103 
Q 1681 3103 1420 2742 
Q 1159 2381 1159 1747 
Q 1159 1113 1420 752 
Q 1681 391 2138 391 
Q 2594 391 2855 752 
Q 3116 1113 3116 1747 
z
M 1159 2969 
Q 1341 3281 1617 3432 
Q 1894 3584 2278 3584 
Q 2916 3584 3314 3078 
Q 3713 2572 3713 1747 
Q 3713 922 3314 415 
Q 2916 -91 2278 -91 
Q 1894 -91 1617 61 
Q 1341 213 1159 525 
L 1159 0 
L 581 0 
L 581 4863 
L 1159 4863 
L 1159 2969 
z
" transform="scale(0.015625)"/>
      <path id="DejaVuSans-5b" d="M 3513 3500 
L 2247 1797 
L 3578 0 
L 2900 0 
L 1881 1375 
L 863 0 
L 184 0 
L 1544 1831 
L 300 3500 
L 978 3500 
L 1906 2253 
L 2834 3500 
L 3513 3500 
z
" transform="scale(0.015625)"/>
     </defs>
     <use xlink:href="#DejaVuSans-3c"/>
     <use xlink:href="#DejaVuSans-52" transform="translate(47.796875 0)"/>
     <use xlink:href="#DejaVuSans-58" transform="translate(108.984375 0)"/>
     <use xlink:href="#DejaVuSans-1d" transform="translate(172.359375 0)"/>
     <use xlink:href="#DejaVuSans-3" transform="translate(206.046875 0)"/>
     <use xlink:href="#DejaVuSans-52" transform="translate(237.828125 0)"/>
     <use xlink:href="#DejaVuSans-51" transform="translate(299.015625 0)"/>
     <use xlink:href="#DejaVuSans-48" transform="translate(362.390625 0)"/>
     <use xlink:href="#DejaVuSans-10" transform="translate(423.921875 0)"/>
     <use xlink:href="#DejaVuSans-45" transform="translate(460 0)"/>
     <use xlink:href="#DejaVuSans-52" transform="translate(523.484375 0)"/>
     <use xlink:href="#DejaVuSans-5b" transform="translate(581.59375 0)"/>
    </g>
    <!-- (take only B) -->
    <g transform="translate(95.34856 142.405113) scale(0.11 -0.11)">
     <defs>
      <path id="DejaVuSans-b" d="M 1984 4856 
Q 1566 4138 1362 3434 
Q 1159 2731 1159 2009 
Q 1159 1288 1364 580 
Q 1569 -128 1984 -844 
L 1484 -844 
Q 1016 -109 783 600 
Q 550 1309 550 2009 
Q 550 2706 781 3412 
Q 1013 4119 1484 4856 
L 1984 4856 
z
" transform="scale(0.015625)"/>
      <path id="DejaVuSans-57" d="M 1172 4494 
L 1172 3500 
L 2356 3500 
L 2356 3053 
L 1172 3053 
L 1172 1153 
Q 1172 725 1289 603 
Q 1406 481 1766 481 
L 2356 481 
L 2356 0 
L 1766 0 
Q 1100 0 847 248 
Q 594 497 594 1153 
L 594 3053 
L 172 3053 
L 172 3500 
L 594 3500 
L 594 4494 
L 1172 4494 
z
" transform="scale(0.015625)"/>
      <path id="DejaVuSans-44" d="M 2194 1759 
Q 1497 1759 1228 1600 
Q 959 1441 959 1056 
Q 959 750 1161 570 
Q 1363 391 1709 391 
Q 2188 391 2477 730 
Q 2766 1069 2766 1631 
L 2766 1759 
L 2194 1759 
z
M 3341 1997 
L 3341 0 
L 2766 0 
L 2766 531 
Q 2569 213 2275 61 
Q 1981 -91 1556 -91 
Q 1019 -91 701 211 
Q 384 513 384 1019 
Q 384 1609 779 1909 
Q 1175 2209 1959 2209 
L 2766 2209 
L 2766 2266 
Q 2766 2663 2505 2880 
Q 2244 3097 1772 3097 
Q 1472 3097 1187 3025 
Q 903 2953 641 2809 
L 641 3341 
Q 956 3463 1253 3523 
Q 1550 3584 1831 3584 
Q 2591 3584 2966 3190 
Q 3341 2797 3341 1997 
z
" transform="scale(0.015625)"/>
      <path id="DejaVuSans-4e" d="M 581 4863 
L 1159 4863 
L 1159 1991 
L 2875 3500 
L 3609 3500 
L 1753 1863 
L 3688 0 
L 2938 0 
L 1159 1709 
L 1159 0 
L 581 0 
L 581 4863 
z
" transform="scale(0.015625)"/>
      <path id="DejaVuSans-4f" d="M 603 4863 
L 1178 4863 
L 1178 0 
L 603 0 
L 603 4863 
z
" transform="scale(0.015625)"/>
      <path id="DejaVuSans-5c" d="M 2059 -325 
Q 1816 -950 1584 -1140 
Q 1353 -1331 966 -1331 
L 506 -1331 
L 506 -850 
L 844 -850 
Q 1081 -850 1212 -737 
Q 1344 -625 1503 -206 
L 1606 56 
L 191 3500 
L 800 3500 
L 1894 763 
L 2988 3500 
L 3597 3500 
L 2059 -325 
z
" transform="scale(0.015625)"/>
      <path id="DejaVuSans-25" d="M 1259 2228 
L 1259 519 
L 2272 519 
Q 2781 519 3026 730 
Q 3272 941 3272 1375 
Q 3272 1813 3026 2020 
Q 2781 2228 2272 2228 
L 1259 2228 
z
M 1259 4147 
L 1259 2741 
L 2194 2741 
Q 2656 2741 2882 2914 
Q 3109 3088 3109 3444 
Q 3109 3797 2882 3972 
Q 2656 4147 2194 4147 
L 1259 4147 
z
M 628 4666 
L 2241 4666 
Q 2963 4666 3353 4366 
Q 3744 4066 3744 3513 
Q 3744 3084 3544 2831 
Q 3344 2578 2956 2516 
Q 3422 2416 3680 2098 
Q 3938 1781 3938 1306 
Q 3938 681 3513 340 
Q 3088 0 2303 0 
L 628 0 
L 628 4666 
z
" transform="scale(0.015625)"/>
      <path id="DejaVuSans-c" d="M 513 4856 
L 1013 4856 
Q 1481 4119 1714 3412 
Q 1947 2706 1947 2009 
Q 1947 1309 1714 600 
Q 1481 -109 1013 -844 
L 513 -844 
Q 928 -128 1133 580 
Q 1338 1288 1338 2009 
Q 1338 2731 1133 3434 
Q 928 4138 513 4856 
z
" transform="scale(0.015625)"/>
     </defs>
     <use xlink:href="#DejaVuSans-b"/>
     <use xlink:href="#DejaVuSans-57" transform="translate(39.015625 0)"/>
     <use xlink:href="#DejaVuSans-44" transform="translate(78.21875 0)"/>
     <use xlink:href="#DejaVuSans-4e" transform="translate(139.5 0)"/>
     <use xlink:href="#DejaVuSans-48" transform="translate(193.84375 0)"/>
     <use xlink:href="#DejaVuSans-3" transform="translate(255.375 0)"/>
     <use xlink:href="#DejaVuSans-52" transform="translate(287.15625 0)"/>
     <use xlink:href="#DejaVuSans-51" transform="translate(348.34375 0)"/>
     <use xlink:href="#DejaVuSans-4f" transform="translate(411.71875 0)"/>
     <use xlink:href="#DejaVuSans-5c" transform="translate(439.5 0)"/>
     <use xlink:href="#DejaVuSans-3" transform="translate(498.6875 0)"/>
     <use xlink:href="#DejaVuSans-25" transform="translate(530.46875 0)"/>
     <use xlink:href="#DejaVuSans-c" transform="translate(599.078125 0)"/>
    </g>
   </g>
   <g id="text_6">
    <!-- You: two-box -->
    <g transform="translate(95.27981 232.607083) scale(0.11 -0.11)">
     <defs>
      <path id="DejaVuSans-5a" d="M 269 3500 
L 844 3500 
L 1563 769 
L 2278 3500 
L 2956 3500 
L 3675 769 
L 4391 3500 
L 4966 3500 
L 4050 0 
L 3372 0 
L 2619 2869 
L 1863 0 
L 1184 0 
L 269 3500 
z
" transform="scale(0.015625)"/>
     </defs>
     <use xlink:href="#DejaVuSans-3c"/>
     <use xlink:href="#DejaVuSans-52" transform="translate(47.796875 0)"/>
     <use xlink:href="#DejaVuSans-58" transform="translate(108.984375 0)"/>
     <use xlink:href="#DejaVuSans-1d" transform="translate(172.359375 0)"/>
     <use xlink:href="#DejaVuSans-3" transform="translate(206.046875 0)"/>
     <use xlink:href="#DejaVuSans-57" transform="translate(237.828125 0)"/>
     <use xlink:href="#DejaVuSans-5a" transform="translate(277.03125 0)"/>
     <use xlink:href="#DejaVuSans-52" transform="translate(358.8125 0)"/>
     <use xlink:href="#DejaVuSans-10" transform="translate(421.859375 0)"/>
     <use xlink:href="#DejaVuSans-45" transform="translate(457.9375 0)"/>
     <use xlink:href="#DejaVuSans-52" transform="translate(521.421875 0)"/>
     <use xlink:href="#DejaVuSans-5b" transform="translate(579.53125 0)"/>
    </g>
    <!-- (take A and B) -->
    <g transform="translate(86.900903 245.810091) scale(0.11 -0.11)">
     <defs>
      <path id="DejaVuSans-24" d="M 2188 4044 
L 1331 1722 
L 3047 1722 
L 2188 4044 
z
M 1831 4666 
L 2547 4666 
L 4325 0 
L 3669 0 
L 3244 1197 
L 1141 1197 
L 716 0 
L 50 0 
L 1831 4666 
z
" transform="scale(0.015625)"/>
      <path id="DejaVuSans-47" d="M 2906 2969 
L 2906 4863 
L 3481 4863 
L 3481 0 
L 2906 0 
L 2906 525 
Q 2725 213 2448 61 
Q 2172 -91 1784 -91 
Q 1150 -91 751 415 
Q 353 922 353 1747 
Q 353 2572 751 3078 
Q 1150 3584 1784 3584 
Q 2172 3584 2448 3432 
Q 2725 3281 2906 2969 
z
M 947 1747 
Q 947 1113 1208 752 
Q 1469 391 1925 391 
Q 2381 391 2643 752 
Q 2906 1113 2906 1747 
Q 2906 2381 2643 2742 
Q 2381 3103 1925 3103 
Q 1469 3103 1208 2742 
Q 947 2381 947 1747 
z
" transform="scale(0.015625)"/>
     </defs>
     <use xlink:href="#DejaVuSans-b"/>
     <use xlink:href="#DejaVuSans-57" transform="translate(39.015625 0)"/>
     <use xlink:href="#DejaVuSans-44" transform="translate(78.21875 0)"/>
     <use xlink:href="#DejaVuSans-4e" transform="translate(139.5 0)"/>
     <use xlink:href="#DejaVuSans-48" transform="translate(193.84375 0)"/>
     <use xlink:href="#DejaVuSans-3" transform="translate(255.375 0)"/>
     <use xlink:href="#DejaVuSans-24" transform="translate(287.15625 0)"/>
     <use xlink:href="#DejaVuSans-3" transform="translate(355.5625 0)"/>
     <use xlink:href="#DejaVuSans-44" transform="translate(387.34375 0)"/>
     <use xlink:href="#DejaVuSans-51" transform="translate(448.625 0)"/>
     <use xlink:href="#DejaVuSans-47" transform="translate(512 0)"/>
     <use xlink:href="#DejaVuSans-3" transform="translate(575.484375 0)"/>
     <use xlink:href="#DejaVuSans-25" transform="translate(607.265625 0)"/>
     <use xlink:href="#DejaVuSans-c" transform="translate(675.875 0)"/>
    </g>
   </g>
   <g id="text_7">
    <!-- Predicted: one-box -->
    <g transform="translate(220.592131 58.62343) scale(0.11 -0.11)">
     <defs>
      <path id="DejaVuSans-33" d="M 1259 4147 
L 1259 2394 
L 2053 2394 
Q 2494 2394 2734 2622 
Q 2975 2850 2975 3272 
Q 2975 3691 2734 3919 
Q 2494 4147 2053 4147 
L 1259 4147 
z
M 628 4666 
L 2053 4666 
Q 2838 4666 3239 4311 
Q 3641 3956 3641 3272 
Q 3641 2581 3239 2228 
Q 2838 1875 2053 1875 
L 1259 1875 
L 1259 0 
L 628 0 
L 628 4666 
z
" transform="scale(0.015625)"/>
      <path id="DejaVuSans-55" d="M 2631 2963 
Q 2534 3019 2420 3045 
Q 2306 3072 2169 3072 
Q 1681 3072 1420 2755 
Q 1159 2438 1159 1844 
L 1159 0 
L 581 0 
L 581 3500 
L 1159 3500 
L 1159 2956 
Q 1341 3275 1631 3429 
Q 1922 3584 2338 3584 
Q 2397 3584 2469 3576 
Q 2541 3569 2628 3553 
L 2631 2963 
z
" transform="scale(0.015625)"/>
      <path id="DejaVuSans-4c" d="M 603 3500 
L 1178 3500 
L 1178 0 
L 603 0 
L 603 3500 
z
M 603 4863 
L 1178 4863 
L 1178 4134 
L 603 4134 
L 603 4863 
z
" transform="scale(0.015625)"/>
      <path id="DejaVuSans-46" d="M 3122 3366 
L 3122 2828 
Q 2878 2963 2633 3030 
Q 2388 3097 2138 3097 
Q 1578 3097 1268 2742 
Q 959 2388 959 1747 
Q 959 1106 1268 751 
Q 1578 397 2138 397 
Q 2388 397 2633 464 
Q 2878 531 3122 666 
L 3122 134 
Q 2881 22 2623 -34 
Q 2366 -91 2075 -91 
Q 1284 -91 818 406 
Q 353 903 353 1747 
Q 353 2603 823 3093 
Q 1294 3584 2113 3584 
Q 2378 3584 2631 3529 
Q 2884 3475 3122 3366 
z
" transform="scale(0.015625)"/>
     </defs>
     <use xlink:href="#DejaVuSans-33"/>
     <use xlink:href="#DejaVuSans-55" transform="translate(58.546875 0)"/>
     <use xlink:href="#DejaVuSans-48" transform="translate(97.453125 0)"/>
     <use xlink:href="#DejaVuSans-47" transform="translate(158.984375 0)"/>
     <use xlink:href="#DejaVuSans-4c" transform="translate(222.46875 0)"/>
     <use xlink:href="#DejaVuSans-46" transform="translate(250.25 0)"/>
     <use xlink:href="#DejaVuSans-57" transform="translate(305.234375 0)"/>
     <use xlink:href="#DejaVuSans-48" transform="translate(344.4375 0)"/>
     <use xlink:href="#DejaVuSans-47" transform="translate(405.96875 0)"/>
     <use xlink:href="#DejaVuSans-1d" transform="translate(469.453125 0)"/>
     <use xlink:href="#DejaVuSans-3" transform="translate(503.140625 0)"/>
     <use xlink:href="#DejaVuSans-52" transform="translate(534.921875 0)"/>
     <use xlink:href="#DejaVuSans-51" transform="translate(596.109375 0)"/>
     <use xlink:href="#DejaVuSans-48" transform="translate(659.484375 0)"/>
     <use xlink:href="#DejaVuSans-10" transform="translate(721.015625 0)"/>
     <use xlink:href="#DejaVuSans-45" transform="translate(757.09375 0)"/>
     <use xlink:href="#DejaVuSans-52" transform="translate(820.578125 0)"/>
     <use xlink:href="#DejaVuSans-5b" transform="translate(878.6875 0)"/>
    </g>
   </g>
   <g id="text_8">
    <!-- Predicted: two-box -->
    <g transform="translate(414.589901 58.62343) scale(0.11 -0.11)">
     <use xlink:href="#DejaVuSans-33"/>
     <use xlink:href="#DejaVuSans-55" transform="translate(58.546875 0)"/>
     <use xlink:href="#DejaVuSans-48" transform="translate(97.453125 0)"/>
     <use xlink:href="#DejaVuSans-47" transform="translate(158.984375 0)"/>
     <use xlink:href="#DejaVuSans-4c" transform="translate(222.46875 0)"/>
     <use xlink:href="#DejaVuSans-46" transform="translate(250.25 0)"/>
     <use xlink:href="#DejaVuSans-57" transform="translate(305.234375 0)"/>
     <use xlink:href="#DejaVuSans-48" transform="translate(344.4375 0)"/>
     <use xlink:href="#DejaVuSans-47" transform="translate(405.96875 0)"/>
     <use xlink:href="#DejaVuSans-1d" transform="translate(469.453125 0)"/>
     <use xlink:href="#DejaVuSans-3" transform="translate(503.140625 0)"/>
     <use xlink:href="#DejaVuSans-57" transform="translate(534.921875 0)"/>
     <use xlink:href="#DejaVuSans-5a" transform="translate(574.125 0)"/>
     <use xlink:href="#DejaVuSans-52" transform="translate(655.90625 0)"/>
     <use xlink:href="#DejaVuSans-10" transform="translate(718.953125 0)"/>
     <use xlink:href="#DejaVuSans-45" transform="translate(755.03125 0)"/>
     <use xlink:href="#DejaVuSans-52" transform="translate(818.515625 0)"/>
     <use xlink:href="#DejaVuSans-5b" transform="translate(876.625 0)"/>
    </g>
   </g>
   <g id="text_9">
    <!-- CDT: compare down each column -&gt; two-box wins by $1,000 either way -->
    <g style="fill: #8a1f1f" transform="translate(179.421797 323.598685) scale(0.105 -0.105)">
     <defs>
      <path id="DejaVuSans-26" d="M 4122 4306 
L 4122 3641 
Q 3803 3938 3442 4084 
Q 3081 4231 2675 4231 
Q 1875 4231 1450 3742 
Q 1025 3253 1025 2328 
Q 1025 1406 1450 917 
Q 1875 428 2675 428 
Q 3081 428 3442 575 
Q 3803 722 4122 1019 
L 4122 359 
Q 3791 134 3420 21 
Q 3050 -91 2638 -91 
Q 1578 -91 968 557 
Q 359 1206 359 2328 
Q 359 3453 968 4101 
Q 1578 4750 2638 4750 
Q 3056 4750 3426 4639 
Q 3797 4528 4122 4306 
z
" transform="scale(0.015625)"/>
      <path id="DejaVuSans-27" d="M 1259 4147 
L 1259 519 
L 2022 519 
Q 2988 519 3436 956 
Q 3884 1394 3884 2338 
Q 3884 3275 3436 3711 
Q 2988 4147 2022 4147 
L 1259 4147 
z
M 628 4666 
L 1925 4666 
Q 3281 4666 3915 4102 
Q 4550 3538 4550 2338 
Q 4550 1131 3912 565 
Q 3275 0 1925 0 
L 628 0 
L 628 4666 
z
" transform="scale(0.015625)"/>
      <path id="DejaVuSans-37" d="M -19 4666 
L 3928 4666 
L 3928 4134 
L 2272 4134 
L 2272 0 
L 1638 0 
L 1638 4134 
L -19 4134 
L -19 4666 
z
" transform="scale(0.015625)"/>
      <path id="DejaVuSans-50" d="M 3328 2828 
Q 3544 3216 3844 3400 
Q 4144 3584 4550 3584 
Q 5097 3584 5394 3201 
Q 5691 2819 5691 2113 
L 5691 0 
L 5113 0 
L 5113 2094 
Q 5113 2597 4934 2840 
Q 4756 3084 4391 3084 
Q 3944 3084 3684 2787 
Q 3425 2491 3425 1978 
L 3425 0 
L 2847 0 
L 2847 2094 
Q 2847 2600 2669 2842 
Q 2491 3084 2119 3084 
Q 1678 3084 1418 2786 
Q 1159 2488 1159 1978 
L 1159 0 
L 581 0 
L 581 3500 
L 1159 3500 
L 1159 2956 
Q 1356 3278 1631 3431 
Q 1906 3584 2284 3584 
Q 2666 3584 2933 3390 
Q 3200 3197 3328 2828 
z
" transform="scale(0.015625)"/>
      <path id="DejaVuSans-53" d="M 1159 525 
L 1159 -1331 
L 581 -1331 
L 581 3500 
L 1159 3500 
L 1159 2969 
Q 1341 3281 1617 3432 
Q 1894 3584 2278 3584 
Q 2916 3584 3314 3078 
Q 3713 2572 3713 1747 
Q 3713 922 3314 415 
Q 2916 -91 2278 -91 
Q 1894 -91 1617 61 
Q 1341 213 1159 525 
z
M 3116 1747 
Q 3116 2381 2855 2742 
Q 2594 3103 2138 3103 
Q 1681 3103 1420 2742 
Q 1159 2381 1159 1747 
Q 1159 1113 1420 752 
Q 1681 391 2138 391 
Q 2594 391 2855 752 
Q 3116 1113 3116 1747 
z
" transform="scale(0.015625)"/>
      <path id="DejaVuSans-4b" d="M 3513 2113 
L 3513 0 
L 2938 0 
L 2938 2094 
Q 2938 2591 2744 2837 
Q 2550 3084 2163 3084 
Q 1697 3084 1428 2787 
Q 1159 2491 1159 1978 
L 1159 0 
L 581 0 
L 581 4863 
L 1159 4863 
L 1159 2956 
Q 1366 3272 1645 3428 
Q 1925 3584 2291 3584 
Q 2894 3584 3203 3211 
Q 3513 2838 3513 2113 
z
" transform="scale(0.015625)"/>
      <path id="DejaVuSans-21" d="M 678 3150 
L 678 3719 
L 4684 2266 
L 4684 1747 
L 678 294 
L 678 863 
L 3897 2003 
L 678 3150 
z
" transform="scale(0.015625)"/>
      <path id="DejaVuSans-56" d="M 2834 3397 
L 2834 2853 
Q 2591 2978 2328 3040 
Q 2066 3103 1784 3103 
Q 1356 3103 1142 2972 
Q 928 2841 928 2578 
Q 928 2378 1081 2264 
Q 1234 2150 1697 2047 
L 1894 2003 
Q 2506 1872 2764 1633 
Q 3022 1394 3022 966 
Q 3022 478 2636 193 
Q 2250 -91 1575 -91 
Q 1294 -91 989 -36 
Q 684 19 347 128 
L 347 722 
Q 666 556 975 473 
Q 1284 391 1588 391 
Q 1994 391 2212 530 
Q 2431 669 2431 922 
Q 2431 1156 2273 1281 
Q 2116 1406 1581 1522 
L 1381 1569 
Q 847 1681 609 1914 
Q 372 2147 372 2553 
Q 372 3047 722 3315 
Q 1072 3584 1716 3584 
Q 2034 3584 2315 3537 
Q 2597 3491 2834 3397 
z
" transform="scale(0.015625)"/>
      <path id="DejaVuSans-7" d="M 2163 -941 
L 1850 -941 
L 1847 0 
Q 1519 6 1191 76 
Q 863 147 531 288 
L 531 850 
Q 850 650 1176 548 
Q 1503 447 1850 444 
L 1850 1869 
Q 1159 1981 845 2250 
Q 531 2519 531 2988 
Q 531 3497 872 3790 
Q 1213 4084 1850 4128 
L 1850 4863 
L 2163 4863 
L 2163 4138 
Q 2453 4125 2725 4076 
Q 2997 4028 3256 3944 
L 3256 3397 
Q 2997 3528 2723 3600 
Q 2450 3672 2163 3684 
L 2163 2350 
Q 2872 2241 3206 1959 
Q 3541 1678 3541 1191 
Q 3541 663 3186 358 
Q 2831 53 2163 6 
L 2163 -941 
z
M 1850 2406 
L 1850 3688 
Q 1488 3647 1297 3481 
Q 1106 3316 1106 3041 
Q 1106 2772 1282 2622 
Q 1459 2472 1850 2406 
z
M 2163 1806 
L 2163 453 
Q 2559 506 2761 678 
Q 2963 850 2963 1131 
Q 2963 1406 2770 1568 
Q 2578 1731 2163 1806 
z
" transform="scale(0.015625)"/>
      <path id="DejaVuSans-14" d="M 794 531 
L 1825 531 
L 1825 4091 
L 703 3866 
L 703 4441 
L 1819 4666 
L 2450 4666 
L 2450 531 
L 3481 531 
L 3481 0 
L 794 0 
L 794 531 
z
" transform="scale(0.015625)"/>
      <path id="DejaVuSans-f" d="M 750 794 
L 1409 794 
L 1409 256 
L 897 -744 
L 494 -744 
L 750 256 
L 750 794 
z
" transform="scale(0.015625)"/>
      <path id="DejaVuSans-13" d="M 2034 4250 
Q 1547 4250 1301 3770 
Q 1056 3291 1056 2328 
Q 1056 1369 1301 889 
Q 1547 409 2034 409 
Q 2525 409 2770 889 
Q 3016 1369 3016 2328 
Q 3016 3291 2770 3770 
Q 2525 4250 2034 4250 
z
M 2034 4750 
Q 2819 4750 3233 4129 
Q 3647 3509 3647 2328 
Q 3647 1150 3233 529 
Q 2819 -91 2034 -91 
Q 1250 -91 836 529 
Q 422 1150 422 2328 
Q 422 3509 836 4129 
Q 1250 4750 2034 4750 
z
" transform="scale(0.015625)"/>
     </defs>
     <use xlink:href="#DejaVuSans-26"/>
     <use xlink:href="#DejaVuSans-27" transform="translate(69.828125 0)"/>
     <use xlink:href="#DejaVuSans-37" transform="translate(146.828125 0)"/>
     <use xlink:href="#DejaVuSans-1d" transform="translate(196.921875 0)"/>
     <use xlink:href="#DejaVuSans-3" transform="translate(230.609375 0)"/>
     <use xlink:href="#DejaVuSans-46" transform="translate(262.390625 0)"/>
     <use xlink:href="#DejaVuSans-52" transform="translate(317.375 0)"/>
     <use xlink:href="#DejaVuSans-50" transform="translate(378.5625 0)"/>
     <use xlink:href="#DejaVuSans-53" transform="translate(475.96875 0)"/>
     <use xlink:href="#DejaVuSans-44" transform="translate(539.453125 0)"/>
     <use xlink:href="#DejaVuSans-55" transform="translate(600.734375 0)"/>
     <use xlink:href="#DejaVuSans-48" transform="translate(639.640625 0)"/>
     <use xlink:href="#DejaVuSans-3" transform="translate(701.171875 0)"/>
     <use xlink:href="#DejaVuSans-47" transform="translate(732.953125 0)"/>
     <use xlink:href="#DejaVuSans-52" transform="translate(796.4375 0)"/>
     <use xlink:href="#DejaVuSans-5a" transform="translate(857.625 0)"/>
     <use xlink:href="#DejaVuSans-51" transform="translate(939.40625 0)"/>
     <use xlink:href="#DejaVuSans-3" transform="translate(1002.78125 0)"/>
     <use xlink:href="#DejaVuSans-48" transform="translate(1034.5625 0)"/>
     <use xlink:href="#DejaVuSans-44" transform="translate(1096.09375 0)"/>
     <use xlink:href="#DejaVuSans-46" transform="translate(1157.375 0)"/>
     <use xlink:href="#DejaVuSans-4b" transform="translate(1212.359375 0)"/>
     <use xlink:href="#DejaVuSans-3" transform="translate(1275.734375 0)"/>
     <use xlink:href="#DejaVuSans-46" transform="translate(1307.515625 0)"/>
     <use xlink:href="#DejaVuSans-52" transform="translate(1362.5 0)"/>
     <use xlink:href="#DejaVuSans-4f" transform="translate(1423.6875 0)"/>
     <use xlink:href="#DejaVuSans-58" transform="translate(1451.46875 0)"/>
     <use xlink:href="#DejaVuSans-50" transform="translate(1514.84375 0)"/>
     <use xlink:href="#DejaVuSans-51" transform="translate(1612.25 0)"/>
     <use xlink:href="#DejaVuSans-3" transform="translate(1675.625 0)"/>
     <use xlink:href="#DejaVuSans-10" transform="translate(1707.40625 0)"/>
     <use xlink:href="#DejaVuSans-21" transform="translate(1743.484375 0)"/>
     <use xlink:href="#DejaVuSans-3" transform="translate(1827.28125 0)"/>
     <use xlink:href="#DejaVuSans-57" transform="translate(1859.0625 0)"/>
     <use xlink:href="#DejaVuSans-5a" transform="translate(1898.265625 0)"/>
     <use xlink:href="#DejaVuSans-52" transform="translate(1980.046875 0)"/>
     <use xlink:href="#DejaVuSans-10" transform="translate(2043.09375 0)"/>
     <use xlink:href="#DejaVuSans-45" transform="translate(2079.171875 0)"/>
     <use xlink:href="#DejaVuSans-52" transform="translate(2142.65625 0)"/>
     <use xlink:href="#DejaVuSans-5b" transform="translate(2200.765625 0)"/>
     <use xlink:href="#DejaVuSans-3" transform="translate(2259.953125 0)"/>
     <use xlink:href="#DejaVuSans-5a" transform="translate(2291.734375 0)"/>
     <use xlink:href="#DejaVuSans-4c" transform="translate(2373.515625 0)"/>
     <use xlink:href="#DejaVuSans-51" transform="translate(2401.296875 0)"/>
     <use xlink:href="#DejaVuSans-56" transform="translate(2464.671875 0)"/>
     <use xlink:href="#DejaVuSans-3" transform="translate(2516.765625 0)"/>
     <use xlink:href="#DejaVuSans-45" transform="translate(2548.546875 0)"/>
     <use xlink:href="#DejaVuSans-5c" transform="translate(2612.03125 0)"/>
     <use xlink:href="#DejaVuSans-3" transform="translate(2671.21875 0)"/>
     <use xlink:href="#DejaVuSans-7" transform="translate(2703 0)"/>
     <use xlink:href="#DejaVuSans-14" transform="translate(2766.625 0)"/>
     <use xlink:href="#DejaVuSans-f" transform="translate(2830.25 0)"/>
     <use xlink:href="#DejaVuSans-13" transform="translate(2862.03125 0)"/>
     <use xlink:href="#DejaVuSans-13" transform="translate(2925.65625 0)"/>
     <use xlink:href="#DejaVuSans-13" transform="translate(2989.28125 0)"/>
     <use xlink:href="#DejaVuSans-3" transform="translate(3052.90625 0)"/>
     <use xlink:href="#DejaVuSans-48" transform="translate(3084.6875 0)"/>
     <use xlink:href="#DejaVuSans-4c" transform="translate(3146.21875 0)"/>
     <use xlink:href="#DejaVuSans-57" transform="translate(3174 0)"/>
     <use xlink:href="#DejaVuSans-4b" transform="translate(3213.203125 0)"/>
     <use xlink:href="#DejaVuSans-48" transform="translate(3276.578125 0)"/>
     <use xlink:href="#DejaVuSans-55" transform="translate(3338.109375 0)"/>
     <use xlink:href="#DejaVuSans-3" transform="translate(3379.21875 0)"/>
     <use xlink:href="#DejaVuSans-5a" transform="translate(3411 0)"/>
     <use xlink:href="#DejaVuSans-44" transform="translate(3492.78125 0)"/>
     <use xlink:href="#DejaVuSans-5c" transform="translate(3554.0625 0)"/>
    </g>
   </g>
   <g id="text_10">
    <!-- EDT: reliable predictor -&gt; real outcomes cluster on this diagonal -->
    <g style="fill: #1a3a6b" transform="translate(110.17377 162.028408) scale(0.105 -0.105)">
     <defs>
      <path id="DejaVuSans-28" d="M 628 4666 
L 3578 4666 
L 3578 4134 
L 1259 4134 
L 1259 2753 
L 3481 2753 
L 3481 2222 
L 1259 2222 
L 1259 531 
L 3634 531 
L 3634 0 
L 628 0 
L 628 4666 
z
" transform="scale(0.015625)"/>
      <path id="DejaVuSans-4a" d="M 2906 1791 
Q 2906 2416 2648 2759 
Q 2391 3103 1925 3103 
Q 1463 3103 1205 2759 
Q 947 2416 947 1791 
Q 947 1169 1205 825 
Q 1463 481 1925 481 
Q 2391 481 2648 825 
Q 2906 1169 2906 1791 
z
M 3481 434 
Q 3481 -459 3084 -895 
Q 2688 -1331 1869 -1331 
Q 1566 -1331 1297 -1286 
Q 1028 -1241 775 -1147 
L 775 -588 
Q 1028 -725 1275 -790 
Q 1522 -856 1778 -856 
Q 2344 -856 2625 -561 
Q 2906 -266 2906 331 
L 2906 616 
Q 2728 306 2450 153 
Q 2172 0 1784 0 
Q 1141 0 747 490 
Q 353 981 353 1791 
Q 353 2603 747 3093 
Q 1141 3584 1784 3584 
Q 2172 3584 2450 3431 
Q 2728 3278 2906 2969 
L 2906 3500 
L 3481 3500 
L 3481 434 
z
" transform="scale(0.015625)"/>
     </defs>
     <use xlink:href="#DejaVuSans-28"/>
     <use xlink:href="#DejaVuSans-27" transform="translate(63.1875 0)"/>
     <use xlink:href="#DejaVuSans-37" transform="translate(140.1875 0)"/>
     <use xlink:href="#DejaVuSans-1d" transform="translate(190.28125 0)"/>
     <use xlink:href="#DejaVuSans-3" transform="translate(223.96875 0)"/>
     <use xlink:href="#DejaVuSans-55" transform="translate(255.75 0)"/>
     <use xlink:href="#DejaVuSans-48" transform="translate(294.65625 0)"/>
     <use xlink:href="#DejaVuSans-4f" transform="translate(356.1875 0)"/>
     <use xlink:href="#DejaVuSans-4c" transform="translate(383.96875 0)"/>
     <use xlink:href="#DejaVuSans-44" transform="translate(411.75 0)"/>
     <use xlink:href="#DejaVuSans-45" transform="translate(473.03125 0)"/>
     <use xlink:href="#DejaVuSans-4f" transform="translate(536.515625 0)"/>
     <use xlink:href="#DejaVuSans-48" transform="translate(564.296875 0)"/>
     <use xlink:href="#DejaVuSans-3" transform="translate(625.828125 0)"/>
     <use xlink:href="#DejaVuSans-53" transform="translate(657.609375 0)"/>
     <use xlink:href="#DejaVuSans-55" transform="translate(721.09375 0)"/>
     <use xlink:href="#DejaVuSans-48" transform="translate(760 0)"/>
     <use xlink:href="#DejaVuSans-47" transform="translate(821.53125 0)"/>
     <use xlink:href="#DejaVuSans-4c" transform="translate(885.015625 0)"/>
     <use xlink:href="#DejaVuSans-46" transform="translate(912.796875 0)"/>
     <use xlink:href="#DejaVuSans-57" transform="translate(967.78125 0)"/>
     <use xlink:href="#DejaVuSans-52" transform="translate(1006.984375 0)"/>
     <use xlink:href="#DejaVuSans-55" transform="translate(1068.171875 0)"/>
     <use xlink:href="#DejaVuSans-3" transform="translate(1109.28125 0)"/>
     <use xlink:href="#DejaVuSans-10" transform="translate(1141.0625 0)"/>
     <use xlink:href="#DejaVuSans-21" transform="translate(1177.140625 0)"/>
     <use xlink:href="#DejaVuSans-3" transform="translate(1260.9375 0)"/>
     <use xlink:href="#DejaVuSans-55" transform="translate(1292.71875 0)"/>
     <use xlink:href="#DejaVuSans-48" transform="translate(1331.625 0)"/>
     <use xlink:href="#DejaVuSans-44" transform="translate(1393.15625 0)"/>
     <use xlink:href="#DejaVuSans-4f" transform="translate(1454.4375 0)"/>
     <use xlink:href="#DejaVuSans-3" transform="translate(1482.21875 0)"/>
     <use xlink:href="#DejaVuSans-52" transform="translate(1514 0)"/>
     <use xlink:href="#DejaVuSans-58" transform="translate(1575.1875 0)"/>
     <use xlink:href="#DejaVuSans-57" transform="translate(1638.5625 0)"/>
     <use xlink:href="#DejaVuSans-46" transform="translate(1677.765625 0)"/>
     <use xlink:href="#DejaVuSans-52" transform="translate(1732.75 0)"/>
     <use xlink:href="#DejaVuSans-50" transform="translate(1793.9375 0)"/>
     <use xlink:href="#DejaVuSans-48" transform="translate(1891.34375 0)"/>
     <use xlink:href="#DejaVuSans-56" transform="translate(1952.875 0)"/>
     <use xlink:href="#DejaVuSans-3" transform="translate(2004.96875 0)"/>
     <use xlink:href="#DejaVuSans-46" transform="translate(2036.75 0)"/>
     <use xlink:href="#DejaVuSans-4f" transform="translate(2091.734375 0)"/>
     <use xlink:href="#DejaVuSans-58" transform="translate(2119.515625 0)"/>
     <use xlink:href="#DejaVuSans-56" transform="translate(2182.890625 0)"/>
     <use xlink:href="#DejaVuSans-57" transform="translate(2234.984375 0)"/>
     <use xlink:href="#DejaVuSans-48" transform="translate(2274.1875 0)"/>
     <use xlink:href="#DejaVuSans-55" transform="translate(2335.71875 0)"/>
     <use xlink:href="#DejaVuSans-3" transform="translate(2376.828125 0)"/>
     <use xlink:href="#DejaVuSans-52" transform="translate(2408.609375 0)"/>
     <use xlink:href="#DejaVuSans-51" transform="translate(2469.796875 0)"/>
     <use xlink:href="#DejaVuSans-3" transform="translate(2533.171875 0)"/>
     <use xlink:href="#DejaVuSans-57" transform="translate(2564.953125 0)"/>
     <use xlink:href="#DejaVuSans-4b" transform="translate(2604.15625 0)"/>
     <use xlink:href="#DejaVuSans-4c" transform="translate(2667.53125 0)"/>
     <use xlink:href="#DejaVuSans-56" transform="translate(2695.3125 0)"/>
     <use xlink:href="#DejaVuSans-3" transform="translate(2747.40625 0)"/>
     <use xlink:href="#DejaVuSans-47" transform="translate(2779.1875 0)"/>
     <use xlink:href="#DejaVuSans-4c" transform="translate(2842.671875 0)"/>
     <use xlink:href="#DejaVuSans-44" transform="translate(2870.453125 0)"/>
     <use xlink:href="#DejaVuSans-4a" transform="translate(2931.734375 0)"/>
     <use xlink:href="#DejaVuSans-52" transform="translate(2995.21875 0)"/>
     <use xlink:href="#DejaVuSans-51" transform="translate(3056.40625 0)"/>
     <use xlink:href="#DejaVuSans-44" transform="translate(3119.78125 0)"/>
     <use xlink:href="#DejaVuSans-4f" transform="translate(3181.0625 0)"/>
    </g>
   </g>
   <g id="text_11">
    <!-- Newcomb's payoff matrix: two rules read it two ways -->
    <g transform="translate(125.161031 17.077969) scale(0.13 -0.13)">
     <defs>
      <path id="DejaVuSans-31" d="M 628 4666 
L 1478 4666 
L 3547 763 
L 3547 4666 
L 4159 4666 
L 4159 0 
L 3309 0 
L 1241 3903 
L 1241 0 
L 628 0 
L 628 4666 
z
" transform="scale(0.015625)"/>
      <path id="DejaVuSans-a" d="M 1147 4666 
L 1147 2931 
L 616 2931 
L 616 4666 
L 1147 4666 
z
" transform="scale(0.015625)"/>
      <path id="DejaVuSans-13ae" d="M 4531 4863 
L 4531 4384 
L 3981 4384 
Q 3672 4384 3551 4259 
Q 3431 4134 3431 3809 
L 3431 3500 
L 4378 3500 
L 4378 3053 
L 3431 3053 
L 3431 0 
L 2853 0 
L 2853 3053 
L 1275 3053 
L 1275 0 
L 697 0 
L 697 3053 
L 147 3053 
L 147 3500 
L 697 3500 
L 697 3744 
Q 697 4328 969 4595 
Q 1241 4863 1831 4863 
L 2375 4863 
L 2375 4384 
L 1825 4384 
Q 1516 4384 1394 4259 
Q 1275 4134 1275 3809 
L 1275 3500 
L 2853 3500 
L 2853 3744 
Q 2853 4328 3125 4595 
Q 3397 4863 3988 4863 
L 4531 4863 
z
" transform="scale(0.015625)"/>
     </defs>
     <use xlink:href="#DejaVuSans-31"/>
     <use xlink:href="#DejaVuSans-48" transform="translate(74.8125 0)"/>
     <use xlink:href="#DejaVuSans-5a" transform="translate(136.34375 0)"/>
     <use xlink:href="#DejaVuSans-46" transform="translate(218.125 0)"/>
     <use xlink:href="#DejaVuSans-52" transform="translate(273.109375 0)"/>
     <use xlink:href="#DejaVuSans-50" transform="translate(334.296875 0)"/>
     <use xlink:href="#DejaVuSans-45" transform="translate(431.703125 0)"/>
     <use xlink:href="#DejaVuSans-a" transform="translate(495.1875 0)"/>
     <use xlink:href="#DejaVuSans-56" transform="translate(522.671875 0)"/>
     <use xlink:href="#DejaVuSans-3" transform="translate(574.765625 0)"/>
     <use xlink:href="#DejaVuSans-53" transform="translate(606.546875 0)"/>
     <use xlink:href="#DejaVuSans-44" transform="translate(670.03125 0)"/>
     <use xlink:href="#DejaVuSans-5c" transform="translate(731.3125 0)"/>
     <use xlink:href="#DejaVuSans-52" transform="translate(790.5 0)"/>
     <use xlink:href="#DejaVuSans-13ae" transform="translate(851.6875 0)"/>
     <use xlink:href="#DejaVuSans-3" transform="translate(920.578125 0)"/>
     <use xlink:href="#DejaVuSans-50" transform="translate(952.359375 0)"/>
     <use xlink:href="#DejaVuSans-44" transform="translate(1049.765625 0)"/>
     <use xlink:href="#DejaVuSans-57" transform="translate(1111.046875 0)"/>
     <use xlink:href="#DejaVuSans-55" transform="translate(1150.25 0)"/>
     <use xlink:href="#DejaVuSans-4c" transform="translate(1191.359375 0)"/>
     <use xlink:href="#DejaVuSans-5b" transform="translate(1219.140625 0)"/>
     <use xlink:href="#DejaVuSans-1d" transform="translate(1278.328125 0)"/>
     <use xlink:href="#DejaVuSans-3" transform="translate(1312.015625 0)"/>
     <use xlink:href="#DejaVuSans-57" transform="translate(1343.796875 0)"/>
     <use xlink:href="#DejaVuSans-5a" transform="translate(1383 0)"/>
     <use xlink:href="#DejaVuSans-52" transform="translate(1464.78125 0)"/>
     <use xlink:href="#DejaVuSans-3" transform="translate(1525.96875 0)"/>
     <use xlink:href="#DejaVuSans-55" transform="translate(1557.75 0)"/>
     <use xlink:href="#DejaVuSans-58" transform="translate(1598.859375 0)"/>
     <use xlink:href="#DejaVuSans-4f" transform="translate(1662.234375 0)"/>
     <use xlink:href="#DejaVuSans-48" transform="translate(1690.015625 0)"/>
     <use xlink:href="#DejaVuSans-56" transform="translate(1751.546875 0)"/>
     <use xlink:href="#DejaVuSans-3" transform="translate(1803.640625 0)"/>
     <use xlink:href="#DejaVuSans-55" transform="translate(1835.421875 0)"/>
     <use xlink:href="#DejaVuSans-48" transform="translate(1874.328125 0)"/>
     <use xlink:href="#DejaVuSans-44" transform="translate(1935.859375 0)"/>
     <use xlink:href="#DejaVuSans-47" transform="translate(1997.140625 0)"/>
     <use xlink:href="#DejaVuSans-3" transform="translate(2060.625 0)"/>
     <use xlink:href="#DejaVuSans-4c" transform="translate(2092.40625 0)"/>
     <use xlink:href="#DejaVuSans-57" transform="translate(2120.1875 0)"/>
     <use xlink:href="#DejaVuSans-3" transform="translate(2159.390625 0)"/>
     <use xlink:href="#DejaVuSans-57" transform="translate(2191.171875 0)"/>
     <use xlink:href="#DejaVuSans-5a" transform="translate(2230.375 0)"/>
     <use xlink:href="#DejaVuSans-52" transform="translate(2312.15625 0)"/>
     <use xlink:href="#DejaVuSans-3" transform="translate(2373.34375 0)"/>
     <use xlink:href="#DejaVuSans-5a" transform="translate(2405.125 0)"/>
     <use xlink:href="#DejaVuSans-44" transform="translate(2486.90625 0)"/>
     <use xlink:href="#DejaVuSans-5c" transform="translate(2548.1875 0)"/>
     <use xlink:href="#DejaVuSans-56" transform="translate(2607.375 0)"/>
    </g>
   </g>
  </g>
 </g>
 <defs>
  <clipPath id="pe920599839">
   <rect x="7.2" y="23.077969" width="581.653" height="342.528989"/>
  </clipPath>
 </defs>
</svg>
