<?xml version="1.0" encoding="utf-8" standalone="no"?>
<!DOCTYPE svg PUBLIC "-//W3C//DTD SVG 1.1//EN"
  "http://www.w3.org/Graphics/SVG/1.1/DTD/svg11.dtd">
<svg xmlns:xlink="http://www.w3.org/1999/xlink" width="1008pt" height="460.8pt" viewBox="0 0 1008 460.8" xmlns="http://www.w3.org/2000/svg" version="1.1">
 <metadata>
  <rdf:RDF xmlns:dc="http://purl.org/dc/elements/1.1/" xmlns:cc="http://creativecommons.org/ns#" xmlns:rdf="http://www.w3.org/1999/02/22-rdf-syntax-ns#">
   <cc:Work>
    <dc:type rdf:resource="http://purl.org/dc/dcmitype/StillImage"/>
    <dc:date>2026-07-02T00:36:06.352283</dc:date>
    <dc:format>image/svg+xml</dc:format>
    <dc:creator>
     <cc:Agent>
      <dc:title>Matplotlib v3.11.0, https://matplotlib.org/</dc:title>
     </cc:Agent>
    </dc:creator>
   </cc:Work>
  </rdf:RDF>
 </metadata>
 <defs>
  <style type="text/css">*{stroke-linejoin: round; stroke-linecap: butt}</style>
 </defs>
 <g id="figure_1">
  <g id="patch_1">
   <path d="M 0 460.8 
L 1008 460.8 
L 1008 0 
L 0 0 
z
" style="fill: #ffffff"/>
  </g>
  <g id="axes_1">
   <g id="patch_2">
    <path d="M 163.24 423.56 
L 997.2 423.56 
L 997.2 25.157422 
L 163.24 25.157422 
z
" style="fill: #ffffff"/>
   </g>
   <g id="patch_3">
    <path d="M 664.919062 423.56 
L 690.980312 423.56 
L 690.980312 25.157422 
L 664.919062 25.157422 
z
" clip-path="url(#p53983bee50)" style="fill: #808080; opacity: 0.15; stroke: #808080; stroke-linejoin: miter"/>
   </g>
   <g id="patch_4">
    <path d="M 827.801875 423.56 
L 853.863125 423.56 
L 853.863125 25.157422 
L 827.801875 25.157422 
z
" clip-path="url(#p53983bee50)" style="fill: #808080; opacity: 0.15; stroke: #808080; stroke-linejoin: miter"/>
   </g>
   <g id="matplotlib.axis_1">
    <g id="xtick_1">
     <g id="line2d_1">
      <path d="M 189.30125 423.56 
L 189.30125 25.157422 
" clip-path="url(#p53983bee50)" style="fill: none; stroke: #b0b0b0; stroke-opacity: 0.2; stroke-width: 0.8; stroke-linecap: square"/>
     </g>
     <g id="line2d_2">
      <defs>
       <path id="mada0f82296" d="M 0 0 
L 0 3.5 
" style="stroke: #000000; stroke-width: 0.8"/>
      </defs>
      <g>
       <use xlink:href="#mada0f82296" x="189.30125" y="423.56" style="stroke: #000000; stroke-width: 0.8"/>
      </g>
     </g>
     <g id="text_1">
      <!-- ch02 -->
      <g transform="translate(191.379688 450.20875) rotate(-90) scale(0.08 -0.08)">
       <defs>
        <path id="DejaVuSans-46" d="M 3122 3366 
L 3122 2828 
Q 2878 2963 2633 3030 
Q 2388 3097 2138 3097 
Q 1578 3097 1268 2742 
Q 959 2388 959 1747 
Q 959 1106 1268 751 
Q 1578 397 2138 397 
Q 2388 397 2633 464 
Q 2878 531 3122 666 
L 3122 134 
Q 2881 22 2623 -34 
Q 2366 -91 2075 -91 
Q 1284 -91 818 406 
Q 353 903 353 1747 
Q 353 2603 823 3093 
Q 1294 3584 2113 3584 
Q 2378 3584 2631 3529 
Q 2884 3475 3122 3366 
z
" transform="scale(0.015625)"/>
        <path id="DejaVuSans-4b" d="M 3513 2113 
L 3513 0 
L 2938 0 
L 2938 2094 
Q 2938 2591 2744 2837 
Q 2550 3084 2163 3084 
Q 1697 3084 1428 2787 
Q 1159 2491 1159 1978 
L 1159 0 
L 581 0 
L 581 4863 
L 1159 4863 
L 1159 2956 
Q 1366 3272 1645 3428 
Q 1925 3584 2291 3584 
Q 2894 3584 3203 3211 
Q 3513 2838 3513 2113 
z
" transform="scale(0.015625)"/>
        <path id="DejaVuSans-13" d="M 2034 4250 
Q 1547 4250 1301 3770 
Q 1056 3291 1056 2328 
Q 1056 1369 1301 889 
Q 1547 409 2034 409 
Q 2525 409 2770 889 
Q 3016 1369 3016 2328 
Q 3016 3291 2770 3770 
Q 2525 4250 2034 4250 
z
M 2034 4750 
Q 2819 4750 3233 4129 
Q 3647 3509 3647 2328 
Q 3647 1150 3233 529 
Q 2819 -91 2034 -91 
Q 1250 -91 836 529 
Q 422 1150 422 2328 
Q 422 3509 836 4129 
Q 1250 4750 2034 4750 
z
" transform="scale(0.015625)"/>
        <path id="DejaVuSans-15" d="M 1228 531 
L 3431 531 
L 3431 0 
L 469 0 
L 469 531 
Q 828 903 1448 1529 
Q 2069 2156 2228 2338 
Q 2531 2678 2651 2914 
Q 2772 3150 2772 3378 
Q 2772 3750 2511 3984 
Q 2250 4219 1831 4219 
Q 1534 4219 1204 4116 
Q 875 4013 500 3803 
L 500 4441 
Q 881 4594 1212 4672 
Q 1544 4750 1819 4750 
Q 2544 4750 2975 4387 
Q 3406 4025 3406 3419 
Q 3406 3131 3298 2873 
Q 3191 2616 2906 2266 
Q 2828 2175 2409 1742 
Q 1991 1309 1228 531 
z
" transform="scale(0.015625)"/>
       </defs>
       <use xlink:href="#DejaVuSans-46"/>
       <use xlink:href="#DejaVuSans-4b" transform="translate(54.984375 0)"/>
       <use xlink:href="#DejaVuSans-13" transform="translate(118.359375 0)"/>
       <use xlink:href="#DejaVuSans-15" transform="translate(181.984375 0)"/>
      </g>
     </g>
    </g>
    <g id="xtick_2">
     <g id="line2d_3">
      <path d="M 221.877813 423.56 
L 221.877813 25.157422 
" clip-path="url(#p53983bee50)" style="fill: none; stroke: #b0b0b0; stroke-opacity: 0.2; stroke-width: 0.8; stroke-linecap: square"/>
     </g>
     <g id="line2d_4">
      <g>
       <use xlink:href="#mada0f82296" x="221.877813" y="423.56" style="stroke: #000000; stroke-width: 0.8"/>
      </g>
     </g>
     <g id="text_2">
      <!-- ch03 -->
      <g transform="translate(223.95625 450.20875) rotate(-90) scale(0.08 -0.08)">
       <defs>
        <path id="DejaVuSans-16" d="M 2597 2516 
Q 3050 2419 3304 2112 
Q 3559 1806 3559 1356 
Q 3559 666 3084 287 
Q 2609 -91 1734 -91 
Q 1441 -91 1130 -33 
Q 819 25 488 141 
L 488 750 
Q 750 597 1062 519 
Q 1375 441 1716 441 
Q 2309 441 2620 675 
Q 2931 909 2931 1356 
Q 2931 1769 2642 2001 
Q 2353 2234 1838 2234 
L 1294 2234 
L 1294 2753 
L 1863 2753 
Q 2328 2753 2575 2939 
Q 2822 3125 2822 3475 
Q 2822 3834 2567 4026 
Q 2313 4219 1838 4219 
Q 1578 4219 1281 4162 
Q 984 4106 628 3988 
L 628 4550 
Q 988 4650 1302 4700 
Q 1616 4750 1894 4750 
Q 2613 4750 3031 4423 
Q 3450 4097 3450 3541 
Q 3450 3153 3228 2886 
Q 3006 2619 2597 2516 
z
" transform="scale(0.015625)"/>
       </defs>
       <use xlink:href="#DejaVuSans-46"/>
       <use xlink:href="#DejaVuSans-4b" transform="translate(54.984375 0)"/>
       <use xlink:href="#DejaVuSans-13" transform="translate(118.359375 0)"/>
       <use xlink:href="#DejaVuSans-16" transform="translate(181.984375 0)"/>
      </g>
     </g>
    </g>
    <g id="xtick_3">
     <g id="line2d_5">
      <path d="M 254.454375 423.56 
L 254.454375 25.157422 
" clip-path="url(#p53983bee50)" style="fill: none; stroke: #b0b0b0; stroke-opacity: 0.2; stroke-width: 0.8; stroke-linecap: square"/>
     </g>
     <g id="line2d_6">
      <g>
       <use xlink:href="#mada0f82296" x="254.454375" y="423.56" style="stroke: #000000; stroke-width: 0.8"/>
      </g>
     </g>
     <g id="text_3">
      <!-- ch04 -->
      <g transform="translate(256.532813 450.20875) rotate(-90) scale(0.08 -0.08)">
       <defs>
        <path id="DejaVuSans-17" d="M 2419 4116 
L 825 1625 
L 2419 1625 
L 2419 4116 
z
M 2253 4666 
L 3047 4666 
L 3047 1625 
L 3713 1625 
L 3713 1100 
L 3047 1100 
L 3047 0 
L 2419 0 
L 2419 1100 
L 313 1100 
L 313 1709 
L 2253 4666 
z
" transform="scale(0.015625)"/>
       </defs>
       <use xlink:href="#DejaVuSans-46"/>
       <use xlink:href="#DejaVuSans-4b" transform="translate(54.984375 0)"/>
       <use xlink:href="#DejaVuSans-13" transform="translate(118.359375 0)"/>
       <use xlink:href="#DejaVuSans-17" transform="translate(181.984375 0)"/>
      </g>
     </g>
    </g>
    <g id="xtick_4">
     <g id="line2d_7">
      <path d="M 287.030938 423.56 
L 287.030938 25.157422 
" clip-path="url(#p53983bee50)" style="fill: none; stroke: #b0b0b0; stroke-opacity: 0.2; stroke-width: 0.8; stroke-linecap: square"/>
     </g>
     <g id="line2d_8">
      <g>
       <use xlink:href="#mada0f82296" x="287.030938" y="423.56" style="stroke: #000000; stroke-width: 0.8"/>
      </g>
     </g>
     <g id="text_4">
      <!-- ch05 -->
      <g transform="translate(289.109375 450.20875) rotate(-90) scale(0.08 -0.08)">
       <defs>
        <path id="DejaVuSans-18" d="M 691 4666 
L 3169 4666 
L 3169 4134 
L 1269 4134 
L 1269 2991 
Q 1406 3038 1543 3061 
Q 1681 3084 1819 3084 
Q 2600 3084 3056 2656 
Q 3513 2228 3513 1497 
Q 3513 744 3044 326 
Q 2575 -91 1722 -91 
Q 1428 -91 1123 -41 
Q 819 9 494 109 
L 494 744 
Q 775 591 1075 516 
Q 1375 441 1709 441 
Q 2250 441 2565 725 
Q 2881 1009 2881 1497 
Q 2881 1984 2565 2268 
Q 2250 2553 1709 2553 
Q 1456 2553 1204 2497 
Q 953 2441 691 2322 
L 691 4666 
z
" transform="scale(0.015625)"/>
       </defs>
       <use xlink:href="#DejaVuSans-46"/>
       <use xlink:href="#DejaVuSans-4b" transform="translate(54.984375 0)"/>
       <use xlink:href="#DejaVuSans-13" transform="translate(118.359375 0)"/>
       <use xlink:href="#DejaVuSans-18" transform="translate(181.984375 0)"/>
      </g>
     </g>
    </g>
    <g id="xtick_5">
     <g id="line2d_9">
      <path d="M 319.6075 423.56 
L 319.6075 25.157422 
" clip-path="url(#p53983bee50)" style="fill: none; stroke: #b0b0b0; stroke-opacity: 0.2; stroke-width: 0.8; stroke-linecap: square"/>
     </g>
     <g id="line2d_10">
      <g>
       <use xlink:href="#mada0f82296" x="319.6075" y="423.56" style="stroke: #000000; stroke-width: 0.8"/>
      </g>
     </g>
     <g id="text_5">
      <!-- ch06 -->
      <g transform="translate(321.685938 450.20875) rotate(-90) scale(0.08 -0.08)">
       <defs>
        <path id="DejaVuSans-19" d="M 2113 2584 
Q 1688 2584 1439 2293 
Q 1191 2003 1191 1497 
Q 1191 994 1439 701 
Q 1688 409 2113 409 
Q 2538 409 2786 701 
Q 3034 994 3034 1497 
Q 3034 2003 2786 2293 
Q 2538 2584 2113 2584 
z
M 3366 4563 
L 3366 3988 
Q 3128 4100 2886 4159 
Q 2644 4219 2406 4219 
Q 1781 4219 1451 3797 
Q 1122 3375 1075 2522 
Q 1259 2794 1537 2939 
Q 1816 3084 2150 3084 
Q 2853 3084 3261 2657 
Q 3669 2231 3669 1497 
Q 3669 778 3244 343 
Q 2819 -91 2113 -91 
Q 1303 -91 875 529 
Q 447 1150 447 2328 
Q 447 3434 972 4092 
Q 1497 4750 2381 4750 
Q 2619 4750 2861 4703 
Q 3103 4656 3366 4563 
z
" transform="scale(0.015625)"/>
       </defs>
       <use xlink:href="#DejaVuSans-46"/>
       <use xlink:href="#DejaVuSans-4b" transform="translate(54.984375 0)"/>
       <use xlink:href="#DejaVuSans-13" transform="translate(118.359375 0)"/>
       <use xlink:href="#DejaVuSans-19" transform="translate(181.984375 0)"/>
      </g>
     </g>
    </g>
    <g id="xtick_6">
     <g id="line2d_11">
      <path d="M 352.184062 423.56 
L 352.184062 25.157422 
" clip-path="url(#p53983bee50)" style="fill: none; stroke: #b0b0b0; stroke-opacity: 0.2; stroke-width: 0.8; stroke-linecap: square"/>
     </g>
     <g id="line2d_12">
      <g>
       <use xlink:href="#mada0f82296" x="352.184062" y="423.56" style="stroke: #000000; stroke-width: 0.8"/>
      </g>
     </g>
     <g id="text_6">
      <!-- ch07 -->
      <g transform="translate(354.2625 450.20875) rotate(-90) scale(0.08 -0.08)">
       <defs>
        <path id="DejaVuSans-1a" d="M 525 4666 
L 3525 4666 
L 3525 4397 
L 1831 0 
L 1172 0 
L 2766 4134 
L 525 4134 
L 525 4666 
z
" transform="scale(0.015625)"/>
       </defs>
       <use xlink:href="#DejaVuSans-46"/>
       <use xlink:href="#DejaVuSans-4b" transform="translate(54.984375 0)"/>
       <use xlink:href="#DejaVuSans-13" transform="translate(118.359375 0)"/>
       <use xlink:href="#DejaVuSans-1a" transform="translate(181.984375 0)"/>
      </g>
     </g>
    </g>
    <g id="xtick_7">
     <g id="line2d_13">
      <path d="M 384.760625 423.56 
L 384.760625 25.157422 
" clip-path="url(#p53983bee50)" style="fill: none; stroke: #b0b0b0; stroke-opacity: 0.2; stroke-width: 0.8; stroke-linecap: square"/>
     </g>
     <g id="line2d_14">
      <g>
       <use xlink:href="#mada0f82296" x="384.760625" y="423.56" style="stroke: #000000; stroke-width: 0.8"/>
      </g>
     </g>
     <g id="text_7">
      <!-- ch08 -->
      <g transform="translate(386.839063 450.20875) rotate(-90) scale(0.08 -0.08)">
       <defs>
        <path id="DejaVuSans-1b" d="M 2034 2216 
Q 1584 2216 1326 1975 
Q 1069 1734 1069 1313 
Q 1069 891 1326 650 
Q 1584 409 2034 409 
Q 2484 409 2743 651 
Q 3003 894 3003 1313 
Q 3003 1734 2745 1975 
Q 2488 2216 2034 2216 
z
M 1403 2484 
Q 997 2584 770 2862 
Q 544 3141 544 3541 
Q 544 4100 942 4425 
Q 1341 4750 2034 4750 
Q 2731 4750 3128 4425 
Q 3525 4100 3525 3541 
Q 3525 3141 3298 2862 
Q 3072 2584 2669 2484 
Q 3125 2378 3379 2068 
Q 3634 1759 3634 1313 
Q 3634 634 3220 271 
Q 2806 -91 2034 -91 
Q 1263 -91 848 271 
Q 434 634 434 1313 
Q 434 1759 690 2068 
Q 947 2378 1403 2484 
z
M 1172 3481 
Q 1172 3119 1398 2916 
Q 1625 2713 2034 2713 
Q 2441 2713 2670 2916 
Q 2900 3119 2900 3481 
Q 2900 3844 2670 4047 
Q 2441 4250 2034 4250 
Q 1625 4250 1398 4047 
Q 1172 3844 1172 3481 
z
" transform="scale(0.015625)"/>
       </defs>
       <use xlink:href="#DejaVuSans-46"/>
       <use xlink:href="#DejaVuSans-4b" transform="translate(54.984375 0)"/>
       <use xlink:href="#DejaVuSans-13" transform="translate(118.359375 0)"/>
       <use xlink:href="#DejaVuSans-1b" transform="translate(181.984375 0)"/>
      </g>
     </g>
    </g>
    <g id="xtick_8">
     <g id="line2d_15">
      <path d="M 417.337188 423.56 
L 417.337188 25.157422 
" clip-path="url(#p53983bee50)" style="fill: none; stroke: #b0b0b0; stroke-opacity: 0.2; stroke-width: 0.8; stroke-linecap: square"/>
     </g>
     <g id="line2d_16">
      <g>
       <use xlink:href="#mada0f82296" x="417.337188" y="423.56" style="stroke: #000000; stroke-width: 0.8"/>
      </g>
     </g>
     <g id="text_8">
      <!-- ch09 -->
      <g transform="translate(419.415625 450.20875) rotate(-90) scale(0.08 -0.08)">
       <defs>
        <path id="DejaVuSans-1c" d="M 703 97 
L 703 672 
Q 941 559 1184 500 
Q 1428 441 1663 441 
Q 2288 441 2617 861 
Q 2947 1281 2994 2138 
Q 2813 1869 2534 1725 
Q 2256 1581 1919 1581 
Q 1219 1581 811 2004 
Q 403 2428 403 3163 
Q 403 3881 828 4315 
Q 1253 4750 1959 4750 
Q 2769 4750 3195 4129 
Q 3622 3509 3622 2328 
Q 3622 1225 3098 567 
Q 2575 -91 1691 -91 
Q 1453 -91 1209 -44 
Q 966 3 703 97 
z
M 1959 2075 
Q 2384 2075 2632 2365 
Q 2881 2656 2881 3163 
Q 2881 3666 2632 3958 
Q 2384 4250 1959 4250 
Q 1534 4250 1286 3958 
Q 1038 3666 1038 3163 
Q 1038 2656 1286 2365 
Q 1534 2075 1959 2075 
z
" transform="scale(0.015625)"/>
       </defs>
       <use xlink:href="#DejaVuSans-46"/>
       <use xlink:href="#DejaVuSans-4b" transform="translate(54.984375 0)"/>
       <use xlink:href="#DejaVuSans-13" transform="translate(118.359375 0)"/>
       <use xlink:href="#DejaVuSans-1c" transform="translate(181.984375 0)"/>
      </g>
     </g>
    </g>
    <g id="xtick_9">
     <g id="line2d_17">
      <path d="M 449.91375 423.56 
L 449.91375 25.157422 
" clip-path="url(#p53983bee50)" style="fill: none; stroke: #b0b0b0; stroke-opacity: 0.2; stroke-width: 0.8; stroke-linecap: square"/>
     </g>
     <g id="line2d_18">
      <g>
       <use xlink:href="#mada0f82296" x="449.91375" y="423.56" style="stroke: #000000; stroke-width: 0.8"/>
      </g>
     </g>
     <g id="text_9">
      <!-- ch10 -->
      <g transform="translate(451.992188 450.20875) rotate(-90) scale(0.08 -0.08)">
       <defs>
        <path id="DejaVuSans-14" d="M 794 531 
L 1825 531 
L 1825 4091 
L 703 3866 
L 703 4441 
L 1819 4666 
L 2450 4666 
L 2450 531 
L 3481 531 
L 3481 0 
L 794 0 
L 794 531 
z
" transform="scale(0.015625)"/>
       </defs>
       <use xlink:href="#DejaVuSans-46"/>
       <use xlink:href="#DejaVuSans-4b" transform="translate(54.984375 0)"/>
       <use xlink:href="#DejaVuSans-14" transform="translate(118.359375 0)"/>
       <use xlink:href="#DejaVuSans-13" transform="translate(181.984375 0)"/>
      </g>
     </g>
    </g>
    <g id="xtick_10">
     <g id="line2d_19">
      <path d="M 482.490313 423.56 
L 482.490313 25.157422 
" clip-path="url(#p53983bee50)" style="fill: none; stroke: #b0b0b0; stroke-opacity: 0.2; stroke-width: 0.8; stroke-linecap: square"/>
     </g>
     <g id="line2d_20">
      <g>
       <use xlink:href="#mada0f82296" x="482.490313" y="423.56" style="stroke: #000000; stroke-width: 0.8"/>
      </g>
     </g>
     <g id="text_10">
      <!-- ch11 -->
      <g transform="translate(484.56875 450.20875) rotate(-90) scale(0.08 -0.08)">
       <use xlink:href="#DejaVuSans-46"/>
       <use xlink:href="#DejaVuSans-4b" transform="translate(54.984375 0)"/>
       <use xlink:href="#DejaVuSans-14" transform="translate(118.359375 0)"/>
       <use xlink:href="#DejaVuSans-14" transform="translate(181.984375 0)"/>
      </g>
     </g>
    </g>
    <g id="xtick_11">
     <g id="line2d_21">
      <path d="M 515.066875 423.56 
L 515.066875 25.157422 
" clip-path="url(#p53983bee50)" style="fill: none; stroke: #b0b0b0; stroke-opacity: 0.2; stroke-width: 0.8; stroke-linecap: square"/>
     </g>
     <g id="line2d_22">
      <g>
       <use xlink:href="#mada0f82296" x="515.066875" y="423.56" style="stroke: #000000; stroke-width: 0.8"/>
      </g>
     </g>
     <g id="text_11">
      <!-- ch12 -->
      <g transform="translate(517.145312 450.20875) rotate(-90) scale(0.08 -0.08)">
       <use xlink:href="#DejaVuSans-46"/>
       <use xlink:href="#DejaVuSans-4b" transform="translate(54.984375 0)"/>
       <use xlink:href="#DejaVuSans-14" transform="translate(118.359375 0)"/>
       <use xlink:href="#DejaVuSans-15" transform="translate(181.984375 0)"/>
      </g>
     </g>
    </g>
    <g id="xtick_12">
     <g id="line2d_23">
      <path d="M 547.643438 423.56 
L 547.643438 25.157422 
" clip-path="url(#p53983bee50)" style="fill: none; stroke: #b0b0b0; stroke-opacity: 0.2; stroke-width: 0.8; stroke-linecap: square"/>
     </g>
     <g id="line2d_24">
      <g>
       <use xlink:href="#mada0f82296" x="547.643438" y="423.56" style="stroke: #000000; stroke-width: 0.8"/>
      </g>
     </g>
     <g id="text_12">
      <!-- ch13 -->
      <g transform="translate(549.721875 450.20875) rotate(-90) scale(0.08 -0.08)">
       <use xlink:href="#DejaVuSans-46"/>
       <use xlink:href="#DejaVuSans-4b" transform="translate(54.984375 0)"/>
       <use xlink:href="#DejaVuSans-14" transform="translate(118.359375 0)"/>
       <use xlink:href="#DejaVuSans-16" transform="translate(181.984375 0)"/>
      </g>
     </g>
    </g>
    <g id="xtick_13">
     <g id="line2d_25">
      <path d="M 580.22 423.56 
L 580.22 25.157422 
" clip-path="url(#p53983bee50)" style="fill: none; stroke: #b0b0b0; stroke-opacity: 0.2; stroke-width: 0.8; stroke-linecap: square"/>
     </g>
     <g id="line2d_26">
      <g>
       <use xlink:href="#mada0f82296" x="580.22" y="423.56" style="stroke: #000000; stroke-width: 0.8"/>
      </g>
     </g>
     <g id="text_13">
      <!-- ch14 -->
      <g transform="translate(582.298437 450.20875) rotate(-90) scale(0.08 -0.08)">
       <use xlink:href="#DejaVuSans-46"/>
       <use xlink:href="#DejaVuSans-4b" transform="translate(54.984375 0)"/>
       <use xlink:href="#DejaVuSans-14" transform="translate(118.359375 0)"/>
       <use xlink:href="#DejaVuSans-17" transform="translate(181.984375 0)"/>
      </g>
     </g>
    </g>
    <g id="xtick_14">
     <g id="line2d_27">
      <path d="M 612.796563 423.56 
L 612.796563 25.157422 
" clip-path="url(#p53983bee50)" style="fill: none; stroke: #b0b0b0; stroke-opacity: 0.2; stroke-width: 0.8; stroke-linecap: square"/>
     </g>
     <g id="line2d_28">
      <g>
       <use xlink:href="#mada0f82296" x="612.796563" y="423.56" style="stroke: #000000; stroke-width: 0.8"/>
      </g>
     </g>
     <g id="text_14">
      <!-- ch15 -->
      <g transform="translate(614.875 450.20875) rotate(-90) scale(0.08 -0.08)">
       <use xlink:href="#DejaVuSans-46"/>
       <use xlink:href="#DejaVuSans-4b" transform="translate(54.984375 0)"/>
       <use xlink:href="#DejaVuSans-14" transform="translate(118.359375 0)"/>
       <use xlink:href="#DejaVuSans-18" transform="translate(181.984375 0)"/>
      </g>
     </g>
    </g>
    <g id="xtick_15">
     <g id="line2d_29">
      <path d="M 645.373125 423.56 
L 645.373125 25.157422 
" clip-path="url(#p53983bee50)" style="fill: none; stroke: #b0b0b0; stroke-opacity: 0.2; stroke-width: 0.8; stroke-linecap: square"/>
     </g>
     <g id="line2d_30">
      <g>
       <use xlink:href="#mada0f82296" x="645.373125" y="423.56" style="stroke: #000000; stroke-width: 0.8"/>
      </g>
     </g>
     <g id="text_15">
      <!-- ch16 -->
      <g transform="translate(647.451563 450.20875) rotate(-90) scale(0.08 -0.08)">
       <use xlink:href="#DejaVuSans-46"/>
       <use xlink:href="#DejaVuSans-4b" transform="translate(54.984375 0)"/>
       <use xlink:href="#DejaVuSans-14" transform="translate(118.359375 0)"/>
       <use xlink:href="#DejaVuSans-19" transform="translate(181.984375 0)"/>
      </g>
     </g>
    </g>
    <g id="xtick_16">
     <g id="line2d_31">
      <path d="M 677.949687 423.56 
L 677.949687 25.157422 
" clip-path="url(#p53983bee50)" style="fill: none; stroke: #b0b0b0; stroke-opacity: 0.2; stroke-width: 0.8; stroke-linecap: square"/>
     </g>
     <g id="line2d_32">
      <g>
       <use xlink:href="#mada0f82296" x="677.949687" y="423.56" style="stroke: #000000; stroke-width: 0.8"/>
      </g>
     </g>
     <g id="text_16">
      <!-- ch17 -->
      <g transform="translate(680.028125 450.20875) rotate(-90) scale(0.08 -0.08)">
       <use xlink:href="#DejaVuSans-46"/>
       <use xlink:href="#DejaVuSans-4b" transform="translate(54.984375 0)"/>
       <use xlink:href="#DejaVuSans-14" transform="translate(118.359375 0)"/>
       <use xlink:href="#DejaVuSans-1a" transform="translate(181.984375 0)"/>
      </g>
     </g>
    </g>
    <g id="xtick_17">
     <g id="line2d_33">
      <path d="M 710.52625 423.56 
L 710.52625 25.157422 
" clip-path="url(#p53983bee50)" style="fill: none; stroke: #b0b0b0; stroke-opacity: 0.2; stroke-width: 0.8; stroke-linecap: square"/>
     </g>
     <g id="line2d_34">
      <g>
       <use xlink:href="#mada0f82296" x="710.52625" y="423.56" style="stroke: #000000; stroke-width: 0.8"/>
      </g>
     </g>
     <g id="text_17">
      <!-- ch18 -->
      <g transform="translate(712.604687 450.20875) rotate(-90) scale(0.08 -0.08)">
       <use xlink:href="#DejaVuSans-46"/>
       <use xlink:href="#DejaVuSans-4b" transform="translate(54.984375 0)"/>
       <use xlink:href="#DejaVuSans-14" transform="translate(118.359375 0)"/>
       <use xlink:href="#DejaVuSans-1b" transform="translate(181.984375 0)"/>
      </g>
     </g>
    </g>
    <g id="xtick_18">
     <g id="line2d_35">
      <path d="M 743.102813 423.56 
L 743.102813 25.157422 
" clip-path="url(#p53983bee50)" style="fill: none; stroke: #b0b0b0; stroke-opacity: 0.2; stroke-width: 0.8; stroke-linecap: square"/>
     </g>
     <g id="line2d_36">
      <g>
       <use xlink:href="#mada0f82296" x="743.102813" y="423.56" style="stroke: #000000; stroke-width: 0.8"/>
      </g>
     </g>
     <g id="text_18">
      <!-- ch19 -->
      <g transform="translate(745.18125 450.20875) rotate(-90) scale(0.08 -0.08)">
       <use xlink:href="#DejaVuSans-46"/>
       <use xlink:href="#DejaVuSans-4b" transform="translate(54.984375 0)"/>
       <use xlink:href="#DejaVuSans-14" transform="translate(118.359375 0)"/>
       <use xlink:href="#DejaVuSans-1c" transform="translate(181.984375 0)"/>
      </g>
     </g>
    </g>
    <g id="xtick_19">
     <g id="line2d_37">
      <path d="M 775.679375 423.56 
L 775.679375 25.157422 
" clip-path="url(#p53983bee50)" style="fill: none; stroke: #b0b0b0; stroke-opacity: 0.2; stroke-width: 0.8; stroke-linecap: square"/>
     </g>
     <g id="line2d_38">
      <g>
       <use xlink:href="#mada0f82296" x="775.679375" y="423.56" style="stroke: #000000; stroke-width: 0.8"/>
      </g>
     </g>
     <g id="text_19">
      <!-- ch20 -->
      <g transform="translate(777.757812 450.20875) rotate(-90) scale(0.08 -0.08)">
       <use xlink:href="#DejaVuSans-46"/>
       <use xlink:href="#DejaVuSans-4b" transform="translate(54.984375 0)"/>
       <use xlink:href="#DejaVuSans-15" transform="translate(118.359375 0)"/>
       <use xlink:href="#DejaVuSans-13" transform="translate(181.984375 0)"/>
      </g>
     </g>
    </g>
    <g id="xtick_20">
     <g id="line2d_39">
      <path d="M 808.255937 423.56 
L 808.255937 25.157422 
" clip-path="url(#p53983bee50)" style="fill: none; stroke: #b0b0b0; stroke-opacity: 0.2; stroke-width: 0.8; stroke-linecap: square"/>
     </g>
     <g id="line2d_40">
      <g>
       <use xlink:href="#mada0f82296" x="808.255937" y="423.56" style="stroke: #000000; stroke-width: 0.8"/>
      </g>
     </g>
     <g id="text_20">
      <!-- ch21 -->
      <g transform="translate(810.334375 450.20875) rotate(-90) scale(0.08 -0.08)">
       <use xlink:href="#DejaVuSans-46"/>
       <use xlink:href="#DejaVuSans-4b" transform="translate(54.984375 0)"/>
       <use xlink:href="#DejaVuSans-15" transform="translate(118.359375 0)"/>
       <use xlink:href="#DejaVuSans-14" transform="translate(181.984375 0)"/>
      </g>
     </g>
    </g>
    <g id="xtick_21">
     <g id="line2d_41">
      <path d="M 840.8325 423.56 
L 840.8325 25.157422 
" clip-path="url(#p53983bee50)" style="fill: none; stroke: #b0b0b0; stroke-opacity: 0.2; stroke-width: 0.8; stroke-linecap: square"/>
     </g>
     <g id="line2d_42">
      <g>
       <use xlink:href="#mada0f82296" x="840.8325" y="423.56" style="stroke: #000000; stroke-width: 0.8"/>
      </g>
     </g>
     <g id="text_21">
      <!-- ch22 -->
      <g transform="translate(842.910937 450.20875) rotate(-90) scale(0.08 -0.08)">
       <use xlink:href="#DejaVuSans-46"/>
       <use xlink:href="#DejaVuSans-4b" transform="translate(54.984375 0)"/>
       <use xlink:href="#DejaVuSans-15" transform="translate(118.359375 0)"/>
       <use xlink:href="#DejaVuSans-15" transform="translate(181.984375 0)"/>
      </g>
     </g>
    </g>
    <g id="xtick_22">
     <g id="line2d_43">
      <path d="M 873.409063 423.56 
L 873.409063 25.157422 
" clip-path="url(#p53983bee50)" style="fill: none; stroke: #b0b0b0; stroke-opacity: 0.2; stroke-width: 0.8; stroke-linecap: square"/>
     </g>
     <g id="line2d_44">
      <g>
       <use xlink:href="#mada0f82296" x="873.409063" y="423.56" style="stroke: #000000; stroke-width: 0.8"/>
      </g>
     </g>
     <g id="text_22">
      <!-- ch23 -->
      <g transform="translate(875.4875 450.20875) rotate(-90) scale(0.08 -0.08)">
       <use xlink:href="#DejaVuSans-46"/>
       <use xlink:href="#DejaVuSans-4b" transform="translate(54.984375 0)"/>
       <use xlink:href="#DejaVuSans-15" transform="translate(118.359375 0)"/>
       <use xlink:href="#DejaVuSans-16" transform="translate(181.984375 0)"/>
      </g>
     </g>
    </g>
    <g id="xtick_23">
     <g id="line2d_45">
      <path d="M 905.985625 423.56 
L 905.985625 25.157422 
" clip-path="url(#p53983bee50)" style="fill: none; stroke: #b0b0b0; stroke-opacity: 0.2; stroke-width: 0.8; stroke-linecap: square"/>
     </g>
     <g id="line2d_46">
      <g>
       <use xlink:href="#mada0f82296" x="905.985625" y="423.56" style="stroke: #000000; stroke-width: 0.8"/>
      </g>
     </g>
     <g id="text_23">
      <!-- ch24 -->
      <g transform="translate(908.064062 450.20875) rotate(-90) scale(0.08 -0.08)">
       <use xlink:href="#DejaVuSans-46"/>
       <use xlink:href="#DejaVuSans-4b" transform="translate(54.984375 0)"/>
       <use xlink:href="#DejaVuSans-15" transform="translate(118.359375 0)"/>
       <use xlink:href="#DejaVuSans-17" transform="translate(181.984375 0)"/>
      </g>
     </g>
    </g>
    <g id="xtick_24">
     <g id="line2d_47">
      <path d="M 938.562188 423.56 
L 938.562188 25.157422 
" clip-path="url(#p53983bee50)" style="fill: none; stroke: #b0b0b0; stroke-opacity: 0.2; stroke-width: 0.8; stroke-linecap: square"/>
     </g>
     <g id="line2d_48">
      <g>
       <use xlink:href="#mada0f82296" x="938.562188" y="423.56" style="stroke: #000000; stroke-width: 0.8"/>
      </g>
     </g>
     <g id="text_24">
      <!-- ch25 -->
      <g transform="translate(940.640625 450.20875) rotate(-90) scale(0.08 -0.08)">
       <use xlink:href="#DejaVuSans-46"/>
       <use xlink:href="#DejaVuSans-4b" transform="translate(54.984375 0)"/>
       <use xlink:href="#DejaVuSans-15" transform="translate(118.359375 0)"/>
       <use xlink:href="#DejaVuSans-18" transform="translate(181.984375 0)"/>
      </g>
     </g>
    </g>
    <g id="xtick_25">
     <g id="line2d_49">
      <path d="M 971.13875 423.56 
L 971.13875 25.157422 
" clip-path="url(#p53983bee50)" style="fill: none; stroke: #b0b0b0; stroke-opacity: 0.2; stroke-width: 0.8; stroke-linecap: square"/>
     </g>
     <g id="line2d_50">
      <g>
       <use xlink:href="#mada0f82296" x="971.13875" y="423.56" style="stroke: #000000; stroke-width: 0.8"/>
      </g>
     </g>
     <g id="text_25">
      <!-- ch26 -->
      <g transform="translate(973.217188 450.20875) rotate(-90) scale(0.08 -0.08)">
       <use xlink:href="#DejaVuSans-46"/>
       <use xlink:href="#DejaVuSans-4b" transform="translate(54.984375 0)"/>
       <use xlink:href="#DejaVuSans-15" transform="translate(118.359375 0)"/>
       <use xlink:href="#DejaVuSans-19" transform="translate(181.984375 0)"/>
      </g>
     </g>
    </g>
   </g>
   <g id="matplotlib.axis_2">
    <g id="ytick_1">
     <g id="line2d_51">
      <path d="M 163.24 390.359785 
L 997.2 390.359785 
" clip-path="url(#p53983bee50)" style="fill: none; stroke: #b0b0b0; stroke-opacity: 0.2; stroke-width: 0.8; stroke-linecap: square"/>
     </g>
     <g id="line2d_52">
      <defs>
       <path id="mbdb095e846" d="M 0 0 
L -3.5 0 
" style="stroke: #000000; stroke-width: 0.8"/>
      </defs>
      <g>
       <use xlink:href="#mbdb095e846" x="163.24" y="390.359785" style="stroke: #000000; stroke-width: 0.8"/>
      </g>
     </g>
     <g id="text_26">
      <!-- ignore conditioning -->
      <g transform="translate(64.560547 393.969043) scale(0.095 -0.095)">
       <defs>
        <path id="DejaVuSans-4c" d="M 603 3500 
L 1178 3500 
L 1178 0 
L 603 0 
L 603 3500 
z
M 603 4863 
L 1178 4863 
L 1178 4134 
L 603 4134 
L 603 4863 
z
" transform="scale(0.015625)"/>
        <path id="DejaVuSans-4a" d="M 2906 1791 
Q 2906 2416 2648 2759 
Q 2391 3103 1925 3103 
Q 1463 3103 1205 2759 
Q 947 2416 947 1791 
Q 947 1169 1205 825 
Q 1463 481 1925 481 
Q 2391 481 2648 825 
Q 2906 1169 2906 1791 
z
M 3481 434 
Q 3481 -459 3084 -895 
Q 2688 -1331 1869 -1331 
Q 1566 -1331 1297 -1286 
Q 1028 -1241 775 -1147 
L 775 -588 
Q 1028 -725 1275 -790 
Q 1522 -856 1778 -856 
Q 2344 -856 2625 -561 
Q 2906 -266 2906 331 
L 2906 616 
Q 2728 306 2450 153 
Q 2172 0 1784 0 
Q 1141 0 747 490 
Q 353 981 353 1791 
Q 353 2603 747 3093 
Q 1141 3584 1784 3584 
Q 2172 3584 2450 3431 
Q 2728 3278 2906 2969 
L 2906 3500 
L 3481 3500 
L 3481 434 
z
" transform="scale(0.015625)"/>
        <path id="DejaVuSans-51" d="M 3513 2113 
L 3513 0 
L 2938 0 
L 2938 2094 
Q 2938 2591 2744 2837 
Q 2550 3084 2163 3084 
Q 1697 3084 1428 2787 
Q 1159 2491 1159 1978 
L 1159 0 
L 581 0 
L 581 3500 
L 1159 3500 
L 1159 2956 
Q 1366 3272 1645 3428 
Q 1925 3584 2291 3584 
Q 2894 3584 3203 3211 
Q 3513 2838 3513 2113 
z
" transform="scale(0.015625)"/>
        <path id="DejaVuSans-52" d="M 1959 3097 
Q 1497 3097 1228 2736 
Q 959 2375 959 1747 
Q 959 1119 1226 758 
Q 1494 397 1959 397 
Q 2419 397 2687 759 
Q 2956 1122 2956 1747 
Q 2956 2369 2687 2733 
Q 2419 3097 1959 3097 
z
M 1959 3584 
Q 2709 3584 3137 3096 
Q 3566 2609 3566 1747 
Q 3566 888 3137 398 
Q 2709 -91 1959 -91 
Q 1206 -91 779 398 
Q 353 888 353 1747 
Q 353 2609 779 3096 
Q 1206 3584 1959 3584 
z
" transform="scale(0.015625)"/>
        <path id="DejaVuSans-55" d="M 2631 2963 
Q 2534 3019 2420 3045 
Q 2306 3072 2169 3072 
Q 1681 3072 1420 2755 
Q 1159 2438 1159 1844 
L 1159 0 
L 581 0 
L 581 3500 
L 1159 3500 
L 1159 2956 
Q 1341 3275 1631 3429 
Q 1922 3584 2338 3584 
Q 2397 3584 2469 3576 
Q 2541 3569 2628 3553 
L 2631 2963 
z
" transform="scale(0.015625)"/>
        <path id="DejaVuSans-48" d="M 3597 1894 
L 3597 1613 
L 953 1613 
Q 991 1019 1311 708 
Q 1631 397 2203 397 
Q 2534 397 2845 478 
Q 3156 559 3463 722 
L 3463 178 
Q 3153 47 2828 -22 
Q 2503 -91 2169 -91 
Q 1331 -91 842 396 
Q 353 884 353 1716 
Q 353 2575 817 3079 
Q 1281 3584 2069 3584 
Q 2775 3584 3186 3129 
Q 3597 2675 3597 1894 
z
M 3022 2063 
Q 3016 2534 2758 2815 
Q 2500 3097 2075 3097 
Q 1594 3097 1305 2825 
Q 1016 2553 972 2059 
L 3022 2063 
z
" transform="scale(0.015625)"/>
        <path id="DejaVuSans-3" transform="scale(0.015625)"/>
        <path id="DejaVuSans-47" d="M 2906 2969 
L 2906 4863 
L 3481 4863 
L 3481 0 
L 2906 0 
L 2906 525 
Q 2725 213 2448 61 
Q 2172 -91 1784 -91 
Q 1150 -91 751 415 
Q 353 922 353 1747 
Q 353 2572 751 3078 
Q 1150 3584 1784 3584 
Q 2172 3584 2448 3432 
Q 2725 3281 2906 2969 
z
M 947 1747 
Q 947 1113 1208 752 
Q 1469 391 1925 391 
Q 2381 391 2643 752 
Q 2906 1113 2906 1747 
Q 2906 2381 2643 2742 
Q 2381 3103 1925 3103 
Q 1469 3103 1208 2742 
Q 947 2381 947 1747 
z
" transform="scale(0.015625)"/>
        <path id="DejaVuSans-57" d="M 1172 4494 
L 1172 3500 
L 2356 3500 
L 2356 3053 
L 1172 3053 
L 1172 1153 
Q 1172 725 1289 603 
Q 1406 481 1766 481 
L 2356 481 
L 2356 0 
L 1766 0 
Q 1100 0 847 248 
Q 594 497 594 1153 
L 594 3053 
L 172 3053 
L 172 3500 
L 594 3500 
L 594 4494 
L 1172 4494 
z
" transform="scale(0.015625)"/>
       </defs>
       <use xlink:href="#DejaVuSans-4c"/>
       <use xlink:href="#DejaVuSans-4a" transform="translate(27.78125 0)"/>
       <use xlink:href="#DejaVuSans-51" transform="translate(91.265625 0)"/>
       <use xlink:href="#DejaVuSans-52" transform="translate(154.640625 0)"/>
       <use xlink:href="#DejaVuSans-55" transform="translate(215.828125 0)"/>
       <use xlink:href="#DejaVuSans-48" transform="translate(254.734375 0)"/>
       <use xlink:href="#DejaVuSans-3" transform="translate(316.265625 0)"/>
       <use xlink:href="#DejaVuSans-46" transform="translate(348.046875 0)"/>
       <use xlink:href="#DejaVuSans-52" transform="translate(403.03125 0)"/>
       <use xlink:href="#DejaVuSans-51" transform="translate(464.21875 0)"/>
       <use xlink:href="#DejaVuSans-47" transform="translate(527.59375 0)"/>
       <use xlink:href="#DejaVuSans-4c" transform="translate(591.078125 0)"/>
       <use xlink:href="#DejaVuSans-57" transform="translate(618.859375 0)"/>
       <use xlink:href="#DejaVuSans-4c" transform="translate(658.0625 0)"/>
       <use xlink:href="#DejaVuSans-52" transform="translate(685.84375 0)"/>
       <use xlink:href="#DejaVuSans-51" transform="translate(747.03125 0)"/>
       <use xlink:href="#DejaVuSans-4c" transform="translate(810.40625 0)"/>
       <use xlink:href="#DejaVuSans-51" transform="translate(838.1875 0)"/>
       <use xlink:href="#DejaVuSans-4a" transform="translate(901.5625 0)"/>
      </g>
     </g>
    </g>
    <g id="ytick_2">
     <g id="line2d_53">
      <path d="M 163.24 348.859517 
L 997.2 348.859517 
" clip-path="url(#p53983bee50)" style="fill: none; stroke: #b0b0b0; stroke-opacity: 0.2; stroke-width: 0.8; stroke-linecap: square"/>
     </g>
     <g id="line2d_54">
      <g>
       <use xlink:href="#mbdb095e846" x="163.24" y="348.859517" style="stroke: #000000; stroke-width: 0.8"/>
      </g>
     </g>
     <g id="text_27">
      <!-- an action leaks info -->
      <g transform="translate(63.524453 352.468774) scale(0.095 -0.095)">
       <defs>
        <path id="DejaVuSans-44" d="M 2194 1759 
Q 1497 1759 1228 1600 
Q 959 1441 959 1056 
Q 959 750 1161 570 
Q 1363 391 1709 391 
Q 2188 391 2477 730 
Q 2766 1069 2766 1631 
L 2766 1759 
L 2194 1759 
z
M 3341 1997 
L 3341 0 
L 2766 0 
L 2766 531 
Q 2569 213 2275 61 
Q 1981 -91 1556 -91 
Q 1019 -91 701 211 
Q 384 513 384 1019 
Q 384 1609 779 1909 
Q 1175 2209 1959 2209 
L 2766 2209 
L 2766 2266 
Q 2766 2663 2505 2880 
Q 2244 3097 1772 3097 
Q 1472 3097 1187 3025 
Q 903 2953 641 2809 
L 641 3341 
Q 956 3463 1253 3523 
Q 1550 3584 1831 3584 
Q 2591 3584 2966 3190 
Q 3341 2797 3341 1997 
z
" transform="scale(0.015625)"/>
        <path id="DejaVuSans-4f" d="M 603 4863 
L 1178 4863 
L 1178 0 
L 603 0 
L 603 4863 
z
" transform="scale(0.015625)"/>
        <path id="DejaVuSans-4e" d="M 581 4863 
L 1159 4863 
L 1159 1991 
L 2875 3500 
L 3609 3500 
L 1753 1863 
L 3688 0 
L 2938 0 
L 1159 1709 
L 1159 0 
L 581 0 
L 581 4863 
z
" transform="scale(0.015625)"/>
        <path id="DejaVuSans-56" d="M 2834 3397 
L 2834 2853 
Q 2591 2978 2328 3040 
Q 2066 3103 1784 3103 
Q 1356 3103 1142 2972 
Q 928 2841 928 2578 
Q 928 2378 1081 2264 
Q 1234 2150 1697 2047 
L 1894 2003 
Q 2506 1872 2764 1633 
Q 3022 1394 3022 966 
Q 3022 478 2636 193 
Q 2250 -91 1575 -91 
Q 1294 -91 989 -36 
Q 684 19 347 128 
L 347 722 
Q 666 556 975 473 
Q 1284 391 1588 391 
Q 1994 391 2212 530 
Q 2431 669 2431 922 
Q 2431 1156 2273 1281 
Q 2116 1406 1581 1522 
L 1381 1569 
Q 847 1681 609 1914 
Q 372 2147 372 2553 
Q 372 3047 722 3315 
Q 1072 3584 1716 3584 
Q 2034 3584 2315 3537 
Q 2597 3491 2834 3397 
z
" transform="scale(0.015625)"/>
        <path id="DejaVuSans-49" d="M 2375 4863 
L 2375 4384 
L 1825 4384 
Q 1516 4384 1395 4259 
Q 1275 4134 1275 3809 
L 1275 3500 
L 2222 3500 
L 2222 3053 
L 1275 3053 
L 1275 0 
L 697 0 
L 697 3053 
L 147 3053 
L 147 3500 
L 697 3500 
L 697 3744 
Q 697 4328 969 4595 
Q 1241 4863 1831 4863 
L 2375 4863 
z
" transform="scale(0.015625)"/>
       </defs>
       <use xlink:href="#DejaVuSans-44"/>
       <use xlink:href="#DejaVuSans-51" transform="translate(61.28125 0)"/>
       <use xlink:href="#DejaVuSans-3" transform="translate(124.65625 0)"/>
       <use xlink:href="#DejaVuSans-44" transform="translate(156.4375 0)"/>
       <use xlink:href="#DejaVuSans-46" transform="translate(217.71875 0)"/>
       <use xlink:href="#DejaVuSans-57" transform="translate(272.703125 0)"/>
       <use xlink:href="#DejaVuSans-4c" transform="translate(311.90625 0)"/>
       <use xlink:href="#DejaVuSans-52" transform="translate(339.6875 0)"/>
       <use xlink:href="#DejaVuSans-51" transform="translate(400.875 0)"/>
       <use xlink:href="#DejaVuSans-3" transform="translate(464.25 0)"/>
       <use xlink:href="#DejaVuSans-4f" transform="translate(496.03125 0)"/>
       <use xlink:href="#DejaVuSans-48" transform="translate(523.8125 0)"/>
       <use xlink:href="#DejaVuSans-44" transform="translate(585.34375 0)"/>
       <use xlink:href="#DejaVuSans-4e" transform="translate(646.625 0)"/>
       <use xlink:href="#DejaVuSans-56" transform="translate(704.53125 0)"/>
       <use xlink:href="#DejaVuSans-3" transform="translate(756.625 0)"/>
       <use xlink:href="#DejaVuSans-4c" transform="translate(788.40625 0)"/>
       <use xlink:href="#DejaVuSans-51" transform="translate(816.1875 0)"/>
       <use xlink:href="#DejaVuSans-49" transform="translate(879.5625 0)"/>
       <use xlink:href="#DejaVuSans-52" transform="translate(914.765625 0)"/>
      </g>
     </g>
    </g>
    <g id="ytick_3">
     <g id="line2d_55">
      <path d="M 163.24 307.359248 
L 997.2 307.359248 
" clip-path="url(#p53983bee50)" style="fill: none; stroke: #b0b0b0; stroke-opacity: 0.2; stroke-width: 0.8; stroke-linecap: square"/>
     </g>
     <g id="line2d_56">
      <g>
       <use xlink:href="#mbdb095e846" x="163.24" y="307.359248" style="stroke: #000000; stroke-width: 0.8"/>
      </g>
     </g>
     <g id="text_28">
      <!-- mutual != common knowledge -->
      <g transform="translate(9.059766 310.968506) scale(0.095 -0.095)">
       <defs>
        <path id="DejaVuSans-50" d="M 3328 2828 
Q 3544 3216 3844 3400 
Q 4144 3584 4550 3584 
Q 5097 3584 5394 3201 
Q 5691 2819 5691 2113 
L 5691 0 
L 5113 0 
L 5113 2094 
Q 5113 2597 4934 2840 
Q 4756 3084 4391 3084 
Q 3944 3084 3684 2787 
Q 3425 2491 3425 1978 
L 3425 0 
L 2847 0 
L 2847 2094 
Q 2847 2600 2669 2842 
Q 2491 3084 2119 3084 
Q 1678 3084 1418 2786 
Q 1159 2488 1159 1978 
L 1159 0 
L 581 0 
L 581 3500 
L 1159 3500 
L 1159 2956 
Q 1356 3278 1631 3431 
Q 1906 3584 2284 3584 
Q 2666 3584 2933 3390 
Q 3200 3197 3328 2828 
z
" transform="scale(0.015625)"/>
        <path id="DejaVuSans-58" d="M 544 1381 
L 544 3500 
L 1119 3500 
L 1119 1403 
Q 1119 906 1312 657 
Q 1506 409 1894 409 
Q 2359 409 2629 706 
Q 2900 1003 2900 1516 
L 2900 3500 
L 3475 3500 
L 3475 0 
L 2900 0 
L 2900 538 
Q 2691 219 2414 64 
Q 2138 -91 1772 -91 
Q 1169 -91 856 284 
Q 544 659 544 1381 
z
M 1991 3584 
L 1991 3584 
z
" transform="scale(0.015625)"/>
        <path id="DejaVuSans-4" d="M 966 794 
L 1600 794 
L 1600 0 
L 966 0 
L 966 794 
z
M 966 4666 
L 1600 4666 
L 1600 2619 
L 1538 1503 
L 1031 1503 
L 966 2619 
L 966 4666 
z
" transform="scale(0.015625)"/>
        <path id="DejaVuSans-20" d="M 678 2906 
L 4684 2906 
L 4684 2381 
L 678 2381 
L 678 2906 
z
M 678 1631 
L 4684 1631 
L 4684 1100 
L 678 1100 
L 678 1631 
z
" transform="scale(0.015625)"/>
        <path id="DejaVuSans-5a" d="M 269 3500 
L 844 3500 
L 1563 769 
L 2278 3500 
L 2956 3500 
L 3675 769 
L 4391 3500 
L 4966 3500 
L 4050 0 
L 3372 0 
L 2619 2869 
L 1863 0 
L 1184 0 
L 269 3500 
z
" transform="scale(0.015625)"/>
       </defs>
       <use xlink:href="#DejaVuSans-50"/>
       <use xlink:href="#DejaVuSans-58" transform="translate(97.40625 0)"/>
       <use xlink:href="#DejaVuSans-57" transform="translate(160.78125 0)"/>
       <use xlink:href="#DejaVuSans-58" transform="translate(199.984375 0)"/>
       <use xlink:href="#DejaVuSans-44" transform="translate(263.359375 0)"/>
       <use xlink:href="#DejaVuSans-4f" transform="translate(324.640625 0)"/>
       <use xlink:href="#DejaVuSans-3" transform="translate(352.421875 0)"/>
       <use xlink:href="#DejaVuSans-4" transform="translate(384.203125 0)"/>
       <use xlink:href="#DejaVuSans-20" transform="translate(424.296875 0)"/>
       <use xlink:href="#DejaVuSans-3" transform="translate(508.09375 0)"/>
       <use xlink:href="#DejaVuSans-46" transform="translate(539.875 0)"/>
       <use xlink:href="#DejaVuSans-52" transform="translate(594.859375 0)"/>
       <use xlink:href="#DejaVuSans-50" transform="translate(656.046875 0)"/>
       <use xlink:href="#DejaVuSans-50" transform="translate(753.453125 0)"/>
       <use xlink:href="#DejaVuSans-52" transform="translate(850.859375 0)"/>
       <use xlink:href="#DejaVuSans-51" transform="translate(912.046875 0)"/>
       <use xlink:href="#DejaVuSans-3" transform="translate(975.421875 0)"/>
       <use xlink:href="#DejaVuSans-4e" transform="translate(1007.203125 0)"/>
       <use xlink:href="#DejaVuSans-51" transform="translate(1065.109375 0)"/>
       <use xlink:href="#DejaVuSans-52" transform="translate(1128.484375 0)"/>
       <use xlink:href="#DejaVuSans-5a" transform="translate(1189.671875 0)"/>
       <use xlink:href="#DejaVuSans-4f" transform="translate(1271.453125 0)"/>
       <use xlink:href="#DejaVuSans-48" transform="translate(1299.234375 0)"/>
       <use xlink:href="#DejaVuSans-47" transform="translate(1360.765625 0)"/>
       <use xlink:href="#DejaVuSans-4a" transform="translate(1424.25 0)"/>
       <use xlink:href="#DejaVuSans-48" transform="translate(1487.734375 0)"/>
      </g>
     </g>
    </g>
    <g id="ytick_4">
     <g id="line2d_57">
      <path d="M 163.24 265.858979 
L 997.2 265.858979 
" clip-path="url(#p53983bee50)" style="fill: none; stroke: #b0b0b0; stroke-opacity: 0.2; stroke-width: 0.8; stroke-linecap: square"/>
     </g>
     <g id="line2d_58">
      <g>
       <use xlink:href="#mbdb095e846" x="163.24" y="265.858979" style="stroke: #000000; stroke-width: 0.8"/>
      </g>
     </g>
     <g id="text_29">
      <!-- ignore absorbing boundary -->
      <g transform="translate(27.648594 269.468237) scale(0.095 -0.095)">
       <defs>
        <path id="DejaVuSans-45" d="M 3116 1747 
Q 3116 2381 2855 2742 
Q 2594 3103 2138 3103 
Q 1681 3103 1420 2742 
Q 1159 2381 1159 1747 
Q 1159 1113 1420 752 
Q 1681 391 2138 391 
Q 2594 391 2855 752 
Q 3116 1113 3116 1747 
z
M 1159 2969 
Q 1341 3281 1617 3432 
Q 1894 3584 2278 3584 
Q 2916 3584 3314 3078 
Q 3713 2572 3713 1747 
Q 3713 922 3314 415 
Q 2916 -91 2278 -91 
Q 1894 -91 1617 61 
Q 1341 213 1159 525 
L 1159 0 
L 581 0 
L 581 4863 
L 1159 4863 
L 1159 2969 
z
" transform="scale(0.015625)"/>
        <path id="DejaVuSans-5c" d="M 2059 -325 
Q 1816 -950 1584 -1140 
Q 1353 -1331 966 -1331 
L 506 -1331 
L 506 -850 
L 844 -850 
Q 1081 -850 1212 -737 
Q 1344 -625 1503 -206 
L 1606 56 
L 191 3500 
L 800 3500 
L 1894 763 
L 2988 3500 
L 3597 3500 
L 2059 -325 
z
" transform="scale(0.015625)"/>
       </defs>
       <use xlink:href="#DejaVuSans-4c"/>
       <use xlink:href="#DejaVuSans-4a" transform="translate(27.78125 0)"/>
       <use xlink:href="#DejaVuSans-51" transform="translate(91.265625 0)"/>
       <use xlink:href="#DejaVuSans-52" transform="translate(154.640625 0)"/>
       <use xlink:href="#DejaVuSans-55" transform="translate(215.828125 0)"/>
       <use xlink:href="#DejaVuSans-48" transform="translate(254.734375 0)"/>
       <use xlink:href="#DejaVuSans-3" transform="translate(316.265625 0)"/>
       <use xlink:href="#DejaVuSans-44" transform="translate(348.046875 0)"/>
       <use xlink:href="#DejaVuSans-45" transform="translate(409.328125 0)"/>
       <use xlink:href="#DejaVuSans-56" transform="translate(472.8125 0)"/>
       <use xlink:href="#DejaVuSans-52" transform="translate(524.90625 0)"/>
       <use xlink:href="#DejaVuSans-55" transform="translate(586.09375 0)"/>
       <use xlink:href="#DejaVuSans-45" transform="translate(627.203125 0)"/>
       <use xlink:href="#DejaVuSans-4c" transform="translate(690.6875 0)"/>
       <use xlink:href="#DejaVuSans-51" transform="translate(718.46875 0)"/>
       <use xlink:href="#DejaVuSans-4a" transform="translate(781.84375 0)"/>
       <use xlink:href="#DejaVuSans-3" transform="translate(845.328125 0)"/>
       <use xlink:href="#DejaVuSans-45" transform="translate(877.109375 0)"/>
       <use xlink:href="#DejaVuSans-52" transform="translate(940.59375 0)"/>
       <use xlink:href="#DejaVuSans-58" transform="translate(1001.78125 0)"/>
       <use xlink:href="#DejaVuSans-51" transform="translate(1065.15625 0)"/>
       <use xlink:href="#DejaVuSans-47" transform="translate(1128.53125 0)"/>
       <use xlink:href="#DejaVuSans-44" transform="translate(1192.015625 0)"/>
       <use xlink:href="#DejaVuSans-55" transform="translate(1253.296875 0)"/>
       <use xlink:href="#DejaVuSans-5c" transform="translate(1294.40625 0)"/>
      </g>
     </g>
    </g>
    <g id="ytick_5">
     <g id="line2d_59">
      <path d="M 163.24 224.358711 
L 997.2 224.358711 
" clip-path="url(#p53983bee50)" style="fill: none; stroke: #b0b0b0; stroke-opacity: 0.2; stroke-width: 0.8; stroke-linecap: square"/>
     </g>
     <g id="line2d_60">
      <g>
       <use xlink:href="#mbdb095e846" x="163.24" y="224.358711" style="stroke: #000000; stroke-width: 0.8"/>
      </g>
     </g>
     <g id="text_30">
      <!-- EV != price -->
      <g transform="translate(102.285938 227.967969) scale(0.095 -0.095)">
       <defs>
        <path id="DejaVuSans-28" d="M 628 4666 
L 3578 4666 
L 3578 4134 
L 1259 4134 
L 1259 2753 
L 3481 2753 
L 3481 2222 
L 1259 2222 
L 1259 531 
L 3634 531 
L 3634 0 
L 628 0 
L 628 4666 
z
" transform="scale(0.015625)"/>
        <path id="DejaVuSans-39" d="M 1831 0 
L 50 4666 
L 709 4666 
L 2188 738 
L 3669 4666 
L 4325 4666 
L 2547 0 
L 1831 0 
z
" transform="scale(0.015625)"/>
        <path id="DejaVuSans-53" d="M 1159 525 
L 1159 -1331 
L 581 -1331 
L 581 3500 
L 1159 3500 
L 1159 2969 
Q 1341 3281 1617 3432 
Q 1894 3584 2278 3584 
Q 2916 3584 3314 3078 
Q 3713 2572 3713 1747 
Q 3713 922 3314 415 
Q 2916 -91 2278 -91 
Q 1894 -91 1617 61 
Q 1341 213 1159 525 
z
M 3116 1747 
Q 3116 2381 2855 2742 
Q 2594 3103 2138 3103 
Q 1681 3103 1420 2742 
Q 1159 2381 1159 1747 
Q 1159 1113 1420 752 
Q 1681 391 2138 391 
Q 2594 391 2855 752 
Q 3116 1113 3116 1747 
z
" transform="scale(0.015625)"/>
       </defs>
       <use xlink:href="#DejaVuSans-28"/>
       <use xlink:href="#DejaVuSans-39" transform="translate(63.1875 0)"/>
       <use xlink:href="#DejaVuSans-3" transform="translate(131.59375 0)"/>
       <use xlink:href="#DejaVuSans-4" transform="translate(163.375 0)"/>
       <use xlink:href="#DejaVuSans-20" transform="translate(203.46875 0)"/>
       <use xlink:href="#DejaVuSans-3" transform="translate(287.265625 0)"/>
       <use xlink:href="#DejaVuSans-53" transform="translate(319.046875 0)"/>
       <use xlink:href="#DejaVuSans-55" transform="translate(382.53125 0)"/>
       <use xlink:href="#DejaVuSans-4c" transform="translate(423.640625 0)"/>
       <use xlink:href="#DejaVuSans-46" transform="translate(451.421875 0)"/>
       <use xlink:href="#DejaVuSans-48" transform="translate(506.40625 0)"/>
      </g>
     </g>
    </g>
    <g id="ytick_6">
     <g id="line2d_61">
      <path d="M 163.24 182.858442 
L 997.2 182.858442 
" clip-path="url(#p53983bee50)" style="fill: none; stroke: #b0b0b0; stroke-opacity: 0.2; stroke-width: 0.8; stroke-linecap: square"/>
     </g>
     <g id="line2d_62">
      <g>
       <use xlink:href="#mbdb095e846" x="163.24" y="182.858442" style="stroke: #000000; stroke-width: 0.8"/>
      </g>
     </g>
     <g id="text_31">
      <!-- random / beats undefined -->
      <g transform="translate(32.967109 186.4677) scale(0.095 -0.095)">
       <defs>
        <path id="DejaVuSans-12" d="M 1625 4666 
L 2156 4666 
L 531 -594 
L 0 -594 
L 1625 4666 
z
" transform="scale(0.015625)"/>
        <path id="DejaVuSans-13af" d="M 3431 3500 
L 3431 0 
L 2853 0 
L 2853 3053 
L 1275 3053 
L 1275 0 
L 697 0 
L 697 3053 
L 147 3053 
L 147 3500 
L 697 3500 
L 697 3744 
Q 697 4316 967 4589 
Q 1238 4863 1797 4863 
L 2375 4863 
L 2375 4384 
L 1825 4384 
Q 1516 4384 1395 4259 
Q 1275 4134 1275 3809 
L 1275 3500 
L 3431 3500 
z
M 2853 4856 
L 3431 4856 
L 3431 4128 
L 2853 4128 
L 2853 4856 
z
" transform="scale(0.015625)"/>
       </defs>
       <use xlink:href="#DejaVuSans-55"/>
       <use xlink:href="#DejaVuSans-44" transform="translate(41.109375 0)"/>
       <use xlink:href="#DejaVuSans-51" transform="translate(102.390625 0)"/>
       <use xlink:href="#DejaVuSans-47" transform="translate(165.765625 0)"/>
       <use xlink:href="#DejaVuSans-52" transform="translate(229.25 0)"/>
       <use xlink:href="#DejaVuSans-50" transform="translate(290.4375 0)"/>
       <use xlink:href="#DejaVuSans-3" transform="translate(387.84375 0)"/>
       <use xlink:href="#DejaVuSans-12" transform="translate(419.625 0)"/>
       <use xlink:href="#DejaVuSans-3" transform="translate(453.3125 0)"/>
       <use xlink:href="#DejaVuSans-45" transform="translate(485.09375 0)"/>
       <use xlink:href="#DejaVuSans-48" transform="translate(548.578125 0)"/>
       <use xlink:href="#DejaVuSans-44" transform="translate(610.109375 0)"/>
       <use xlink:href="#DejaVuSans-57" transform="translate(671.390625 0)"/>
       <use xlink:href="#DejaVuSans-56" transform="translate(710.59375 0)"/>
       <use xlink:href="#DejaVuSans-3" transform="translate(762.6875 0)"/>
       <use xlink:href="#DejaVuSans-58" transform="translate(794.46875 0)"/>
       <use xlink:href="#DejaVuSans-51" transform="translate(857.84375 0)"/>
       <use xlink:href="#DejaVuSans-47" transform="translate(921.21875 0)"/>
       <use xlink:href="#DejaVuSans-48" transform="translate(984.703125 0)"/>
       <use xlink:href="#DejaVuSans-13af" transform="translate(1046.234375 0)"/>
       <use xlink:href="#DejaVuSans-51" transform="translate(1109.21875 0)"/>
       <use xlink:href="#DejaVuSans-48" transform="translate(1172.59375 0)"/>
       <use xlink:href="#DejaVuSans-47" transform="translate(1234.125 0)"/>
      </g>
     </g>
    </g>
    <g id="ytick_7">
     <g id="line2d_63">
      <path d="M 163.24 141.358174 
L 997.2 141.358174 
" clip-path="url(#p53983bee50)" style="fill: none; stroke: #b0b0b0; stroke-opacity: 0.2; stroke-width: 0.8; stroke-linecap: square"/>
     </g>
     <g id="line2d_64">
      <g>
       <use xlink:href="#mbdb095e846" x="163.24" y="141.358174" style="stroke: #000000; stroke-width: 0.8"/>
      </g>
     </g>
     <g id="text_32">
      <!-- aggregation flips direction -->
      <g transform="translate(31.491641 144.967432) scale(0.095 -0.095)">
       <defs>
        <path id="DejaVuSans-13b0" d="M 1831 4863 
L 3431 4863 
L 3431 0 
L 2853 0 
L 2853 4384 
L 1825 4384 
Q 1516 4384 1395 4259 
Q 1275 4134 1275 3809 
L 1275 3500 
L 2222 3500 
L 2222 3053 
L 1275 3053 
L 1275 0 
L 697 0 
L 697 3053 
L 147 3053 
L 147 3500 
L 697 3500 
L 697 3744 
Q 697 4328 969 4595 
Q 1241 4863 1831 4863 
z
" transform="scale(0.015625)"/>
       </defs>
       <use xlink:href="#DejaVuSans-44"/>
       <use xlink:href="#DejaVuSans-4a" transform="translate(61.28125 0)"/>
       <use xlink:href="#DejaVuSans-4a" transform="translate(124.765625 0)"/>
       <use xlink:href="#DejaVuSans-55" transform="translate(188.25 0)"/>
       <use xlink:href="#DejaVuSans-48" transform="translate(227.15625 0)"/>
       <use xlink:href="#DejaVuSans-4a" transform="translate(288.6875 0)"/>
       <use xlink:href="#DejaVuSans-44" transform="translate(352.171875 0)"/>
       <use xlink:href="#DejaVuSans-57" transform="translate(413.453125 0)"/>
       <use xlink:href="#DejaVuSans-4c" transform="translate(452.65625 0)"/>
       <use xlink:href="#DejaVuSans-52" transform="translate(480.4375 0)"/>
       <use xlink:href="#DejaVuSans-51" transform="translate(541.625 0)"/>
       <use xlink:href="#DejaVuSans-3" transform="translate(605 0)"/>
       <use xlink:href="#DejaVuSans-13b0" transform="translate(636.78125 0)"/>
       <use xlink:href="#DejaVuSans-4c" transform="translate(699.765625 0)"/>
       <use xlink:href="#DejaVuSans-53" transform="translate(727.546875 0)"/>
       <use xlink:href="#DejaVuSans-56" transform="translate(791.03125 0)"/>
       <use xlink:href="#DejaVuSans-3" transform="translate(843.125 0)"/>
       <use xlink:href="#DejaVuSans-47" transform="translate(874.90625 0)"/>
       <use xlink:href="#DejaVuSans-4c" transform="translate(938.390625 0)"/>
       <use xlink:href="#DejaVuSans-55" transform="translate(966.171875 0)"/>
       <use xlink:href="#DejaVuSans-48" transform="translate(1005.078125 0)"/>
       <use xlink:href="#DejaVuSans-46" transform="translate(1066.609375 0)"/>
       <use xlink:href="#DejaVuSans-57" transform="translate(1121.59375 0)"/>
       <use xlink:href="#DejaVuSans-4c" transform="translate(1160.796875 0)"/>
       <use xlink:href="#DejaVuSans-52" transform="translate(1188.578125 0)"/>
       <use xlink:href="#DejaVuSans-51" transform="translate(1249.765625 0)"/>
      </g>
     </g>
    </g>
    <g id="ytick_8">
     <g id="line2d_65">
      <path d="M 163.24 99.857905 
L 997.2 99.857905 
" clip-path="url(#p53983bee50)" style="fill: none; stroke: #b0b0b0; stroke-opacity: 0.2; stroke-width: 0.8; stroke-linecap: square"/>
     </g>
     <g id="line2d_66">
      <g>
       <use xlink:href="#mbdb095e846" x="163.24" y="99.857905" style="stroke: #000000; stroke-width: 0.8"/>
      </g>
     </g>
     <g id="text_33">
      <!-- transitivity assumed -->
      <g transform="translate(59.317734 103.467163) scale(0.095 -0.095)">
       <defs>
        <path id="DejaVuSans-59" d="M 191 3500 
L 800 3500 
L 1894 563 
L 2988 3500 
L 3597 3500 
L 2284 0 
L 1503 0 
L 191 3500 
z
" transform="scale(0.015625)"/>
       </defs>
       <use xlink:href="#DejaVuSans-57"/>
       <use xlink:href="#DejaVuSans-55" transform="translate(39.203125 0)"/>
       <use xlink:href="#DejaVuSans-44" transform="translate(80.3125 0)"/>
       <use xlink:href="#DejaVuSans-51" transform="translate(141.59375 0)"/>
       <use xlink:href="#DejaVuSans-56" transform="translate(204.96875 0)"/>
       <use xlink:href="#DejaVuSans-4c" transform="translate(257.0625 0)"/>
       <use xlink:href="#DejaVuSans-57" transform="translate(284.84375 0)"/>
       <use xlink:href="#DejaVuSans-4c" transform="translate(324.046875 0)"/>
       <use xlink:href="#DejaVuSans-59" transform="translate(351.828125 0)"/>
       <use xlink:href="#DejaVuSans-4c" transform="translate(411.015625 0)"/>
       <use xlink:href="#DejaVuSans-57" transform="translate(438.796875 0)"/>
       <use xlink:href="#DejaVuSans-5c" transform="translate(478 0)"/>
       <use xlink:href="#DejaVuSans-3" transform="translate(537.1875 0)"/>
       <use xlink:href="#DejaVuSans-44" transform="translate(568.96875 0)"/>
       <use xlink:href="#DejaVuSans-56" transform="translate(630.25 0)"/>
       <use xlink:href="#DejaVuSans-56" transform="translate(682.34375 0)"/>
       <use xlink:href="#DejaVuSans-58" transform="translate(734.4375 0)"/>
       <use xlink:href="#DejaVuSans-50" transform="translate(797.8125 0)"/>
       <use xlink:href="#DejaVuSans-48" transform="translate(895.21875 0)"/>
       <use xlink:href="#DejaVuSans-47" transform="translate(956.75 0)"/>
      </g>
     </g>
    </g>
    <g id="ytick_9">
     <g id="line2d_67">
      <path d="M 163.24 58.357637 
L 997.2 58.357637 
" clip-path="url(#p53983bee50)" style="fill: none; stroke: #b0b0b0; stroke-opacity: 0.2; stroke-width: 0.8; stroke-linecap: square"/>
     </g>
     <g id="line2d_68">
      <g>
       <use xlink:href="#mbdb095e846" x="163.24" y="58.357637" style="stroke: #000000; stroke-width: 0.8"/>
      </g>
     </g>
     <g id="text_34">
      <!-- non-measurable -->
      <g transform="translate(78.825391 61.966895) scale(0.095 -0.095)">
       <defs>
        <path id="DejaVuSans-10" d="M 313 2009 
L 1997 2009 
L 1997 1497 
L 313 1497 
L 313 2009 
z
" transform="scale(0.015625)"/>
       </defs>
       <use xlink:href="#DejaVuSans-51"/>
       <use xlink:href="#DejaVuSans-52" transform="translate(63.375 0)"/>
       <use xlink:href="#DejaVuSans-51" transform="translate(124.5625 0)"/>
       <use xlink:href="#DejaVuSans-10" transform="translate(187.9375 0)"/>
       <use xlink:href="#DejaVuSans-50" transform="translate(224.015625 0)"/>
       <use xlink:href="#DejaVuSans-48" transform="translate(321.421875 0)"/>
       <use xlink:href="#DejaVuSans-44" transform="translate(382.953125 0)"/>
       <use xlink:href="#DejaVuSans-56" transform="translate(444.234375 0)"/>
       <use xlink:href="#DejaVuSans-58" transform="translate(496.328125 0)"/>
       <use xlink:href="#DejaVuSans-55" transform="translate(559.703125 0)"/>
       <use xlink:href="#DejaVuSans-44" transform="translate(600.8125 0)"/>
       <use xlink:href="#DejaVuSans-45" transform="translate(662.09375 0)"/>
       <use xlink:href="#DejaVuSans-4f" transform="translate(725.578125 0)"/>
       <use xlink:href="#DejaVuSans-48" transform="translate(753.359375 0)"/>
      </g>
     </g>
    </g>
   </g>
   <g id="patch_5">
    <path d="M 163.24 423.56 
L 163.24 25.157422 
" style="fill: none; stroke: #000000; stroke-width: 0.8; stroke-linejoin: miter; stroke-linecap: square"/>
   </g>
   <g id="patch_6">
    <path d="M 997.2 423.56 
L 997.2 25.157422 
" style="fill: none; stroke: #000000; stroke-width: 0.8; stroke-linejoin: miter; stroke-linecap: square"/>
   </g>
   <g id="patch_7">
    <path d="M 163.24 423.56 
L 997.2 423.56 
" style="fill: none; stroke: #000000; stroke-width: 0.8; stroke-linejoin: miter; stroke-linecap: square"/>
   </g>
   <g id="patch_8">
    <path d="M 163.24 25.157422 
L 997.2 25.157422 
" style="fill: none; stroke: #000000; stroke-width: 0.8; stroke-linejoin: miter; stroke-linecap: square"/>
   </g>
   <g id="PathCollection_1">
    <defs>
     <path id="mab9137dcaf" d="M 0 5.91608 
C 1.568963 5.91608 3.073876 5.292724 4.1833 4.1833 
C 5.292724 3.073876 5.91608 1.568963 5.91608 0 
C 5.91608 -1.568963 5.292724 -3.073876 4.1833 -4.1833 
C 3.073876 -5.292724 1.568963 -5.91608 0 -5.91608 
C -1.568963 -5.91608 -3.073876 -5.292724 -4.1833 -4.1833 
C -5.292724 -3.073876 -5.91608 -1.568963 -5.91608 0 
C -5.91608 1.568963 -5.292724 3.073876 -4.1833 4.1833 
C -3.073876 5.292724 -1.568963 5.91608 0 5.91608 
z
" style="stroke: #ff7f0e"/>
    </defs>
    <g clip-path="url(#p53983bee50)">
     <use xlink:href="#mab9137dcaf" x="189.30125" y="348.859517" style="fill: #ff7f0e; stroke: #ff7f0e"/>
    </g>
   </g>
   <g id="PathCollection_2">
    <g clip-path="url(#p53983bee50)">
     <use xlink:href="#mab9137dcaf" x="221.877813" y="348.859517" style="fill: #ff7f0e; stroke: #ff7f0e"/>
    </g>
   </g>
   <g id="PathCollection_3">
    <g clip-path="url(#p53983bee50)">
     <use xlink:href="#mab9137dcaf" x="254.454375" y="348.859517" style="fill: #ff7f0e; stroke: #ff7f0e"/>
    </g>
   </g>
   <g id="PathCollection_4">
    <defs>
     <path id="m7650f7f75d" d="M 0 5.91608 
C 1.568963 5.91608 3.073876 5.292724 4.1833 4.1833 
C 5.292724 3.073876 5.91608 1.568963 5.91608 0 
C 5.91608 -1.568963 5.292724 -3.073876 4.1833 -4.1833 
C 3.073876 -5.292724 1.568963 -5.91608 0 -5.91608 
C -1.568963 -5.91608 -3.073876 -5.292724 -4.1833 -4.1833 
C -5.292724 -3.073876 -5.91608 -1.568963 -5.91608 0 
C -5.91608 1.568963 -5.292724 3.073876 -4.1833 4.1833 
C -3.073876 5.292724 -1.568963 5.91608 0 5.91608 
z
" style="stroke: #1f77b4"/>
    </defs>
    <g clip-path="url(#p53983bee50)">
     <use xlink:href="#m7650f7f75d" x="287.030938" y="390.359785" style="fill: #1f77b4; stroke: #1f77b4"/>
    </g>
   </g>
   <g id="PathCollection_5">
    <g clip-path="url(#p53983bee50)">
     <use xlink:href="#m7650f7f75d" x="319.6075" y="390.359785" style="fill: #1f77b4; stroke: #1f77b4"/>
    </g>
   </g>
   <g id="PathCollection_6">
    <defs>
     <path id="md5445674a5" d="M 0 5.91608 
C 1.568963 5.91608 3.073876 5.292724 4.1833 4.1833 
C 5.292724 3.073876 5.91608 1.568963 5.91608 0 
C 5.91608 -1.568963 5.292724 -3.073876 4.1833 -4.1833 
C 3.073876 -5.292724 1.568963 -5.91608 0 -5.91608 
C -1.568963 -5.91608 -3.073876 -5.292724 -4.1833 -4.1833 
C -5.292724 -3.073876 -5.91608 -1.568963 -5.91608 0 
C -5.91608 1.568963 -5.292724 3.073876 -4.1833 4.1833 
C -3.073876 5.292724 -1.568963 5.91608 0 5.91608 
z
" style="stroke: #e377c2"/>
    </defs>
    <g clip-path="url(#p53983bee50)">
     <use xlink:href="#md5445674a5" x="352.184062" y="141.358174" style="fill: #e377c2; stroke: #e377c2"/>
    </g>
   </g>
   <g id="PathCollection_7">
    <g clip-path="url(#p53983bee50)">
     <use xlink:href="#m7650f7f75d" x="384.760625" y="390.359785" style="fill: #1f77b4; stroke: #1f77b4"/>
    </g>
   </g>
   <g id="PathCollection_8">
    <g clip-path="url(#p53983bee50)">
     <use xlink:href="#md5445674a5" x="417.337188" y="141.358174" style="fill: #e377c2; stroke: #e377c2"/>
    </g>
   </g>
   <g id="PathCollection_9">
    <defs>
     <path id="mdd9990de2d" d="M 0 5.91608 
C 1.568963 5.91608 3.073876 5.292724 4.1833 4.1833 
C 5.292724 3.073876 5.91608 1.568963 5.91608 0 
C 5.91608 -1.568963 5.292724 -3.073876 4.1833 -4.1833 
C 3.073876 -5.292724 1.568963 -5.91608 0 -5.91608 
C -1.568963 -5.91608 -3.073876 -5.292724 -4.1833 -4.1833 
C -5.292724 -3.073876 -5.91608 -1.568963 -5.91608 0 
C -5.91608 1.568963 -5.292724 3.073876 -4.1833 4.1833 
C -3.073876 5.292724 -1.568963 5.91608 0 5.91608 
z
" style="stroke: #d62728"/>
    </defs>
    <g clip-path="url(#p53983bee50)">
     <use xlink:href="#mdd9990de2d" x="449.91375" y="265.858979" style="fill: #d62728; stroke: #d62728"/>
    </g>
   </g>
   <g id="PathCollection_10">
    <g clip-path="url(#p53983bee50)">
     <use xlink:href="#m7650f7f75d" x="482.490313" y="390.359785" style="fill: #1f77b4; stroke: #1f77b4"/>
    </g>
   </g>
   <g id="PathCollection_11">
    <defs>
     <path id="m39215115b7" d="M 0 5.91608 
C 1.568963 5.91608 3.073876 5.292724 4.1833 4.1833 
C 5.292724 3.073876 5.91608 1.568963 5.91608 0 
C 5.91608 -1.568963 5.292724 -3.073876 4.1833 -4.1833 
C 3.073876 -5.292724 1.568963 -5.91608 0 -5.91608 
C -1.568963 -5.91608 -3.073876 -5.292724 -4.1833 -4.1833 
C -5.292724 -3.073876 -5.91608 -1.568963 -5.91608 0 
C -5.91608 1.568963 -5.292724 3.073876 -4.1833 4.1833 
C -3.073876 5.292724 -1.568963 5.91608 0 5.91608 
z
" style="stroke: #9467bd"/>
    </defs>
    <g clip-path="url(#p53983bee50)">
     <use xlink:href="#m39215115b7" x="515.066875" y="224.358711" style="fill: #9467bd; stroke: #9467bd"/>
    </g>
   </g>
   <g id="PathCollection_12">
    <g clip-path="url(#p53983bee50)">
     <use xlink:href="#m39215115b7" x="547.643438" y="224.358711" style="fill: #9467bd; stroke: #9467bd"/>
    </g>
   </g>
   <g id="PathCollection_13">
    <path d="M 547.643438 64.273717 
C 549.2124 64.273717 550.717313 63.650361 551.826738 62.540937 
C 552.936162 61.431513 553.559517 59.926599 553.559517 58.357637 
C 553.559517 56.788674 552.936162 55.283761 551.826738 54.174337 
C 550.717313 53.064912 549.2124 52.441557 547.643438 52.441557 
C 546.074475 52.441557 544.569562 53.064912 543.460137 54.174337 
C 542.350713 55.283761 541.727358 56.788674 541.727358 58.357637 
C 541.727358 59.926599 542.350713 61.431513 543.460137 62.540937 
C 544.569562 63.650361 546.074475 64.273717 547.643438 64.273717 
L 547.643438 64.273717 
z
" clip-path="url(#p53983bee50)" style="fill: none; stroke: #bcbd22; stroke-width: 1.8"/>
   </g>
   <g id="PathCollection_14">
    <g clip-path="url(#p53983bee50)">
     <use xlink:href="#md5445674a5" x="580.22" y="141.358174" style="fill: #e377c2; stroke: #e377c2"/>
    </g>
   </g>
   <g id="PathCollection_15">
    <defs>
     <path id="m72e068d7ed" d="M 0 5.91608 
C 1.568963 5.91608 3.073876 5.292724 4.1833 4.1833 
C 5.292724 3.073876 5.91608 1.568963 5.91608 0 
C 5.91608 -1.568963 5.292724 -3.073876 4.1833 -4.1833 
C 3.073876 -5.292724 1.568963 -5.91608 0 -5.91608 
C -1.568963 -5.91608 -3.073876 -5.292724 -4.1833 -4.1833 
C -5.292724 -3.073876 -5.91608 -1.568963 -5.91608 0 
C -5.91608 1.568963 -5.292724 3.073876 -4.1833 4.1833 
C -3.073876 5.292724 -1.568963 5.91608 0 5.91608 
z
" style="stroke: #2ca02c"/>
    </defs>
    <g clip-path="url(#p53983bee50)">
     <use xlink:href="#m72e068d7ed" x="612.796563" y="307.359248" style="fill: #2ca02c; stroke: #2ca02c"/>
    </g>
   </g>
   <g id="PathCollection_16">
    <g clip-path="url(#p53983bee50)">
     <use xlink:href="#m72e068d7ed" x="645.373125" y="307.359248" style="fill: #2ca02c; stroke: #2ca02c"/>
    </g>
   </g>
   <g id="PathCollection_17">
    <g clip-path="url(#p53983bee50)">
     <use xlink:href="#m72e068d7ed" x="710.52625" y="307.359248" style="fill: #2ca02c; stroke: #2ca02c"/>
    </g>
   </g>
   <g id="PathCollection_18">
    <defs>
     <path id="m8f1bdd4d7a" d="M 0 5.91608 
C 1.568963 5.91608 3.073876 5.292724 4.1833 4.1833 
C 5.292724 3.073876 5.91608 1.568963 5.91608 0 
C 5.91608 -1.568963 5.292724 -3.073876 4.1833 -4.1833 
C 3.073876 -5.292724 1.568963 -5.91608 0 -5.91608 
C -1.568963 -5.91608 -3.073876 -5.292724 -4.1833 -4.1833 
C -5.292724 -3.073876 -5.91608 -1.568963 -5.91608 0 
C -5.91608 1.568963 -5.292724 3.073876 -4.1833 4.1833 
C -3.073876 5.292724 -1.568963 5.91608 0 5.91608 
z
" style="stroke: #7f7f7f"/>
    </defs>
    <g clip-path="url(#p53983bee50)">
     <use xlink:href="#m8f1bdd4d7a" x="743.102813" y="99.857905" style="fill: #7f7f7f; stroke: #7f7f7f"/>
    </g>
   </g>
   <g id="PathCollection_19">
    <path d="M 743.102813 188.774522 
C 744.671775 188.774522 746.176688 188.151167 747.286113 187.041743 
C 748.395537 185.932318 749.018892 184.427405 749.018892 182.858442 
C 749.018892 181.28948 748.395537 179.784566 747.286113 178.675142 
C 746.176688 177.565718 744.671775 176.942363 743.102813 176.942363 
C 741.53385 176.942363 740.028937 177.565718 738.919512 178.675142 
C 737.810088 179.784566 737.186733 181.28948 737.186733 182.858442 
C 737.186733 184.427405 737.810088 185.932318 738.919512 187.041743 
C 740.028937 188.151167 741.53385 188.774522 743.102813 188.774522 
L 743.102813 188.774522 
z
" clip-path="url(#p53983bee50)" style="fill: none; stroke: #8c564b; stroke-width: 1.8"/>
   </g>
   <g id="PathCollection_20">
    <g clip-path="url(#p53983bee50)">
     <use xlink:href="#m8f1bdd4d7a" x="775.679375" y="99.857905" style="fill: #7f7f7f; stroke: #7f7f7f"/>
    </g>
   </g>
   <g id="PathCollection_21">
    <g clip-path="url(#p53983bee50)">
     <use xlink:href="#md5445674a5" x="808.255937" y="141.358174" style="fill: #e377c2; stroke: #e377c2"/>
    </g>
   </g>
   <g id="PathCollection_22">
    <defs>
     <path id="mda70102df7" d="M 0 5.91608 
C 1.568963 5.91608 3.073876 5.292724 4.1833 4.1833 
C 5.292724 3.073876 5.91608 1.568963 5.91608 0 
C 5.91608 -1.568963 5.292724 -3.073876 4.1833 -4.1833 
C 3.073876 -5.292724 1.568963 -5.91608 0 -5.91608 
C -1.568963 -5.91608 -3.073876 -5.292724 -4.1833 -4.1833 
C -5.292724 -3.073876 -5.91608 -1.568963 -5.91608 0 
C -5.91608 1.568963 -5.292724 3.073876 -4.1833 4.1833 
C -3.073876 5.292724 -1.568963 5.91608 0 5.91608 
z
" style="stroke: #8c564b"/>
    </defs>
    <g clip-path="url(#p53983bee50)">
     <use xlink:href="#mda70102df7" x="873.409063" y="182.858442" style="fill: #8c564b; stroke: #8c564b"/>
    </g>
   </g>
   <g id="PathCollection_23">
    <g clip-path="url(#p53983bee50)">
     <use xlink:href="#mda70102df7" x="905.985625" y="182.858442" style="fill: #8c564b; stroke: #8c564b"/>
    </g>
   </g>
   <g id="PathCollection_24">
    <g clip-path="url(#p53983bee50)">
     <use xlink:href="#mda70102df7" x="938.562188" y="182.858442" style="fill: #8c564b; stroke: #8c564b"/>
    </g>
   </g>
   <g id="PathCollection_25">
    <defs>
     <path id="m9b4f54624f" d="M 0 5.91608 
C 1.568963 5.91608 3.073876 5.292724 4.1833 4.1833 
C 5.292724 3.073876 5.91608 1.568963 5.91608 0 
C 5.91608 -1.568963 5.292724 -3.073876 4.1833 -4.1833 
C 3.073876 -5.292724 1.568963 -5.91608 0 -5.91608 
C -1.568963 -5.91608 -3.073876 -5.292724 -4.1833 -4.1833 
C -5.292724 -3.073876 -5.91608 -1.568963 -5.91608 0 
C -5.91608 1.568963 -5.292724 3.073876 -4.1833 4.1833 
C -3.073876 5.292724 -1.568963 5.91608 0 5.91608 
z
" style="stroke: #bcbd22"/>
    </defs>
    <g clip-path="url(#p53983bee50)">
     <use xlink:href="#m9b4f54624f" x="971.13875" y="58.357637" style="fill: #bcbd22; stroke: #bcbd22"/>
    </g>
   </g>
   <g id="patch_9">
    <path d="M 345.760949 63.760206 
Q 510.903651 116.778754 674.981835 169.455542 
" style="fill: none; stroke: #555555; stroke-linecap: round"/>
    <path d="M 672.360149 166.891412 
L 674.981835 169.455542 
L 671.35752 170.014413 
" style="fill: none; stroke: #555555; stroke-linecap: round"/>
   </g>
   <g id="text_35">
    <!-- ch17, ch22: no dot on purpose - -->
    <g style="fill: #555555" transform="translate(221.877813 48.515395) scale(0.082 -0.082)">
     <defs>
      <path id="DejaVuSans-f" d="M 750 794 
L 1409 794 
L 1409 256 
L 897 -744 
L 494 -744 
L 750 256 
L 750 794 
z
" transform="scale(0.015625)"/>
      <path id="DejaVuSans-1d" d="M 750 794 
L 1409 794 
L 1409 0 
L 750 0 
L 750 794 
z
M 750 3309 
L 1409 3309 
L 1409 2516 
L 750 2516 
L 750 3309 
z
" transform="scale(0.015625)"/>
     </defs>
     <use xlink:href="#DejaVuSans-46"/>
     <use xlink:href="#DejaVuSans-4b" transform="translate(54.984375 0)"/>
     <use xlink:href="#DejaVuSans-14" transform="translate(118.359375 0)"/>
     <use xlink:href="#DejaVuSans-1a" transform="translate(181.984375 0)"/>
     <use xlink:href="#DejaVuSans-f" transform="translate(245.609375 0)"/>
     <use xlink:href="#DejaVuSans-3" transform="translate(277.390625 0)"/>
     <use xlink:href="#DejaVuSans-46" transform="translate(309.171875 0)"/>
     <use xlink:href="#DejaVuSans-4b" transform="translate(364.15625 0)"/>
     <use xlink:href="#DejaVuSans-15" transform="translate(427.53125 0)"/>
     <use xlink:href="#DejaVuSans-15" transform="translate(491.15625 0)"/>
     <use xlink:href="#DejaVuSans-1d" transform="translate(554.78125 0)"/>
     <use xlink:href="#DejaVuSans-3" transform="translate(588.46875 0)"/>
     <use xlink:href="#DejaVuSans-51" transform="translate(620.25 0)"/>
     <use xlink:href="#DejaVuSans-52" transform="translate(683.625 0)"/>
     <use xlink:href="#DejaVuSans-3" transform="translate(744.8125 0)"/>
     <use xlink:href="#DejaVuSans-47" transform="translate(776.59375 0)"/>
     <use xlink:href="#DejaVuSans-52" transform="translate(840.078125 0)"/>
     <use xlink:href="#DejaVuSans-57" transform="translate(901.265625 0)"/>
     <use xlink:href="#DejaVuSans-3" transform="translate(940.46875 0)"/>
     <use xlink:href="#DejaVuSans-52" transform="translate(972.25 0)"/>
     <use xlink:href="#DejaVuSans-51" transform="translate(1033.4375 0)"/>
     <use xlink:href="#DejaVuSans-3" transform="translate(1096.8125 0)"/>
     <use xlink:href="#DejaVuSans-53" transform="translate(1128.59375 0)"/>
     <use xlink:href="#DejaVuSans-58" transform="translate(1192.078125 0)"/>
     <use xlink:href="#DejaVuSans-55" transform="translate(1255.453125 0)"/>
     <use xlink:href="#DejaVuSans-53" transform="translate(1296.5625 0)"/>
     <use xlink:href="#DejaVuSans-52" transform="translate(1360.046875 0)"/>
     <use xlink:href="#DejaVuSans-56" transform="translate(1421.234375 0)"/>
     <use xlink:href="#DejaVuSans-48" transform="translate(1473.328125 0)"/>
     <use xlink:href="#DejaVuSans-3" transform="translate(1534.859375 0)"/>
     <use xlink:href="#DejaVuSans-10" transform="translate(1566.640625 0)"/>
    </g>
    <!-- no accepted solution, outside the 9 types -->
    <g style="fill: #555555" transform="translate(221.877813 58.357637) scale(0.082 -0.082)">
     <use xlink:href="#DejaVuSans-51"/>
     <use xlink:href="#DejaVuSans-52" transform="translate(63.375 0)"/>
     <use xlink:href="#DejaVuSans-3" transform="translate(124.5625 0)"/>
     <use xlink:href="#DejaVuSans-44" transform="translate(156.34375 0)"/>
     <use xlink:href="#DejaVuSans-46" transform="translate(217.625 0)"/>
     <use xlink:href="#DejaVuSans-46" transform="translate(272.609375 0)"/>
     <use xlink:href="#DejaVuSans-48" transform="translate(327.59375 0)"/>
     <use xlink:href="#DejaVuSans-53" transform="translate(389.125 0)"/>
     <use xlink:href="#DejaVuSans-57" transform="translate(452.609375 0)"/>
     <use xlink:href="#DejaVuSans-48" transform="translate(491.8125 0)"/>
     <use xlink:href="#DejaVuSans-47" transform="translate(553.34375 0)"/>
     <use xlink:href="#DejaVuSans-3" transform="translate(616.828125 0)"/>
     <use xlink:href="#DejaVuSans-56" transform="translate(648.609375 0)"/>
     <use xlink:href="#DejaVuSans-52" transform="translate(700.703125 0)"/>
     <use xlink:href="#DejaVuSans-4f" transform="translate(761.890625 0)"/>
     <use xlink:href="#DejaVuSans-58" transform="translate(789.671875 0)"/>
     <use xlink:href="#DejaVuSans-57" transform="translate(853.046875 0)"/>
     <use xlink:href="#DejaVuSans-4c" transform="translate(892.25 0)"/>
     <use xlink:href="#DejaVuSans-52" transform="translate(920.03125 0)"/>
     <use xlink:href="#DejaVuSans-51" transform="translate(981.21875 0)"/>
     <use xlink:href="#DejaVuSans-f" transform="translate(1044.59375 0)"/>
     <use xlink:href="#DejaVuSans-3" transform="translate(1076.375 0)"/>
     <use xlink:href="#DejaVuSans-52" transform="translate(1108.15625 0)"/>
     <use xlink:href="#DejaVuSans-58" transform="translate(1169.34375 0)"/>
     <use xlink:href="#DejaVuSans-57" transform="translate(1232.71875 0)"/>
     <use xlink:href="#DejaVuSans-56" transform="translate(1271.921875 0)"/>
     <use xlink:href="#DejaVuSans-4c" transform="translate(1324.015625 0)"/>
     <use xlink:href="#DejaVuSans-47" transform="translate(1351.796875 0)"/>
     <use xlink:href="#DejaVuSans-48" transform="translate(1415.28125 0)"/>
     <use xlink:href="#DejaVuSans-3" transform="translate(1476.8125 0)"/>
     <use xlink:href="#DejaVuSans-57" transform="translate(1508.59375 0)"/>
     <use xlink:href="#DejaVuSans-4b" transform="translate(1547.796875 0)"/>
     <use xlink:href="#DejaVuSans-48" transform="translate(1611.171875 0)"/>
     <use xlink:href="#DejaVuSans-3" transform="translate(1672.703125 0)"/>
     <use xlink:href="#DejaVuSans-1c" transform="translate(1704.484375 0)"/>
     <use xlink:href="#DejaVuSans-3" transform="translate(1768.109375 0)"/>
     <use xlink:href="#DejaVuSans-57" transform="translate(1799.890625 0)"/>
     <use xlink:href="#DejaVuSans-5c" transform="translate(1839.09375 0)"/>
     <use xlink:href="#DejaVuSans-53" transform="translate(1898.28125 0)"/>
     <use xlink:href="#DejaVuSans-48" transform="translate(1961.765625 0)"/>
     <use xlink:href="#DejaVuSans-56" transform="translate(2023.296875 0)"/>
    </g>
   </g>
   <g id="text_36">
    <!-- 9 assumption types x chapters 02-26 (open circle = secondary link) -->
    <g transform="translate(393.3575 19.157422) scale(0.11 -0.11)">
     <defs>
      <path id="DejaVuSans-5b" d="M 3513 3500 
L 2247 1797 
L 3578 0 
L 2900 0 
L 1881 1375 
L 863 0 
L 184 0 
L 1544 1831 
L 300 3500 
L 978 3500 
L 1906 2253 
L 2834 3500 
L 3513 3500 
z
" transform="scale(0.015625)"/>
      <path id="DejaVuSans-b" d="M 1984 4856 
Q 1566 4138 1362 3434 
Q 1159 2731 1159 2009 
Q 1159 1288 1364 580 
Q 1569 -128 1984 -844 
L 1484 -844 
Q 1016 -109 783 600 
Q 550 1309 550 2009 
Q 550 2706 781 3412 
Q 1013 4119 1484 4856 
L 1984 4856 
z
" transform="scale(0.015625)"/>
      <path id="DejaVuSans-c" d="M 513 4856 
L 1013 4856 
Q 1481 4119 1714 3412 
Q 1947 2706 1947 2009 
Q 1947 1309 1714 600 
Q 1481 -109 1013 -844 
L 513 -844 
Q 928 -128 1133 580 
Q 1338 1288 1338 2009 
Q 1338 2731 1133 3434 
Q 928 4138 513 4856 
z
" transform="scale(0.015625)"/>
     </defs>
     <use xlink:href="#DejaVuSans-1c"/>
     <use xlink:href="#DejaVuSans-3" transform="translate(63.625 0)"/>
     <use xlink:href="#DejaVuSans-44" transform="translate(95.40625 0)"/>
     <use xlink:href="#DejaVuSans-56" transform="translate(156.6875 0)"/>
     <use xlink:href="#DejaVuSans-56" transform="translate(208.78125 0)"/>
     <use xlink:href="#DejaVuSans-58" transform="translate(260.875 0)"/>
     <use xlink:href="#DejaVuSans-50" transform="translate(324.25 0)"/>
     <use xlink:href="#DejaVuSans-53" transform="translate(421.65625 0)"/>
     <use xlink:href="#DejaVuSans-57" transform="translate(485.140625 0)"/>
     <use xlink:href="#DejaVuSans-4c" transform="translate(524.34375 0)"/>
     <use xlink:href="#DejaVuSans-52" transform="translate(552.125 0)"/>
     <use xlink:href="#DejaVuSans-51" transform="translate(613.3125 0)"/>
     <use xlink:href="#DejaVuSans-3" transform="translate(676.6875 0)"/>
     <use xlink:href="#DejaVuSans-57" transform="translate(708.46875 0)"/>
     <use xlink:href="#DejaVuSans-5c" transform="translate(747.671875 0)"/>
     <use xlink:href="#DejaVuSans-53" transform="translate(806.859375 0)"/>
     <use xlink:href="#DejaVuSans-48" transform="translate(870.34375 0)"/>
     <use xlink:href="#DejaVuSans-56" transform="translate(931.875 0)"/>
     <use xlink:href="#DejaVuSans-3" transform="translate(983.96875 0)"/>
     <use xlink:href="#DejaVuSans-5b" transform="translate(1015.75 0)"/>
     <use xlink:href="#DejaVuSans-3" transform="translate(1074.9375 0)"/>
     <use xlink:href="#DejaVuSans-46" transform="translate(1106.71875 0)"/>
     <use xlink:href="#DejaVuSans-4b" transform="translate(1161.703125 0)"/>
     <use xlink:href="#DejaVuSans-44" transform="translate(1225.078125 0)"/>
     <use xlink:href="#DejaVuSans-53" transform="translate(1286.359375 0)"/>
     <use xlink:href="#DejaVuSans-57" transform="translate(1349.84375 0)"/>
     <use xlink:href="#DejaVuSans-48" transform="translate(1389.046875 0)"/>
     <use xlink:href="#DejaVuSans-55" transform="translate(1450.578125 0)"/>
     <use xlink:href="#DejaVuSans-56" transform="translate(1491.6875 0)"/>
     <use xlink:href="#DejaVuSans-3" transform="translate(1543.78125 0)"/>
     <use xlink:href="#DejaVuSans-13" transform="translate(1575.5625 0)"/>
     <use xlink:href="#DejaVuSans-15" transform="translate(1639.1875 0)"/>
     <use xlink:href="#DejaVuSans-10" transform="translate(1702.8125 0)"/>
     <use xlink:href="#DejaVuSans-15" transform="translate(1738.890625 0)"/>
     <use xlink:href="#DejaVuSans-19" transform="translate(1802.515625 0)"/>
     <use xlink:href="#DejaVuSans-3" transform="translate(1866.140625 0)"/>
     <use xlink:href="#DejaVuSans-b" transform="translate(1897.921875 0)"/>
     <use xlink:href="#DejaVuSans-52" transform="translate(1936.9375 0)"/>
     <use xlink:href="#DejaVuSans-53" transform="translate(1998.125 0)"/>
     <use xlink:href="#DejaVuSans-48" transform="translate(2061.609375 0)"/>
     <use xlink:href="#DejaVuSans-51" transform="translate(2123.140625 0)"/>
     <use xlink:href="#DejaVuSans-3" transform="translate(2186.515625 0)"/>
     <use xlink:href="#DejaVuSans-46" transform="translate(2218.296875 0)"/>
     <use xlink:href="#DejaVuSans-4c" transform="translate(2273.28125 0)"/>
     <use xlink:href="#DejaVuSans-55" transform="translate(2301.0625 0)"/>
     <use xlink:href="#DejaVuSans-46" transform="translate(2339.96875 0)"/>
     <use xlink:href="#DejaVuSans-4f" transform="translate(2394.953125 0)"/>
     <use xlink:href="#DejaVuSans-48" transform="translate(2422.734375 0)"/>
     <use xlink:href="#DejaVuSans-3" transform="translate(2484.265625 0)"/>
     <use xlink:href="#DejaVuSans-20" transform="translate(2516.046875 0)"/>
     <use xlink:href="#DejaVuSans-3" transform="translate(2599.84375 0)"/>
     <use xlink:href="#DejaVuSans-56" transform="translate(2631.625 0)"/>
     <use xlink:href="#DejaVuSans-48" transform="translate(2683.71875 0)"/>
     <use xlink:href="#DejaVuSans-46" transform="translate(2745.25 0)"/>
     <use xlink:href="#DejaVuSans-52" transform="translate(2800.234375 0)"/>
     <use xlink:href="#DejaVuSans-51" transform="translate(2861.421875 0)"/>
     <use xlink:href="#DejaVuSans-47" transform="translate(2924.796875 0)"/>
     <use xlink:href="#DejaVuSans-44" transform="translate(2988.28125 0)"/>
     <use xlink:href="#DejaVuSans-55" transform="translate(3049.5625 0)"/>
     <use xlink:href="#DejaVuSans-5c" transform="translate(3090.671875 0)"/>
     <use xlink:href="#DejaVuSans-3" transform="translate(3149.859375 0)"/>
     <use xlink:href="#DejaVuSans-4f" transform="translate(3181.640625 0)"/>
     <use xlink:href="#DejaVuSans-4c" transform="translate(3209.421875 0)"/>
     <use xlink:href="#DejaVuSans-51" transform="translate(3237.203125 0)"/>
     <use xlink:href="#DejaVuSans-4e" transform="translate(3300.578125 0)"/>
     <use xlink:href="#DejaVuSans-c" transform="translate(3358.484375 0)"/>
    </g>
   </g>
  </g>
 </g>
 <defs>
  <clipPath id="p53983bee50">
   <rect x="163.24" y="25.157422" width="833.96" height="398.402578"/>
  </clipPath>
 </defs>
</svg>
